<svg data-name="Layer 1" xmlns="http://www.w3.org/2000/svg" viewBox="0 0 1449.53 422.85" role="presentation"><defs><style>.cls-1,.cls-2,.cls-3,.cls-4,.cls-5{fill:none;stroke-linecap:round;stroke-miterlimit:10;}.cls-1{stroke:#78cdd1;}.cls-1,.cls-2,.cls-4{stroke-width:60px;}.cls-2,.cls-3{stroke:#c4d438;}.cls-3,.cls-5{stroke-width:30px;}.cls-4,.cls-5{stroke:#fff;}</style></defs><title>right</title><line class="cls-1" x1="319.94" y1="121.88" x2="30" y2="121.42"/><line class="cls-1" x1="806.89" y1="30" x2="419.38" y2="31.61"/><line class="cls-1" x1="1419.53" y1="300.17" x2="693.38" y2="301.61"/><line class="cls-2" x1="312.83" y1="211.9" x2="310.71" y2="211.95"/><line class="cls-3" x1="432.16" y1="121.97" x2="430.04" y2="122.02"/><line class="cls-2" x1="242.3" y1="32.04" x2="81.25" y2="32.05"/><line class="cls-2" x1="458.56" y1="302.5" x2="204.67" y2="302.66"/><line class="cls-1" x1="84.71" y1="302.6" x2="86.19" y2="304.06"/><line class="cls-1" x1="575.61" y1="302.66" x2="575.61" y2="302.52"/><line class="cls-1" x1="546.86" y1="122.68" x2="546.86" y2="122.53"/><line class="cls-4" x1="1189.75" y1="210" x2="463.59" y2="211.44"/><line class="cls-5" x1="191.94" y1="211" x2="191.73" y2="212.17"/><line class="cls-5" x1="429.53" y1="392.86" x2="428.09" y2="394.3"/><line class="cls-3" x1="715.16" y1="121.97" x2="713.04" y2="122.02"/><line class="cls-1" x1="671.27" y1="392.72" x2="534.71" y2="392.85"/><line class="cls-4" x1="978.68" y1="392.72" x2="841.71" y2="392.85"/></svg>
