<svg version="1.1" id="Capa_1" xmlns="http://www.w3.org/2000/svg" xmlns:xlink="http://www.w3.org/1999/xlink" x="0px" y="0px"
      viewBox="0 0 56 56" style="enable-background:new 0 0 56 56;" xml:space="preserve">
<style type="text/css">
   .st0{fill:none;stroke:#FFFFFF;stroke-width:2;stroke-linecap:round;stroke-linejoin:round;stroke-miterlimit:3;}
</style>
<path class="st0" d="M17,19h22c0.5,0,1,0.5,1,1.1v16.9c0,0.6-0.5,1.1-1,1.1H17c-0.5,0-1-0.5-1-1.1V20.1C16,19.5,16.5,19,17,19z"/>
<path class="st0" d="M33,19v-1.5c0-0.8-0.9-1.5-2-1.5h-6c-1.1,0-2,0.7-2,1.5V19"/>
<path class="st0" d="M40,28c-3.7,0.7-7.8,1-12,1s-8.4-0.3-12-1"/>
<path class="st0" d="M26,26h4"/>
</svg>