<?xml version="1.0" standalone="no"?>
<!DOCTYPE svg PUBLIC "-//W3C//DTD SVG 20010904//EN"
 "http://www.w3.org/TR/2001/REC-SVG-20010904/DTD/svg10.dtd">
<svg version="1.0" xmlns="http://www.w3.org/2000/svg"
 width="700.000000pt" height="700.000000pt" viewBox="0 0 700.000000 700.000000"
 preserveAspectRatio="xMidYMid meet">
<metadata>
Created by potrace 1.11, written by Peter Selinger 2001-2013
</metadata>
<g transform="translate(0.000000,700.000000) scale(0.100000,-0.100000)"
fill="#000000" stroke="none">
<path d="M3697 5095 c-121 -42 -155 -183 -67 -284 11 -13 37 -29 58 -36 82
-29 166 6 203 83 65 132 -60 284 -194 237z"/>
<path d="M2839 5038 c-1 -2 -2 -133 -3 -293 l-1 -290 -140 -5 -140 -5 0 -85 0
-85 140 -5 140 -5 1 -700 c1 -385 2 -703 3 -706 0 -3 45 -6 99 -5 l97 1 3 708
2 707 164 0 163 0 -1 88 -1 87 -162 3 -163 2 0 295 0 295 -100 0 c-55 0 -101
-1 -101 -2z"/>
<path d="M1458 4485 c-2 -3 -22 -7 -44 -10 -271 -41 -517 -228 -637 -483 -101
-217 -97 -526 10 -720 65 -117 168 -234 266 -301 80 -54 207 -112 281 -127 37
-7 80 -15 111 -20 38 -6 264 -6 274 0 4 3 27 7 52 10 92 11 237 67 339 131 45
28 210 188 210 204 0 8 -142 111 -154 111 -3 0 -31 -26 -63 -58 -92 -91 -159
-135 -270 -175 -250 -90 -558 -26 -730 150 -207 214 -252 540 -106 781 94 154
255 269 431 307 94 20 296 13 378 -13 126 -40 230 -106 312 -197 l47 -54 78
50 c42 27 77 53 77 56 0 3 -16 25 -35 49 -120 147 -258 232 -458 286 -62 16
-116 22 -223 24 -78 2 -144 1 -146 -1z"/>
<path d="M4898 4479 c-226 -36 -431 -171 -563 -369 -96 -145 -130 -270 -129
-470 0 -188 33 -304 129 -450 129 -198 319 -327 538 -366 276 -48 532 37 732
244 l55 56 0 -136 0 -136 94 1 c52 1 97 5 100 8 5 4 8 669 6 1402 l0 187 -100
0 -100 0 0 -147 0 -148 -43 50 c-121 143 -239 219 -402 260 -76 19 -242 27
-317 14z m343 -218 c76 -24 196 -100 250 -157 118 -126 179 -280 179 -453 0
-219 -83 -398 -238 -513 -326 -242 -765 -141 -944 216 -109 217 -93 465 43
666 156 230 438 326 710 241z"/>
<path d="M3644 3653 l1 -798 100 0 100 0 1 798 2 797 -103 0 -102 0 1 -797z"/>
<path d="M6094 4438 c-3 -4 13 -8 35 -8 l41 0 0 -120 c0 -73 4 -120 10 -120 6
0 10 47 10 120 l0 120 42 0 c23 0 38 3 34 8 -10 10 -166 10 -172 0z"/>
<path d="M6329 4438 c-5 -68 -2 -241 4 -245 9 -5 8 -13 10 130 1 66 -1 121 -5
124 -5 2 -8 -2 -9 -9z"/>
<path d="M6497 4436 c-9 -10 -17 -24 -17 -32 0 -20 -52 -148 -62 -152 -14 -6
-9 -32 7 -32 8 0 18 12 21 28 4 15 9 32 13 37 3 6 16 39 28 75 l22 65 0 -95
c-1 -128 0 -144 8 -136 8 8 11 220 3 242 -6 15 -8 15 -23 0z"/>
<path d="M6356 4390 c4 -14 13 -38 20 -55 11 -24 13 -25 8 -5 -4 14 -13 39
-20 55 -11 24 -13 25 -8 5z"/>
<path d="M6390 4288 c0 -9 5 -20 10 -23 13 -8 13 5 0 25 -8 13 -10 13 -10 -2z"/>
<path d="M971 2598 c-146 -40 -226 -209 -164 -348 76 -169 308 -202 431 -61
82 95 78 246 -9 339 -61 65 -169 95 -258 70z"/>
<path d="M1724 2594 c-123 -43 -197 -182 -163 -306 40 -150 210 -230 351 -166
65 30 103 67 130 126 75 165 -39 350 -222 357 -30 2 -74 -4 -96 -11z"/>
<path d="M2484 2589 c-104 -39 -159 -122 -159 -239 1 -84 16 -123 71 -177 49
-47 90 -65 161 -71 129 -10 238 68 270 194 29 116 -41 248 -157 296 -45 19
-132 17 -186 -3z"/>
<path d="M3285 2601 c-230 -59 -268 -366 -60 -473 24 -13 68 -23 107 -26 59
-4 75 -1 122 22 192 94 194 360 4 457 -43 22 -128 32 -173 20z"/>
<path d="M4040 2597 c-36 -9 -105 -54 -130 -84 -79 -95 -70 -253 20 -340 53
-52 96 -68 180 -68 54 0 86 5 113 19 122 61 177 208 123 329 -52 118 -178 177
-306 144z"/>
<path d="M4780 2588 c-55 -23 -104 -69 -133 -123 -29 -54 -30 -163 -2 -219 42
-87 115 -135 215 -143 81 -7 148 19 205 77 120 123 76 339 -84 408 -53 23
-147 23 -201 0z"/>
<path d="M5566 2593 c-39 -13 -92 -47 -114 -73 -7 -8 -24 -39 -38 -69 -73
-158 34 -334 211 -349 81 -6 141 15 201 70 51 47 77 109 77 186 2 170 -174
292 -337 235z"/>
</g>
</svg>
