<svg viewBox="0 0 35.87 61.73">
  <path class="color-secondary" style="mix-blend-mode: multiply" d="M15.68,61.73h0a4,4,0,1,1,0-8h0A11.82,11.82,0,0,0,24.27,50a13.25,13.25,0,0,0,3.64-9.22c0-7.14-5.48-12.95-12.22-12.95H5a4,4,0,0,1,0-8H15.69c11.13,0,20.19,9.38,20.19,20.92A21.18,21.18,0,0,1,30,55.54,19.71,19.71,0,0,1,15.68,61.73Z"/>
  <path class="color-primary" d="M5,27.86a4,4,0,0,1-4-4V4A4,4,0,0,1,9,4v19.9A4,4,0,0,1,5,27.86Z"/>
  <path class="color-primary" d="M15.68,61.73H4a4,4,0,0,1,0-8h11.7a4,4,0,0,1,0,8Z"/>
  <path class="color-secondary" style="mix-blend-mode: multiply" d="M28.08,8H5A4,4,0,0,1,5,0H28.08a4,4,0,1,1,0,8Z"/>
</svg>
