<svg viewBox="0 0 39.72 61.51">
  <path class="color-primary" d="M18.86,61.51A20.42,20.42,0,0,1,5,56.09a4,4,0,0,1,5.38-5.87,12.48,12.48,0,0,0,8.44,3.33c7.11,0,12.9-6.13,12.9-13.66V19.82a4,4,0,1,1,8,0V39.88C39.72,51.81,30.36,61.51,18.86,61.51Z"/>
  <path class="color-primary" d="M35.66,23.8a4,4,0,0,1-4-4A11.85,11.85,0,0,0,8,19.82a4,4,0,1,1-8,0,19.82,19.82,0,0,1,39.64,0A4,4,0,0,1,35.66,23.8Z"/>
  <path class="color-secondary" style="mix-blend-mode: multiply" d="M19.82,39.64A19.84,19.84,0,0,1,0,19.82a4,4,0,0,1,8,0,11.85,11.85,0,1,0,23.71,0,4,4,0,1,1,8,0A19.84,19.84,0,0,1,19.82,39.64Z"/>
</svg>
