<svg viewBox="0 0 40.85 62.59">
  <path class="color-primary" d="M35.15,8h0L4,8A4,4,0,0,1,4,0H4l31.17,0a4,4,0,0,1,0,8Z"/>
  <path class="color-primary" d="M19.85,62.59A20.53,20.53,0,0,1,2.53,53.15a4,4,0,1,1,6.69-4.32,12.6,12.6,0,0,0,10.64,5.79h.07a13.14,13.14,0,0,0,13-12.89,12.16,12.16,0,0,0-3.6-8.7,13,13,0,0,0-9.12-3.7,13.22,13.22,0,0,0-6.7,1.86,4,4,0,1,1-4.08-6.84,21.19,21.19,0,0,1,10.74-3,20.81,20.81,0,0,1,14.8,6,20.1,20.1,0,0,1,5.93,14.42A21.16,21.16,0,0,1,20,62.59Z"/>
  <path class="color-secondary" style="mix-blend-mode: multiply" d="M11.42,31.68a4,4,0,0,1-2.82-6.8L32.34,1.16A4,4,0,0,1,38,6.8L14.23,30.52A4,4,0,0,1,11.42,31.68Z"/>
</svg>
