<svg viewBox="0 0 38.41 61.67">
  <path class="color-primary" d="M19.23,32.78a4,4,0,1,1,0-8c5,0,9.11-3.78,9.11-8.43S24.26,8,19.23,8a4,4,0,1,1,0-8c9.42,0,17.08,7.35,17.08,16.39S28.65,32.78,19.23,32.78Z"/>
  <path class="color-primary" d="M19.23,61.67C8.63,61.67,0,53.41,0,43.25S8.63,24.82,19.23,24.82a4,4,0,0,1,0,8C13,32.78,8,37.48,8,43.25S13,53.71,19.23,53.71a4,4,0,0,1,0,8Z"/>
  <path class="color-secondary" style="mix-blend-mode: multiply" d="M19.18,32.78C9.76,32.78,2.1,25.43,2.1,16.39S9.76,0,19.18,0a4,4,0,0,1,0,8c-5,0-9.12,3.78-9.12,8.43s4.09,8.43,9.12,8.43a4,4,0,0,1,0,8Z"/>
  <path class="color-secondary" style="mix-blend-mode: multiply" d="M19.18,61.67a4,4,0,1,1,0-8c6.21,0,11.26-4.69,11.26-10.46S25.39,32.78,19.18,32.78a4,4,0,1,1,0-8c10.6,0,19.23,8.27,19.23,18.43S29.79,61.67,19.18,61.67Z"/>
</svg>
