<svg viewBox="0 0 41.68 61.43">
  <path class="color-primary" d="M4,23.57a4,4,0,0,1-4-4,18.86,18.86,0,0,1,6.24-14A21.54,21.54,0,0,1,20.91,0h0a21.45,21.45,0,0,1,17,8.16A4,4,0,0,1,31.58,13,13.44,13.44,0,0,0,20.91,8h0a13.6,13.6,0,0,0-9.27,3.52A11,11,0,0,0,8,19.59,4,4,0,0,1,4,23.57Z"/>
  <path class="color-secondary" style="mix-blend-mode: multiply" d="M4,45.82H4a4,4,0,0,1-4-4L0,19.94a4,4,0,0,1,4-4H4a4,4,0,0,1,4,4L8,41.84A4,4,0,0,1,4,45.82Z"/>
  <path class="color-primary" d="M20.69,61.43A20.79,20.79,0,0,1,3.93,52.92,20.39,20.39,0,0,1,0,40.84a20.67,20.67,0,0,1,20.69-20.6,4,4,0,0,1,0,8A12.69,12.69,0,0,0,8,40.84a12.47,12.47,0,0,0,2.4,7.39,12.8,12.8,0,0,0,10.32,5.24,4,4,0,0,1,0,8Z"/>
  <path class="color-secondary" style="mix-blend-mode: multiply" d="M20.69,61.43a4,4,0,1,1,0-8,12.85,12.85,0,0,0,13-12.63,12.85,12.85,0,0,0-13-12.63,4,4,0,1,1,0-8,20.82,20.82,0,0,1,21,20.6A20.82,20.82,0,0,1,20.69,61.43Z"/>
</svg>
