<svg viewBox="0 0 39.39 60.57">
  <path class="color-primary" d="M35.4,60.53h0l-29.21,0a4,4,0,0,1,0-8h0l29.21,0a4,4,0,0,1,0,8Z"/>
  <path class="color-primary" d="M25.63,40.2a4,4,0,0,1-2.88-6.73l4.6-4.83a12.6,12.6,0,0,0,0-17.19,10.8,10.8,0,0,0-15.85,0l-4.6,4.83A4,4,0,0,1,1.1,10.75L5.7,5.92A18.75,18.75,0,0,1,19.37,0h0A18.82,18.82,0,0,1,33.09,5.95a20.66,20.66,0,0,1,0,28.18L28.51,39A4,4,0,0,1,25.63,40.2Z"/>
  <path class="color-secondary" style="mix-blend-mode: multiply" d="M6.19,60.57a4,4,0,0,1-2.88-6.74L22.58,33.67a4,4,0,0,1,5.76,5.5L9.07,59.34A4,4,0,0,1,6.19,60.57Z"/>
</svg>
