<?xml version="1.0" encoding="utf-8"?>
<!-- Generator: Adobe Illustrator 19.2.0, SVG Export Plug-In . SVG Version: 6.00 Build 0)  -->
<svg version="1.1" xmlns="http://www.w3.org/2000/svg" xmlns:xlink="http://www.w3.org/1999/xlink" x="0px"
	 y="0px" viewBox="0 0 527.8 838.8" style="enable-background:new 0 0 527.8 838.8;" xml:space="preserve">
<style type="text/css">
	.st0{fill:#DCAA84;}
	.st1{fill:#EFC8A7;}
	.st2{fill:#231F20;}
	.st3{fill:#FFFFFF;}
	.st4{fill:#D1E42D;}
	.st5{fill:#FFDFB9;}
	.st6{fill:#67C187;}
	.st7{fill:#848484;}
	.st8{fill:#61AFAF;}
	.st9{fill:#5C6670;}
	.st10{fill:#78CDD1;}
	.st11{fill:#D2D6D5;}
	.st12{fill:#BEBFBE;}
	.st13{fill:#D0734D;}
	.st14{fill:#BCC8CE;}
	.st15{fill:#E8E8E8;}
	.st16{fill:#9FA09F;}
	.st17{fill:#D3DCE2;}
	.st18{fill:#F7F7F7;}
	.st19{fill:#C7D4E2;}
	.st20{fill:#FF8C00;}
	.st21{fill:#752C1B;}
	.st22{fill:#602117;}
</style>
<polygon class="st0" points="190.8,403.2 188,420 165.8,413.8 165.5,385.7 171,378.3 187.2,385 "/>
<path class="st1" d="M169.3,370.1c-0.3,0.7-0.4,1.4-0.4,2.2c-0.8,8.7,4.1,21.4,8.5,26.9s18.2,10.2,21,11.4s9.3,2.5,12.1-1.4
	s9-16.4,9-16.4s2.4,0.2,4.1,0.4s6.3-0.3,6.1-2.9c-0.4-1.9-1.6-7-1.9-11.6c-0.3-4.7-1-8.7-1-8.7s4.1-4.8,4.9-14
	c0.8-9.2-2.7-16.8-2.7-16.8s-5-0.1-11.6,3.3c-6.6,3.1-14.1-0.3-16.3,1.5c-2.3,1.5-5.9,6.6-5.9,6.6s-3.5,2.1-8.5,3.9
	c-0.5-2.7-2.3-3.5-4.4-4.4c-4.2-1.8-11.9,2.8-14.3,8.5C166,363,166.3,367.4,169.3,370.1z"/>
<path class="st2" d="M221.5,370.6c0,0-2.1-1.7-7.2-1.8c-5.1-0.1-7.2,1-7.2,1s5.1,4.5,8.2,5.7s4.3-0.5,5.3-1.6
	C221.5,372.9,221.5,370.6,221.5,370.6z"/>
<path class="st3" d="M220,371.4c0,0-1.5-1.4-5.8-0.9c-4.3,0.4-5,1.5-5,1.5s4,2.8,6.7,3.6c2.7,0.7,4-0.1,4.8-1.2
	C221.5,373.3,220,371.4,220,371.4z"/>
<title>Doctor</title>
<path class="st4" d="M449.3,571.7c-53.9,0-97.6-43.7-97.7-97.6s43.7-97.6,97.6-97.7h0.1"/>
<polygon class="st5" points="315.6,755.8 324.7,787.7 319.5,798.2 306.2,794.3 301.6,785.9 295,760.4 "/>
<path class="st6" d="M298.5,784.1c0,0,0.7,16.3,2.1,23s1.4,6.7,1.4,6.7s0.7,1.8,3.2,1.8s13.5-2.1,21.6-4.2s13.8-2.8,18.4-2.8
	s15.3-3.1,21.9-4.9c6.6-1.8,11.5-5.3,11.3-6.7s-0.8-3.8-2.1-5.8c-1.3-2-15.3-3.2-15.3-3.2l-24-4.5l-13.5-4.2c0,0-3.8,7.8-11.3,9.6
	c-7.4,1.8-9.9-2.8-10.6-4.2C301,783.1,298.1,780.6,298.5,784.1z"/>
<path class="st7" d="M134.2,661.5v3.5c0,1.5,1.3,2.8,2.8,2.8h61.5c1.5,0,2.8-1.3,2.8-2.8v-3.5H134.2z"/>
<polygon class="st0" points="247.5,752.6 236.5,782.1 226.6,787.2 218.5,776.8 219.8,767.8 228.9,749.2 "/>
<path class="st8" d="M186.7,648l61,20l-0.7,3l2,1.7c0,0-26.4,78.6-27.8,82.6s21.9,15.9,25.9,9.9s31.8-62.5,31.8-62.5l-6.3-49
	l-34.3-12.3l-42-4.3L186.7,648z"/>
<path class="st9" d="M220,661.5H115.6c-1.2,0-2.2-1-2.2-2.2v-13c0-1.2,1-2.2,2.2-2.2H220c1.2,0,2.2,1,2.2,2.2v13
	C222.1,660.5,221.2,661.5,220,661.5z"/>
<path class="st10" d="M221.3,589.2c0,0,63.3,41.7,68.7,45.3s5.7,7.7,6.7,11.3c1,3.7,23,109.7,24.3,114.7s-28.7,13.3-30.3,7.3
	c-1.7-6-30-103-30-103l-3-2l-0.3-3l-58-13.3l-3.3-34.3L221.3,589.2z"/>
<path class="st6" d="M218.1,766.3c0,0-9.6,12-12.7,17.6c-3.2,5.6-3.2,5.6-3.2,5.6s-0.6,1.7,1.2,3.2s10.9,6.8,17.9,10.4
	c7.1,3.5,21.8,10.3,26,11.4c4.2,1.1,4,0.9,10.4,1.6c6.4,0.6,12,0.4,12.3-0.9s0.5-4.1,0-6.2s-15.5-10.2-15.5-10.2L243,784.2l-4.7-6.6
	c0,0-6.8,3.8-13.2,0.4c-6.4-3.3-5.3-8.1-4.9-9.6C220.5,767,220.1,763.5,218.1,766.3z"/>
<path class="st11" d="M213.9,838.8v-19.5c0-1.5-1.3-2.8-2.8-2.8h-86.5c-1.5,0-2.8,1.3-2.8,2.8v19.5H213.9z"/>
<path class="st7" d="M201.4,816.5v-1.7c0-1.5-1.3-2.8-2.8-2.8H137c-1.5,0-2.8,1.3-2.8,2.8v1.7H201.4z"/>
<rect x="156.8" y="667.8" class="st12" width="22" height="144.1"/>
<g>
	<path class="st13" d="M205.8,364.1c-0.3-0.5-0.1-1.2,0.7-1.4c0-0.2,4.1-1.8,9.3-1.8c5,0,9.4,1.9,9.6,1.9c0.7,0.3,1,1,0.4,1.5
		c-0.4,0.4-1.5,0.7-2.2,0.3c0-0.2-3.9-1.6-7.9-1.7c-4.1,0.1-7.6,1.5-7.6,1.5c-0.2,0.2-0.4,0.2-0.9,0.1S206.2,364.3,205.8,364.1z"/>
</g>
<path d="M217.1,372.7c0.6-1.4,2-2.3,3-2c1.1,0.4,1.4,1.8,0.8,3.3c-0.6,1.4-2,2.3-3,2C216.8,375.7,216.4,374.2,217.1,372.7z"/>
<path class="st3" d="M217.2,371.3c0.3-0.5,0.9-0.9,1.4-0.7s0.7,0.7,0.4,1.2c-0.3,0.5-0.9,0.9-1.4,0.7
	C217.1,372.4,216.9,371.8,217.2,371.3z"/>
<path class="st6" d="M165.2,408.2c0,0,27.3,9.3,27.8,10.2c0.5,0.8,1,17.7,1,17.7l-36.2-12.8L165.2,408.2z"/>
<ellipse transform="matrix(9.868634e-02 -0.9951 0.9951 9.868634e-02 -307.8047 760.1266)" class="st14" cx="265.7" cy="550" rx="13" ry="7.1"/>
<path class="st0" d="M288.6,547l-6.7,2.9l5.3-0.4c0,0,2.2,1,7.3,0.3c5.2-0.8,7.5-1.5,10,0s5.8,1.6,7.3,0.4c1.5-1.1,2.4-4.8-3.6-6.4
	c-6-1.6-10.1-3.8-10.1-3.8l-8.4,1.2L288.6,547z"/>
<path class="st1" d="M281.6,553.8c1.2-0.1,2.6-0.3,4-0.7c8.6-2.6,18.5-12.1,18.5-12.1l4.2-1.6c0,0,5.4,4.6,7.9,6
	c1.5,0.8,2.9,0.7,3.8,0.5c2.2,2.3,3.5,2,5.4,1.7c2.3-0.4,2.8-1.5,1.1-3.5c0.1-1.3,0.2-3.5-0.6-5.8c-0.8-2.2-1-5-1.4-7
	c1.7,0.9,4.2,2.1,5.7,2c2.3-0.1,5.6-2.3,2.9-3.7s-5.8-5.1-7.2-5.6c-1.4-0.5-6.7,0.2-9.8,0.6c-1.3,0.1-3,1.1-4.7,2.3
	c-1.6,0-2.7,0.1-3.4,0.5c-0.5,0.2-1.3,0.8-2.3,1.4c-1.2,0.1-2.2,0.2-2.9,0.3c-1,0.2-2.4,0.9-3.7,1.7c-0.5,0-1,0-1.6,0
	c-1.9,0.2-16.1,4.4-20.5,7.3c-1.3,0.3-3.3,0.1-4.4,0.1c-2.8,0.2-6.9,0-9.1,0c-2.4,2-4.3,6.1-4.8,11c-0.3,2.7-0.1,5.2,0.5,7.4
	c2.4,0.3,6.2-0.3,6.8-0.3C266.8,556.3,277.1,554.5,281.6,553.8z"/>
<path class="st15" d="M160.3,420.5c0,0,14.7,3,28.2,10.3s24.8,34.7,25.5,59.2c0.5,16.3-8.5,44.7-8.5,44.7l-5,23.3l-1,8
	c0,0,17.8,15.3,23.8,20.3s3.3,22.7-8.7,39s-17.7,54-17.7,54s-27-35-38.7-35s-12.7,0-20.3,0s-14.3-25.7-10.3-49s4.3-27.3,4.3-27.3
	l-2.3-5.7l2.7-3.7c0,0-4-69.3-4-94C128.3,440,140.3,420.5,160.3,420.5z"/>
<path class="st11" d="M484.7,838.8v-19.5c0-1.5-1.3-2.8-2.8-2.8h-256c-1.5,0-2.8,1.3-2.8,2.8v19.5H484.7z"/>
<path class="st10" d="M389.8,559.1l1.6,0.5l60.4-194.8l-1.5-0.5c-3.7-1.2-7.7,1-8.9,4.7l-56.2,181.2
	C384,553.9,386.1,557.9,389.8,559.1z"/>
<rect x="417.7" y="621.7" class="st12" width="52" height="194.8"/>
<polygon class="st16" points="377.7,603.8 308.7,580.8 303.7,584.7 376.2,608.8 "/>
<polygon class="st12" points="389.5,565.7 276.3,565.7 276.3,579 300.6,587.1 308.7,580.8 377.7,603.8 "/>
<g>
	<path class="st17" d="M354.7,557v-2c0-0.6-0.5-1-1-1h-5.4c-0.6,0-1,0.5-1,1v2H354.7z"/>
	<path class="st17" d="M343.2,557v-2c0-0.6-0.5-1-1-1h-5.4c-0.6,0-1,0.5-1,1v2H343.2z"/>
	<path class="st17" d="M331.7,557v-2c0-0.6-0.5-1-1-1h-5.4c-0.6,0-1,0.5-1,1v2H331.7z"/>
	<path class="st17" d="M297.3,557v-2c0-0.6-0.5-1-1-1h-5.4c-0.6,0-1,0.5-1,1v2H297.3z"/>
	<path class="st17" d="M320.3,557v-2c0-0.6-0.5-1-1-1h-5.4c-0.6,0-1,0.5-1,1v2H320.3z"/>
	<path class="st17" d="M308.8,557v-2c0-0.6-0.5-1-1-1h-5.4c-0.6,0-1,0.5-1,1v2H308.8z"/>
</g>
<path class="st16" d="M359.7,565.7v-6.5c0-1.2-1-2.2-2.2-2.2h-70.3c-1.2,0-2.2,1-2.2,2.2v6.5H359.7z"/>
<g>
	<path class="st14" d="M162.6,585c-0.4,0-0.8-0.2-0.9-0.6c-0.2-0.5,0-1.1,0.5-1.3l7-3c6.8-2.9,13.8-7.6,13.8-7.7
		c0.5-0.3,1.1-0.2,1.4,0.3s0.2,1.1-0.3,1.4c-0.3,0.2-7.2,4.8-14.2,7.8l-7,3C162.8,585,162.7,585,162.6,585z"/>
</g>
<g>
	<path class="st14" d="M195,454.8C195,454.8,195,454.7,195,454.8l-8.1-0.5c-0.4,0-0.8-0.3-0.9-0.8c0-0.1-3-11.9-6.6-17.4
		s-10.6-10.2-10.7-10.2c-0.5-0.3-0.6-0.9-0.3-1.4s0.9-0.6,1.4-0.3c0.3,0.2,7.5,4.9,11.3,10.8c3.3,5.1,6,14.6,6.7,17.3l7.3,0.5
		c0.6,0,1,0.5,0.9,1.1C196,454.3,195.5,454.8,195,454.8z"/>
</g>
<g>
	<path class="st14" d="M207,525.8h-0.1c-0.5-0.1-0.9-0.6-0.9-1.1c0-0.2,2.2-21-2.7-38.4c-4.8-17.2-13.8-24.2-13.9-24.2
		c-0.4-0.3-0.5-0.9-0.2-1.4l8.2-11.5c0.3-0.5,0.9-0.6,1.4-0.2c0.4,0.3,0.6,0.9,0.2,1.4l-7.7,10.7c2.4,2.1,9.6,9.5,13.9,24.6
		c5,17.7,2.8,38.9,2.8,39.1C207.9,525.4,207.5,525.8,207,525.8z"/>
</g>
<path class="st18" d="M258.7,549.3c0.7-7.2,4.4-12.7,8.3-12.3c0,0-63.4-13.1-64.7-13.2c-1.3-0.2-0.5-2.5-1.7-3.5s-3.2-1.8-3.2-1.8
	s-20.9-52.7-23.3-60.2c-7.2-22.2-45.2-20.2-37.2,12.8s32,75.8,35.3,80.3s7.2,6.3,12.5,7.3s74.4,4.2,79.6,4.2
	C260.6,562.6,258,556.5,258.7,549.3z"/>
<polygon class="st12" points="499,615 499,354.3 455,354.3 374.2,615 "/>
<path class="st11" d="M505.5,621.7H365.8c-1.2,0-2.2-1-2.2-2.2v-2.3c0-1.2,1-2.2,2.2-2.2h139.7c1.2,0,2.2,1,2.2,2.2v2.3
	C507.7,620.7,506.7,621.7,505.5,621.7z"/>
<path class="st13" d="M233.2,332.5c-0.5-8.6-15.9-24.7-43.4-26.5c-20-1.3-36.7,11.2-45,31.8c-8.3,20.7-23.2,93.3-3.8,101.2
	s40-6.5,40-6.5s-2.9-5.4-6.2-20.9s-3.9-40.9-3.9-40.9l-0.3-0.3c0-0.1,0-0.1,0-0.2c-2.2-2.6-2.8-7.1-0.9-11.6
	c2.4-5.6,7.8-8.6,12.1-6.8c2.1,0.9,3.6,3.2,4.1,5.7c5.3-2,11.8-4.1,11.8-4.1s3.8-4.8,5.9-6.6c2.1-1.5,9.6,1.8,16.3-1.5
	c6.6-3.3,8.8-6.1,8.8-6.1s1.2,2.6,2.1,6.8C231.8,343.1,233.5,338.1,233.2,332.5z"/>
<ellipse transform="matrix(8.675136e-02 -0.9962 0.9962 8.675136e-02 -214.8035 511.778)" class="st3" cx="171.7" cy="373" rx="3.6" ry="3.6"/>
<circle class="st10" cx="370.5" cy="376.7" r="12"/>
<circle class="st19" cx="435.1" cy="71.4" r="9.7"/>
<circle class="st20" cx="279.4" cy="417.2" r="4.6"/>
<circle class="st4" cx="248.1" cy="240.6" r="11.4"/>
<path class="st21" d="M203.2,394.2c0,0,1.1,4.3,4.2,6.9c3.1,2.6,5.1,1.5,5.1,1.5l2.2-5.1L203.2,394.2z"/>
<path class="st0" d="M204.7,391.2c0,0-1.5,0.1-3.4,1.1s-2.5-1-0.6-1.9S204.7,391.2,204.7,391.2z"/>
<path class="st22" d="M216.1,396.7c0,0-1.6-0.1-6-1.1s-7.9-2.9-7.9-2.9s-0.3,1.4,4.5,3.5c4.8,2,6.8,2.2,7.8,2.3
	C215.5,398.5,216.1,396.7,216.1,396.7z"/>
</svg>
