<svg xmlns="http://www.w3.org/2000/svg" viewBox="0 0 58.33 58.33"><title>Healthcare-icon</title><path fill="#d1e142" fill-rule="evenodd" d="M793.5,511.43a29.17,29.17,0,1,1-29.17,29.16A29.17,29.17,0,0,1,793.5,511.43Z" transform="translate(-764.33 -511.43)"/><path fill="#fff" fill-rule="evenodd" d="M790.26,545.45h6.48v2.44h-6.48Z" transform="translate(-764.33 -511.43)"/><path fill="#fff" fill-rule="evenodd" d="M790.26,533.3h6.48v2.43h-6.48Z" transform="translate(-764.33 -511.43)"/><path fill="#fff" fill-rule="evenodd" d="M793.5,539.78a.81.81,0,1,0,.81.81A.81.81,0,0,0,793.5,539.78Z" transform="translate(-764.33 -511.43)"/><circle fill="#fff" cx="31.6" cy="31.6" r="0.81"/><path fill="#fff" fill-rule="evenodd" d="M795.93,539a.81.81,0,1,0-.81-.81A.81.81,0,0,0,795.93,539Z" transform="translate(-764.33 -511.43)"/><circle fill="#fff" cx="26.74" cy="31.6" r="0.81"/><path fill="#fff" fill-rule="evenodd" d="M791.07,537.35a.81.81,0,1,0,.81.81A.81.81,0,0,0,791.07,537.35Z" transform="translate(-764.33 -511.43)"/><path fill="#fff" d="M807.27,532.09H802v-5.27a6.09,6.09,0,0,0-6.08-6.08h-4.86a6.09,6.09,0,0,0-6.08,6.08v5.27h-5.26a6.08,6.08,0,0,0-6.08,6.07V543a6.08,6.08,0,0,0,6.08,6.08H785v5.27a6.08,6.08,0,0,0,6.08,6.07h4.86a6.08,6.08,0,0,0,6.08-6.07V549.1h5.26a6.08,6.08,0,0,0,6.08-6.08v-4.86A6.08,6.08,0,0,0,807.27,532.09Zm-27.54,14.58a3.66,3.66,0,0,1-3.65-3.65v-4.86a3.65,3.65,0,0,1,3.65-3.64H785v12.15Zm19.85,7.7a3.65,3.65,0,0,1-3.65,3.64h-4.86a3.65,3.65,0,0,1-3.65-3.64V549.1h0v-2.43h0V526.82a3.66,3.66,0,0,1,3.65-3.65h4.86a3.66,3.66,0,0,1,3.65,3.65ZM810.92,543a3.66,3.66,0,0,1-3.65,3.65H802V534.52h5.26a3.65,3.65,0,0,1,3.65,3.64Z" transform="translate(-764.33 -511.43)"/></svg>
