<?xml version="1.0" encoding="utf-8"?>
<!-- Generator: Adobe Illustrator 19.2.0, SVG Export Plug-In . SVG Version: 6.00 Build 0)  -->
<svg version="1.1" xmlns="http://www.w3.org/2000/svg" xmlns:xlink="http://www.w3.org/1999/xlink" x="0px" y="0px"
	 viewBox="0 0 569.6 700.7" style="enable-background:new 0 0 569.6 700.7;" xml:space="preserve">
<style type="text/css">
	.st0{fill:#BEBFBE;}
	.st1{fill:#D2D6D5;}
	.st2{fill:#EEF2F1;}
	.st3{fill:#D66B4D;}
	.st4{fill:#321B0F;}
	.st5{fill:#F48866;}
	.st6{fill:#929497;}
	.st7{fill:#FFFFFF;}
	.st8{fill:#D1E42D;}
	.st9{fill:#E9F0EB;}
	.st10{fill:#81ABAD;}
	.st11{fill:#BCE6E8;}
	.st12{fill:#9FA09F;}
	.st13{fill:#848484;}
	.st14{fill:#78CDD1;}
	.st15{fill:#E8F296;}
	.st16{fill:#546FC3;}
</style>
<title>patient</title>
<rect x="212.8" y="18" class="st0" width="223.6" height="44"/>
<g>
	<path class="st1" d="M339.1,55c-17.1,0-31,1.8-31,4v19h62V59C370.1,56.8,356.2,55,339.1,55z"/>
	<ellipse class="st0" cx="339.1" cy="78" rx="31" ry="4"/>
	<path class="st2" d="M339.1,76.5c-13.3,0-24.1,1.4-24.1,3.1V110h48.2V79.6C363.2,77.9,352.4,76.5,339.1,76.5z"/>
	<path class="st2" d="M339.1,176.9c-13.3,0-24.1,1.4-24.1,3.1v75.5h48.2V180C363.2,178.3,352.4,176.9,339.1,176.9z"/>
	<path class="st1" d="M339.1,102.7c-16,0-29,1.7-29,3.7v88.3c0,2.1,13,3.7,29,3.7s29-1.7,29-3.7v-88.3
		C368.1,104.4,355.1,102.7,339.1,102.7z"/>
</g>
<path class="st1" d="M447.4,278.9c0-19.8-14.8-32.9-32.9-32.9h-21.3H283.8h-21.3c-18.1,0-32.9,13.2-32.9,32.9
	c0,59.9-31,115.3-31,115.3c0,18.1,22,28,40.1,28h45.2h109.3h45.2c18.1,0,40.1-9.9,40.1-28C478.4,394.3,447.4,338.8,447.4,278.9z"/>
<path class="st2" d="M383.4,327h-88.2c-10.4,0-18.9-8.5-18.9-18.9v-30.1c0-10.4,8.5-18.9,18.9-18.9h88.2c10.4,0,18.9,8.5,18.9,18.9
	v30.1C402.4,318.5,393.9,327,383.4,327z"/>
<g>
	<path class="st3" d="M340.7,303.9l0-0.1l-2.3,0.1l-2.3-0.1l0,0.1l-13.8,0.3l0.3,11c0,1.8,4.5,3.4,10.8,3.9l5,4.2l5.1-4.3
		c6.2-0.6,10.6-2.1,10.6-3.9l0.3-11L340.7,303.9z"/>
	<path class="st4" d="M361,269.9c0.1-4.8-5.8-18.2-22.6-18.2c-16.8,0-22.7,13.4-22.6,18.2c0.1,4.8,1.8,16,1.8,16l-0.4,5.2l2.8,3.6
		l7.1,0.9l11.3-8.8l11.3,8.8l7.1-0.9l2.8-3.6l-0.4-5.2C359.2,285.9,360.9,274.7,361,269.9z"/>
	<path class="st5" d="M359,283.4l-0.9,4.9l-2,1c0,0,0.4-1.9,0.7-6.3c0.3-4.4-1.8-8.6-1.8-8.6l0.7-4.6c0,0-1.9-1.8-5.1-3.6l2.3-3.8
		l-4.7,4c-0.1,0.1-0.2,0.1-0.3,0.2c-2.3,1.2-11,4.5-11,4.5l6.8-3.5l-10,3.7l7.8-4l-10.8,4.3l10.6-5.5c0,0-2.8,1.1-11.7,3.4
		c-4.3,1.1-6.9,1.4-8.5,1.4l0.6,3.5c0,0-2.1,4.3-1.8,8.6c0.3,4.4,0.7,6.3,0.7,6.3l-2-1l-0.9-4.9c-1.1-0.2-2.7-0.2-2.7,1.2
		c0,2.1,0.7,9.1,2.3,11.1c0.5,0.5,1,0.9,1.6,1.2c0.5,2.7,1.2,6.1,1.7,7c0.7,1.5,4.6,4.8,5.8,5.4c1.2,0.6,2.5,1,2.5,1
		s0.6,2.8,9.5,2.8c0,0,0,0,0,0c0,0,0.1,0,0.1,0c0,0,0.1,0,0.1,0c0,0,0,0,0,0c8.8-0.1,9.5-2.8,9.5-2.8s1.3-0.3,2.5-1
		c1.2-0.6,5-3.9,5.8-5.4c0.4-0.9,1.1-4.2,1.7-7c0.6-0.3,1.1-0.7,1.6-1.2c1.6-2,2.3-9,2.3-11.1C361.7,283.3,360.1,283.3,359,283.4z"
		/>
	<g>
		<path class="st4" d="M322.3,280.5c-0.4,0-0.3,0.1-0.6-0.2c-0.3-0.5-0.2-1,0.4-1.3c0.1-0.1,2.5-1.8,4-2.3c1.6-0.6,6.8-0.2,7.8-0.2
			c0.6,0,1.1,0.6,1,1.2c0,0.6-0.6,1.1-1.2,1c-2.8-0.2-6.1-0.2-6.9,0c-1,0.4-3.3,1.2-4,1.6C322.7,280.4,322.5,280.5,322.3,280.5z"/>
	</g>
	<path class="st3" d="M347.9,284.6c-3,0-4.5-0.2-4.9-0.9c-0.5,1.5,0.9,1.8,4.9,1.8c4.4,0,4.9-1.2,4.9-1.2s-0.1-0.2-0.4-0.6
		C351.9,284.1,350.7,284.6,347.9,284.6z"/>
	<path class="st3" d="M329.2,284.6c3,0,4.5-0.2,4.9-0.9c0.5,1.5-0.9,1.8-4.9,1.8c-4.4,0-4.9-1.2-4.9-1.2s0.1-0.2,0.4-0.6
		C325.2,284.1,326.4,284.6,329.2,284.6z"/>
	<g>
		<path class="st4" d="M354.4,280.5c0.4,0,0.3,0.1,0.6-0.2c0.3-0.5,0.2-1-0.4-1.3c-0.1-0.1-2.5-1.8-4-2.3c-1.6-0.6-6.8-0.2-7.8-0.2
			c-0.6,0-1.1,0.6-1,1.2c0,0.6,0.6,1.1,1.2,1c2.8-0.2,6.1-0.2,6.9,0c1,0.4,3.3,1.2,4,1.6C354,280.4,354.2,280.5,354.4,280.5z"/>
	</g>
	<path class="st3" d="M325.5,296.6c0,0-0.1,3.3,0.9,6.6c1,3.3,1,3.3,1,3.3s-1-1.1-1.7-3.4S325.5,296.6,325.5,296.6z"/>
	<path class="st3" d="M326.3,289.1c0,0,1.2-0.3,2.8-0.3s2.8,0.2,2.8,0.2s-1.3-0.7-2.8-0.7C327.6,288.2,326.3,289.1,326.3,289.1z"/>
	<path class="st3" d="M338.4,304.5c-1.4-0.2-3.7-0.2-3.7-0.2s0.4,1.4,3.6,1.2c0,0,0.1,0,0.1,0c0,0,0.1,0,0.1,0
		c3.2,0.2,3.6-1.2,3.6-1.2S339.7,304.3,338.4,304.5z"/>
	<path class="st3" d="M351.3,296.6c0,0,0.1,3.3-0.9,6.6c-1,3.3-1,3.3-1,3.3s1-1.1,1.7-3.4S351.3,296.6,351.3,296.6z"/>
	<path class="st3" d="M350.4,289.1c0,0-1.2-0.3-2.8-0.3s-2.8,0.2-2.8,0.2s1.3-0.7,2.8-0.7C349.1,288.2,350.4,289.1,350.4,289.1z"/>
	<path class="st3" d="M343.4,294c-0.1,0.3-1.1-0.1-1.8,0.2c-0.7,0.3,0,0.7-3.2,0.7c-3.2,0-2.5-0.4-3.2-0.7c-0.7-0.3-1.7,0.1-1.8-0.2
		c-0.1-0.3-0.5-1.4-0.5-1.4l0.1,2.1c0,0,1.9,0,2.6,0.5c0.6,0.5,1.5,0.6,2.8,0.6c0,0,0.1,0,0.1,0c0,0,0.1,0,0.1,0
		c1.3,0,2.1-0.1,2.8-0.6c0.6-0.5,2.6-0.5,2.6-0.5l0.1-2.1C343.9,292.6,343.5,293.7,343.4,294z"/>
	<g>
		<path class="st3" d="M332.9,299.4c0,0-1.3,0.9-1.7,1.4c-0.4,0.5-0.7,1-0.7,1s-0.7-0.6-0.1-1.5
			C331.2,299.3,332.9,299.4,332.9,299.4z"/>
		<path class="st3" d="M338.4,304.9c-1.3,0-3-0.8-2.5-0.3c0.4,0.4,1,0.8,1.9,1c0.1,0,0.3,0.1,0.5,0.1c0,0,0,0,0.1,0c0,0,0,0,0.1,0
			c0.2,0,0.4,0,0.5-0.1c0.9-0.1,1.5-0.6,1.9-1C341.4,304.1,339.7,304.9,338.4,304.9z"/>
		<path class="st3" d="M345.6,300.3c0,0-5,0-7,0c-0.1,0-0.1,0-0.2,0c-2.1,0-7,0-7,0c-1.1,0.1-0.5,0.8,0.5,0.9c0.7,0.1,4,0.4,6.7,0.3
			c2.6,0,5.9-0.2,6.7-0.3C346.1,301.1,346.6,300.4,345.6,300.3z"/>
		<path class="st3" d="M344,299.4c0,0,1.3,0.9,1.7,1.4s0.7,1,0.7,1s0.7-0.6,0.1-1.5C345.8,299.3,344,299.4,344,299.4z"/>
	</g>
	<path class="st6" d="M355,274.4c0,0,2.1,4.3,1.8,8.6c-0.3,4.4-0.7,6.3-0.7,6.3l2-1l0.9-4.9c0.2,0,0.3,0,0.5-0.1
		c0.3-1.9,0.6-4.6,0.9-7.3c0,0,0,0,0,0c-1.4-1.1-4-2.1-5.3-2.6L355,274.4z"/>
	<path class="st6" d="M317.7,283.4l0.9,4.9l2,1c0,0-0.4-1.9-0.7-6.3c-0.3-4.4,1.8-8.6,1.8-8.6l-0.1-0.8c-1.4,0.5-3.7,1.5-5,2.5
		c-0.1,0.1-0.2,0.2-0.3,0.2c0.3,2.6,0.7,5.2,0.9,7.1C317.4,283.4,317.6,283.4,317.7,283.4z"/>
	<path class="st7" d="M417.4,380.1l-9.6-23.3l0.5-2.7l-3.8-3c0,0,0,0-2.2-6.3c-2.2-6.3-9.1-14-17.8-17.8c-8.8-3.8-31-14-31-14
		l-11.5,3.8l-3.5,6.7l-3.5-6.7l-11.5-3.8c0,0-22.2,10.2-31,14c-8.8,3.8-15.6,11.5-17.8,17.8c-2.2,6.3-2.2,6.3-2.2,6.3l-3.8,3
		l0.5,2.7l-9.6,23.3H417.4z"/>
	<path class="st8" d="M338.5,330.8c0,0,12.5-8.6,18.8,3c7.2,13.1-18.8,23.8-18.8,23.8c0,0-26.1-10.7-18.8-23.8
		C326,322.3,338.5,330.8,338.5,330.8z"/>
</g>
<path class="st9" d="M568.3,688.7L510.6,565c-3.1-6.6-11-12-17.6-12H367.8h-58.6H184c-6.6,0-14.5,5.4-17.6,12l-57.7,123.7
	c-3.1,6.6-0.2,12,6.4,12h194.1h58.6h194.1C568.5,700.7,571.4,695.3,568.3,688.7z"/>
<path class="st1" d="M560.5,589.6l-49.9-106.9c-3.1-6.6-11-12-17.6-12H367.8h-58.6H184c-6.6,0-14.5,5.4-17.6,12l-49.9,106.9
	l-9.1,0.6v44.5h0c0.3,3.8,3.1,6.3,7.6,6.3h194.1h58.6h194.1c4.5,0,7.3-2.6,7.6-6.3h0v-44.5L560.5,589.6z"/>
<path class="st2" d="M568.3,585l-57.7-123.7c-3.1-6.6-11-12-17.6-12H367.8h-58.6H184c-6.6,0-14.5,5.4-17.6,12L108.6,585
	c-3.1,6.6-0.2,12,6.4,12h194.1h58.6h194.1C568.5,597,571.4,591.6,568.3,585z"/>
<path class="st10" d="M545.6,556.1l-49.9-106.9c-3.1-6.6-11-12-17.6-12h-95.6h-88.3h-95.6c-6.6,0-14.5,5.4-17.6,12l-49.9,106.9
	l-9.1,0.6v22h0c0.3,3.8,3.1,6.3,7.6,6.3h164.5h88.3h164.5c4.5,0,7.3-2.6,7.6-6.3h0v-22L545.6,556.1z"/>
<path class="st11" d="M553.5,551.5l-57.7-123.7c-3.1-6.6-11-12-17.6-12h-95.6h-88.3h-95.6c-6.6,0-14.5,5.4-17.6,12l-57.7,123.7
	c-3.1,6.6-0.2,12,6.4,12h164.5h88.3h164.5C553.7,563.5,556.6,558.1,553.5,551.5z"/>
<path class="st11" d="M522.9,472.4c-1.1-8.8-13.2-25.8-19.8-43.4c-6.6-17.6-7.1-26.4-16.5-32.9c-9.3-6.6-73.4-32.4-148.1-32.4
	s-138.8,25.8-148.1,32.4c-9.3,6.6-9.9,15.4-16.5,32.9c-6.6,17.6-18.7,34.6-19.8,43.4c-0.6,5-0.9,12-1,17.2c0-0.1,0.1-0.2,0.1-0.3
	c7.4-19.6,8-17.5,18.4-24.9c7.9-5.6,59.6-23.3,113.5-31.7v0.1l53.4-4.4l53.4,4.4v-0.1c53.9,8.4,105.6,26.1,113.5,31.7
	c10.4,7.4,11,5.3,18.4,24.9c0,0.1,0.1,0.2,0.1,0.3C523.7,484.4,523.5,477.3,522.9,472.4z"/>
<path class="st10" d="M521.6,467.6c-4.6-5.1-9.6-6.2-16.2-10.9c-10.4-7.4-95.6-36-166.9-36c-68.5,0-156.5,28.7-166.9,36
	c-6.5,4.6-12.1,7.6-17.2,13.9c-0.2,0.6-0.3,1.2-0.3,1.8c-0.6,5-0.9,12-1,17.2c0-0.1,0.1-0.2,0.1-0.3c3.7-9.8,5.7-14.2,8-17
	c0.3-0.4,0.6-0.7,0.9-1c0.2-0.2,0.3-0.3,0.5-0.5c1.3-1.2,2.8-2.2,4.7-3.5c0.5-0.3,1-0.7,1.5-1c0.8-0.5,1.7-1.2,2.7-1.8c0,0,0,0,0,0
	c3.4-2.4,14.8-7,30.9-12.1c32.7-10.6,85.8-23.9,136-23.9c48.7,0,100.5,12.6,133.3,23c17.5,5.5,30,10.5,33.5,13c0,0,0,0,0,0
	c1,0.7,1.9,1.3,2.7,1.8c0.5,0.4,1.1,0.7,1.5,1c1.9,1.3,3.4,2.3,4.7,3.5c0.2,0.2,0.3,0.3,0.5,0.5c0.3,0.3,0.6,0.6,0.9,1
	c2.4,2.8,4.4,7.2,8,17c0,0.1,0.1,0.2,0.1,0.3c-0.1-5.2-0.4-12.3-1-17.2C522.7,471,522.2,469.4,521.6,467.6z"/>
<g>
	<path class="st1" d="M182.2,157l12,30.7c1,2.6,11.6,0.8,23.7-3.9c12.1-4.7,21.1-10.6,20.1-13.2l-12-30.7L182.2,157z"/>
	<path class="st0" d="M197.7,150.9l-15.5,6l12,30.7c0.8,2.1,8,1.3,17.2-1.6L197.7,150.9z"/>
	<ellipse transform="matrix(0.9318 -0.3629 0.3629 0.9318 -39.9537 84.2024)" class="st2" cx="204.1" cy="148.4" rx="23.5" ry="5"/>
	<path class="st0" d="M218.6,141.7v-11.9l-5.5-1.5l0.1-1.4l-24.4,1.9c0,0-0.1,24.4,0,24.6c0.7,1.8,7.9,0.6,16.1-2.6
		S219.3,143.4,218.6,141.7z"/>
	<path class="st12" d="M201.8,127.8l-12.9,1c0,0-0.1,24.4,0,24.6c0.6,1.5,6.1,0.8,12.9-1.5V127.8z"/>
	<path class="st13" d="M203.3,1.5c-20.2,0-36.5,3.1-36.5,7v35h73v-35C239.8,4.6,223.4,1.5,203.3,1.5z"/>
	<path class="st2" d="M199.2,167.4c-7,1.8-12.1,2-12.8,0.3l5.1,13c0.7,1.7,5.8,1.5,12.8-0.3L199.2,167.4z"/>
	<ellipse class="st12" cx="203.3" cy="43.5" rx="36.5" ry="7"/>
	<g>
		<path class="st14" d="M213.5,13.8c-2.7-0.1-5.4-0.2-8.3-0.3v12c2.9,0,5.6,0.1,8.3,0.3V13.8z"/>
		<path class="st14" d="M201.5,13.5c-3.2,0-6.3,0.1-9.3,0.3v12c3-0.2,6.1-0.3,9.3-0.3V13.5z"/>
		<path class="st14" d="M170.5,17.4c-2.4,0.9-3.8,2-3.8,3.1v12c0-1.1,1.4-2.2,3.8-3.1V17.4z"/>
		<path class="st14" d="M223.5,14.7c-2-0.3-4.1-0.5-6.3-0.6v12c2.2,0.2,4.3,0.4,6.3,0.6V14.7z"/>
		<path class="st14" d="M227.3,15.2v12c7.7,1.3,12.5,3.2,12.5,5.3v-12C239.8,18.4,234.9,16.5,227.3,15.2z"/>
	</g>
	<path class="st1" d="M203.3,40.9c-14.8,0-26.8,1.8-26.8,4v83.5c0,2.2,12,4,26.8,4s26.8-1.8,26.8-4V44.8
		C230,42.6,218,40.9,203.3,40.9z"/>
	<circle class="st13" cx="220.6" cy="178.8" r="18.7"/>
	<g>
		
			<rect x="312.5" y="299.8" transform="matrix(0.8524 -0.5229 0.5229 0.8524 -122.9361 211.6648)" class="st15" width="2" height="47.6"/>
		<g>
			<path class="st0" d="M227,182.5c-10.3,6.3-20.1,9.3-21.7,6.6l54.8,89.4c2,3.2,13.6,3.3,23.9-3c10.3-6.3,15.5-16.7,13.5-20
				l-54.8-89.4C244.4,168.8,237.3,176.2,227,182.5z"/>
			<path class="st12" d="M273.2,215.9c-4.3,12.6,4.5,25.1,17.6,43.6c1.1,1.5,2.1,3,3.3,4.6c0.3,0.4,0.5,0.8,0.8,1.2
				c0.9-1.4,1.6-2.7,2.2-3.9c-1-1.5-2-2.9-3-4.2c-11.2-15.9-18.7-26.5-17.7-36.1L273.2,215.9z"/>
			<path class="st12" d="M215.7,206.2l3.5,5.8c3.8,0.5,12.1-2.6,20.9-7.9c8.8-5.4,15.3-11.4,16.6-15l-3.5-5.8
				c-1.3,3.6-7.8,9.7-16.6,15C227.9,203.6,219.5,206.7,215.7,206.2z"/>
			<path class="st12" d="M242.7,166.2c1.7,2.7-5.4,10-15.7,16.4c-10.3,6.3-20.1,9.3-21.7,6.6c-1.7-2.7,3.7-12.8,14-19.2
				C229.6,163.6,241.1,163.5,242.7,166.2z"/>
			<path class="st1" d="M235.3,196.1c-10.9,6.7-21.1,9.8-22.8,6.9l3.5,5.8c1.7,2.8,12-0.3,22.8-6.9c10.9-6.7,18.3-14.4,16.5-17.2
				l-3.5-5.8C253.6,181.7,246.1,189.4,235.3,196.1z"/>
			<path class="st2" d="M249.4,177.5c0.3,0.2,0.5,0.4,0.6,0.6c1.7,2.7-5.4,10-15.7,16.4c-10.3,6.3-20.1,9.3-21.7,6.6
				c-0.1-0.2-0.2-0.5-0.3-0.9c-0.3,1.2-0.2,2.2,0.1,2.8c1.7,2.8,12-0.3,22.8-6.9c10.9-6.7,18.3-14.4,16.5-17.2
				C251.4,178.2,250.6,177.8,249.4,177.5z"/>
			<path class="st2" d="M270.9,191.7c-3.7-3.6-9.1-4.4-14-2.4l2.3,3.8c3.3-1.2,6.7-0.6,9,1.6c2.9,2.8,3.3,7.5,1,12.5
				c-6.1,13.3,3,26.2,16.7,45.7c1.1,1.5,2.1,3,3.3,4.6c14.2,20.3,8.8,28.1,8.7,28.2l1.6,1.4l1.6,1.5c0.3-0.4,7.7-10-8.7-33.4
				c-1.1-1.6-2.2-3.1-3.3-4.6c-13.3-18.8-21.3-30.2-16.2-41.2C276.6,201.4,274.3,195,270.9,191.7z"/>
			
				<ellipse transform="matrix(0.8524 -0.5229 0.5229 0.8524 -56.7494 139.9985)" class="st12" cx="219.6" cy="170.5" rx="15.8" ry="3.2"/>
			<path class="st0" d="M221.3,173.3c-7.4,4.5-14.2,7-15.1,5.5l1.7,2.8c0.9,1.5,7.7-0.9,15.1-5.5c7.4-4.5,12.7-9.5,11.7-11l-1.7-2.8
				C234,163.8,228.7,168.7,221.3,173.3z"/>
			<path class="st14" d="M300.1,301.8c-1.2,0.7-2.4,1-2.6,0.6c0,0,7.2,9.6,8.4,8.9s-4.1-11.5-4.1-11.5
				C302.1,300.1,301.3,301,300.1,301.8z"/>
			
				<ellipse transform="matrix(0.8524 -0.5229 0.5229 0.8524 -105.4903 192.7953)" class="st2" cx="288.8" cy="283.3" rx="9.8" ry="3.4"/>
			<path class="st1" d="M290.6,286.2c-4.6,2.8-9.1,3.8-10.1,2.2l10.1,16.5c1,1.6,5.5,0.7,10.1-2.2c4.6-2.8,7.5-6.4,6.5-8l-10.1-16.5
				C298.1,279.8,295.2,283.4,290.6,286.2z"/>
			
				<ellipse transform="matrix(0.8524 -0.5229 0.5229 0.8524 -91.9497 178.128)" class="st2" cx="269.6" cy="251.9" rx="7.8" ry="1.9"/>
			<path class="st12" d="M270.6,253.6c-3.7,2.2-7.1,3.3-7.6,2.4l18.9,30.8c0.8,1.3,4.4,0.5,8.1-1.7c3.7-2.2,6-5.1,5.2-6.4
				l-18.9-30.8C276.7,248.8,274.2,251.3,270.6,253.6z"/>
			<path class="st8" d="M256.4,230.5c-3.1,1.9-5.9,2.9-6.3,2.3l13.6,22.2c0.5,0.8,3.4-0.2,6.5-2.1c3.1-1.9,5.2-4.1,4.8-4.8
				l-13.6-22.2C261.7,226.5,259.5,228.6,256.4,230.5z"/>
			<path class="st12" d="M242.8,208.3c-3.7,2.2-7,3.5-7.5,2.7l14.8,24.1c0.5,0.7,3.8-0.5,7.5-2.7c3.7-2.2,6.3-4.7,5.8-5.4
				l-14.8-24.1C249.1,203.6,246.5,206.1,242.8,208.3z"/>
			
				<ellipse transform="matrix(0.8524 -0.5229 0.5229 0.8524 -65.934 149.9473)" class="st12" cx="232.6" cy="191.8" rx="9.8" ry="2"/>
			<path class="st1" d="M233.7,193.5c-4.6,2.8-8.8,4.3-9.4,3.4l9.8,16c0.6,0.9,4.8-0.6,9.4-3.4c4.6-2.8,7.8-5.9,7.3-6.8l-9.8-16
				C241.5,187.6,238.3,190.7,233.7,193.5z"/>
			
				<rect x="261.9" y="215.6" transform="matrix(0.8524 -0.5229 0.5229 0.8524 -88.2862 174.1596)" class="st12" width="5" height="55.7"/>
			
				<ellipse transform="matrix(0.8524 -0.5229 0.5229 0.8524 -64.8677 148.7923)" class="st12" cx="231.1" cy="189.3" rx="7.3" ry="1.5"/>
			<path class="st0" d="M231.9,190.6c-3.4,2.1-6.5,3.2-7,2.5l0.9,1.4c0.4,0.7,3.5-0.4,7-2.5c3.4-2.1,5.8-4.4,5.4-5.1l-0.9-1.4
				C237.7,186.2,235.3,188.5,231.9,190.6z"/>
		</g>
	</g>
	<path class="st0" d="M198.3,40.9c-12.4,0.3-21.8,2-21.8,3.9v83.5c0,1.9,9.4,3.6,21.8,3.9V40.9z"/>
</g>
<g>
	<path class="st1" d="M473.3,157l-12,30.7c-1,2.6-11.6,0.8-23.7-3.9s-21.1-10.6-20.1-13.2l12-30.7L473.3,157z"/>
	<path class="st0" d="M457.8,150.9l15.5,6l-12,30.7c-0.8,2.1-8,1.3-17.2-1.6L457.8,150.9z"/>
	
		<ellipse transform="matrix(0.3629 -0.9318 0.9318 0.3629 149.2515 515.1701)" class="st2" cx="451.4" cy="148.4" rx="5" ry="23.5"/>
	<path class="st0" d="M436.9,141.7v-11.9l5.5-1.5l-0.1-1.4l24.4,1.9c0,0,0.1,24.4,0,24.6c-0.7,1.8-7.9,0.6-16.1-2.6
		S436.2,143.4,436.9,141.7z"/>
	<path class="st12" d="M453.8,127.8l12.9,1c0,0,0.1,24.4,0,24.6c-0.6,1.5-6.1,0.8-12.9-1.5V127.8z"/>
	<path class="st13" d="M452.3,1.5c20.2,0,36.5,3.1,36.5,7v35h-73v-35C415.8,4.6,432.1,1.5,452.3,1.5z"/>
	<path class="st2" d="M456.3,167.4c7,1.8,12.1,2,12.8,0.3l-5.1,13c-0.7,1.7-5.8,1.5-12.8-0.3L456.3,167.4z"/>
	<ellipse class="st12" cx="452.3" cy="43.5" rx="36.5" ry="7"/>
	<g>
		<path class="st14" d="M442,13.8c2.7-0.1,5.4-0.2,8.3-0.3v12c-2.9,0-5.6,0.1-8.3,0.3V13.8z"/>
		<path class="st14" d="M454,13.5c3.2,0,6.3,0.1,9.3,0.3v12c-3-0.2-6.1-0.3-9.3-0.3V13.5z"/>
		<path class="st14" d="M485,17.4c2.4,0.9,3.8,2,3.8,3.1v12c0-1.1-1.4-2.2-3.8-3.1V17.4z"/>
		<path class="st14" d="M432,14.7c2-0.3,4.1-0.5,6.3-0.6v12c-2.2,0.2-4.3,0.4-6.3,0.6V14.7z"/>
		<path class="st14" d="M428.3,15.2v12c-7.7,1.3-12.5,3.2-12.5,5.3v-12C415.8,18.4,420.6,16.5,428.3,15.2z"/>
	</g>
	<path class="st1" d="M452.3,40.9c14.8,0,26.8,1.8,26.8,4v83.5c0,2.2-12,4-26.8,4s-26.8-1.8-26.8-4V44.8
		C425.5,42.6,437.5,40.9,452.3,40.9z"/>
	<circle class="st13" cx="444.4" cy="177.8" r="18.7"/>
	<g>
		
			<rect x="366.6" y="299.1" transform="matrix(-0.8405 -0.5419 0.5419 -0.8405 501.874 792.4558)" class="st15" width="2" height="46.4"/>
		<g>
			<path class="st0" d="M456.9,183.7c10.2,6.6,19.9,9.8,21.6,7.1L421.6,279c-2.1,3.2-13.7,3-23.9-3.5s-15.1-17.1-13.1-20.3
				l56.8-88.2C439.9,169.7,446.7,177.1,456.9,183.7z"/>
			<path class="st12" d="M410,216c4,12.7-5.1,25-18.5,43.2c-1.1,1.5-2.2,3-3.4,4.6c-0.3,0.4-0.6,0.8-0.8,1.2c-0.9-1.4-1.6-2.7-2.1-4
				c1.1-1.4,2.1-2.8,3.1-4.2c11.6-15.7,19.3-26.1,18.5-35.7L410,216z"/>
			<path class="st12" d="M467.7,207.6l-3.7,5.7c-3.8,0.4-12.1-2.8-20.7-8.4c-8.6-5.6-15-11.7-16.2-15.4l3.7-5.7
				c1.2,3.7,7.6,9.8,16.2,15.4C455.6,204.8,463.8,208,467.7,207.6z"/>
			<path class="st12" d="M441.6,167c-1.7,2.7,5.2,10.1,15.4,16.7c10.2,6.6,19.9,9.8,21.6,7.1s-3.4-12.9-13.6-19.5
				S443.3,164.4,441.6,167z"/>
			<path class="st1" d="M448.3,197.1c10.7,6.9,20.9,10.3,22.7,7.5l-3.7,5.7c-1.8,2.8-11.9-0.5-22.7-7.5
				c-10.7-6.9-17.9-14.8-16.2-17.6l3.7-5.7C430.4,182.3,437.6,190.2,448.3,197.1z"/>
			<path class="st2" d="M434.6,178.2c-0.3,0.2-0.5,0.4-0.7,0.6c-1.7,2.7,5.2,10.1,15.4,16.7c10.2,6.6,19.9,9.8,21.6,7.1
				c0.1-0.2,0.2-0.5,0.3-0.8c0.3,1.2,0.2,2.2-0.2,2.8c-1.8,2.8-11.9-0.5-22.7-7.5c-10.7-6.9-17.9-14.8-16.2-17.6
				C432.6,178.9,433.4,178.5,434.6,178.2z"/>
			<path class="st2" d="M412.8,191.9c3.8-3.5,9.2-4.2,14.1-2.1l-2.4,3.7c-3.3-1.3-6.7-0.8-9.1,1.4c-3,2.8-3.5,7.4-1.3,12.5
				c5.8,13.5-3.6,26.1-17.7,45.3c-1.1,1.5-2.2,3-3.4,4.6c-14.7,19.9-9.4,27.9-9.3,28l-1.7,1.4l-1.7,1.4c-0.3-0.4-7.5-10.2,9.5-33.2
				c1.2-1.6,2.3-3.1,3.4-4.6c13.7-18.5,22-29.7,17.1-40.9C406.8,201.4,409.3,195.1,412.8,191.9z"/>
			
				<ellipse transform="matrix(0.5419 -0.8405 0.8405 0.5419 68.3517 469.1899)" class="st12" cx="464.6" cy="171.9" rx="3.2" ry="15.8"/>
			<path class="st0" d="M462.8,174.6c7.3,4.7,14,7.3,15,5.8l-1.8,2.8c-1,1.5-7.7-1.1-15-5.8c-7.3-4.7-12.5-9.7-11.5-11.2l1.8-2.8
				C450.4,164.9,455.5,169.9,462.8,174.6z"/>
			<path class="st14" d="M381.1,301.3c1.2,0.8,2.3,1,2.6,0.6c0,0-7.4,9.4-8.6,8.7s4.4-11.4,4.4-11.4
				C379.2,299.6,380,300.5,381.1,301.3z"/>
			
				<ellipse transform="matrix(0.5419 -0.8405 0.8405 0.5419 -57.904 459.8819)" class="st2" cx="392.9" cy="283.1" rx="3.4" ry="9.8"/>
			<path class="st1" d="M391,285.9c4.5,2.9,9,4,10.1,2.4l-10.5,16.2c-1,1.6-5.5,0.5-10.1-2.4c-4.5-2.9-7.4-6.6-6.3-8.2l10.5-16.2
				C383.7,279.4,386.5,283,391,285.9z"/>
			
				<ellipse transform="matrix(0.5419 -0.8405 0.8405 0.5419 -22.8292 462.4677)" class="st2" cx="412.8" cy="252.2" rx="1.9" ry="7.8"/>
			<path class="st12" d="M411.8,253.8c3.6,2.3,7,3.5,7.6,2.6l-19.6,30.4c-0.8,1.3-4.4,0.4-8-1.9c-3.6-2.3-5.9-5.2-5.1-6.5l19.6-30.4
				C405.7,248.8,408.1,251.4,411.8,253.8z"/>
			<path class="st8" d="M426.5,231c3.1,2,5.9,3.1,6.3,2.4l-14.1,21.9c-0.5,0.8-3.4-0.2-6.4-2.2c-3.1-2-5.2-4.2-4.7-4.9l14.1-21.9
				C421.2,226.9,423.4,229,426.5,231z"/>
			<path class="st12" d="M440.5,209.2c3.6,2.3,6.9,3.6,7.4,2.9l-15.3,23.8c-0.5,0.7-3.8-0.6-7.4-2.9c-3.6-2.3-6.2-4.8-5.7-5.6
				l15.3-23.8C434.4,204.3,436.9,206.8,440.5,209.2z"/>
			<ellipse transform="matrix(0.5419 -0.8405 0.8405 0.5419 44.5606 467.4359)" class="st12" cx="451" cy="192.8" rx="2" ry="9.8"/>
			<path class="st1" d="M450,194.5c4.5,2.9,8.7,4.5,9.3,3.6l-10.1,15.7c-0.6,0.9-4.7-0.7-9.3-3.6c-4.5-2.9-7.7-6-7.1-7l10.1-15.7
				C442.3,188.5,445.4,191.6,450,194.5z"/>
			
				<rect x="415.7" y="216" transform="matrix(-0.8405 -0.5419 0.5419 -0.8405 637.5291 675.3403)" class="st12" width="5" height="55.7"/>
			
				<ellipse transform="matrix(0.5419 -0.8405 0.8405 0.5419 47.3226 467.6396)" class="st12" cx="452.6" cy="190.4" rx="1.5" ry="7.3"/>
			<path class="st0" d="M451.8,191.7c3.4,2.2,6.5,3.4,6.9,2.7l-0.9,1.4c-0.4,0.7-3.5-0.5-6.9-2.7c-3.4-2.2-5.7-4.5-5.3-5.2l0.9-1.4
				C446.1,187.2,448.4,189.5,451.8,191.7z"/>
		</g>
	</g>
	<path class="st0" d="M457.3,40.9c12.4,0.3,21.8,2,21.8,3.9v83.5c0,1.9-9.4,3.6-21.8,3.9V40.9z"/>
</g>
<circle class="st15" cx="325.5" cy="343.2" r="2.8"/>
<circle class="st15" cx="355" cy="341.8" r="2.8"/>
<circle class="st8" cx="10" cy="130.9" r="10"/>
<circle class="st14" cx="170" cy="316.9" r="14"/>
<circle class="st8" cx="345" cy="171.9" r="8"/>
<circle class="st16" cx="531" cy="274.9" r="7"/>
</svg>
