
<svg xmlns="http://www.w3.org/2000/svg" xmlns:xlink="http://www.w3.org/1999/xlink" viewBox="0 0 1802 840"><path fill-rule="evenodd" fill="rgb(223, 235, 235)" d="M1.000,542.000 C1000.913,542.000 1419.125,0.000 1802.000,0.000 C1802.000,282.277 1802.000,839.999 1802.000,839.999 L-0.000,839.999 C-0.000,839.999 1.000,614.103 1.000,542.000 Z"/><path fill-rule="evenodd" fill="rgb(250, 122, 71)" d="M739.500,229.999 C744.194,229.999 748.000,233.806 748.000,238.499 C748.000,243.194 744.194,247.000 739.500,247.000 C734.806,247.000 731.000,243.194 731.000,238.499 C731.000,233.806 734.806,229.999 739.500,229.999 Z"/><path fill-rule="evenodd" fill="rgb(250, 122, 71)" d="M204.500,508.001 C209.194,508.001 213.000,511.806 213.000,516.501 C213.000,521.194 209.194,524.999 204.500,524.999 C199.806,524.999 196.000,521.194 196.000,516.501 C196.000,511.806 199.806,508.001 204.500,508.001 Z"/><path fill-rule="evenodd" fill="rgb(250, 122, 71)" d="M1152.500,368.999 C1157.194,368.999 1161.000,372.806 1161.000,377.499 C1161.000,382.194 1157.194,385.999 1152.500,385.999 C1147.806,385.999 1144.000,382.194 1144.000,377.499 C1144.000,372.806 1147.806,368.999 1152.500,368.999 Z"/><path fill-rule="evenodd" fill="rgb(250, 122, 71)" d="M1447.500,104.000 C1452.194,104.000 1456.000,107.805 1456.000,112.500 C1456.000,117.195 1452.194,121.000 1447.500,121.000 C1442.806,121.000 1439.000,117.195 1439.000,112.500 C1439.000,107.805 1442.806,104.000 1447.500,104.000 Z"/><path fill-rule="evenodd" fill="rgb(120, 205, 209)" d="M1479.000,101.000 C1481.761,101.000 1484.000,103.239 1484.000,106.000 C1484.000,108.761 1481.761,110.999 1479.000,110.999 C1476.239,110.999 1474.000,108.761 1474.000,106.000 C1474.000,103.239 1476.239,101.000 1479.000,101.000 Z"/><path fill-rule="evenodd" fill="rgb(120, 205, 209)" d="M1729.000,13.001 C1731.761,13.001 1734.000,15.240 1734.000,18.000 C1734.000,20.761 1731.761,23.000 1729.000,23.000 C1726.239,23.000 1724.000,20.761 1724.000,18.000 C1724.000,15.240 1726.239,13.001 1729.000,13.001 Z"/><path fill-rule="evenodd" fill="rgb(255, 255, 255)" d="M1445.500,153.001 C1451.851,153.001 1457.000,158.149 1457.000,164.501 C1457.000,170.851 1451.851,176.000 1445.500,176.000 C1439.149,176.000 1434.000,170.851 1434.000,164.501 C1434.000,158.149 1439.149,153.001 1445.500,153.001 Z"/><path fill-rule="evenodd" fill="rgb(255, 255, 255)" d="M1768.500,5.000 C1774.851,5.000 1780.000,10.148 1780.000,16.500 C1780.000,22.851 1774.851,28.000 1768.500,28.000 C1762.149,28.000 1757.000,22.851 1757.000,16.500 C1757.000,10.148 1762.149,5.000 1768.500,5.000 Z"/><path fill-rule="evenodd" fill="rgb(255, 255, 255)" d="M706.500,247.999 C712.851,247.999 718.000,253.149 718.000,259.499 C718.000,265.851 712.851,270.999 706.500,270.999 C700.149,270.999 695.000,265.851 695.000,259.499 C695.000,253.149 700.149,247.999 706.500,247.999 Z"/><path fill-rule="evenodd" fill="rgb(255, 255, 255)" d="M358.500,364.001 C364.851,364.001 370.000,369.149 370.000,375.501 C370.000,381.852 364.851,387.001 358.500,387.001 C352.149,387.001 347.000,381.852 347.000,375.501 C347.000,369.149 352.149,364.001 358.500,364.001 Z"/><path fill-rule="evenodd" fill="rgb(255, 255, 255)" d="M1221.500,680.000 C1227.851,680.000 1233.000,685.148 1233.000,691.500 C1233.000,697.851 1227.851,702.999 1221.500,702.999 C1215.149,702.999 1210.000,697.851 1210.000,691.500 C1210.000,685.148 1215.149,680.000 1221.500,680.000 Z"/><path fill-rule="evenodd" fill="rgb(255, 255, 255)" d="M275.500,536.000 C281.851,536.000 287.000,541.148 287.000,547.500 C287.000,553.851 281.851,559.000 275.500,559.000 C269.149,559.000 264.000,553.851 264.000,547.500 C264.000,541.148 269.149,536.000 275.500,536.000 Z"/><path fill-rule="evenodd" fill="rgb(120, 205, 209)" d="M665.000,326.999 C667.761,326.999 670.000,329.238 670.000,332.001 C670.000,334.761 667.761,337.000 665.000,337.000 C662.239,337.000 660.000,334.761 660.000,332.001 C660.000,329.238 662.239,326.999 665.000,326.999 Z"/><path fill-rule="evenodd" fill="rgb(120, 205, 209)" d="M603.000,598.000 C605.761,598.000 608.000,600.239 608.000,602.999 C608.000,605.762 605.761,608.001 603.000,608.001 C600.239,608.001 598.000,605.762 598.000,602.999 C598.000,600.239 600.239,598.000 603.000,598.000 Z"/><path fill-rule="evenodd" fill="rgb(120, 205, 209)" d="M173.000,543.999 C175.761,543.999 178.000,546.238 178.000,549.001 C178.000,551.761 175.761,554.000 173.000,554.000 C170.239,554.000 168.000,551.761 168.000,549.001 C168.000,546.238 170.239,543.999 173.000,543.999 Z"/><path fill-rule="evenodd" fill="rgb(120, 205, 209)" d="M1261.000,669.000 C1263.761,669.000 1266.000,671.239 1266.000,674.000 C1266.000,676.761 1263.761,679.000 1261.000,679.000 C1258.239,679.000 1256.000,676.761 1256.000,674.000 C1256.000,671.239 1258.239,669.000 1261.000,669.000 Z"/><path fill-rule="evenodd" fill="rgb(120, 205, 209)" d="M919.000,418.000 C921.761,418.000 924.000,420.239 924.000,423.000 C924.000,425.762 921.761,427.999 919.000,427.999 C916.239,427.999 914.000,425.762 914.000,423.000 C914.000,420.239 916.239,418.000 919.000,418.000 Z"/></svg>
