<svg xmlns="http://www.w3.org/2000/svg" viewBox="0 0 350 201">
  <metadata><?xpacket begin="﻿"?>
<x:xmpmeta xmlns:x="adobe:ns:meta/" x:xmptk="Adobe XMP Core 5.6-c140 79.160451, 2017/05/06-01:08:21        ">
   <rdf:RDF xmlns:rdf="http://www.w3.org/1999/02/22-rdf-syntax-ns#">
      <rdf:Description rdf:about=""/>
   </rdf:RDF>
</x:xmpmeta>





















<?xpacket end="w"?></metadata>
<defs>
    <style>
      .cls-1 {
        fill: #e44029;
      }

      .cls-2 {
        fill: #fc0;
        fill-rule: evenodd;
      }
    </style>
  </defs>
  <rect class="cls-1" width="350" height="201"/>
  <path class="cls-2" d="M66.5,44l8.4,22.008L97,66.154l-19.031,15.1L85.348,102,66.5,90.16,47.652,102l7.383-20.743L36,66.154,58.1,66.009,66.5,44"/>
  <path class="cls-2" d="M142.5,87l2.893,7.589L153,94.64l-6.552,5.207L148.989,107l-6.489-4.083L136.011,107l2.542-7.153L132,94.64l7.606-.05L142.5,87"/>
  <path class="cls-2" d="M123.088,108.341l0.831,8.079,7.333,2.017-7.676,3.334,0.6,7.567-5.21-5.622-7.325,2.263,4.307-6.251L110.97,113l7.359,1.92,4.759-6.582"/>
  <path class="cls-2" d="M122.088,32.341l0.831,8.079,7.333,2.017-7.676,3.334,0.6,7.567-5.21-5.623-7.325,2.264,4.307-6.251L109.97,37l7.359,1.92,4.759-6.581"/>
  <path class="cls-2" d="M137.082,56.018l6.3,5.126,6.612-3.759-3.071,7.785,5.778,4.924L145.04,69.8l-3.578,6.78-1.375-7.465-8.277-1.234,6.561-3.846-1.289-8.019"/>
</svg>
