<svg data-name="Layer 3" xmlns="http://www.w3.org/2000/svg" xmlns:xlink="http://www.w3.org/1999/xlink" viewBox="0 0 449.99 300"><defs><style>.cls-1{fill:url(#New_Gradient_Swatch_5);}.cls-2{fill:url(#New_Gradient_Swatch_8);}.cls-12,.cls-14,.cls-24,.cls-3,.cls-31,.cls-34,.cls-36,.cls-38,.cls-4,.cls-53,.cls-58,.cls-60,.cls-7,.cls-8{fill:#ed1c24;}.cls-10,.cls-11,.cls-12,.cls-13,.cls-14,.cls-15,.cls-16,.cls-17,.cls-18,.cls-19,.cls-20,.cls-21,.cls-22,.cls-23,.cls-24,.cls-25,.cls-26,.cls-27,.cls-28,.cls-29,.cls-3,.cls-30,.cls-31,.cls-32,.cls-33,.cls-34,.cls-35,.cls-36,.cls-37,.cls-38,.cls-39,.cls-4,.cls-40,.cls-41,.cls-42,.cls-43,.cls-44,.cls-45,.cls-46,.cls-47,.cls-48,.cls-49,.cls-5,.cls-50,.cls-57,.cls-58,.cls-59,.cls-6,.cls-60,.cls-7,.cls-8,.cls-9{stroke:#231f20;}.cls-10,.cls-11,.cls-12,.cls-13,.cls-14,.cls-15,.cls-16,.cls-17,.cls-18,.cls-19,.cls-20,.cls-21,.cls-22,.cls-23,.cls-24,.cls-25,.cls-26,.cls-27,.cls-28,.cls-29,.cls-3,.cls-30,.cls-31,.cls-32,.cls-33,.cls-34,.cls-35,.cls-36,.cls-37,.cls-38,.cls-39,.cls-4,.cls-40,.cls-41,.cls-42,.cls-43,.cls-44,.cls-45,.cls-46,.cls-47,.cls-48,.cls-49,.cls-5,.cls-50,.cls-58,.cls-59,.cls-6,.cls-60,.cls-7,.cls-8,.cls-9{stroke-linecap:round;stroke-linejoin:round;}.cls-3,.cls-37,.cls-38,.cls-39,.cls-40,.cls-42,.cls-43,.cls-44,.cls-45,.cls-50{stroke-width:0.06px;}.cls-10,.cls-12,.cls-15,.cls-16,.cls-17,.cls-18,.cls-20,.cls-22,.cls-23,.cls-24,.cls-25,.cls-26,.cls-27,.cls-28,.cls-29,.cls-3,.cls-32,.cls-33,.cls-34,.cls-37,.cls-4,.cls-40,.cls-41,.cls-42,.cls-43,.cls-44,.cls-5,.cls-50,.cls-53,.cls-54,.cls-56,.cls-57,.cls-58,.cls-59,.cls-6,.cls-60,.cls-7,.cls-8,.cls-9{fill-rule:evenodd;}.cls-10,.cls-17,.cls-4,.cls-48,.cls-6{stroke-width:0.08px;}.cls-13,.cls-19,.cls-20,.cls-25,.cls-26,.cls-27,.cls-30,.cls-35,.cls-44,.cls-45,.cls-46,.cls-47,.cls-48,.cls-49,.cls-5,.cls-52,.cls-59,.cls-6{fill:#c0aa12;}.cls-11,.cls-13,.cls-14,.cls-15,.cls-16,.cls-18,.cls-5,.cls-8,.cls-9{stroke-width:0.08px;}.cls-7{stroke-width:0.09px;}.cls-10,.cls-11,.cls-28,.cls-29,.cls-9{fill:#fff;}.cls-12{stroke-width:0.09px;}.cls-15,.cls-32,.cls-51{fill:none;}.cls-16,.cls-17,.cls-33,.cls-40,.cls-41{fill:#009071;}.cls-18,.cls-22,.cls-50,.cls-54{fill:#005baa;}.cls-19,.cls-20,.cls-21,.cls-22,.cls-23,.cls-57,.cls-58{stroke-width:0.04px;}.cls-21,.cls-23,.cls-37,.cls-39{fill:#c1c3c5;}.cls-24,.cls-26,.cls-28,.cls-32,.cls-35,.cls-36{stroke-width:0.02px;}.cls-25,.cls-29,.cls-30,.cls-31,.cls-33,.cls-34{stroke-width:0.02px;}.cls-27{stroke-width:0.02px;}.cls-41{stroke-width:0.06px;}.cls-42{fill:#ffd18b;}.cls-43{fill:#b2151b;}.cls-46,.cls-60{stroke-width:0.06px;}.cls-47{stroke-width:0.06px;}.cls-49{stroke-width:0.06px;}.cls-55,.cls-56{fill:#231f20;}.cls-57{fill:#f175ad;stroke-miterlimit:22.93;}.cls-59{stroke-width:0.02px;}</style><linearGradient y1="150" x2="449.99" y2="150" gradientUnits="userSpaceOnUse"><stop offset="0" stop-color="#cf232a"/><stop offset="1" stop-color="#ec1c24"/></linearGradient><linearGradient y1="150" x2="449.99" y2="150" gradientUnits="userSpaceOnUse"><stop offset="0" stop-color="gold"/><stop offset="1" stop-color="#fff100"/></linearGradient></defs><title>Spain</title><rect class="cls-1" width="449.99" height="300"/><rect class="cls-2" y="75.01" width="449.99" height="149.99"/><path class="cls-3" d="M206.31,166.05c-.71,2.62-10.93,2.24-14.71,3.12a12.6,12.6,0,0,1-3.59-2.93l-.45-.65c2.92-2.62,12.62-1.56,16.32-2.72C205.51,163.78,206.46,164.87,206.31,166.05Z"/><path class="cls-3" d="M94.6,166.05c.72,2.62,10.94,2.24,14.72,3.12a12.27,12.27,0,0,0,3.58-2.93l.46-.65C110.44,163,100.74,164,97,162.87,95.41,163.78,94.46,164.87,94.6,166.05Z"/><path class="cls-4" d="M171.87,121.16a2.73,2.73,0,0,0,1.53,1.49,1.45,1.45,0,0,0-.92.89c1.38-.18,2.75.23,3.77-.38a1.3,1.3,0,0,0-.08.17.44.44,0,0,0-.06.16,19.51,19.51,0,0,1-2,1.58c-2,1.28-3.61,1.09-3.65-1.09h-.18a.53.53,0,0,1-.29-.18c-2.24,2.6-6.21.75-5.06-2.64a1.33,1.33,0,0,1-.45.07,1.3,1.3,0,0,1-1-.51,3,3,0,0,1-5.93.87.5.5,0,0,1-.17,0,.48.48,0,0,1-.3-.11c-2,3.82-6.57,1.87-6-1.62a1.27,1.27,0,0,0,.49-.46c.88.86,2.38,1,3.69,1.64a1.62,1.62,0,0,0-.65-1.29,3.13,3.13,0,0,0,2.18-1,3.1,3.1,0,0,0-2.18-1,1.62,1.62,0,0,0,.65-1.29c-1.22.63-2.61.76-3.5,1.47.58-1,.78-2.39,1.41-3.62a1.94,1.94,0,0,0-1.51.75,2.86,2.86,0,0,0-.06-.58l2.17-1.86a13.1,13.1,0,0,1-.67-3.66c4.15,0,6.75,1.75,11.61,3a7.94,7.94,0,0,1-1.15,1.06c.4.7.79,1.39,1.2,2.08l.88-.73-.05-.09a6.05,6.05,0,0,0,2.08-2.26,17.26,17.26,0,0,1,11.69,3.2,8,8,0,0,1-.84,1.13L180,119l.21-.16-.14.32a2.51,2.51,0,0,0-1.85.71,2.19,2.19,0,0,1-.11-.78c-1.37.47-1.51,1.85-1.27,3.51l-.22.14c-.22-1.37-1.74-1.92-2.8-3A1.45,1.45,0,0,0,174,121a2.78,2.78,0,0,0-2.13.2Zm-42.82,0a2.76,2.76,0,0,1-1.53,1.49,1.48,1.48,0,0,1,.92.89c-1.38-.18-2.76.23-3.77-.38l.08.17a.77.77,0,0,1,.07.16,18.36,18.36,0,0,0,2,1.58c2,1.28,3.61,1.09,3.65-1.09h.18a.47.47,0,0,0,.28-.18c2.24,2.6,6.22.75,5.07-2.64a1.33,1.33,0,0,0,.45.07,1.26,1.26,0,0,0,1-.51,3,3,0,0,0,5.94.87.47.47,0,0,0,.17,0,.48.48,0,0,0,.3-.11c2,3.82,6.57,1.87,6-1.62a1.3,1.3,0,0,1-.5-.46c-.87.86-2.38,1-3.68,1.64a1.64,1.64,0,0,1,.64-1.29,3.15,3.15,0,0,1-2.17-1,3.11,3.11,0,0,1,2.17-1,1.64,1.64,0,0,1-.64-1.29c1.22.63,2.6.76,3.5,1.47-.57-1-.78-2.39-1.4-3.62a2,2,0,0,1,1.5.75,2.86,2.86,0,0,1,.06-.58l-2.18-1.86a13.12,13.12,0,0,0,.68-3.66c-4.15,0-6.75,1.75-11.6,3a7.74,7.74,0,0,0,1.13,1.06c-.39.7-.79,1.39-1.19,2.08l-.88-.73.05-.09a6,6,0,0,1-2.09-2.26,17.24,17.24,0,0,0-11.68,3.2,8.78,8.78,0,0,0,.83,1.13c-.5.88-1,1.75-1.52,2.63l-.21-.16c0,.11.09.21.14.32a2.51,2.51,0,0,1,1.85.71,2,2,0,0,0,.11-.78c1.36.47,1.5,1.85,1.26,3.51l.23.14c.21-1.37,1.74-1.92,2.8-3a1.48,1.48,0,0,1-.16,1.27,2.79,2.79,0,0,1,2.13.2Zm.1,6.06a2.1,2.1,0,0,0,2-1.71,4.2,4.2,0,0,0,6-1.82,4.37,4.37,0,0,0,6.63-.2,3.52,3.52,0,0,0,3,1.2c-2.25.11-4.59.31-7.15.61a63.63,63.63,0,0,0-10.35,2l-.09-.07Zm17.77-2.54c1.19-.05,2.37-.09,3.54-.09s2.35,0,3.54.09a4.66,4.66,0,0,1-3.54-1.81,4.66,4.66,0,0,1-3.54,1.81Zm24.85,2.54a2.1,2.1,0,0,1-2-1.71,4.21,4.21,0,0,1-6-1.82,4.36,4.36,0,0,1-6.62-.2,3.54,3.54,0,0,1-3,1.2c2.26.11,4.59.31,7.16.61a63.63,63.63,0,0,1,10.35,2Z"/><path class="cls-5" d="M180,119l-1.53-2.63c5.57-6.44-3.75-10.88-11-9.06a6.41,6.41,0,0,0-.82-1.08c7.19-2,18.79,2,13.15,10.39l1.13,1.68-.89.7Zm-13.7-12.59-.06-.07h0Z"/><path class="cls-5" d="M180.73,118a6,6,0,0,0-.06-7.94c1,1.71.88,3.91-.89,6.53Z"/><path class="cls-6" d="M164.73,115.11c-.41-.69-.8-1.38-1.2-2.08,3-2.33,2.81-5.19,1-7.08-2.85-3-8.16-2.65-11.66-.86a6.2,6.2,0,0,0-.2-1.06c3.8-1.81,8.89-2,12.22.81,3,2.5,2.76,5.88,0,8.47l.64,1.07Z"/><path class="cls-5" d="M165.26,105.15c3.52,2.1,4.1,6.64.3,9.14l-.59-1C167.58,110.82,167.89,107.6,165.26,105.15Z"/><path class="cls-5" d="M165.51,114.52a3.28,3.28,0,0,1,.59,2.43,1.66,1.66,0,0,1,1.44-.4c-.77,1-1.19,2.18-1.89,3a1.29,1.29,0,0,0-1.2-.84,1.27,1.27,0,0,0-.95.43c-.36-1-.29-2.27-.64-3.47a1.66,1.66,0,0,1,1.19.91A3.16,3.16,0,0,1,165.51,114.52Z"/><path class="cls-5" d="M170,121.05a2.77,2.77,0,0,1-2.08.51,1.42,1.42,0,0,1,.34,1.23c-1-.77-2.21-1.13-2.86-1.94a1.27,1.27,0,0,0,.36-.89,1.14,1.14,0,0,0-.09-.46c.92-.51,2.18-.38,3.38-.72a1.44,1.44,0,0,1-.79,1A2.82,2.82,0,0,1,170,121.05Z"/><path class="cls-5" d="M158.92,118.9a2.83,2.83,0,0,0,1.74,1.25,1.44,1.44,0,0,0-.78,1c1.21-.35,2.48-.21,3.39-.73a1.23,1.23,0,0,1-.09-.47,1.22,1.22,0,0,1,.34-.87c-.66-.82-1.88-1.17-2.86-1.93a1.46,1.46,0,0,0,.34,1.23A2.82,2.82,0,0,0,158.92,118.9Z"/><path class="cls-5" d="M171.87,121.16a2.73,2.73,0,0,0,1.53,1.49,1.45,1.45,0,0,0-.92.89c1.38-.18,2.75.23,3.77-.38a1.45,1.45,0,0,1,.39-.43c-.22-1.37-1.74-1.92-2.8-3A1.45,1.45,0,0,0,174,121a2.78,2.78,0,0,0-2.13.2Zm5,1.43c-.24-1.66-.1-3,1.27-3.51a2.19,2.19,0,0,0,.11.78c1.67-1.38,3.07-.65,3.36,1.14-1.69-.39-2.79.44-3.61,1.86a.61.61,0,0,0-.49-.38A1.12,1.12,0,0,0,176.86,122.59Z"/><path class="cls-7" d="M177.5,122.48a1.35,1.35,0,0,0-1.33.85c-.25.55,0,1.06.45,1.15a1.37,1.37,0,0,0,1.34-.85C178.2,123.07,178,122.56,177.5,122.48Z"/><path class="cls-8" d="M164.45,121.22a1.27,1.27,0,1,0-1.27-1.27A1.28,1.28,0,0,0,164.45,121.22Z"/><path class="cls-9" d="M157.37,119.7c-.37,0-.69.41-.71.94s.28,1,.66,1,.7-.41.71-.92S157.75,119.72,157.37,119.7Z"/><path class="cls-10" d="M170.7,122.13c-.36-.09-.77.25-.89.76a.84.84,0,0,0,.44,1.08c.37.09.77-.24.9-.76A.85.85,0,0,0,170.7,122.13Z"/><path class="cls-10" d="M181.83,119.5a.65.65,0,1,0-.65-.65A.65.65,0,0,0,181.83,119.5Z"/><path class="cls-9" d="M182.75,117.93a.65.65,0,1,0-.65-.65A.65.65,0,0,0,182.75,117.93Z"/><path class="cls-9" d="M183.36,116a.65.65,0,1,0,0-1.29.65.65,0,1,0,0,1.29Z"/><path class="cls-9" d="M183.46,114a.65.65,0,1,0-.65-.66A.65.65,0,0,0,183.46,114Z"/><path class="cls-10" d="M182.94,112a.64.64,0,0,0,.65-.65.65.65,0,0,0-1.3,0A.64.64,0,0,0,182.94,112Z"/><path class="cls-9" d="M181.88,110.19a.65.65,0,1,0,0-1.3.65.65,0,0,0,0,1.3Z"/><path class="cls-10" d="M180.53,108.72a.65.65,0,1,0-.65-.64A.65.65,0,0,0,180.53,108.72Z"/><path class="cls-9" d="M178.94,107.5a.65.65,0,1,0-.65-.65A.65.65,0,0,0,178.94,107.5Z"/><path class="cls-9" d="M177.05,106.51a.65.65,0,0,0,.64-.65.65.65,0,1,0-1.29,0A.66.66,0,0,0,177.05,106.51Z"/><path class="cls-9" d="M175,105.76a.66.66,0,0,0,.66-.65.66.66,0,0,0-.66-.65.65.65,0,0,0,0,1.3Z"/><path class="cls-9" d="M172.75,105.36a.65.65,0,1,0-.65-.65A.65.65,0,0,0,172.75,105.36Z"/><path class="cls-9" d="M170.73,105.24a.65.65,0,1,0-.65-.65A.66.66,0,0,0,170.73,105.24Z"/><path class="cls-9" d="M168.65,105.35a.66.66,0,0,0,.65-.65.65.65,0,0,0-1.3,0A.66.66,0,0,0,168.65,105.35Z"/><circle class="cls-11" cx="166.3" cy="113.72" r="0.65"/><path class="cls-9" d="M167.44,112.78a.66.66,0,0,0,.66-.65.66.66,0,0,0-.66-.65.65.65,0,0,0,0,1.3Z"/><path class="cls-9" d="M168.15,111a.65.65,0,1,0-.65-.65A.66.66,0,0,0,168.15,111Z"/><path class="cls-9" d="M168,109.06a.65.65,0,1,0-.65-.64A.64.64,0,0,0,168,109.06Z"/><path class="cls-9" d="M167.59,107.09a.66.66,0,0,0,.65-.66.65.65,0,0,0-1.3,0A.66.66,0,0,0,167.59,107.09Z"/><path class="cls-9" d="M166.6,105.31a.66.66,0,0,0,.65-.65.66.66,0,0,0-1.31,0A.66.66,0,0,0,166.6,105.31Z"/><path class="cls-9" d="M165.05,104.12a.65.65,0,1,0-.65-.65A.66.66,0,0,0,165.05,104.12Z"/><path class="cls-9" d="M163.22,103.09a.65.65,0,1,0-.65-.65A.66.66,0,0,0,163.22,103.09Z"/><path class="cls-9" d="M161.17,102.49a.65.65,0,1,0,0-1.29.65.65,0,1,0,0,1.29Z"/><path class="cls-9" d="M159,102.12a.64.64,0,0,0,.65-.64.66.66,0,0,0-.65-.66.67.67,0,0,0-.65.66A.65.65,0,0,0,159,102.12Z"/><path class="cls-9" d="M157,102.12a.64.64,0,0,0,.65-.64.65.65,0,1,0-1.3,0A.64.64,0,0,0,157,102.12Z"/><path class="cls-9" d="M154.85,102.51a.65.65,0,1,0-.65-.65A.65.65,0,0,0,154.85,102.51Z"/><path class="cls-9" d="M152.93,103.19a.66.66,0,0,0,.65-.66.65.65,0,0,0-.65-.64.65.65,0,0,0-.65.64A.66.66,0,0,0,152.93,103.19Z"/><path class="cls-6" d="M120.9,119c.5-.88,1-1.75,1.52-2.63-5.56-6.44,3.76-10.88,11-9.06a5.92,5.92,0,0,1,.82-1.08c-7.19-2-18.79,2-13.15,10.39L120,118.29l.89.7Zm13.7-12.59.06-.07h0Z"/><path class="cls-5" d="M120.18,118a6,6,0,0,1,.07-7.94c-1,1.71-.88,3.91.89,6.53Z"/><path class="cls-5" d="M136.19,115.11c.4-.69.8-1.38,1.19-2.08-3-2.33-2.81-5.19-1-7.08,2.86-3,8.17-2.65,11.67-.86a6.19,6.19,0,0,1,.19-1.06c-3.79-1.81-8.88-2-12.21.81-3,2.5-2.76,5.88,0,8.47-.22.35-.42.71-.64,1.07Z"/><path class="cls-5" d="M135.65,105.15c-3.51,2.1-4.09,6.64-.29,9.14l.59-1C133.33,110.82,133,107.6,135.65,105.15Z"/><path class="cls-6" d="M135.42,114.52a3.29,3.29,0,0,0-.61,2.43,1.63,1.63,0,0,0-1.43-.4c.77,1,1.18,2.18,1.89,3a1.29,1.29,0,0,1,1.2-.84,1.27,1.27,0,0,1,.95.43c.36-1,.29-2.27.64-3.47a1.66,1.66,0,0,0-1.19.91A3.22,3.22,0,0,0,135.42,114.52Z"/><path class="cls-5" d="M131,121.05a2.76,2.76,0,0,0,2.08.51,1.46,1.46,0,0,0-.35,1.23c1-.77,2.22-1.13,2.87-1.94a1.32,1.32,0,0,1-.36-.89,1.34,1.34,0,0,1,.08-.46c-.91-.51-2.17-.38-3.37-.72a1.42,1.42,0,0,0,.78,1A2.83,2.83,0,0,0,131,121.05Z"/><path class="cls-6" d="M142,118.9a2.81,2.81,0,0,1-1.73,1.25,1.47,1.47,0,0,1,.78,1c-1.21-.35-2.48-.21-3.39-.73a1.23,1.23,0,0,0,.09-.47,1.26,1.26,0,0,0-.34-.87c.65-.82,1.88-1.17,2.86-1.93a1.49,1.49,0,0,1-.34,1.23A2.79,2.79,0,0,1,142,118.9Z"/><path class="cls-5" d="M129.05,121.16a2.76,2.76,0,0,1-1.53,1.49,1.48,1.48,0,0,1,.92.89c-1.38-.18-2.76.23-3.77-.38a1.6,1.6,0,0,0-.39-.43c.21-1.37,1.74-1.92,2.8-3a1.48,1.48,0,0,1-.16,1.27,2.79,2.79,0,0,1,2.13.2Zm-5,1.43c.24-1.66.1-3-1.26-3.51a2,2,0,0,1-.11.78c-1.68-1.38-3.07-.65-3.36,1.14,1.69-.39,2.79.44,3.6,1.86a.64.64,0,0,1,.5-.38A1.1,1.1,0,0,1,124.05,122.59Z"/><path class="cls-12" d="M123.42,122.48a1.35,1.35,0,0,1,1.33.85c.25.55,0,1.06-.45,1.15a1.36,1.36,0,0,1-1.34-.85C122.72,123.07,122.92,122.56,123.42,122.48Z"/><path class="cls-8" d="M136.47,121.22A1.27,1.27,0,1,0,135.2,120,1.27,1.27,0,0,0,136.47,121.22Z"/><path class="cls-6" d="M124.82,123.49a18.36,18.36,0,0,0,2,1.58c2,1.28,3.61,1.09,3.65-1.09h.18a.47.47,0,0,0,.28-.18c2.24,2.6,6.22.75,5.07-2.64a1.33,1.33,0,0,0,.45.07,1.26,1.26,0,0,0,1-.51,3,3,0,0,0,5.94.87.47.47,0,0,0,.17,0,.48.48,0,0,0,.3-.11c2,3.82,6.57,1.87,6-1.62a1.31,1.31,0,0,0,1.18,0c-.6,3.49,4,5.44,6,1.62a.48.48,0,0,0,.3.11.5.5,0,0,0,.17,0,3,3,0,0,0,5.93-.87,1.3,1.3,0,0,0,1,.51,1.33,1.33,0,0,0,.45-.07c-1.15,3.39,2.82,5.24,5.06,2.64a.53.53,0,0,0,.29.18h.18c0,2.18,1.65,2.37,3.65,1.09a19.51,19.51,0,0,0,2-1.58.74.74,0,0,0,.26.89c-1.69,2.61-5.64,4.28-6.58,1.13a4.21,4.21,0,0,1-6-1.82,4.36,4.36,0,0,1-6.62-.2c-1.4,1.89-5.31,1.44-6.69-.62-1.38,2.06-5.29,2.51-6.69.62a4.37,4.37,0,0,1-6.63.2,4.2,4.2,0,0,1-6,1.82c-.94,3.15-4.89,1.48-6.58-1.13A.76.76,0,0,0,124.82,123.49Z"/><path class="cls-9" d="M143.54,119.7c.38,0,.7.41.72.94s-.28,1-.66,1-.7-.41-.72-.92S143.17,119.72,143.54,119.7Z"/><path class="cls-10" d="M130.21,122.13c.37-.09.77.25.9.76s-.07,1-.44,1.08-.77-.24-.9-.76A.86.86,0,0,1,130.21,122.13Z"/><path class="cls-9" d="M119.08,119.5a.65.65,0,1,0,0-1.29.65.65,0,0,0,0,1.29Z"/><path class="cls-9" d="M118.17,117.93a.65.65,0,1,0-.65-.65A.65.65,0,0,0,118.17,117.93Z"/><path class="cls-9" d="M117.56,116a.65.65,0,1,0-.65-.64A.65.65,0,0,0,117.56,116Z"/><path class="cls-9" d="M117.46,114a.65.65,0,1,0,0-1.3.65.65,0,1,0,0,1.3Z"/><path class="cls-9" d="M118,112a.65.65,0,0,0,.65-.65.66.66,0,0,0-.65-.65.66.66,0,0,0-.65.65A.64.64,0,0,0,118,112Z"/><path class="cls-9" d="M119,110.19a.65.65,0,1,0-.65-.65A.65.65,0,0,0,119,110.19Z"/><path class="cls-9" d="M120.39,108.72a.65.65,0,1,0-.65-.64A.65.65,0,0,0,120.39,108.72Z"/><path class="cls-9" d="M122,107.5a.65.65,0,0,0,0-1.3.66.66,0,0,0-.65.65A.66.66,0,0,0,122,107.5Z"/><path class="cls-9" d="M123.87,106.51a.66.66,0,0,0,.65-.65.65.65,0,0,0-1.3,0A.66.66,0,0,0,123.87,106.51Z"/><path class="cls-10" d="M125.87,105.76a.66.66,0,0,0,.66-.65.66.66,0,0,0-.66-.65.65.65,0,0,0,0,1.3Z"/><path class="cls-9" d="M128.17,105.36a.65.65,0,1,0-.65-.65A.65.65,0,0,0,128.17,105.36Z"/><path class="cls-9" d="M130.19,105.24a.66.66,0,0,0,.65-.65.65.65,0,1,0-.65.65Z"/><path class="cls-9" d="M132.27,105.35a.65.65,0,0,0,.64-.65.63.63,0,0,0-.64-.65.64.64,0,0,0-.65.65A.66.66,0,0,0,132.27,105.35Z"/><path class="cls-9" d="M134.62,114.37a.65.65,0,1,0-.65-.65A.66.66,0,0,0,134.62,114.37Z"/><path class="cls-10" d="M133.47,112.78a.65.65,0,0,0,0-1.3.65.65,0,0,0-.64.65A.65.65,0,0,0,133.47,112.78Z"/><path class="cls-9" d="M132.77,111a.65.65,0,1,0-.65-.65A.65.65,0,0,0,132.77,111Z"/><path class="cls-10" d="M132.92,109.06a.65.65,0,1,0,0-1.3.65.65,0,1,0,0,1.3Z"/><path class="cls-9" d="M133.33,107.09a.66.66,0,0,0,.65-.66.65.65,0,0,0-1.3,0A.66.66,0,0,0,133.33,107.09Z"/><path class="cls-9" d="M134.32,105.31a.65.65,0,1,0-.65-.65A.66.66,0,0,0,134.32,105.31Z"/><path class="cls-9" d="M135.87,104.12a.65.65,0,1,0-.65-.65A.66.66,0,0,0,135.87,104.12Z"/><path class="cls-9" d="M137.71,103.09a.65.65,0,0,0,0-1.3.65.65,0,1,0,0,1.3Z"/><path class="cls-10" d="M139.75,102.49a.65.65,0,1,0-.65-.65A.65.65,0,0,0,139.75,102.49Z"/><path class="cls-10" d="M141.88,102.12a.65.65,0,0,0,.65-.64.67.67,0,0,0-.65-.66.66.66,0,0,0-.65.66A.64.64,0,0,0,141.88,102.12Z"/><path class="cls-10" d="M143.94,102.12a.64.64,0,0,0,.65-.64.65.65,0,1,0-1.3,0A.64.64,0,0,0,143.94,102.12Z"/><path class="cls-9" d="M146.06,102.51a.65.65,0,1,0-.64-.65A.65.65,0,0,0,146.06,102.51Z"/><path class="cls-9" d="M148,103.19a.66.66,0,0,0,.65-.66.65.65,0,0,0-1.3,0A.66.66,0,0,0,148,103.19Z"/><path class="cls-5" d="M150.46,112.53a3.6,3.6,0,0,0-1.17,2.53,2,2,0,0,0-1.5-.75c.67,1.32.85,2.81,1.54,3.85a1.28,1.28,0,0,1,2.26,0c.68-1,.87-2.53,1.55-3.85a1.94,1.94,0,0,0-1.51.75A3.64,3.64,0,0,0,150.46,112.53Z"/><path class="cls-5" d="M144.16,118.76a3.15,3.15,0,0,0,2.17,1,1.64,1.64,0,0,0-.64,1.29c1.3-.68,2.81-.78,3.68-1.64a1.27,1.27,0,0,1-.18-.67,1.2,1.2,0,0,1,.18-.65c-.89-.85-2.38-1-3.68-1.63a1.64,1.64,0,0,0,.64,1.29A3.11,3.11,0,0,0,144.16,118.76Z"/><path class="cls-5" d="M156.76,118.76a3.13,3.13,0,0,1-2.18,1,1.62,1.62,0,0,1,.65,1.29c-1.31-.68-2.81-.78-3.69-1.64a1.28,1.28,0,0,0,.19-.67,1.32,1.32,0,0,0-.18-.65c.88-.85,2.38-1,3.68-1.63a1.62,1.62,0,0,1-.65,1.29A3.1,3.1,0,0,1,156.76,118.76Z"/><path class="cls-4" d="M150.46,120a1.27,1.27,0,1,0-1.27-1.27A1.27,1.27,0,0,0,150.46,120Z"/><path class="cls-6" d="M149.35,114.48l-2.18-1.86a17.37,17.37,0,0,0,.75-5.63c.05-1.88,0-4.63,2.4-4.74h.28c2.43.11,2.35,2.86,2.4,4.74a17.37,17.37,0,0,0,.75,5.63l-2.18,1.87a3.81,3.81,0,0,0-1.11-2A3.75,3.75,0,0,0,149.35,114.48Z"/><path class="cls-5" d="M129.84,128.54a3.61,3.61,0,0,1,1.62,3.1,61,61,0,0,1,9.28-1.67,82.09,82.09,0,0,1,19.44,0,61,61,0,0,1,9.28,1.67,3.63,3.63,0,0,1,1.61-3.1,64.76,64.76,0,0,0-9.9-1.87,89.32,89.32,0,0,0-21.43,0A65,65,0,0,0,129.84,128.54Z"/><path class="cls-13" d="M131.29,133.38a58.36,58.36,0,0,0,9.45,1.7,80,80,0,0,0,19.44,0,58.56,58.56,0,0,0,9.45-1.7.94.94,0,0,0,0-1.7,60.83,60.83,0,0,0-9.45-1.71,82.09,82.09,0,0,0-19.44,0,60.61,60.61,0,0,0-9.45,1.71A.94.94,0,0,0,131.29,133.38Z"/><path class="cls-13" d="M129.45,128.67a.7.7,0,0,1-.86-.47.69.69,0,0,1,.47-.86,63.32,63.32,0,0,1,10.53-2,84.15,84.15,0,0,1,21.74,0,63.52,63.52,0,0,1,10.53,2,.69.69,0,0,1-.39,1.33,61.19,61.19,0,0,0-10.3-2,89.32,89.32,0,0,0-21.43,0A61.46,61.46,0,0,0,129.45,128.67Z"/><path class="cls-14" d="M168.11,132.71a60.36,60.36,0,0,1-8.07,1.37,87.58,87.58,0,0,1-19.15,0,59.7,59.7,0,0,1-8.08-1.37,63,63,0,0,1,8.08-1.36,86.35,86.35,0,0,1,19.15,0A63.76,63.76,0,0,1,168.11,132.71Z"/><path class="cls-15" d="M149.76,113.41l-1.41-1.08a39,39,0,0,0,.66-6.43c0-1.08,0-2.66,1.37-2.71h.15c1.4,0,1.35,1.63,1.38,2.71a39,39,0,0,0,.66,6.43l-1.41,1.08a4.24,4.24,0,0,0-.7-.88A4.24,4.24,0,0,0,149.76,113.41Z"/><path class="cls-9" d="M149.76,113.41l-.51-.4v0a1.12,1.12,0,0,1,2.23,0,1.49,1.49,0,0,1,0,.21l-.3.23a4.24,4.24,0,0,0-.7-.88A4.24,4.24,0,0,0,149.76,113.41Z"/><path class="cls-9" d="M150.36,107a.65.65,0,1,0-.65-.65A.65.65,0,0,0,150.36,107Z"/><path class="cls-9" d="M150.36,105a.52.52,0,0,0,.53-.52.53.53,0,0,0-.53-.53.52.52,0,0,0-.52.53A.52.52,0,0,0,150.36,105Z"/><path class="cls-9" d="M150.36,109.32a.9.9,0,0,0,.9-.9.9.9,0,0,0-1.8,0A.91.91,0,0,0,150.36,109.32Z"/><path class="cls-9" d="M150.36,111.86a1.12,1.12,0,1,0,0-2.24,1.12,1.12,0,0,0,0,2.24Z"/><path class="cls-16" d="M138.72,127.76l3-.28a.67.67,0,0,1,.72.59h0a.66.66,0,0,1-.6.72l-3,.27a.65.65,0,0,1-.71-.58h0A.65.65,0,0,1,138.72,127.76Z"/><path class="cls-9" d="M145.22,128.51a.66.66,0,0,0,.66-.65.66.66,0,0,0-.66-.65.65.65,0,0,0,0,1.3Z"/><path class="cls-9" d="M135.16,129.67a.65.65,0,0,0,.65-.65.65.65,0,0,0-1.3,0A.65.65,0,0,0,135.16,129.67Z"/><polygon class="cls-4" points="129.94 130.21 130.67 129.33 132.72 129.52 131.36 130.65 129.94 130.21"/><path class="cls-8" d="M152.57,127.05h-4.22a.67.67,0,0,0-.66.67h0a.67.67,0,0,0,.66.66h4.22a.67.67,0,0,0,.66-.66h0A.67.67,0,0,0,152.57,127.05Z"/><path class="cls-17" d="M162.19,127.76l-3-.28a.66.66,0,0,0-.71.59h0a.66.66,0,0,0,.6.72l3,.27a.66.66,0,0,0,.72-.58h0A.65.65,0,0,0,162.19,127.76Z"/><path class="cls-9" d="M155.69,128.51a.66.66,0,0,0,.66-.65.66.66,0,0,0-.66-.65.65.65,0,0,0-.64.65A.65.65,0,0,0,155.69,128.51Z"/><path class="cls-9" d="M165.76,129.67a.66.66,0,0,0,.65-.65.65.65,0,1,0-.65.65Z"/><polygon class="cls-8" points="170.98 130.21 170.26 129.33 168.2 129.52 169.55 130.65 170.98 130.21"/><path class="cls-18" d="M150.38,102.29a2.61,2.61,0,1,0-2.62-2.61A2.61,2.61,0,0,0,150.38,102.29Z"/><path class="cls-5" d="M147.78,99.34h1.94V95.17H148.1V93.85h1.62V92.41H151v1.44h1.62v1.32H151v4.17H153c0,.11,0,.22,0,.34a2.62,2.62,0,0,1-.19,1H148a2.62,2.62,0,0,1-.19-1C147.76,99.56,147.77,99.45,147.78,99.34Z"/><rect class="cls-19" x="189.61" y="135.8" width="13.88" height="3.66"/><path class="cls-20" d="M191.19,140.36H201.9a.45.45,0,0,0,.46-.44h0a.45.45,0,0,0-.46-.45H191.19a.45.45,0,0,0-.44.45h0A.44.44,0,0,0,191.19,140.36Z"/><path class="cls-20" d="M191.19,142.85H201.9a.46.46,0,0,0,.46-.45h0a.44.44,0,0,0-.46-.44H191.19a.44.44,0,0,0-.44.44h0A.45.45,0,0,0,191.19,142.85Z"/><path class="cls-20" d="M201.84,140.36a.91.91,0,0,0-.5.8h0a.91.91,0,0,0,.5.8H191.26a.91.91,0,0,0,.5-.8h0a.91.91,0,0,0-.5-.8Z"/><rect class="cls-21" x="191.49" y="143.26" width="7.52" height="49.33"/><rect class="cls-21" x="199.01" y="143.26" width="1.01" height="49.33"/><rect class="cls-21" x="200.01" y="143.26" width="1.6" height="49.33"/><path class="cls-22" d="M186.93,200.26c1.58,0,3.17-1.12,4.77-1.12s3.27,1.12,4.91,1.12,3.27-1.12,4.9-1.12,3.18,1.12,4.78,1.12v1.44c-1.6,0-3.18-1.12-4.78-1.12s-3.27,1.12-4.9,1.12-3.28-1.12-4.91-1.12-3.19,1.12-4.77,1.12Z"/><path class="cls-23" d="M186.93,201.7c1.58,0,3.17-1.12,4.77-1.12s3.27,1.12,4.91,1.12,3.27-1.12,4.9-1.12,3.18,1.12,4.78,1.12v1.44c-1.6,0-3.18-1.12-4.78-1.12s-3.27,1.12-4.9,1.12S193.33,202,191.7,202s-3.19,1.12-4.77,1.12Z"/><path class="cls-22" d="M186.93,203.14c1.58,0,3.17-1.12,4.77-1.12s3.27,1.12,4.91,1.12,3.27-1.12,4.9-1.12,3.18,1.12,4.78,1.12v1.44c-1.6,0-3.18-1.12-4.78-1.12s-3.27,1.12-4.9,1.12-3.28-1.12-4.91-1.12-3.19,1.12-4.77,1.12Z"/><path class="cls-23" d="M186.93,204.58c1.58,0,3.17-1.12,4.77-1.12s3.27,1.12,4.91,1.12,3.27-1.12,4.9-1.12,3.18,1.12,4.78,1.12V206c-1.6,0-3.18-1.12-4.78-1.12s-3.27,1.12-4.9,1.12-3.28-1.12-4.91-1.12-3.19,1.12-4.77,1.12Z"/><path class="cls-22" d="M186.93,206c1.58,0,3.17-1.12,4.77-1.12S195,206,196.61,206s3.27-1.12,4.9-1.12,3.18,1.12,4.78,1.12v1.55c-1.6,0-3.2-1.12-4.79-1.12s-3.26,1.12-4.89,1.12-3.27-1.12-4.9-1.12-3.19,1.12-4.78,1.12Z"/><rect class="cls-19" x="189.61" y="195.93" width="13.88" height="3.67"/><path class="cls-20" d="M191.19,193.14H201.9a.45.45,0,0,1,.46.44h0a.45.45,0,0,1-.46.45H191.19a.45.45,0,0,1-.44-.45h0A.44.44,0,0,1,191.19,193.14Z"/><path class="cls-20" d="M191.26,194a1.62,1.62,0,0,1-.89,1.9h12.36a1.62,1.62,0,0,1-.89-1.9Z"/><path class="cls-24" d="M201.47,132.56a.62.62,0,0,0,.35.34.32.32,0,0,0-.21.21c.31-.05.62,0,.85-.09,0,0,0,0,0,0s0,0,0,0a3.33,3.33,0,0,1-.46.36c-.46.29-.82.25-.83-.24h0a.1.1,0,0,1-.07,0,.65.65,0,0,1-1.15-.6l-.1,0a.29.29,0,0,1-.23-.12.68.68,0,0,1-1.35.2h0l-.07,0a.7.7,0,0,1-1.35-.36.22.22,0,0,0,.11-.1c.2.19.54.21.84.36a.38.38,0,0,0-.15-.29.7.7,0,0,0,.5-.22.72.72,0,0,0-.5-.24.36.36,0,0,0,.15-.28,6,6,0,0,0-.8.33c.13-.23.18-.54.32-.83a.46.46,0,0,0-.34.18.53.53,0,0,0,0-.13l.49-.43a3,3,0,0,1-.15-.83,10.71,10.71,0,0,1,2.63.69,2.89,2.89,0,0,1-.25.24c.08.15.17.31.27.47l.2-.17,0,0a1.29,1.29,0,0,0,.48-.51,3.89,3.89,0,0,1,2.65.72,1.43,1.43,0,0,1-.19.26c.12.2.23.4.34.6l.06,0a.19.19,0,0,0,0,.08.51.51,0,0,0-.42.16.34.34,0,0,1,0-.18c-.31.1-.34.42-.29.8,0,0,0,0,0,0-.05-.32-.39-.44-.63-.7a.35.35,0,0,0,0,.3.66.66,0,0,0-.48,0Zm-9.73,0a.63.63,0,0,1-.34.34.34.34,0,0,1,.21.21c-.32-.05-.63,0-.86-.09,0,0,0,0,0,0s0,0,0,0a3.33,3.33,0,0,0,.46.36c.46.29.82.25.83-.24h0a.1.1,0,0,0,.07,0,.65.65,0,0,0,1.15-.6l.1,0a.29.29,0,0,0,.23-.12.68.68,0,0,0,1.35.2h0a.11.11,0,0,0,.07,0,.7.7,0,0,0,1.35-.36.27.27,0,0,1-.11-.1c-.2.19-.54.21-.84.36a.38.38,0,0,1,.15-.29.66.66,0,0,1-.49-.22.68.68,0,0,1,.49-.24.36.36,0,0,1-.15-.28,5.52,5.52,0,0,1,.8.33c-.14-.23-.17-.54-.32-.83a.43.43,0,0,1,.34.18c0-.05,0-.09,0-.13l-.49-.43a3,3,0,0,0,.15-.83,10.89,10.89,0,0,0-2.64.69l.27.24c-.1.15-.18.31-.27.47l-.21-.17,0,0a1.19,1.19,0,0,1-.47-.51,3.9,3.9,0,0,0-2.66.72,1.43,1.43,0,0,0,.19.26c-.11.2-.23.4-.35.6l0,0a.41.41,0,0,0,0,.08.55.55,0,0,1,.42.16.9.9,0,0,0,0-.18c.31.1.34.42.29.8,0,0,0,0,0,0,.05-.32.39-.44.63-.7a.32.32,0,0,1,0,.3.65.65,0,0,1,.48,0Zm0,1.38a.49.49,0,0,0,.45-.39,1,1,0,0,0,1.36-.41,1,1,0,0,0,1.51,0,.82.82,0,0,0,.67.28c-.51,0-1,.06-1.62.13a13.22,13.22,0,0,0-2.35.46l0,0Zm4-.58.81,0,.8,0a1,1,0,0,1-.8-.41,1.06,1.06,0,0,1-.81.41Zm5.64.58a.47.47,0,0,1-.44-.39,1,1,0,0,1-1.37-.41,1,1,0,0,1-1.51,0,.82.82,0,0,1-.67.28c.51,0,1,.06,1.62.13a13.51,13.51,0,0,1,2.36.46Z"/><path class="cls-25" d="M203.31,132.07c-.11-.2-.22-.4-.34-.6,1.27-1.46-.85-2.47-2.51-2.05a1.44,1.44,0,0,0-.18-.25c1.63-.46,4.26.46,3,2.36.09.12.18.25.26.38-.07.05-.13.11-.21.16Zm-3.1-2.86,0,0h0Z"/><path class="cls-25" d="M203.48,131.85a1.37,1.37,0,0,0,0-1.81,1.36,1.36,0,0,1-.21,1.49Z"/><path class="cls-26" d="M199.85,131.19c-.1-.16-.19-.32-.27-.47a1,1,0,0,0,.23-1.61,2.3,2.3,0,0,0-2.64-.19c0-.09,0-.17,0-.24a2.65,2.65,0,0,1,2.77.17,1.2,1.2,0,0,1,0,1.93l.15.24Z"/><path class="cls-26" d="M200,128.92A1.18,1.18,0,0,1,200,131l-.13-.22A1.2,1.2,0,0,0,200,128.92Z"/><path class="cls-25" d="M200,131.06a.73.73,0,0,1,.14.55.39.39,0,0,1,.33-.1c-.18.23-.28.5-.44.68a.29.29,0,0,0-.27-.2.35.35,0,0,0-.22.1c-.07-.22-.06-.51-.14-.79a.42.42,0,0,1,.27.21A.7.7,0,0,1,200,131.06Z"/><path class="cls-25" d="M201,132.53a.59.59,0,0,1-.47.12.32.32,0,0,1,.08.28,4.32,4.32,0,0,1-.65-.44.3.3,0,0,0,.08-.2.18.18,0,0,0,0-.1,4,4,0,0,1,.77-.17.34.34,0,0,1-.18.24A.59.59,0,0,1,201,132.53Z"/><path class="cls-26" d="M198.53,132.05a.58.58,0,0,0,.39.28.33.33,0,0,0-.17.23,4,4,0,0,0,.77-.17.17.17,0,0,1,0-.1.3.3,0,0,1,.08-.2,4.32,4.32,0,0,0-.65-.44.35.35,0,0,0,.08.28A.63.63,0,0,0,198.53,132.05Z"/><path class="cls-25" d="M201.47,132.56a.62.62,0,0,0,.35.34.32.32,0,0,0-.21.21c.31-.05.62,0,.85-.09a.28.28,0,0,1,.09-.1c-.05-.32-.39-.44-.63-.7a.35.35,0,0,0,0,.3.66.66,0,0,0-.48,0Zm1.13.33c0-.38,0-.7.29-.8a.34.34,0,0,0,0,.18c.38-.32.69-.15.76.26a.71.71,0,0,0-.82.42.12.12,0,0,0-.11-.08A.2.2,0,0,0,202.6,132.89Z"/><path class="cls-27" d="M202.75,132.87a.28.28,0,0,0-.3.19c-.06.12,0,.23.1.25a.3.3,0,0,0,.3-.19C202.9,133,202.86,132.88,202.75,132.87Z"/><path class="cls-26" d="M199.78,132.58a.29.29,0,0,0,.29-.29.29.29,0,1,0-.58,0A.29.29,0,0,0,199.78,132.58Z"/><path class="cls-25" d="M198.18,132.23c-.09,0-.16.1-.17.21s.07.22.15.22.17-.09.17-.21S198.26,132.23,198.18,132.23Z"/><path class="cls-25" d="M201.2,132.78c-.08,0-.17.06-.2.17a.2.2,0,0,0,.1.25c.08,0,.17-.06.2-.17A.18.18,0,0,0,201.2,132.78Z"/><path class="cls-28" d="M203.73,132.19a.15.15,0,0,0,.15-.15.15.15,0,1,0-.3,0A.15.15,0,0,0,203.73,132.19Z"/><path class="cls-28" d="M203.94,131.83a.15.15,0,0,0,0-.3.15.15,0,0,0,0,.3Z"/><path class="cls-28" d="M204.08,131.4a.14.14,0,0,0,.14-.15.15.15,0,0,0-.14-.15.15.15,0,0,0-.15.15A.15.15,0,0,0,204.08,131.4Z"/><path class="cls-28" d="M204.1,130.93a.15.15,0,0,0,.15-.14.15.15,0,1,0-.3,0A.15.15,0,0,0,204.1,130.93Z"/><path class="cls-29" d="M204,130.48a.15.15,0,0,0,.15-.14.15.15,0,0,0-.3,0A.15.15,0,0,0,204,130.48Z"/><path class="cls-28" d="M203.74,130.07a.14.14,0,0,0,.15-.15.15.15,0,0,0-.15-.15.15.15,0,0,0-.15.15A.15.15,0,0,0,203.74,130.07Z"/><path class="cls-29" d="M203.44,129.74a.15.15,0,0,0,0-.3.15.15,0,0,0,0,.3Z"/><path class="cls-29" d="M203.08,129.46a.14.14,0,0,0,.14-.15.15.15,0,0,0-.14-.15.15.15,0,0,0-.15.15A.15.15,0,0,0,203.08,129.46Z"/><path class="cls-29" d="M202.65,129.23a.15.15,0,0,0,.14-.14.15.15,0,0,0-.14-.15.15.15,0,0,0-.15.15A.15.15,0,0,0,202.65,129.23Z"/><path class="cls-28" d="M202.19,129.06a.15.15,0,1,0-.15-.14A.15.15,0,0,0,202.19,129.06Z"/><path class="cls-28" d="M201.67,129a.15.15,0,0,0,.15-.15.15.15,0,0,0-.3,0A.15.15,0,0,0,201.67,129Z"/><path class="cls-29" d="M201.21,129a.16.16,0,0,0,.15-.16.15.15,0,0,0-.15-.14.14.14,0,0,0-.14.14A.15.15,0,0,0,201.21,129Z"/><path class="cls-29" d="M200.74,129a.15.15,0,0,0,.14-.15.14.14,0,0,0-.14-.14.15.15,0,0,0-.15.14A.15.15,0,0,0,200.74,129Z"/><path class="cls-28" d="M200.2,131a.15.15,0,0,0,.15-.15.15.15,0,0,0-.3,0A.15.15,0,0,0,200.2,131Z"/><path class="cls-28" d="M200.46,130.65a.14.14,0,0,0,.15-.14.15.15,0,0,0-.15-.15.15.15,0,0,0-.14.15A.14.14,0,0,0,200.46,130.65Z"/><path class="cls-28" d="M200.62,130.26a.15.15,0,1,0,0-.3.15.15,0,0,0,0,.3Z"/><path class="cls-28" d="M200.59,129.81a.15.15,0,0,0,.15-.14.15.15,0,0,0-.3,0A.15.15,0,0,0,200.59,129.81Z"/><path class="cls-28" d="M200.49,129.36a.14.14,0,0,0,.15-.14.14.14,0,0,0-.15-.15.15.15,0,0,0-.14.15A.14.14,0,0,0,200.49,129.36Z"/><path class="cls-29" d="M200.27,129a.15.15,0,0,0,.15-.14.15.15,0,0,0-.15-.15.14.14,0,0,0-.14.15A.14.14,0,0,0,200.27,129Z"/><path class="cls-28" d="M199.92,128.68a.14.14,0,1,0-.15-.14A.15.15,0,0,0,199.92,128.68Z"/><path class="cls-29" d="M199.5,128.46a.15.15,0,0,0,.15-.15.14.14,0,0,0-.15-.14.14.14,0,0,0-.14.14A.15.15,0,0,0,199.5,128.46Z"/><path class="cls-29" d="M199,128.32a.14.14,0,0,0,.14-.15A.14.14,0,0,0,199,128a.15.15,0,0,0-.15.14A.15.15,0,0,0,199,128.32Z"/><path class="cls-28" d="M198.56,128.24a.14.14,0,0,0,.14-.14.15.15,0,0,0-.14-.16.16.16,0,0,0-.15.16A.15.15,0,0,0,198.56,128.24Z"/><path class="cls-28" d="M198.09,128.24a.14.14,0,0,0,.14-.14.15.15,0,0,0-.14-.16.15.15,0,0,0-.15.16A.15.15,0,0,0,198.09,128.24Z"/><path class="cls-29" d="M197.6,128.33a.16.16,0,0,0,.15-.16.15.15,0,0,0-.15-.14.14.14,0,0,0-.14.14A.15.15,0,0,0,197.6,128.33Z"/><path class="cls-29" d="M197.17,128.48a.15.15,0,0,0,.15-.14.16.16,0,0,0-.15-.16.15.15,0,0,0-.15.16A.15.15,0,0,0,197.17,128.48Z"/><path class="cls-26" d="M189.89,132.07c.12-.2.24-.4.35-.6-1.26-1.46.85-2.47,2.5-2.05a2.35,2.35,0,0,1,.19-.25c-1.63-.46-4.26.46-3,2.36-.09.12-.17.25-.26.38l.2.16Zm3.12-2.86v0h0Z"/><path class="cls-25" d="M189.73,131.85a1.36,1.36,0,0,1,0-1.81,1.37,1.37,0,0,0,.2,1.49Z"/><path class="cls-25" d="M193.37,131.19c.09-.16.17-.32.27-.47a1,1,0,0,1-.24-1.61,2.3,2.3,0,0,1,2.64-.19c0-.09,0-.17.05-.24a2.65,2.65,0,0,0-2.77.17,1.2,1.2,0,0,0,0,1.93l-.15.24Z"/><path class="cls-26" d="M193.25,128.92a1.18,1.18,0,0,0-.07,2.08l.13-.22A1.19,1.19,0,0,1,193.25,128.92Z"/><path class="cls-26" d="M193.19,131.06a.73.73,0,0,0-.14.55.38.38,0,0,0-.32-.1c.17.23.27.5.43.68a.29.29,0,0,1,.27-.2.32.32,0,0,1,.21.1c.09-.22.07-.51.15-.79a.45.45,0,0,0-.27.21A.7.7,0,0,0,193.19,131.06Z"/><path class="cls-26" d="M192.18,132.53a.59.59,0,0,0,.47.12.35.35,0,0,0-.08.28,4.32,4.32,0,0,0,.65-.44.3.3,0,0,1-.08-.2.36.36,0,0,1,0-.1,4.05,4.05,0,0,0-.76-.17.33.33,0,0,0,.17.24A.59.59,0,0,0,192.18,132.53Z"/><path class="cls-26" d="M194.68,132.05a.6.6,0,0,1-.39.28.35.35,0,0,1,.18.23,3.68,3.68,0,0,1-.77-.17.28.28,0,0,0-.06-.3,4.32,4.32,0,0,1,.65-.44.32.32,0,0,1-.08.28A.63.63,0,0,1,194.68,132.05Z"/><path class="cls-26" d="M191.74,132.56a.63.63,0,0,1-.34.34.34.34,0,0,1,.21.21c-.32-.05-.63,0-.86-.09a.43.43,0,0,0-.09-.1c.05-.32.39-.44.63-.7a.32.32,0,0,1,0,.3.65.65,0,0,1,.48,0Zm-1.13.33c0-.38,0-.7-.29-.8a.9.9,0,0,1,0,.18c-.38-.32-.7-.15-.76.26a.69.69,0,0,1,.81.42.12.12,0,0,1,.12-.08A.18.18,0,0,1,190.61,132.89Z"/><path class="cls-27" d="M190.47,132.87a.28.28,0,0,1,.3.19c0,.12,0,.23-.11.25a.29.29,0,0,1-.3-.19C190.31,133,190.35,132.88,190.47,132.87Z"/><path class="cls-26" d="M193.43,132.58a.29.29,0,0,0,.29-.29.29.29,0,1,0-.58,0A.29.29,0,0,0,193.43,132.58Z"/><path class="cls-25" d="M190.78,133.09a3.33,3.33,0,0,0,.46.36c.46.29.82.25.83-.24h0a.1.1,0,0,0,.07,0,.65.65,0,0,0,1.15-.6l.1,0a.29.29,0,0,0,.23-.12.68.68,0,0,0,1.35.2h0a.11.11,0,0,0,.07,0,.7.7,0,0,0,1.35-.36.29.29,0,0,0,.14,0,.31.31,0,0,0,.13,0,.7.7,0,0,0,1.35.36l.07,0h0a.68.68,0,0,0,1.35-.2.29.29,0,0,0,.23.12l.1,0a.65.65,0,0,0,1.15.6.1.1,0,0,0,.07,0h0c0,.49.37.53.83.24a3.33,3.33,0,0,0,.46-.36.17.17,0,0,0,.06.2c-.38.6-1.28,1-1.49.26a1,1,0,0,1-1.37-.41,1,1,0,0,1-1.51,0,1,1,0,0,1-1.51-.14,1,1,0,0,1-1.52.14,1,1,0,0,1-1.51,0,1,1,0,0,1-1.36.41c-.21.72-1.11.34-1.5-.26A.16.16,0,0,0,190.78,133.09Z"/><path class="cls-25" d="M195,132.23c.08,0,.15.1.16.21s-.07.22-.15.22-.16-.09-.16-.21S195,132.23,195,132.23Z"/><path class="cls-25" d="M192,132.78c.08,0,.17.06.2.17s0,.23-.1.25-.17-.06-.2-.17S191.92,132.8,192,132.78Z"/><path class="cls-28" d="M189.48,132.19a.15.15,0,0,0,.15-.15.15.15,0,1,0-.3,0A.15.15,0,0,0,189.48,132.19Z"/><path class="cls-29" d="M189.27,131.83a.15.15,0,1,0-.14-.15A.15.15,0,0,0,189.27,131.83Z"/><path class="cls-28" d="M189.13,131.4a.14.14,0,0,0,.15-.15.15.15,0,0,0-.15-.15.15.15,0,0,0-.14.15A.15.15,0,0,0,189.13,131.4Z"/><path class="cls-29" d="M189.11,130.93a.15.15,0,0,0,.15-.14.15.15,0,0,0-.15-.16.16.16,0,0,0-.15.16A.15.15,0,0,0,189.11,130.93Z"/><path class="cls-28" d="M189.23,130.48a.14.14,0,0,0,.14-.14.14.14,0,0,0-.14-.15.15.15,0,0,0-.15.15A.15.15,0,0,0,189.23,130.48Z"/><path class="cls-29" d="M189.47,130.07a.14.14,0,0,0,.14-.15.15.15,0,0,0-.14-.15.15.15,0,0,0-.15.15A.15.15,0,0,0,189.47,130.07Z"/><path class="cls-29" d="M189.78,129.74a.15.15,0,0,0,0-.3.15.15,0,0,0,0,.3Z"/><path class="cls-29" d="M190.14,129.46a.15.15,0,0,0,.15-.15.15.15,0,1,0-.3,0A.15.15,0,0,0,190.14,129.46Z"/><path class="cls-28" d="M190.57,129.23a.15.15,0,1,0-.15-.14A.15.15,0,0,0,190.57,129.23Z"/><path class="cls-28" d="M191,129.06a.15.15,0,0,0,.15-.14.15.15,0,0,0-.15-.15.15.15,0,0,0-.14.15A.14.14,0,0,0,191,129.06Z"/><path class="cls-29" d="M191.54,129a.14.14,0,0,0,.15-.15.15.15,0,0,0-.15-.14.14.14,0,0,0-.14.14A.14.14,0,0,0,191.54,129Z"/><path class="cls-29" d="M192,129a.16.16,0,0,0,.15-.16.15.15,0,0,0-.15-.14.14.14,0,0,0-.14.14A.15.15,0,0,0,192,129Z"/><path class="cls-28" d="M192.47,129a.15.15,0,0,0,.15-.15.14.14,0,0,0-.15-.14.14.14,0,0,0-.14.14A.15.15,0,0,0,192.47,129Z"/><path class="cls-28" d="M193,131a.15.15,0,0,0,.15-.15.15.15,0,1,0-.3,0A.15.15,0,0,0,193,131Z"/><path class="cls-29" d="M192.74,130.65a.14.14,0,0,0,.15-.14.15.15,0,0,0-.15-.15.15.15,0,0,0-.14.15A.14.14,0,0,0,192.74,130.65Z"/><path class="cls-28" d="M192.59,130.26a.15.15,0,1,0-.15-.15A.15.15,0,0,0,192.59,130.26Z"/><path class="cls-28" d="M192.62,129.81a.14.14,0,0,0,.15-.14.14.14,0,0,0-.15-.15.14.14,0,0,0-.14.15A.14.14,0,0,0,192.62,129.81Z"/><path class="cls-28" d="M192.71,129.36a.14.14,0,0,0,.15-.14.14.14,0,0,0-.15-.15.15.15,0,0,0-.14.15A.14.14,0,0,0,192.71,129.36Z"/><path class="cls-29" d="M192.94,129a.15.15,0,0,0,.15-.14.15.15,0,0,0-.3,0A.15.15,0,0,0,192.94,129Z"/><path class="cls-29" d="M193.29,128.68a.14.14,0,1,0,0-.28.14.14,0,0,0,0,.28Z"/><path class="cls-29" d="M193.71,128.46a.15.15,0,0,0,.15-.15.15.15,0,0,0-.15-.14.14.14,0,0,0-.15.14A.15.15,0,0,0,193.71,128.46Z"/><path class="cls-28" d="M194.17,128.32a.14.14,0,0,0,.15-.15.15.15,0,0,0-.15-.14.14.14,0,0,0-.14.14A.14.14,0,0,0,194.17,128.32Z"/><path class="cls-28" d="M194.66,128.24a.14.14,0,0,0,.14-.14.15.15,0,0,0-.14-.16.16.16,0,0,0-.15.16A.15.15,0,0,0,194.66,128.24Z"/><path class="cls-28" d="M195.12,128.24a.15.15,0,0,0,.15-.14.15.15,0,0,0-.15-.16.16.16,0,0,0-.14.16A.15.15,0,0,0,195.12,128.24Z"/><path class="cls-29" d="M195.61,128.33a.16.16,0,0,0,.15-.16.15.15,0,0,0-.3,0A.16.16,0,0,0,195.61,128.33Z"/><path class="cls-29" d="M196,128.48a.15.15,0,0,0,.15-.14.15.15,0,0,0-.15-.16.16.16,0,0,0-.14.16A.15.15,0,0,0,196,128.48Z"/><path class="cls-26" d="M196.61,130.6a.86.86,0,0,0-.27.58A.43.43,0,0,0,196,131c.15.3.19.64.35.88a.28.28,0,0,1,.26-.16.27.27,0,0,1,.25.16c.16-.24.2-.58.35-.88a.46.46,0,0,0-.34.18A.81.81,0,0,0,196.61,130.6Z"/><path class="cls-25" d="M195.18,132a.66.66,0,0,0,.49.22.38.38,0,0,0-.15.29c.3-.15.64-.17.84-.37a.23.23,0,0,1,0-.14.33.33,0,0,1,0-.15c-.19-.2-.53-.22-.83-.37a.36.36,0,0,0,.15.28A.68.68,0,0,0,195.18,132Z"/><path class="cls-25" d="M198,132a.7.7,0,0,1-.5.22.38.38,0,0,1,.15.29c-.3-.15-.64-.17-.84-.37a.24.24,0,0,0,.05-.14.25.25,0,0,0-.05-.15c.21-.2.54-.22.84-.37a.36.36,0,0,1-.15.28A.72.72,0,0,1,198,132Z"/><path class="cls-25" d="M196.61,132.3a.29.29,0,0,0,.29-.28.29.29,0,1,0-.58,0A.29.29,0,0,0,196.61,132.3Z"/><path class="cls-25" d="M196.35,131.05l-.49-.43a4,4,0,0,0,.17-1.28c0-.42,0-1.05.54-1.07h.06c.56,0,.54.65.55,1.07a4.29,4.29,0,0,0,.17,1.28l-.49.43a.87.87,0,0,0-.25-.45A.88.88,0,0,0,196.35,131.05Z"/><path class="cls-25" d="M191.92,134.24a.77.77,0,0,1,.37.71,11.81,11.81,0,0,1,2.1-.38,18.16,18.16,0,0,1,4.42,0,12,12,0,0,1,2.12.38.78.78,0,0,1,.36-.71,13.37,13.37,0,0,0-2.25-.42,19.84,19.84,0,0,0-4.87,0A13.56,13.56,0,0,0,191.92,134.24Z"/><path class="cls-30" d="M192.26,135.33a13.16,13.16,0,0,0,2.13.4,19.22,19.22,0,0,0,4.42,0,13.4,13.4,0,0,0,2.15-.4.21.21,0,0,0,0-.38,13.4,13.4,0,0,0-2.15-.38,18.16,18.16,0,0,0-4.42,0,13.15,13.15,0,0,0-2.13.38A.21.21,0,0,0,192.26,135.33Z"/><path class="cls-30" d="M191.83,134.27a.16.16,0,0,1-.19-.11.17.17,0,0,1,.1-.2,16.44,16.44,0,0,1,2.4-.46,19.37,19.37,0,0,1,4.93,0,15.81,15.81,0,0,1,2.39.46.16.16,0,0,1-.08.31,13.28,13.28,0,0,0-2.34-.45,19.84,19.84,0,0,0-4.87,0A13.46,13.46,0,0,0,191.83,134.27Z"/><path class="cls-31" d="M200.61,135.19a14.56,14.56,0,0,1-1.83.3,18.62,18.62,0,0,1-4.35,0,14.87,14.87,0,0,1-1.83-.3,14.85,14.85,0,0,1,1.83-.31,18.62,18.62,0,0,1,4.35,0A14.54,14.54,0,0,1,200.61,135.19Z"/><path class="cls-32" d="M196.45,130.8l-.32-.24a10.46,10.46,0,0,0,.15-1.47c0-.24,0-.6.31-.61h0c.32,0,.31.37.31.61a10.46,10.46,0,0,0,.15,1.47l-.32.24a.75.75,0,0,0-.15-.2A.62.62,0,0,0,196.45,130.8Z"/><path class="cls-33" d="M193.94,134.06l.68-.07a.15.15,0,0,1,.16.14h0a.15.15,0,0,1-.13.17l-.68.06a.14.14,0,0,1-.16-.14h0A.14.14,0,0,1,193.94,134.06Z"/><path class="cls-28" d="M195.41,134.23a.16.16,0,0,0,.16-.15.15.15,0,0,0-.16-.14.14.14,0,0,0-.14.14A.15.15,0,0,0,195.41,134.23Z"/><path class="cls-28" d="M193.13,134.5a.16.16,0,0,0,.15-.16.15.15,0,0,0-.3,0A.16.16,0,0,0,193.13,134.5Z"/><polygon class="cls-34" points="191.95 134.61 192.11 134.42 192.58 134.47 192.27 134.71 191.95 134.61"/><path class="cls-24" d="M197.08,133.9h-1a.15.15,0,0,0-.15.15h0a.15.15,0,0,0,.15.15h1a.16.16,0,0,0,.16-.15h0A.16.16,0,0,0,197.08,133.9Z"/><path class="cls-33" d="M199.27,134.06l-.68-.07a.16.16,0,0,0-.16.14h0a.15.15,0,0,0,.13.17l.69.06a.15.15,0,0,0,.16-.14h0A.15.15,0,0,0,199.27,134.06Z"/><path class="cls-28" d="M197.8,134.23a.15.15,0,0,0,.14-.15.14.14,0,0,0-.14-.14.14.14,0,0,0-.15.14A.15.15,0,0,0,197.8,134.23Z"/><path class="cls-28" d="M200.08,134.5a.16.16,0,0,0,.15-.16.15.15,0,0,0-.3,0A.16.16,0,0,0,200.08,134.5Z"/><polygon class="cls-34" points="201.27 134.61 201.1 134.42 200.63 134.47 200.94 134.71 201.27 134.61"/><path class="cls-26" d="M196.59,128.27a.59.59,0,0,0,.59-.58.6.6,0,1,0-1.19,0A.59.59,0,0,0,196.59,128.27Z"/><path class="cls-26" d="M196,127.61h.44v-1h-.37v-.3h.37V126h.3v.33h.36v.3h-.36v1h.44v.08a.49.49,0,0,1,0,.21H196a.5.5,0,0,1,0-.21A.19.19,0,0,1,196,127.61Z"/><path class="cls-34" d="M104.31,132.66h-.17a.7.7,0,0,1-1.32,0,.09.09,0,0,1-.06,0h-.05a.68.68,0,0,1-1.34-.2.29.29,0,0,1-.23.12l-.11,0c.27.77-.63,1.19-1.15.6a.08.08,0,0,1-.06,0h0c0,.58-.27.64-.83.36-.41-.21-.26-.12-1.35-1.47h0v0a2.48,2.48,0,0,1-.51-.71c-.61-1.52,1.58-2.15,2.66-2.21a5.39,5.39,0,0,1,4.28-.75h.62a5.38,5.38,0,0,1,4.28.75c1.08.06,3.28.69,2.66,2.21a2.3,2.3,0,0,1-.51.71v0h0c-1.1,1.35-.94,1.26-1.36,1.47s-.85.22-.83-.36h0a.1.1,0,0,1-.07,0,.65.65,0,0,1-1.15-.6l-.1,0a.29.29,0,0,1-.23-.12.68.68,0,0,1-1.35.2h0a.11.11,0,0,1-.07,0,.7.7,0,0,1-1.32,0Zm4.84,1.28a.49.49,0,0,1-.45-.39,1,1,0,0,1-1.36-.41,1,1,0,0,1-1.51,0,.83.83,0,0,1-.67.28c.51,0,1,.06,1.62.13a13.58,13.58,0,0,1,2.35.46l0,0Zm-4-.58a1.05,1.05,0,0,1-.8-.41,1.05,1.05,0,0,1-.8.41l.8,0,.8,0Zm-5.64.58,0,0a13.58,13.58,0,0,1,2.35-.46c.59-.07,1.12-.11,1.62-.13a.81.81,0,0,1-.66-.28,1,1,0,0,1-1.51,0,1,1,0,0,1-1.37.41A.47.47,0,0,1,99.47,133.94Z"/><path class="cls-26" d="M107.73,131.06a.69.69,0,0,1,.13.55.41.41,0,0,1,.33-.1c-.18.23-.27.5-.43.68a.29.29,0,0,0-.27-.2.3.3,0,0,0-.21.1c-.09-.22-.07-.51-.15-.79a.48.48,0,0,1,.27.21A.7.7,0,0,1,107.73,131.06Z"/><path class="cls-26" d="M108.74,132.53a.6.6,0,0,1-.47.12.35.35,0,0,1,.08.28c-.23-.17-.51-.26-.65-.44a.3.3,0,0,0,.08-.2.36.36,0,0,0,0-.1,3.88,3.88,0,0,1,.76-.17.31.31,0,0,1-.17.24A.59.59,0,0,1,108.74,132.53Z"/><path class="cls-26" d="M106.24,132.05a.58.58,0,0,0,.39.28.35.35,0,0,0-.18.23,4,4,0,0,0,.77-.17.28.28,0,0,1,.06-.3,4.32,4.32,0,0,0-.65-.44.29.29,0,0,0,.08.28A.63.63,0,0,0,106.24,132.05Z"/><path class="cls-26" d="M109.17,132.56a.65.65,0,0,0,.35.34.34.34,0,0,0-.21.21c.31-.05.63,0,.86-.09a.28.28,0,0,1,.09-.1c-.05-.32-.4-.44-.64-.7a.35.35,0,0,0,0,.3.68.68,0,0,0-.49,0Zm1.14.33c-.06-.38,0-.7.29-.8a.5.5,0,0,0,0,.18c.38-.32.7-.15.76.26a.69.69,0,0,0-.81.42.12.12,0,0,0-.11-.08A.2.2,0,0,0,110.31,132.89Z"/><path class="cls-27" d="M110.46,132.87a.29.29,0,0,0-.31.19c-.05.12,0,.23.1.25a.3.3,0,0,0,.31-.19C110.61,133,110.57,132.88,110.46,132.87Z"/><path class="cls-26" d="M107.49,132.58a.29.29,0,0,0,.29-.29.3.3,0,0,0-.29-.3.29.29,0,0,0-.28.3A.28.28,0,0,0,107.49,132.58Z"/><path class="cls-25" d="M108.91,132.78c-.08,0-.18.06-.2.17s0,.23.1.25.17-.06.2-.17S109,132.8,108.91,132.78Z"/><path class="cls-25" d="M100.89,131.06a.73.73,0,0,0-.13.55.39.39,0,0,0-.33-.1c.18.23.27.5.43.68a.32.32,0,0,1,.28-.2.32.32,0,0,1,.21.1c.08-.22.07-.51.15-.79a.42.42,0,0,0-.27.21A.72.72,0,0,0,100.89,131.06Z"/><path class="cls-25" d="M99.88,132.53a.62.62,0,0,0,.48.12.32.32,0,0,0-.08.28,4.32,4.32,0,0,0,.65-.44.3.3,0,0,1-.08-.2.34.34,0,0,1,0-.1,3.72,3.72,0,0,0-.76-.17.37.37,0,0,0,.18.24A.61.61,0,0,0,99.88,132.53Z"/><path class="cls-26" d="M102.39,132.05a.6.6,0,0,1-.39.28.38.38,0,0,1,.18.23,3.93,3.93,0,0,1-.78-.17.16.16,0,0,0,0-.1.35.35,0,0,0-.07-.2,3.86,3.86,0,0,1,.65-.44.3.3,0,0,1-.09.28A.66.66,0,0,1,102.39,132.05Z"/><path class="cls-25" d="M99.45,132.56a.62.62,0,0,1-.35.34.34.34,0,0,1,.21.21c-.31-.05-.63,0-.85-.09l-.09-.1c0-.32.39-.44.63-.7a.35.35,0,0,1,0,.3.66.66,0,0,1,.48,0Zm-1.13.33c.05-.38,0-.7-.29-.8a.9.9,0,0,1,0,.18c-.39-.32-.71-.15-.77.26a.71.71,0,0,1,.82.42.12.12,0,0,1,.11-.08A.2.2,0,0,1,98.32,132.89Z"/><path class="cls-27" d="M98.17,132.87a.28.28,0,0,1,.3.19c.06.12,0,.23-.1.25a.29.29,0,0,1-.3-.19C98,133,98.06,132.88,98.17,132.87Z"/><path class="cls-26" d="M101.13,132.58a.29.29,0,0,0,.29-.29.3.3,0,0,0-.29-.3.29.29,0,0,0-.28.3A.28.28,0,0,0,101.13,132.58Z"/><path class="cls-26" d="M98.49,133.09a3.33,3.33,0,0,0,.46.36c.45.29.82.25.83-.24h0a.08.08,0,0,0,.06,0c.52.59,1.42.17,1.15-.6l.11,0a.29.29,0,0,0,.23-.12.68.68,0,0,0,1.34.2h.05a.09.09,0,0,0,.06,0,.7.7,0,0,0,1.36-.36.28.28,0,0,0,.13,0,.35.35,0,0,0,.14,0,.7.7,0,0,0,1.35.36.11.11,0,0,0,.07,0h0a.68.68,0,0,0,1.35-.2.29.29,0,0,0,.23.12l.1,0a.65.65,0,0,0,1.15.6.1.1,0,0,0,.07,0h0c0,.49.37.53.83.24a3.33,3.33,0,0,0,.46-.36.16.16,0,0,0,.06.2c-.39.6-1.28,1-1.5.26a1,1,0,0,1-1.36-.41,1,1,0,0,1-1.51,0,1,1,0,0,1-1.52-.14,1,1,0,0,1-1.51.14,1,1,0,0,1-1.51,0,1,1,0,0,1-1.37.41c-.21.72-1.11.34-1.49-.26A.17.17,0,0,0,98.49,133.09Z"/><path class="cls-25" d="M99.71,132.78c.09,0,.18.06.21.17a.2.2,0,0,1-.1.25c-.09,0-.18-.06-.21-.17S99.63,132.8,99.71,132.78Z"/><path class="cls-25" d="M104.31,130.6a.86.86,0,0,0-.27.58.43.43,0,0,0-.34-.18c.16.3.2.64.36.88a.27.27,0,0,1,.25-.16.29.29,0,0,1,.26.16c.15-.24.2-.58.35-.88a.45.45,0,0,0-.34.18A.82.82,0,0,0,104.31,130.6Z"/><path class="cls-26" d="M102.88,132a.69.69,0,0,0,.5.22.38.38,0,0,0-.15.29c.3-.15.64-.17.84-.37a.24.24,0,0,1,0-.14.33.33,0,0,1,0-.15c-.19-.2-.54-.22-.83-.37a.36.36,0,0,0,.15.28A.7.7,0,0,0,102.88,132Z"/><path class="cls-26" d="M105.74,132a.66.66,0,0,1-.49.22.37.37,0,0,1,.14.29c-.29-.15-.63-.17-.83-.37a.23.23,0,0,0,0-.14.24.24,0,0,0,0-.15c.2-.2.54-.22.83-.37a.35.35,0,0,1-.14.28A.68.68,0,0,1,105.74,132Z"/><path class="cls-26" d="M104.31,132.3a.29.29,0,0,0,.29-.28.29.29,0,1,0-.58,0A.29.29,0,0,0,104.31,132.3Z"/><path class="cls-25" d="M104.06,131.05l-.5-.43a3.74,3.74,0,0,0,.18-1.28c0-.42,0-1.05.54-1.07h.07c.55,0,.53.65.54,1.07a4,4,0,0,0,.17,1.28l-.5.43a.8.8,0,0,0-.25-.45A.8.8,0,0,0,104.06,131.05Z"/><path class="cls-26" d="M99.63,134.24a.81.81,0,0,1,.37.71,11.81,11.81,0,0,1,2.1-.38,18.16,18.16,0,0,1,4.42,0,11.65,11.65,0,0,1,2.1.38.8.8,0,0,1,.38-.71,13.56,13.56,0,0,0-2.25-.42,19.84,19.84,0,0,0-4.87,0A13.19,13.19,0,0,0,99.63,134.24Z"/><path class="cls-35" d="M100,135.33a13.28,13.28,0,0,0,2.14.4,19.22,19.22,0,0,0,4.42,0,13.4,13.4,0,0,0,2.15-.4.21.21,0,0,0,0-.38,13.4,13.4,0,0,0-2.15-.38,18.16,18.16,0,0,0-4.42,0A13.28,13.28,0,0,0,100,135,.21.21,0,0,0,100,135.33Z"/><path class="cls-35" d="M99.54,134.27a.16.16,0,0,1-.09-.31,16.3,16.3,0,0,1,2.39-.46,19.45,19.45,0,0,1,4.94,0,16.05,16.05,0,0,1,2.39.46.18.18,0,0,1,.11.2.17.17,0,0,1-.2.11,13.17,13.17,0,0,0-2.33-.45,19.84,19.84,0,0,0-4.87,0A13.28,13.28,0,0,0,99.54,134.27Z"/><path class="cls-36" d="M108.32,135.19a14.87,14.87,0,0,1-1.83.3,18.62,18.62,0,0,1-4.35,0,14.72,14.72,0,0,1-1.84-.3,14.7,14.7,0,0,1,1.84-.31,18.62,18.62,0,0,1,4.35,0A14.85,14.85,0,0,1,108.32,135.19Z"/><path class="cls-32" d="M104.15,130.8l-.31-.24a10.44,10.44,0,0,0,.14-1.47c0-.24,0-.6.31-.61h0c.32,0,.31.37.31.61a9.16,9.16,0,0,0,.15,1.47l-.32.24a.78.78,0,0,0-.16-.2A1.08,1.08,0,0,0,104.15,130.8Z"/><path class="cls-33" d="M101.64,134.06l.69-.07a.16.16,0,0,1,.16.14h0a.15.15,0,0,1-.13.17l-.69.06a.15.15,0,0,1-.16-.14h0A.15.15,0,0,1,101.64,134.06Z"/><path class="cls-28" d="M103.12,134.23a.15.15,0,0,0,.15-.15.14.14,0,0,0-.15-.14.14.14,0,0,0-.14.14A.15.15,0,0,0,103.12,134.23Z"/><path class="cls-28" d="M100.84,134.5a.16.16,0,0,0,.15-.16.15.15,0,0,0-.15-.14.15.15,0,0,0-.15.14A.15.15,0,0,0,100.84,134.5Z"/><polygon class="cls-34" points="99.65 134.61 99.82 134.42 100.28 134.47 99.98 134.71 99.65 134.61"/><path class="cls-24" d="M104.79,133.9h-1a.16.16,0,0,0-.16.15h0a.16.16,0,0,0,.16.15h1a.15.15,0,0,0,.15-.15h0A.15.15,0,0,0,104.79,133.9Z"/><path class="cls-33" d="M107,134.06l-.68-.07a.15.15,0,0,0-.16.14h0a.15.15,0,0,0,.13.17l.68.06a.14.14,0,0,0,.16-.14h0A.14.14,0,0,0,107,134.06Z"/><path class="cls-29" d="M105.5,134.23a.15.15,0,0,0,.15-.15.15.15,0,0,0-.3,0A.15.15,0,0,0,105.5,134.23Z"/><path class="cls-29" d="M107.79,134.5a.15.15,0,0,0,.14-.16.14.14,0,0,0-.14-.14.15.15,0,0,0-.15.14A.15.15,0,0,0,107.79,134.5Z"/><polygon class="cls-34" points="108.97 134.61 108.81 134.42 108.34 134.47 108.65 134.71 108.97 134.61"/><path class="cls-25" d="M104.29,128.27a.59.59,0,0,0,.6-.58.6.6,0,1,0-1.19,0A.59.59,0,0,0,104.29,128.27Z"/><path class="cls-26" d="M103.7,127.61h.44v-1h-.36v-.3h.36V126h.31v.33h.36v.3h-.36v1h.43a.19.19,0,0,1,0,.08.5.5,0,0,1,0,.21h-1.1a.49.49,0,0,1,0-.21Z"/><path class="cls-26" d="M99.17,129.22c.39-.88.82-.71,1.53-.33a7.24,7.24,0,0,1,2.56,2.62h0a.36.36,0,0,0,.15.28.7.7,0,0,0-.5.24.69.69,0,0,0,.5.22.38.38,0,0,0-.15.29c.3-.14.64-.17.84-.37a.23.23,0,0,0,.11.11h0a.7.7,0,0,1-1.36.36.09.09,0,0,1-.06,0h-.05a.68.68,0,0,1-1.34-.2h0l0-.07a3.93,3.93,0,0,0,.78.17.38.38,0,0,0-.18-.23.6.6,0,0,0,.39-.28.66.66,0,0,0-.48-.12.3.3,0,0,0,.09-.28,4.43,4.43,0,0,0-.64.43,2.11,2.11,0,0,0,.07-.46l.85-.09a5.32,5.32,0,0,0-1.7-2C100.12,129.16,99.68,128.76,99.17,129.22Z"/><path class="cls-26" d="M99.17,129.22c.68-.08,1,.36,1.33.92a6.4,6.4,0,0,1,.74,1.36.45.45,0,0,1,.26-.2c0,.11,0,.21-.07.32l.85-.09a5.32,5.32,0,0,0-1.7-2C100.12,129.16,99.68,128.76,99.17,129.22Z"/><path class="cls-26" d="M109.46,129.22c-.4-.88-.83-.71-1.54-.33a7.32,7.32,0,0,0-2.56,2.62h0a.35.35,0,0,1-.14.28.68.68,0,0,1,.49.24.66.66,0,0,1-.49.22.37.37,0,0,1,.14.29c-.29-.14-.63-.17-.83-.37a.29.29,0,0,1-.11.11h0a.7.7,0,0,0,1.35.36l.07,0h0a.68.68,0,0,0,1.35-.2h0a.16.16,0,0,1,0-.07,3.83,3.83,0,0,1-.77.17.38.38,0,0,1,.18-.23.58.58,0,0,1-.39-.28.63.63,0,0,1,.47-.12.32.32,0,0,1-.08-.28,5.07,5.07,0,0,1,.64.43,2.92,2.92,0,0,1-.08-.46l-.84-.09a5.28,5.28,0,0,1,1.69-2C108.5,129.16,108.94,128.76,109.46,129.22Z"/><path class="cls-26" d="M109.46,129.22c-.68-.08-1,.36-1.34.92a6.8,6.8,0,0,0-.73,1.36.48.48,0,0,0-.26-.2c0,.11,0,.21.06.32l-.84-.09a5.28,5.28,0,0,1,1.69-2C108.5,129.16,108.94,128.76,109.46,129.22Z"/><path class="cls-25" d="M105.88,132.23c-.08,0-.15.1-.16.21s.06.22.15.22.16-.09.16-.21S106,132.23,105.88,132.23Z"/><path class="cls-25" d="M102.74,132.23c.09,0,.16.1.17.21s-.07.22-.15.22-.16-.09-.17-.21S102.66,132.23,102.74,132.23Z"/><rect class="cls-19" x="97.32" y="135.8" width="13.88" height="3.66"/><path class="cls-20" d="M98.9,140.36h10.71a.45.45,0,0,0,.45-.44h0a.45.45,0,0,0-.45-.45H98.9a.45.45,0,0,0-.45.45h0A.45.45,0,0,0,98.9,140.36Z"/><path class="cls-20" d="M98.9,142.85h10.71a.45.45,0,0,0,.45-.45h0a.44.44,0,0,0-.45-.44H98.9a.44.44,0,0,0-.45.44h0A.45.45,0,0,0,98.9,142.85Z"/><path class="cls-20" d="M109.55,140.36a.89.89,0,0,0-.5.8h0a.89.89,0,0,0,.5.8H99a.89.89,0,0,0,.5-.8h0a.89.89,0,0,0-.5-.8Z"/><rect class="cls-21" x="99.19" y="143.26" width="7.52" height="49.33"/><rect class="cls-21" x="106.72" y="143.26" width="1" height="49.33"/><rect class="cls-21" x="107.72" y="143.26" width="1.6" height="49.33"/><path class="cls-22" d="M94.63,200.26c1.59,0,3.18-1.12,4.77-1.12s3.28,1.12,4.91,1.12,3.28-1.12,4.91-1.12,3.18,1.12,4.77,1.12v1.44c-1.59,0-3.17-1.12-4.77-1.12s-3.27,1.12-4.91,1.12-3.27-1.12-4.91-1.12-3.18,1.12-4.77,1.12Z"/><path class="cls-23" d="M94.63,201.7c1.59,0,3.18-1.12,4.77-1.12s3.28,1.12,4.91,1.12,3.28-1.12,4.91-1.12,3.18,1.12,4.77,1.12v1.44c-1.59,0-3.17-1.12-4.77-1.12s-3.27,1.12-4.91,1.12S101,202,99.4,202s-3.18,1.12-4.77,1.12Z"/><path class="cls-22" d="M94.63,203.14c1.59,0,3.18-1.12,4.77-1.12s3.28,1.12,4.91,1.12,3.28-1.12,4.91-1.12,3.18,1.12,4.77,1.12v1.44c-1.59,0-3.17-1.12-4.77-1.12s-3.27,1.12-4.91,1.12-3.27-1.12-4.91-1.12-3.18,1.12-4.77,1.12Z"/><path class="cls-23" d="M94.63,204.58c1.59,0,3.18-1.12,4.77-1.12s3.28,1.12,4.91,1.12,3.28-1.12,4.91-1.12,3.18,1.12,4.77,1.12V206c-1.59,0-3.17-1.12-4.77-1.12S106,206,104.31,206,101,204.9,99.4,204.9,96.22,206,94.63,206Z"/><path class="cls-22" d="M94.63,206c1.59,0,3.18-1.12,4.77-1.12s3.28,1.12,4.91,1.12,3.28-1.12,4.91-1.12S112.4,206,114,206v1.55c-1.59,0-3.19-1.12-4.78-1.12s-3.27,1.12-4.9,1.12-3.26-1.12-4.89-1.12-3.19,1.12-4.79,1.12Z"/><rect class="cls-19" x="97.32" y="195.93" width="13.88" height="3.67"/><path class="cls-20" d="M98.9,193.14h10.71a.45.45,0,0,1,.45.44h0a.45.45,0,0,1-.45.45H98.9a.45.45,0,0,1-.45-.45h0A.45.45,0,0,1,98.9,193.14Z"/><path class="cls-20" d="M99,194a1.62,1.62,0,0,1-.88,1.9h12.36a1.62,1.62,0,0,1-.89-1.9Z"/><path class="cls-37" d="M119.5,135.08h61.91v54c0,10.12-7.89,15.85-19.6,18.31a52.35,52.35,0,0,1-23-.07c-11.54-2.49-19.3-8.2-19.31-18.24Z"/><path class="cls-3" d="M181.41,169.64V189.1c0,7-3.75,11.87-9.92,15a15.1,15.1,0,0,1-5.23.93h-.65a15.19,15.19,0,0,1-15.15-15.15V169.64Z"/><rect class="cls-38" x="119.5" y="135.08" width="30.96" height="34.56"/><rect class="cls-39" x="150.46" y="135.08" width="30.96" height="34.56"/><path class="cls-40" d="M143.76,204.17a8,8,0,0,1,6.92,1.94A6.05,6.05,0,0,1,143.76,204.17Z"/><path class="cls-41" d="M158.7,204.56a8.35,8.35,0,0,0-7.26,1.47C154.48,206.78,157.06,206.26,158.7,204.56Z"/><path class="cls-40" d="M150.64,204.54a5.71,5.71,0,0,1-.37,3.19l1.06-.38a8.06,8.06,0,0,0-.09-2.81h-.6Z"/><path class="cls-42" d="M152.15,199.62c1.2.26,2.08.8,2.08,2.24a3.36,3.36,0,0,1-6.58,0c0-1,.86-2.32,2-2.27a2.39,2.39,0,0,0-.64-.86,1.69,1.69,0,0,1,1.29.31,1.37,1.37,0,0,1,.73-.75,1,1,0,0,1,.56.77,2.22,2.22,0,0,1,1.07-.49A2.54,2.54,0,0,0,152.15,199.62Z"/><path class="cls-43" d="M150.94,199.69c1.52,1.63,1.16,3.13.05,4.57A3.09,3.09,0,0,1,150.94,199.69Z"/><path class="cls-3" d="M119.5,169.64V189.1c0,7,3.77,11.87,9.93,15a15.09,15.09,0,0,0,5.22.93h.66a15.18,15.18,0,0,0,15.15-15.15V169.64Z"/><path class="cls-44" d="M119.5,169.64h3.44v29.45a15.26,15.26,0,0,1-3.44-10Z"/><path class="cls-44" d="M126.38,169.64h3.44v34.64l-.39-.14a23.35,23.35,0,0,1-3.05-1.86Z"/><path class="cls-44" d="M133.26,169.64h3.44V205c-.46,0-.92.07-1.39.07h-.66a12.81,12.81,0,0,1-1.39-.07Z"/><path class="cls-44" d="M140.14,169.64h3.44v33a14.64,14.64,0,0,1-3.44,1.68Z"/><path class="cls-44" d="M147,169.64h3.44v20.28a15.07,15.07,0,0,1-3.44,9.59Z"/><rect class="cls-45" x="126.53" y="163.78" width="2.18" height="1.16"/><rect class="cls-45" x="126.53" y="161.46" width="2.18" height="1.16"/><rect class="cls-45" x="127.62" y="147.54" width="1.09" height="1.16"/><rect class="cls-45" x="128.71" y="163.78" width="2.19" height="1.16"/><rect class="cls-45" x="128.71" y="161.46" width="2.19" height="1.16"/><rect class="cls-45" x="128.71" y="159.14" width="2.19" height="1.16"/><rect class="cls-45" x="128.71" y="156.82" width="2.19" height="1.15"/><rect class="cls-45" x="128.71" y="154.5" width="2.19" height="1.16"/><rect class="cls-45" x="128.71" y="152.18" width="2.19" height="1.16"/><rect class="cls-45" x="128.71" y="149.86" width="2.19" height="1.16"/><rect class="cls-45" x="128.71" y="147.54" width="1.1" height="1.16"/><rect class="cls-45" x="129.81" y="145.21" width="1.09" height="1.16"/><polygon class="cls-44" points="130.9 142.89 130.5 142.89 130.5 143.38 129.8 143.38 129.8 142.89 128.72 142.89 128.72 144.05 130.9 144.05 133.08 144.05 133.08 142.89 132 142.89 132 143.38 131.31 143.38 131.31 142.89 130.9 142.89"/><rect class="cls-45" x="130.9" y="163.78" width="2.18" height="1.16"/><rect class="cls-45" x="130.9" y="161.46" width="2.18" height="1.16"/><rect class="cls-45" x="130.9" y="159.14" width="2.18" height="1.16"/><rect class="cls-45" x="130.9" y="156.82" width="2.18" height="1.15"/><rect class="cls-45" x="130.9" y="154.5" width="2.18" height="1.16"/><rect class="cls-45" x="130.9" y="152.18" width="2.18" height="1.16"/><rect class="cls-45" x="130.9" y="149.86" width="2.18" height="1.16"/><rect class="cls-45" x="131.99" y="147.54" width="1.09" height="1.16"/><rect class="cls-45" x="130.9" y="145.21" width="1.09" height="1.16"/><rect class="cls-46" x="133.08" y="156.82" width="2.19" height="1.15"/><rect class="cls-46" x="133.08" y="154.5" width="2.19" height="1.16"/><rect class="cls-46" x="133.08" y="152.18" width="2.19" height="1.16"/><rect class="cls-46" x="133.08" y="149.86" width="2.19" height="1.16"/><rect class="cls-45" x="133.08" y="147.54" width="1.1" height="1.16"/><rect class="cls-45" x="134.18" y="142.89" width="2.18" height="1.16"/><rect class="cls-45" x="135.27" y="156.82" width="2.18" height="1.15"/><rect class="cls-45" x="135.27" y="154.5" width="2.18" height="1.16"/><rect class="cls-45" x="135.27" y="152.18" width="2.18" height="1.16"/><rect class="cls-45" x="135.27" y="149.86" width="2.18" height="1.16"/><rect class="cls-45" x="136.36" y="147.54" width="1.09" height="1.16"/><rect class="cls-45" x="133.08" y="140.57" width="4.37" height="1.16"/><rect class="cls-45" x="137.45" y="163.78" width="2.19" height="1.16"/><rect class="cls-45" x="137.45" y="161.46" width="2.19" height="1.16"/><rect class="cls-45" x="137.45" y="159.14" width="2.19" height="1.16"/><rect class="cls-45" x="137.45" y="156.82" width="2.19" height="1.15"/><rect class="cls-45" x="137.45" y="154.5" width="2.19" height="1.16"/><rect class="cls-45" x="137.45" y="152.18" width="2.19" height="1.16"/><rect class="cls-45" x="137.45" y="149.86" width="2.19" height="1.16"/><rect class="cls-45" x="137.45" y="147.54" width="1.09" height="1.16"/><rect class="cls-45" x="138.55" y="145.21" width="1.09" height="1.16"/><rect class="cls-45" x="139.64" y="163.78" width="2.18" height="1.16"/><rect class="cls-45" x="139.64" y="161.46" width="2.18" height="1.16"/><rect class="cls-45" x="139.64" y="159.14" width="2.18" height="1.16"/><rect class="cls-45" x="139.64" y="156.82" width="2.18" height="1.15"/><rect class="cls-45" x="139.64" y="154.5" width="2.18" height="1.16"/><rect class="cls-45" x="139.64" y="152.18" width="2.18" height="1.16"/><rect class="cls-45" x="139.64" y="149.86" width="2.18" height="1.16"/><rect class="cls-45" x="140.73" y="147.54" width="1.09" height="1.16"/><rect class="cls-45" x="139.64" y="145.21" width="1.09" height="1.16"/><polygon class="cls-44" points="139.64 142.89 140.04 142.89 140.04 143.38 140.74 143.38 140.74 142.89 141.82 142.89 141.82 144.05 139.64 144.05 137.45 144.05 137.45 142.89 138.54 142.89 138.54 143.38 139.24 143.38 139.24 142.89 139.64 142.89"/><rect class="cls-45" x="141.82" y="163.78" width="2.19" height="1.16"/><rect class="cls-45" x="141.82" y="161.46" width="2.19" height="1.16"/><rect class="cls-45" x="141.82" y="149.86" width="1.09" height="1.16"/><rect class="cls-45" x="141.82" y="147.54" width="1.09" height="1.16"/><rect class="cls-45" x="126.53" y="162.61" width="1.09" height="1.17"/><rect class="cls-45" x="126.53" y="160.3" width="1.09" height="1.16"/><rect class="cls-45" x="127.62" y="162.61" width="2.19" height="1.17"/><rect class="cls-45" x="127.62" y="160.3" width="2.19" height="1.16"/><rect class="cls-45" x="128.71" y="157.98" width="1.1" height="1.16"/><rect class="cls-45" x="128.71" y="155.66" width="1.1" height="1.16"/><rect class="cls-45" x="128.71" y="153.34" width="1.1" height="1.16"/><rect class="cls-45" x="128.71" y="151.02" width="1.1" height="1.16"/><rect class="cls-45" x="127.62" y="148.7" width="2.19" height="1.16"/><rect class="cls-45" x="127.62" y="146.37" width="2.19" height="1.17"/><rect class="cls-47" x="129.81" y="162.61" width="2.54" height="1.17"/><rect class="cls-48" x="129.81" y="160.3" width="3.27" height="1.16"/><rect class="cls-45" x="129.81" y="157.98" width="2.18" height="1.16"/><rect class="cls-45" x="129.81" y="155.66" width="2.18" height="1.16"/><rect class="cls-45" x="129.81" y="153.34" width="2.18" height="1.16"/><rect class="cls-45" x="129.81" y="151.02" width="2.18" height="1.16"/><rect class="cls-45" x="129.81" y="146.37" width="2.18" height="3.49"/><rect class="cls-45" x="128.71" y="144.05" width="4.37" height="1.16"/><rect class="cls-45" x="132" y="157.98" width="2.18" height="1.16"/><rect class="cls-45" x="132" y="155.66" width="2.18" height="1.16"/><rect class="cls-45" x="132" y="153.34" width="2.18" height="1.16"/><rect class="cls-45" x="132" y="151.02" width="2.18" height="1.16"/><rect class="cls-45" x="132" y="148.7" width="2.18" height="1.16"/><rect class="cls-45" x="132" y="146.37" width="2.18" height="1.17"/><rect class="cls-45" x="134.18" y="157.98" width="2.18" height="1.16"/><rect class="cls-45" x="134.18" y="155.66" width="2.18" height="1.16"/><rect class="cls-45" x="134.18" y="153.34" width="2.18" height="1.16"/><rect class="cls-45" x="134.18" y="151.02" width="2.18" height="1.16"/><rect class="cls-45" x="134.18" y="146.37" width="2.18" height="3.49"/><rect class="cls-45" x="134.18" y="141.73" width="1.09" height="1.16"/><rect class="cls-45" x="136.36" y="157.98" width="2.18" height="1.16"/><rect class="cls-45" x="136.36" y="155.66" width="2.18" height="1.16"/><rect class="cls-45" x="136.36" y="153.34" width="2.18" height="1.16"/><rect class="cls-45" x="136.36" y="151.02" width="2.18" height="1.16"/><rect class="cls-45" x="136.36" y="148.7" width="2.18" height="1.16"/><rect class="cls-45" x="136.36" y="146.37" width="2.18" height="1.17"/><rect class="cls-49" x="138.18" y="162.61" width="2.54" height="1.17"/><rect class="cls-48" x="137.45" y="160.3" width="3.27" height="1.16"/><rect class="cls-45" x="138.55" y="157.98" width="2.18" height="1.16"/><rect class="cls-45" x="138.55" y="155.66" width="2.18" height="1.16"/><rect class="cls-45" x="138.55" y="153.34" width="2.18" height="1.16"/><rect class="cls-45" x="138.55" y="151.02" width="2.18" height="1.16"/><rect class="cls-45" x="138.55" y="146.37" width="2.18" height="3.49"/><rect class="cls-45" x="137.45" y="144.05" width="4.37" height="1.16"/><rect class="cls-45" x="140.73" y="162.61" width="2.19" height="1.17"/><rect class="cls-45" x="140.73" y="160.3" width="2.19" height="1.16"/><rect class="cls-45" x="140.73" y="157.98" width="1.09" height="1.16"/><rect class="cls-45" x="140.73" y="155.66" width="1.09" height="1.16"/><rect class="cls-45" x="140.73" y="153.34" width="1.09" height="1.16"/><rect class="cls-45" x="140.73" y="151.02" width="1.09" height="1.16"/><rect class="cls-45" x="140.73" y="148.7" width="2.19" height="1.16"/><rect class="cls-45" x="140.73" y="146.37" width="2.19" height="1.17"/><rect class="cls-45" x="142.92" y="162.61" width="1.09" height="1.17"/><rect class="cls-45" x="142.92" y="160.3" width="1.09" height="1.16"/><path class="cls-44" d="M137.45,159.14h-4.37v5.8h4.37Z"/><rect class="cls-45" x="135.27" y="141.73" width="1.09" height="1.16"/><rect class="cls-45" x="134.18" y="144.05" width="1.09" height="1.16"/><rect class="cls-45" x="135.27" y="144.05" width="1.09" height="1.16"/><rect class="cls-45" x="134.18" y="145.21" width="2.18" height="1.16"/><polygon class="cls-44" points="133.08 140.57 137.45 140.57 137.45 139.41 136.36 139.41 136.36 139.91 135.67 139.91 135.67 139.41 134.86 139.41 134.86 139.91 134.17 139.91 134.17 139.41 133.08 139.41 133.08 140.57"/><rect class="cls-45" x="127.62" y="149.86" width="1.09" height="1.16"/><path class="cls-44" d="M132.36,164.94h5.82v-2.81a2.92,2.92,0,0,0-2.91-2.92h0a2.92,2.92,0,0,0-2.91,2.92Z"/><path class="cls-50" d="M133.37,164.94h3.8v-2.37a1.91,1.91,0,0,0-1.9-1.9h0a1.91,1.91,0,0,0-1.9,1.9Z"/><path class="cls-44" d="M134,159.06l.9,1.65a2.58,2.58,0,0,1,.39,0h0a1.92,1.92,0,0,1,.41.05l.9-1.66A4.11,4.11,0,0,0,134,159.06Z"/><path class="cls-44" d="M131.83,162.4l1.6-.28a1.77,1.77,0,0,1,.46-.85l-1.22-1.34A4,4,0,0,0,131.83,162.4Z"/><path class="cls-44" d="M138.71,162.4l-1.6-.28a1.77,1.77,0,0,0-.46-.85l1.23-1.34A4,4,0,0,1,138.71,162.4Z"/><path class="cls-50" d="M129.81,156.81h3.27v-3a1.63,1.63,0,0,0-1.63-1.63h0a1.63,1.63,0,0,0-1.64,1.63Z"/><path class="cls-50" d="M137.45,156.81h3.28v-3a1.63,1.63,0,0,0-1.64-1.63h0a1.64,1.64,0,0,0-1.64,1.63Z"/><path class="cls-51" d="M169,181.3l-.25-.23a.74.74,0,0,1,0-1l1.41-1.52a.74.74,0,0,1,1,0l.22.21,3.55-3.93a.61.61,0,0,1-.07-.17h-2.14v.34a.73.73,0,0,1-.73.73h-2.08a.72.72,0,0,1-.72-.73v-.34h-1.72a1.67,1.67,0,0,1-1,1v1.24h.35a.72.72,0,0,1,.72.73v2.08a.72.72,0,0,1-.72.72h-.35v3.55l.13,0Z"/><path class="cls-51" d="M173.25,194.52l-1.86-2.05-.21.2a.74.74,0,0,1-1,0l-1.41-1.52a.72.72,0,0,1,0-1l.25-.23-2.49-2.75h0v4.54h.35a.73.73,0,0,1,.72.74v2.08a.72.72,0,0,1-.72.72h-.35v3.44a1.69,1.69,0,0,1,.93.89c.14,0,.28,0,.41-.06a9.14,9.14,0,0,0,1.39-.36l-.2-.42a.72.72,0,0,1,.35-1l1.88-.89a.72.72,0,0,1,1,.34v0a11.69,11.69,0,0,0,1.07-1,1.6,1.6,0,0,1-.25-.86A1.78,1.78,0,0,1,173.25,194.52Z"/><path class="cls-51" d="M164.39,174.59h-1.72v.34a.73.73,0,0,1-.72.73h-2.09a.73.73,0,0,1-.72-.73v-.34H157c0,.06-.05.11-.07.17l3.55,3.93.21-.21a.74.74,0,0,1,1,.05l1.42,1.52a.72.72,0,0,1,0,1l-.25.23,2.37,2.62.14,0v-3.55H165a.73.73,0,0,1-.73-.72v-2.08a.73.73,0,0,1,.73-.73h.35v-1.24A1.64,1.64,0,0,1,164.39,174.59Z"/><path class="cls-51" d="M159.33,191.39a.73.73,0,0,1,0-1l1.42-1.52a.72.72,0,0,1,1,0l.27.26,2.46-2.71a1.22,1.22,0,0,1-.14-.28h-1.65v.35a.73.73,0,0,1-.72.73h-2.09a.73.73,0,0,1-.72-.73v-.35H157a1.61,1.61,0,0,1-1,1v1.47l.2,0a.74.74,0,0,1,.79.67l.18,2.07a.71.71,0,0,1-.66.78l-.27,0a9.2,9.2,0,0,0,.56,1.73.75.75,0,0,1,.21,0,1.74,1.74,0,0,1,.61.12l2-2.18Z"/><path class="cls-51" d="M172.24,179.47l.3.28a.73.73,0,0,1,0,1l-1.42,1.52a.72.72,0,0,1-1,0l-.27-.25-2.39,2.65s.05.11.08.17h1.65v-.35a.73.73,0,0,1,.72-.73H172a.73.73,0,0,1,.73.73v.35h2.14a1.64,1.64,0,0,1,1-1v-2.21h-.35a.73.73,0,0,1-.73-.73v-2.09a.72.72,0,0,1,.73-.71h.35v-2.65h0Z"/><path class="cls-51" d="M174.87,186.07h-2.13v.35a.73.73,0,0,1-.73.73h-2.08a.73.73,0,0,1-.72-.73v-.35h-1.65a1.83,1.83,0,0,1-.14.28l2.45,2.71.27-.25a.71.71,0,0,1,1,0l1.42,1.52a.72.72,0,0,1,0,1l-.3.29,1.88,2.06a1.51,1.51,0,0,1,.61-.12l.24,0a9.57,9.57,0,0,0,.56-1.61l-.23,0a.73.73,0,0,1-.66-.78l.19-2.07a.73.73,0,0,1,.78-.67l.23,0V187A1.63,1.63,0,0,1,174.87,186.07Z"/><path class="cls-52" d="M177.47,188.65l-.46,0V187a1.66,1.66,0,0,0,0-3.1v-2.21h.35a.73.73,0,0,0,.72-.73v-2.09a.72.72,0,0,0-.72-.71H177v-2.65a1.66,1.66,0,1,0-2.13-2.13h-2.14v-.35a.74.74,0,0,0-.73-.73h-2.08a.73.73,0,0,0-.72.73v.35h-1.72a1.65,1.65,0,0,0-3.1,0h-1.72v-.35a.74.74,0,0,0-.72-.73h-2.09a.74.74,0,0,0-.72.73v.35H157a1.65,1.65,0,1,0-2.13,2.13v2.65h-.35a.72.72,0,0,0-.73.71V181a.73.73,0,0,0,.73.73h.35v2.21a1.66,1.66,0,0,0,0,3.1v1.57l-.49,0a.73.73,0,0,0-.66.79l.18,2.07a.71.71,0,0,0,.78.65l.42,0a10.65,10.65,0,0,0,.69,2.18,1.69,1.69,0,0,0-.41,1.09,1.66,1.66,0,0,0,1.66,1.66,2.22,2.22,0,0,0,.46-.06c.18.2.36.39.56.58a9.79,9.79,0,0,0,1,.87l-.19.41a.73.73,0,0,0,.34,1l1.89.89a.72.72,0,0,0,1-.34l.1-.21a10.58,10.58,0,0,0,2.24.52,1.65,1.65,0,0,0,3.16,0,5,5,0,0,0,.54-.07,10.91,10.91,0,0,0,1.7-.45l.09.21a.73.73,0,0,0,1,.34l1.88-.89a.72.72,0,0,0,.34-1l-.27-.59a13.08,13.08,0,0,0,1.47-1.41,1.33,1.33,0,0,0,.49.08,1.65,1.65,0,0,0,1.65-1.65,1.7,1.7,0,0,0-.39-1.08,10.84,10.84,0,0,0,.71-2.08l.46,0a.73.73,0,0,0,.79-.65l.18-2.07A.74.74,0,0,0,177.47,188.65ZM156,181.73h.35a.73.73,0,0,0,.73-.73v-2.09a.72.72,0,0,0-.73-.71H156v-2.65h0l3.57,3.93-.3.29a.73.73,0,0,0,0,1l1.42,1.52a.72.72,0,0,0,1,0l.27-.25,2.39,2.65a.87.87,0,0,0-.07.17h-1.65v-.35a.73.73,0,0,0-.72-.73h-2.09a.73.73,0,0,0-.72.73v.35H157a1.66,1.66,0,0,0-1-1Zm1.62,12.13a1.74,1.74,0,0,0-.61-.12.75.75,0,0,0-.21,0,9.2,9.2,0,0,1-.56-1.73l.27,0a.71.71,0,0,0,.66-.78l-.18-2.07a.74.74,0,0,0-.79-.67l-.2,0V187a1.61,1.61,0,0,0,1-1h2.14v.35a.73.73,0,0,0,.72.73H162a.73.73,0,0,0,.72-.73v-.35h1.65a1.22,1.22,0,0,0,.14.28L162,189.06l-.27-.26a.72.72,0,0,0-1,0l-1.42,1.52a.73.73,0,0,0,0,1l.31.29Zm7.71-2.21H165a.74.74,0,0,0-.73.74v2.08a.73.73,0,0,0,.73.72h.35v3.44a1.74,1.74,0,0,0-.94.89,9.82,9.82,0,0,1-1.8-.42l.2-.42a.72.72,0,0,0-.34-1l-1.88-.89a.73.73,0,0,0-1,.34l-.09.2c-.23-.2-.45-.4-.66-.61s-.3-.31-.44-.47a1.66,1.66,0,0,0,.26-.89,1.61,1.61,0,0,0-.19-.76l2-2.17.2.19a.74.74,0,0,0,1,0l1.42-1.52a.74.74,0,0,0,0-1l-.24-.22,2.48-2.75h0Zm0-14.86H165a.73.73,0,0,0-.73.73v2.08a.73.73,0,0,0,.73.72h.35v3.55l-.14,0-2.37-2.62.25-.23a.72.72,0,0,0,0-1l-1.42-1.52a.74.74,0,0,0-1-.05l-.21.21-3.55-3.93c0-.06,0-.11.07-.17h2.14v.34a.73.73,0,0,0,.72.73H162a.73.73,0,0,0,.72-.73v-.34h1.72a1.64,1.64,0,0,0,1,1Zm1.16,3.53h.35a.72.72,0,0,0,.72-.72v-2.08a.72.72,0,0,0-.72-.73h-.35v-1.24a1.67,1.67,0,0,0,1-1h1.72v.34a.72.72,0,0,0,.72.73H172a.73.73,0,0,0,.73-.73v-.34h2.14a.61.61,0,0,0,.07.17l-3.55,3.93-.22-.21a.74.74,0,0,0-1,0L168.74,180a.74.74,0,0,0,0,1l.25.23-2.37,2.62-.13,0Zm5.73,16.87v0a.72.72,0,0,0-1-.34l-1.88.89a.72.72,0,0,0-.35,1l.2.42a9.14,9.14,0,0,1-1.39.36c-.13,0-.27,0-.41.06a1.69,1.69,0,0,0-.93-.89v-3.44h.35a.72.72,0,0,0,.72-.72v-2.08a.73.73,0,0,0-.72-.74h-.35v-4.54h0l2.49,2.75-.25.23a.72.72,0,0,0,0,1l1.41,1.52a.74.74,0,0,0,1,0l.21-.2,1.86,2.05a1.78,1.78,0,0,0-.18.77,1.6,1.6,0,0,0,.25.86A11.69,11.69,0,0,1,172.25,197.19Zm3.59-8.68-.23,0a.73.73,0,0,0-.78.67l-.19,2.07a.73.73,0,0,0,.66.78l.23,0a9.57,9.57,0,0,1-.56,1.61l-.24,0a1.51,1.51,0,0,0-.61.12l-1.88-2.06.3-.29a.72.72,0,0,0,0-1l-1.42-1.52a.71.71,0,0,0-1,0l-.27.25-2.45-2.71a1.83,1.83,0,0,0,.14-.28h1.65v.35a.73.73,0,0,0,.72.73H172a.73.73,0,0,0,.73-.73v-.35h2.13a1.63,1.63,0,0,0,1,1Zm0-10.31h-.35a.72.72,0,0,0-.73.71V181a.73.73,0,0,0,.73.73h.35v2.21a1.64,1.64,0,0,0-1,1h-2.14v-.35a.73.73,0,0,0-.73-.73h-2.08a.73.73,0,0,0-.72.73v.35h-1.65c0-.06-.05-.12-.08-.17l2.39-2.65.27.25a.72.72,0,0,0,1,0l1.42-1.52a.73.73,0,0,0,0-1l-.3-.28,3.57-3.93h0Z"/><path class="cls-53" d="M165.36,177.68h1.16v1.75h-1.16v-1.75Zm-9.91,7.15a.66.66,0,1,1-.66.66.66.66,0,0,1,.66-.66Zm21,0a.66.66,0,1,1-.67.66.67.67,0,0,1,.67-.66ZM157,194.74a.66.66,0,1,1-.66.66.65.65,0,0,1,.66-.66Zm8.9,4.79a.66.66,0,1,1-.67.66.66.66,0,0,1,.67-.66Zm8.79-4.91a.67.67,0,0,1,.66.67.66.66,0,0,1-.66.65.67.67,0,0,1-.67-.65.68.68,0,0,1,.67-.67Zm-19.28-21.28a.66.66,0,1,1-.66.66.65.65,0,0,1,.66-.66Zm10.49,0a.66.66,0,0,1,0,1.32.66.66,0,1,1,0-1.32Zm10.49,0a.66.66,0,0,1,0,1.32.66.66,0,1,1,0-1.32Zm-16.15,24.53-.5,1,1.59.76.5-1-1.59-.76Zm11.31,0,.5,1-1.59.76-.49-1,1.58-.76Zm-1.5-23.28v-1.16h1.76v1.16Zm-10.07,0v-1.16h1.76v1.16Zm-5.15,4.49H156v1.76h-1.16v-1.76ZM156,189.4l-1.16.1.16,1.75,1.15-.1L156,189.4Zm19.93,0,1.15.1-.15,1.75-1.16-.1.16-1.75Zm0-10.32H177v1.76h-1.15v-1.76Zm-5,12.69.85-.79-1.2-1.28-.85.79,1.2,1.28ZM160.19,191l.85.78,1.19-1.28-.84-.79-1.2,1.29Zm10.64-11.6.85.78-1.2,1.29-.85-.79,1.2-1.28Zm-10.64.79.85-.79,1.19,1.28-.84.79-1.2-1.28Zm9.9,5.89v-1.15h1.76v1.15Zm-10.07,0v-1.15h1.76v1.15Zm5.34,6.49h1.16v1.75h-1.16Z"/><path class="cls-54" d="M165.94,187.21a1.72,1.72,0,1,0-1.72-1.72A1.73,1.73,0,0,0,165.94,187.21Z"/><path class="cls-53" d="M157.75,140.74a1.14,1.14,0,0,1,.69,1.46,2.34,2.34,0,0,1-.47,0,4.23,4.23,0,0,1-.45-.11c.42-.52.48-.95.23-1.3Zm-3.27,1.78c.55-.59,1.12-.45,1.7-.05a5.54,5.54,0,0,1-.39.48l-.2.24c-.32-.57-.7-.78-1.11-.67Zm.1,3.16a1.14,1.14,0,0,1,.92-1.27c.05.1.11.23.18.41s.12.36.15.47c-.64-.13-1.05,0-1.25.39Zm.86,5.5c.37-.72.94-.74,1.7-.47-.06.07-.13.17-.22.3a3.07,3.07,0,0,0-.27.44c-.45-.4-.86-.48-1.21-.27Zm0,2.42c0-.8.46-1.1,1.23-1.21a1.77,1.77,0,0,0,0,.64,1.69,1.69,0,0,0,0,.23c-.6-.15-1,0-1.2.34Zm3,1.8c-.78-.14-1-.67-.94-1.42a.89.89,0,0,1,.27,0c.25.06.44.11.58.13-.26.56-.22,1,.09,1.26Zm1.66,3.17c.51-.6,1.05-.5,1.7-.09l-.06.19c-.05.15-.34.32-.49.5-.36-.55-.75-.72-1.15-.6Zm-.65,2.93c-.05-.72.34-1.05,1-1.21,0,.13.11.27.13.35a1.78,1.78,0,0,0,.08.47c-.6-.11-1,0-1.19.39Zm3,2c-.72-.21-.88-.72-.79-1.42l.12,0,.7.18a1,1,0,0,0,0,1.2Zm5.8.42c-.05-.78.41-1.11,1.16-1.25a1.14,1.14,0,0,0,0,.34,1.44,1.44,0,0,0,.07.53c-.62-.13-1,0-1.21.38Zm1.56,2.32a1.1,1.1,0,0,1-.22-1.59c.12.07.3.13.43.19a1.62,1.62,0,0,1,.35.23c-.53.38-.71.77-.56,1.17Zm2.8,0c-.76.06-1.08-.38-1.23-1.09l.16,0a.67.67,0,0,1,.53-.16l.18,0C172.19,165.63,172.33,166,172.7,166.24Z"/><path class="cls-55" d="M157.78,140.66a1.16,1.16,0,0,1,.74.73,1.83,1.83,0,0,1,0,.81h-.19a1.46,1.46,0,0,0,0-.75.84.84,0,0,0-.39-.51.85.85,0,0,1,0,.45,1.64,1.64,0,0,1-.35.68l-.19-.06a1.56,1.56,0,0,0,.36-.66.69.69,0,0,0-.1-.56l-.18-.25.28.12Zm-.51,1.54h0l0,0v0Zm-2.86.26a1.16,1.16,0,0,1,1-.42,2,2,0,0,1,.88.36l-.11.14a1.82,1.82,0,0,0-.78-.32.93.93,0,0,0-.62.18,1,1,0,0,1,.43.16,1.73,1.73,0,0,1,.49.56.5.5,0,0,0-.11.16,1.57,1.57,0,0,0-.48-.57.63.63,0,0,0-.56-.1l-.3.07.21-.22Zm1.26,1,0,0v0l0,0Zm-1.17,2.2a1.13,1.13,0,0,1,.31-1h0a1.53,1.53,0,0,1,.65-.36l.08.16a1.75,1.75,0,0,0-.61.32.92.92,0,0,0-.26.59.85.85,0,0,1,.4-.21,1.37,1.37,0,0,1,.73,0,1.45,1.45,0,0,0,.06.19,1.59,1.59,0,0,0-.75,0,.66.66,0,0,0-.45.36l-.14.27,0-.31Zm1.6-.28v0h0l0,0Zm-.74,5.73a1.13,1.13,0,0,1,.81-.66,2.1,2.1,0,0,1,1,.17,1,1,0,0,0-.13.14,1.8,1.8,0,0,0-.87-.14h0a.86.86,0,0,0-.55.35.8.8,0,0,1,.46,0h0a1.69,1.69,0,0,1,.58.34.46.46,0,0,0-.06.18,1.63,1.63,0,0,0-.57-.35h0a.64.64,0,0,0-.57.07l-.26.16.13-.28Zm0,2.46a1.08,1.08,0,0,1,.39-1,2.14,2.14,0,0,1,1.06-.35h.08v0c-.18,0-.23,0-.25.18a1.68,1.68,0,0,0-.79.29.81.81,0,0,0-.31.57.94.94,0,0,1,.41-.21,1.62,1.62,0,0,1,.68,0,.9.9,0,0,0,0,.18,1.59,1.59,0,0,0-.67,0,.66.66,0,0,0-.46.33l-.16.27v-.31Zm3.11,1.88a1.07,1.07,0,0,1-.87-.58h0a2,2,0,0,1-.15-.92h.18a1.84,1.84,0,0,0,.13.85h0a.88.88,0,0,0,.49.41.9.9,0,0,1-.11-.44,1.64,1.64,0,0,1,.18-.68l.17,0a1.53,1.53,0,0,0-.17.65.69.69,0,0,0,.22.53l.23.2-.3-.05Zm1.61,3a1.1,1.1,0,0,1,.93-.45,1.89,1.89,0,0,1,.86.33c0,.05,0,.11,0,.18a1.69,1.69,0,0,0-.82-.33.76.76,0,0,0-.6.21.76.76,0,0,1,.43.12,1.55,1.55,0,0,1,.52.53l-.11.13a1.72,1.72,0,0,0-.49-.51.74.74,0,0,0-.58-.07l-.28.1.19-.24Zm-.66,3a1.1,1.1,0,0,1,.35-1,1.83,1.83,0,0,1,.69-.31,1.42,1.42,0,0,0,.05.16,1.43,1.43,0,0,0-.62.29.79.79,0,0,0-.29.57,1,1,0,0,1,.4-.22,1.64,1.64,0,0,1,.66,0,1.38,1.38,0,0,0,.08.2,1.42,1.42,0,0,0-.7,0,.69.69,0,0,0-.46.35l-.14.27,0-.3Zm3.08,2a1.1,1.1,0,0,1-.8-.66h0a1.88,1.88,0,0,1-.05-.9.39.39,0,0,0,.17.09,1.52,1.52,0,0,0,0,.75h0a.82.82,0,0,0,.44.46.77.77,0,0,1-.07-.45,1.73,1.73,0,0,1,.21-.6l.18,0a1.65,1.65,0,0,0-.21.58.65.65,0,0,0,.17.55l.2.23-.29-.09Zm5.73.35a1.07,1.07,0,0,1,.36-1,1.85,1.85,0,0,1,.93-.38.43.43,0,0,0-.06.19,1.71,1.71,0,0,0-.76.32.8.8,0,0,0-.28.57.82.82,0,0,1,.39-.21,1.47,1.47,0,0,1,.69,0,.84.84,0,0,0,.08.19,1.64,1.64,0,0,0-.72,0,.69.69,0,0,0-.46.35l-.15.27,0-.3Zm1.59,2.39a1.1,1.1,0,0,1-.49-.92,1.84,1.84,0,0,1,.26-.79.53.53,0,0,0,.15.08,1.68,1.68,0,0,0-.23.71.79.79,0,0,0,.23.59.9.9,0,0,1,.11-.44,1.64,1.64,0,0,1,.52-.54l.14.12a1.59,1.59,0,0,0-.5.51.66.66,0,0,0-.05.58l.09.28-.23-.18Zm.93-1.35Zm1.94,1.4a1.08,1.08,0,0,1-1-.36,1.67,1.67,0,0,1-.34-.82h.17a1.65,1.65,0,0,0,.3.72.88.88,0,0,0,.58.29,1,1,0,0,1-.22-.41,1.82,1.82,0,0,1,0-.76l.18,0a1.55,1.55,0,0,0,0,.7.65.65,0,0,0,.35.47l.27.14Z"/><path class="cls-56" d="M164.71,142.27l-.05.53.41-.37a1.14,1.14,0,0,1-.36-.16Zm.5.2.1.5.43-.42C165.59,142.51,165.4,142.51,165.21,142.47Z"/><path class="cls-56" d="M164.4,144.36l.19-.45.24.3.3-.31.26.38a6.55,6.55,0,0,1-.69.05Z"/><path class="cls-57" d="M161.81,158.67c.09-.26.09-.53.34-.31s0,.63.4.88a1.64,1.64,0,0,0,1.19.52c.53,0,.87.22.84-.22a2.64,2.64,0,0,1,.14-1.43,2.05,2.05,0,0,0-.76.91,3.91,3.91,0,0,0-.1-1.83,8,8,0,0,0-.25,1.36c-.25-.31-.47-.51-.39-.78a10.7,10.7,0,0,0,.16-1.18c0-.23-.12-.32.25-.64s.32-.75.89-.71a13.65,13.65,0,0,0,3-.22c.61.36,1.1.75,1.21,1.25a2.63,2.63,0,0,1-.29,1.46,6.14,6.14,0,0,1-1.58.13s-.59-.06-.62.45a7.06,7.06,0,0,0,.14,1.45c.11.68.51,1.09.17,1.72-.52,1-4.21-.84-3.64.35.16.32,0,.45-.17.45a6.29,6.29,0,0,1-.88-.2c-.24-.06-.34-.2-.16-.43s.45-.53.13-.58-.38,0-.52.1-.36.41-.52.13a1.42,1.42,0,0,1-.17-.66c0-.2-.36-.7,0-.66s.81.28.9.08a.4.4,0,0,0-.19-.53C160.88,159.29,161.72,158.93,161.81,158.67Z"/><path class="cls-57" d="M164,152.1a5.07,5.07,0,0,0,1,1.35c1.15,1.12,3.48,1.66,3.73,2.82.33,1.56-2.39,3.25.85,5.39-.45-1-.44-1.3-.18-1.83a2.08,2.08,0,0,0,1,1.87,5,5,0,0,1-.25-2,2.47,2.47,0,0,0,.62,1.35c1,1.13.23,1.71-.91,1.46-.3-.06-.36.12-.34.51s0,.76.36.73.47-.26.57-.08,0,.19-.27.37c-1.09.56-.37.64,0,.81.75.38.46.78.74-.16.1-.33.21-.48.28.25,0,.26.07.3.5.24a.67.67,0,0,1,.53-.16c1.11.14.25,0,.18-1.1a4.27,4.27,0,0,1,1-2.65c1.13-1-1.52-1.38-1.66-3.08-.17-2.1,1.28-1.75,2.6-2.39a2.24,2.24,0,0,0,1.2-1.55c.48-1.87-1-4-1.26-6a8.76,8.76,0,0,1-.11-1.19c.17-1.33,1.06-1.15,1.8-2.62a3.61,3.61,0,0,1,1.24-1.67,1.55,1.55,0,0,0-1.45.17c.54-1,1.55-.66,1.62-2.89-.73.92-1.87.64-2,2.87a8,8,0,0,0-.58-2.66c-.83,4.59-2,6-.65,10.58.44,1.54.72,3.23-.71,3.93a2.31,2.31,0,0,1-2.26-.19c-1.71-1-2.9-5.35-3.36-6.14-3.62-1-5.69-1.6-8.67-3.55-.67-.44-1.24-.94-.79-1.81.12-.21.21-.37.28-.47.28-.45.1-.23-.58-.36-.9-.18-.63-.46-.74,1-1-1.12-.78-.93-1.44-.2s0,.27.75,1.18l-.45.05c-.9.06-.67-.07-.41.64.4,1.09,0,.68.75.45.36-.09.52.2.89.54a7,7,0,0,0,1.76,1c-1.09-.13-2.12-.16-2.34.27,1.1-.16.91.52,2.07.27a3,3,0,0,1-.89.64c2,.38,1.72.61,3.05,1.48C162.54,150.47,162.77,149.74,164,152.1Z"/><path class="cls-57" d="M164.05,147.85a15.6,15.6,0,0,0-1.87,1c-1.13.85-2,2-3.52,2.31s-1-1.27-1.74-.18c-.54.78-.34.55.63,1.24-1,.1-.88-.11-.89.78s.05.51.93.28c-.58,1-.42.55.25.7s.95.25.92-.11c-.16-1.73-.1-.36,1.1-1.12a1.83,1.83,0,0,0,.71-.91,2.61,2.61,0,0,1-.36,1.65,3.19,3.19,0,0,0,1.64-2.39,5.08,5.08,0,0,1,0,2.16c.63-1.13,1-1.59,1.45-1.8a11,11,0,0,0,1.5-.81c.83-.55,1.85-1.08,1.54-2.27C165.56,148.23,164.8,148.05,164.05,147.85Z"/><path class="cls-57" d="M160.94,147.4a1.13,1.13,0,0,1,.54-.81,3.17,3.17,0,0,1,2-.44c.43,0,1.38.08,1.39-.58,0-.17-.12-.33-.4-.54-.56-.43-.47-.67.23-.7s1.31-.05,1.45-.67a1.2,1.2,0,0,0,0-.88c-.3-.48-1.2,0-1.7-.85-.36-.61-.16-.85.22-.94a4.71,4.71,0,0,1,.85-.09,2.86,2.86,0,0,0,.77-.09c.3-.16.1-.34.51-.56a1.75,1.75,0,0,1,1-.2c.22.12.44.24.65.38a9,9,0,0,1,1.7,1.36c.18.19.36.38.52.58s.07.27.1.41a3.56,3.56,0,0,1,.06.44,4.5,4.5,0,0,0,.33,2.15,3.57,3.57,0,0,0-.9-.55c0,1.37.58,1.23,1,2.25a2.35,2.35,0,0,1,.18.94,2.19,2.19,0,0,0-1.36-1,1.78,1.78,0,0,1,.24,1.81,2.7,2.7,0,0,0-1.14-1.13,4.14,4.14,0,0,1,.16,2.67c-.39-.86-.85-.65-1.6-2.32.33,1.88-.34,1.76-.51,2.63-.21-.82-.72-1.07-.59-2.46-.54,1.28-.86,2.05-1.44,2,.13-.65-.31-.95.09-2.08-.9,1.17-1.43,1.15-2.56,1.58.88-.82,0-1.77,1-2.67C162.65,147.54,161.91,147,160.94,147.4Z"/><path class="cls-56" d="M166.73,140.77a1.7,1.7,0,0,1,1.43.86,2.39,2.39,0,0,0-.66-.21c-.13,0-.38.06-.44,0S167.12,141.2,166.73,140.77Z"/><path class="cls-58" d="M166.21,143.19a3.38,3.38,0,0,1-2.6-.52c-.87-.67-1.25-1.49-3-.81.94.33,1.38,1.16,1.9,1.57s2.38.33,3.6.32a.29.29,0,0,0,0-.09A1.56,1.56,0,0,0,166.21,143.19Z"/><path class="cls-25" d="M171.65,140.82a.37.37,0,0,1-.12.25.21.21,0,0,1,.16.07c-.14,0-.26.1-.37.12a2.69,2.69,0,0,1,.34.17s-.09.06-.14,0a.3.3,0,0,1,.06.23.25.25,0,0,1-.21-.1.18.18,0,0,1-.06.14,2,2,0,0,1-.11-.38.11.11,0,0,0,.09,0s0,0,0-.05h0a.14.14,0,0,0,0-.15.13.13,0,0,0-.12,0h0a.14.14,0,0,0-.09,0l0,.05c-.11,0-.21-.13-.35-.17a.2.2,0,0,1,.14,0,.32.32,0,0,1-.06-.23.28.28,0,0,1,.22.1.13.13,0,0,1,0-.13,2.07,2.07,0,0,1,.11.36c0-.11.14-.21.19-.34a.21.21,0,0,1,0,.17.36.36,0,0,1,.27-.08Zm-4.13-1.29,0,0a.38.38,0,0,1-.07.38,6.37,6.37,0,0,1,.92.5,9,9,0,0,1,1.7,1.36,6.2,6.2,0,0,1,.68.79.43.43,0,0,1,.36-.15l0,0s.07,0,.11,0,.05-.08,0-.11a8.11,8.11,0,0,0-.78-.92l-.57-.55a.37.37,0,0,0,.34.1.48.48,0,0,0,.56.48.46.46,0,0,0,.39.58c-.13.34.33.47.66.37,0,0,0-.07,0-.1h-.29c-.26,0-.39-.16-.24-.35h0a.12.12,0,0,0,.11,0,.1.1,0,0,0,0-.13s-.08,0-.13,0a.1.1,0,0,0-.05.08h0c-.38.07-.6-.36-.26-.58l0,0a.16.16,0,0,1-.06-.12.33.33,0,0,1-.57-.34.12.12,0,0,0,.11,0c0-.05,0-.11,0-.14s-.09,0-.13,0a.13.13,0,0,0,0,.1h0a.35.35,0,0,1-.4-.57l-.06,0s0,0-.05-.06a.34.34,0,0,1-.63-.27.14.14,0,0,0,.1-.06s0-.1,0-.12a.1.1,0,0,0-.13,0,.08.08,0,0,0,0,.11h0a.33.33,0,0,1-.46-.48.14.14,0,0,1-.12,0l0,0a.32.32,0,0,1-.62-.13s.05,0,.07-.07,0-.11,0-.12a.09.09,0,0,0-.12.06.1.1,0,0,0,0,.12h0c-.16.18-.31.09-.39-.17a1.54,1.54,0,0,1-.07-.27.08.08,0,0,1-.09.05c0,.35.2.77.5.56a.47.47,0,0,0,.65.27.49.49,0,0,0,.59.44.43.43,0,0,0,.17.31l-.66-.44a6.78,6.78,0,0,0-1.06-.56.07.07,0,0,0-.1,0,.08.08,0,0,0,0,.1Zm1.81.88a.56.56,0,0,0,.43.09.52.52,0,0,0,.17.4,7.11,7.11,0,0,0-.6-.49Zm1.15-.82a.4.4,0,0,1-.08.31.19.19,0,0,1,.19,0c-.14.06-.25.17-.38.22a2.52,2.52,0,0,1,.41.11.16.16,0,0,1-.14.06.35.35,0,0,1,.11.24.32.32,0,0,1-.26-.06.16.16,0,0,1,0,.16c-.07-.15-.19-.27-.21-.4a.12.12,0,0,0,.07-.05.11.11,0,0,0,0-.06h0a.13.13,0,0,0-.05-.14.15.15,0,0,0-.13,0h0s0,0-.06.05a.09.09,0,0,0,0,.07c-.13,0-.27-.09-.43-.12a.18.18,0,0,1,.14-.06.41.41,0,0,1-.11-.25.45.45,0,0,1,.26.07.16.16,0,0,1,0-.15,3.42,3.42,0,0,1,.2.36c0-.12.1-.25.13-.41a.23.23,0,0,1,.08.17.47.47,0,0,1,.28-.14Zm-2.47-.74a.26.26,0,0,1-.23,0,.2.2,0,0,1,0,.15c-.1-.12-.25-.18-.3-.3v-.06c.11-.11.28,0,.45-.07a.15.15,0,0,1-.1.09.35.35,0,0,1,.17.17Zm-.53-.22c.13-.13.22-.26.13-.4l-.06.06c-.05-.24-.22-.28-.37-.14a.36.36,0,0,1,.18.42h.07s0,0,0,.06Zm1.55.09a.39.39,0,0,1,0,.28.15.15,0,0,1,.16,0c-.11.07-.19.19-.29.25a2.75,2.75,0,0,1,.38,0,.16.16,0,0,1-.12.09.33.33,0,0,1,.15.18.36.36,0,0,1-.25,0,.14.14,0,0,1,0,.14c-.08-.11-.2-.19-.23-.31s0,0,0,0a.12.12,0,0,0,0-.1h0a.11.11,0,0,0,0-.1.14.14,0,0,0-.16,0l0,0a.2.2,0,0,0,0,.11c-.11,0-.25,0-.38,0a.12.12,0,0,1,.11-.07.34.34,0,0,1-.14-.2.31.31,0,0,1,.23,0,.17.17,0,0,1,0-.14c.07.11.19.19.23.29,0-.11.05-.24.05-.38a.21.21,0,0,1,.1.14.37.37,0,0,1,.22-.17Zm2.71,3.12a.34.34,0,0,1,.2.13.17.17,0,0,1,.07-.12c0,.17.12.32,0,.46H172c-.13,0-.22-.15-.36-.22a.2.2,0,0,1,.14,0,.3.3,0,0,1,0-.23Zm.34.47.06,0a.07.07,0,0,1,0,.06.36.36,0,0,1,.44.1c.1-.17,0-.34-.21-.34,0,0,0,0,0-.07C172.28,142,172.17,142.15,172.08,142.31Z"/><path class="cls-59" d="M172.14,142.35a.14.14,0,0,0-.18,0,.08.08,0,0,0,0,.12.15.15,0,0,0,.18,0A.09.09,0,0,0,172.14,142.35Z"/><path class="cls-26" d="M171.27,141.11a.15.15,0,0,0-.21,0,.15.15,0,0,0,0,.2.14.14,0,1,0,.18-.22Z"/><path class="cls-27" d="M167.43,138.57s.07.1.06.17-.07.09-.12.06a.14.14,0,0,1-.06-.16C167.33,138.58,167.38,138.54,167.43,138.57Z"/><path class="cls-26" d="M168.83,139.15a.14.14,0,0,1,0,.2.13.13,0,0,1-.19,0,.13.13,0,0,1,0-.2A.14.14,0,0,1,168.83,139.15Z"/><path class="cls-25" d="M170.13,140a.14.14,0,0,1,0,.2.14.14,0,0,1-.2,0,.16.16,0,0,1,0-.2A.14.14,0,0,1,170.13,140Z"/><path class="cls-56" d="M168.39,140.1l.28.19a.06.06,0,0,1,0,.1h0a.08.08,0,0,1-.1,0l-.28-.19a.08.08,0,0,1,0-.1h0A.08.08,0,0,1,168.39,140.1Z"/><path class="cls-56" d="M169,140.51a.06.06,0,0,1,0,.09.09.09,0,0,1-.11,0,.08.08,0,0,1,0-.1A.07.07,0,0,1,169,140.51Z"/><path class="cls-56" d="M168,139.91a.06.06,0,0,1,0,.09.06.06,0,0,1-.1,0,.07.07,0,0,1,0-.1A.07.07,0,0,1,168,139.91Z"/><polygon class="cls-56" points="167.46 139.7 167.58 139.67 167.75 139.83 167.55 139.84 167.46 139.7"/><path class="cls-56" d="M169.65,141l-.19-.15-.18-.15a.08.08,0,0,0-.1,0h0a.08.08,0,0,0,0,.11l.18.15.18.14a.09.09,0,0,0,.11,0h0A.08.08,0,0,0,169.65,141Z"/><path class="cls-56" d="M170.44,141.74l-.24-.23a.08.08,0,0,0-.11,0h0a.08.08,0,0,0,0,.11l.25.23a.08.08,0,0,0,.1,0h0A.07.07,0,0,0,170.44,141.74Z"/><path class="cls-56" d="M169.91,141.24a.06.06,0,0,0-.1,0,.08.08,0,0,0,0,.1.07.07,0,0,0,.09-.11Z"/><path class="cls-56" d="M170.7,142a.07.07,0,0,0-.1,0,.08.08,0,0,0,0,.1.07.07,0,0,0,.09,0A.06.06,0,0,0,170.7,142Z"/><polygon class="cls-56" points="171.03 142.57 171.03 142.44 170.84 142.31 170.88 142.5 171.03 142.57"/><path class="cls-56" d="M164.36,141.85a.84.84,0,0,1-.13-.54C164.82,141.35,165,141.62,164.36,141.85Z"/><path class="cls-60" d="M150.46,180.77c5.55,0,10.09-5,10.09-11.22s-4.54-11.23-10.09-11.23-10.09,5-10.09,11.23S144.9,180.77,150.46,180.77Z"/><path class="cls-50" d="M150.46,177.82c3.93,0,7.14-3.71,7.14-8.27s-3.21-8.28-7.14-8.28-7.14,3.72-7.14,8.28S146.53,177.82,150.46,177.82Z"/><path class="cls-44" d="M153.76,163.81c-.71.67-1.14,1.58-.41,3.45-.84-1.32-2.58-.39-1.42,1.21,1-.82,1.9.16.65,2.22l.69-.35.49.6c.16-.2.31-.41.48-.6l.69.35c-1.25-2.06-.33-3,.66-2.22,1.15-1.6-.59-2.53-1.43-1.21C154.89,165.39,154.46,164.48,153.76,163.81Z"/><rect class="cls-45" x="152.39" y="168.96" width="2.73" height="0.67"/><path class="cls-44" d="M147.16,163.81c-.7.67-1.14,1.58-.4,3.45-.84-1.32-2.58-.39-1.43,1.21,1-.82,1.91.16.66,2.22l.69-.35c.17.19.32.4.48.6.17-.2.32-.41.49-.6l.69.35c-1.25-2.06-.33-3,.65-2.22,1.16-1.6-.58-2.53-1.42-1.21C148.3,165.39,147.87,164.48,147.16,163.81Z"/><rect class="cls-45" x="145.8" y="168.96" width="2.73" height="0.67"/><path class="cls-44" d="M150.46,169.43c-.71.69-1.14,1.59-.41,3.46-.83-1.33-2.57-.38-1.42,1.21,1-.82,1.9.16.66,2.21L150,176l.48.61.48-.61.69.35c-1.25-2.05-.33-3,.66-2.21,1.16-1.59-.59-2.54-1.42-1.21C151.6,171,151.17,170.12,150.46,169.43Z"/><rect class="cls-45" x="149.1" y="174.59" width="2.73" height="0.67"/><path class="cls-3" d="M119.5,155.72v6.17c-8.09-3.92-25.49-.63-24.9,4.16l-2.31-5.13c-.2-2.81,5.57-4.62,7.82-5.28A34.3,34.3,0,0,1,119.5,155.72Z"/><path class="cls-3" d="M113.36,165.59c.19,1.44.39,2.87.57,4.32s.07,1.28-1,2.31c-6.05,5.63-18,6.9-18.67,10.32-.35-1.8-.7-3.59-1-5.4C95.9,173.37,110,171.29,113.36,165.59Z"/><path class="cls-3" d="M96.37,180.38c2.44,2.17,1.54,4.8-.64,6.4,2.58-2.32-1.33-3.34-1.5-4.24C94.39,181.73,95.17,181,96.37,180.38Z"/><path class="cls-52" d="M99.45,161.09l-.51.16-.25.12-.24.11L97,157.73l1.63-.63a2.12,2.12,0,0,1,1.15-.17.84.84,0,0,1,.63.55,1.23,1.23,0,0,1,.07.64,1.08,1.08,0,0,1-.27.53,3,3,0,0,1-.58.42l-.39.19c-.13.07-.28.12-.45.19l.64,1.64Zm-.75-1.94L99,159a.69.69,0,0,0,.17-.1.71.71,0,0,0,.35-.44.88.88,0,0,0,0-.53.84.84,0,0,0-.37-.45.56.56,0,0,0-.52,0l-.41.15Z"/><path class="cls-52" d="M103.46,159.51l.38-.09.39-.09.38-.1.43-.13v.25a2.18,2.18,0,0,0,.09.24l-2.64.56-.81-3.9a1.57,1.57,0,0,1,.27-.05l.26,0,.26-.07.25-.06Z"/><path class="cls-52" d="M107.87,159.47l-.3.05-.63-1.18c-.24-.41-.48-.85-.74-1.29l-.81-1.39H106l.32-.05.3,0c.09.2.19.4.3.62l.14.29c.07.13.13.23.16.3l.45.82.42.77c.48-1.15.85-2.14,1.12-3h.33l.31,0c-.24.55-.45,1.05-.62,1.46l-.42,1c-.21.5-.42,1.06-.64,1.68Z"/><path class="cls-52" d="M113.65,156.41a.83.83,0,0,0-.75-.6q-.78-.09-.84.48a.41.41,0,0,0,.16.4c.12.09.37.24.74.46a2.76,2.76,0,0,1,.82.62.89.89,0,0,1,.2.74,1,1,0,0,1-.31.62,1.6,1.6,0,0,1-.72.38,2.91,2.91,0,0,1-1,.06,2.61,2.61,0,0,1-1.11-.38,5.38,5.38,0,0,0,.29-.72h.13a.78.78,0,0,0,.3.51,1,1,0,0,0,.61.24,1.08,1.08,0,0,0,.6-.08.51.51,0,0,0,.3-.42.49.49,0,0,0-.18-.47,4.83,4.83,0,0,0-.73-.44,2.58,2.58,0,0,1-.78-.57.93.93,0,0,1-.19-.75,1.24,1.24,0,0,1,.15-.47,1.2,1.2,0,0,1,.36-.35,1.68,1.68,0,0,1,.56-.2,3.18,3.18,0,0,1,.7,0,2.55,2.55,0,0,1,.66.17,1.29,1.29,0,0,1,.42.24L114,156c-.08.14-.15.27-.2.38Z"/><path class="cls-3" d="M181.41,155.72v6.17c8.1-3.92,25.5-.63,24.9,4.16.78-1.71,1.55-3.41,2.32-5.13.2-2.81-5.57-4.62-7.82-5.28A34.34,34.34,0,0,0,181.41,155.72Z"/><path class="cls-3" d="M187.56,165.59l-.57,4.32c-.19,1.39-.08,1.28,1,2.31,6,5.63,18,6.9,18.67,10.32.35-1.8.69-3.59,1-5.4C205,173.37,191,171.29,187.56,165.59Z"/><path class="cls-3" d="M204.55,180.38c-2.44,2.17-1.54,4.8.63,6.4-2.57-2.32,1.33-3.34,1.51-4.24C206.53,181.73,205.74,181,204.55,180.38Z"/><path class="cls-52" d="M187,159.71l-.3.08-.73-1.13-.83-1.24-.92-1.31.32,0c.1,0,.2,0,.3,0l.32-.06.3-.06c.1.19.21.39.33.59a1.73,1.73,0,0,0,.18.29l.18.28.51.78.47.74c.4-1.19.69-2.2.89-3.06l.32,0,.32-.06-.51,1.5-.35,1c-.16.51-.33,1.09-.5,1.74Z"/><path class="cls-52" d="M191.09,159h.8l.39,0,.44,0,0,.25a1.93,1.93,0,0,0,0,.25l-2.69,0,0-4h.28l.25,0a1.18,1.18,0,0,1,.27,0h.26Z"/><path class="cls-52" d="M195.22,159.65l-.53-.06h-.54l.22-3.59a9.65,9.65,0,0,0-1.32,0,1.28,1.28,0,0,0,0-.25.81.81,0,0,0,0-.24l3.66.21c0,.14,0,.22,0,.25s0,.12,0,.26a12.26,12.26,0,0,0-1.27-.17Z"/><path class="cls-52" d="M197.89,156.08l1.48.31a3.55,3.55,0,0,1,1.1.34.87.87,0,0,1,.44.94.91.91,0,0,1-.42.62,1.67,1.67,0,0,1-.87.19l.24.55.35.7.31.62.2.4-.63-.16a2.26,2.26,0,0,1-.33,0l-.31-.06-.58-1.36-.16-.38-.16-.35-.05,0-.38,1.84-.52-.14-.26,0-.26,0,.81-3.93Zm.66,2.06.17,0c.62.13,1-.08,1.09-.63a.68.68,0,0,0,0-.14.85.85,0,0,0,0-.16.43.43,0,0,0-.19-.41,2.32,2.32,0,0,0-.57-.2l-.2,0Z"/><path class="cls-52" d="M202.7,160.38l-.36.26-.39.29-.29.24-.14-.1-.14-.09-.14-.07-.16-.08,3.8-2.47.22.15.24.12-.33,4.51-.51-.33-.28-.14-.27-.15c.1-.59.16-1,.18-1.31l-1.43-.83Zm1.47.44.14-1.49-1.26.83Z"/></svg>