<svg data-name="Layer 1" xmlns="http://www.w3.org/2000/svg" viewBox="0 0 476.51 314.5"><defs><style>.cls-1{fill:#073ba3;}.cls-2{fill:#fff;}.cls-3{fill:#ea0000;}</style></defs><title>Australia</title><rect class="cls-1" x="0.01" width="476.5" height="314.5"/><rect class="cls-2" x="0.01" width="237.86" height="156.61"/><polygon class="cls-3" points="238.15 63.39 132.04 63.39 132.06 0.01 107.73 0.05 107.75 63.39 0.06 63.39 0.03 94.09 107.75 94.17 108 156.55 131.88 156.55 132.04 94.17 238.15 94.17 238.15 63.39"/><polygon class="cls-1" points="98.78 0.01 98.78 47.44 26.15 0.08 98.78 0.01"/><polygon class="cls-1" points="0.01 18.74 0.01 52.53 51.15 52.53 0.01 18.74"/><polygon class="cls-3" points="0.03 0.77 0 12.36 60.83 52.3 78.41 52.3 0.03 0.77"/><polygon class="cls-1" points="139.45 0.05 139.4 47.48 211.66 0.04 139.45 0.05"/><polygon class="cls-1" points="239.43 17.88 239.43 52.59 186.9 52.57 239.43 17.88"/><polygon class="cls-1" points="139.52 162.17 138.98 110.21 219.68 162.17 139.52 162.17"/><polygon class="cls-1" points="240.1 140.97 240.1 105.32 186.9 105.12 240.1 140.97"/><polygon class="cls-3" points="238.05 156.61 238.06 145.51 176.93 105.35 159.34 105.35 238.05 156.61"/><polygon class="cls-1" points="98.66 161.39 98.36 110.21 21.25 160.6 98.66 161.39"/><polygon class="cls-1" points="0.01 138.87 0.01 105.08 51.15 105.08 0.01 138.87"/><polygon class="cls-3" points="141.83 52.51 159.03 52.51 238.05 0 220.45 0.12 141.83 52.51"/><polygon class="cls-3" points="0.18 156.61 18.18 156.66 96.51 105.58 78.58 105.58 0.18 156.61"/><polygon class="cls-2" points="310.27 121.77 313.66 108.89 317.73 122.11 328.91 117.02 321.79 127.87 333.31 133.63 320.1 134.98 322.47 147.86 313.66 138.37 304.85 148.2 307.56 134.31 293.33 133.97 306.2 127.87 297.39 117.02 310.27 121.77"/><polygon class="cls-2" points="364 53.61 367.39 40.73 371.46 53.95 382.64 48.87 375.52 59.71 387.05 65.47 373.83 66.83 376.2 79.7 367.39 70.21 358.58 80.04 361.29 66.15 347.06 65.81 359.94 59.71 351.13 48.87 364 53.61"/><polygon class="cls-2" points="417.71 116.83 421.1 103.96 425.17 117.17 436.35 112.09 429.23 122.93 440.75 128.69 427.54 130.05 429.91 142.93 421.1 133.44 412.29 143.26 415 129.37 400.77 129.03 413.65 122.93 404.84 112.09 417.71 116.83"/><polygon class="cls-2" points="363.46 250.23 366.85 237.35 370.92 250.57 382.1 245.48 374.99 256.33 386.51 262.09 373.29 263.44 375.66 276.32 366.85 266.83 358.04 276.66 360.75 262.76 346.52 262.43 359.4 256.33 350.59 245.48 363.46 250.23"/><polygon class="cls-2" points="397.71 166.12 401.1 158.67 403.81 165.78 412.28 166.46 405.84 171.54 408.21 179.68 401.1 174.93 393.3 180.02 396.01 171.54 389.24 166.46 397.71 166.12"/><polygon class="cls-2" points="119.09 225.12 125.12 202.21 132.36 225.72 152.25 216.68 139.59 235.97 160.09 246.22 136.58 248.63 140.8 271.54 125.12 254.66 109.45 272.14 114.27 247.42 88.95 246.82 111.86 235.97 96.19 216.68 119.09 225.12"/></svg>