<svg data-name="Layer 1" xmlns="http://www.w3.org/2000/svg" viewBox="0 0 2160 1440"><defs><style>.cls-1{fill:#e31e30;}.cls-2{fill:#fff;}</style></defs><title>HongKong</title><rect class="cls-1" width="2160" height="1440"/><path class="cls-2" d="M1058.47,709.53c-42.55-39.06-55.26-82.88-55.21-120.46,0-53.27,25-94.16,25.11-94.43l5.54,3.37s-.35.56-1,1.73-1.59,2.92-2.72,5.18a192.82,192.82,0,0,0-8.34,19.31c-6.06,16.4-12.12,39.23-12.11,64.84,0,37.72,13,81.38,58.57,120.54h0S1046,691.91,1046,644.42s51.22-78.23,54.94-79.62,46.1-19.09,58.21-68.92,0-69.84-8.85-84.27-36.32-74.51,29.8-111.29c0,0-228.3-16.3-243.67,221.17C936.47,521.49,926.39,645.72,1058.47,709.53Zm-16.14-277.4,19.51,18,24.87-9.91-11.12,24.33,17.09,20.38-26.57-2.83L1052,504.48l-5.48-26-25.63-6.67,23-13.08Zm20.82,302.06c-50.05,28.82-95.66,27.75-131.49,16.39-50.79-16.06-82.28-52.16-82.49-52.37l4.87-4.27s.44.5,1.36,1.48,2.3,2.39,4.12,4.15a193.66,193.66,0,0,0,15.9,13.76c13.81,10.72,33.77,23.37,58.19,31.07,36,11.31,81.51,12.15,132.58-19.57v0s-23.58,15.93-68.87,1.63-59.18-72.39-59.39-76.36-4.33-49.7-48.2-76.25-66.6-21-83-16.93-82,12.21-97.16-61.91c0,0-84.26,212.81,137.57,298.94C847.11,793.93,962.54,840.94,1063.15,734.19Zm-238-35.69-5.56-25.86-25.86-6.56,23-13.19-2-26.69,19.86,17.92L859.27,634l-10.7,24.49,17.09,20.2-26.4-2.58Zm239,169c-30.61,43.6-74.51,62.77-74.78,62.91l-2.6-5.94s.61-.26,1.81-.85,3-1.47,5.21-2.67a193.09,193.09,0,0,0,17.9-11c14.39-9.94,32.45-25.16,47.15-46.14,21.62-30.91,36.12-74.07,21.24-132.31v0s8.09,27.29-19.18,66.18-86.84,34.64-90.7,33.65-48.7-10.84-87.21,23-40.1,57.18-41.15,74.08-13,81.85-88.28,74c0,0,177.57,144.42,326.49-41.2,0,0,79.57-95.93,8.06-224C1100.49,793.55,1085.74,836.73,1064.13,867.47ZM956.07,950.86l-14,22.69-5.63-25.94-26-6.17,23.06-13.54-2.29-26.5L951.25,919l24.42-10.22-10.41,24.41,17.15,20.17ZM1098.4,714.27c57.53,5.14,94.26,32.2,117.07,62.06,32.37,42.32,37.43,89.95,37.48,90.25l-6.44.69s-.07-.65-.27-2-.5-3.28-1-5.77a192.3,192.3,0,0,0-5.13-20.39c-5.15-16.71-14.23-38.52-29.8-58.86-23-29.92-59.77-56.73-119.79-60.08h0s28.46.5,57.34,38.21,6.89,93.24,4.78,96.62-25,43.18-4.31,90.1,42.47,55.45,58.27,61.53,74.13,37.07,44,106.47c0,0,191.17-125.87,59-323.75C1309.59,789.38,1242.06,684.62,1098.4,714.27Zm155,208-13.72,23-6-26.07-26-5.79,22.83-13.91-2.4-26.36,20.14,17.28,24.4-10.29-10.3,24.37,17.41,20.22Zm-38.55-403.52s-120.23,32.87-135.2,178.79c22.22-53.31,59.08-80.2,94.43-93,50.09-18.13,97-8.62,97.34-8.58l-1.28,6.35s-.65-.13-2-.34-3.29-.51-5.8-.8a193.21,193.21,0,0,0-21-1.25c-17.48-.11-41,2-65.09,10.71-35.45,12.9-72.1,39.91-93.36,96.15v0s9-27,53.69-43.18,91,21.49,93.58,24.52,33.66,36.83,84.62,31.23,65.66-23.8,76.22-37,57.66-59.53,114.78-9.91C1505.87,672.46,1443.38,452.27,1214.89,518.75Zm100.95,111.39-13.34,23-6.39-25.95-25.86-5.65,22.54-14-2.46-26.37,20.13,17.16L1335,587.82l-10.28,24.48,17.79,20Z"/></svg>