<svg xmlns="http://www.w3.org/2000/svg" viewBox="0 0 350 201">
  <metadata><?xpacket begin="﻿"?>
<x:xmpmeta xmlns:x="adobe:ns:meta/" x:xmptk="Adobe XMP Core 5.6-c140 79.160451, 2017/05/06-01:08:21        ">
   <rdf:RDF xmlns:rdf="http://www.w3.org/1999/02/22-rdf-syntax-ns#">
      <rdf:Description rdf:about=""/>
   </rdf:RDF>
</x:xmpmeta>





















<?xpacket end="w"?></metadata>
<defs>
    <style>
      .cls-1, .cls-4 {
        fill: #fff;
      }

      .cls-2 {
        fill: #ea2d44;
      }

      .cls-3 {
        fill: #2c4291;
      }

      .cls-3, .cls-4 {
        fill-rule: evenodd;
      }
    </style>
  </defs>
  <rect class="cls-1" width="350" height="201"/>
  <rect class="cls-2" width="350" height="16.531"/>
  <rect class="cls-2" y="30.281" width="350" height="16.531"/>
  <rect class="cls-2" y="60.563" width="350" height="16.531"/>
  <rect class="cls-2" y="93.625" width="350" height="16.5"/>
  <rect class="cls-2" y="123.906" width="350" height="16.532"/>
  <rect class="cls-2" y="154.188" width="350" height="16.531"/>
  <rect class="cls-2" y="184.469" width="350" height="16.531"/>
  <path class="cls-3" d="M-1.756,0H138.795V110.137H-1.756V0Z"/>
  <path class="cls-4" d="M10.646,11.014a4.13,4.13,0,1,1-4.134,4.13A4.132,4.132,0,0,1,10.646,11.014Zm24.8,0a4.13,4.13,0,1,1-4.134,4.13A4.132,4.132,0,0,1,35.449,11.014Zm22.047,0a4.13,4.13,0,1,1-4.134,4.13A4.132,4.132,0,0,1,57.5,11.014Zm22.047,0a4.13,4.13,0,1,1-4.134,4.13A4.132,4.132,0,0,1,79.543,11.014Zm24.8,0a4.13,4.13,0,1,1-4.133,4.13A4.131,4.131,0,0,1,104.346,11.014Zm24.8,0a4.13,4.13,0,1,1-4.134,4.13A4.131,4.131,0,0,1,129.15,11.014ZM10.646,30.288a4.13,4.13,0,1,1-4.134,4.13A4.132,4.132,0,0,1,10.646,30.288Zm24.8,0a4.13,4.13,0,1,1-4.134,4.13A4.132,4.132,0,0,1,35.449,30.288Zm22.047,0a4.13,4.13,0,1,1-4.134,4.13A4.132,4.132,0,0,1,57.5,30.288Zm22.047,0a4.13,4.13,0,1,1-4.134,4.13A4.132,4.132,0,0,1,79.543,30.288Zm24.8,0a4.13,4.13,0,1,1-4.133,4.13A4.131,4.131,0,0,1,104.346,30.288Zm24.8,0a4.13,4.13,0,1,1-4.134,4.13A4.131,4.131,0,0,1,129.15,30.288ZM10.646,52.315a4.13,4.13,0,1,1-4.134,4.13A4.132,4.132,0,0,1,10.646,52.315Zm24.8,0a4.13,4.13,0,1,1-4.134,4.13A4.132,4.132,0,0,1,35.449,52.315Zm22.047,0a4.13,4.13,0,1,1-4.134,4.13A4.132,4.132,0,0,1,57.5,52.315Zm22.047,0a4.13,4.13,0,1,1-4.134,4.13A4.132,4.132,0,0,1,79.543,52.315Zm24.8,0a4.13,4.13,0,1,1-4.133,4.13A4.131,4.131,0,0,1,104.346,52.315Zm24.8,0a4.13,4.13,0,1,1-4.134,4.13A4.131,4.131,0,0,1,129.15,52.315ZM10.646,71.589a4.13,4.13,0,1,1-4.134,4.13A4.132,4.132,0,0,1,10.646,71.589Zm24.8,0a4.13,4.13,0,1,1-4.134,4.13A4.132,4.132,0,0,1,35.449,71.589Zm22.047,0a4.13,4.13,0,1,1-4.134,4.13A4.132,4.132,0,0,1,57.5,71.589Zm22.047,0a4.13,4.13,0,1,1-4.134,4.13A4.132,4.132,0,0,1,79.543,71.589Zm24.8,0a4.13,4.13,0,1,1-4.133,4.13A4.132,4.132,0,0,1,104.346,71.589Zm24.8,0a4.13,4.13,0,1,1-4.134,4.13A4.131,4.131,0,0,1,129.15,71.589ZM10.646,90.863a4.13,4.13,0,1,1-4.134,4.13A4.132,4.132,0,0,1,10.646,90.863Zm24.8,0a4.13,4.13,0,1,1-4.134,4.13A4.132,4.132,0,0,1,35.449,90.863Zm22.047,0a4.13,4.13,0,1,1-4.134,4.13A4.132,4.132,0,0,1,57.5,90.863Zm22.047,0a4.13,4.13,0,1,1-4.134,4.13A4.132,4.132,0,0,1,79.543,90.863Zm24.8,0a4.13,4.13,0,1,1-4.133,4.13A4.131,4.131,0,0,1,104.346,90.863Zm24.8,0a4.13,4.13,0,1,1-4.134,4.13A4.131,4.131,0,0,1,129.15,90.863ZM21.669,22.027a4.13,4.13,0,1,1-4.134,4.13A4.132,4.132,0,0,1,21.669,22.027Zm24.8,0a4.13,4.13,0,1,1-4.134,4.13A4.132,4.132,0,0,1,46.472,22.027Zm22.047,0a4.13,4.13,0,1,1-4.134,4.13A4.132,4.132,0,0,1,68.52,22.027Zm22.047,0a4.13,4.13,0,1,1-4.134,4.13A4.132,4.132,0,0,1,90.567,22.027Zm24.8,0a4.13,4.13,0,1,1-4.134,4.13A4.132,4.132,0,0,1,115.37,22.027ZM21.669,41.3a4.13,4.13,0,1,1-4.134,4.13A4.132,4.132,0,0,1,21.669,41.3Zm24.8,0a4.13,4.13,0,1,1-4.134,4.13A4.132,4.132,0,0,1,46.472,41.3Zm22.047,0a4.13,4.13,0,1,1-4.134,4.13A4.132,4.132,0,0,1,68.52,41.3Zm22.047,0a4.13,4.13,0,1,1-4.134,4.13A4.132,4.132,0,0,1,90.567,41.3Zm24.8,0a4.13,4.13,0,1,1-4.134,4.13A4.132,4.132,0,0,1,115.37,41.3Zm-93.7,22.027a4.13,4.13,0,1,1-4.134,4.13A4.132,4.132,0,0,1,21.669,63.329Zm24.8,0a4.13,4.13,0,1,1-4.134,4.13A4.132,4.132,0,0,1,46.472,63.329Zm22.047,0a4.13,4.13,0,1,1-4.134,4.13A4.132,4.132,0,0,1,68.52,63.329Zm22.047,0a4.13,4.13,0,1,1-4.134,4.13A4.132,4.132,0,0,1,90.567,63.329Zm24.8,0a4.13,4.13,0,1,1-4.134,4.13A4.132,4.132,0,0,1,115.37,63.329ZM21.669,82.6a4.13,4.13,0,1,1-4.134,4.13A4.132,4.132,0,0,1,21.669,82.6Zm24.8,0a4.13,4.13,0,1,1-4.134,4.13A4.132,4.132,0,0,1,46.472,82.6Zm22.047,0a4.13,4.13,0,1,1-4.134,4.13A4.132,4.132,0,0,1,68.52,82.6Zm22.047,0a4.13,4.13,0,1,1-4.134,4.13A4.132,4.132,0,0,1,90.567,82.6Zm24.8,0a4.13,4.13,0,1,1-4.134,4.13A4.132,4.132,0,0,1,115.37,82.6Z"/>
</svg>
