<?xml version="1.0" encoding="utf-8"?>
<!-- Generator: Adobe Illustrator 21.0.2, SVG Export Plug-In . SVG Version: 6.00 Build 0)  -->
<svg version="1.1" xmlns="http://www.w3.org/2000/svg" xmlns:xlink="http://www.w3.org/1999/xlink" x="0px" y="0px"
	 viewBox="0 0 438 438" style="enable-background:new 0 0 438 438;" xml:space="preserve">
<style type="text/css">
	.st0{fill:#F6F6F6;stroke:#5C6670;stroke-width:2;stroke-linejoin:round;}
	.st1{fill:#FFFFFF;}
	.st2{fill:#D1E42D;}
	.st3{fill:#FF8C00;}
	.st4{fill:#78CDD1;}
	.st5{fill:#E6FFFF;stroke:#5C6670;stroke-width:2;stroke-linejoin:round;}
	.st6{fill:#5C6670;}
	.st7{fill:#D0E2E1;}
	.st8{fill:#C7D4E2;stroke:#5C6670;stroke-width:2;}
	.st9{fill:#5C6670;stroke:#5C6670;stroke-width:2;stroke-linejoin:round;}
	.st10{fill:#78CDD1;stroke:#5C6670;stroke-width:2;}
	.st11{fill:none;stroke:#FFFFFF;stroke-width:2;stroke-linejoin:round;}
	.st12{fill:none;stroke:#5C6670;stroke-width:2;stroke-linecap:round;stroke-linejoin:round;}
	.st13{fill:none;stroke:#FFFFFF;stroke-width:2;stroke-linecap:round;stroke-linejoin:round;}
	.st14{opacity:0.2;fill:#FFFFFF;enable-background:new    ;}
</style>
<title>car-cicle</title>
<desc>Created with Sketch.</desc>
<g>
	<g transform="translate(1.000000, 1.000000)">
		<g>
		</g>
		<circle class="st0" cx="218" cy="218" r="218"/>
		<circle class="st1" cx="225" cy="16.9" r="7"/>
		<circle class="st2" cx="279.8" cy="44.4" r="3.4"/>
		<circle class="st3" cx="322.7" cy="50.3" r="5.9"/>
		<circle class="st4" cx="265.3" cy="19.7" r="2.8"/>
		<circle class="st4" cx="353.8" cy="64" r="1.6"/>
	</g>
	<g transform="translate(92.000000, 149.000000)">
		<path class="st5" d="M193.7-12.2h-90.4C72.2-2.8,43.1,12.3,17.4,32.2l31.1,78.3h169l48.2-76.8
			C252.7,5.7,224.6-12.2,193.7-12.2z"/>
		<path class="st6" d="M-18.2,63.4l-21.1,24.1c-8.4,9.3-0.7,24.2,11.8,24.2h80.3L20.4,28.4C7.4,38.5-7,51-18.2,63.4z"
			/>
		<path class="st7" d="M231.7,48.3l6.9-12.1c2.3-4.1,6.7-6.6,11.4-6.6h15.8v19.8C265.8,49.4,233.3,48.3,231.7,48.3z"
			/>
		<path class="st8" d="M265.4,35l7.2-11.5c-18.9-27.9-51.8-47.4-88-47.4h-4.1c-26.8,0.2-53.4,4.3-79,12.2l90.9-0.5
			C223.6-12.1,252.5,7.3,265.4,35z"/>
		<path class="st6" d="M265.8,33.7l-48.2,76.8h44c16.2,0,29.4-13.2,29.4-29.4c0-21-6.2-41.4-18-58.8L265.8,33.7"/>
		<path class="st6" d="M52.1,35.6l2.7-1.1c1-0.4,2.1,0.1,2.5,1.1l13.5,34c0.4,1-0.1,2.1-1.1,2.5L67,73.2
			c-1,0.4-2.1-0.1-2.5-1.1L51,38.1C50.7,37.1,51.1,36,52.1,35.6z"/>
		<path class="st7" d="M124.3,68.2l-6.2-0.7c-1.5-0.2-2.9-1-3.7-2.3c-0.8-1.3-1.1-2.9-0.6-4.3L124,27.4
			c0.7-2.4,3.1-3.9,5.6-3.6c1.4,0.2,2.6,0.9,3.5,1.9c0.9,1.1,1.2,2.5,1.1,3.8l-4,34.2c-0.2,1.4-0.9,2.6-2,3.4
			C127,68,125.7,68.4,124.3,68.2z"/>
		<path class="st7" d="M129.9,6.7l4.3,0.5c1.6,0.2,2.7,1.6,2.6,3.2l-1.1,9.3c-0.2,1.6-1.6,2.7-3.2,2.6
			l-4.3-0.5c-1.6-0.2-2.7-1.6-2.6-3.2l1.1-9.3C126.9,7.7,128.3,6.5,129.9,6.7z"/>

			<rect x="185.9" y="44.5" transform="matrix(0.7071 -0.7071 0.7071 0.7071 23.0214 153.6426)" class="st9" width="22.2" height="9"/>
		<polyline class="st9" points="218.9,23 216.2,37.3 203.5,37.3 207.1,28.8 		"/>
		<path class="st9" d="M217.1,32.1l-11.5,0.1"/>
		<path class="st9" d="M206.5,19.7c0.6-0.5,1-1.3,1-2.1c0.1-1.2-0.2-2.2-0.7-2.3l-0.8-0.1l-0.4,4.4
			C205.7,19.7,206.4,19.8,206.5,19.7z"/>

			<ellipse transform="matrix(8.628376e-02 -0.9963 0.9963 8.628376e-02 170.7575 220.9632)" class="st9" cx="205.8" cy="17.4" rx="2.2" ry="1"/>
		<path class="st9" d="M211.5,29.4h-2.2c-1.6,0-3.2-0.8-4.1-2.1c-1-1.3-1.2-3-0.7-4.6l2.4-7c0.9-2.7,3.4-4.5,6.2-4.5
			c1.9,0,3.7,0.8,5,2.3s1.8,3.4,1.5,5.3L219,23C218.4,26.6,215.2,29.3,211.5,29.4z"/>
		<path class="st9" d="M206.4,16.9h9.8"/>
		<path class="st9" d="M219,22.7c0.6-2.7,1.1-5.5,1.4-8.3c0.1-2.5-1.5-2.2-1.5-2.2c0-1.4-1-2.5-2.3-2.8
			c-2.5-0.7-6,0.7-6,0.7s-0.8-2.8-2.6-0.3c-1.1,1.3-1.3,3-0.7,4.5c1.8,2.1,5.2-0.5,5.2-0.5s0.1,1.3,1,1.5v0.2c0,0.7,0.4,1.3,1,1.6
			c0.6,0.3,1.4,0.1,1.9-0.4l0.3-0.3L219,22.7z"/>
		<path class="st9" d="M220.2,11c0,0-1-0.1-1.2,1.2c0.2-0.3,0.6-0.6,1-0.6"/>
		<path class="st9" d="M219.7,18.4c0.1,0.4,0.2,0.9,0.2,1.4c-0.1,0.7-0.5,0.5-0.5,0.5c0.2,0.2,0.3,0.5,0.1,0.8
			s-0.4,0.6-0.6,0.9"/>
		<path class="st9" d="M206.6,16.9l-2.3,3c-0.1,0.1-0.1,0.3,0,0.4s0.2,0.2,0.3,0.2h0.9"/>
		<path class="st9" d="M208.1,19.9c0.6-0.5,1-1.3,1-2.1c0.1-1.2-0.2-2.2-0.7-2.3l-0.8-0.1l-0.4,4.4
			C207.2,19.9,208,20,208.1,19.9z"/>

			<ellipse transform="matrix(8.628376e-02 -0.9963 0.9963 8.628376e-02 171.9115 222.7573)" class="st9" cx="207.4" cy="17.7" rx="2.2" ry="1"/>
		<path class="st9" d="M215.2,17.4c0.1-0.5,0.4-0.9,0.8-1.2c0.4-0.3,0.9-0.4,1.4-0.3l0.3,0.1
			c0.5,0.1,0.9,0.4,1.2,0.8s0.4,0.9,0.3,1.4l-0.5,2.2c-0.2,1-1.2,1.6-2.2,1.4l-0.3-0.1c-0.5-0.1-0.9-0.4-1.1-0.8"/>
		<path class="st9" d="M217.7,16.7c-1.1,0-2,0.8-2.1,1.9"/>
		<path class="st9" d="M204.9,35.7c0,0-3.1,1.2-8.2,7.8c-1.7,2.2-3.2,4.5-4.5,6.9l4.8,0.1l7.3-14.1L204.9,35.7z"/>
		<path class="st9" d="M216.1,17.6c0.3,0,0.6,0.2,0.8,0.4c0.2,0.2,0.3,0.5,0.2,0.8"/>

			<rect x="209.6" y="22.9" transform="matrix(0.1939 -0.981 0.981 0.1939 145.936 231.5257)" class="st9" width="8.5" height="8.1"/>
		<path class="st9" d="M203.3,36.8l-0.1-2.3c0-0.3,0.1-0.5,0.3-0.7l1.8-1.5c0.3-0.2,0.6,0,0.6,0.3l0.4,2.2
			c0,0.3-0.1,0.6-0.3,0.8l-2.1,1.6C203.6,37.5,203.3,37.3,203.3,36.8z"/>
		<path class="st9" d="M186.1,68.4h25.2l6.2-34.5c0,0-3.8-2.8-9.2,0.7s-8,5.8-10.7,9.2
			C192.7,49.7,186.1,68.4,186.1,68.4z"/>
		<path class="st9" d="M205.5,21.4c0.9,0.5,1.9,0.3,2.6-0.4"/>
		<path class="st7" d="M217.9,68.2l-6.2-0.7c-1.5-0.2-2.9-1-3.7-2.3c-0.8-1.3-1.1-2.9-0.6-4.3l10.2-33.5
			c0.7-2.4,3.1-3.9,5.6-3.6c1.4,0.2,2.6,0.9,3.5,1.9s1.2,2.5,1.1,3.8l-4,34.2c-0.2,1.4-0.9,2.6-1.9,3.5
			C220.6,68,219.3,68.4,217.9,68.2z"/>
		<path class="st7" d="M223.5,6.7l4.3,0.5c1.6,0.2,2.7,1.6,2.6,3.2l-1.1,9.3c-0.2,1.6-1.6,2.7-3.2,2.6
			l-4.3-0.5c-1.6-0.2-2.7-1.6-2.6-3.2l1.1-9.3C220.5,7.7,221.9,6.5,223.5,6.7z"/>
		<path class="st10" d="M281.3,47.1H-0.3c-6,5.5-11.7,11.3-17.2,17.3l-20.9,23.1c-3.7,4-4.6,9.9-2.4,14.9
			s7.2,8.2,12.6,8.2H4.7c0-21.5,17.4-38.9,38.9-38.9S82.5,89,82.5,110.5h105c-0.1-21.5,17.3-38.9,38.8-39s38.9,17.3,39,38.8
			C280,108.5,291,95.9,291,81.1V56.7c0-2.6-1-5-2.9-6.8C286.4,48,283.9,47,281.3,47.1z"/>
		<circle class="st9" cx="43.5" cy="109.7" r="33"/>
		<path class="st2" d="M-34.1,88h-3.2l20.9-23l-0.3,6.6C-17.3,80.8-24.9,88-34.1,88z"/>
		<circle class="st9" cx="226.2" cy="109.7" r="33"/>
		<circle class="st1" cx="43.5" cy="109.7" r="27.6"/>
		<circle class="st1" cx="226.2" cy="109.7" r="27.6"/>
		<path class="st11" d="M144.1,45.3L134,110.4"/>
		<path class="st12" d="M153.4-11.6l-9.5,58.2"/>
		<path class="st13" d="M-36.1,87.5H9.4"/>
		<path class="st13" d="M262.8,87.5h27.4"/>
		<circle class="st4" cx="43.5" cy="109.7" r="6.6"/>
		<path class="st2" d="M285.1,63.9h5.8c2.1,0,3.9,1.7,3.9,3.9v17.6c0,2.1-1.7,3.9-3.9,3.9h-5.8
			c-2.1,0-3.9-1.7-3.9-3.9V67.8C281.2,65.6,282.9,63.9,285.1,63.9z"/>
		<circle class="st4" cx="226.2" cy="109.7" r="9.8"/>
		<path class="st14" d="M191.7,11.5L133.1,70c-8.8,8.8,12.4,2,3.2,11.2L71,146.6h24.4l70.7-70.7
			c14.4-14.4-16.2-4.2-7.4-13L210,11.6L191.7,11.5z"/>
	</g>
</g>
</svg>
