<?xml version="1.0" encoding="utf-8"?>
<!-- Generator: Adobe Illustrator 19.2.0, SVG Export Plug-In . SVG Version: 6.00 Build 0)  -->
<svg version="1.1" xmlns="http://www.w3.org/2000/svg" xmlns:xlink="http://www.w3.org/1999/xlink" x="0px"
	 y="0px" viewBox="0 0 445.5 187.6" style="enable-background:new 0 0 445.5 187.6;" xml:space="preserve">
<style type="text/css">
	.st0{fill:#FFFFFF;}
	.st1{fill:#D1E42D;}
	.st2{fill:#F06263;}
	.st3{fill:#DCAA84;}
	.st4{fill:#C7D4E2;}
	.st5{fill:#FAB54C;}
	.st6{fill:#752C1B;}
	.st7{fill:#4D575E;}
	.st8{fill:#5C6670;}
	.st9{fill:#53AAAA;}
	.st10{fill:#A3B6C6;}
	.st11{fill:#78CDD1;}
	.st12{fill:#94DDDD;}
	.st13{fill:#FF8C00;}
</style>
<title>Car</title>
<path class="st0" d="M268.7,26c-13.7-3.7-84-9.7-117-7c-16.9,1.4-45.3,40.1-53.4,51.7c2.4-0.4,5-0.6,7.8-0.6c1.9,0,3.5,3.1,3.5,7
	c0,1.6-0.3,3-0.7,4.2c66.7,2.1,162.5,5.4,162.5,5.4s23.9-1.2,40.9-1.7c0.4,0,0.7,0,1.1,0C307.9,75.5,280.9,29.3,268.7,26z"/>
<g>
	<path class="st1" d="M227.6,75.7l-6.4,3.7c-0.6,0.3-1.3,0.1-1.6-0.6l-6.4-15.9c-0.3-0.7,0-1.5,0.6-1.8l6.4-3.7
		c0.6-0.3,1.3-0.1,1.6,0.6l6.4,15.9C228.4,74.6,228.2,75.4,227.6,75.7z"/>
	<path class="st0" d="M226.4,74.3l-4.7,2.9c-0.4,0.3-1,0-1.2-0.6L215,63c-0.2-0.6-0.1-1.3,0.4-1.5l4.7-2.9c0.4-0.3,1,0,1.2,0.6
		l5.4,13.6C227,73.4,226.8,74.1,226.4,74.3z"/>
	<path class="st2" d="M244.1,80.9c0,0-4.8-6.1-6-7.8c-1.2-1.7-5,0.7-4.2,2.5c0.8,1.8,5.3,10.6,5.3,10.6l3.1-1l1.7-2.4L244.1,80.9z"
		/>
	<path class="st2" d="M251.1,72.9l-0.7,1.3c0,0-8.1,6.8-9.8,9.2s-2,3.1-2,3.1l14.9,0.6l6.5-13.4L251.1,72.9z"/>
	<path class="st3" d="M253.8,46.7c-5.8-1.3-8.9,0.2-10.3,2.1c0,0-1.6,2.5-1.6,4.5s0.6,2.9,0.7,3.4s0.4,2.4-0.1,3.6s-0.9,1.7-0.9,1.7
		s0.6,0.8,1,0.9s0.8,0.2,0.8,0.2s0.9,3.9,1.4,4.8s2.1,1,3.1,0.8s6.7-2.6,8.3-5.2s3.6-7.1,3.6-7.1S259.6,48,253.8,46.7z"/>
	<path class="st4" d="M258.4,66.9l-7.9,3.6l-0.1,3.7c0,0,0.6,0.1,1,0.8s0.4,2.1,0.4,2.1s4.7-3.4,5.9-4.9S259.2,67.9,258.4,66.9z"/>
	<path class="st3" d="M257.9,67.1l-0.5-5.8c-0.4,0.8-0.8,1.5-1.2,2.2c-0.9,1.4-2.9,2.8-4.8,3.7l0.4,2.7L257.9,67.1z"/>
	<path class="st5" d="M263.1,55.5c-0.1-1.8-0.3-3.1-0.7-4.1c-0.6-2.6-2.3-5.3-6.1-6.4c-5.9-1.6-11.4,0.1-13.3,2.4
		c-1.1,1.4-0.6,3.6,1.2,4.9s1.8,1.9,4.7,2.1c2.2,0.2,4.1,2.1,5,3c0.3-0.5,0.8-0.8,1.3-0.8c1,0,1.9,1.4,1.9,3.1c0,1.1-0.3,2-0.8,2.5
		c0,0,0,0.1,0,0.1c0.1,0.6-3.4,13.7-3.4,13.7s3.1,0.9,5.6,0.3s4.4-2.8,4.4-2.8S263.6,63.4,263.1,55.5z"/>
	<circle class="st0" cx="255.4" cy="62.6" r="0.9"/>
	<path class="st3" d="M225,78.3c0,0-0.9-3.1-1.2-3.9c-0.3-0.8-1.4-2.8-1.4-2.8s-0.4-1.1-0.6-1.5c-0.2-0.4-0.5-1.2-0.5-2.3
		c0-1.1-1.3-0.9-1.8,0.3s0.1,2.2,0.3,2.5c0.2,0.3,0.2,0.5,0.2,0.9s-0.3,0.8-0.6,0.8s-2.5-0.4-2.5-0.4l-0.8-1.7c0,0-1.4,0.8-1.5,1.3
		c-0.1,0.5,0.5,1.7,0.5,1.7s-0.2,1.2-0.1,1.5c0,0.3,0.7,0.9,0.7,0.9s0,1,0.2,1.3s0.7,0.5,0.7,0.5s0.3,1,0.6,1.2c0.2,0.2,5,2,5,2
		l1.5-0.3L225,78.3z"/>
	<path class="st3" d="M234.4,75c0.4,0.7,2.6-0.3,3-1.3c0.5-1,0-2.8-0.2-3.5c-0.2-0.7-2-3.8-2.4-4.5c-0.5-0.8-0.7-1-0.8-1
		s-2.3-0.6-2.8-0.9s-1.8,0.3-2.5-0.1c-0.8-0.4-0.8,0.4-0.7,0.9c0.2,0.5,0.8,1.2,2.1,1.1c1.3-0.1,1.3-0.1,1.3-0.1l1.5,1
		c0,0-0.8,0.1-1.1,0.2c-0.3,0.1-1,0.8-1,0.8s-0.7,0-0.9,0.4c-0.2,0.3-0.5,1-0.5,1s-0.2,0.4-0.2,0.8c0.1,0.4,0.3,0.8,0.3,0.8
		s-0.2,0.7-0.2,1c0,0.2,0.2,1,0.7,1.2s2.4,0.5,2.4,0.5s0.2,0.5,0.8,0.8S234,74.3,234.4,75z"/>
	<path class="st2" d="M235.4,86.4c0,0-9.2-9-9.9-9.6s-5.4,3-4.3,4.6s4.2,5.6,4.2,5.6L235.4,86.4z"/>
	<path class="st6" d="M245.1,65c0,0,1.3-0.2,1.8-0.7s0.6-0.5,0.6-0.5s0.2,0.7-0.6,1.2s-1.1,0.3-1.4,0.3S245.1,65,245.1,65z"/>
	<path class="st7" d="M254.9,56.2l-8.3,1.6l-0.3-1.5c-0.1-0.3-0.2-0.5-0.5-0.7c-0.3-0.2-0.6-0.2-0.8-0.2l-2,0.4
		c-0.3,0.1-0.5,0.2-0.7,0.5c-0.2,0.3-0.2,0.6-0.2,0.8l0.7,3.5c0.1,0.6,0.6,1,1.2,1c0,0,0.1,0,0.1,0l2.1-0.2v0c0.3,0,0.6-0.2,0.8-0.4
		c0.2-0.2,0.2-0.5,0.2-0.8l-0.4-1.7l8.3-1.6c0.2,0,0.3-0.2,0.3-0.4C255.3,56.3,255.1,56.2,254.9,56.2z"/>
	<path class="st0" d="M246.3,60.6c0,0.1-0.1,0.1-0.2,0.1l-2.1,0.2c-0.2,0-0.5-0.2-0.5-0.4l-0.7-3.5c0-0.1,0-0.2,0.1-0.3
		c0.1-0.1,0.1-0.1,0.2-0.2l2-0.4c0,0,0.1,0,0.1,0c0.1,0,0.1,0,0.2,0.1c0.1,0.1,0.1,0.1,0.2,0.2l0.8,3.9
		C246.4,60.5,246.4,60.5,246.3,60.6z"/>
</g>
<g>
	<ellipse transform="matrix(0.8934 -0.4493 0.4493 0.8934 -17.2393 72.1602)" class="st8" cx="143.4" cy="72.4" rx="1.8" ry="4"/>
	<path class="st8" d="M142.5,74.9l-8.5,4.3c-0.8,0.4-1.7,0.1-2.1-0.7v0c-0.4-0.8-0.1-1.7,0.7-2.1l8.5-4.3c0.8-0.4,1.7-0.1,2.1,0.7
		l0,0C143.6,73.6,143.3,74.5,142.5,74.9z"/>
	<path class="st8" d="M137.5,82.1l-1.5,0.8c-1.1,0.5-2.4,0.1-2.9-1l-3.7-7.3c-0.5-1.1-0.1-2.4,1-2.9l1.5-0.8c1.1-0.5,2.4-0.1,2.9,1
		l3.7,7.3C139,80.3,138.6,81.6,137.5,82.1z"/>
	<path class="st8" d="M147.3,84.6L147.3,84.6c-1,0.5-2.2,0.1-2.7-0.9l-9.4-18.6c-0.5-1-0.1-2.2,0.9-2.7l0,0c1-0.5,2.2-0.1,2.7,0.9
		l9.4,18.6C148.7,82.9,148.3,84.1,147.3,84.6z"/>
	<path class="st8" d="M130.6,82c2.3,0.1,4.7,0.2,7.1,0.2c-1.9-4-5.9-11.8-8.8-11.2c-3.8,0.8-28.8,6.7-28.8,6.7l0.5,0.3
		C112,79.1,123.1,80.5,130.6,82z"/>
	<path class="st8" d="M119.6,73.1l6.2-32.1c-1.7,1.9-3.5,3.9-5.3,6l-5.3,27.1C116.8,73.8,118.2,73.4,119.6,73.1z"/>
</g>
<g>
	<polygon class="st7" points="268,62.2 266.8,69.7 271.3,70.3 272.9,62.9 	"/>
	<path class="st8" d="M251.5,87.7c0,0,9-17.1,9.9-18.9c0.9-1.8,14.2-1.1,14,1.1s-1.8,18.7-1.8,18.7L251.5,87.7z"/>
	<path class="st8" d="M274,66l-7.5-0.8c-1.3-0.1-2.3-1.3-2.2-2.6l0.4-10.5c0-1.3,1.1-2.5,2.4-2.7l7.6-1.3c1.3-0.2,2.3,0.6,2.3,1.9
		L276.4,64C276.4,65.2,275.3,66.2,274,66z"/>
</g>
<g>
	<polygon class="st7" points="183,58.7 181.8,66.2 186.3,66.8 187.9,59.4 	"/>
	<path class="st8" d="M166.5,84.2c0,0,9-17.1,9.9-18.9c0.9-1.8,14.2-1.1,14,1.1c-0.2,2.2-1.8,18.7-1.8,18.7L166.5,84.2z"/>
	<path class="st8" d="M189,62.5l-7.5-0.8c-1.3-0.1-2.3-1.3-2.2-2.6l0.4-10.5c0-1.3,1.1-2.5,2.4-2.7l7.6-1.3c1.3-0.2,2.3,0.6,2.3,1.9
		l-0.5,13.9C191.4,61.7,190.3,62.7,189,62.5z"/>
</g>
<path class="st9" d="M151.9,22c5.4-0.2,12-0.7,19.7-0.7c36.3,0,85.6,4.7,96.3,7.6c5.2,1.4,23.2,24.9,42,56.2c0.8,0,1.6,0,2.4-0.1
	c0.4,0,0.7,0,1.1,0c-5.4-9.5-32.4-55.7-44.7-59c-13.7-3.7-84-9.7-117-7c-16.9,1.4-45.3,40.1-53.4,51.7c1.4-0.2,2.8-0.4,4.3-0.5
	C127.7,35.3,143.7,22.3,151.9,22z"/>
<polygon class="st7" points="43,143.3 56,143.3 114.7,138 126.7,138 112.3,104 59,104.3 47,123.3 "/>
<path class="st7" d="M227.3,140h25h59.3c0,0-13.3-31-14.3-31.7c-1-0.7-12-0.7-13.3-0.7s-40,0.3-40,0.3L227.3,140z"/>
<circle class="st8" cx="86" cy="151" r="34.3"/>
<circle class="st7" cx="86" cy="151" r="27.7"/>
<circle class="st4" cx="86" cy="151" r="18.8"/>
<circle class="st10" cx="86" cy="151" r="14.7"/>
<circle class="st4" cx="86" cy="151" r="11.9"/>
<circle class="st8" cx="272" cy="151" r="34.3"/>
<circle class="st7" cx="272" cy="151" r="27.7"/>
<circle class="st4" cx="272" cy="151" r="18.8"/>
<circle class="st10" cx="272" cy="151" r="14.7"/>
<circle class="st4" cx="272" cy="151" r="11.9"/>
<path class="st10" d="M40.6,151.9c1.5,0,3.3-1.1,4-2.4l6.3-12c0.7-1.3,0-2.4-1.5-2.4H12c-2.6,0-4.7,1.9-4.7,4.1v8.5
	c0,2.3,2.1,4.1,4.7,4.1H40.6z"/>
<path class="st4" d="M333.8,111.9c2.5-0.7,5.1-4.5,6.3-9.4c0.9-3.9,0.7-7.6-0.3-9.8C338.7,97.6,336.7,104.9,333.8,111.9z"/>
<path class="st11" d="M312.2,85c-17,0.5-40.9,1.7-40.9,1.7S76.7,80,49,79.7S12.3,92,12.3,119.3c0,7.1,0.6,12.2,1.4,15.8h35.7
	c0,0,0,0,0,0c4-6.9,11.6-20,12.6-21.5c1.3-2,3-2.7,7-2.7s28.7,0,33.3,0c4.7,0,6.1,4,8,7c3,4.7,16.7,27.3,16.7,27.3h103.7
	c4.9-8.5,17.2-30.1,18.3-31.7c1.3-2,3-2.7,7-2.7s28.7,0,33.3,0c4.7,0,6.1,4,8,7c3,4.7,16.7,27.3,16.7,27.3l8-10.1
	c0,0,4-6.5,10.2-19.8s8.8-29,8.8-29S329.2,84.5,312.2,85z"/>
<path class="st4" d="M7.6,128.4c-1.8,0-3.2,1.4-3.2,3.2V147c0,1.8,1.4,3.2,3.2,3.2h0.8c-0.6-0.7-1-1.6-1-2.5v-8.5
	c0-2.3,2.1-4.1,4.7-4.1h1.7c-0.4-1.8-0.8-4.1-1-6.8H7.6z"/>
<g>
	<path class="st4" d="M13.1,87c-1.6,0-2.9,1.3-2.9,2.9v38.5h2.5c-0.2-2.6-0.4-5.6-0.4-9c0-15.2,2.8-25.9,10.1-32.3H13.1z"/>
</g>
<path class="st4" d="M34.1,97.8c-3.2,6.9-9.3,12.5-13.6,12.5s-5.2-5.6-1.9-12.5s9.3-12.5,13.6-12.5S37.3,90.8,34.1,97.8z"/>
<path class="st0" d="M31.6,97.2c-2.6,5.7-7.7,10.3-11.2,10.3s-4.3-4.6-1.6-10.3S26.5,86.9,30,86.9S34.3,91.5,31.6,97.2z"/>
<path class="st10" d="M32.1,85.2c4.3,0,5.2,5.6,1.9,12.5s-9.3,12.5-13.6,12.5c4.3,0,15.6-5.6,21.8-12.5S47.9,85.2,32.1,85.2z"/>
<ellipse class="st4" cx="19.2" cy="120.8" rx="3" ry="5.5"/>
<path class="st10" d="M19.2,115.2c1.7,0,3,2.5,3,5.5c0,3-1.3,5.5-3,5.5c1.7,0,7-2.5,7-5.5C26.2,117.7,20.9,115.2,19.2,115.2z"/>
<ellipse class="st4" cx="324.5" cy="128.5" rx="3" ry="5.5"/>
<path class="st10" d="M324.5,123c-1.7,0-3,2.5-3,5.5c0,3,1.3,5.5,3,5.5c-1.7,0-7-2.5-7-5.5C317.5,125.5,322.8,123,324.5,123z"/>
<path class="st12" d="M49,79.7c10.3,0.1,43.7,1.1,81.6,2.3c-21.3-4.2-72.2-7.7-78.7-7.7c-6.1,0-11.3,2.5-13.7,6
	C41.4,79.9,45,79.6,49,79.7z"/>
<path class="st4" d="M185,89.2c-1.6-0.2-3.2-0.2-5-0.2c-7.4,0-13.4,1.5-13.4,3.3c0,1.8,6,3.2,13.4,3.2c1.3,0,2.5,0,3.6-0.1L185,89.2
	z"/>
<path class="st4" d="M261,93.7c-1.6-0.2-3.2-0.2-5-0.2c-7.4,0-13.4,1.5-13.4,3.3c0,1.8,6,3.2,13.4,3.2c1.3,0,2.5,0,3.6-0.1L261,93.7
	z"/>
<path class="st10" d="M179.9,95.5c1.3,0,2.5,0,3.6-0.1l0.8-3.6c-1.3-0.1-2.7-0.1-4.2-0.1c-5.5,0-10.4,0.6-13.1,1.5
	C168.6,94.5,173.8,95.5,179.9,95.5z"/>
<path class="st10" d="M242.6,97c0.4,1.7,6.3,3,13.4,3c1.3,0,2.5,0,3.6-0.1l0.8-3.5c-1.9-0.1-3.8-0.2-5.9-0.2
	C250,96.2,245.8,96.5,242.6,97z"/>
<g>
	<path class="st12" d="M264.6,111c0.7,0,1.3,0,2,0l4.7-24.3c0,0-0.7,0-2-0.1L264.6,111z"/>
	<path class="st12" d="M184.9,145.3h2l11.9-61.1c-0.7,0-1.3,0-2-0.1L184.9,145.3z"/>
	<path class="st12" d="M107.5,113.6c0.6,0.7,1.1,1.5,1.6,2.4l6.7-34.4c-0.7,0-1.4,0-2-0.1L107.5,113.6z"/>
</g>
<path class="st12" d="M199.5,84.2l11.9-61.5c-1.4-0.1-2.7-0.2-4.1-0.2l-12,61.6C196.8,84.2,198.1,84.2,199.5,84.2z"/>
<path class="st9" d="M195.3,84.1l12-61.6c-1.4-0.1-2.7-0.2-4.1-0.2l-12,61.7C192.5,84,193.9,84.1,195.3,84.1z"/>
<path class="st9" d="M277.6,38l-9.4,48.6c2.1,0.1,3.2,0.1,3.2,0.1s0.3,0,1,0l8.6-44.5C279.8,40.6,278.7,39.2,277.6,38z"/>
<ellipse class="st10" cx="106.1" cy="77.1" rx="3.5" ry="7"/>
<path class="st4" d="M102.6,77.1c0-3.9,1.6-7,3.5-7c-11.2,0.2-20.6,3.3-20.6,7s9.3,6.9,20.6,7C104.1,84.2,102.6,81,102.6,77.1z"/>
<g>
	<path class="st1" d="M143.6,52.9l-0.8,1.4c5.4,2.6,9.6,7.3,11.6,13L156,67C153.9,60.8,149.4,55.7,143.6,52.9z"/>
	<path class="st1" d="M140.9,57.8l-0.8,1.4c3.9,1.8,7,5,8.6,9l1.6-0.3C148.7,63.5,145.3,59.8,140.9,57.8z"/>
	<path class="st1" d="M149.5,42.1l-0.8,1.4c8.6,4.3,15.2,12.2,17.9,21.6l1.6-0.3C165.4,54.9,158.5,46.6,149.5,42.1z"/>
	<path class="st1" d="M146.5,47.5l-0.8,1.4c7,3.5,12.4,9.7,14.8,17.3l1.6-0.3C159.7,57.8,154,51.2,146.5,47.5z"/>
</g>
<path class="st10" d="M317.6,151.9c-1.5,0-3.3-1.1-4-2.4l-6.3-12c-0.7-1.3,0-2.4,1.5-2.4h19.6c2.6,0,4.1,1.9,3.4,4.1l-2.6,8.5
	c-0.7,2.3-3.4,4.1-5.9,4.1H317.6z"/>
<path class="st4" d="M310.3,140.1h19.6c0.6,0,1.1,0.1,1.6,0.3l0.4-1.2c0.7-2.3-0.8-4.1-3.4-4.1h-19.6c-1.5,0-2.1,1.1-1.5,2.4l1.6,3
	C309.3,140.3,309.7,140.1,310.3,140.1z"/>
<path class="st4" d="M7.9,144.7c0-2.3,2.1-4.1,4.7-4.1h36.7l1.6-3.1c0.7-1.3,0-2.4-1.5-2.4H12c-2.6,0-4.7,1.9-4.7,4.1v8.5
	c0,0.7,0.2,1.3,0.5,1.8V144.7z"/>
<circle class="st0" cx="370" cy="49.3" r="7"/>
<circle class="st1" cx="334.3" cy="42.5" r="3.4"/>
<circle class="st13" cx="378.9" cy="102.5" r="5.9"/>
<circle class="st11" cx="398.5" cy="2.8" r="2.8"/>
<circle class="st11" cx="443.9" cy="116.1" r="1.6"/>
</svg>
