<?xml version="1.0" encoding="utf-8"?>
<!-- Generator: Adobe Illustrator 19.2.0, SVG Export Plug-In . SVG Version: 6.00 Build 0)  -->
<svg version="1.1" xmlns="http://www.w3.org/2000/svg" xmlns:xlink="http://www.w3.org/1999/xlink" x="0px" y="0px"
	 viewBox="0 0 2382.3 1003.1" style="enable-background:new 0 0 2382.3 1003.1;" xml:space="preserve">
<style type="text/css">
	.st0{fill:#FFFFFF;}
	.st1{fill:#EFE8E1;}
	.st2{fill:#FA7A47;}
	.st3{fill:#78CDD1;}
	.st4{fill:#D1E42D;}
	.st5{fill:#FF8C00;}
	.st6{fill:#5BA875;}
	.st7{fill:#67C187;}
	.st8{fill:#EF7565;}
	.st9{fill:#BC504D;}
	.st10{fill:#F6F6F6;}
	.st11{fill:#BABABA;}
	.st12{fill:#DBDBDB;}
	.st13{fill:#F0F0F0;}
	.st14{fill:#993737;}
	.st15{fill:#5C6670;}
	.st16{fill:#E6FFFF;}
	.st17{fill:#D16159;}
	.st18{fill:#D16159;stroke:#993737;stroke-width:0.9284;stroke-miterlimit:10;}
	.st19{fill:#D16159;stroke:#F4938C;stroke-width:0.9284;stroke-miterlimit:10;}
	.st20{opacity:0.7;fill:#FFFFFF;enable-background:new    ;}
	.st21{fill:none;stroke:#F4938C;stroke-miterlimit:10;}
	.st22{fill:#F4938C;}
	.st23{fill:#D16159;stroke:#5C6670;stroke-width:2;stroke-linejoin:round;}
	.st24{fill:#C7D4E2;}
	.st25{fill:#9BB1C4;}
	.st26{fill:#F7F70D;}
	.st27{fill:#6FA0B5;}
	.st28{fill:#508091;}
	.st29{fill:none;stroke:#E6FFFF;stroke-miterlimit:10;}
	.st30{fill:#C7D4E2;stroke:#E6FFFF;stroke-miterlimit:10;}
	.st31{fill:none;stroke:#8DDBA7;stroke-linecap:round;stroke-miterlimit:10;}
	.st32{fill:#67C187;stroke:#5BA875;stroke-miterlimit:10;}
	.st33{fill:#8DDBA7;}
	.st34{fill:#F48866;}
	.st35{fill:#D66B4D;}
	.st36{fill:#773C35;}
	.st37{fill:#55B9BF;}
	.st38{fill:#BABABA;stroke:#DBDBDB;stroke-miterlimit:10;}
</style>
<path class="st0" d="M707.5,51.4c-0.7,0-1.4,0.1-2,0.3c-0.4-1.4-0.8-2.7-1.4-4.1c-7.9-19.2-29.8-28.4-49-20.5l0,0l0,0l-0.6,0.2
	c0.2-0.1,0.4-0.2,0.6-0.3c-5.5-5-12-8.7-19.1-10.8c-25.1-7.2-51.2,7.1-58.5,32.3l-0.1,0c-4.4-6.3-11.6-10-19.2-10
	c-10.1,0-18.7,6.4-21.9,15.4c-2.3-2.7-5.7-4.5-9.5-4.4c-4.1,0.1-7.7,2.2-9.9,5.4c-1.6-1.1-3.5-1.8-5.6-1.8c-4.3,0.1-7.9,3.1-8.9,7.2
	c-1.1-1.8-3.1-3-5.3-2.9c-3.3,0.1-6,2.9-5.9,6.2c-0.1,0.6,0,1.2,0.2,1.7h11.2h0.4h12.5h4.8h15h3.2h37.1h0.1h5.5h0.1H632h38.1h0h27.4
	h6.7h13.7c0.4-1.1,0.5-2.3,0.5-3.5C718.2,56,713.3,51.2,707.5,51.4z"/>
<path class="st0" d="M2273.2,394c-0.6-4.5-4.4-8-9.2-8c-4.4-0.1-8.1,2.9-9.1,7c-1.1-7.3-7.3-12.8-14.9-12.8c-2.5,0-4.9,0.6-7,1.7
	c-4.1-5.8-10.9-9.5-18.6-9.5c-9.2,0-17.2,5.5-20.8,13.4c-3.6-8-11.7-13.6-21.1-13.6c-3.2,0-6.2,0.6-8.9,1.8
	c-7.2-11.6-20-19.4-34.7-19.4c-6.4,0-12.4,1.5-17.7,4c-12.9-23.3-37.8-39.1-66.4-39.1c-1.6,0-3.2,0.1-4.7,0.2
	c-15.8-11.8-35.4-18.9-56.7-18.9c-34.6,0-64.8,18.6-81.3,46.3c-6.6-2.9-13.8-4.4-21.4-4.3c-20.4,0.3-37.8,12.3-46,29.5
	c-4.3-2.7-9.3-4.3-14.8-4.3c-14.7,0-26.6,11.5-27.3,26H2273.2z"/>
<path class="st0" d="M1464.8,360c-0.4-4.7-4.3-8.5-9.3-8.5c-4.4-0.1-8.1,3-9.1,7.1c-1.2-7-7.2-12.3-14.5-12.5
	c-2.7-0.1-5.2,0.6-7.4,1.7c-4.1-5.6-10.6-9.3-18.1-9.5c-9.5-0.1-17.7,5.4-21.3,13.5c-3.5-8.2-11.7-14-21.2-14
	c-3.1,0-6.1,0.6-8.8,1.7c-7.2-11.7-20-19.4-34.7-19.4c-6.3,0-12.3,1.4-17.7,4c-12.9-23.3-37.7-39-66.2-39c-1.6,0-3.2,0.1-4.7,0.2
	c-15.8-11.9-35.5-19-56.8-19c-34.9,0-65.3,18.9-81.7,47c-6.2-2.7-13.1-4.2-20.3-4.2c-28.3,0-51.4,22.7-51.8,50.9H1464.8z"/>
<path class="st1" d="M2120.4,865V246.6h-173.1l-49.7,13.7V865h-65.2V442.6h-124l-35.6,9.8v153.5h-106.2l-42.6,23.8v7.2l1.8-1V780
	h-203.4V444.6h-76v-118h-124l-35.6,9.8V838H751.3V644.2h-7.7c0-10.9-1.8-21.1-5-30v-22.4h-13.3c-0.4-8.7-1.7-16.8-3.5-23.6v-20.5
	h-10.9c-0.6-0.5-1.2-0.9-1.8-1.2c0,0,0.1,0,0.1,0.1c-1-42-2.7-69.7-4.6-69.7c-1.9,0-3.7,27.8-4.6,69.7c0,0,0.1,0,0.1-0.1
	c-0.6,0.3-1.2,0.7-1.8,1.2h-10.9v20.5c-1.9,6.9-3.1,14.9-3.5,23.6h-13.3v22.4c-3.2,8.9-5,19.1-5,30h-7.7v66.5h-28.3V469.1
	L450.4,327.8l-71.9,28.4v395.4H357V582h-16.6V380.6H191.9l-42.6,11.7v101.6H40.2L0,516.4v486.7h2176V865H2120.4z"/>
<g>
	<circle class="st2" cx="1396.8" cy="628.5" r="2.8"/>
	<circle class="st3" cx="1485.8" cy="678.5" r="1.8"/>
	<circle class="st4" cx="1235" cy="870.8" r="4"/>
	<circle class="st3" cx="1273" cy="842.8" r="15"/>
	<circle class="st0" cx="1230.3" cy="832.8" r="4"/>
	<circle class="st2" cx="146" cy="628.3" r="2.8"/>
	<circle class="st0" cx="159" cy="618.3" r="2"/>
	<circle class="st3" cx="235" cy="678.3" r="1.8"/>
	<circle class="st0" cx="247" cy="658.3" r="2"/>
	<circle class="st5" cx="1269.5" cy="525.4" r="4.3"/>
	<circle class="st3" cx="1179.5" cy="745.4" r="4.3"/>
	<circle class="st4" cx="1160.2" cy="555.3" r="1.7"/>
</g>
<g>
	<path class="st6" d="M2109.9,1001.6c-0.2-0.4-0.5-0.8-0.9-1.1c0.2-0.4,0.4-0.7,0.7-0.9l1.5-0.9c1.4-0.8,1.2-2.9-0.3-3.4l-0.6-0.2
		c0-0.3,0-0.6-0.1-0.9l-0.6-1.7c-0.2-0.6-0.1-1.3,0.2-1.8l1-1.4c0.9-1.3,0-3.1-1.6-3l-1.8,0.1c-0.6,0-1.2-0.3-1.6-0.8l-1.1-1.4
		c-0.9-1.3-2.9-0.9-3.4,0.6l-0.5,1.7c-0.2,0.6-0.6,1.1-1.2,1.3l-0.9,0.3c-0.4-0.6-0.5-1.4-0.3-2.1l0.6-2.4c0.3-1.2-0.2-2.4-1.2-3
		c0.2-0.4,0.4-0.7,0.7-0.9l1.5-0.9c1.4-0.8,1.2-2.9-0.3-3.4l-1.7-0.6c-0.6-0.2-1-0.7-1.2-1.3l-0.4-1.7c-0.4-1.5-2.2-1.9-3.2-0.9
		l0.1-0.1c0.9-1.3,0-3.1-1.6-3l-1.8,0.1c-0.6,0-1.2-0.3-1.6-0.8l-1.1-1.4c-0.9-1.3-2.9-0.9-3.4,0.6l-0.5,1.7
		c-0.2,0.6-0.6,1.1-1.2,1.3l-0.9,0.3c-0.4-0.6-0.5-1.4-0.3-2.1l0.6-2.4c0.3-1.2-0.2-2.4-1.2-3c0.2-0.4,0.4-0.7,0.7-0.9l1.5-0.9
		c1.4-0.8,1.2-2.9-0.3-3.4l-1.7-0.6c-0.6-0.2-1-0.7-1.2-1.3l-0.4-1.7c-0.4-1.5-2.4-2-3.4-0.8l-1.1,1.4c-0.4,0.5-1,0.8-1.6,0.7
		l-1.8-0.1c-1.6-0.1-2.6,1.6-1.8,3l1,1.5c0.3,0.5,0.4,1.2,0.2,1.8l-0.2,0.4c-1.2-0.4-2.4,0.1-3.1,1l-0.7-0.8
		c-0.4-0.5-0.6-1.1-0.4-1.7l0.5-1.7c0.4-1.5-1.1-2.9-2.6-2.3l-1.6,0.7c-0.6,0.2-1.2,0.2-1.8-0.2l-1.5-1c-1.3-0.9-3.1,0.2-3,1.8
		l0.1,1.8c0,0.6-0.2,1.2-0.7,1.6l-1.4,1.1c-0.5,0.4-0.7,1-0.7,1.6c-0.1,0-0.1,0-0.2,0c0.3-0.6,0.2-1.4-0.3-2l-1.2-1.4
		c-0.4-0.5-0.6-1.1-0.4-1.7l0.5-1.7c0.4-1.5-1.1-2.9-2.6-2.3l-1.6,0.7c-0.6,0.2-1.2,0.2-1.8-0.2l-1.5-1c-1.3-0.9-3.1,0.2-3,1.8
		l0.1,1.8c0,0.3,0,0.5-0.1,0.7l-0.7-0.8c-0.4-0.5-0.6-1.1-0.4-1.7l0.5-1.7c0.4-1.5-1.1-2.9-2.6-2.3l-1.6,0.7
		c-0.6,0.2-1.2,0.2-1.8-0.2l-1.5-1c-1.3-0.9-3.1,0.2-3,1.8l0.1,1.8c0,0.6-0.2,1.2-0.7,1.6l-1.4,1.1c-1.2,1-0.8,3,0.8,3.4l1.7,0.4
		c0.6,0.1,1.1,0.6,1.3,1.2l0,0l-1.3,0.6c-0.6,0.2-1.2,0.2-1.8-0.2l-1.5-1c-1.3-0.9-3.1,0.2-3,1.8l0.1,1.8c0,0.6-0.2,1.2-0.7,1.6
		l-1.4,1.1c-0.1,0.1-0.1,0.1-0.2,0.2l-0.3,0c-0.6,0-1.2-0.3-1.6-0.8l-1.1-1.4c-0.9-1.3-2.9-0.9-3.4,0.6l-0.5,1.7
		c-0.2,0.6-0.6,1.1-1.2,1.3l-1.7,0.6c-1.5,0.5-1.8,2.5-0.5,3.4l1.5,1c0.5,0.4,0.8,0.9,0.8,1.6l0,0.1c0,0,0,0,0,0l-0.8,0.7
		c0.3-1.5-1.2-2.7-2.6-2.1l-1.6,0.7c-0.6,0.2-1.2,0.2-1.8-0.2l-1.5-1c-1.3-0.9-3.1,0.2-3,1.8l0.1,1.8c0,0.6-0.2,1.2-0.7,1.6
		l-1.4,1.1c-1.2,1-0.8,3,0.8,3.4l1.7,0.4c0.6,0.1,1.1,0.6,1.3,1.2l0,0l-1.3,0.6c-0.6,0.2-1.2,0.2-1.8-0.2l-1.5-1
		c-1.3-0.9-3.1,0.2-3,1.8l0.1,1.8c0,0.6-0.2,1.2-0.7,1.6l-1.4,1.1c-0.1,0.1-0.1,0.1-0.2,0.2l-0.3,0c-0.6,0-1.2-0.3-1.6-0.8l-1.1-1.4
		c-0.9-1.3-2.9-0.9-3.4,0.6l-0.5,1.7c-0.2,0.6-0.6,1.1-1.2,1.3l-1.7,0.6c-1.5,0.5-1.8,2.5-0.5,3.4l1.5,1c0.5,0.4,0.8,0.9,0.8,1.6
		l0,0.1c0,0,0,0,0,0l-1.3,1.2c-0.5,0.4-1.1,0.6-1.7,0.4l-1.7-0.4c-1.1-0.3-2.1,0.4-2.3,1.4H2109.9z"/>
	<path class="st7" d="M2017.5,989.3l1.5-0.1c0.5,0,1,0.2,1.4,0.6l0.9,1.2c0,0.1,0.1,0.1,0.1,0.1c-0.2,0-0.4,0-0.6,0l-1.4-0.4
		c-1.3-0.4-2.4,0.9-1.9,2.1l0.6,1.4c0.2,0.5,0.1,1-0.1,1.5l-0.8,1.2c-0.7,1.1,0.1,2.6,1.4,2.5l1.5-0.1c0.5,0,1,0.2,1.4,0.6l0.9,1.2
		c0.1,0.2,0.3,0.3,0.4,0.4h1.6c0.3-0.2,0.6-0.5,0.7-1l0.4-1.4c0.1-0.5,0.5-0.9,1-1.1l1.4-0.5c1.2-0.5,1.4-2.1,0.3-2.8l-1.2-0.8
		c-0.4-0.3-0.7-0.8-0.7-1.3l0-0.8l0.3,0c0.5,0,1,0.2,1.4,0.6l0.9,1.2c0.1,0.1,0.2,0.3,0.4,0.3c0.1,0.4,0.2,0.9,0.2,1.3l0,4.5
		c0,0.7,0.2,1.3,0.4,1.9h12.1c0.2-0.5,0.1-1-0.2-1.4c1.1-0.5,2.3-0.6,3.5-0.2l4.3,1.4c1.4,0.4,2.8,0.2,3.9-0.4l1.2-0.1
		c0.5,0,1,0.2,1.4,0.6l0.2,0.2h29.1l-0.7-1.8c0.5-0.1,1-0.5,1.1-1.1l0.4-1.4c0.1-0.5,0.5-0.9,1-1.1l1.4-0.5c1.2-0.5,1.4-2.1,0.3-2.8
		l-1.2-0.8c-0.1-0.1-0.2-0.1-0.3-0.2l0.5-0.6c0.2-0.3,0.4-0.6,0.5-0.9l1.2-0.1c0.5,0,1,0.2,1.4,0.6l0.9,1.2c0.8,1,2.5,0.7,2.8-0.6
		l0.4-1.4c0.1-0.5,0.5-0.9,1-1.1l0.9-0.4c0,0,0,0,0,0l0.9,1.2c0.3,0.3,0.6,0.5,0.9,0.6c-0.2,0.4-0.2,0.8,0,1.3l0.6,1.4
		c0.2,0.5,0.1,1-0.1,1.5l-0.8,1.2c-0.7,1.1,0.1,2.6,1.4,2.5l1.5-0.1c0.5,0,1,0.2,1.4,0.6l0.9,1.2c0,0,0.1,0.1,0.1,0.1
		c0,0.1-0.1,0.2-0.1,0.3l-0.8,1.2c-0.1,0.2-0.2,0.3-0.2,0.5h10.8l0.1,0c1.2-0.5,1.4-2.1,0.3-2.8l-1.2-0.8c-0.4-0.3-0.7-0.8-0.7-1.3
		l-0.1-1.5c0-1-0.9-1.6-1.7-1.5c-0.1-0.2-0.3-0.5-0.6-0.6l-1.2-0.8c-0.4-0.3-0.7-0.8-0.7-1.3l-0.1-1.5c-0.1-1.3-1.6-2-2.6-1.1
		l-1.1,0.9c-0.4,0.3-0.9,0.5-1.4,0.3l-1.4-0.4c0,0-0.1,0-0.1,0c0-0.1,0.1-0.2,0.1-0.3l0.4-1.4c0.1-0.5,0.5-0.9,1-1.1l1.4-0.5
		c1.2-0.5,1.4-2.1,0.3-2.8l-1.2-0.8c-0.4-0.3-0.7-0.8-0.7-1.3l-0.1-1.5c-0.1-1.3-1.6-2-2.6-1.1l-1.1,0.9c-0.4,0.3-0.9,0.5-1.4,0.3
		l-1.4-0.4c-1-0.3-2,0.5-2,1.5c0,0,0,0,0,0l-1.1,0.9c-0.4,0.3-0.9,0.5-1.4,0.3l-1.4-0.4c-1.3-0.4-2.4,0.9-1.9,2.1l0.6,1.4
		c0,0,0,0,0,0c-0.7-0.8-1.5-1.3-2.6-1.6c-0.1-0.4-0.3-0.9-0.7-1.1l-1.2-0.8c-0.4-0.3-0.7-0.8-0.7-1.3l-0.1-1.5
		c-0.1-1.3-1.6-2-2.6-1.1l-1.1,0.9c-0.4,0.3-0.9,0.5-1.4,0.3l-0.9-0.2c0.5-0.1,1-0.5,1.1-1.1l0.4-1.4c0.1-0.5,0.5-0.9,1-1.1l0.5-0.2
		c0.3,0.1,0.6,0.3,0.8,0.5l0.9,1.2c0.8,1,2.5,0.7,2.8-0.6l0.2-0.9c0.3,0.1,0.6,0.2,0.9,0.2l1.5-0.1c0.5,0,1,0.2,1.4,0.6l0.9,1.2
		c0.8,1,2.5,0.7,2.8-0.6l0.4-1.4c0.1-0.5,0.5-0.9,1-1.1l1.4-0.5c1.2-0.5,1.4-2.1,0.3-2.8l-1.2-0.8c-0.4-0.3-0.7-0.8-0.7-1.3
		l-0.1-1.5c-0.1-1.3-1.6-2-2.6-1.1l-1.1,0.9c-0.1,0.1-0.2,0.2-0.3,0.2l-0.5-1.4c-0.2-0.5-0.1-1,0.2-1.5l0.9-1.2
		c0.8-1.1,0-2.6-1.3-2.5l-1.5,0c-0.5,0-1-0.2-1.3-0.6l-0.9-1.2c-0.8-1.1-2.4-0.8-2.8,0.5l-0.4,1.4c-0.1,0.5-0.5,0.9-1,1.1l-1.4,0.5
		c-0.7,0.2-1.1,0.9-1.1,1.6c-0.4-0.3-0.7-0.7-0.7-1.3l-0.1-1.5c-0.1-1.3-1.6-2-2.6-1.1l-1.1,0.9c-0.4,0.3-0.9,0.5-1.4,0.3l-1.4-0.4
		c-1.3-0.4-2.4,0.9-1.9,2.1l0.6,1.4c0.2,0.5,0.1,1-0.1,1.5l-0.8,1.2c-0.7,1.1,0.1,2.6,1.4,2.5l0.9-0.1c-0.1,0.3,0,0.6,0.1,0.9
		l0.6,1.4c0.1,0.3,0.1,0.6,0.1,1l-0.4,0c-0.5,0-1-0.2-1.3-0.6l-0.9-1.2c-0.8-1.1-2.4-0.8-2.8,0.5l-0.4,1.4c-0.1,0.5-0.5,0.9-1,1.1
		l-1.4,0.5c-1.3,0.4-1.5,2.1-0.4,2.8l1.2,0.8c0.4,0.3,0.7,0.8,0.7,1.3l0,1.5c0,0.2,0,0.3,0.1,0.5l-0.3,1c-0.8,0.3-1.3,1.2-1,2.1
		l0.2,0.4c-0.6,1.2-1.6,2.1-2.9,2.5l0,0c0-0.5-0.2-1-0.7-1.3l-1.2-0.8c-0.4-0.3-0.7-0.8-0.7-1.3l0-0.1l0.6-0.8
		c1-1.4,1.1-2.9,0.7-4.3l0.4,0.1c1.3,0.4,2.4-0.8,2-2.1l-0.5-1.4c-0.2-0.5-0.1-1,0.2-1.5l0.9-1.2c0.5-0.7,0.3-1.7-0.3-2.2
		c0.4-0.2,0.8-0.3,1.3-0.1l1.4,0.4c1.3,0.4,2.4-0.8,2-2.1l-0.5-1.4c-0.2-0.5-0.1-1,0.2-1.5l0.9-1.2c0.8-1.1,0-2.6-1.3-2.5l-1.5,0
		c-0.5,0-1-0.2-1.3-0.6l-0.9-1.2c-0.8-1.1-2.4-0.8-2.8,0.5l-0.3,0.9c0,0,0,0,0-0.1l-0.5-1.4c-0.2-0.5-0.1-1,0.2-1.5l0.9-1.2
		c0.8-1.1,0-2.6-1.3-2.5l-1.5,0c-0.5,0-1-0.2-1.3-0.6l-0.9-1.2c-0.8-1.1-2.4-0.8-2.8,0.5l-0.4,1.4c-0.1,0.5-0.5,0.9-1,1.1l-1.4,0.5
		c-1.3,0.4-1.5,2.1-0.4,2.8l0.8,0.5l-0.6,0c-0.5,0-1-0.2-1.3-0.6l-0.9-1.2c-0.8-1.1-2.4-0.8-2.8,0.5l-0.4,1.4
		c-0.1,0.5-0.5,0.9-1,1.1l-0.8,0.3l0-0.8c0.1-1.3-1.4-2.1-2.5-1.4l-1.2,0.8c-0.4,0.3-1,0.4-1.5,0.2l-1.4-0.5
		c-1.2-0.5-2.5,0.7-2.1,1.9l0.4,1.4c0.1,0.5,0,1-0.3,1.5l-0.9,1.1c-0.5,0.6-0.4,1.3-0.1,1.8c-0.4,0.4-0.7,1-0.5,1.6l0.4,1.4
		c0.2,0.5,0,1-0.3,1.5l-0.9,1.1c0,0,0,0.1-0.1,0.1c-0.5-0.3-1.2-0.3-1.7,0.2l-1.1,0.9c-0.4,0.3-0.9,0.5-1.4,0.3l-1.4-0.4
		c-1.3-0.4-2.4,0.9-1.9,2.1l0.6,1.4c0.2,0.5,0.1,1-0.1,1.5l-0.8,1.2c-0.2,0.3-0.2,0.5-0.3,0.8c-0.3,0.1-0.7,0.2-1,0.1l-1.4-0.4
		c-1.3-0.4-2.4,0.9-1.9,2.1l0.6,1.4c0.2,0.5,0.1,1-0.1,1.5l-0.8,1.2C2015.4,987.9,2016.2,989.3,2017.5,989.3z"/>
</g>
<rect x="2044.9" y="742.7" class="st8" width="336.4" height="258.1"/>
<path class="st9" d="M2349.2,757.3h-30.4v8.7h0v-8.7h-30.3h-0.1h-30.3v8.7h0v-8.7h-30.4h-30.4v8.7h0v-8.7H2167h-0.1h-30.3v8.7h0
	v-8.7h-30.4h-30.4h-30.4v50.2v8.5c0,8.4,6.8,15.2,15.2,15.2s15.2-6.8,15.2-15.2c0,8.4,6.8,15.2,15.2,15.2s15.2-6.8,15.2-15.2
	c0,8.4,6.8,15.2,15.2,15.2s15.2-6.8,15.2-15.2v-8.5v-0.8h0v0.8v8.5c0,8.4,6.8,15.2,15.2,15.2c8.1,0,14.6-6.3,15.1-14.2
	c0.5,7.9,7.1,14.2,15.1,14.2c8.4,0,15.2-6.8,15.2-15.2v-8.5v-0.8h0v0.8v8.5c0,8.4,6.8,15.2,15.2,15.2s15.2-6.8,15.2-15.2
	c0,8.4,6.8,15.2,15.2,15.2s15.2-6.8,15.2-15.2v-8.5v-0.8h0v0.8v8.5c0,8.4,6.8,15.2,15.2,15.2c8.1,0,14.6-6.3,15.1-14.2
	c0.5,7.9,7.1,14.2,15.1,14.2c8.4,0,15.2-6.8,15.2-15.2v-8.5v-0.8h0v0.8v8.5c0,8.4,6.8,15.2,15.2,15.2s15.2-6.8,15.2-15.2
	c0,8.4,6.8,15.2,15.2,15.2s15.2-6.8,15.2-15.2v-8.5v-50.2H2349.2z"/>
<g>
	<path class="st10" d="M1154.1,1001.6h-7.4l0,0v-404c0-2,1.7-3.7,3.7-3.7l0,0l0,0c2,0,3.7,1.7,3.7,3.7l0,0L1154.1,1001.6
		L1154.1,1001.6z"/>
	<rect x="1146.7" y="633.8" class="st11" width="7.4" height="10"/>
	<rect x="1144.3" y="606.4" class="st12" width="11.5" height="28.7"/>
	<path class="st3" d="M1159.3,631h-19.7c-6.8,0-12.3-5.5-12.3-12.3l0,0l0,0l0,0h44.2l0,0l0,0C1171.6,625.5,1166.1,631,1159.3,631z"
		/>
	<rect x="1127.1" y="612.9" class="st13" width="45.7" height="6.5"/>
	<rect x="1127.1" y="618" class="st11" width="45.7" height="1.4"/>
</g>
<g>
	<path class="st11" d="M1433.1,641L1433.1,641c0.7,0,1.2,0.5,1.2,1.2v6.5c0,0.7-0.5,1.2-1.2,1.2l0,0c-0.7,0-1.2-0.5-1.2-1.2v-6.5
		C1431.9,641.5,1432.4,641,1433.1,641z"/>
	<path class="st11" d="M1460.8,641L1460.8,641c0.7,0,1.2,0.5,1.2,1.2v6.5c0,0.7-0.5,1.2-1.2,1.2l0,0c-0.7,0-1.2-0.5-1.2-1.2v-6.5
		C1459.5,641.5,1460.1,641,1460.8,641z"/>
	<path class="st10" d="M1450.6,1001.6h-7.4l0,0v-404c0-2,1.7-3.7,3.7-3.7l0,0c2,0,3.7,1.7,3.7,3.7L1450.6,1001.6L1450.6,1001.6z"/>
	<rect x="1440.8" y="606.4" class="st12" width="11.5" height="28.7"/>
	<path class="st4" d="M1455.8,631h-19.7c-6.8,0-12.3-5.5-12.3-12.3l0,0l0,0l0,0h44.3l0,0l0,0C1468.1,625.5,1462.6,631,1455.8,631
		L1455.8,631z"/>
	<rect x="1423.6" y="612.9" class="st10" width="45.7" height="6.5"/>
	<rect x="1423.6" y="618.3" class="st11" width="45.7" height="1.1"/>
	<path class="st11" d="M1450.6,701.2h-7.4l0,0V683c0-0.2,0.6-0.5,1.3-0.5l0,0h4.9c0.7,0,1.3,0.2,1.3,0.5l0,0L1450.6,701.2
		L1450.6,701.2z"/>
	<path class="st3" d="M1428.2,647.5h36.6c3.4,0,6.1,2.7,6.1,6.1v36.2c0,3.4-2.7,6.1-6.1,6.1h-36.6c-3.4,0-6.1-2.7-6.1-6.1v-36.2
		C1422.1,650.2,1424.8,647.5,1428.2,647.5z"/>
	<circle class="st3" cx="1446.8" cy="578.5" r="1.8"/>
	<path class="st3" d="M1443.2,574.6h7.3c0.9,0,1.7,0.8,1.7,1.7v19.6c0,0.9-0.8,1.7-1.7,1.7h-7.3c-0.9,0-1.7-0.8-1.7-1.7v-19.6
		C1441.5,575.4,1442.3,574.6,1443.2,574.6z"/>
</g>
<g>
	<path class="st11" d="M182.2,641L182.2,641c0.7,0,1.2,0.5,1.2,1.2v6.5c0,0.7-0.5,1.2-1.2,1.2l0,0c-0.7,0-1.2-0.5-1.2-1.2v-6.5
		C181,641.5,181.5,641,182.2,641z"/>
	<path class="st11" d="M209.9,641L209.9,641c0.7,0,1.2,0.5,1.2,1.2v6.5c0,0.7-0.5,1.2-1.2,1.2l0,0c-0.7,0-1.2-0.5-1.2-1.2v-6.5
		C208.6,641.5,209.2,641,209.9,641z"/>
	<path class="st10" d="M199.7,1001.6h-7.4l0,0v-404c0-2,1.7-3.7,3.7-3.7l0,0c2,0,3.7,1.7,3.7,3.7L199.7,1001.6L199.7,1001.6z"/>
	<rect x="189.9" y="606.4" class="st12" width="11.5" height="28.7"/>
	<path class="st4" d="M204.9,631h-19.7c-6.8,0-12.3-5.5-12.3-12.3l0,0l0,0l0,0h44.3l0,0l0,0C217.2,625.5,211.7,631,204.9,631
		L204.9,631z"/>
	<rect x="172.7" y="612.9" class="st10" width="45.7" height="6.5"/>
	<rect x="172.7" y="618.3" class="st11" width="45.7" height="1.1"/>
	<path class="st11" d="M199.7,701.2h-7.4l0,0V683c0-0.2,0.6-0.5,1.3-0.5l0,0h4.9c0.7,0,1.3,0.2,1.3,0.5l0,0L199.7,701.2L199.7,701.2
		z"/>
	<path class="st3" d="M177.3,647.5h36.6c3.4,0,6.1,2.7,6.1,6.1v36.2c0,3.4-2.7,6.1-6.1,6.1h-36.6c-3.4,0-6.1-2.7-6.1-6.1v-36.2
		C171.2,650.2,173.9,647.5,177.3,647.5z"/>
	<circle class="st3" cx="195.9" cy="578.5" r="1.8"/>
	<path class="st3" d="M192.3,574.6h7.3c0.9,0,1.7,0.8,1.7,1.7v19.6c0,0.9-0.8,1.7-1.7,1.7h-7.3c-0.9,0-1.7-0.8-1.7-1.7v-19.6
		C190.6,575.4,191.4,574.6,192.3,574.6z"/>
</g>
<rect x="725.2" y="34.6" class="st8" width="371.8" height="966.9"/>
<g>
	<polygon class="st9" points="1025.1,793.5 998.5,793.5 953.5,793.5 953.5,890.7 998.5,890.7 1025.1,890.7 1070.1,890.7 
		1070.1,793.5 	"/>
	<polygon class="st14" points="1025.1,793.5 998.5,793.5 953.5,793.5 953.5,809.3 998.5,809.3 1025.1,809.3 1070.1,809.3 
		1070.1,793.5 	"/>
	<rect x="959.2" y="799.1" class="st15" width="105.3" height="85.9"/>
	<rect x="962" y="801.9" class="st16" width="48.4" height="38.7"/>
	<rect x="962" y="843.4" class="st16" width="48.4" height="38.8"/>
	<rect x="1013.3" y="843.4" class="st16" width="48.4" height="38.8"/>
	<rect x="1013.3" y="801.9" class="st16" width="48.4" height="38.7"/>
	<polygon class="st14" points="1025.1,901.9 998.5,901.9 953.5,901.9 953.5,905.1 998.5,905.1 1025.1,905.1 1070.1,905.1 
		1070.1,901.9 	"/>
	<rect x="940" y="890.7" class="st17" width="143.7" height="11.3"/>
	<rect x="1070.1" y="897.2" class="st17" width="9.9" height="14.4"/>
	<line class="st18" x1="1083.7" y1="901.9" x2="985" y2="901.9"/>
	<line class="st19" x1="985" y1="890.7" x2="1083.7" y2="890.7"/>
	<rect x="1070.1" y="793.5" class="st17" width="9.9" height="21"/>
	<line class="st18" x1="1080" y1="814.5" x2="1070.1" y2="814.5"/>
	<rect x="943.7" y="897.2" class="st17" width="9.9" height="14.4"/>
	<line class="st18" x1="1084" y1="901.9" x2="940" y2="901.9"/>
	<line class="st19" x1="940" y1="890.7" x2="1084" y2="890.7"/>
	<rect x="943.7" y="793.5" class="st17" width="9.9" height="21"/>
	<line class="st18" x1="953.5" y1="814.5" x2="943.7" y2="814.5"/>
	<polygon class="st14" points="1038.8,791.1 985,791.1 940,791.1 940,793.5 985,793.5 1038.8,793.5 1083.8,793.5 1083.8,791.1 	"/>
	<polygon class="st20" points="988.7,801.9 972.8,840.6 991.7,840.6 1008.2,801.9 	"/>
	<path class="st17" d="M1061.3,780.4c-16.7,0-25.8-5-49.4-5s-32.7,5-49.4,5h-22.5v10.7h143.8v-10.7H1061.3z"/>
	<path class="st21" d="M1083.8,780.4h-22.5c-16.7,0-25.8-5-49.4-5s-32.7,5-49.4,5h-22.5"/>
	<polygon class="st20" points="973.8,882.2 962,882.2 962,867 971.7,843.4 990.4,843.4 	"/>
	<polygon class="st20" points="1038.3,840.6 1054.9,801.9 1035.3,801.9 1019.1,840.6 	"/>
	<polygon class="st20" points="1001.6,882.2 1010.4,882.2 1010.4,861.2 	"/>
	<polygon class="st20" points="1017.9,843.4 1013.3,854.5 1013.3,882.2 1020.5,882.2 1037.1,843.4 	"/>
</g>
<rect x="725.2" y="44.3" class="st14" width="371.8" height="24.8"/>
<rect x="956" y="16" class="st15" width="129.5" height="19.5"/>
<rect x="760.1" y="1" class="st15" width="19" height="37.5"/>
<g>
	<rect x="700.4" y="26.5" class="st8" width="419.7" height="8"/>
	<rect x="700.4" y="24.5" class="st22" width="419.7" height="2"/>
	<path class="st14" d="M705,34.5c0,4.5,3.1,8.1,6.9,8.1h396.6c3.8,0,6.9-3.6,6.9-8.1H705z"/>
	<path class="st17" d="M705,34.5c0,4.5,3.1,8.1,6.9,8.1h396.6c3.8,0,6.9-3.6,6.9-8.1H705z"/>
	<rect x="718" y="50.7" class="st9" width="384.4" height="8"/>
	<path class="st9" d="M712.5,42.6c0,4.5,2.9,8.1,6.5,8.1h382.5c3.6,0,6.5-3.6,6.5-8.1H712.5z"/>
</g>
<g>
	<g>
		<rect x="988.7" y="544" class="st17" width="9.9" height="14.4"/>
		<rect x="1070.1" y="544" class="st17" width="9.9" height="14.4"/>
		<g>
			<rect x="998.5" y="440.3" class="st9" width="71.6" height="97.2"/>
		</g>
		<g>
			<rect x="998.5" y="440.3" class="st14" width="71.6" height="15.8"/>
		</g>
		<rect x="1004.2" y="445.9" class="st15" width="60.3" height="85.9"/>
		<g>
			<rect x="1007" y="448.8" class="st16" width="54.7" height="38.7"/>
			<rect x="1007" y="490.2" class="st16" width="54.7" height="38.8"/>
		</g>
		<rect x="985" y="537.5" class="st17" width="98.7" height="11.3"/>
		<line class="st18" x1="1083.7" y1="548.8" x2="985" y2="548.8"/>
		<line class="st19" x1="985" y1="537.5" x2="1083.7" y2="537.5"/>
		<rect x="988.7" y="440.3" class="st17" width="9.9" height="21"/>
		<rect x="1070.1" y="440.3" class="st17" width="9.9" height="21"/>
		<line class="st18" x1="998.5" y1="461.3" x2="988.7" y2="461.3"/>
		<line class="st18" x1="1080" y1="461.3" x2="1070.1" y2="461.3"/>
		<path class="st17" d="M1034.4,422.2c-23.6,0-32.7,5-49.4,5V438h98.8v-10.7C1067.1,427.2,1058,422.2,1034.4,422.2z"/>
		<path class="st19" d="M1083.8,427.2c-16.7,0-25.8-5-49.4-5"/>
		<path class="st19" d="M1034.4,422.2c-23.6,0-32.7,5-49.4,5"/>
		<rect x="985" y="438" class="st14" width="98.8" height="2.3"/>
		<rect x="998.5" y="548.8" class="st14" width="71.6" height="3.1"/>
		<polygon class="st20" points="1035.4,490.2 1016.7,490.2 1007,513.8 1007,529 1018.8,529 		"/>
		<polygon class="st20" points="1033.7,448.8 1017.8,487.4 1036.7,487.4 1053.2,448.8 		"/>
	</g>
	<g>
		<rect x="864.2" y="544" class="st17" width="9.9" height="14.4"/>
		<rect x="945.7" y="544" class="st17" width="9.9" height="14.4"/>
		<g>
			<rect x="874.1" y="440.3" class="st9" width="71.6" height="97.2"/>
		</g>
		<g>
			<rect x="874.1" y="440.3" class="st14" width="71.6" height="15.8"/>
		</g>
		<rect x="879.7" y="445.9" class="st15" width="60.3" height="85.9"/>
		<g>
			<rect x="882.6" y="448.8" class="st16" width="54.7" height="38.7"/>
			<rect x="882.6" y="490.2" class="st16" width="54.7" height="38.8"/>
		</g>
		<rect x="860.6" y="537.5" class="st17" width="98.7" height="11.3"/>
		<line class="st18" x1="959.2" y1="548.8" x2="860.6" y2="548.8"/>
		<line class="st19" x1="860.6" y1="537.5" x2="959.2" y2="537.5"/>
		<rect x="864.2" y="440.3" class="st17" width="9.9" height="21"/>
		<rect x="945.7" y="440.3" class="st17" width="9.9" height="21"/>
		<line class="st18" x1="874.1" y1="461.3" x2="864.2" y2="461.3"/>
		<line class="st18" x1="955.6" y1="461.3" x2="945.7" y2="461.3"/>
		<path class="st17" d="M909.9,422.2c-23.6,0-32.7,5-49.4,5V438h98.8v-10.7C942.6,427.2,933.5,422.2,909.9,422.2z"/>
		<path class="st19" d="M959.3,427.2c-16.7,0-25.8-5-49.4-5"/>
		<path class="st19" d="M909.9,422.2c-23.6,0-32.7,5-49.4,5"/>
		<rect x="860.6" y="438" class="st14" width="98.8" height="2.3"/>
		<rect x="874.1" y="548.8" class="st14" width="71.6" height="3.1"/>
		<polygon class="st20" points="911,490.2 892.2,490.2 882.6,513.8 882.6,529 894.4,529 		"/>
		<polygon class="st20" points="909.2,448.8 893.4,487.4 912.2,487.4 928.8,448.8 		"/>
	</g>
	<g>
		<rect x="739.8" y="544" class="st17" width="9.9" height="14.4"/>
		<rect x="821.3" y="544" class="st17" width="9.9" height="14.4"/>
		<g>
			<rect x="749.7" y="440.3" class="st9" width="71.6" height="97.2"/>
		</g>
		<g>
			<rect x="749.7" y="440.3" class="st14" width="71.6" height="15.8"/>
		</g>
		<rect x="755.3" y="445.9" class="st15" width="60.3" height="85.9"/>
		<g>
			<rect x="758.1" y="448.8" class="st16" width="54.7" height="38.7"/>
			<rect x="758.1" y="490.2" class="st16" width="54.7" height="38.8"/>
		</g>
		<rect x="736.1" y="537.5" class="st17" width="98.7" height="11.3"/>
		<line class="st18" x1="834.8" y1="548.8" x2="736.1" y2="548.8"/>
		<line class="st19" x1="736.1" y1="537.5" x2="834.8" y2="537.5"/>
		<rect x="739.8" y="440.3" class="st17" width="9.9" height="21"/>
		<rect x="821.3" y="440.3" class="st17" width="9.9" height="21"/>
		<line class="st18" x1="749.7" y1="461.3" x2="739.8" y2="461.3"/>
		<line class="st18" x1="831.1" y1="461.3" x2="821.3" y2="461.3"/>
		<path class="st17" d="M785.5,422.2c-23.6,0-32.7,5-49.4,5V438h98.8v-10.7C818.2,427.2,809.1,422.2,785.5,422.2z"/>
		<path class="st19" d="M834.9,427.2c-16.7,0-25.8-5-49.4-5"/>
		<path class="st19" d="M785.5,422.2c-23.6,0-32.7,5-49.4,5"/>
		<rect x="736.1" y="438" class="st14" width="98.8" height="2.3"/>
		<rect x="749.7" y="548.8" class="st14" width="71.6" height="3.1"/>
		<polygon class="st20" points="786.6,490.2 767.8,490.2 758.1,513.8 758.1,529 769.9,529 		"/>
		<polygon class="st20" points="784.8,448.8 768.9,487.4 787.8,487.4 804.4,448.8 		"/>
	</g>
	<g>
		<rect x="988.7" y="691.2" class="st17" width="9.9" height="14.4"/>
		<rect x="1070.1" y="691.2" class="st17" width="9.9" height="14.4"/>
		<g>
			<rect x="998.5" y="587.5" class="st9" width="71.6" height="97.2"/>
		</g>
		<g>
			<rect x="998.5" y="587.5" class="st14" width="71.6" height="15.8"/>
		</g>
		<rect x="1004.2" y="593.1" class="st15" width="60.3" height="85.9"/>
		<g>
			<rect x="1007" y="595.9" class="st16" width="54.7" height="38.7"/>
			<rect x="1007" y="637.4" class="st16" width="54.7" height="38.8"/>
		</g>
		<rect x="985" y="684.7" class="st17" width="98.7" height="11.3"/>
		<line class="st18" x1="1083.7" y1="695.9" x2="985" y2="695.9"/>
		<line class="st19" x1="985" y1="684.7" x2="1083.7" y2="684.7"/>
		<rect x="988.7" y="587.5" class="st17" width="9.9" height="21"/>
		<rect x="1070.1" y="587.5" class="st17" width="9.9" height="21"/>
		<line class="st18" x1="998.5" y1="608.5" x2="988.7" y2="608.5"/>
		<line class="st18" x1="1080" y1="608.5" x2="1070.1" y2="608.5"/>
		<path class="st17" d="M1034.4,569.4c-23.6,0-32.7,5-49.4,5v10.7h98.8v-10.7C1067.1,574.4,1058,569.4,1034.4,569.4z"/>
		<path class="st19" d="M1083.8,574.4c-16.7,0-25.8-5-49.4-5"/>
		<path class="st19" d="M1034.4,569.4c-23.6,0-32.7,5-49.4,5"/>
		<rect x="985" y="585.1" class="st14" width="98.8" height="2.3"/>
		<rect x="998.5" y="695.9" class="st14" width="71.6" height="3.1"/>
		<polygon class="st20" points="1035.4,637.4 1016.7,637.4 1007,661 1007,676.2 1018.8,676.2 		"/>
		<polygon class="st20" points="1033.7,595.9 1017.8,634.6 1036.7,634.6 1053.2,595.9 		"/>
	</g>
	<g>
		<rect x="864.2" y="691.2" class="st17" width="9.9" height="14.4"/>
		<rect x="945.7" y="691.2" class="st17" width="9.9" height="14.4"/>
		<g>
			<rect x="874.1" y="587.5" class="st9" width="71.6" height="97.2"/>
		</g>
		<g>
			<rect x="874.1" y="587.5" class="st14" width="71.6" height="15.8"/>
		</g>
		<rect x="879.7" y="593.1" class="st15" width="60.3" height="85.9"/>
		<g>
			<rect x="882.6" y="595.9" class="st16" width="54.7" height="38.7"/>
			<rect x="882.6" y="637.4" class="st16" width="54.7" height="38.8"/>
		</g>
		<rect x="860.6" y="684.7" class="st17" width="98.7" height="11.3"/>
		<line class="st18" x1="959.2" y1="695.9" x2="860.6" y2="695.9"/>
		<line class="st19" x1="860.6" y1="684.7" x2="959.2" y2="684.7"/>
		<rect x="864.2" y="587.5" class="st17" width="9.9" height="21"/>
		<rect x="945.7" y="587.5" class="st17" width="9.9" height="21"/>
		<line class="st18" x1="874.1" y1="608.5" x2="864.2" y2="608.5"/>
		<line class="st18" x1="955.6" y1="608.5" x2="945.7" y2="608.5"/>
		<path class="st17" d="M909.9,569.4c-23.6,0-32.7,5-49.4,5v10.7h98.8v-10.7C942.6,574.4,933.5,569.4,909.9,569.4z"/>
		<path class="st19" d="M959.3,574.4c-16.7,0-25.8-5-49.4-5"/>
		<path class="st19" d="M909.9,569.4c-23.6,0-32.7,5-49.4,5"/>
		<rect x="860.6" y="585.1" class="st14" width="98.8" height="2.3"/>
		<rect x="874.1" y="695.9" class="st14" width="71.6" height="3.1"/>
		<polygon class="st20" points="911,637.4 892.2,637.4 882.6,661 882.6,676.2 894.4,676.2 		"/>
		<polygon class="st20" points="909.2,595.9 893.4,634.6 912.2,634.6 928.8,595.9 		"/>
	</g>
	<g>
		<rect x="739.8" y="691.2" class="st17" width="9.9" height="14.4"/>
		<rect x="821.3" y="691.2" class="st17" width="9.9" height="14.4"/>
		<g>
			<rect x="749.7" y="587.5" class="st9" width="71.6" height="97.2"/>
		</g>
		<g>
			<rect x="749.7" y="587.5" class="st14" width="71.6" height="15.8"/>
		</g>
		<rect x="755.3" y="593.1" class="st15" width="60.3" height="85.9"/>
		<g>
			<rect x="758.1" y="595.9" class="st16" width="54.7" height="38.7"/>
			<rect x="758.1" y="637.4" class="st16" width="54.7" height="38.8"/>
		</g>
		<rect x="736.1" y="684.7" class="st17" width="98.7" height="11.3"/>
		<line class="st18" x1="834.8" y1="695.9" x2="736.1" y2="695.9"/>
		<line class="st19" x1="736.1" y1="684.7" x2="834.8" y2="684.7"/>
		<rect x="739.8" y="587.5" class="st17" width="9.9" height="21"/>
		<rect x="821.3" y="587.5" class="st17" width="9.9" height="21"/>
		<line class="st18" x1="749.7" y1="608.5" x2="739.8" y2="608.5"/>
		<line class="st18" x1="831.1" y1="608.5" x2="821.3" y2="608.5"/>
		<path class="st17" d="M785.5,569.4c-23.6,0-32.7,5-49.4,5v10.7h98.8v-10.7C818.2,574.4,809.1,569.4,785.5,569.4z"/>
		<path class="st19" d="M834.9,574.4c-16.7,0-25.8-5-49.4-5"/>
		<path class="st19" d="M785.5,569.4c-23.6,0-32.7,5-49.4,5"/>
		<rect x="736.1" y="585.1" class="st14" width="98.8" height="2.3"/>
		<rect x="749.7" y="695.9" class="st14" width="71.6" height="3.1"/>
		<polygon class="st20" points="786.6,637.4 767.8,637.4 758.1,661 758.1,676.2 769.9,676.2 		"/>
		<polygon class="st20" points="784.8,595.9 768.9,634.6 787.8,634.6 804.4,595.9 		"/>
	</g>
</g>
<g>
	<rect x="988.7" y="193" class="st17" width="9.9" height="14.4"/>
	<rect x="1070.1" y="193" class="st17" width="9.9" height="14.4"/>
	<g>
		<rect x="998.5" y="89.3" class="st9" width="71.6" height="97.2"/>
	</g>
	<g>
		<rect x="998.5" y="89.3" class="st14" width="71.6" height="15.8"/>
	</g>
	<rect x="1004.2" y="94.9" class="st15" width="60.3" height="85.9"/>
	<g>
		<rect x="1007" y="97.8" class="st16" width="54.7" height="38.7"/>
		<rect x="1007" y="139.2" class="st16" width="54.7" height="38.8"/>
	</g>
	<rect x="985" y="186.5" class="st17" width="98.7" height="11.3"/>
	<line class="st18" x1="1083.7" y1="197.8" x2="985" y2="197.8"/>
	<line class="st19" x1="985" y1="186.5" x2="1083.7" y2="186.5"/>
	<rect x="988.7" y="89.3" class="st17" width="9.9" height="21"/>
	<rect x="1070.1" y="89.3" class="st17" width="9.9" height="21"/>
	<line class="st18" x1="998.5" y1="110.3" x2="988.7" y2="110.3"/>
	<line class="st18" x1="1080" y1="110.3" x2="1070.1" y2="110.3"/>
	<path class="st17" d="M1034.4,71.2c-23.6,0-32.7,5-49.4,5V87h98.8V76.2C1067.1,76.2,1058,71.2,1034.4,71.2z"/>
	<path class="st19" d="M1083.8,76.2c-16.7,0-25.8-5-49.4-5"/>
	<path class="st19" d="M1034.4,71.2c-23.6,0-32.7,5-49.4,5"/>
	<rect x="985" y="87" class="st14" width="98.8" height="2.3"/>
	<rect x="998.5" y="197.8" class="st14" width="71.6" height="3.1"/>
	<polygon class="st20" points="1035.4,139.2 1016.7,139.2 1007,162.8 1007,178 1018.8,178 	"/>
	<polygon class="st20" points="1033.7,97.8 1017.8,136.4 1036.7,136.4 1053.2,97.8 	"/>
</g>
<g>
	<rect x="864.2" y="193" class="st17" width="9.9" height="14.4"/>
	<rect x="945.7" y="193" class="st17" width="9.9" height="14.4"/>
	<g>
		<rect x="874.1" y="89.3" class="st9" width="71.6" height="97.2"/>
	</g>
	<g>
		<rect x="874.1" y="89.3" class="st14" width="71.6" height="15.8"/>
	</g>
	<rect x="879.7" y="94.9" class="st15" width="60.3" height="85.9"/>
	<g>
		<rect x="882.6" y="97.8" class="st16" width="54.7" height="38.7"/>
		<rect x="882.6" y="139.2" class="st16" width="54.7" height="38.8"/>
	</g>
	<rect x="860.6" y="186.5" class="st17" width="98.7" height="11.3"/>
	<line class="st18" x1="959.2" y1="197.8" x2="860.6" y2="197.8"/>
	<line class="st19" x1="860.6" y1="186.5" x2="959.2" y2="186.5"/>
	<rect x="864.2" y="89.3" class="st17" width="9.9" height="21"/>
	<rect x="945.7" y="89.3" class="st17" width="9.9" height="21"/>
	<line class="st18" x1="874.1" y1="110.3" x2="864.2" y2="110.3"/>
	<line class="st18" x1="955.6" y1="110.3" x2="945.7" y2="110.3"/>
	<path class="st17" d="M909.9,71.2c-23.6,0-32.7,5-49.4,5V87h98.8V76.2C942.6,76.2,933.5,71.2,909.9,71.2z"/>
	<path class="st19" d="M959.3,76.2c-16.7,0-25.8-5-49.4-5"/>
	<path class="st19" d="M909.9,71.2c-23.6,0-32.7,5-49.4,5"/>
	<rect x="860.6" y="87" class="st14" width="98.8" height="2.3"/>
	<rect x="874.1" y="197.8" class="st14" width="71.6" height="3.1"/>
	<polygon class="st20" points="911,139.2 892.2,139.2 882.6,162.8 882.6,178 894.4,178 	"/>
	<polygon class="st20" points="909.2,97.8 893.4,136.4 912.2,136.4 928.8,97.8 	"/>
</g>
<g>
	<rect x="739.8" y="193" class="st17" width="9.9" height="14.4"/>
	<rect x="821.3" y="193" class="st17" width="9.9" height="14.4"/>
	<g>
		<rect x="749.7" y="89.3" class="st9" width="71.6" height="97.2"/>
	</g>
	<g>
		<rect x="749.7" y="89.3" class="st14" width="71.6" height="15.8"/>
	</g>
	<rect x="755.3" y="94.9" class="st15" width="60.3" height="85.9"/>
	<g>
		<rect x="758.1" y="97.8" class="st16" width="54.7" height="38.7"/>
		<rect x="758.1" y="139.2" class="st16" width="54.7" height="38.8"/>
	</g>
	<rect x="736.1" y="186.5" class="st17" width="98.7" height="11.3"/>
	<line class="st18" x1="834.8" y1="197.8" x2="736.1" y2="197.8"/>
	<line class="st19" x1="736.1" y1="186.5" x2="834.8" y2="186.5"/>
	<rect x="739.8" y="89.3" class="st17" width="9.9" height="21"/>
	<rect x="821.3" y="89.3" class="st17" width="9.9" height="21"/>
	<line class="st18" x1="749.7" y1="110.3" x2="739.8" y2="110.3"/>
	<line class="st18" x1="831.1" y1="110.3" x2="821.3" y2="110.3"/>
	<path class="st17" d="M785.5,71.2c-23.6,0-32.7,5-49.4,5V87h98.8V76.2C818.2,76.2,809.1,71.2,785.5,71.2z"/>
	<path class="st19" d="M834.9,76.2c-16.7,0-25.8-5-49.4-5"/>
	<path class="st19" d="M785.5,71.2c-23.6,0-32.7,5-49.4,5"/>
	<rect x="736.1" y="87" class="st14" width="98.8" height="2.3"/>
	<rect x="749.7" y="197.8" class="st14" width="71.6" height="3.1"/>
	<polygon class="st20" points="786.6,139.2 767.8,139.2 758.1,162.8 758.1,178 769.9,178 	"/>
	<polygon class="st20" points="784.8,97.8 768.9,136.4 787.8,136.4 804.4,97.8 	"/>
</g>
<g>
	<rect x="988.7" y="340.2" class="st17" width="9.9" height="14.4"/>
	<rect x="1070.1" y="340.2" class="st17" width="9.9" height="14.4"/>
	<g>
		<rect x="998.5" y="236.5" class="st9" width="71.6" height="97.2"/>
	</g>
	<g>
		<rect x="998.5" y="236.5" class="st14" width="71.6" height="15.8"/>
	</g>
	<rect x="1004.2" y="242.1" class="st15" width="60.3" height="85.9"/>
	<g>
		<rect x="1007" y="244.9" class="st16" width="54.7" height="38.7"/>
		<rect x="1007" y="286.4" class="st16" width="54.7" height="38.8"/>
	</g>
	<rect x="985" y="333.7" class="st17" width="98.7" height="11.3"/>
	<line class="st18" x1="1083.7" y1="344.9" x2="985" y2="344.9"/>
	<line class="st19" x1="985" y1="333.7" x2="1083.7" y2="333.7"/>
	<rect x="988.7" y="236.5" class="st17" width="9.9" height="21"/>
	<rect x="1070.1" y="236.5" class="st17" width="9.9" height="21"/>
	<line class="st18" x1="998.5" y1="257.5" x2="988.7" y2="257.5"/>
	<line class="st18" x1="1080" y1="257.5" x2="1070.1" y2="257.5"/>
	<path class="st17" d="M1034.4,218.4c-23.6,0-32.7,5-49.4,5v10.7h98.8v-10.7C1067.1,223.4,1058,218.4,1034.4,218.4z"/>
	<path class="st19" d="M1083.8,223.4c-16.7,0-25.8-5-49.4-5"/>
	<path class="st19" d="M1034.4,218.4c-23.6,0-32.7,5-49.4,5"/>
	<rect x="985" y="234.1" class="st14" width="98.8" height="2.3"/>
	<rect x="998.5" y="344.9" class="st14" width="71.6" height="3.1"/>
	<polygon class="st20" points="1035.4,286.4 1016.7,286.4 1007,310 1007,325.2 1018.8,325.2 	"/>
	<polygon class="st20" points="1033.7,244.9 1017.8,283.6 1036.7,283.6 1053.2,244.9 	"/>
</g>
<g>
	<rect x="864.2" y="340.2" class="st17" width="9.9" height="14.4"/>
	<rect x="945.7" y="340.2" class="st17" width="9.9" height="14.4"/>
	<g>
		<rect x="874.1" y="236.5" class="st9" width="71.6" height="97.2"/>
	</g>
	<g>
		<rect x="874.1" y="236.5" class="st14" width="71.6" height="15.8"/>
	</g>
	<rect x="879.7" y="242.1" class="st15" width="60.3" height="85.9"/>
	<g>
		<rect x="882.6" y="244.9" class="st16" width="54.7" height="38.7"/>
		<rect x="882.6" y="286.4" class="st16" width="54.7" height="38.8"/>
	</g>
	<rect x="860.6" y="333.7" class="st17" width="98.7" height="11.3"/>
	<line class="st18" x1="959.2" y1="344.9" x2="860.6" y2="344.9"/>
	<line class="st19" x1="860.6" y1="333.7" x2="959.2" y2="333.7"/>
	<rect x="864.2" y="236.5" class="st17" width="9.9" height="21"/>
	<rect x="945.7" y="236.5" class="st17" width="9.9" height="21"/>
	<line class="st18" x1="874.1" y1="257.5" x2="864.2" y2="257.5"/>
	<line class="st18" x1="955.6" y1="257.5" x2="945.7" y2="257.5"/>
	<path class="st17" d="M909.9,218.4c-23.6,0-32.7,5-49.4,5v10.7h98.8v-10.7C942.6,223.4,933.5,218.4,909.9,218.4z"/>
	<path class="st19" d="M959.3,223.4c-16.7,0-25.8-5-49.4-5"/>
	<path class="st19" d="M909.9,218.4c-23.6,0-32.7,5-49.4,5"/>
	<rect x="860.6" y="234.1" class="st14" width="98.8" height="2.3"/>
	<rect x="874.1" y="344.9" class="st14" width="71.6" height="3.1"/>
	<polygon class="st20" points="911,286.4 892.2,286.4 882.6,310 882.6,325.2 894.4,325.2 	"/>
	<polygon class="st20" points="909.2,244.9 893.4,283.6 912.2,283.6 928.8,244.9 	"/>
</g>
<g>
	<rect x="739.8" y="340.2" class="st17" width="9.9" height="14.4"/>
	<rect x="821.3" y="340.2" class="st17" width="9.9" height="14.4"/>
	<g>
		<rect x="749.7" y="236.5" class="st9" width="71.6" height="97.2"/>
	</g>
	<g>
		<rect x="749.7" y="236.5" class="st14" width="71.6" height="15.8"/>
	</g>
	<rect x="755.3" y="242.1" class="st15" width="60.3" height="85.9"/>
	<g>
		<rect x="758.1" y="244.9" class="st4" width="54.7" height="38.7"/>
		<rect x="758.1" y="286.4" class="st4" width="54.7" height="38.8"/>
	</g>
	<rect x="736.1" y="333.7" class="st17" width="98.7" height="11.3"/>
	<line class="st18" x1="834.8" y1="344.9" x2="736.1" y2="344.9"/>
	<line class="st19" x1="736.1" y1="333.7" x2="834.8" y2="333.7"/>
	<rect x="739.8" y="236.5" class="st17" width="9.9" height="21"/>
	<rect x="821.3" y="236.5" class="st17" width="9.9" height="21"/>
	<line class="st18" x1="749.7" y1="257.5" x2="739.8" y2="257.5"/>
	<line class="st18" x1="831.1" y1="257.5" x2="821.3" y2="257.5"/>
	<path class="st17" d="M785.5,218.4c-23.6,0-32.7,5-49.4,5v10.7h98.8v-10.7C818.2,223.4,809.1,218.4,785.5,218.4z"/>
	<path class="st19" d="M834.9,223.4c-16.7,0-25.8-5-49.4-5"/>
	<path class="st19" d="M785.5,218.4c-23.6,0-32.7,5-49.4,5"/>
	<rect x="736.1" y="234.1" class="st14" width="98.8" height="2.3"/>
	<rect x="749.7" y="344.9" class="st14" width="71.6" height="3.1"/>
	<polygon class="st20" points="786.6,286.4 767.8,286.4 758.1,310 758.1,325.2 769.9,325.2 	"/>
	<polygon class="st20" points="784.8,244.9 768.9,283.6 787.8,283.6 804.4,244.9 	"/>
</g>
<path class="st0" d="M706.9,61.8c0-2.5-0.2-4.9-0.7-7.3c4-5.3,11.6-6.3,16.9-2.3c3,2.3,4.7,5.8,4.7,9.6c0,1.2-0.2,2.4-0.6,3.5h-20.5
	C706.8,64.1,706.9,62.9,706.9,61.8z"/>
<path class="st0" d="M706.7,65.3h-2.5c-1.2-3.7-0.5-7.8,1.9-10.8c0.5,2.4,0.7,4.8,0.7,7.3C706.9,62.9,706.8,64.1,706.7,65.3z"/>
<rect x="725.2" y="742.7" class="st14" width="371.8" height="24.8"/>
<rect x="725.2" y="386.3" class="st14" width="371.8" height="24.8"/>
<rect x="718.5" y="371.8" class="st23" width="383.4" height="28.9"/>
<rect x="718.5" y="942.7" class="st9" width="383.4" height="58.9"/>
<rect x="770.4" y="793.5" class="st9" width="130.1" height="158.9"/>
<rect x="798.9" y="802.1" class="st15" width="71.1" height="17.9"/>
<g>
	<rect x="700.4" y="369.5" class="st8" width="419.7" height="8"/>
	<rect x="700.4" y="367.5" class="st22" width="419.7" height="2"/>
	<path class="st14" d="M705,377.5c0,4.5,3.1,8.1,6.9,8.1h396.6c3.8,0,6.9-3.6,6.9-8.1H705z"/>
	<path class="st17" d="M705,377.5c0,4.5,3.1,8.1,6.9,8.1h396.6c3.8,0,6.9-3.6,6.9-8.1H705z"/>
	<rect x="718" y="393.7" class="st9" width="384.4" height="8"/>
	<path class="st9" d="M712.5,385.6c0,4.5,2.9,8.1,6.5,8.1h382.5c3.6,0,6.5-3.6,6.5-8.1H712.5z"/>
</g>
<g>
	<rect x="700.4" y="724.5" class="st8" width="419.7" height="8"/>
	<rect x="700.4" y="722.5" class="st22" width="419.7" height="2"/>
	<path class="st14" d="M705,732.5c0,4.5,3.1,8.1,6.9,8.1h396.6c3.8,0,6.9-3.6,6.9-8.1H705z"/>
	<path class="st17" d="M705,732.5c0,4.5,3.1,8.1,6.9,8.1h396.6c3.8,0,6.9-3.6,6.9-8.1H705z"/>
	<rect x="718" y="748.7" class="st9" width="384.4" height="8"/>
	<path class="st9" d="M712.5,740.6c0,4.5,2.9,8.1,6.5,8.1h382.5c3.6,0,6.5-3.6,6.5-8.1H712.5z"/>
</g>
<g>
	<rect x="802.5" y="805.7" class="st16" width="30.7" height="10.7"/>
	<rect x="835.8" y="805.7" class="st16" width="30.7" height="10.7"/>
</g>
<g>
	<polygon class="st14" points="862.3,791.1 808.6,791.1 763.6,791.1 763.6,793.5 808.6,793.5 862.3,793.5 907.3,793.5 907.3,791.1 	
		"/>
	<path class="st17" d="M884.9,780.4c-16.7,0-25.8-5-49.4-5s-32.7,5-49.4,5h-22.5v10.7h143.8v-10.7H884.9z"/>
	<path class="st21" d="M907.4,780.4h-22.5c-16.7,0-25.8-5-49.4-5s-32.7,5-49.4,5h-22.5"/>
</g>
<polygon class="st14" points="900.5,793.5 870.1,802.1 798.9,802.1 770.4,793.5 "/>
<g>
	<path class="st7" d="M792.3,923.3c0.3-0.5,0.6-1.2,0.6-1.9c0-1.3-0.7-2.4-1.8-3.1c0.4-0.6,0.6-1.3,0.6-2c0-1.7-1.2-3.1-2.9-3.5
		c0.1-0.3,0.1-0.5,0.1-0.8c0-1.4-1.1-2.4-2.4-2.4c-1.2,0-2.1,0.8-2.4,1.9c-0.5-0.2-1-0.4-1.6-0.4c-2,0-3.5,1.6-3.5,3.5
		c0,0,0,0.1,0,0.1c-1.6,0.4-2.7,1.8-2.7,3.4c0,1.6,1,2.9,2.4,3.3c0,0.2,0,0.4,0,0.6c0,0.9,0.3,1.7,0.9,2.3c-1.7,0.3-2.9,1.7-2.9,3.5
		c0,1.6,1,2.9,2.5,3.4L779,932l12.5-0.9l0.1-0.8c0.1,0,0.3,0,0.4,0c2,0,3.5-1.6,3.5-3.5C795.5,924.9,794.1,923.4,792.3,923.3z"/>
	<path class="st24" d="M791.2,946.2c1.9-1.6,3.1-4,3.1-6.7v-7.9h0.5v-1.7h-18.5v1.7h0.5v7.9c0,2.7,1.2,5.1,3.1,6.7
		c0.1,0.2,0.2,0.4,0.3,0.5c-0.4,0.7-0.7,1.5-0.8,2.3h-3.1v1.7h18.5V949h-3.1c-0.1-0.8-0.4-1.6-0.8-2.3
		C791,946.5,791.1,946.3,791.2,946.2z"/>
	<path class="st25" d="M785.2,949c0.1-0.8,0.4-1.6,0.8-2.3c-0.1-0.2-0.2-0.3-0.3-0.5c-1.9-1.6-3.1-4-3.1-6.7v-7.9h-0.5v-1.7h-5.8
		v1.7h0.5v7.9c0,2.7,1.2,5.1,3.1,6.7c0.1,0.2,0.2,0.4,0.3,0.5c-0.4,0.7-0.7,1.5-0.8,2.3h-3.1v1.7h5.8V949H785.2z"/>
	<path class="st26" d="M782.2,921.7l-0.6,0.1c-0.2,0.1-0.4,0.2-0.5,0.4l-0.2,0.6c-0.2,0.5-0.9,0.6-1.2,0.1l-0.3-0.5
		c-0.1-0.2-0.3-0.3-0.5-0.3l-0.6,0c-0.6,0-0.8-0.7-0.5-1.1l0.4-0.5c0.1-0.2,0.2-0.4,0.1-0.6l-0.2-0.6c-0.1-0.5,0.4-1,0.9-0.8
		l0.6,0.2c0.2,0.1,0.4,0.1,0.6-0.1l0.5-0.3c0.5-0.3,1.1,0.1,1,0.6l-0.1,0.6c0,0.2,0.1,0.4,0.2,0.6l0.5,0.4
		C782.9,920.9,782.8,921.6,782.2,921.7z"/>
	<path class="st26" d="M791.6,918.1l-0.6,0.1c-0.2,0.1-0.4,0.2-0.5,0.4l-0.2,0.6c-0.2,0.5-0.9,0.6-1.2,0.1l-0.3-0.5
		c-0.1-0.2-0.3-0.3-0.5-0.3l-0.6,0c-0.6,0-0.8-0.7-0.5-1.1l0.4-0.5c0.1-0.2,0.2-0.4,0.1-0.6l-0.2-0.6c-0.1-0.5,0.4-1,0.9-0.8
		l0.6,0.2c0.2,0.1,0.4,0.1,0.6-0.1l0.5-0.3c0.5-0.3,1.1,0.1,1,0.6l-0.1,0.6c0,0.2,0.1,0.4,0.2,0.6l0.5,0.4
		C792.3,917.2,792.1,917.9,791.6,918.1z"/>
	<path class="st26" d="M785.1,914l-0.6,0.1c-0.2,0.1-0.4,0.2-0.5,0.4l-0.2,0.6c-0.2,0.5-0.9,0.6-1.2,0.1l-0.3-0.5
		c-0.1-0.2-0.3-0.3-0.5-0.3l-0.6,0c-0.6,0-0.8-0.7-0.5-1.1l0.4-0.5c0.1-0.2,0.2-0.4,0.1-0.6l-0.2-0.6c-0.1-0.5,0.4-1,0.9-0.8
		l0.6,0.2c0.2,0.1,0.4,0.1,0.6-0.1l0.5-0.3c0.5-0.3,1.1,0.1,1,0.6l-0.1,0.6c0,0.2,0.1,0.4,0.2,0.6l0.5,0.4
		C785.8,913.2,785.6,913.9,785.1,914z"/>
	<path class="st26" d="M789.4,926.6l-0.2-0.6c-0.1-0.2-0.3-0.4-0.5-0.4l-0.6-0.1c-0.5-0.1-0.7-0.8-0.3-1.2l0.5-0.4
		c0.2-0.1,0.3-0.4,0.2-0.6l0-0.6c0-0.6,0.6-0.9,1-0.6l0.5,0.3c0.2,0.1,0.4,0.1,0.6,0.1l0.6-0.2c0.5-0.2,1.1,0.3,0.9,0.8l-0.2,0.6
		c-0.1,0.2,0,0.4,0.1,0.6l0.4,0.5c0.4,0.4,0.1,1.1-0.5,1.1l-0.6,0c-0.2,0-0.4,0.1-0.5,0.3l-0.3,0.5
		C790.3,927.2,789.6,927.1,789.4,926.6z"/>
	<path class="st26" d="M783.1,930l-0.2-0.6c-0.1-0.2-0.3-0.4-0.5-0.4l-0.6-0.1c-0.5-0.1-0.7-0.8-0.3-1.2l0.5-0.4
		c0.2-0.1,0.3-0.4,0.2-0.6l0-0.6c0-0.6,0.6-0.9,1-0.6l0.5,0.3c0.2,0.1,0.4,0.1,0.6,0.1l0.6-0.2c0.5-0.2,1.1,0.3,0.9,0.8l-0.2,0.6
		c-0.1,0.2,0,0.4,0.1,0.6l0.4,0.5c0.4,0.4,0.1,1.1-0.5,1.1l-0.6,0c-0.2,0-0.4,0.1-0.5,0.3l-0.3,0.5C784,930.5,783.3,930.5,783.1,930
		z"/>
	<rect x="776.7" y="931.6" class="st25" width="17.6" height="3.2"/>
</g>
<g>
	<path class="st7" d="M890.3,923.3c0.3-0.5,0.6-1.2,0.6-1.9c0-1.3-0.7-2.4-1.8-3.1c0.4-0.6,0.6-1.3,0.6-2c0-1.7-1.2-3.1-2.9-3.5
		c0.1-0.3,0.1-0.5,0.1-0.8c0-1.4-1.1-2.4-2.4-2.4c-1.2,0-2.1,0.8-2.4,1.9c-0.5-0.2-1-0.4-1.6-0.4c-2,0-3.5,1.6-3.5,3.5
		c0,0,0,0.1,0,0.1c-1.6,0.4-2.7,1.8-2.7,3.4c0,1.6,1,2.9,2.4,3.3c0,0.2,0,0.4,0,0.6c0,0.9,0.3,1.7,0.9,2.3c-1.7,0.3-2.9,1.7-2.9,3.5
		c0,1.6,1,2.9,2.5,3.4L877,932l12.5-0.9l0.1-0.8c0.1,0,0.3,0,0.4,0c2,0,3.5-1.6,3.5-3.5C893.5,924.9,892.1,923.4,890.3,923.3z"/>
	<path class="st24" d="M889.2,946.2c1.9-1.6,3.1-4,3.1-6.7v-7.9h0.5v-1.7h-18.5v1.7h0.5v7.9c0,2.7,1.2,5.1,3.1,6.7
		c0.1,0.2,0.2,0.4,0.3,0.5c-0.4,0.7-0.7,1.5-0.8,2.3h-3.1v1.7h18.5V949h-3.1c-0.1-0.8-0.4-1.6-0.8-2.3
		C889,946.5,889.1,946.3,889.2,946.2z"/>
	<path class="st25" d="M883.2,949c0.1-0.8,0.4-1.6,0.8-2.3c-0.1-0.2-0.2-0.3-0.3-0.5c-1.9-1.6-3.1-4-3.1-6.7v-7.9h-0.5v-1.7h-5.8
		v1.7h0.5v7.9c0,2.7,1.2,5.1,3.1,6.7c0.1,0.2,0.2,0.4,0.3,0.5c-0.4,0.7-0.7,1.5-0.8,2.3h-3.1v1.7h5.8V949H883.2z"/>
	<path class="st26" d="M880.2,921.7l-0.6,0.1c-0.2,0.1-0.4,0.2-0.5,0.4l-0.2,0.6c-0.2,0.5-0.9,0.6-1.2,0.1l-0.3-0.5
		c-0.1-0.2-0.3-0.3-0.5-0.3l-0.6,0c-0.6,0-0.8-0.7-0.5-1.1l0.4-0.5c0.1-0.2,0.2-0.4,0.1-0.6l-0.2-0.6c-0.1-0.5,0.4-1,0.9-0.8
		l0.6,0.2c0.2,0.1,0.4,0.1,0.6-0.1l0.5-0.3c0.5-0.3,1.1,0.1,1,0.6l-0.1,0.6c0,0.2,0.1,0.4,0.2,0.6l0.5,0.4
		C880.9,920.9,880.8,921.6,880.2,921.7z"/>
	<path class="st26" d="M889.6,918.1l-0.6,0.1c-0.2,0.1-0.4,0.2-0.5,0.4l-0.2,0.6c-0.2,0.5-0.9,0.6-1.2,0.1l-0.3-0.5
		c-0.1-0.2-0.3-0.3-0.5-0.3l-0.6,0c-0.6,0-0.8-0.7-0.5-1.1l0.4-0.5c0.1-0.2,0.2-0.4,0.1-0.6l-0.2-0.6c-0.1-0.5,0.4-1,0.9-0.8
		l0.6,0.2c0.2,0.1,0.4,0.1,0.6-0.1l0.5-0.3c0.5-0.3,1.1,0.1,1,0.6l-0.1,0.6c0,0.2,0.1,0.4,0.2,0.6l0.5,0.4
		C890.3,917.2,890.1,917.9,889.6,918.1z"/>
	<path class="st26" d="M883.1,914l-0.6,0.1c-0.2,0.1-0.4,0.2-0.5,0.4l-0.2,0.6c-0.2,0.5-0.9,0.6-1.2,0.1l-0.3-0.5
		c-0.1-0.2-0.3-0.3-0.5-0.3l-0.6,0c-0.6,0-0.8-0.7-0.5-1.1l0.4-0.5c0.1-0.2,0.2-0.4,0.1-0.6l-0.2-0.6c-0.1-0.5,0.4-1,0.9-0.8
		l0.6,0.2c0.2,0.1,0.4,0.1,0.6-0.1l0.5-0.3c0.5-0.3,1.1,0.1,1,0.6l-0.1,0.6c0,0.2,0.1,0.4,0.2,0.6l0.5,0.4
		C883.8,913.2,883.6,913.9,883.1,914z"/>
	<path class="st26" d="M887.4,926.6l-0.2-0.6c-0.1-0.2-0.3-0.4-0.5-0.4l-0.6-0.1c-0.5-0.1-0.7-0.8-0.3-1.2l0.5-0.4
		c0.2-0.1,0.3-0.4,0.2-0.6l0-0.6c0-0.6,0.6-0.9,1-0.6l0.5,0.3c0.2,0.1,0.4,0.1,0.6,0.1l0.6-0.2c0.5-0.2,1.1,0.3,0.9,0.8l-0.2,0.6
		c-0.1,0.2,0,0.4,0.1,0.6l0.4,0.5c0.4,0.4,0.1,1.1-0.5,1.1l-0.6,0c-0.2,0-0.4,0.1-0.5,0.3l-0.3,0.5
		C888.3,927.2,887.6,927.1,887.4,926.6z"/>
	<path class="st26" d="M881.1,930l-0.2-0.6c-0.1-0.2-0.3-0.4-0.5-0.4l-0.6-0.1c-0.5-0.1-0.7-0.8-0.3-1.2l0.5-0.4
		c0.2-0.1,0.3-0.4,0.2-0.6l0-0.6c0-0.6,0.6-0.9,1-0.6l0.5,0.3c0.2,0.1,0.4,0.1,0.6,0.1l0.6-0.2c0.5-0.2,1.1,0.3,0.9,0.8l-0.2,0.6
		c-0.1,0.2,0,0.4,0.1,0.6l0.4,0.5c0.4,0.4,0.1,1.1-0.5,1.1l-0.6,0c-0.2,0-0.4,0.1-0.5,0.3l-0.3,0.5C882,930.5,881.3,930.5,881.1,930
		z"/>
	<rect x="874.7" y="931.6" class="st25" width="17.6" height="3.2"/>
</g>
<g>
	<path class="st6" d="M1009.9,1001.6c-0.2-0.4-0.5-0.8-0.9-1.1c0.2-0.4,0.4-0.7,0.7-0.9l1.5-0.9c1.4-0.8,1.2-2.9-0.3-3.4l-0.6-0.2
		c0-0.3,0-0.6-0.1-0.9l-0.6-1.7c-0.2-0.6-0.1-1.3,0.2-1.8l1-1.4c0.9-1.3,0-3.1-1.6-3l-1.8,0.1c-0.6,0-1.2-0.3-1.6-0.8l-1.1-1.4
		c-0.9-1.3-2.9-0.9-3.4,0.6l-0.5,1.7c-0.2,0.6-0.6,1.1-1.2,1.3l-0.9,0.3c-0.4-0.6-0.5-1.4-0.3-2.1l0.6-2.4c0.3-1.2-0.2-2.4-1.2-3
		c0.2-0.4,0.4-0.7,0.7-0.9l1.5-0.9c1.4-0.8,1.2-2.9-0.3-3.4l-1.7-0.6c-0.6-0.2-1-0.7-1.2-1.3l-0.4-1.7c-0.4-1.5-2.2-1.9-3.2-0.9
		l0.1-0.1c0.9-1.3,0-3.1-1.6-3l-1.8,0.1c-0.6,0-1.2-0.3-1.6-0.8l-1.1-1.4c-0.9-1.3-2.9-0.9-3.4,0.6l-0.5,1.7
		c-0.2,0.6-0.6,1.1-1.2,1.3l-0.9,0.3c-0.4-0.6-0.5-1.4-0.3-2.1l0.6-2.4c0.3-1.2-0.2-2.4-1.2-3c0.2-0.4,0.4-0.7,0.7-0.9l1.5-0.9
		c1.4-0.8,1.2-2.9-0.3-3.4l-1.7-0.6c-0.6-0.2-1-0.7-1.2-1.3l-0.4-1.7c-0.4-1.5-2.4-2-3.4-0.8l-1.1,1.4c-0.4,0.5-1,0.8-1.6,0.7
		l-1.8-0.1c-1.6-0.1-2.6,1.6-1.8,3l1,1.5c0.3,0.5,0.4,1.2,0.2,1.8l-0.2,0.4c-1.2-0.4-2.4,0.1-3.1,1l-0.7-0.8
		c-0.4-0.5-0.6-1.1-0.4-1.7l0.5-1.7c0.4-1.5-1.1-2.9-2.6-2.3l-1.6,0.7c-0.6,0.2-1.2,0.2-1.8-0.2l-1.5-1c-1.3-0.9-3.1,0.2-3,1.8
		l0.1,1.8c0,0.6-0.2,1.2-0.7,1.6l-1.4,1.1c-0.5,0.4-0.7,1-0.7,1.6c-0.1,0-0.1,0-0.2,0c0.3-0.6,0.2-1.4-0.3-2l-1.2-1.4
		c-0.4-0.5-0.6-1.1-0.4-1.7l0.5-1.7c0.4-1.5-1.1-2.9-2.6-2.3l-1.6,0.7c-0.6,0.2-1.2,0.2-1.8-0.2l-1.5-1c-1.3-0.9-3.1,0.2-3,1.8
		l0.1,1.8c0,0.3,0,0.5-0.1,0.7l-0.7-0.8c-0.4-0.5-0.6-1.1-0.4-1.7l0.5-1.7c0.4-1.5-1.1-2.9-2.6-2.3l-1.6,0.7
		c-0.6,0.2-1.2,0.2-1.8-0.2l-1.5-1c-1.3-0.9-3.1,0.2-3,1.8l0.1,1.8c0,0.6-0.2,1.2-0.7,1.6l-1.4,1.1c-1.2,1-0.8,3,0.8,3.4l1.7,0.4
		c0.6,0.1,1.1,0.6,1.3,1.2l0,0l-1.3,0.6c-0.6,0.2-1.2,0.2-1.8-0.2l-1.5-1c-1.3-0.9-3.1,0.2-3,1.8l0.1,1.8c0,0.6-0.2,1.2-0.7,1.6
		l-1.4,1.1c-0.1,0.1-0.1,0.1-0.2,0.2l-0.3,0c-0.6,0-1.2-0.3-1.6-0.8l-1.1-1.4c-0.9-1.3-2.9-0.9-3.4,0.6l-0.5,1.7
		c-0.2,0.6-0.6,1.1-1.2,1.3l-1.7,0.6c-1.5,0.5-1.8,2.5-0.5,3.4l1.5,1c0.5,0.4,0.8,0.9,0.8,1.6l0,0.1c0,0,0,0,0,0l-0.8,0.7
		c0.3-1.5-1.2-2.7-2.6-2.1l-1.6,0.7c-0.6,0.2-1.2,0.2-1.8-0.2l-1.5-1c-1.3-0.9-3.1,0.2-3,1.8l0.1,1.8c0,0.6-0.2,1.2-0.7,1.6
		l-1.4,1.1c-1.2,1-0.8,3,0.8,3.4l1.7,0.4c0.6,0.1,1.1,0.6,1.3,1.2l0,0l-1.3,0.6c-0.6,0.2-1.2,0.2-1.8-0.2l-1.5-1
		c-1.3-0.9-3.1,0.2-3,1.8l0.1,1.8c0,0.6-0.2,1.2-0.7,1.6l-1.4,1.1c-0.1,0.1-0.1,0.1-0.2,0.2l-0.3,0c-0.6,0-1.2-0.3-1.6-0.8l-1.1-1.4
		c-0.9-1.3-2.9-0.9-3.4,0.6l-0.5,1.7c-0.2,0.6-0.6,1.1-1.2,1.3l-1.7,0.6c-1.5,0.5-1.8,2.5-0.5,3.4l1.5,1c0.5,0.4,0.8,0.9,0.8,1.6
		l0,0.1c0,0,0,0,0,0l-1.3,1.2c-0.5,0.4-1.1,0.6-1.7,0.4l-1.7-0.4c-1.1-0.3-2.1,0.4-2.3,1.4H1009.9z"/>
	<path class="st7" d="M917.5,989.3l1.5-0.1c0.5,0,1,0.2,1.4,0.6l0.9,1.2c0,0.1,0.1,0.1,0.1,0.1c-0.2,0-0.4,0-0.6,0l-1.4-0.4
		c-1.3-0.4-2.4,0.9-1.9,2.1l0.6,1.4c0.2,0.5,0.1,1-0.1,1.5l-0.8,1.2c-0.7,1.1,0.1,2.6,1.4,2.5l1.5-0.1c0.5,0,1,0.2,1.4,0.6l0.9,1.2
		c0.1,0.2,0.3,0.3,0.4,0.4h1.6c0.3-0.2,0.6-0.5,0.7-1l0.4-1.4c0.1-0.5,0.5-0.9,1-1.1l1.4-0.5c1.2-0.5,1.4-2.1,0.3-2.8l-1.2-0.8
		c-0.4-0.3-0.7-0.8-0.7-1.3l0-0.8l0.3,0c0.5,0,1,0.2,1.4,0.6l0.9,1.2c0.1,0.1,0.2,0.3,0.4,0.3c0.1,0.4,0.2,0.9,0.2,1.3l0,4.5
		c0,0.7,0.2,1.3,0.4,1.9h12.1c0.2-0.5,0.1-1-0.2-1.4c1.1-0.5,2.3-0.6,3.5-0.2l4.3,1.4c1.4,0.4,2.8,0.2,3.9-0.4l1.2-0.1
		c0.5,0,1,0.2,1.4,0.6l0.2,0.2h29.1l-0.7-1.8c0.5-0.1,1-0.5,1.1-1.1l0.4-1.4c0.1-0.5,0.5-0.9,1-1.1l1.4-0.5c1.2-0.5,1.4-2.1,0.3-2.8
		l-1.2-0.8c-0.1-0.1-0.2-0.1-0.3-0.2l0.5-0.6c0.2-0.3,0.4-0.6,0.5-0.9l1.2-0.1c0.5,0,1,0.2,1.4,0.6l0.9,1.2c0.8,1,2.5,0.7,2.8-0.6
		l0.4-1.4c0.1-0.5,0.5-0.9,1-1.1l0.9-0.4c0,0,0,0,0,0l0.9,1.2c0.3,0.3,0.6,0.5,0.9,0.6c-0.2,0.4-0.2,0.8,0,1.3l0.6,1.4
		c0.2,0.5,0.1,1-0.1,1.5l-0.8,1.2c-0.7,1.1,0.1,2.6,1.4,2.5l1.5-0.1c0.5,0,1,0.2,1.4,0.6l0.9,1.2c0,0,0.1,0.1,0.1,0.1
		c0,0.1-0.1,0.2-0.1,0.3l-0.8,1.2c-0.1,0.2-0.2,0.3-0.2,0.5h10.8l0.1,0c1.2-0.5,1.4-2.1,0.3-2.8l-1.2-0.8c-0.4-0.3-0.7-0.8-0.7-1.3
		l-0.1-1.5c0-1-0.9-1.6-1.7-1.5c-0.1-0.2-0.3-0.5-0.6-0.6l-1.2-0.8c-0.4-0.3-0.7-0.8-0.7-1.3l-0.1-1.5c-0.1-1.3-1.6-2-2.6-1.1
		l-1.1,0.9c-0.4,0.3-0.9,0.5-1.4,0.3l-1.4-0.4c0,0-0.1,0-0.1,0c0-0.1,0.1-0.2,0.1-0.3l0.4-1.4c0.1-0.5,0.5-0.9,1-1.1l1.4-0.5
		c1.2-0.5,1.4-2.1,0.3-2.8l-1.2-0.8c-0.4-0.3-0.7-0.8-0.7-1.3l-0.1-1.5c-0.1-1.3-1.6-2-2.6-1.1l-1.1,0.9c-0.4,0.3-0.9,0.5-1.4,0.3
		l-1.4-0.4c-1-0.3-2,0.5-2,1.5c0,0,0,0,0,0l-1.1,0.9c-0.4,0.3-0.9,0.5-1.4,0.3l-1.4-0.4c-1.3-0.4-2.4,0.9-1.9,2.1l0.6,1.4
		c0,0,0,0,0,0c-0.7-0.8-1.5-1.3-2.6-1.6c-0.1-0.4-0.3-0.9-0.7-1.1l-1.2-0.8c-0.4-0.3-0.7-0.8-0.7-1.3l-0.1-1.5
		c-0.1-1.3-1.6-2-2.6-1.1l-1.1,0.9c-0.4,0.3-0.9,0.5-1.4,0.3l-0.9-0.2c0.5-0.1,1-0.5,1.1-1.1l0.4-1.4c0.1-0.5,0.5-0.9,1-1.1l0.5-0.2
		c0.3,0.1,0.6,0.3,0.8,0.5l0.9,1.2c0.8,1,2.5,0.7,2.8-0.6l0.2-0.9c0.3,0.1,0.6,0.2,0.9,0.2l1.5-0.1c0.5,0,1,0.2,1.4,0.6l0.9,1.2
		c0.8,1,2.5,0.7,2.8-0.6l0.4-1.4c0.1-0.5,0.5-0.9,1-1.1l1.4-0.5c1.2-0.5,1.4-2.1,0.3-2.8l-1.2-0.8c-0.4-0.3-0.7-0.8-0.7-1.3
		l-0.1-1.5c-0.1-1.3-1.6-2-2.6-1.1l-1.1,0.9c-0.1,0.1-0.2,0.2-0.3,0.2l-0.5-1.4c-0.2-0.5-0.1-1,0.2-1.5l0.9-1.2
		c0.8-1.1,0-2.6-1.3-2.5l-1.5,0c-0.5,0-1-0.2-1.3-0.6l-0.9-1.2c-0.8-1.1-2.4-0.8-2.8,0.5l-0.4,1.4c-0.1,0.5-0.5,0.9-1,1.1l-1.4,0.5
		c-0.7,0.2-1.1,0.9-1.1,1.6c-0.4-0.3-0.7-0.7-0.7-1.3l-0.1-1.5c-0.1-1.3-1.6-2-2.6-1.1l-1.1,0.9c-0.4,0.3-0.9,0.5-1.4,0.3l-1.4-0.4
		c-1.3-0.4-2.4,0.9-1.9,2.1l0.6,1.4c0.2,0.5,0.1,1-0.1,1.5l-0.8,1.2c-0.7,1.1,0.1,2.6,1.4,2.5l0.9-0.1c-0.1,0.3,0,0.6,0.1,0.9
		l0.6,1.4c0.1,0.3,0.1,0.6,0.1,1l-0.4,0c-0.5,0-1-0.2-1.3-0.6l-0.9-1.2c-0.8-1.1-2.4-0.8-2.8,0.5l-0.4,1.4c-0.1,0.5-0.5,0.9-1,1.1
		l-1.4,0.5c-1.3,0.4-1.5,2.1-0.4,2.8l1.2,0.8c0.4,0.3,0.7,0.8,0.7,1.3l0,1.5c0,0.2,0,0.3,0.1,0.5l-0.3,1c-0.8,0.3-1.3,1.2-1,2.1
		l0.2,0.4c-0.6,1.2-1.6,2.1-2.9,2.5l0,0c0-0.5-0.2-1-0.7-1.3l-1.2-0.8c-0.4-0.3-0.7-0.8-0.7-1.3l0-0.1l0.6-0.8
		c1-1.4,1.1-2.9,0.7-4.3l0.4,0.1c1.3,0.4,2.4-0.8,2-2.1l-0.5-1.4c-0.2-0.5-0.1-1,0.2-1.5l0.9-1.2c0.5-0.7,0.3-1.7-0.3-2.2
		c0.4-0.2,0.8-0.3,1.3-0.1l1.4,0.4c1.3,0.4,2.4-0.8,2-2.1l-0.5-1.4c-0.2-0.5-0.1-1,0.2-1.5l0.9-1.2c0.8-1.1,0-2.6-1.3-2.5l-1.5,0
		c-0.5,0-1-0.2-1.3-0.6l-0.9-1.2c-0.8-1.1-2.4-0.8-2.8,0.5l-0.3,0.9c0,0,0,0,0-0.1l-0.5-1.4c-0.2-0.5-0.1-1,0.2-1.5l0.9-1.2
		c0.8-1.1,0-2.6-1.3-2.5l-1.5,0c-0.5,0-1-0.2-1.3-0.6l-0.9-1.2c-0.8-1.1-2.4-0.8-2.8,0.5l-0.4,1.4c-0.1,0.5-0.5,0.9-1,1.1l-1.4,0.5
		c-1.3,0.4-1.5,2.1-0.4,2.8l0.8,0.5l-0.6,0c-0.5,0-1-0.2-1.3-0.6l-0.9-1.2c-0.8-1.1-2.4-0.8-2.8,0.5l-0.4,1.4
		c-0.1,0.5-0.5,0.9-1,1.1l-0.8,0.3l0-0.8c0.1-1.3-1.4-2.1-2.5-1.4l-1.2,0.8c-0.4,0.3-1,0.4-1.5,0.2l-1.4-0.5
		c-1.2-0.5-2.5,0.7-2.1,1.9l0.4,1.4c0.1,0.5,0,1-0.3,1.5l-0.9,1.1c-0.5,0.6-0.4,1.3-0.1,1.8c-0.4,0.4-0.7,1-0.5,1.6l0.4,1.4
		c0.1,0.5,0,1-0.3,1.5l-0.9,1.1c0,0,0,0.1-0.1,0.1c-0.5-0.3-1.2-0.3-1.7,0.2l-1.1,0.9c-0.4,0.3-0.9,0.5-1.4,0.3l-1.4-0.4
		c-1.3-0.4-2.4,0.9-1.9,2.1l0.6,1.4c0.2,0.5,0.1,1-0.1,1.5l-0.8,1.2c-0.2,0.3-0.2,0.5-0.3,0.8c-0.3,0.1-0.7,0.2-1,0.1l-1.4-0.4
		c-1.3-0.4-2.4,0.9-1.9,2.1l0.6,1.4c0.2,0.5,0.1,1-0.1,1.5l-0.8,1.2C915.4,987.9,916.2,989.3,917.5,989.3z"/>
</g>
<g>
	<path class="st6" d="M790.6,1001.6c-0.2-0.4-0.5-0.8-0.9-1.1c0.2-0.4,0.4-0.7,0.7-0.9l1.5-0.9c1.4-0.8,1.2-2.9-0.3-3.4l-0.6-0.2
		c0-0.3,0-0.6-0.1-0.9l-0.6-1.7c-0.2-0.6-0.1-1.3,0.2-1.8l1-1.4c0.9-1.3,0-3.1-1.6-3l-1.8,0.1c-0.6,0-1.2-0.3-1.6-0.8l-1.1-1.4
		c-0.9-1.3-2.9-0.9-3.4,0.6l-0.5,1.7c-0.2,0.6-0.6,1.1-1.2,1.3l-0.9,0.3c-0.4-0.6-0.5-1.4-0.3-2.1l0.6-2.4c0.3-1.2-0.2-2.4-1.2-3
		c0.2-0.4,0.4-0.7,0.7-0.9l1.5-0.9c1.4-0.8,1.2-2.9-0.3-3.4l-1.7-0.6c-0.6-0.2-1-0.7-1.2-1.3l-0.4-1.7c-0.4-1.5-2.2-1.9-3.2-0.9
		l0.1-0.1c0.9-1.3,0-3.1-1.6-3l-1.8,0.1c-0.6,0-1.2-0.3-1.6-0.8l-1.1-1.4c-0.9-1.3-2.9-0.9-3.4,0.6l-0.5,1.7
		c-0.2,0.6-0.6,1.1-1.2,1.3l-0.9,0.3c-0.4-0.6-0.5-1.4-0.3-2.1l0.6-2.4c0.3-1.2-0.2-2.4-1.2-3c0.2-0.4,0.4-0.7,0.7-0.9l1.5-0.9
		c1.4-0.8,1.2-2.9-0.3-3.4l-1.7-0.6c-0.6-0.2-1-0.7-1.2-1.3L760,953c-0.4-1.5-2.4-2-3.4-0.8l-1.1,1.4c-0.4,0.5-1,0.8-1.6,0.7
		l-1.8-0.1c-1.6-0.1-2.6,1.6-1.8,3l1,1.5c0.3,0.5,0.4,1.2,0.2,1.8l-0.2,0.4c-1.2-0.4-2.4,0.1-3.1,1l-0.7-0.8
		c-0.4-0.5-0.6-1.1-0.4-1.7l0.5-1.7c0.4-1.5-1.1-2.9-2.6-2.3l-1.6,0.7c-0.6,0.2-1.2,0.2-1.8-0.2l-1.5-1c-1.3-0.9-3.1,0.2-3,1.8
		l0.1,1.8c0,0.6-0.2,1.2-0.7,1.6l-1.4,1.1c-0.5,0.4-0.7,1-0.7,1.6c-0.1,0-0.1,0-0.2,0c0.3-0.6,0.2-1.4-0.3-2l-1.2-1.4
		c-0.4-0.5-0.6-1.1-0.4-1.7l0.5-1.7c0.4-1.5-1.1-2.9-2.6-2.3l-1.6,0.7c-0.6,0.2-1.2,0.2-1.8-0.2l-1.5-1c-1.3-0.9-3.1,0.2-3,1.8
		l0.1,1.8c0,0.3,0,0.5-0.1,0.7l-0.7-0.8c-0.4-0.5-0.6-1.1-0.4-1.7l0.5-1.7c0.4-1.5-1.1-2.9-2.6-2.3l-1.6,0.7
		c-0.6,0.2-1.2,0.2-1.8-0.2l-1.5-1c-1.3-0.9-3.1,0.2-3,1.8l0.1,1.8c0,0.6-0.2,1.2-0.7,1.6l-1.4,1.1c-1.2,1-0.8,3,0.8,3.4l1.7,0.4
		c0.6,0.1,1.1,0.6,1.3,1.2l0,0l-1.3,0.6c-0.6,0.2-1.2,0.2-1.8-0.2l-1.5-1c-1.3-0.9-3.1,0.2-3,1.8l0.1,1.8c0,0.6-0.2,1.2-0.7,1.6
		l-1.4,1.1c-0.1,0.1-0.1,0.1-0.2,0.2l-0.3,0c-0.6,0-1.2-0.3-1.6-0.8l-1.1-1.4c-0.9-1.3-2.9-0.9-3.4,0.6l-0.5,1.7
		c-0.2,0.6-0.6,1.1-1.2,1.3l-1.7,0.6c-1.5,0.5-1.8,2.5-0.5,3.4l1.5,1c0.5,0.4,0.8,0.9,0.8,1.6l0,0.1c0,0,0,0,0,0l-0.8,0.7
		c0.3-1.5-1.2-2.7-2.6-2.1l-1.6,0.7c-0.6,0.2-1.2,0.2-1.8-0.2l-1.5-1c-1.3-0.9-3.1,0.2-3,1.8l0.1,1.8c0,0.6-0.2,1.2-0.7,1.6
		l-1.4,1.1c-1.2,1-0.8,3,0.8,3.4l1.7,0.4c0.6,0.1,1.1,0.6,1.3,1.2l0,0l-1.3,0.6c-0.6,0.2-1.2,0.2-1.8-0.2l-1.5-1
		c-1.3-0.9-3.1,0.2-3,1.8l0.1,1.8c0,0.6-0.2,1.2-0.7,1.6l-1.4,1.1c-0.1,0.1-0.1,0.1-0.2,0.2l-0.3,0c-0.6,0-1.2-0.3-1.6-0.8l-1.1-1.4
		c-0.9-1.3-2.9-0.9-3.4,0.6l-0.5,1.7c-0.2,0.6-0.6,1.1-1.2,1.3l-1.7,0.6c-1.5,0.5-1.8,2.5-0.5,3.4l1.5,1c0.5,0.4,0.8,0.9,0.8,1.6
		l0,0.1c0,0,0,0,0,0l-1.3,1.2c-0.5,0.4-1.1,0.6-1.7,0.4l-1.7-0.4c-1.1-0.3-2.1,0.4-2.3,1.4H790.6z"/>
	<path class="st7" d="M698.2,989.3l1.5-0.1c0.5,0,1,0.2,1.4,0.6l0.9,1.2c0,0.1,0.1,0.1,0.1,0.1c-0.2,0-0.4,0-0.6,0l-1.4-0.4
		c-1.3-0.4-2.4,0.9-1.9,2.1l0.6,1.4c0.2,0.5,0.1,1-0.1,1.5l-0.8,1.2c-0.7,1.1,0.1,2.6,1.4,2.5l1.5-0.1c0.5,0,1,0.2,1.4,0.6l0.9,1.2
		c0.1,0.2,0.3,0.3,0.4,0.4h1.6c0.3-0.2,0.6-0.5,0.7-1l0.4-1.4c0.1-0.5,0.5-0.9,1-1.1l1.4-0.5c1.2-0.5,1.4-2.1,0.3-2.8l-1.2-0.8
		c-0.4-0.3-0.7-0.8-0.7-1.3l0-0.8l0.3,0c0.5,0,1,0.2,1.4,0.6l0.9,1.2c0.1,0.1,0.2,0.3,0.4,0.3c0.1,0.4,0.2,0.9,0.2,1.3l0,4.5
		c0,0.7,0.2,1.3,0.4,1.9h12.1c0.2-0.5,0.1-1-0.2-1.4c1.1-0.5,2.3-0.6,3.5-0.2l4.3,1.4c1.4,0.4,2.8,0.2,3.9-0.4l1.2-0.1
		c0.5,0,1,0.2,1.4,0.6l0.2,0.2h29.1l-0.7-1.8c0.5-0.1,1-0.5,1.1-1.1l0.4-1.4c0.1-0.5,0.5-0.9,1-1.1l1.4-0.5c1.2-0.5,1.4-2.1,0.3-2.8
		l-1.2-0.8c-0.1-0.1-0.2-0.1-0.3-0.2l0.5-0.6c0.2-0.3,0.4-0.6,0.5-0.9l1.2-0.1c0.5,0,1,0.2,1.4,0.6l0.9,1.2c0.8,1,2.5,0.7,2.8-0.6
		l0.4-1.4c0.1-0.5,0.5-0.9,1-1.1l0.9-0.4c0,0,0,0,0,0l0.9,1.2c0.3,0.3,0.6,0.5,0.9,0.6c-0.2,0.4-0.2,0.8,0,1.3l0.6,1.4
		c0.2,0.5,0.1,1-0.1,1.5l-0.8,1.2c-0.7,1.1,0.1,2.6,1.4,2.5l1.5-0.1c0.5,0,1,0.2,1.4,0.6l0.9,1.2c0,0,0.1,0.1,0.1,0.1
		c0,0.1-0.1,0.2-0.1,0.3l-0.8,1.2c-0.1,0.2-0.2,0.3-0.2,0.5h10.8l0.1,0c1.2-0.5,1.4-2.1,0.3-2.8l-1.2-0.8c-0.4-0.3-0.7-0.8-0.7-1.3
		l-0.1-1.5c0-1-0.9-1.6-1.7-1.5c-0.1-0.2-0.3-0.5-0.6-0.6l-1.2-0.8c-0.4-0.3-0.7-0.8-0.7-1.3l-0.1-1.5c-0.1-1.3-1.6-2-2.6-1.1
		l-1.1,0.9c-0.4,0.3-0.9,0.5-1.4,0.3l-1.4-0.4c0,0-0.1,0-0.1,0c0-0.1,0.1-0.2,0.1-0.3l0.4-1.4c0.1-0.5,0.5-0.9,1-1.1l1.4-0.5
		c1.2-0.5,1.4-2.1,0.3-2.8l-1.2-0.8c-0.4-0.3-0.7-0.8-0.7-1.3l-0.1-1.5c-0.1-1.3-1.6-2-2.6-1.1l-1.1,0.9c-0.4,0.3-0.9,0.5-1.4,0.3
		l-1.4-0.4c-1-0.3-2,0.5-2,1.5c0,0,0,0,0,0l-1.1,0.9c-0.4,0.3-0.9,0.5-1.4,0.3l-1.4-0.4c-1.3-0.4-2.4,0.9-1.9,2.1l0.6,1.4
		c0,0,0,0,0,0c-0.7-0.8-1.5-1.3-2.6-1.6c-0.1-0.4-0.3-0.9-0.7-1.1l-1.2-0.8c-0.4-0.3-0.7-0.8-0.7-1.3l-0.1-1.5
		c-0.1-1.3-1.6-2-2.6-1.1l-1.1,0.9c-0.4,0.3-0.9,0.5-1.4,0.3l-0.9-0.2c0.5-0.1,1-0.5,1.1-1.1l0.4-1.4c0.1-0.5,0.5-0.9,1-1.1l0.5-0.2
		c0.3,0.1,0.6,0.3,0.8,0.5l0.9,1.2c0.8,1,2.5,0.7,2.8-0.6l0.2-0.9c0.3,0.1,0.6,0.2,0.9,0.2l1.5-0.1c0.5,0,1,0.2,1.4,0.6l0.9,1.2
		c0.8,1,2.5,0.7,2.8-0.6l0.4-1.4c0.1-0.5,0.5-0.9,1-1.1l1.4-0.5c1.2-0.5,1.4-2.1,0.3-2.8l-1.2-0.8c-0.4-0.3-0.7-0.8-0.7-1.3
		l-0.1-1.5c-0.1-1.3-1.6-2-2.6-1.1l-1.1,0.9c-0.1,0.1-0.2,0.2-0.3,0.2l-0.5-1.4c-0.2-0.5-0.1-1,0.2-1.5l0.9-1.2
		c0.8-1.1,0-2.6-1.3-2.5l-1.5,0c-0.5,0-1-0.2-1.3-0.6l-0.9-1.2c-0.8-1.1-2.4-0.8-2.8,0.5l-0.4,1.4c-0.1,0.5-0.5,0.9-1,1.1l-1.4,0.5
		c-0.7,0.2-1.1,0.9-1.1,1.6c-0.4-0.3-0.7-0.7-0.7-1.3l-0.1-1.5c-0.1-1.3-1.6-2-2.6-1.1l-1.1,0.9c-0.4,0.3-0.9,0.5-1.4,0.3l-1.4-0.4
		c-1.3-0.4-2.4,0.9-1.9,2.1l0.6,1.4c0.2,0.5,0.1,1-0.1,1.5l-0.8,1.2c-0.7,1.1,0.1,2.6,1.4,2.5l0.9-0.1c-0.1,0.3,0,0.6,0.1,0.9
		l0.6,1.4c0.1,0.3,0.1,0.6,0.1,1l-0.4,0c-0.5,0-1-0.2-1.3-0.6l-0.9-1.2c-0.8-1.1-2.4-0.8-2.8,0.5l-0.4,1.4c-0.1,0.5-0.5,0.9-1,1.1
		l-1.4,0.5c-1.3,0.4-1.5,2.1-0.4,2.8l1.2,0.8c0.4,0.3,0.7,0.8,0.7,1.3l0,1.5c0,0.2,0,0.3,0.1,0.5l-0.3,1c-0.8,0.3-1.3,1.2-1,2.1
		l0.2,0.4c-0.6,1.2-1.6,2.1-2.9,2.5l0,0c0-0.5-0.2-1-0.7-1.3l-1.2-0.8c-0.4-0.3-0.7-0.8-0.7-1.3l0-0.1l0.6-0.8
		c1-1.4,1.1-2.9,0.7-4.3l0.4,0.1c1.3,0.4,2.4-0.8,2-2.1l-0.5-1.4c-0.2-0.5-0.1-1,0.2-1.5l0.9-1.2c0.5-0.7,0.3-1.7-0.3-2.2
		c0.4-0.2,0.8-0.3,1.3-0.1l1.4,0.4c1.3,0.4,2.4-0.8,2-2.1l-0.5-1.4c-0.2-0.5-0.1-1,0.2-1.5l0.9-1.2c0.8-1.1,0-2.6-1.3-2.5l-1.5,0
		c-0.5,0-1-0.2-1.3-0.6l-0.9-1.2c-0.8-1.1-2.4-0.8-2.8,0.5l-0.3,0.9c0,0,0,0,0-0.1l-0.5-1.4c-0.2-0.5-0.1-1,0.2-1.5l0.9-1.2
		c0.8-1.1,0-2.6-1.3-2.5l-1.5,0c-0.5,0-1-0.2-1.3-0.6l-0.9-1.2c-0.8-1.1-2.4-0.8-2.8,0.5l-0.4,1.4c-0.1,0.5-0.5,0.9-1,1.1l-1.4,0.5
		c-1.3,0.4-1.5,2.1-0.4,2.8l0.8,0.5l-0.6,0c-0.5,0-1-0.2-1.3-0.6l-0.9-1.2c-0.8-1.1-2.4-0.8-2.8,0.5l-0.4,1.4
		c-0.1,0.5-0.5,0.9-1,1.1l-0.8,0.3l0-0.8c0.1-1.3-1.4-2.1-2.5-1.4l-1.2,0.8c-0.4,0.3-1,0.4-1.5,0.2l-1.4-0.5
		c-1.2-0.5-2.5,0.7-2.1,1.9l0.4,1.4c0.1,0.5,0,1-0.3,1.5l-0.9,1.1c-0.5,0.6-0.4,1.3-0.1,1.8c-0.4,0.4-0.7,1-0.5,1.6l0.4,1.4
		c0.1,0.5,0,1-0.3,1.5l-0.9,1.1c0,0,0,0.1-0.1,0.1c-0.5-0.3-1.2-0.3-1.7,0.2l-1.1,0.9c-0.4,0.3-0.9,0.5-1.4,0.3l-1.4-0.4
		c-1.3-0.4-2.4,0.9-1.9,2.1l0.6,1.4c0.2,0.5,0.1,1-0.1,1.5l-0.8,1.2c-0.2,0.3-0.2,0.5-0.3,0.8c-0.3,0.1-0.7,0.2-1,0.1l-1.4-0.4
		c-1.3-0.4-2.4,0.9-1.9,2.1l0.6,1.4c0.2,0.5,0.1,1-0.1,1.5l-0.8,1.2C696,987.9,696.9,989.3,698.2,989.3z"/>
</g>
<g>
	<rect x="798.9" y="821.4" class="st15" width="71.1" height="131"/>
	<rect x="802.5" y="825" class="st27" width="63.9" height="123.8"/>
	<path class="st28" d="M828.3,945.2c-9.7,0-17.6-8.5-17.6-19v-78.5c0-10.5,7.9-19,17.6-19h12.5c9.7,0,17.6,8.5,17.6,19v78.5
		c0,10.5-7.9,19-17.6,19H828.3z"/>
	<g>
		<g>
			<rect x="817.8" y="851.7" class="st15" width="19" height="17.6"/>
		</g>
		<g>
			<rect x="832.2" y="851.7" class="st15" width="19" height="17.6"/>
		</g>
		<g>
			<rect x="832.2" y="864.5" class="st15" width="19" height="18.1"/>
		</g>
		<g>
			<rect x="817.8" y="864.5" class="st15" width="19" height="18.1"/>
		</g>
	</g>
	<rect x="821.4" y="855.2" class="st16" width="11.8" height="10.4"/>
	<rect x="835.8" y="855.2" class="st16" width="11.8" height="10.4"/>
	<rect x="835.8" y="868.1" class="st16" width="11.8" height="10.9"/>
	<rect x="821.4" y="868.1" class="st16" width="11.8" height="10.9"/>
	<rect x="860.6" y="857.7" class="st24" width="4.3" height="37.2"/>
</g>
<rect x="774" y="951.1" class="st24" width="121.1" height="16.9"/>
<line class="st29" x1="774" y1="951.1" x2="895.1" y2="951.1"/>
<rect x="753.4" y="984.8" class="st24" width="162.5" height="17.3"/>
<rect x="767.7" y="968" class="st24" width="133.9" height="16.9"/>
<line class="st30" x1="767.7" y1="968" x2="901.6" y2="968"/>
<line class="st29" x1="753.4" y1="984.8" x2="916" y2="984.8"/>
<g>
	<circle class="st25" cx="747.3" cy="846.6" r="8.2"/>
	<path class="st15" d="M740.2,836v0.2c0,3.6,3.2,6.6,7.2,6.6h0c4,0,7.2-2.9,7.2-6.6V836H740.2z"/>
	<path class="st15" d="M744.7,837.6v0.4c0,6.8,1.2,12.3,2.7,12.3l0,0c1.5,0,2.7-5.5,2.7-12.3v-0.4H744.7z"/>
	<path class="st15" d="M753.8,824.1c-0.5-3.6-3.2-6.3-6.5-6.3l0,0c-3.3,0-6,2.7-6.5,6.3H753.8z"/>
	<path class="st15" d="M749.3,820.4c-0.1-3.6-1-6.3-2-6.3l0,0c-1,0-1.8,2.7-2,6.3H749.3z"/>
	<path class="st15" d="M755.9,825.8c-0.6-1.9-4.2-3.3-8.5-3.3h0c-4.3,0-7.9,1.4-8.5,3.3H755.9z"/>
	<path class="st26" d="M740.8,826.8v9.2h13.1v-9.2c0-0.3,0-0.7-0.1-1h-12.9C740.8,826.1,740.8,826.4,740.8,826.8z"/>
	<rect x="752.7" y="825.1" class="st15" width="1.2" height="11.9"/>
	<rect x="740.8" y="825.1" class="st15" width="1.2" height="11.9"/>
</g>
<g>
	<circle class="st25" cx="922.7" cy="846.6" r="8.2"/>
	<path class="st15" d="M915.5,836v0.2c0,3.6,3.2,6.6,7.2,6.6h0c4,0,7.2-2.9,7.2-6.6V836H915.5z"/>
	<path class="st15" d="M920,837.6v0.4c0,6.8,1.2,12.3,2.7,12.3h0c1.5,0,2.7-5.5,2.7-12.3v-0.4H920z"/>
	<path class="st15" d="M929.1,824.1c-0.5-3.6-3.2-6.3-6.5-6.3h0c-3.3,0-6,2.7-6.5,6.3H929.1z"/>
	<path class="st15" d="M924.6,820.4c-0.1-3.6-1-6.3-2-6.3h0c-1,0-1.8,2.7-2,6.3H924.6z"/>
	<path class="st15" d="M931.2,825.8c-0.6-1.9-4.2-3.3-8.5-3.3h0c-4.3,0-7.9,1.4-8.5,3.3H931.2z"/>
	<path class="st26" d="M916.1,826.8v9.2h13.1v-9.2c0-0.3,0-0.7-0.1-1h-12.9C916.1,826.1,916.1,826.4,916.1,826.8z"/>
	<rect x="928" y="825.1" class="st15" width="1.2" height="11.9"/>
	<rect x="916.1" y="825.1" class="st15" width="1.2" height="11.9"/>
</g>
<g>
	<rect x="1255.2" y="930.9" class="st25" width="5.2" height="70.5"/>
	<rect x="1313.1" y="930.9" class="st25" width="4.7" height="70.5"/>
	<rect x="1370.6" y="930.9" class="st25" width="5.2" height="70.5"/>
	<rect x="1255.2" y="934.9" class="st15" width="5.2" height="39.8"/>
	<rect x="1313.1" y="934.9" class="st15" width="4.7" height="39.8"/>
	<rect x="1370.6" y="934.9" class="st15" width="5.2" height="39.8"/>
	<path class="st31" d="M1248.2,935c0-0.9,0.7-1.7,1.7-1.7h132.8c0.9,0,1.7,0.7,1.7,1.7"/>
	<path class="st7" d="M1247.4,967.1h139.8c1,0,1.8,1,1.8,2.4l0,0c0,1.3-0.8,2.4-1.8,2.4h-139.8c-1,0-1.8-1-1.8-2.4l0,0
		C1245.6,968.1,1246.4,967.1,1247.4,967.1z"/>
	<g>
		<path class="st32" d="M1249.9,933.3h132.8c0.9,0,1.7,0.7,1.7,1.7v5.5c0,0.9-0.7,1.7-1.7,1.7h-132.8c-0.9,0-1.7-0.7-1.7-1.7V935
			C1248.2,934.1,1248.9,933.3,1249.9,933.3z"/>
		<circle class="st33" cx="1373.2" cy="937.9" r="1.6"/>
		<circle class="st33" cx="1315.4" cy="937.9" r="1.6"/>
		<circle class="st33" cx="1257.7" cy="937.9" r="1.6"/>
		<path class="st31" d="M1248.2,935c0-0.9,0.7-1.7,1.7-1.7h132.8c0.9,0,1.7,0.7,1.7,1.7"/>
	</g>
	<g>
		<path class="st32" d="M1249.9,955.8h132.8c0.9,0,1.7,0.7,1.7,1.7v5.5c0,0.9-0.7,1.7-1.7,1.7h-132.8c-0.9,0-1.7-0.7-1.7-1.7v-5.5
			C1248.2,956.6,1248.9,955.8,1249.9,955.8z"/>
		<circle class="st33" cx="1373.2" cy="960.4" r="1.6"/>
		<circle class="st33" cx="1315.4" cy="960.4" r="1.6"/>
		<circle class="st33" cx="1257.7" cy="960.4" r="1.6"/>
		<path class="st31" d="M1248.2,957.5c0-0.9,0.7-1.7,1.7-1.7h132.8c0.9,0,1.7,0.7,1.7,1.7"/>
	</g>
	<g>
		<path class="st32" d="M1249.9,944.5h132.8c0.9,0,1.7,0.7,1.7,1.7v5.5c0,0.9-0.7,1.7-1.7,1.7h-132.8c-0.9,0-1.7-0.7-1.7-1.7v-5.5
			C1248.2,945.3,1248.9,944.5,1249.9,944.5z"/>
		<circle class="st33" cx="1373.2" cy="949.1" r="1.6"/>
		<circle class="st33" cx="1315.4" cy="949.1" r="1.6"/>
		<circle class="st33" cx="1257.7" cy="949.1" r="1.6"/>
		<path class="st31" d="M1248.2,946.2c0-0.9,0.7-1.7,1.7-1.7h132.8c0.9,0,1.7,0.7,1.7,1.7"/>
	</g>
</g>
<g>
	<path class="st4" d="M1151.9,965.9c0,0-2.3,1-2.3,2.9c0,1.9,0.8,2.2,0.7,2.6c-0.1,0.4-3.6,3.6-5.5,4.9s-2.1,3.2-3,4.5
		s-2.5,1.1-3,0.8c-0.5-0.3-0.9-3.4,0.1-6.7c1-3.3,3.1-3.8,4-6.9c0.9-3.1,1.8-4.7,2.4-5c0.6-0.4,2.7,0.8,3.7,1.3
		C1150.1,964.7,1151.9,965.9,1151.9,965.9z"/>
	<path class="st3" d="M1145,974.5l1.3-0.6l-2.3-6.2l-0.3,5.7l-1.1-0.1l0.7,4.8c0.4-0.6,0.9-1.3,1.6-1.8c0.2-0.1,0.3-0.2,0.5-0.4
		L1145,974.5z"/>
	<path class="st34" d="M1151.7,966c-0.5,0.3-2.1,1.2-2.1,2.8c0,1.7,0.7,2.1,0.7,2.5l4.2,0.7l0.7-5.5L1151.7,966z"/>
	<path class="st4" d="M1211.3,993.3c0,0,2.3,0.9,3.6-0.4c1.4-1.3,1-2.1,1.4-2.3s5.1,0.1,7.3,0.6c2.2,0.5,3.8-0.7,5.4-1
		c1.6-0.3,2.5,1,2.7,1.5c0.1,0.6-1.8,3-4.9,4.6c-3.1,1.6-4.9,0.4-7.8,1.9s-4.6,2-5.3,1.8c-0.7-0.2-1.3-2.5-1.7-3.6
		S1211.3,993.3,1211.3,993.3z"/>
	<path class="st3" d="M1222.3,992.3l-1.3-0.5l-2.8,6l4.3-3.8l0.7,0.9l3-3.8c-0.7,0.2-1.5,0.3-2.4,0.1c-0.2,0-0.4-0.1-0.6-0.1
		L1222.3,992.3z"/>
	<path class="st34" d="M1211.5,993.4c0.6,0.2,2.3,0.6,3.4-0.5c1.2-1.2,1.1-1.9,1.3-2.2l-1.5-4.8l-4.4,3.3L1211.5,993.4z"/>
	<path class="st3" d="M1181.9,923.8c0,0,0,0.1-0.1,0.2c-0.7,0.9-3.8,4.9-5.1,9.5c-1.4,5.2,0.8,10.5,0.8,10.5s-1.8,21.5-1.8,22.6
		c-0.1,1.9-5.9-0.3-9.4-0.6c-4.4-0.3-9.4,0-10.4,0c-1.7,0-4,5.9-1.3,7c1.3,0.5,6.9,0.9,12.5,1.9c5.6,1,11.2,2.5,12.2,2.6
		c2,0.1,3.2-1.2,3.7-2c0.5-0.8,11.3-29,11.3-29s3.2-4.9,3.9-10.6c0.7-5.7,0.7-9.2,0.7-9.2L1181.9,923.8z"/>
	<path class="st3" d="M1197.3,931.4c0,0,16,28.1,16.6,29.5c0.6,1.4,0.2,7.1,0.4,10.9c0.1,5.1,1.3,12,2,14.1s1,2.1,0.2,2.7
		c-0.8,0.6-3.9,1.8-6,1.8s-4.9-10.4-5.4-17.3c-0.6-6.9-0.5-7-0.7-8.7c-0.2-1.8-13.3-14.7-13.3-14.7L1197.3,931.4z"/>
	<path class="st35" d="M1185.6,882.5c0,0-2,1.7-8,10.1c-4.2,5.9-5.3,7.8-5.6,8.2c-1.6,2.3-0.5,4.7,0.4,5.5c0.7,0.6,12,10.7,12,10.7
		l2.4-4.1c0,0-6.8-8.6-7.1-9.1s2.8-4.5,2.8-4.5l3.9-13.8L1185.6,882.5z"/>
	<polygon class="st35" points="1198.5,876.6 1196.5,884.9 1188,881.5 1190.7,869.4 1196.1,871.1 	"/>
	<path class="st4" d="M1187.8,878.8l9.5,4.7l-0.1,1.3c0,0,7.3,12,7.9,15.6c0.6,3.6-2.3,10.6-2.3,10.6s-0.8,8.4-1.6,13.5
		s-1.8,8.3-11.1,6.2c-9.2-2.1-9.9-4.9-8.9-7.3c1.1-2.4,2.6-5,2.6-5l-0.4-2.1l1.4-1.4c0,0-1.8-4.7-3.5-17.1s5.8-17.8,5.8-17.8
		L1187.8,878.8z"/>
	<path class="st34" d="M1206.4,870.6c-0.3-0.5-1.1-2.5-1.1-2.5s0.6-2.7,0.2-5.4c-0.3-1.9-1.2-3.6-1.7-4.3c-3.1-1.4-8,2-8.4,2.4
		c-0.4,0.4,0.1,1.8-0.3,3.1c-0.6,1.8-0.8,2.3-1.4,2.1c-0.6-0.2-0.2-1.1-1.9-1c-1.1,0-2.1,1.3-2.1,3c0,1.6,0.9,3,2.1,3
		c0.1,0,0.1,0,0.2,0c0.3,1.2,0.6,2.2,1.2,3.1c2,3.3,6.3,4.2,7,4.4c0.8,0.2,2.3,0.6,3-0.7c0.6-1,1.6-5.3,1.6-5.3s0.4-0.1,0.7-0.5
		C1205.9,871.6,1206.7,871.1,1206.4,870.6z"/>
	<path class="st36" d="M1189.7,868c0-1.6,0.9-2.9,2.1-3c1.7-0.1,1.3,0.8,1.9,1c0.6,0.2,0.8-0.3,1.4-2.1c0.4-1.3-0.1-2.7,0.3-3.1
		c0.4-0.4,5.3-3.9,8.4-2.4c0,0,0,0.1,0.1,0.1c0.2-0.3,0.9-2.5-3.8-4.5c-5.1-2.2-12.5-1.2-15.4,6.5c-0.3,0.8-0.5,1.6-0.6,2.4
		c-0.8,0.2-2,0.3-3.4-0.2c-2.5-0.9-6-2.3-8.9-0.6s-5.6,5.1-9.6,4c-3.9-1.1-6.3,0.1-6.3,0.1s2.7-0.5,5.1,1.6c2.5,2,11.8,6.3,17.6,3.1
		c3.1-1.7,4.8-3.1,5.7-4c1.3,4.1,5.6,6,5.6,6l0.7-2.4C1190.1,870,1189.7,869.1,1189.7,868z"/>
	<path class="st4" d="M1184.5,861.5l-0.2-0.3c-0.7-0.8-2-0.2-1.9,0.9l0.1,0.7c0.1,0.5-0.2,0.9-0.6,1.1l-0.6,0.3
		c-0.9,0.4-0.8,1.9,0.3,2l0.7,0.1c0.5,0.1,0.8,0.5,0.9,0.9l0.1,0.7c0.1,1,1.5,1.3,2,0.4C1184.1,866.8,1183.6,864.5,1184.5,861.5z"/>
	<path class="st34" d="M1199.1,907.4c0,0-5.2-14-6.8-17.8s-9.9-2.5-8.4,4.4c1.5,6.9,8.4,20.6,9,21.9c0.7,1.5,2.9,3.3,7.4,1.3
		c4.7-2.1,19-10.2,19-10.2s4.6-2.5,5.9-3.1c1.3-0.6,1.3-1.7,1.3-2c0-0.4-0.1-0.8-0.1-0.8s0.4-0.9,0.4-1.4s-0.6-0.9-0.6-0.9
		s0.4-0.6,0.1-1.3c-0.3-0.6-0.9-0.9-0.9-0.9s0.5-0.8-0.4-1.4c-0.8-0.6-1.8-0.2-2.2,0.1s-1,0.3-1,0.3s-1.2-0.1-2-0.2
		c-0.8-0.1-1.3,0.6-1.5,0.8c-0.2,0.2-1.4,4.1-1.7,4.4c-0.3,0.4-8.7,4.7-12.3,5.9C1200.6,907.9,1199.5,908.8,1199.1,907.4z"/>
	<ellipse cx="1202.2" cy="867.2" rx="0.5" ry="0.8"/>
	<g>
		<path d="M1199.5,865.4c-0.1,0-0.2,0-0.3-0.1c-0.2-0.2-0.2-0.4,0-0.6c0.1-0.1,0.6-0.6,2.1-0.9c1.5-0.3,2.3,0,2.4,0
			c0.2,0.1,0.3,0.3,0.2,0.6c-0.1,0.2-0.3,0.3-0.5,0.2c0,0-0.7-0.2-1.9,0c-1.2,0.2-1.6,0.6-1.6,0.6
			C1199.8,865.4,1199.6,865.4,1199.5,865.4z"/>
	</g>
	<path d="M1200.3,873.1c0,0-0.6,0.1-0.8,0.4c-0.2,0.3-0.2,0.8-0.2,0.8l1.4-1.1L1200.3,873.1z"/>
	<g>
		<path d="M1203,875.4C1203,875.4,1203,875.4,1203,875.4c-0.1,0-0.7-0.1-1.7-0.5c-0.9-0.4-1.5-1.1-1.6-1.1c-0.1-0.1-0.1-0.3,0-0.4
			c0.1-0.1,0.3-0.1,0.4,0c0,0,0.5,0.6,1.4,1c0.8,0.4,1.5,0.5,1.5,0.5c0.2,0,0.3,0.2,0.2,0.3C1203.2,875.3,1203.1,875.4,1203,875.4z"
			/>
	</g>
	<circle class="st10" cx="1192.3" cy="871.4" r="1"/>
	
		<rect x="1211.2" y="904.2" transform="matrix(0.4754 0.8798 -0.8798 0.4754 1434.0824 -594.4095)" class="st37" width="8.6" height="2.3"/>
	<path class="st37" d="M1214,907.6l-1.2-2.3c-0.2-0.5-0.1-1,0.4-1.3l2.5-1.4c0.5-0.2,1-0.1,1.3,0.4l1.2,2.3c0.2,0.5,0.1,1-0.4,1.3
		l-2.5,1.4C1214.8,908.2,1214.2,908.1,1214,907.6z"/>
	<path class="st0" d="M1214.4,906.4l-0.4-0.8c-0.2-0.4-0.1-1,0.4-1.2l0.9-0.5c0.4-0.2,1-0.1,1.2,0.4l0.4,0.8c0.2,0.4,0.1,1-0.4,1.2
		l-0.9,0.5C1215.2,907,1214.7,906.8,1214.4,906.4z"/>
</g>
<g>
	<path class="st6" d="M2349.2,793.5h30.4l0,0v8.5c0,8.4-6.8,15.2-15.2,15.2l0,0c-8.4,0-15.2-6.8-15.2-15.2V793.5L2349.2,793.5z"/>
	<path class="st12" d="M2318.8,793.5h30.4l0,0v8.5c0,8.4-6.8,15.2-15.2,15.2l0,0l0,0c-8.4,0-15.2-6.8-15.2-15.2V793.5L2318.8,793.5z
		"/>
	<path class="st6" d="M2288.4,793.5h30.4l0,0v8.5c0,8.4-6.8,15.2-15.2,15.2l0,0c-8.4,0-15.2-6.8-15.2-15.2V793.5L2288.4,793.5z"/>
	<path class="st12" d="M2258.1,793.5h30.4l0,0v8.5c0,8.4-6.8,15.2-15.2,15.2l0,0c-8.4,0-15.2-6.8-15.2-15.2V793.5L2258.1,793.5z"/>
	<path class="st6" d="M2227.7,793.5h30.4l0,0v8.5c0,8.4-6.8,15.2-15.2,15.2l0,0c-8.4,0-15.2-6.8-15.2-15.2V793.5L2227.7,793.5z"/>
	<path class="st12" d="M2197.3,793.5h30.4l0,0v8.5c0,8.4-6.8,15.2-15.2,15.2l0,0c-8.4,0-15.2-6.8-15.2-15.2V793.5L2197.3,793.5z"/>
	<path class="st6" d="M2166.9,793.5h30.4l0,0v8.5c0,8.4-6.8,15.2-15.2,15.2l0,0c-8.4,0-15.2-6.8-15.2-15.2V793.5L2166.9,793.5z"/>
	<path class="st12" d="M2136.6,793.5h30.4l0,0v8.5c0,8.4-6.8,15.2-15.2,15.2l0,0c-8.4,0-15.2-6.8-15.2-15.2V793.5L2136.6,793.5z"/>
	<path class="st6" d="M2106.2,793.5h30.4l0,0v8.5c0,8.4-6.8,15.2-15.2,15.2l0,0c-8.4,0-15.2-6.8-15.2-15.2V793.5L2106.2,793.5z"/>
	<path class="st12" d="M2075.8,793.5h30.4l0,0v8.5c0,8.4-6.8,15.2-15.2,15.2l0,0l0,0c-8.4,0-15.2-6.8-15.2-15.2V793.5L2075.8,793.5z
		"/>
	<path class="st6" d="M2045.4,793.5h30.4l0,0v8.5c0,8.4-6.8,15.2-15.2,15.2l0,0c-8.4,0-15.2-6.8-15.2-15.2L2045.4,793.5
		L2045.4,793.5z"/>
	<g>
		<rect x="2318.8" y="743.3" class="st10" width="30.4" height="50.2"/>
		<rect x="2258.1" y="743.3" class="st10" width="30.4" height="50.2"/>
		<rect x="2136.6" y="743.3" class="st10" width="30.4" height="50.2"/>
		<rect x="2197.3" y="743.3" class="st10" width="30.4" height="50.2"/>
		<rect x="2075.8" y="743.3" class="st10" width="30.4" height="50.2"/>
	</g>
	<g>
		<rect x="2288.4" y="743.3" class="st7" width="30.4" height="50.2"/>
		<rect x="2227.7" y="743.3" class="st7" width="30.4" height="50.2"/>
		<rect x="2349.2" y="743.3" class="st7" width="30.4" height="50.2"/>
		<rect x="2106.2" y="743.3" class="st7" width="30.4" height="50.2"/>
		<rect x="2166.9" y="743.3" class="st7" width="30.4" height="50.2"/>
		<rect x="2045.4" y="743.3" class="st7" width="30.4" height="50.2"/>
	</g>
</g>
<rect x="2044.9" y="740.7" class="st8" width="336.4" height="8.1"/>
<rect x="2044.9" y="735.7" class="st9" width="336.4" height="8.1"/>
<rect x="2042.2" y="726.7" class="st11" width="339.1" height="10.1"/>
<line class="st38" x1="2042.2" y1="726.7" x2="2381.3" y2="726.7"/>
<rect x="2042.2" y="981.5" class="st11" width="339.1" height="19.1"/>
<line class="st38" x1="2042.2" y1="981.5" x2="2381.3" y2="981.5"/>
<rect x="2188.1" y="847.7" class="st15" width="157" height="103.5"/>
<rect x="2073.2" y="847.7" class="st15" width="86.4" height="152.9"/>
<rect x="2191.7" y="851.3" class="st16" width="149.8" height="96.3"/>
<rect x="2076.8" y="851.3" class="st16" width="79.2" height="145.7"/>
<g>
	<polygon class="st20" points="2317.8,851.3 2294,851.3 2253.9,947 2276.8,947 	"/>
	<polygon class="st20" points="2191.7,896.2 2191.7,947 2193.3,947 2234.3,851.3 2210.5,851.3 	"/>
	<polygon class="st20" points="2323.5,851.3 2283.4,947 2293,947 2333.2,851.3 	"/>
</g>
<g>
	<polygon class="st20" points="2101.9,851.3 2076.8,911 2076.8,934 2111.5,851.3 	"/>
	<polygon class="st20" points="2122.6,997 2156,917.3 2156,878.2 2106.1,997 	"/>
	<polygon class="st20" points="2136.8,851.3 2120.4,851.3 2076.8,955.1 2076.8,994.3 	"/>
</g>
<rect x="2143" y="920.5" class="st15" width="9" height="23.5"/>
<g>
	<rect y="1000.3" class="st15" width="2382.3" height="2.8"/>
</g>
</svg>
