<?xml version="1.0" encoding="utf-8"?>
<!-- Generator: Adobe Illustrator 19.2.0, SVG Export Plug-In . SVG Version: 6.00 Build 0)  -->
<svg version="1.1" xmlns="http://www.w3.org/2000/svg" xmlns:xlink="http://www.w3.org/1999/xlink" x="0px"
	 y="0px" viewBox="0 0 175.3 141.8" style="enable-background:new 0 0 175.3 141.8;" xml:space="preserve">
<style type="text/css">
	.st0{fill:#8E9DA5;}
	.st1{fill:#60AEAE;}
	.st2{fill:#78CCD0;}
	.st3{fill:#6E777F;}
	.st4{fill:#7B858D;}
	.st5{fill:#A0B6BE;}
	.st6{fill:#5D6671;}
	.st7{opacity:0.6;fill:#B5E2EE;}
	.st8{fill:#A8CDDA;}
	.st9{fill:#CFDC38;}
</style>
<path class="st0" d="M69.5,121L46.1,90.6c-0.3-0.4-1.3-0.3-2.1,0.3c-0.8,0.6-1.2,1.5-0.8,1.9l23.3,30.4L69.5,121z"/>
<path class="st0" d="M109.2,121l23.3-30.4c0.3-0.4,1.3-0.3,2.1,0.3s1.2,1.5,0.8,1.9l-23.3,30.4L109.2,121z"/>
<rect x="59.3" y="91" class="st1" width="60" height="50.8"/>
<polygon class="st2" points="119.3,91 59.3,91 66.2,73.3 112.5,73.3 "/>
<ellipse transform="matrix(0.7123 -0.7019 0.7019 0.7123 -50.7043 56.3119)" class="st3" cx="43.3" cy="90" rx="3.5" ry="3.5"/>
<path class="st0" d="M70.9,60.3L43.6,87.2c-0.4,0.4-0.1,1.3,0.6,2s1.6,1,2,0.6l27.3-26.9L70.9,60.3z"/>
<ellipse transform="matrix(0.7019 -0.7123 0.7123 0.7019 -23.7651 123.2256)" class="st3" cx="135.3" cy="90" rx="3.5" ry="3.5"/>
<path class="st0" d="M107.8,60.3l27.3,26.9c0.4,0.4,0.1,1.3-0.6,2s-1.6,1-2,0.6l-27.3-26.9L107.8,60.3z"/>
<path class="st4" d="M100.2,45.1l25.8-12.9c1.5-0.8,2.8-2.5,2.8-3.8v-3.6c0-1.3-1.3-2-2.8-1.5l-23.9,7.5c-1.5,0.5-2.9,2-3,3.4
	l-1.3,9.7C97.6,45.4,98.7,45.9,100.2,45.1z"/>
<path class="st5" d="M123.9,15.8h9.9c1,0,1.7,0.8,1.7,1.8l1.5,5.9l-1.8,0.3l-1.9,6.7c-0.3,1-1.3,1.8-2.3,1.8h-5.2
	c-1,0-1.9-0.8-2-1.8l-0.8-6.7l-0.7-0.3v-5.9C122.2,16.6,122.9,15.8,123.9,15.8z"/>
<path class="st0" d="M125.8,38.2h5.2c1,0,2-0.8,2.3-1.8l3.7-12.9c0.3-1-0.3-1.8-1.3-1.8h-11.8c-1,0-1.7,0.8-1.6,1.8l1.5,12.9
	C124,37.4,124.9,38.2,125.8,38.2z"/>
<path class="st6" d="M133.4,3.9v14.8c0,0.8-1.9,1.4-4.3,1.4s-4.3-0.6-4.3-1.4V3.9H133.4z"/>
<ellipse class="st7" cx="128.6" cy="5.1" rx="28.9" ry="5.1"/>
<path class="st6" d="M124.9,3.9c0,0.8,1.9,1.4,4.3,1.4c2.4,0,4.3-0.6,4.3-1.4s-1.9-2.4-4.3-2.4C126.8,1.5,124.9,3.1,124.9,3.9z"/>
<path class="st4" d="M110.5,60.8l29.1,3.8c1.7,0.2,3.1-0.8,3.1-2.3v-4c0-1.5-1.4-3.1-3.1-3.7L112.7,46c-1.7-0.5-3.2,0.2-3.4,1.7
	l-1.5,10C107.6,59.1,108.8,60.5,110.5,60.8z"/>
<path class="st5" d="M137.2,46.5h11.5c1.1,0,1.9,0.9,1.9,2l1.5,6.7l-2.1,0.4l-2.2,7.5c-0.3,1.1-1.5,2-2.6,2h-5.8
	c-1.1,0-2.1-0.9-2.2-2l-0.9-7.6l-0.8-0.3v-6.7C135.3,47.4,136.1,46.5,137.2,46.5z"/>
<path class="st0" d="M139.4,71.7h5.8c1.1,0,2.3-0.9,2.6-2l4.2-14.6c0.3-1.1-0.3-2-1.4-2h-13.3c-1.1,0-1.9,0.9-1.8,2l1.7,14.6
	C137.3,70.8,138.3,71.7,139.4,71.7z"/>
<path class="st6" d="M148,33.7v16c0,0.9-2.2,1.6-4.8,1.6s-4.8-0.7-4.8-1.6v-16H148z"/>
<path class="st4" d="M75.1,45.1L49.2,32.3c-1.5-0.8-2.8-2.5-2.8-3.8v-3.6c0-1.3,1.3-2,2.8-1.5l23.9,7.5c1.5,0.5,2.9,2,3,3.4l1.3,9.7
	C77.7,45.4,76.6,45.9,75.1,45.1z"/>
<path class="st5" d="M51.4,15.8h-9.9c-1,0-1.7,0.8-1.7,1.8l-1.5,5.9l1.8,0.3l1.9,6.7c0.3,1,1.3,1.8,2.3,1.8h5.2c1,0,1.9-0.8,2-1.8
	l0.8-6.7l0.7-0.3v-5.9C53,16.6,52.3,15.8,51.4,15.8z"/>
<path class="st0" d="M49.5,38.2h-5.2c-1,0-2-0.8-2.3-1.8l-3.7-12.9c-0.3-1,0.3-1.8,1.3-1.8h11.8c1,0,1.7,0.8,1.6,1.8l-1.5,12.9
	C51.3,37.4,50.4,38.2,49.5,38.2z"/>
<path class="st6" d="M41.9,3.9v14.8c0,0.8,1.9,1.4,4.3,1.4s4.3-0.6,4.3-1.4V3.9H41.9z"/>
<ellipse class="st7" cx="46.7" cy="5.1" rx="28.9" ry="5.1"/>
<path class="st6" d="M50.4,3.9c0,0.8-1.9,1.4-4.3,1.4s-4.3-0.6-4.3-1.4s1.9-2.4,4.3-2.4S50.4,3.1,50.4,3.9z"/>
<path class="st4" d="M64.8,60.8l-29.1,3.8c-1.7,0.2-3.1-0.8-3.1-2.3v-4c0-1.5,1.4-3.1,3.1-3.7L62.6,46c1.7-0.5,3.2,0.2,3.4,1.7
	l1.5,10C67.7,59.1,66.5,60.5,64.8,60.8z"/>
<path class="st5" d="M38.1,46.5H26.6c-1.1,0-1.9,0.9-1.9,2l-1.5,6.7l2.1,0.4l2.2,7.5c0.3,1.1,1.5,2,2.6,2h5.8c1.1,0,2.1-0.9,2.2-2
	l0.9-7.6l0.8-0.3v-6.7C40,47.4,39.2,46.5,38.1,46.5z"/>
<path class="st0" d="M35.9,71.7h-5.8c-1.1,0-2.3-0.9-2.6-2l-4.2-14.6c-0.3-1.1,0.3-2,1.4-2h13.3c1.1,0,1.9,0.9,1.8,2l-1.7,14.6
	C38,70.8,37,71.7,35.9,71.7z"/>
<path class="st6" d="M27.3,33.7v16c0,0.9,2.2,1.6,4.8,1.6s4.8-0.7,4.8-1.6v-16H27.3z"/>
<path class="st5" d="M112.9,35.3c-0.9-4.4-5.2-7.9-9.6-7.9h-6.3H80.1h-6.3c-4.5,0-8.8,3.6-9.6,7.9L60,45.1c1.8-2.8,5-4.7,8.3-4.7
	h11.7h16.9h11.7c3.3,0,6.5,1.9,8.3,4.7L112.9,35.3z"/>
<path class="st6" d="M110.7,40.4H66.4c-4.4,0-7.2,3.6-6.3,7.9L64,61c1,4.4,5.4,7.9,9.8,7.9h29.4c4.4,0,8.8-3.6,9.8-7.9l4-12.6
	C117.9,44,115.1,40.4,110.7,40.4z"/>
<ellipse class="st7" cx="32.7" cy="35.1" rx="32.6" ry="5.7"/>
<path class="st6" d="M36.9,33.7c0,0.9-2.2,1.6-4.8,1.6s-4.8-0.7-4.8-1.6c0-0.9,2.2-2.7,4.8-2.7S36.9,32.8,36.9,33.7z"/>
<path class="st8" d="M104.9,33.3c0,1.6-7.5,2.9-16.8,2.9s-16.8-1.3-16.8-2.9s7.5-6.9,16.8-6.9S104.9,31.7,104.9,33.3z"/>
<ellipse class="st7" cx="142.6" cy="35.1" rx="32.6" ry="5.7"/>
<path class="st6" d="M138.4,33.7c0,0.9,2.2,1.6,4.8,1.6c2.7,0,4.8-0.7,4.8-1.6c0-0.9-2.2-2.7-4.8-2.7
	C140.5,31,138.4,32.8,138.4,33.7z"/>
<circle class="st9" cx="70.2" cy="49.5" r="2.4"/>
<title>Drone</title>
</svg>
