<?xml version="1.0" encoding="utf-8"?>
<!-- Generator: Adobe Illustrator 19.2.0, SVG Export Plug-In . SVG Version: 6.00 Build 0)  -->
<svg version="1.1" xmlns="http://www.w3.org/2000/svg" xmlns:xlink="http://www.w3.org/1999/xlink" x="0px"
	 y="0px" viewBox="0 0 506 504.5" style="enable-background:new 0 0 506 504.5;" xml:space="preserve">
<style type="text/css">
	.st0{clip-path:url(#SVGID_2_);fill:#F6F6F6;}
	.st1{clip-path:url(#SVGID_2_);fill:#773C35;}
	.st2{clip-path:url(#SVGID_2_);fill:#F06263;}
	.st3{clip-path:url(#SVGID_2_);fill:#BABABA;}
	.st4{clip-path:url(#SVGID_2_);fill:#D66B4D;}
	.st5{clip-path:url(#SVGID_2_);fill:#F48866;}
	.st6{clip-path:url(#SVGID_2_);fill:#BC5840;}
	.st7{clip-path:url(#SVGID_2_);fill:#FFFFFF;}
	.st8{clip-path:url(#SVGID_2_);fill:#752C1B;}
	.st9{clip-path:url(#SVGID_2_);fill:#602117;}
	.st10{clip-path:url(#SVGID_2_);}
	.st11{fill:#5BAFAF;}
	.st12{fill:#78CDD1;}
	.st13{fill:#78CCD0;}
	.st14{fill:#C7D4E2;}
	.st15{fill:#D1E42D;}
	.st16{fill:#FF8C00;}
</style>
<title>GirlVR</title>
<g>
	<defs>
		<path d="M262.9,460.1c-57.7,0-111.9-22.5-152.7-63.3c-40.8-40.8-63.3-95-63.3-152.7c0-57.7,22.5-111.9,63.3-152.7
			c40.8-40.8,95-63.3,152.7-63.3c57.7,0,111.9,22.5,152.7,63.3c40.8,40.8,63.3,95,63.3,152.7S456.5,356,415.7,396.8
			C374.9,437.6,320.6,460.1,262.9,460.1z"/>
	</defs>
	<clipPath>
		<use xlink:href="#SVGID_1_"  style="overflow:visible;"/>
	</clipPath>
	<path class="st0" d="M262.9,460.1c-57.7,0-111.9-22.5-152.7-63.3c-40.8-40.8-63.3-95-63.3-152.7c0-57.7,22.5-111.9,63.3-152.7
		c40.8-40.8,95-63.3,152.7-63.3c57.7,0,111.9,22.5,152.7,63.3c40.8,40.8,63.3,95,63.3,152.7S456.5,356,415.7,396.8
		C374.9,437.6,320.6,460.1,262.9,460.1z"/>
	<path class="st1" d="M341.9,365.5c8.6-84.5,13.6-155.8,13.6-173c0-48.3-39.1-87.4-87.4-87.4s-87.4,39.1-87.4,87.4
		c0,17.2,5,88.5,13.6,173H341.9z"/>
	<path class="st2" d="M399.3,401.7c-8-21.3-21.3-32-64-52.7c-42.7-20.7-65.3-19.3-65.3-19.3l-2.3,1.5l-2.3-1.5
		c0,0-22.7-1.3-65.3,19.3c-42.7,20.7-56,31.3-64,52.7s-9.3,71.3-9.3,71.3h124l158,0C408.7,473,407.3,423,399.3,401.7z"/>
	<path class="st3" d="M319.8,345.7c-0.9-17-3.7-22.7-6.6-28.5c-2.8-5.7-20.9-11.1-44.7-11.2c0,0-0.1,0-0.1,0c-0.1,0-0.2,0-0.3,0
		c-0.1,0-0.2,0-0.3,0c0,0-0.1,0-0.1,0c-23.8,0.1-41.9,5.5-44.7,11.2c-2.9,5.7-5.7,11.5-6.6,28.5c-0.9,17,9.8,31,9.8,31
		s5.7-17.5,15.2-20.1c9.5-2.6,12.4,4.3,26.7,4.3c14.4,0,17.2-6.9,26.7-4.3c9.5,2.6,15.2,20.1,15.2,20.1S320.7,362.6,319.8,345.7z"/>
	<path class="st4" d="M268.1,290.9l-36.5-9.9v38.5c0,0,15.9,34.7,34.7,36.9c0.6,0.1,1.2,0.2,1.8,0.2c0.6,0,1.2-0.1,1.8-0.2
		c18.8-2.2,34.7-36.9,34.7-36.9V281L268.1,290.9z"/>
	<path class="st5" d="M332.8,204.7c0.3-4.5,0.5-8.1,0.7-10.4c-0.8-0.6-1.6-1.3-2.4-1.9c-17.1-14.4-28-30.9-28.7-41.6
		c-11.8,11.2-35.1,23.6-63.4,32.5c-12.8,4-25.1,6.9-36.3,8.6c0.1,1.3,0.4,6.2,0.8,12.9c-5.1,0.8-8.6,10-7.7,21.1
		c0.9,11.1,5.8,19.7,11,19.6c0.6,5.7,1.3,10.9,2,15c3.4,20.3,41.8,40.2,59.4,40.2s55.9-19.9,59.4-40.2c0.7-4.1,1.4-9.3,2-15
		c5.2,0.1,10.1-8.5,11-19.6C341.4,214.8,337.9,205.5,332.8,204.7z"/>
	<path class="st6" d="M245.3,260c0,0-2.7,1.8-4.2,6s-4.2,2.5-2.5-2.2C240.4,259.1,245.3,260,245.3,260z"/>
	<circle class="st7" cx="202.2" cy="247.6" r="6.5"/>
	<circle class="st7" cx="332.7" cy="247.6" r="6.5"/>
	<path class="st6" d="M274.4,246.4c-1.5,1.1-2.7,2.3-6.1,2.3c-0.1,0-0.1,0-0.2,0c-0.1,0-0.1,0-0.2,0c-3.4,0-4.6-1.1-6.1-2.3
		c-1.5-1.1-4.6-0.4-4.6-0.4s2.1,1,3.3,2.3c1.1,1.3,2.3,3.4,7.7,3.4c5.4,0,6.5-2.1,7.7-3.4c1.1-1.3,3.3-2.3,3.3-2.3
		S275.9,245.3,274.4,246.4z"/>
	<path class="st8" d="M273.3,277.6c18.9-3.9,20.4-12.9,20.4-12.9l-22.5-1.8l-3.1,1.5l-3.1-1.5l-22.5,1.8c0,0,1.5,9,20.4,12.9
		C264.2,278,272,278,273.3,277.6z"/>
	<path class="st6" d="M290.8,260c0,0,2.7,1.8,4.2,6s4.2,2.5,2.5-2.2C295.7,259.1,290.8,260,290.8,260z"/>
	<path class="st7" d="M247.6,264.9c3,2.3,7.8,4.6,15.3,6.2c1.3,0.4,9.1,0.4,10.4,0c7.5-1.6,12.3-3.9,15.3-6.2H247.6z"/>
	<path class="st9" d="M296.2,264.3c0,0,0,0-2.9,0c-2.9,0-7.1-1.8-15.2-3.1s-10,0.2-10,0.2s-2-1.6-10-0.2c-8,1.3-12.3,3.1-15.2,3.1
		c-2.9,0-2.9,0-2.9,0s6.2,2.5,16.5,2.5c4.9,0,7.2,0.1,8.7,0.1c0.2,0,0.3,0.1,0.6,0.1c0.9,0,1.6,0,2.2,0c0.6,0,1.3,0,2.2,0
		c0.3,0,0.4-0.1,0.6-0.1c1.6-0.1,3.9-0.1,8.7-0.1C289.9,266.7,296.2,264.3,296.2,264.3z"/>
	<g class="st10">
		<path class="st11" d="M335.6,242.6c-46.4-10.3-89.4-10.3-135.8,0c-9,2.4-16.8-2.4-16.6-11.3c0.3-15.2,1.2-30.5,2.9-45.6
			c1.5-9.1,9.8-19.1,18.5-22.3c44.1-13.1,82.3-13.1,126.3,0c8.7,3.2,17,13.1,18.5,22.3c1.7,15.1,2.6,30.4,2.9,45.6
			C352.4,240.2,344.6,245,335.6,242.6z"/>
	</g>
	<g class="st10">
		<path class="st12" d="M329.9,227.7c-42.5-8.5-81.9-8.4-124.4,0c-8.2,2-15.4-2-15.2-9.2c0.2-12.5,1.1-25,2.7-37.5
			c1.3-7.5,8.9-15.7,16.9-18.3c40.4-10.8,75.4-10.8,115.7,0c8,2.6,15.6,10.8,16.9,18.3c1.5,12.4,2.4,25,2.7,37.5
			C345.3,225.7,338.1,229.7,329.9,227.7z"/>
	</g>
</g>
<path class="st13" d="M262.9,26.1c120.4,0,218,97.6,218,218s-97.6,218-218,218s-218-97.6-218-218S142.5,26.1,262.9,26.1z
	 M475.9,244.1c0-117.4-95.6-213-213-213c-117.4,0-213,95.6-213,213c0,117.4,95.6,213,213,213C380.4,457.1,475.9,361.5,475.9,244.1z"
	/>
<circle class="st14" cx="310.4" cy="78.9" r="4.6"/>
<circle class="st12" cx="110.5" cy="131.7" r="2.9"/>
<circle class="st15" cx="176.8" cy="92.6" r="1.7"/>
<circle class="st16" cx="261" cy="45.7" r="4.3"/>
<circle class="st12" cx="409.3" cy="141.7" r="5.5"/>
<circle class="st12" cx="46" cy="38.2" r="7.5"/>
<circle class="st14" cx="387.4" cy="70.1" r="12"/>
</svg>
