<?xml version="1.0" encoding="utf-8"?>
<!-- Generator: Adobe Illustrator 19.2.0, SVG Export Plug-In . SVG Version: 6.00 Build 0)  -->
<svg version="1.1" xmlns="http://www.w3.org/2000/svg" xmlns:xlink="http://www.w3.org/1999/xlink"
	 x="0px" y="0px" viewBox="0 0 933.9 810.6" style="enable-background:new 0 0 933.9 810.6;" xml:space="preserve">
<style type="text/css">
	.st0{fill:#E5EAEA;}
	.st1{fill:#FFFFFF;}
	.st2{fill:#D1E42D;}
	.st3{fill:#78CDD1;}
	.st4{fill:#FF8C00;}
	.st5{fill:#C7D4E2;}
	.st6{fill:#546FC3;}
	.st7{fill:#EFC8A7;}
	.st8{fill:#F2AB5A;}
	.st9{fill:#DCAA84;}
	.st10{fill:#C63255;}
	.st11{fill:#55B9BF;}
	.st12{fill:#5EAA6B;}
	.st13{fill:#78CE8A;}
	.st14{fill:#3C9BAA;}
	.st15{fill:#ED4C6B;}
	.st16{fill:#D0734D;}
	.st17{fill:#E1E9EF;}
	.st18{fill:#995624;}
	.st19{fill:#894A20;}
	.st20{fill:#753F0E;}
	.st21{fill:#5C6670;}
	.st22{fill:#4FB2C8;}
	.st23{fill:#935615;}
	.st24{fill:#EFB266;}
	.st25{fill:#AD7940;}
	.st26{fill:#F0F0F0;}
	.st27{fill:#C9C9C9;}
	.st28{fill:#BABABA;}
	.st29{fill:#DBDBDB;}
	.st30{fill:#F6F6F6;}
	.st31{fill:none;stroke:#5C6670;stroke-width:2;stroke-linejoin:round;}
</style>
<polygon class="st0" points="749,519.7 749,372.2 753,372.2 753,360.7 598.2,360.7 598.2,372.2 601,372.2 601,381.7 519,381.7 
	519,675.7 501,675.7 501,537.7 413,537.7 413,343.7 375.5,306.2 257,306.2 257,508.7 166,508.7 166,512.7 152,512.7 152,626.7 
	122,626.7 122,424.7 89,391.7 0,391.7 0,790.7 888,790.7 888,519.7 "/>
<title>Left_illu</title>
<path class="st1" d="M389.3,58.5c-3,0.1-5.9,0.8-8.5,2.1c-8.2-28.3-34.1-49-64.9-49.4c-4.7-0.1-9.3,0.4-13.7,1.2
	C290.5,5.2,276.8,1,262.1,0.9c-31.8-0.4-59.4,18.2-72.1,45.2c-5.3-2.9-11.4-4.6-17.9-4.6c-16,0-29.7,10.1-35,24.3
	c-1.6-0.5-3.4-0.8-5.2-0.7c-7.4,0.4-13.3,6.3-13.7,13.7c0,0,292.4,4.2,292.4,0C410.2,67.3,400.8,58.3,389.3,58.5z"/>
<path class="st1" d="M644.5,157.1c-1.3,0-2.5,0.2-3.6,0.6c-4.3-10.8-14.8-18.4-27.1-18.4c-5,0-9.6,1.2-13.7,3.4
	c-9.7-21.1-31.1-35.8-55.9-35.8c-11.4,0-22,3.1-31.2,8.5c-3.3-0.7-6.7-1.1-10.2-1.1c-25-0.3-46.3,16.6-52.4,39.8
	c-1.9-0.9-4-1.4-6.2-1.4c-8.9-0.2-16.4,6.8-16.6,15.8c0,3.2,228.2,0,228.2,0c0,0,0,0,0,0C655.8,162.1,650.8,157.1,644.5,157.1z"/>
<g>
	<circle class="st2" cx="806.4" cy="569.6" r="19.3"/>
	<circle class="st2" cx="552.4" cy="558.2" r="23.9"/>
	<circle class="st2" cx="560" cy="265.3" r="16.1"/>
	<circle class="st3" cx="917.9" cy="274.6" r="11.6"/>
	<circle class="st4" cx="928.8" cy="144.5" r="5.1"/>
	<circle class="st5" cx="410.5" cy="302.3" r="9.5"/>
	<circle class="st6" cx="659.5" cy="418.2" r="3.6"/>
	<circle class="st2" cx="837.2" cy="500.7" r="6.5"/>
	<circle class="st5" cx="764.2" cy="390.9" r="4.4"/>
	<circle class="st3" cx="613.9" cy="468.9" r="12.6"/>
</g>
<g>
	<path class="st7" d="M533.3,757.7l-4.1,6c0,0-11.9-1-13-1.3c-0.2,0-0.6-0.1-1.2-0.3c-0.6,0.8-1.6,2.2-2,3.5
		c-0.7,1.8-0.7,1.8-0.7,1.8s10.5,6,15.8,7c5.3,0.9,7.5-0.2,9.4-2.6l4.2-6.7L533.3,757.7z"/>
	<path class="st8" d="M528.1,774.3c-5.3-0.9-15.8-7-15.8-7s0,0,0.7-1.8c0.5-1.2,1.5-2.7,2-3.5c-3.4-0.8-12.7-2.9-14.3-3
		c-1.8-0.1-2.3,1.2-2.6,2.2c-0.4,0.9,4.4,10.3,8.9,12.7c4.5,2.4,10.5,4.6,13.3,5.9c2.7,1.3,6.9,3.9,8.1,4.4c1.2,0.6,1.2,0.9,2.3,0.6
		c1-0.4,3.3-1.5,4.9-5.6c1.6-4.1,2-7.5,2-7.5C535.7,774.2,533.4,775.3,528.1,774.3z"/>
	<polygon class="st9" points="551.1,564.4 551.2,566 558,563.3 553.9,560.1 551.6,563 	"/>
	<path class="st10" d="M551.4,578.9c0.4-3,14.5,0.3,14.1,4.3s-1.6,12.9-1.6,12.9s9.8-5.1,11.2-5.9s10.1-3.2,11.9,1.9
		s-3.7,14.9-15.1,18.2c-14.5,4.2-19.9,6.5-22.4,3.9c-2.4-2.4-2.5-7.2-1.5-14.7S551.1,581.3,551.4,578.9z"/>
	<path class="st9" d="M553.2,579.7c-0.8,3.4,10,6.2,10.9,2.4c0.8-3.3,0.8-4.6,0.8-4.6s1.1-1.6,1.8-2.8s1.4-3.4,1.4-3.4l2.5-2.8
		l-4.9-6.4l-13.2,6.2c0,0,1.2,4.6,1.6,6S553.7,577.8,553.2,579.7z"/>
	<path class="st11" d="M558.1,576.2l-8.7-8.2c-0.4-0.4-0.4-1.1,0-1.5l13.7-14.6c0.4-0.4,1.1-0.4,1.5,0l8.7,8.2
		c0.4,0.4,0.4,1.1,0,1.5l-13.7,14.6C559.2,576.5,558.5,576.6,558.1,576.2z"/>
	<path class="st1" d="M558.2,574.1l-6.8-6.3c-0.3-0.3-0.4-0.9,0-1.2l11.8-12.6c0.3-0.3,0.9-0.4,1.2,0l6.8,6.3c0.3,0.3,0.4,0.9,0,1.2
		l-11.8,12.6C559.1,574.5,558.5,574.5,558.2,574.1z"/>
	<g>
		<polygon class="st9" points="588,554.6 588,554.6 588,554.6 		"/>
		<path class="st9" d="M591.7,571c-0.3-2.1-0.7-5.9-0.9-8.7c-0.7-0.3-2.8-2.2-3.8-3.1c-0.4,3.4-1.8,7.4-3.5,9.2
			c-1.1,1.1-3,2.2-4.8,3.1l1.1,8.6l12.8-4.1C592.5,576.1,592.2,574.5,591.7,571z"/>
	</g>
	<path class="st9" d="M557.4,557.1l2.6-2.4c0,0,1.8,0.6,3.1,0.1s1.9-1.1,2.1-1.6s0.8-1.1-0.9-1.3s-3.1-0.4-3.6-0.4s-2.5,1.2-3.1,1.6
		S557.4,557.1,557.4,557.1z"/>
	<path class="st9" d="M554.2,559.1l2.6-2.4c0,0,1.8,0.6,3.1,0.1s1.9-1.1,2.1-1.6s0.8-1.1-0.9-1.3s-3.1-0.4-3.6-0.4s-2.5,1.2-3.1,1.6
		S554.2,559.1,554.2,559.1z"/>
	<path class="st9" d="M552.3,561l2.9-2.1c0,0,1.7,0.8,3,0.5s2.1-0.9,2.3-1.3s0.9-0.9-0.7-1.4c-1.6-0.5-3-0.8-3.5-0.9
		c-0.6-0.1-2.6,0.8-3.2,1.1C552.4,557.2,552.3,561,552.3,561z"/>
	<path class="st9" d="M551.1,564.4l2.6-2.4c0,0,1.8,0.6,3.1,0.1s1.9-1.1,2.1-1.6s0.8-1.1-0.9-1.3s-3.1-0.4-3.6-0.4s-2.5,1.2-3.1,1.6
		S551.1,564.4,551.1,564.4z"/>
	<path class="st7" d="M633.2,757.1l-4.3-6.3l-9.7,4.6l3.7,6c0,0-5.5,10.1-6.2,10.9c-0.1,0.1-0.4,0.5-0.7,0.9
		c0.5,0.8,1.4,2.2,2.3,3.1c1.3,1.3,1.3,1.3,1.3,1.3s9.4-7,12.3-11.2C634.8,762.1,634.6,759.7,633.2,757.1z"/>
	<path class="st8" d="M639.1,761.8c-3-3-5.9-4.7-5.9-4.7c1.4,2.6,1.6,5-1.3,9.3c-2.9,4.3-12.3,11.2-12.3,11.2s0,0-1.3-1.3
		c-0.9-0.9-1.8-2.3-2.3-3.1c-2,2.7-7.5,10.1-8.2,11.4c-0.8,1.5,0.2,2.5,0.9,3.2c0.7,0.7,10.8,0.1,14.7-3c3.9-3,8.1-7.5,10.4-9.4
		c2.2-1.9,6.1-4.6,7-5.4c1-0.9,1.3-0.7,1.4-1.8C642.2,767.2,642.1,764.8,639.1,761.8z"/>
	<path class="st12" d="M607,667.3c0,0,5.8,43.3,6.5,48c0.7,4.7,16.2,33.2,18,36.5c1.8,3.3-10.3,11-12.5,8.3
		c-2.2-2.7-26.5-35.2-26.5-35.2l-8.5-45L607,667.3z"/>
	<path class="st13" d="M592.8,662.8c-5.8,0.4-13.2-0.4-16.9-1.6c-4.9,11-24.5,55.4-27.4,61.5c-3.3,7-15.5,32.1-16.8,34.8
		c-1.9,4,9.1,12.5,12,8.4c2.4-3.4,39.5-52.9,47.9-64c8.3-11.2,17.2-22.7,17.8-29.5c0.5-4.8,0.2-10.7,0-13.8
		C605.1,660.2,598.3,662.4,592.8,662.8z"/>
	<path class="st7" d="M593.2,665.9l-2.6-0.3c-0.1,0.9-0.1,1.6-0.1,1.6l-2.3,2.5v1.4l-2.5,2.4c0,0,0.2,0.9,1.2,1.2s2.2-0.1,2.2-0.1
		l3-1.8c0,0,0,0.3,0.3,2l1.8-2.2L593.2,665.9z"/>
	<polygon class="st1" points="621.3,681.8 577.5,686.3 582.8,731.8 582.1,739.4 626.8,733.5 625.2,726.6 	"/>
	<path class="st14" d="M584.5,685.6c0.4-3.6,2.6-12,13.7-13.7c12.3-1.8,15.9,8,16.6,10.5l2-0.2c-1.3-5.2-6.7-14.1-18.9-12.3
		c-12.7,1.9-15,12.1-15.4,15.9L584.5,685.6z"/>
	<path class="st15" d="M577.4,586.1c0,0-7.9,10-10.9,16.8s1.8,13.9,3.4,16.8s4.9,11.7,5.4,14.2s0.6,3.4,0.6,3.4s-1.2,1.6-1.1,2.2
		s0.9,2,0.9,2s-1.9,15.4-2.2,17.8s11.1,3.9,19.2,3.4s19.4-5.1,20.4-6.1s0.4-2.8-0.3-5.8s-5.4-20.8-5.4-20.8s0-15.1-2.4-28.6
		s-4.2-19.7-9.2-21.1S577.4,586.1,577.4,586.1z"/>
	<path class="st7" d="M587.8,551.9c-0.8-2.4-2.9-3.8-4.7-3.2c-0.9,0.3-1.6,1.1-1.9,2.2c-2-0.9-4.7-2.1-4.7-2.1s-1.3-2.2-2.2-2.9
		c-0.8-0.8-4,0.3-6.6-1.2c-2.6-1.6-3.4-2.8-3.4-2.8s-1.7,3-1.7,6.8s0.8,5.2,0.8,5.2s0.3,2.3,0,4.2c-0.3,1.9-0.8,4.1-1.2,4.7
		c-0.3,0.6,1.7,1.4,2.4,1.4s1.7,0,1.7,0s2.7,6.1,3.7,7.8s3.7,1.4,4.9,1c1.2-0.4,6.4-2.6,8.4-4.7c2-2.1,3.6-7.2,3.6-10.8
		c0-0.3,0-0.6-0.1-0.9C588.1,555.6,588.4,553.8,587.8,551.9z"/>
	<ellipse transform="matrix(0.9474 -0.3199 0.3199 0.9474 -147.8087 210.7148)" cx="567.5" cy="555.2" rx="0.8" ry="1.2"/>
	<g>
		<path d="M570.5,567.9c-0.2,0-0.4-0.1-0.5-0.3c-0.1-0.2,0-0.5,0.2-0.7c0,0,2.5-0.9,3.5-2.2c0.9-1.2,1-1.5,1-1.5
			c0-0.3,0.3-0.4,0.6-0.4c0.3,0,0.5,0.3,0.4,0.6c0,0.4-0.7,1.3-1.2,2c-1.1,1.5-3.8,2.4-3.9,2.5C570.6,567.9,570.5,567.9,570.5,567.9
			z"/>
	</g>
	<g>
		<path d="M576.1,564l-0.9-0.7c-0.4-0.2-1.2-0.8-1.8-0.6c0,0,1-0.8,2.1,0C576.3,563.2,576.1,564,576.1,564z"/>
	</g>
	<path class="st16" d="M597.1,545.4c-0.8-9.4-4.3-15.6-15.6-15.7s-18.2,5.8-18.7,9.3c-0.3,2.3,0.2,4.4,0.5,5.7
		c0.5-1.7,1.1-2.7,1.1-2.7s0.8,1.2,3.4,2.8c2.6,1.6,5.8,0.5,6.6,1.2c0.8,0.8,2.2,2.9,2.2,2.9s2.6,1.1,4.7,2.1c0.3-1,1-1.9,1.9-2.2
		c1.8-0.6,3.9,0.8,4.7,3.2c0.6,1.9,0.2,3.7-0.8,4.7c0,0.3,0.1,0.6,0.1,0.9c0,0.5,0,1.1-0.1,1.7c1.1,1,3.5,3.2,4,3.1
		C591.6,562.3,597.9,554.8,597.1,545.4z"/>
	<path class="st17" d="M596.8,580.9c0,0-3.3-7.3-3.5-7.9s-16.9,6-16.9,6l0.4,11.9c0,0,2.4-3.4,8.4-6.4S596.8,580.9,596.8,580.9z"/>
	<path class="st15" d="M600.3,595.5c-2-8.3-9-10.2-13.8-8.4s-5.7,9.1-3.2,16.8s5.7,18.9,5.7,18.9l0.3,0.9l-0.8,2.6l1.3,0.7
		c0,0,2.8,24.4,3.2,27.6c0.5,4.8,13.7,3.4,13.7-0.4c0-3.8-1.7-33.2-1.8-35.6C604.8,616.2,601,598.3,600.3,595.5z"/>
	<path class="st7" d="M594.7,655.4c0-3,9.9-3.4,10.2-1.1c0.3,2.3,1.1,8.8,1.1,8.8s1.2,8.3,1.3,9.2s-0.4,2.7-0.6,3.2
		c-0.2,0.6-1.8,0.9-1.8,0.9s-0.8,0.3-1.5,0.7c-0.8,0.3-2.2,0.2-2.2,0.2s-0.7,0.2-1.9,0.6c-1.2,0.4-2.3-0.4-2.3-0.4s-0.3,0.8-0.6,1.4
		c-0.2,0.6-2.8,1.2-3.3-0.8s-1.2-6.5-1.2-6.5l-1.3-4.2c0,0,0.2-2.8,0.3-3.8c0.1-1,3.4-4.8,3.6-5.2
		C594.6,657.7,594.7,655.4,594.7,655.4z"/>
	<g>
		<path class="st16" d="M572,551c-0.2,0-0.3,0-0.4-0.1c0,0-1.5-1.1-3.4-1.3c-1.8-0.1-3.7,0.7-3.7,0.8c-0.4,0.2-0.8,0-1-0.3
			c-0.2-0.4,0-0.8,0.3-1c0.1,0,2.2-1.1,4.5-0.9c2.3,0.2,4.1,1.5,4.1,1.6c0.3,0.2,0.4,0.7,0.2,1C572.4,550.9,572.2,551,572,551z"/>
	</g>
	<path class="st2" d="M598.3,538.2c-0.8,0.1-1.7,0.2-2.6,0.2c0.7,2,1.2,4.4,1.4,7c0.1,0.9,0.1,1.7,0,2.6c0.7-0.2,1.5-0.5,2.4-0.7
		C601.8,546.8,600,538,598.3,538.2z"/>
	<path class="st16" d="M617.5,554.6c-0.8-2.5,1.2-6.6,1.2-10.2c0-3.7-2.6-10.3-10-10.7c-5.7-0.3-9.2,3-10.5,4.5c0,0,0.1,0,0.1,0
		c1.6-0.2,3.3,8.2,1.4,9c1.5,2.9,4.8,4.7,8.4,3.6c4.2-1.3,5.4,0.1,5.4,1s0.2,2.2,1.5,3.9s4.2,1.7,4.2,1.7S618.3,557.1,617.5,554.6z"
		/>
	<path class="st9" d="M606.2,673.7c-0.6,0.3-1.7,0.2-1.7,0.2s-1.4,0.8-2.1,0.8c-0.7,0-1.3-0.2-1.3-0.2s-0.9,0.8-1.8,0.9
		c-0.9,0.1-2.3-0.6-2.3-0.6s-2.1,1.4-2.8,1.2s-1.8-1.8-1.8-1.8l-0.1,0c0.2,1.4,0.5,3,0.8,4c0.6,2,3.1,1.4,3.3,0.8
		c0.2-0.6,0.6-1.4,0.6-1.4s1.1,0.8,2.3,0.4c1.2-0.4,1.9-0.6,1.9-0.6s1.5,0.2,2.2-0.2c0.8-0.3,1.5-0.7,1.5-0.7s1.7-0.3,1.8-0.9
		c0.2-0.6,0.7-2.4,0.6-3.2C607.3,672.2,606.8,673.3,606.2,673.7z"/>
	<circle class="st1" cx="586.5" cy="557.8" r="1.5"/>
</g>
<g>
	<path class="st12" d="M753.1,778.3c-2.4-2.9-4.3-5-4.3-5s-6.4-12.2-8-14.6c-0.2-0.3-0.5-0.6-0.8-1c-0.3,0.4-0.6,0.8-1,1.2
		c-2.9,3.7-11.8-3.5-10-6.1c0.5-0.7,1.2-1.7,2-2.8c-0.1-0.1-0.2-0.2-0.2-0.2s-6.4,3.9-9.4,8.2c-3,4.3-3.3,5.5-2.8,6.1
		c0.5,0.7,0.5,1.9,5.3,4.8c4.9,2.8,7.5,3.9,10.7,6.3s9.2,7,12.3,8.8c3.1,1.7,7.3,3.2,8.2,1.5S755.5,781.2,753.1,778.3z"/>
	<path class="st18" d="M750.8,763.1c0,0-0.1,8.8-0.1,12s12.5,4,12.7-0.8c0.3-4.9,0.4-10.9,0.4-10.9L750.8,763.1z"/>
	<path class="st13" d="M788.1,782.2c-4-1-7-1.6-7-1.6s-13.4-6.5-16.4-7.6c-0.3-0.1-0.8-0.2-1.3-0.4c0,0.5-0.1,1.1-0.1,1.6
		c-0.3,4.9-12.7,4-12.7,0.8c0-0.9,0-2.2,0-3.6c-0.2,0-0.3,0-0.3,0s-3.2,7.1-3.2,12.6s0.5,7.1,1.4,6.9s2.2,0.5,8.4,0
		s8.5-0.2,12.9-0.1s12.6,0.5,16.5,0.1s8.5-1.6,8.2-3.6S792.1,783.2,788.1,782.2z"/>
	<path class="st11" d="M803.3,589.4l-14.9-3c-0.7-0.1-1-0.8-0.6-1.6l11.8-22.9c0.4-0.7,1.2-1.2,2-1l14.9,3c0.7,0.1,1,0.8,0.6,1.6
		l-11.8,22.9C804.9,589.1,804,589.6,803.3,589.4z"/>
	<path class="st1" d="M803,587.5l-12.7-2.6c-0.4-0.1-0.5-0.5-0.3-0.8l10.6-20.6c0.2-0.4,0.7-0.6,1.1-0.6l12.7,2.6
		c0.4,0.1,0.5,0.5,0.3,0.8l-10.6,20.6C803.9,587.3,803.4,587.6,803,587.5z"/>
	<path class="st18" d="M735.7,743.6c0,0-5,6.8-6.7,9.4c-1.8,2.5,7.1,9.8,10,6.1s6.3-8.4,6.3-8.4L735.7,743.6z"/>
	<path class="st14" d="M774.8,654.5c0,0,2.2,45.2,2.2,50.5s0,5.3,0,5.3s-31.3,41.8-33.3,44.5c-2,2.7-13.5-4.3-11.2-8.7
		c2.3-4.3,17.5-34.2,17.5-34.2L774.8,654.5z"/>
	<path class="st1" d="M729.9,576.2c0,0,0.4,7.1,1,15.4s1.2,45.6,1.1,51.6s17.2,6,25.1,5.9s22.5-2.1,22.6-6.6s0.5-32.6,0.5-32.6
		l-8.1-7.9c0,0-4-22.1-5.9-25.2s-6.9-4.9-9.5-5S729.9,576.2,729.9,576.2z"/>
	<g>
		<path class="st19" d="M763.5,560.5c-0.6-2.6-0.1-5.8-0.1-5.8c0.2-2.4,1.1-3.6,1.1-3.6s-5-2.1-6.1-4.6l-8.2,15.5
			c0.3,0.1,0.5,0.2,0.8,0.4c2.6,1.8,9.2,5,11.1,7.2c0.2,0.2,0.4,0.5,0.6,0.7c0,0,0,0-0.1,0c1,0.4,1.9,0.9,2.7,1.5
			c0.4-0.8,1.1-2.1,1.3-2.7c0.2-0.9,5.8,0.4,5.8,0.4C771.2,568.6,764.1,563.1,763.5,560.5z"/>
		<path class="st20" d="M761.2,569.8c-0.3-0.1-0.7-0.2-1-0.2C760.5,569.7,760.9,569.7,761.2,569.8z"/>
	</g>
	<path class="st18" d="M763.4,554.8c0,0-0.5,3.1,0.1,5.8s7.8,8.1,8.9,9s2.9-0.2,3.4-0.5s4.9-7.6,4.9-7.6s1.6,0.1,2.5-0.2
		s0.8-1.8,0.8-1.8l1-8c0,0,1.1-1.8,1.5-2.8s0.2-6.4,0.2-6.4c-0.5-4.5-1.5-7.1-4.2-8.9s-13.1-4.4-16.6-3.2s-7.6,12.5-7.6,15.4
		s6.4,5.6,6.4,5.6S763.6,552.4,763.4,554.8z"/>
	<path d="M751,535c0,0-1.8,3-1.8,8.5s3.5,11.2,3.9,11.5s0.8-0.4,1.9-0.1s2.4,1,2.4,1s7.2-4.2,8-4.6s1.2-2.1,1.2-2.1l3.4-11.5
		c0,0,2.2-9-1.4-11.5s-10-2.4-11.1-1.9s-4.2,3.9-4.8,4.8S751,535,751,535z"/>
	<ellipse transform="matrix(0.3785 -0.9256 0.9256 0.3785 -23.281 1066.2598)" cx="782.3" cy="550.5" rx="1.3" ry="0.8"/>
	<path class="st1" d="M791.1,544.4c-1.6-2.6-14.8-7.4-14.8-7.4s9,6,13.8,10c2.1,1.8,2.9,3.1,2.8,4.1c0,0,0,0,0-0.1
		C793.2,550,792.8,547,791.1,544.4z"/>
	<path class="st21" d="M790.1,547c-1-0.8-2.2-1.8-3.5-2.7c0,1.6,0,3.8-0.3,4.4c-0.4,1-1.5,2.8-1.5,2.8l-0.1,0.9
		c1.4,0.4,4.7,1.2,6.1,0.8C792.6,552.6,794.9,551,790.1,547z"/>
	<path class="st2" d="M790,533.9c0.5-6-11.4-13.9-21.5-14.4s-15.6,7.5-16.8,10.6s-1.2,4-1.2,4l1.2-0.5c0,0,1.4-4.4,2.2-5.8
		s3.1-2.1,5.5-2.1s5.2,0.1,5.2,1.2s-1.2,5.5-1.2,5.5s6.2,2,12.9,4.5c0,0,8.1,2.9,12.4,5.5C789,541.4,789.6,538.5,790,533.9z"/>
	<path class="st2" d="M775.5,535.1c0,0-4.2-2.9-13.9-3.4s-11,0.2-11.4,1.1s-1,3.8-1,3.8l0.2,0.8c0,0,1.2-1.2,9.4-1.1
		s14.8,2.5,14.8,2.5L775.5,535.1z"/>
	<g>
		<path d="M783.9,548.1c-0.2,0-0.5-0.1-0.6-0.3c0-0.1-0.3-0.3-1.2-0.7c-1-0.4-2.7-0.4-3.2-0.3c-0.4,0-0.8-0.2-0.8-0.7
			c0-0.4,0.3-0.8,0.7-0.8c0.1,0,2.5-0.3,4,0.4c1.3,0.6,1.8,1.1,1.9,1.3c0.2,0.4,0,0.8-0.3,1C784.1,548,784,548.1,783.9,548.1z"/>
	</g>
	<g>
		<path d="M777.2,563.9c-0.1-0.1-1.5-1.3-2.1-2.7c-0.5-1.2-0.5-2-0.5-2l1-0.1c0,0,0.1,0.7,0.5,1.7c0.4,1.2,1.8,2.3,1.8,2.3
			L777.2,563.9z"/>
	</g>
	<g>
		<path d="M773.6,559.7c0,0,0.2-1.4,1.7-1.6c1.3-0.2,1.8,0.8,1.8,0.8c-0.4-0.1-1.3,0.2-1.8,0.2C774.6,559.2,773.6,559.7,773.6,559.7
			z"/>
	</g>
	<path class="st13" d="M747.9,567.6c2,0.8,6.1,0.9,11.4,1.8c1.3,0.2,2.4,0.5,3.4,1c-0.2-0.2-0.4-0.5-0.6-0.7
		c-1.9-2.2-8.5-5.5-11.1-7.2s-3.8,1-3.8,1l-1.4,3.5C745.9,566.9,745.9,566.9,747.9,567.6z"/>
	<path class="st22" d="M757.1,649.1c-5.2,0.1-14.5,0.1-20.2-1.6c2.6,6.6,8,20.8,8.3,22.6c0.4,2.4,3.2,36.7,3.2,36.7l-1.2,2.2
		l0.8,2.5c0,0-0.2,49-0.2,54s17.3,4.7,17.5,0s10.5-104.2,11.2-113.8c0.2-2.6,0.3-4.6,0.4-6.2C772.5,647.9,763,649,757.1,649.1z"/>
	<path class="st23" d="M796.4,593.8c0,0,1.5-5.8,1.5-8.8c0-3.1,0-3.5,0.4-3.8c0.4-0.3,0.4-0.3,0.4-0.3s0.2-1.2-0.2-2.4
		s-0.5-2.2,0.6-2.7c1.1-0.5,2.2-0.2,2.8,1.5c0.7,1.7,0.3,3.2,0.3,3.2l0.7,1.2l7-2.3l0.6-0.3l1.2-2.8c0,0,1.2,0.3,1.7,0.4
		c0.5,0.1,1.3,0.6,1.6,1c0.2,0.4,0.7,1.4,0.7,2.1c0,0.7,0,0.8-0.5,1.1s-1.5,1.2-1.5,1.2s0.8,1.3,0.8,1.9c-0.1,0.6-0.3,0.9-0.3,0.9
		s0.7,0.6,0.7,1c0,0.4-0.3,1.6-0.3,1.6s2,0.6,2.1,1.1c0.1,0.5-0.2,2.1-0.3,2.4c-0.2,0.3-2.6,1.4-3.3,1.8c-0.8,0.3-1.5,0.5-1.5,0.5
		l-10.4,6.8l-4.4-3L796.4,593.8z"/>
	<path class="st20" d="M816.1,590.9c0.2-0.3,0.4-1.9,0.3-2.4c0-0.1-0.1-0.2-0.3-0.3c0,0,0,0,0,0l-2.3,0.8l0.3-1.5l0.3-0.3
		c0.1-0.4,0.2-1,0.2-1.3c0-0.4-0.7-1-0.7-1s0.2-0.3,0.3-0.9c0.1-0.6-0.8-1.9-0.8-1.9s1-0.9,1.5-1.2s0.5-0.4,0.5-1.1
		c0-0.7-0.4-1.7-0.7-2.1c-0.1-0.2-0.4-0.5-0.8-0.7l-2.6,2.6c0,0,1.1,0.9,1,1.8s-0.1,0.9-0.1,0.9s0.4,1,0.2,1.6s-0.6,1.6-0.6,1.6
		s1,0.7,1,1.2s-0.1,1.1-0.2,1.4s-0.2,0.8-0.2,0.8l-0.3,0.6c0,0,0.9,0.8,0.9,1.2s-0.4,1.7-0.4,2C813.5,592.3,815.9,591.2,816.1,590.9
		z"/>
	
		<ellipse transform="matrix(0.3785 -0.9256 0.9256 0.3785 -25.9306 1050.2487)" class="st24" cx="769.1" cy="544.4" rx="8.1" ry="6.4"/>
	
		<ellipse transform="matrix(0.3785 -0.9256 0.9256 0.3785 -24.9925 1051.4611)" class="st25" cx="770.4" cy="544.3" rx="5.2" ry="4.1"/>
	<path class="st24" d="M773.4,518.5c-3.5-0.3-5.5,0.4-6.4,1c0.5,0,1,0,1.6,0c0.4,0,0.8,0.1,1.2,0.1c2.6-0.7,5.6,0,6.5,1.8
		c2.4,5-0.4,9.9-1.6,12.9c-0.8,2-3.2,6.4-4.8,9.2c-1.5,2.5,1.8,4.8,4,1.5c2-3.1,5.2-10,7-15.4S778.6,519,773.4,518.5z"/>
	<path class="st26" d="M767,609.7c-7.3-27.3-11.3-32.7-11.3-32.7l-25.7,0.1c0.1,2.1,0.5,8,1,14.5c0.6,8.2,1.2,45.6,1.1,51.6
		s17.2,6,25.1,5.9c3.6-0.1,8.7-0.5,13.1-1.4C771.2,640.6,771.7,627.4,767,609.7z"/>
	<path class="st1" d="M775,597.2c0,0,0.1-12.6-3.8-18.5s-6.8-8.5-12-9.4s-9.4-1-11.4-1.8s-2-0.8-2-0.8l1.4-3.5c0,0-3-1.8-9.2-3.2
		s-9.2,0-11.5,4s-3.1,7.1-2.5,13s3.5,9.9,5,9.9s14.5-8.1,22.4-10.2s12-1.5,14,2S775,597.2,775,597.2z"/>
	<path class="st1" d="M758.6,576.9c6.3-2.8,11.4,0.8,14.2,10s5.9,17.8,5.9,17.8s11.3-7.8,14.8-10.9c5-4.4,13.8,4.8,9,10.1
		s-25.1,23.5-28.9,25.5s-6.1,1.1-9-4.2s-11.4-27.1-13.8-33.4S753.9,579,758.6,576.9z"/>
</g>
<g>
	<path class="st27" d="M738.9,790.6h-11.8l0,0V148c0-2.9,2.3-5.2,5.2-5.2h1.5c2.9,0,5.2,2.3,5.2,5.2L738.9,790.6L738.9,790.6z"/>
	<path class="st28" d="M711.8,217.8L711.8,217.8c1.1,0,1.9,0.8,1.9,1.9V230c0,1.1-0.8,1.9-1.9,1.9l0,0c-1.1,0-1.9-0.8-1.9-1.9v-10.3
		C709.9,218.6,710.7,217.8,711.8,217.8z"/>
	<path class="st28" d="M755.7,217.8L755.7,217.8c1.1,0,1.9,0.8,1.9,1.9V230c0,1.1-0.8,1.9-1.9,1.9l0,0c-1.1,0-1.9-0.8-1.9-1.9v-10.3
		C753.6,218.6,754.6,217.8,755.7,217.8z"/>
	<rect x="724" y="163" class="st29" width="18.2" height="45.5"/>
	<path class="st2" d="M747.8,202h-31.2c-10.8,0-19.5-8.7-19.5-19.5l0,0l0,0l0,0h70.2l0,0l0,0C767.3,193.2,758.5,202,747.8,202
		L747.8,202z"/>
	<rect x="696.8" y="173.3" class="st30" width="72.4" height="10.3"/>
	<rect x="696.8" y="181.9" class="st28" width="72.4" height="1.7"/>
	<path class="st28" d="M727.1,283.6v29.6h11.8v-29.6h-11.4C727.4,283.5,727.3,283.6,727.1,283.6z"/>
	<path class="st3" d="M704,228.1h58c5.4,0,9.7,4.3,9.7,9.7v57.4c0,5.4-4.3,9.7-9.7,9.7h-58c-5.4,0-9.7-4.3-9.7-9.7v-57.4
		C694.4,232.4,698.7,228.1,704,228.1z"/>
	<circle class="st3" cx="733.5" cy="118.8" r="2.9"/>
	<path class="st3" d="M727.8,112.6h11.6c1.4,0,2.7,1.3,2.7,2.7v31.1c0,1.4-1.3,2.7-2.7,2.7h-11.6c-1.4,0-2.7-1.3-2.7-2.7v-31.1
		C725.1,113.9,726.4,112.6,727.8,112.6z"/>
</g>
<polyline class="st31" points="288.7,809.6 919.3,809.6 919.3,790.7 285.4,790.7 "/>
</svg>
