<svg data-name="02-SmallCell" xmlns="http://www.w3.org/2000/svg" viewBox="0 0 891.33 772.28" role="presentation"><defs><style>.cls-1{fill:#fff;}.cls-2{fill:#e5eaea;}.cls-3{fill:#d1e42d;}.cls-4{fill:#78cdd1;}.cls-5{fill:#ff8c00;}.cls-6{fill:#c7d4e2;}.cls-7{fill:#546fc3;}</style></defs><title>Right_illu</title><path class="cls-1" d="M532.82,154.1a48.37,48.37,0,0,1,96.73,0" transform="translate(-187.67 -105.74)"/><path class="cls-1" d="M503.54,154.1a22.91,22.91,0,1,1,45.82,0" transform="translate(-187.67 -105.74)"/><path class="cls-1" d="M572.27,154.1a42,42,0,0,1,84,0" transform="translate(-187.67 -105.74)"/><path class="cls-1" d="M511.18,154.1a8.91,8.91,0,0,0-17.82,0s179.47,2.55,179.47,0a12.73,12.73,0,0,0-25.46,0" transform="translate(-187.67 -105.74)"/><path class="cls-1" d="M711.48,322.3a31.58,31.58,0,1,0-63.15,0" transform="translate(-187.67 -105.74)"/><path class="cls-1" d="M730.6,322.3a15,15,0,0,0-29.92,0" transform="translate(-187.67 -105.74)"/><path class="cls-1" d="M685.72,322.3a27.42,27.42,0,0,0-54.84,0" transform="translate(-187.67 -105.74)"/><path class="cls-1" d="M725.61,322.3a5.82,5.82,0,1,1,11.63,0s-117.17,1.66-117.17,0a8.31,8.31,0,0,1,16.62,0" transform="translate(-187.67 -105.74)"/><path class="cls-2" d="M300,512.71H408.21V740.55H426V580.17H502.4V442.71h96.74V432.52h35.64V444h19.09V659.09h70.74v103.1H757V512.71H825.7V500H954.26V641.27H1079V878H187.67V720.67H298.86S298.64,512.71,300,512.71Z" transform="translate(-187.67 -105.74)"/><circle class="cls-3" cx="316.81" cy="312.28" r="14.12"/><circle class="cls-4" cx="630.13" cy="320.42" r="10.18"/><circle class="cls-5" cx="639.68" cy="206.5" r="4.45"/><circle class="cls-6" cx="185.91" cy="344.61" r="8.27"/><circle class="cls-7" cx="403.91" cy="446.14" r="3.18"/><circle class="cls-3" cx="559.49" cy="518.35" r="5.73"/><circle class="cls-6" cx="495.56" cy="422.17" r="3.82"/><circle class="cls-4" cx="364.03" cy="490.48" r="11.03"/></svg>
