<?xml version="1.0" encoding="utf-8"?>
<!-- Generator: Adobe Illustrator 19.2.0, SVG Export Plug-In . SVG Version: 6.00 Build 0)  -->
<svg version="1.1" xmlns="http://www.w3.org/2000/svg" xmlns:xlink="http://www.w3.org/1999/xlink"
	 x="0px" y="0px" viewBox="0 0 360.1 364.8" style="enable-background:new 0 0 360.1 364.8;" xml:space="preserve">
<style type="text/css">
	.st0{clip-path:url(#SVGID_2_);fill:#F6F6F6;}
	.st1{clip-path:url(#SVGID_2_);fill:#EFC8A7;}
	.st2{clip-path:url(#SVGID_2_);fill:#DCAA84;}
	.st3{clip-path:url(#SVGID_2_);fill:#B73756;}
	.st4{clip-path:url(#SVGID_2_);fill:#C8E8E7;}
	.st5{clip-path:url(#SVGID_2_);fill:#A2CCCA;}
	.st6{clip-path:url(#SVGID_2_);fill:#ED4C6B;}
	.st7{clip-path:url(#SVGID_2_);fill:#FFFFFF;}
	.st8{clip-path:url(#SVGID_2_);}
	.st9{fill:#D1E42D;}
	.st10{fill:#78CCD0;}
	.st11{fill:none;stroke:#78CCD0;stroke-width:5;stroke-miterlimit:10;}
	.st12{fill:#C7D4E2;}
</style>
<title>Smart_watch</title>
<g>
	<defs>
		<circle cx="180.1" cy="184.7" r="177.1"/>
	</defs>
	<clipPath>
		<use xlink:href="#SVGID_1_"  style="overflow:visible;"/>
	</clipPath>
	<circle class="st0" cx="180.1" cy="184.7" r="177.1"/>
	<path class="st1" d="M229.2,134.7c1.2,2.7,1.4,5.8,1.4,7.1c5.8,1.2,10.2,6.4,10.2,12.5v52.2c0,6.2-4.4,11.3-10.2,12.5c0,0,0,0,0,0
		c0,1-0.1,4.3-1.4,7.2c9.9,0.6,23.8,1.7,42.5,3.7c45.7,5,95.7,18.3,95.7,18.3l2.3-113.7H229.2z"/>
	<path class="st2" d="M271.7,230c45.7,5,95.7,18.3,95.7,18.3l0.7-36.1c-15.4-1.1-80-5.7-127.2-7.2v1.5c0,6.2-4.4,11.3-10.2,12.5
		c0,0,0,0,0,0c0,1-0.1,4.3-1.4,7.2C239.1,226.9,253,228,271.7,230z"/>
	<polygon class="st3" points="169.8,135 171.1,227 173,229 185.2,229.2 190,224.8 193.8,137.8 181,132.2 173.8,131.8 168.5,133.2 	
		"/>
	<path class="st1" d="M180.8,219.2l0.3,0c0,0,0,0,0,0c-6.3-0.8-11.2-6.2-11.2-12.7v-52.2c0-6.4,4.8-11.8,11-12.7
		c0-0.7-0.1-4.3-1.8-6.6c-7.4,0-23,0-28.2,0c-7,0-20.5-11-33.5-12.5s-35.5-7.2-49.8-4.5s-19.1,5.7-23.5,10.2c-6,6.2-4,20-4,20
		s-4.5,4-4.5,13.8s4,12.5,4,12.5s-6.8,6-5.8,15s4.8,13.2,4.8,13.2s-8.2,9.4-5.5,20.9s7.5,13.1,10,13.8s8.5,1.5,8.5,1.5
		s1.2,10.2,4,12.8s34.8,12.5,39.8,13.8s9.5-0.8,11.5-1.5s38-27.2,44.8-31.8c5-3.3,19.9-5.4,27.5-6.3
		C180.9,223.4,180.8,219.2,180.8,219.2z"/>
	<path class="st4" d="M228,219.3h-45.5c-7,0-12.8-5.8-12.8-12.8v-52.2c0-7,5.8-12.8,12.8-12.8H228c7,0,12.8,5.8,12.8,12.8v52.2
		C240.8,213.5,235.1,219.3,228,219.3z"/>
	<path class="st5" d="M219.8,214.8h-29c-1.3,0-2.3-1-2.3-2.3v-0.2c0-1.3,1-2.3,2.3-2.3h29c1.3,0,2.3,1,2.3,2.3v0.2
		C222.1,213.7,221.1,214.8,219.8,214.8z"/>
	<path class="st6" d="M228,219.3h-44.7c-0.3,3.5-1.7,11.7-8,11.7h47.2c7.6,0,8-10.1,8.1-12C229.8,219.2,228.9,219.3,228,219.3z"/>
	<path class="st6" d="M183.3,141.5H228c0.9,0,1.7,0.1,2.6,0.3c0-2.4-0.7-11.7-8-11.7h-47.2C181.5,130,183,137.8,183.3,141.5z"/>
	<path class="st3" d="M187.8,219.3v1c0,1.2,1,2.2,2.2,2.2h33.4c1.2,0,2.2-1,2.2-2.2v-1H187.8z"/>
	<path class="st7" d="M227.5,205.8h-44.4c-3.6,0-6.6-3-6.6-6.6v-44.4c0-3.6,3-6.6,6.6-6.6h44.4c3.6,0,6.6,3,6.6,6.6v44.4
		C234.1,202.8,231.1,205.8,227.5,205.8z"/>
	<path class="st3" d="M225.5,141.5v-2.3c0-1.2-1-2.2-2.2-2.2h-33.4c-1.2,0-2.2,1-2.2,2.2v2.3H225.5z"/>
	<path class="st3" d="M182.6,219.3c-0.5,0-1,0-1.6-0.1l-0.3,0c0,0,0.2,8.8-5.8,8.8c-1.6,0-2.9-0.4-3.9-1c-1.2,0.2-2.3,0.4-3.5,0.6
		c1.5,2,3.9,3.4,7.7,3.4c7.3,0,8-9.3,8-11.7H182.6z"/>
	<path class="st3" d="M175.3,130c-4.8,0-7.4,2.3-8.7,5c1.1,0,2.2,0,3.3,0c1.1-1.2,2.7-2,5.2-2c5.6,0,5.8,7.5,5.8,8.6
		c0.6-0.1,1.2-0.1,1.8-0.1h0.8C183.3,138.7,182.4,130,175.3,130z"/>
	<g class="st8">
		<path class="st9" d="M183.8,177.8h11.4l6.1-16.8l5,22.4l5-19.8l3.1,14.3h13.2c0.4-1.1,0.7-2.2,0.8-3.2c1.1-9-3.3-16.8-10.5-16.5
			c-8.2,0.3-12.3,5-12.3,5s-4.1-4.7-12.3-5c-7.2-0.2-11.6,7.5-10.5,16.5C183.1,175.6,183.4,176.7,183.8,177.8z"/>
		<path class="st9" d="M212,180.8l-0.9-4.2l-5,19.7l-5.5-24.6l-3.4,9.2h-12c5.8,10,20.4,19,20.4,19s14.6-9,20.4-19H212z"/>
	</g>
	<path class="st2" d="M181,219.2c-0.4,0-0.8-0.1-1.2-0.2c-0.1,0-0.2,0-0.3-0.1c-0.3-0.1-0.6-0.2-0.9-0.2c-0.1,0-0.2-0.1-0.2-0.1
		c-0.3-0.1-0.6-0.2-0.9-0.3c-0.1,0-0.1-0.1-0.2-0.1c-0.3-0.1-0.6-0.3-0.9-0.4c-3.6-2-6.2-5.6-6.6-9.9c-13.9,3.1-20.7,8.2-30.3,15.2
		c-16.5,12-30,23.5-35.5,25c-3.2,0.9-7,0.7-9.5,0.4c-6.6-1.9-12.8-4.1-12.8-4.1s3.2,0.8,14.8-3.8c9.2-3.7,15-7.5,15-7.5
		s-22.7,4.2-37,2.5c-14.3-1.7-17.2-3.5-19.8-8.2c-2.7-4.7-2-12.3,2-17.3s1-7-0.3-8.3C55,200.3,48,191,51,181.3c3-9.7,4.3-10.7,5-12
		c0.7-1.3-4.7-5.3-3.3-12.7c1.3-7.3,4.3-12,6.7-14.3c2.3-2.3-3-7.7-1-14.7c1.4-4.8,5.4-8,9.3-9.7c0,0-0.1,0-0.1,0
		c-14.2,2.8-19.1,5.7-23.5,10.2c-6,6.2-4,20-4,20s-4.5,4-4.5,13.8s4,12.5,4,12.5s-6.8,6-5.8,15s4.8,13.2,4.8,13.2s-8.2,9.4-5.5,20.9
		s7.5,13.1,10,13.8s8.5,1.5,8.5,1.5s1.2,10.2,4,12.8c2,1.8,18.7,7.3,30,10.9l0,0c0,0,0,0,0,0c1.7,0.5,3.3,1,4.7,1.4c0,0,0.1,0,0.1,0
		c0.4,0.1,0.8,0.2,1.2,0.3c0.1,0,0.2,0.1,0.3,0.1c0.3,0.1,0.6,0.2,0.8,0.2c0.1,0,0.2,0.1,0.3,0.1c0.2,0.1,0.4,0.1,0.7,0.2
		c0.1,0,0.2,0.1,0.3,0.1c0.2,0.1,0.4,0.1,0.6,0.2c0.1,0,0.2,0,0.2,0.1c0.2,0.1,0.4,0.1,0.6,0.2c5,1.2,9.5-0.8,11.5-1.5
		s38-27.2,44.8-31.8c5-3.3,19.9-5.4,27.5-6.3c1.9-2.6,1.8-6.7,1.8-6.7L181,219.2C181,219.2,181,219.2,181,219.2z"/>
	<g class="st8">
		<path class="st10" d="M255.3,233.9c-11.7,10.1-26.5,16.7-42.8,18l0.3,4c17.2-1.4,32.9-8.3,45.2-19L255.3,233.9z"/>
		<path class="st10" d="M159.3,119.7c12.6-10.3,28.5-16.5,45.9-16.8l-0.1-4c-18.3,0.3-35.1,6.9-48.3,17.7L159.3,119.7z"/>
	</g>
	<g class="st8">
		<path class="st10" d="M151.1,109.4c14.8-12,33.5-19.4,53.9-19.7l-0.1-4c-21.3,0.4-40.9,8-56.3,20.6L151.1,109.4z"/>
		<path class="st10" d="M264.1,243.8c-13.8,12-31.3,19.8-50.6,21.3l0.3,4c20.2-1.6,38.6-9.7,53-22.3L264.1,243.8z"/>
	</g>
	<g class="st8">
		<path class="st10" d="M141.9,98c17.2-14,39-22.5,62.7-22.9l-0.1-4c-24.6,0.4-47.3,9.3-65.1,23.8L141.9,98z"/>
		<path class="st10" d="M273.8,254.7c-16.1,14.1-36.7,23.2-59.2,24.9l0.3,4c23.5-1.8,44.8-11.3,61.6-25.9L273.8,254.7z"/>
	</g>
</g>
<path class="st11" d="M356.7,184.7c0-97.4-79.2-176.6-176.6-176.6S3.5,87.3,3.5,184.7c0,97.4,79.2,176.6,176.6,176.6
	S356.7,282.1,356.7,184.7z"/>
<circle class="st12" cx="125.5" cy="12" r="12"/>
<circle class="st12" cx="318.6" cy="298.1" r="7.5"/>
</svg>
