<svg data-name="Layer 1" xmlns="http://www.w3.org/2000/svg" viewBox="0 0 76.26 83.01"><defs><style>.cls-1{fill:#c4d438;}.cls-2{fill:#f7824d;}.cls-2,.cls-3{stroke:#5c6670;stroke-linejoin:round;stroke-width:2px;}.cls-3{fill:none;stroke-linecap:round;}</style></defs><title>Artboard 1 copy 9</title><rect class="cls-1" x="15.55" y="5.54" width="2.65" height="12.52" rx="1.32" ry="1.32" transform="translate(34.76 22.02) rotate(174.79)"/><rect class="cls-1" x="9.42" y="11.74" width="2.65" height="12.52" rx="1.32" ry="1.32" transform="translate(-9 25.04) rotate(-78.79)"/><rect class="cls-1" x="7.8" y="-2.84" width="2.65" height="24.73" rx="1.32" ry="1.32" transform="translate(-4.03 8.56) rotate(-42)"/><rect class="cls-1" x="7.1" y="3.9" width="2.65" height="19.67" rx="1.32" ry="1.32" transform="translate(-7.68 13.17) rotate(-56.48)"/><rect class="cls-1" x="11.78" y="-0.32" width="2.65" height="19.67" rx="1.32" ry="1.32" transform="translate(29.13 11.9) rotate(152.48)"/><path class="cls-2" d="M73.09,80.47h0c-3.28,3-9.29,1.75-17.28-4.48-4.39-3.42-38.76-37.77-38.76-37.77-5.48-6.09-6.11-14.53,0-20h0c6.09-5.48,14.42-4,19.9,2.12,0,0,29,35.55,33.51,42.5C76.39,72.07,76.28,77.6,73.09,80.47Z"/><line class="cls-3" x1="42.78" y1="28.13" x2="39.12" y2="31.43"/><line class="cls-3" x1="45.05" y1="30.84" x2="39.23" y2="36.08"/><line class="cls-3" x1="47.65" y1="33.93" x2="44.84" y2="36.46"/><line class="cls-3" x1="43.47" y1="64.35" x2="48.44" y2="59.88"/><line class="cls-3" x1="45.78" y1="66.35" x2="47.28" y2="65"/><line class="cls-3" x1="47.92" y1="67.98" x2="52.33" y2="64.01"/></svg>
