<svg data-name="Layer 1" xmlns="http://www.w3.org/2000/svg" viewBox="0 0 122.72 96.95"><defs><style>.cls-1{fill:#e1e9ef;stroke:#5c6670;stroke-linejoin:round;}.cls-1,.cls-5{stroke-width:2px;}.cls-2{fill:#78cdd1;}.cls-3{fill:#c4d438;}.cls-4{fill:#5c6670;}.cls-5{fill:none;stroke:#000;stroke-miterlimit:10;}</style></defs><title>Artboard 1 copy 7</title><path class="cls-1" d="M97.33,2.54A1.91,1.91,0,0,0,95.09,1L2.54,19A1.91,1.91,0,0,0,1,21.26L12.26,79l96.25-18.71Z"/><polygon class="cls-1" points="12.61 78.96 4.29 94.43 121.72 71.61 108.86 60.25 12.61 78.96"/><path class="cls-2" d="M108.9,70.39l-93,18c-1.5.29-2.07-.1-1.64-.84s2.23-4.17,2.59-4.92a1.38,1.38,0,0,1,1.07-1S103.59,65,104.29,64.89s1,.17,1.38.53,3.44,2.68,4.19,3.42S110,70.18,108.9,70.39Z"/><rect class="cls-3" x="9.31" y="13.48" width="90.55" height="52.44" rx="3.29" ry="3.29" transform="translate(-6.57 11.14) rotate(-11)"/><polygon class="cls-4" points="3.58 94.57 7.82 96.95 119.62 75.22 122.43 71.47 3.58 94.57"/><path class="cls-5" d="M26.36,58.84s3.06-15.59,12.9-17.5S54,48.9,64.45,46.87,83.37,23.41,83.37,23.41"/><circle cx="83.23" cy="23.58" r="1.8" transform="translate(-2.97 16.31) rotate(-11)"/><circle cx="49.23" cy="12.17" r="0.35" transform="translate(-1.42 9.62) rotate(-11)"/><circle cx="26.48" cy="58.87" r="1.8" transform="translate(-10.75 6.13) rotate(-11)"/></svg>
