<svg data-name="Layer 1" xmlns="http://www.w3.org/2000/svg" viewBox="0 0 613.19 715.5" role="presentation"><defs><style>.cls-1{fill:#f0f0f0;}.cls-1,.cls-2,.cls-3,.cls-5,.cls-7{stroke:#5c6670;stroke-linejoin:round;stroke-width:2px;}.cls-2,.cls-4{fill:#c68209;}.cls-3,.cls-6{fill:#5c6670;}.cls-5{fill:#fa7a47;}.cls-7,.cls-9{fill:#78cdd1;}.cls-8{fill:#d1e42d;}.cls-10{fill:#c7d4e2;}.cls-11{fill:#fff;}.cls-12{fill:#546fc3;}.cls-13{fill:#ff8c00;}</style></defs><title>Artboard 15 copy 2</title><rect class="cls-1" x="572.88" y="103.11" width="12" height="76.5" transform="translate(888.26 650.64) rotate(-135)"/><path class="cls-2" d="M484.55,80.78l25.93,1.91-1.34-38.25a8.92,8.92,0,0,0-8.26-8.58h0a8.92,8.92,0,0,0-9.42,7.28Z"/><circle class="cls-2" cx="501.71" cy="33.24" r="25.17" transform="translate(431.8 531.16) rotate(-85.8)"/><polygon class="cls-3" points="483.65 50.79 486.65 30.13 494.65 25.46 504.65 31.46 506.31 18.13 487.48 13.13 478.14 28.47 483.65 50.79"/><rect class="cls-4" x="491.38" y="45.77" width="15.33" height="20" transform="translate(992.67 147.95) rotate(-175.8)"/><path class="cls-3" d="M488.81,22.47s8,32,2.67,38.67-18,10.67-23.33-2,10.67-13.33,14-31.33S488.81,22.47,488.81,22.47Z"/><path class="cls-5" d="M527.7,9.14,476.37,39.45s-12.81-18.11,8.07-32.88S519.82,11,519.82,11Z"/><polyline class="cls-2" points="518.27 15.19 529.32 21.94 524.61 25.22"/><path class="cls-1" d="M522.66,30.1s-4,.37-6.6-1.15"/><circle class="cls-6" cx="517.74" cy="19.71" r="1.33" transform="translate(460.15 534.61) rotate(-85.8)"/><path class="cls-2" d="M497.88,29a5,5,0,1,0,1.91,5.78"/><path class="cls-7" d="M456.31,178.64l57.84,4.25,3.44-90.34a23.82,23.82,0,0,0-22.06-24.66h0A23.82,23.82,0,0,0,470.24,88Z"/><path class="cls-7" d="M494.31,76.46h30a0,0,0,0,1,0,0v71a15,15,0,0,1-15,15h0a15,15,0,0,1-15-15v-71a0,0,0,0,1,0,0Z" transform="translate(1027.53 47.91) rotate(158.94)"/><line class="cls-1" x1="498.65" y1="31.46" x2="493.65" y2="31.46"/><rect class="cls-1" x="-53.48" y="490.8" width="502.36" height="54" transform="translate(703.64 744.14) rotate(135)"/><path class="cls-1" d="M415.7,143.07H591.19a21,21,0,0,1,21,21V420.55a0,0,0,0,1,0,0H394.7a0,0,0,0,1,0,0V164.07a21,21,0,0,1,21-21Z" transform="translate(1006.88 563.62) rotate(-180)"/><line class="cls-1" x1="612.19" y1="185.06" x2="395.2" y2="185.06"/><path class="cls-1" d="M348.7,305.06h30.75a15.75,15.75,0,0,1,15.75,15.75v46.5a15.75,15.75,0,0,1-15.75,15.75H348.7a0,0,0,0,1,0,0v-78A0,0,0,0,1,348.7,305.06Z" transform="translate(743.9 688.11) rotate(-180)"/><circle class="cls-1" cx="373.7" cy="345.56" r="13.5"/><circle class="cls-8" cx="562.31" cy="83.46" r="11"/><circle class="cls-9" cx="443.31" cy="88.46" r="10"/><circle class="cls-10" cx="446.31" cy="16.46" r="9"/><circle class="cls-8" cx="327.31" cy="166.46" r="8"/><circle class="cls-11" cx="393.31" cy="107.46" r="5"/><circle class="cls-11" cx="519.31" cy="106.46" r="6"/><circle class="cls-12" cx="592.81" cy="37.47" r="7"/><circle class="cls-13" cx="338.81" cy="259.47" r="7"/></svg>
