<svg data-name="Layer 1" xmlns="http://www.w3.org/2000/svg" viewBox="0 0 591.14 609.95" role="presentation"><defs><style>.cls-1{fill:#d3dce2;}.cls-1,.cls-10,.cls-11,.cls-13,.cls-3,.cls-4,.cls-5,.cls-7,.cls-8,.cls-9{stroke:#5c6670;stroke-linejoin:round;stroke-width:2px;}.cls-2{fill:#5c6670;}.cls-3{fill:#f0f0f0;}.cls-4{fill:#c1cbd3;}.cls-5,.cls-6{fill:#ffdfb9;}.cls-7{fill:#67c187;}.cls-8{fill:#78cdd1;}.cls-9{fill:#f9b548;}.cls-10{fill:#fff;}.cls-11{fill:#add7db;}.cls-12{fill:#d1e42d;}.cls-13{fill:#e1e9ef;}</style></defs><title>Artboard 15 copy</title><rect class="cls-1" x="152.89" y="397.47" width="18.08" height="187.86"/><polygon class="cls-2" points="171.13 428.19 152.89 411.42 152.89 397.47 171.13 397.47 171.13 428.19"/><rect class="cls-3" x="140.12" y="388.71" width="43.06" height="9.49"/><path class="cls-4" d="M117.11,582.68h96.37a12,12,0,0,1,12,12v14.25a0,0,0,0,1,0,0H105.09a0,0,0,0,1,0,0V594.7A12,12,0,0,1,117.11,582.68Z"/><rect class="cls-2" x="104.73" y="359.52" width="116.77" height="29.92" rx="4.98" ry="4.98"/><path class="cls-2" d="M250,499.37l-7.77,37.32a9.84,9.84,0,0,0,4.47,10.38h0a9.84,9.84,0,0,0,14.58-5.54l9.36-31.14Z"/><rect class="cls-2" x="205.93" y="219.32" width="100.16" height="41.05" transform="translate(72.75 -59.29) rotate(15.37)"/><path class="cls-5" d="M168.23,114.58l39.59,17.73,19.64-60.76a14.88,14.88,0,0,0-8.08-18.15h0a14.88,14.88,0,0,0-18.92,6.07Z"/><path class="cls-5" d="M187.59,46.63c2.84,23.47,21.82,41.4,42.39,40s34.94-21.49,32.1-45-21.82-41.4-42.39-40S184.75,23.16,187.59,46.63Z"/><rect class="cls-3" x="349.93" y="258.44" width="8.39" height="2.19"/><rect class="cls-6" x="189.49" y="66.26" width="23.26" height="33.37" transform="translate(333.82 255.33) rotate(-150)"/><path class="cls-5" d="M257.85,28.85l8.38,10.24a1.93,1.93,0,0,1-1,3.09l-4.06,1.14"/><path class="cls-7" d="M365.53,558.39l3.28,27h66.76a5.42,5.42,0,0,0,5.4-5.84h0a5.42,5.42,0,0,0-3.77-4.75l-52-16.41Z"/><path class="cls-3" d="M260,46.38s-3.22.56-7.12-2.53"/><path class="cls-5" d="M352.39,523.72l13,35.84a9.84,9.84,0,0,0,9.25,6.49h0a9.84,9.84,0,0,0,9.5-12.37l-8.38-31.42Z"/><polygon class="cls-2" points="352.39 523.72 361.39 551.28 382.31 547.07 375.74 522.26 352.39 523.72"/><polyline class="cls-8" points="272.49 370.56 241.12 521.28 265.57 535 326.59 380.11"/><polyline class="cls-2" points="272.49 370.56 262.78 419.08 294.2 463.58 326.59 380.11"/><circle class="cls-2" cx="253.65" cy="33.54" r="2.22" transform="translate(131.29 258.24) rotate(-68.96)"/><path class="cls-8" d="M209.62,317l105.32,34.32a47.22,47.22,0,0,1,31.26,33.75l37.57,154.67H351.23L296.93,400.39l-183-38.49A11.34,11.34,0,0,1,110.51,341l77.68-45.72Z"/><path class="cls-9" d="M186.18,32.46l54.43-3.67L241.84,19l2.45,8.56h15.9S254,4,224.71,1.27C185-2.4,186.18,32.46,186.18,32.46Z"/><path class="cls-10" d="M150,365.07l76.91-45.84-4.65-181.38A34.66,34.66,0,0,0,199,106h0a46.58,46.58,0,0,0-60.8,33.76L96.29,326.16C89.34,357.07,122.75,381.29,150,365.07Z"/><polyline class="cls-10" points="212.01 113.58 206.03 154.43 214.56 153.15 203.32 173.42 225.15 250.36"/><path class="cls-9" d="M232,24s.64,9.94-13.82,18.37a11.73,11.73,0,0,0-5.89,10.12l8.94,62.63A9.33,9.33,0,0,1,212,125.77h-4.3a28.86,28.86,0,0,1-28.79-30.93c1.89-26.26,4.89-61.06,8-70"/><path class="cls-5" d="M223.16,39.81A8.33,8.33,0,1,0,223.41,50"/><line class="cls-3" x1="223.18" y1="44.17" x2="215.19" y2="41.75"/><path class="cls-5" d="M340.36,232.65s9.92-.18,15.24,2.08,4.16,11.4,4,15.3a47,47,0,0,1-.7,5.71,3.56,3.56,0,0,1-3.05,2.9h0a3.57,3.57,0,0,1-4-3.42l-.37-11.16L343,241.12"/><path class="cls-5" d="M288.42,233.37l50.33-3.13c9.68-.6,19.39,9.81,18.5,16.34-.63,4.6-3.17,9.31-4.62,11.7a3.22,3.22,0,0,1-2.85,1.55h0a3.21,3.21,0,0,1-2.87-4.48,17,17,0,0,0,1.47-5.64c.32-5.2-5.6-6.78-5.6-6.78s-8.31,12.18-19.93,12.9S290,259.18,290,259.18"/><line class="cls-3" x1="219.66" y1="43.3" x2="216.47" y2="45.69"/><path class="cls-10" d="M153.53,142.54,133.71,253.82A24,24,0,0,0,159,282l139.32-9.53V232.4H186.5l14.22-85.33"/><polyline class="cls-3" points="177.45 235.63 186.5 232.4 182.62 237.57"/><path class="cls-10" d="M164.38,124.32s6.9-5.29,18.64,2.11"/><line class="cls-3" x1="140.01" y1="309.36" x2="180.87" y2="291.12"/><polyline class="cls-10" points="133.19 364.98 141.21 369.19 187.19 422.28 226.13 317.86"/><path class="cls-7" d="M242.22,536.68l-13,23.77,32.07,24.87h29.66a5,5,0,0,0,5-5h0a5,5,0,0,0-3.26-4.71L275,569l-13.73-27.44Z"/><rect class="cls-3" x="236.24" y="585.97" width="319.53" height="22.43"/><polyline class="cls-11" points="296.38 390.28 296.93 400.39 302.49 395.52"/><line class="cls-3" x1="562.67" y1="608.95" y2="608.95"/><path class="cls-12" d="M537.76,310.26a112.11,112.11,0,0,1,0-224.22"/><polygon class="cls-13" points="303.23 269.02 443.35 269.02 443.35 301.13 418.54 325.95 303.23 283.62 303.23 269.02"/><rect class="cls-3" x="313.45" y="261" width="87.57" height="8.03"/><polygon class="cls-13" points="581.28 327.41 420 327.41 501.74 80.74 560.85 80.74 581.28 80.74 581.28 327.41"/><line class="cls-3" x1="543.33" y1="296.03" x2="568.15" y2="296.03"/><line class="cls-3" x1="543.33" y1="300.41" x2="568.15" y2="300.41"/><line class="cls-3" x1="543.33" y1="304.78" x2="568.15" y2="304.78"/><line class="cls-3" x1="543.33" y1="309.16" x2="568.15" y2="309.16"/><line class="cls-3" x1="543.33" y1="313.54" x2="568.15" y2="313.54"/><rect class="cls-3" x="478.49" y="334.25" width="60.75" height="251.5"/><polygon class="cls-2" points="539.24 361.96 478.49 382.87 478.49 334.25 539.24 334.25 539.24 361.96"/><rect class="cls-3" x="411.17" y="327.14" width="178.97" height="8.21" rx="3.14" ry="3.14"/><rect class="cls-3" x="335.7" y="258.44" width="8.39" height="2.19"/><rect class="cls-3" x="322.75" y="258.44" width="8.39" height="2.19"/><rect class="cls-3" x="363.25" y="258.44" width="8.39" height="2.19"/><rect class="cls-3" x="375.48" y="258.44" width="8.39" height="2.19"/><rect class="cls-3" x="391.17" y="258.44" width="8.39" height="2.19"/><line class="cls-3" x1="367.93" y1="580.74" x2="383.64" y2="580.74"/></svg>
