<svg data-name="Layer 1" xmlns="http://www.w3.org/2000/svg" viewBox="0 0 428.83 377.3" role="presentation"><defs><style>.cls-1{fill:#5c6670;}.cls-1,.cls-3,.cls-4,.cls-5,.cls-6{stroke:#5c6670;stroke-linejoin:round;}.cls-1,.cls-2,.cls-3,.cls-4,.cls-5,.cls-6,.cls-8{stroke-width:2px;}.cls-2,.cls-7{fill:#f2d076;}.cls-2,.cls-8{stroke:#5c666f;stroke-miterlimit:10;}.cls-3,.cls-9{fill:#fff;}.cls-4{fill:#f0f0f0;}.cls-6{fill:#c4d438;}.cls-8{fill:#ec804e;}.cls-10{fill:#d1e42d;}.cls-11{fill:#78cdd1;}.cls-12{fill:#c7d4e2;}</style></defs><title>Artboard 15</title><path class="cls-1" d="M134.77,141.6l-5.78-.35a38.32,38.32,0,0,1-35.16-30.12h0l42.61,2.55Z"/><circle class="cls-2" cx="107.14" cy="126.92" r="7.11" transform="translate(-25.96 226.29) rotate(-86.57)"/><path class="cls-2" d="M65.86,105.7a5.52,5.52,0,0,1,5.84-5.22l64.24,3.85c16.16,1,65.92,103,75.93,120.54l-45.57-2.24s-39.76-70.31-41.66-75.73c-7.77-22.09-2-32.31-12-32.91L71,111.49a5.52,5.52,0,0,1-5.18-5.79Z"/><polygon class="cls-3" points="307.69 342.07 262.89 373.82 171.57 244.97 192.23 179.16 307.69 342.07"/><path class="cls-2" d="M129.45,123.16s-11.27-1.68-16.31-2.75c-6.83-1.45-17.08,8.75-4.76,16.83s18.78,10.17,18.78,10.17"/><path class="cls-4" d="M172.16,252.16l-7.58-10.39a15.31,15.31,0,0,1-2.4-14L181,172.35c1-3,5.55-3.41,7.59-.61l11.27,15.46a3.72,3.72,0,0,1,.58,3.4l-20.74,61C178.72,254.59,174.2,255,172.16,252.16Z"/><polygon class="cls-2" points="220.21 111.37 234.93 143.01 305.57 129.03 271.15 71.64 220.21 111.37"/><path class="cls-2" d="M241.47,121.73,229,125a29.19,29.19,0,0,1-36.58-30.26l3-42.13A37.82,37.82,0,0,1,223.47,18.7h0a37.82,37.82,0,0,1,47.27,32.48l2.62,24.13A43.18,43.18,0,0,1,241.47,121.73Z"/><path class="cls-5" d="M273.35,73.73S272,39.35,269.11,25.41s-11.62-10-11.62-10-2.26-11.65-17-11.83-32.57,12.7-32.57,12.7-7.17-1.49-13.45,14.87,1.39,13.63,1.39,13.63C208.79,53.61,224,34.07,224,34.07s2.77,7.27,7.5,6.63l.24.91a9.8,9.8,0,0,0,17.9,2.51l1.39-2.34Z"/><path class="cls-2" d="M196.25,50.79l-8.36,19.93a2.11,2.11,0,0,0,2.48,2.85l5.29-1.4"/><path class="cls-2" d="M244.45,49.81a10.62,10.62,0,0,1,10.12-11.11l1.89-.09a10.62,10.62,0,0,1,11.11,10.12l.59,12.62A10.62,10.62,0,0,1,258,72.46l-1.89.09a10.59,10.59,0,0,1-7.5-2.62"/><path class="cls-2" d="M257.7,42.35S248.39,44.2,249,55.68"/><path class="cls-2" d="M249.9,49.93s6.48-1.1,7.27,5.43"/><path class="cls-4" d="M196.4,76.55a35,35,0,0,0,10.16-1.87"/><path class="cls-6" d="M173.84,46.61l100.09-8.23S273.93,1,230.85,1s-44.34,40.54-44.34,40.54Z"/><polygon class="cls-7" points="294.61 116.91 245.25 136.76 223.96 104.45 272.11 74.21 294.61 116.91"/><circle class="cls-1" cx="201.95" cy="55.68" r="1.96"/><polygon class="cls-3" points="288.3 101.8 225.75 132.71 229.83 162.47 305.57 129.03 288.3 101.8"/><path class="cls-8" d="M427.39,376.3H196.31l22-206.29a54.9,54.9,0,0,1,54.59-49.08h0a85.69,85.69,0,0,1,80.32,55.83Z"/><path class="cls-9" d="M10,70.45a17.11,17.11,0,1,1,4.65,33.9"/><path class="cls-1" d="M16.19,120.88,19,143.74l40.4,5s-6.64-16.43-18.43-20.63S16.19,120.88,16.19,120.88Z"/><path class="cls-4" d="M22.52,188.87h0A3.31,3.31,0,0,1,18.81,186L1,47.32a3.31,3.31,0,0,1,2.86-3.71h0A3.31,3.31,0,0,1,7.6,46.48L25.38,185.16A3.31,3.31,0,0,1,22.52,188.87Z"/><path class="cls-2" d="M9.87,140.44a7,7,0,1,1,2.23-13.88S27.6,128,38.54,130s16.2,11.8,28.38,26.51,43.22,52.32,43.22,52.32l-9.74,71.5S34.4,187.22,30,186.78c-5-.5-21.7-4.39-21.7-4.39a6.22,6.22,0,1,1,2-12.28"/><path class="cls-2" d="M10.54,140.75a7.62,7.62,0,1,0-2.41,15l1.72.33"/><path class="cls-2" d="M10.07,156.25a7,7,0,0,0-1,14l2.33.47"/><path class="cls-3" d="M277.31,142a39.5,39.5,0,0,1,20.42,50.19L247.91,320.79c-14.83,37.8-63.57,48-92.28,19.26L81.51,265.91l13.94-75.76L186,279.9l37.35-114.28a39.5,39.5,0,0,1,54-23.66Z"/><path class="cls-4" d="M78.92,268.94l-8.49-10.35a17.78,17.78,0,0,1-3.62-15.1l14.1-64.1a4.32,4.32,0,0,1,7.56-1.81L101.1,193a4.32,4.32,0,0,1,.88,3.67l-15.5,70.48A4.32,4.32,0,0,1,78.92,268.94Z"/><path class="cls-3" d="M181.28,296.52l1.91-17.84a3.5,3.5,0,0,1,6.69-1l6.85,15.57"/><circle class="cls-10" cx="56.56" cy="84.58" r="9.93"/><circle class="cls-11" cx="81.95" cy="60.3" r="6.62"/><circle class="cls-12" cx="127.2" cy="87.89" r="3.31"/></svg>
