<svg data-name="Layer 1" xmlns="http://www.w3.org/2000/svg" viewBox="0 0 94.13 93.32"><defs><style>.cls-1{fill:#78cdd1;stroke:#5c6670;}.cls-1,.cls-2{stroke-linejoin:round;stroke-width:2px;}.cls-2{fill:#fff;stroke:#5c666f;stroke-linecap:round;}</style></defs><title>Artboard 1 copy 8</title><polygon class="cls-1" points="58.25 59.17 93.13 35.6 62.02 2.24 27.26 25.94 1.2 58.96 32.3 92.32 58.25 59.17"/><path class="cls-2" d="M23.92,22.35h0c-4.09.56-9.13,3.75-13.63,7.94-6.67,6.22-11.74,14.26-8,18.23L30.79,79.12a2.61,2.61,0,0,0,4-.19s5.51-8.72,9.69-12.62c4.7-4.38,9.93-7,13.75-7.18C58.08,59.13,23.92,22.35,23.92,22.35Z"/><path class="cls-2" d="M58.22,59.13c.48-3.8,3.37-8.9,8.06-13.28,4.18-3.9,13.26-8.79,13.26-8.79a2.61,2.61,0,0,0,.47-4L51.47,2.5c-3.7-4-12.08.53-18.74,6.75-4.5,4.19-8,9-8.87,13h0S58.23,59,58.22,59.13Z"/></svg>
