<svg data-name="Layer 7" xmlns="http://www.w3.org/2000/svg" viewBox="0 0 64 161.41"><defs><style>.cls-1{fill:#f0f0f0;}.cls-1,.cls-2,.cls-5,.cls-7{stroke:#5c6670;stroke-linejoin:round;stroke-width:2px;}.cls-2,.cls-5{fill:#fff;}.cls-3{fill:#fa7a47;}.cls-4{fill:#c7d4e2;}.cls-5{stroke-linecap:round;}.cls-6{fill:#6cc;}.cls-7{fill:none;}</style></defs><title>Artboard 1</title><path class="cls-1" d="M17.83,1.45,55,10.27c6.25,1.75,8,7.11,8,19.24V149.62c0,6.73-3.75,10.79-9.08,10.79l-45.17-.27c-7.23,0-7.75-6.78-7.75-14V13.21C1,3.11,9.39-.06,17.83,1.45Z"/><path class="cls-2" d="M20.24,1.45l34.47,8.82c6.25,1.75,8,5.26,8,17.37v121.6c0,6.73-3.75,9.62-9.08,9.62l-38.22-.27c-7.23,0-7.75-5.6-7.75-12.83V14C7.68,1.77,11.82-.06,20.24,1.45Z"/><path class="cls-3" d="M36.54,141.43c2.51,0,4.54,2.75,4.54,6.15s-2,6.14-4.54,6.14S32,151,32,147.58,34,141.43,36.54,141.43Z"/><path class="cls-4" d="M4.22,21.5a1,1,0,0,1,1,1.05h0l-.1,5.35a1.06,1.06,0,0,1-1,1.07,1,1,0,0,1-1-1v0l.09-5.35A1.06,1.06,0,0,1,4.22,21.5Z"/><path class="cls-4" d="M4.26,50.62c1,0,1.87,1.26,1.87,2.8s-.84,2.81-1.87,2.81S2.39,55,2.39,53.43,3.22,50.62,4.26,50.62Z"/><path class="cls-4" d="M4.26,36.73c1,0,1.87,1.26,1.87,2.81s-.84,2.8-1.87,2.8-1.87-1.25-1.87-2.8S3.22,36.73,4.26,36.73Z"/><path class="cls-5" d="M32.57,16.39,40.23,18a1.69,1.69,0,0,1,1.37,1.58,1.1,1.1,0,0,1-1.37,1.09l-7.66-1.64a1.7,1.7,0,0,1-1.37-1.59,1.1,1.1,0,0,1,1.37-1.09Z"/><path class="cls-3" d="M36.14,11.34a1.5,1.5,0,1,1-1.2,1.47A1.36,1.36,0,0,1,36.14,11.34Z"/><path class="cls-6" d="M11.42,22.3V136.94L59,138.81l.26-107.16Z"/><line class="cls-7" x1="1" y1="146.14" x2="7.68" y2="145.76"/><line class="cls-7" x1="1" y1="14.47" x2="7.68" y2="14.08"/></svg>
