<?xml version="1.0" encoding="utf-8"?>
<!-- Generator: Adobe Illustrator 19.2.0, SVG Export Plug-In . SVG Version: 6.00 Build 0)  -->
<svg version="1.1" xmlns="http://www.w3.org/2000/svg" xmlns:xlink="http://www.w3.org/1999/xlink"
	 x="0px" y="0px" viewBox="0 0 1351.3 1048.3" style="enable-background:new 0 0 1351.3 1048.3;" xml:space="preserve">
<style type="text/css">
	.st0{fill:#BABABA;}
	.st1{fill:#F7F7F7;}
	.st2{fill:#78CDD1;}
	.st3{fill:#DBDBDB;}
	.st4{fill:#F0F0F0;}
	.st5{opacity:0.7;fill:url(#SVGID_1_);enable-background:new    ;}
	.st6{fill:#D1E42D;}
	.st7{fill:#FFFFFF;}
	.st8{fill:#FA7A47;}
</style>
<path class="st0" d="M687.8,153.7h2.4c0.7,0,1.2,0.5,1.2,1.2v15.2c0,0.7-0.5,1.2-1.2,1.2h-2.4c-0.7,0-1.2-0.5-1.2-1.2v-15.2
	C686.6,154.3,687.1,153.7,687.8,153.7z"/>
<path class="st0" d="M742.4,153.7h2.4c0.7,0,1.2,0.5,1.2,1.2v15.2c0,0.7-0.5,1.2-1.2,1.2h-2.4c-0.7,0-1.2-0.5-1.2-1.2v-15.2
	C741.2,154.3,741.8,153.7,742.4,153.7z"/>
<title>Big_light_pole_02</title>
<path class="st1" d="M724.2,46.5c0-4.1-3.3-7.4-7.4-7.5c0,0,0,0,0,0h-0.1c-4.1,0-7.4,3.3-7.4,7.4c0,0,0,0,0,0v1000.8h14.8
	L724.2,46.5z"/>
<path class="st0" d="M724.1,270.1h-14.7V166.5c0-0.7,0.6-1.3,1.3-1.3l0,0h12.1c0.7,0,1.3,0.6,1.3,1.3c0,0,0,0,0,0l0,0L724.1,270.1
	L724.1,270.1z"/>
<path class="st2" d="M673.8,164h84.3c3.4,0,6.1,2.7,6.1,6.1v83.5c0,3.4-2.7,6.1-6.1,6.1h-84.3c-3.4,0-6.1-2.7-6.1-6.1v-83.5
	C667.7,166.8,670.5,164,673.8,164z"/>
<rect x="704.6" y="64.1" class="st3" width="22.9" height="57.2"/>
<rect x="670.3" y="75.6" class="st4" width="91.1" height="13"/>
<path class="st2" d="M709.3,1h14.9c0.9,0,1.7,0.8,1.7,1.7v44.5c0,0.9-0.8,1.7-1.7,1.7h-14.9c-0.9,0-1.7-0.8-1.7-1.7V2.7
	C707.6,1.8,708.4,1,709.3,1z"/>
<circle class="st2" cx="589" cy="225.5" r="3.6"/>
<linearGradient gradientUnits="userSpaceOnUse" x1="675.635" y1="957.05" x2="675.635" y2="-0.28" gradientTransform="matrix(1 0 0 -1 0 1048)">
	<stop  offset="0.62" style="stop-color:#FFFFFF"/>
	<stop  offset="0.9" style="stop-color:#FFFFFF;stop-opacity:0"/>
</linearGradient>
<polygon class="st5" points="1351.3,1048.3 0,1048.3 668.3,90.9 759.6,90.9 "/>
<path class="st6" d="M739,113.1h-48c-11.1,0-20.1-9-20.2-20.1v-4.4h88.3V93C759.1,104.1,750.1,113.1,739,113.1z"/>
<rect x="670.3" y="77.1" class="st0" width="91.1" height="13"/>
<circle class="st7" cx="796.9" cy="107" r="3.9"/>
<circle class="st7" cx="612.7" cy="186" r="3.9"/>
<circle class="st2" cx="639.8" cy="53.5" r="3.6"/>
<circle class="st8" cx="771.2" cy="126.7" r="5.5"/>
</svg>
