<svg data-name="26" xmlns="http://www.w3.org/2000/svg" viewBox="0 0 565.51 108.74" role="presentation"><defs><style>.cls-1{fill:#fff;}</style></defs><title>Cloud</title><path class="cls-1" d="M711.25,869.71a108.75,108.75,0,1,1,217.49,0" transform="translate(-468.94 -760.96)"/><path class="cls-1" d="M679.53,869.71a91,91,0,1,1,181.93,0" transform="translate(-468.94 -760.96)"/><path class="cls-1" d="M609.47,869.71a54.54,54.54,0,1,1,109.07,0" transform="translate(-468.94 -760.96)"/><path class="cls-1" d="M557.62,869.71a37.39,37.39,0,0,1,74.77,0" transform="translate(-468.94 -760.96)"/><path class="cls-1" d="M521.43,869.71a20.33,20.33,0,0,1,40.66,0" transform="translate(-468.94 -760.96)"/><path class="cls-1" d="M496.69,869.71a15.07,15.07,0,0,1,30.14,0" transform="translate(-468.94 -760.96)"/><path class="cls-1" d="M468.94,869.71a9.82,9.82,0,1,1,19.64,0" transform="translate(-468.94 -760.96)"/><path class="cls-1" d="M841.78,869.71a74.21,74.21,0,1,1,148.41,0" transform="translate(-468.94 -760.96)"/><path class="cls-1" d="M974.52,869.71a30,30,0,1,1,59.93,0" transform="translate(-468.94 -760.96)"/></svg>
