<svg data-name="Smart Cities-Icon" xmlns="http://www.w3.org/2000/svg" viewBox="0 0 58.33 58.33"><title>Smart-city-icon</title><path fill="#5470c0" fill-rule="evenodd" d="M928.58,511.43a29.17,29.17,0,1,1-29.16,29.16A29.17,29.17,0,0,1,928.58,511.43Z" transform="translate(-899.42 -511.43)"/><path fill="#fff" d="M931.86,535.45l-3.85,4.4-1-1a1.5,1.5,0,0,0-2.12,2.12l2.1,2.1a1.5,1.5,0,0,0,1.06.44h0a1.49,1.49,0,0,0,1.08-.52l4.9-5.6a1.5,1.5,0,1,0-2.25-2Z" transform="translate(-899.42 -511.43)"/><path fill="#fff" d="M946.91,527.47a2.57,2.57,0,0,0-2.51-2.18,23.06,23.06,0,0,1-14.17-5,2.72,2.72,0,0,0-3.29,0,23.13,23.13,0,0,1-14.18,5,2.57,2.57,0,0,0-2.51,2.18A33.12,33.12,0,0,0,918,555.24a34.36,34.36,0,0,0,8.91,7.42,3.31,3.31,0,0,0,1.68.45,3.34,3.34,0,0,0,1.69-.45,34.31,34.31,0,0,0,8.9-7.42A33.08,33.08,0,0,0,946.91,527.47Zm-10,25.83a31.16,31.16,0,0,1-8.13,6.77.34.34,0,0,1-.34,0,31.49,31.49,0,0,1-8.13-6.77,30.21,30.21,0,0,1-7.12-25,26.44,26.44,0,0,0,9-1.84,26,26,0,0,0,6.4-3.67,25.86,25.86,0,0,0,6.41,3.67,26.38,26.38,0,0,0,9,1.84A30.17,30.17,0,0,1,936.88,553.3Z" transform="translate(-899.42 -511.43)"/></svg>
