<?xml version="1.0" encoding="utf-8"?>
<!-- Generator: Adobe Illustrator 19.2.0, SVG Export Plug-In . SVG Version: 6.00 Build 0)  -->
<svg version="1.1" xmlns="http://www.w3.org/2000/svg" xmlns:xlink="http://www.w3.org/1999/xlink"
	 x="0px" y="0px" viewBox="0 0 77.4 579.3" style="enable-background:new 0 0 77.4 579.3;" xml:space="preserve">
<style type="text/css">
	.st0{fill:#F6F6F6;}
	.st1{fill:#F7F7F7;stroke:#5C6670;stroke-width:2;stroke-linejoin:round;}
	.st2{fill:#BABABA;}
	.st3{fill:#DBDBDB;}
	.st4{fill:#D1E42D;}
	.st5{fill:#F0F0F0;}
	.st6{fill:#78CDD1;}
</style>
<title>Light_pole</title>
<path class="st0" d="M45.4,578.3V39.2c0-3.4-2.7-6.1-6.1-6.1l0,0c-3.4,0-6.1,2.7-6.1,6.1c0,0,0,0,0,0v539.1L45.4,578.3z"/>
<path class="st1" d="M45.4,555"/>
<path class="st1" d="M33.3,555.6"/>
<path class="st2" d="M16.9,108.2h1.3c0.7,0,1.2,0.5,1.2,1.2v11.4c0,0.7-0.5,1.2-1.2,1.2h-1.3c-0.7,0-1.2-0.5-1.2-1.2v-11.4
	C15.7,108.7,16.3,108.2,16.9,108.2z"/>
<path class="st2" d="M59.7,108.2H61c0.7,0,1.2,0.5,1.2,1.2v11.4c0,0.7-0.5,1.2-1.2,1.2h-1.3c-0.7,0-1.2-0.5-1.2-1.2v-11.4
	C58.5,108.7,59,108.2,59.7,108.2z"/>
<rect x="29.3" y="53.6" class="st3" width="18.8" height="47"/>
<path class="st4" d="M54,93.9H21.7c-11.1,0-20.2-9-20.2-20.1c0,0,0,0,0-0.1l0,0l0,0h72.5l0,0l0,0C74.1,84.9,65.1,93.9,54,93.9
	L54,93.9z"/>
<rect x="1.1" y="64.4" class="st2" width="74.8" height="10.7"/>
<rect x="1.1" y="62.4" class="st5" width="74.8" height="10.7"/>
<path class="st2" d="M45.1,199.2H33.6l0,0v-80.8c0-0.7,0.6-1.3,1.3-1.3l0,0h8.9c0.7,0,1.3,0.6,1.3,1.3v0L45.1,199.2L45.1,199.2
	L45.1,199.2z"/>
<path class="st6" d="M7.1,116.2h63.2c3.4,0,6.1,2.7,6.1,6.1v62.6c0,3.4-2.7,6.1-6.1,6.1H7.1c-3.4,0-6.1-2.7-6.1-6.1v-62.6
	C1,118.9,3.7,116.2,7.1,116.2z"/>
<path class="st6" d="M33.1,1h12.5c0.9,0,1.7,0.8,1.7,1.7v35.2c0,0.9-0.8,1.7-1.7,1.7H33.1c-0.9,0-1.7-0.8-1.7-1.7V2.7
	C31.4,1.8,32.2,1,33.1,1z"/>
</svg>
