<?xml version="1.0" encoding="utf-8"?>
<!-- Generator: Adobe Illustrator 19.2.0, SVG Export Plug-In . SVG Version: 6.00 Build 0)  -->
<svg version="1.1" xmlns="http://www.w3.org/2000/svg" xmlns:xlink="http://www.w3.org/1999/xlink" x="0px"
	 y="0px" viewBox="0 0 576.9 514.8" style="enable-background:new 0 0 576.9 514.8;" xml:space="preserve">
<style type="text/css">
	.st0{fill:none;stroke:#64A55E;stroke-width:1.5;stroke-linecap:round;stroke-linejoin:round;stroke-miterlimit:10;}
	.st1{fill:none;stroke:#5C6670;stroke-width:2;stroke-linejoin:round;}
	.st2{fill:#78CDD1;}
	.st3{fill:#D1E42D;}
	.st4{fill:#C7D4E2;}
	.st5{fill:#546FC3;}
	.st6{fill:#FF8C00;}
	.st7{fill:#F6F6F6;}
	.st8{fill:#EFC8A7;}
	.st9{fill:#ED4C6B;}
	.st10{fill:#BABABA;}
	.st11{fill:#6B4557;}
	.st12{fill:#55A5A5;}
	.st13{fill:#DCAA84;}
	.st14{fill:#894A20;}
	.st15{fill:#995624;}
	.st16{fill:#A7B6C4;}
	.st17{fill:#50A06B;}
	.st18{fill:#67C187;}
	.st19{fill:#EDC964;}
	.st20{fill:#C4A24D;}
	.st21{fill:#FFFFFF;}
	.st22{fill:#321B0F;}
	.st23{fill:none;stroke:#000000;stroke-width:0.8843;stroke-miterlimit:10;}
	.st24{fill:#F06263;}
	.st25{fill:#FAB54C;}
	.st26{fill:#231F20;}
	.st27{fill:#F48866;}
	.st28{fill:none;stroke:#49516C;stroke-width:0.4746;stroke-miterlimit:10;}
	.st29{fill:#55B9BF;}
</style>
<path class="st0" d="M46.8,476.4c2.8,3.8,4.6,8.3,5.1,13"/>
<path class="st0" d="M46.9,469.7c2.8,6.2,4.9,12.8,6.3,19.5l-0.5-20.5"/>
<title>Artboard 1</title>
<line class="st1" x1="0" y1="489.4" x2="567.5" y2="489.4"/>
<circle class="st2" cx="230.7" cy="387.2" r="30.1"/>
<path class="st2" d="M22.6,512.1H57c21,0,26.2-5.2,50.7-5.2s15.7,7,48.9,7h252.3l-24.5-26.2H55.9L22.6,512.1z"/>
<circle class="st3" cx="197.9" cy="305" r="4.4"/>
<circle class="st2" cx="221.9" cy="240.8" r="7.4"/>
<circle class="st4" cx="325.9" cy="202.3" r="4.8"/>
<circle class="st5" cx="134.9" cy="202.7" r="4.4"/>
<circle class="st3" cx="536.4" cy="178.6" r="21"/>
<circle class="st3" cx="496.5" cy="95.2" r="7.9"/>
<circle class="st2" cx="568.2" cy="43.7" r="8.7"/>
<circle class="st6" cx="431" cy="161.7" r="4.4"/>
<circle class="st4" cx="326.1" cy="283.7" r="28.8"/>
<path class="st7" d="M340.6,280l-5.4,3.1v-4.4c0-1.3-1-2.3-2.3-2.3h-15.7c-1.3,0-2.3,1-2.3,2.3v11.8c0,1.3,1,2.3,2.3,2.3h15.7
	c1.3,0,2.3-1,2.3-2.3v-3.7l5.4,3.1V280z"/>
<circle class="st2" cx="222.5" cy="133.8" r="28.8"/>
<circle class="st7" cx="221.7" cy="134.4" r="15.7"/>
<polygon class="st2" points="230.1,134.7 216.9,127.1 216.9,142.3 "/>
<path class="st8" d="M510.9,470l-1,8.8c0,0,4.3,5.2,4.8,5.2s9.7-2.2,9.7-2.2l1.9-3.8l-0.5-7.1L510.9,470z"/>
<polygon class="st8" points="501.5,472.5 502.1,480 493,484.9 484.7,479.3 485.2,472.9 "/>
<path class="st9" d="M473.9,498.4c9.3-0.2,8.8-0.1,12.4-2c3.6-1.8,5-3.5,9.3-5.2c3.3-1.3,7.2-2.4,8.9-2.9c0-2.6-0.1-5.8-0.6-7.9
	c-0.9-3.7-1.4-5-1.4-5s-1.2-2.7-1.1-1.2c0.1,1.4,0.6,4.2-2.3,6.1c-2.9,1.8-4.2,2.4-5.8,0c-1.5-2.4-4.8-3.2-6.4-3.5
	c-1.5-0.3-2.9-0.2-2.9-0.2L473.8,487c0,0-6.7,3.4-9,5.4c-1.5,1.3-1.9,3.1-2,4.6C464.8,497.7,468.2,498.6,473.9,498.4z"/>
<path class="st9" d="M538.1,498.4c-9.3-0.2-8.8-0.1-12.4-2c-3.6-1.8-5-3.5-9.3-5.2c-3.3-1.3-7.2-2.4-8.9-2.9c0-2.6,0.1-5.8,0.6-7.9
	c0.9-3.7,1.4-5,1.4-5s1.2-2.7,1.1-1.2s-0.6,4.2,2.3,6.1c2.9,1.8,4.2,2.4,5.8,0c1.5-2.4,4.8-3.2,6.4-3.5c1.5-0.3,2.9-0.2,2.9-0.2
	l10.2,10.4c0,0,6.7,3.4,9,5.4c1.5,1.3,1.9,3.1,2,4.6C547.2,497.7,543.7,498.6,538.1,498.4z"/>
<path class="st10" d="M495.7,491.3c-4.3,1.7-5.8,3.4-9.3,5.2c-3.6,1.8-3.1,1.7-12.4,2c-5.7,0.1-9.2-0.7-11-1.4
	c0,0.8,0.1,1.6,0.1,2.3c0.2,1.7,4.6,3.2,9.3,3.3c4.7,0.1,9.9-0.3,13.1-0.9c3.3-0.6,4.4-3.8,10-6.2c5.5-2.4,8.8-2.9,8.9-3.3
	c0-0.2,0.1-1.8,0.1-3.8C502.9,488.8,499,489.9,495.7,491.3z"/>
<path class="st10" d="M516.3,491.3c4.3,1.7,5.8,3.4,9.3,5.2c3.6,1.8,3.1,1.7,12.4,2c5.7,0.1,9.2-0.7,11-1.4c0,0.8-0.1,1.6-0.1,2.3
	c-0.2,1.7-4.6,3.2-9.3,3.3c-4.7,0.1-9.9-0.3-13.1-0.9c-3.3-0.6-4.4-3.8-10-6.2c-5.5-2.4-8.8-2.9-8.9-3.3c0-0.2-0.1-1.8-0.1-3.8
	C509.1,488.8,513,489.9,516.3,491.3z"/>
<g>
	<g>
		<path class="st10" d="M487.1,485c-0.2,0-0.4-0.1-0.4-0.3l0,0c0,0-0.3-0.6-2.2-1.4c-2.1-0.9-4.5-0.6-4.5-0.6
			c-0.2,0-0.5-0.1-0.5-0.4c0-0.2,0.1-0.5,0.4-0.5c0.1,0,2.6-0.3,4.9,0.7c2.3,0.9,2.7,1.7,2.7,1.9c0.1,0.2-0.1,0.5-0.3,0.5
			C487.2,485,487.1,485,487.1,485z"/>
	</g>
	<g>
		<path class="st10" d="M482.5,489.7c-0.2,0-0.4-0.1-0.4-0.3l0,0c0,0-0.3-0.6-2.2-1.4c-2.1-0.9-4.5-0.6-4.5-0.6
			c-0.3,0-0.5-0.1-0.5-0.4c0-0.2,0.1-0.5,0.4-0.5c0.1,0,2.6-0.3,4.9,0.7c2.3,0.9,2.7,1.7,2.7,1.9c0.1,0.2-0.1,0.5-0.3,0.5
			C482.5,489.7,482.5,489.7,482.5,489.7z"/>
	</g>
	<g>
		<path class="st10" d="M484.8,487.2c-0.2,0-0.4-0.1-0.4-0.3l0,0c0,0-0.3-0.6-2.2-1.4c-2.1-0.9-4.5-0.6-4.5-0.6
			c-0.3,0-0.5-0.1-0.5-0.4c0-0.2,0.1-0.5,0.4-0.5c0.1,0,2.6-0.3,4.9,0.7c2.3,0.9,2.7,1.7,2.7,1.9c0.1,0.2-0.1,0.5-0.3,0.5
			C484.9,487.2,484.9,487.2,484.8,487.2z"/>
	</g>
	<g>
		<path class="st10" d="M489.4,482.4c-0.2,0-0.4-0.1-0.4-0.3l0,0c0,0-0.3-0.6-2.2-1.4c-2.1-0.9-4.5-0.6-4.5-0.6
			c-0.3,0-0.5-0.1-0.5-0.4c0-0.2,0.1-0.5,0.4-0.5c0.1,0,2.6-0.3,4.9,0.7c2.3,0.9,2.7,1.7,2.7,1.9c0.1,0.2-0.1,0.5-0.3,0.5
			C489.5,482.4,489.5,482.4,489.4,482.4z"/>
	</g>
</g>
<g>
	<g>
		<path class="st10" d="M529.5,489.7c0.2,0,0.4-0.1,0.4-0.3l0,0c0,0,0.3-0.6,2.2-1.4c2.1-0.9,4.5-0.6,4.5-0.6c0.3,0,0.5-0.1,0.5-0.4
			c0-0.2-0.1-0.5-0.4-0.5c-0.1,0-2.6-0.3-4.9,0.7c-2.3,0.9-2.7,1.7-2.7,1.9c-0.1,0.2,0.1,0.5,0.3,0.5
			C529.4,489.7,529.5,489.7,529.5,489.7z"/>
	</g>
	<g>
		<path class="st10" d="M527.2,487.2c0.2,0,0.4-0.1,0.4-0.3l0,0c0,0,0.3-0.6,2.2-1.4c2.1-0.9,4.5-0.6,4.5-0.6c0.3,0,0.5-0.1,0.5-0.4
			c0-0.2-0.1-0.5-0.4-0.5c-0.1,0-2.6-0.3-4.9,0.7c-2.3,0.9-2.7,1.7-2.7,1.9c-0.1,0.2,0.1,0.5,0.3,0.5
			C527.1,487.2,527.1,487.2,527.2,487.2z"/>
	</g>
	<g>
		<path class="st10" d="M524.9,485c0.2,0,0.4-0.1,0.4-0.3l0,0c0,0,0.3-0.6,2.2-1.4c2.1-0.9,4.5-0.6,4.5-0.6c0.2,0,0.5-0.1,0.5-0.4
			c0-0.2-0.1-0.5-0.4-0.5c-0.1,0-2.6-0.3-4.9,0.7c-2.3,0.9-2.7,1.7-2.7,1.9c-0.1,0.2,0.1,0.5,0.3,0.5C524.8,485,524.9,485,524.9,485
			z"/>
	</g>
	<g>
		<path class="st10" d="M522.5,482.4c0.2,0,0.4-0.1,0.4-0.3l0,0c0,0,0.3-0.6,2.2-1.4c2.1-0.9,4.5-0.6,4.5-0.6c0.3,0,0.5-0.1,0.5-0.4
			c0-0.2-0.1-0.5-0.4-0.5c-0.1,0-2.6-0.3-4.9,0.7c-2.3,0.9-2.7,1.7-2.7,1.9c-0.1,0.2,0.1,0.5,0.3,0.5
			C522.5,482.4,522.5,482.4,522.5,482.4z"/>
	</g>
</g>
<path class="st3" d="M475.1,310.5c0,0,0.4,41.6,2.6,83.3c0.8,16.3,4.9,78.4,5.4,81.3c0.5,2.8,20.2,3.6,21.2-1.3s0-76.1,0-80.7
	s1.8-33.1,1.8-33.1s1.8,68.8,1.8,79.2s0,31.6,0.3,34.9c0.3,3.4,20.3,2.8,20.6-0.5c0.3-3.4,3.8-69.1,4.3-80.7s2.3-70.1,2.1-83.9
	C534.9,295.2,475.1,310.5,475.1,310.5z"/>
<path class="st2" d="M539.3,218.3c-5.3-5-14.7-6.2-18.9-6.7c-8-1-26.7-2.3-48.1,9.6c-2.9,1.6-8.3,6.6-10.1,9.1
	c-2.3,3.2-5.5,12.5-5.5,12.5l-1.5,2.1l-0.1,1.9c0,0-3.2,11.9-4.4,13.9c-1.1,1.9-2.6,6.5-2.6,6.5c0.6-1.9,6.3-1.7,12.6,0.4
	c6.3,2.1,10.9,5.4,10.3,7.3l1.5-4.9v43.9c-0.1,1.1-0.1,2.2-0.2,3.1l0.2-0.1l0,0c-0.1,0.2-0.2,0.4-0.2,0.6c0,3.4,14.5,6.1,32.3,6.1
	c17.9,0,32.3-2.7,32.3-6.1c0-0.2-0.1-0.4-0.2-0.6v-66.4c1.2,1.3,2.7,3.7,2.7,2.8l0.5,0.6l10-8.2l3.7-9.5
	C553.7,236,544.6,223.4,539.3,218.3z"/>
<g>
	<path class="st11" d="M424.5,386.8c-2.1,0-3.9-0.8-5.4-2.3c-9.1-9.1-3.3-43.6-3.1-45l2,0.3c0,0.1-1.5,8.9-1.9,18.7
		c-0.5,12.7,1,21.2,4.4,24.6c1.4,1.4,3.2,1.9,5.3,1.6c0.7-0.1,1.3-0.6,1.8-1.3c1.6-2.5,2.9-9.5-0.3-28.4c-1.9-11.5-4.6-21.9-4.6-22
		l1.9-0.5c0,0.1,2.7,10.7,4.7,22.2c2.6,15.7,2.6,25.7,0,29.8c-0.8,1.2-1.9,2-3.1,2.2C425.6,386.8,425,386.8,424.5,386.8z"/>
</g>
<ellipse transform="matrix(0.6109 -0.7917 0.7917 0.6109 18.9262 528.2917)" class="st12" cx="546.9" cy="244.9" rx="11.2" ry="7.4"/>
<path class="st13" d="M512.5,213.9c0.1-1.6,0.3-3.4,0.6-5.1c1.4-7.9,1.4-10,1.4-10s-10.4,3.3-11,3.3c-0.7,0-7.1-0.7-7.1-0.7
	l-6.7-3.3c0,0,0.9,5.2,0.2,13.1c-0.1,1.4-0.3,2.8-0.6,4c-1.8,1-2.8,2.3-2.7,3.5c0.2,3,6.8,5.1,14.7,4.5c7.9-0.5,14.1-3.4,13.9-6.5
	C515.1,215.7,514.1,214.7,512.5,213.9z"/>
<polygon class="st14" points="157.6,361.2 154,374.1 137.5,369.9 137.2,361.8 142.1,342.1 149.4,344.9 "/>
<path class="st15" d="M175.5,345.1c0,0,4-5.5,4.2-13.3c0.1-7.8-5.5-13-5.5-13c-4-4.4-9.9-9.4-25.8-6.5s-13.9,23.7-9.5,25.9
	c1.6,0.8,2.2,0.7,2.9,0.8c-0.2,0.6-0.3,1.4-0.4,2c-0.4,3.7,1.7,6.7,4.2,7.3c0,0.2,0.1,0.4,0.1,0.6c3.1,13.4,13.3,15.4,14.3,15.7
	c1,0.4,4.3,1.4,5.9-0.1c1.6-1.6,5.3-8.3,5.3-8.3s0.8,0.1,2.1,0.1s2.9-1.2,2.9-1.2s0-0.7-0.4-2.6S175.5,345.1,175.5,345.1z"/>
<path class="st16" d="M166,461.4c0,0,17.2-6,35.2-5.1s12.9,12.2,12.9,12.2l-23.8,3.2l-10.4,0.9l-21.4-4L166,461.4z"/>
<path class="st17" d="M214.1,493c-2.7,0-2.5-1.8-8.4-1.1s-8.5,4.4-8.8,7.1s2.2,6,11.1,6.6s14.6-0.4,20.2-0.6c11.2-0.5,14-6.1,13.8-9
	s-4.4-4.8-12-6.1S221.2,492.9,214.1,493z"/>
<path class="st18" d="M197,499c0.2-2.8,2.9-6.5,8.8-7.1s5.6,1.2,8.4,1.1c7.1-0.1,8.4-4.5,16-3.1s11.8,3.2,12,6.1l0,0
	c0.1-0.2,0.1-0.3,0.1-0.5c-0.2-2.5-2.1-5-3.6-5.9s-10.8-2.6-12.1-3s-3.9-1.1-5.8-2.1s-3.1-1.1-3.1-1.1s-21.4,4.4-22.1,8
	s0.6,7.8,1.6,9.1l0,0C197,500,197,499.5,197,499z"/>
<path class="st4" d="M123.5,459.9c0,0-4.2,11.1-2.9,22.8s13.4,17.6,27.5,18.5s37.2-2.5,57.1-8.5s25-13.2,26.2-15.5s-1.4-8-6.9-9.2
	s-7.2-2.2-17.1-2.1s-18.2,2.9-18.2,2.9l-1.5,0.6c0,0-16.5-0.5-20.6-1.2S123.5,459.9,123.5,459.9z"/>
<path class="st19" d="M382.9,461.7c0,0,6.1-2.8,10.2-9.9c2-3.4,3.4-7.4,3.6-15.1c0.1-4.5-1.9-9-1.9-9l2.6,1c0,0-0.1-2.7-1.4-4.6
	s-1.6-2.2-1.6-2.2s5.9,2,7.7,3.8c1,0.9,3.7,2.9,3.7,2.9v-3.1c0,0,4.1,4.8,4.4,9.5s-0.2,6.7-0.2,6.7l1.8-1.8c0,0-2.2,8.9-4.7,12
	c-2.9,3.6-4.9,5.7-4.9,5.7l3.3-0.9c0,0-5.7,4.9-10.1,6.7c-4.5,1.8-8.7,2.1-10.7,1.7C382.8,464.5,381,463.4,382.9,461.7z"/>
<path class="st20" d="M410.8,443.3l-2.2,3.2l-1.7-5l-1.3,6.7l-2.1-9.7l-0.9,6.7l-1.7-7.7l-1.3,5.3l-2.9-5.2
	c-0.3,7-1.7,10.9-3.6,14.1c-4.2,7.1-10.2,9.9-10.2,9.9c-1.9,1.8-0.1,2.8,1.8,3.2c1.9,0.4,6.2,0.1,10.7-1.7
	c4.5-1.8,10.1-6.7,10.1-6.7l-3.3,0.9c0,0,2-2.1,4.9-5.7C408.6,450,410,446.2,410.8,443.3z"/>
<path class="st19" d="M327.2,374.8c0,0-1.1-3.6-1.9-5s-8.1-3-13.4-3.5s-6.8-0.6-7.8,0.2s-4.5,6.2-4.5,6.2s-6.6,0.8-9.1,0.8
	s-4,2.5-4.2,4s-0.6,3.9-0.6,6s0.8,2.5,0.8,2.5s-0.1,3.2,1.8,4.1s13,5.5,14.4,6.4s2.2,2.6,2.9,4s2.6,7.5,3.8,11.8s0.8,6.2,0.8,6.2
	l8.8-1.2l7.6-4.1l4-6.8L327.2,374.8z"/>
<path class="st20" d="M313.5,410.5l1.5,0.2l-2.5-3.8l1.5,0.6l-3-4.8l1.8,0.5c0,0-1.1-1.9-3.4-3.4s-6.8-3.5-6.8-3.5
	c1.4,0.9,2.2,2.6,2.9,4s2.6,7.5,3.8,11.8s0.8,6.2,0.8,6.2l3.8-0.5c1.3-0.5,2.5-1,2.5-1l-2-3.1l2.1,1.1L313.5,410.5z"/>
<path class="st20" d="M311.8,431.3c0,0,2.6,16.8,3.9,22.7s0.2,17.8,0.2,21.4c0.1,3.7-0.3,12.5-0.3,12.5s-3.8,0.5-5.5,2.7
	s-1.1,2.4-1.2,3.3c-0.1,1.1,13.9,1,18.2,0c1.1-0.3,1.4-2.8,1.9-4.1s0.4-10.8,1.4-14.7c1-3.9,1.5-6.2,1.5-6.2s-0.1-12.8,1.3-19
	s3.2-12,3.2-18.8s-2.8-10.2-10.2-9.9C318.9,421.7,312,421.9,311.8,431.3z"/>
<path class="st4" d="M222.2,411l-21.2-5c-0.9-0.2-1.3-1.1-0.9-1.9l16.9-41.3c0.3-0.8,1.3-1.4,2.2-1.2l21.2,5.1
	c0.9,0.2,1.3,1.1,0.9,1.9l-16.9,41.3C224.1,410.7,223.1,411.2,222.2,411z"/>
<g>
	<path class="st21" d="M203.2,401.7l15-36.5c0.2-0.5,0.8-0.8,1.4-0.7l16.1,3.8c0.7,0.2,1.1,0.9,0.8,1.6l-15,36.5
		c-0.2,0.5-0.8,0.8-1.4,0.7l-16.1-3.8C203.3,403.2,203,402.4,203.2,401.7z"/>
</g>
<path class="st18" d="M158.3,375c3.9,5,12,17.3,14.3,21.2c2.3,3.8-4.7,22.3-5.7,24.3s-5.5,20.2-5.5,20.2s4.2,11.5,6.8,15.8
	c2.7,4.3,0,14.3-18.3,16s-28.7-7.2-28.7-10.2s5.8-17.8,5.8-17.8l-0.7-2.8l0.5-3.2c0,0-6-30.9-5.6-40.4c0.6-14.5,5.5-26.1,16-27.6
	S155.2,371,158.3,375z"/>
<path class="st15" d="M213,399c1.2-1.4,4.7-3.6,6-4.4s2.9-1,2.9-1h0.6c0,0,0.4-0.9,0.8-0.9s1.2-0.1,1.2-0.1s1.5-1.5,1.8-2.4
	s1.9-0.7,2.1-0.1s1,3.3-0.5,4.9s-2.4,1-2.7,1.7s-0.4,1.6-0.4,1.6l4.1,0.5l1-2.4c0,0,1.6,0.5,2.2,1c0.6,0.5,1.4,2.3,0.6,3.5
	c-0.8,1.2-1.8,1.9-1.8,1.9s0.2,1.8-0.1,2.7c-0.4,0.8-1.6,1.7-1.6,1.7s0.1,1.4-0.4,2s-1.2,0.9-1.2,0.9s0.1,1.3-1.3,2
	c-1.4,0.8-2.5,0.8-2.5,0.8l-12.9-0.1l-5.2-7C205.8,405.7,211.7,400.5,213,399z"/>
<path d="M172.3,345.3c-0.3,1.1-1,1.3-1.6,1.1c-0.6-0.2-2.6-1.1-3.4-1.9c-1.4-1.6,3.4-2,5.5-1C173.4,343.9,172.6,344.2,172.3,345.3z"
	/>
<circle class="st21" cx="147.2" cy="349.5" r="2.3"/>
<g>
	<path class="st22" d="M174.7,341.2c-0.3,0-0.5,0-0.7-0.1l0,0c0,0-0.7-0.3-2.8-0.3c-2.2,0-4.4,0.6-4.4,0.7c-0.3,0.2-0.8,0.1-0.9-0.2
		c-0.2-0.2-0.1-0.6,0.3-0.7c0.1,0,2.4-1.2,5.2-1.2c2.7,0,3.8,0.5,4,0.6c0.4,0.2,0.5,0.7,0.2,1C175.2,341,175,341.1,174.7,341.2z"/>
</g>
<path class="st22" d="M291.8,374.8c0.4-0.4,0.2-1.1-0.3-1.2c-0.8-0.3-2.1-0.5-3.6-0.4c-2.8,0.2-3.6,4.3-2.8,6.2
	c0.2,0.6,0.5,1.1,0.6,1.4c0.3,0.5,1,0.6,1.3,0.1l0.7-1.1c0.1-0.2,0.2-0.5,0.1-0.7c-0.2-0.6-0.5-1.7,0.3-2.2c0.6-0.3,1-0.3,1.2-0.1
	c0.3,0.2,0.6,0.1,0.9-0.2L291.8,374.8z"/>
<ellipse transform="matrix(0.2211 -0.9752 0.9752 0.2211 -124.7792 590.1959)" cx="307.1" cy="373.2" rx="1.5" ry="1"/>
<path class="st22" d="M306.4,389l-0.1-0.7c-0.2-1.2-2-2.1-2.1-2.2c0,0,0.4,1.5,0.2,1.8c-1.4,0.2-4.5,0.5-8.4,0
	c-4.5-0.6-8.6-2.3-10-2.9c0.2,0.8,0.6,1,0.6,1s0,0.4,0,0.9c1.1,0.5,4.3,1.9,9.2,2.6c1.8,0.3,3.3,0.3,4.7,0.3c3.2,0,5.1-0.5,5.3-0.5
	L306.4,389z"/>
<path class="st19" d="M310.2,420.8c0,0-1.6,4.2-1.9,11.4s0.2,9.2,0.2,9.2l0.8-2.3c0,0,0.5,4.5,1.8,7.1c1.2,2.6,1.2,2.6,1.2,2.6
	l0.3-2.7c0,0,2,5.2,3.2,6.9s1.2,1.8,1.2,1.8l0.1-2.3c0,0,2.6,4.8,5.8,8.4s9.8,8.9,13.5,11.8s9,7.8,9,7.8s-7.2,0.6-9.2,3.7
	c-1.9,3.1-1.4,9.6-1.4,9.6h15.4l13.3-4.1l9.5-6.8c0,0,12.4-4.1,12.5-14.4s-1.4-22-8.3-27.7s-12.2-8.4-12.2-8.4l1.4-0.4l-6.3-3.8
	l1.6,0.1c0,0-9.1-6.2-15.5-12.7c-6.4-6.4-8.4-9.6-8.4-9.6L310.2,420.8z"/>
<g>
	<path class="st20" d="M370.9,484.2c0-1.9,0-4.4,0-4.4l-12.8-10.1l-6-3.8l1.1,2.9l-2.9-2.4l0.5,2.6l-2.6-2.5l0.9,2.8l-8-8.2
		l-7.5-7.2l-9.9-11.2l-4-4.9h1.5l-2-2.6l1.2,0.1l-2.2-3.4l1.4,0.1c0,0-0.5-0.5-1.4-2.6c-0.7-1.6-1.7-8.5-2.1-11.7l-5.9,3.2
		c0,0-1.6,4.2-1.9,11.4s0.2,9.2,0.2,9.2l0.8-2.3c0,0,0.5,4.5,1.8,7.1c1.2,2.6,1.2,2.6,1.2,2.6l0.3-2.7c0,0,2,5.2,3.2,6.9
		s1.2,1.8,1.2,1.8l0.1-2.3c0,0,2.6,4.8,5.8,8.4s9.8,8.9,13.5,11.8s9,7.8,9,7.8s-7.2,0.6-9.2,3.7c-1.9,3.1,0.8,9.5,0.8,9.5h15.4
		l11.1-4L370.9,484.2z"/>
	<polygon class="st23" points="317.9,417 317.7,416.7 317.5,416.8 	"/>
</g>
<path class="st19" d="M321.8,432.2c0,0,2.6,16.8,3.9,22.7c1.3,5.8,0.2,17.8,0.2,21.4c0.1,3.7-0.3,12.5-0.3,12.5s-3.8,0.5-5.5,2.7
	s-1.5,3.1-1.2,3.3c4.2,3,13.4,1.7,18.2,0.5c1.1-0.3,1.4-3.3,1.9-4.6s0.4-10.8,1.4-14.7c1-3.9,1.5-6.2,1.5-6.2s-0.1-12.8,1.3-19
	s3.2-12,3.2-18.8s-2.8-10.2-10.2-9.9C328.9,422.6,322,422.8,321.8,432.2z"/>
<path class="st19" d="M356.8,449c0,0-7.3,3.2-7,13.8c0.3,10.7,11.8,21.7,11.8,21.7s-4.7-0.7-11.2-0.1s-9.3,10.6-7.4,11.1
	c7.2,1.8,29.8,1.2,41.8-0.2c1.5-0.2,1.2-0.5,1.6-4.3s-3-7.9-3-7.9s6.3-5.7,6.5-15.6s-6.7-21.9-12.4-26.5s-8.6-5.5-8.6-5.5l-10.1,9.4
	L356.8,449z"/>
<path class="st2" d="M333.9,403.8c0,0-7.1,6.8-13.9,10.2c-6.8,3.4-11.4,3.8-11.4,3.8v5.3c0,0,6.5-0.5,14-4s15.2-10.8,16.2-11.8
	s-1.9-4.2-1.9-4.2S337.3,400.8,333.9,403.8z"/>
<ellipse transform="matrix(0.2634 -0.9647 0.9647 0.2634 -180.072 607.4031)" class="st4" cx="307.7" cy="421.6" rx="5.3" ry="2.7"/>
<path class="st20" d="M321.2,378.2c0,0-3.2,13.8-2.5,22.5s9,12.2,12.8,10.8s6.8-8.8,6.8-12.2s-11-24.5-11-24.5
	S322.9,373.2,321.2,378.2z"/>
<path class="st17" d="M153,433c2-5,10.3-16.3,10.3-16.3s3.3-16.7-1-23c-4.2-6.1-12.6-22.2-13.3-23.3c-3.3-0.5-7.2-0.5-11.7,0.1
	c-10.5,1.5-15.3,13.1-16,27.6c-0.4,9.5,5.6,40.4,5.6,40.4l-0.5,3.2l0.7,2.8c0,0-5.8,14.8-5.8,17.8s10.3,11.8,28.7,10.2
	c6.7-0.6,11.3-2.3,14.3-4.5C160.2,458.4,151.5,436.9,153,433z"/>
<path class="st18" d="M140.3,382.5c5.1-3.8,13.3-2,17.2,5.5s15.2,32.2,15.2,32.2s29.7-16,33.2-18s10.2,9.1,4.4,13.9
	s-41.1,25.2-42.9,26.8c-1.8,1.5-5.2-3.2-5.8-3.8s-21-34.3-24.3-39.3C133.8,394.7,134.5,386.8,140.3,382.5z"/>
<path class="st24" d="M139.5,361.8c0,0,2.1,2.4,7.5,4s8.9,1.9,8.9,1.9s1.1,0.4,1.1,1.8s-0.4,4.1-0.4,4.1s-0.8-0.5-1.9,0.1
	s-2.4,3.1-2.4,3.1s-17.1-3.9-18.5-10.9S139.5,361.8,139.5,361.8z"/>
<path class="st22" d="M169.9,310.9c-10-7.2-26.3-4.3-34.1,3.6c-5.8,5.8-4.6,17.2-5.6,19.3c-1,2.1-7.2,7.5-11.6,19.4
	c-4.4,11.8-1.3,21.7,4,26.2c5.3,4.4,6.8,3,6.8,3l-0.3-1.3l3.4,0.8l-0.4-1.7l3.1,0.5v-2.1l2.5,0.7l0.1-2.3l2.2,0.5v-2l2.3,0.3
	c0,0-2-2.5-1.8-15.5c0.1-6.2,0.9-11,2-14.5c-0.7-1.3-1.1-3.1-0.9-4.9c0.4-3.8,2.9-6.7,5.7-6.4c2,0.2,3.5,2,4.1,4.4
	c0.2,1.3,1.1,2.1,1.1,2.1s3.6-5.7,5.1-5.9c1.6-0.1,3.8-0.2,8.5-2.1c4.7-2,7.7-5.2,7.7-5.2s-0.1,2.2-1.4,3.6
	c-1.3,1.4-4.3,3.3-4.3,3.3s5.5,0.1,10-6.6C182.7,321.2,175,314.6,169.9,310.9z"/>
<g>
	<path class="st25" d="M520.4,159.2c-0.2-1-2.6-8.5-15.6-9c-13.9-0.6-23.7,10.3-23.4,15.2c0.3,4.9,2.1,16.8,2.1,16.8l2.5,0.3l34,1.8
		h2.5c0,0,2.9-10.3,3.7-15.1C526.8,165,524.9,161.5,520.4,159.2z"/>
	<path class="st8" d="M522.4,181.9c-1.2,2.8-0.9,1.5-0.8-1.9c0.1-3.4-1.7-4.5-1.1-6.8c0.1-0.5,0.3-1.5,0.4-2.7
		c-0.6-3.9-2.3-7.2-2.3-7.2s-4.3,4.6-14.8,3.8c-9.7-0.7-12.9-2.3-17.5,0.4c0,1.8,0.1,3.3,0.2,3.9c0.4,2.3-1.5,3.2-1.8,6.6
		s-0.1,4.7-0.9,1.8c-1-0.2-2.5-0.3-2.5,1c-0.1,2,0.2,8.5,1.6,10.3c0.6,0.8,1.5,1.3,2.3,1.6c0.2,1.5,0.3,2.8,0.5,3.7
		c0.6,3.8,8.4,11.3,16,11.9c7.4,0.5,16.2-6.4,17.1-10.1c0.2-0.8,0.5-2.1,0.8-3.6c0.8-0.2,1.7-0.6,2.4-1.4c1.6-1.7,2.5-8.2,2.6-10.1
		C524.8,181.9,523.4,181.8,522.4,181.9z"/>
	<path class="st26" d="M498.3,182.3c0,0-0.4-2.5-3.6-2.6c-3.3-0.1-4.7,2.4-4.7,2.4l-0.1-0.6c0,0,0.9-2.8,4.9-2.6
		C498.9,179.1,498.3,182.3,498.3,182.3z"/>
	<path class="st21" d="M494.7,179.7c-3.3-0.1-4.7,2.4-4.7,2.4s0.4,1,4.1,1.2c3.5,0.2,4.6,0,4-1.6C497.8,181,496.9,179.8,494.7,179.7
		z"/>
	<g>
		
			<ellipse transform="matrix(0.9987 -5.174460e-02 5.174460e-02 0.9987 -8.7331 25.8942)" class="st26" cx="495.7" cy="181.6" rx="1.9" ry="1.9"/>
		
			<ellipse transform="matrix(0.9987 -5.174460e-02 5.174460e-02 0.9987 -8.6962 25.9191)" class="st21" cx="496.2" cy="180.9" rx="0.9" ry="0.9"/>
	</g>
	<g>
		<path class="st25" d="M488.4,177.4c-0.4,0-0.3,0.1-0.5-0.3c-0.3-0.5-0.1-0.9,0.4-1.2c0.1-0.1,2.4-1.5,3.8-1.9
			c1.5-0.5,6.3,0.1,7.2,0.2c0.6,0.1,1,0.6,0.9,1.1c-0.1,0.6-0.6,1-1.1,0.9c-2.6-0.3-5.6-0.5-6.4-0.3c-1,0.3-3.2,0.9-3.8,1.3
			C488.7,177.4,488.5,177.4,488.4,177.4z"/>
	</g>
	<path class="st26" d="M507.8,182.8c0,0,0.6-2.4,3.9-2.2c3.3,0.2,4.4,2.9,4.4,2.9l0.2-0.6c0,0-0.6-2.9-4.6-3.1
		C507.6,179.5,507.8,182.8,507.8,182.8z"/>
	<path class="st21" d="M511.7,180.6c3.3,0.2,4.4,2.9,4.4,2.9s-0.5,1-4.2,0.8c-3.5-0.2-4.6-0.5-3.8-2
		C508.4,181.5,509.4,180.4,511.7,180.6z"/>
	<g>
		
			<ellipse transform="matrix(5.174460e-02 -0.9987 0.9987 5.174460e-02 304.7544 685.8171)" class="st26" cx="513.5" cy="182.4" rx="1.9" ry="1.9"/>
		
			<ellipse transform="matrix(5.174460e-02 -0.9987 0.9987 5.174460e-02 305.9446 685.8013)" class="st21" cx="514.1" cy="181.8" rx="0.9" ry="0.9"/>
	</g>
	<g>
		<path class="st25" d="M518.2,178.9c0.4,0,0.3,0.1,0.5-0.2c0.3-0.5,0.2-0.9-0.3-1.2c-0.1-0.1-2.3-1.8-3.6-2.3
			c-1.4-0.6-6.2-0.5-7.2-0.5c-0.6,0-1,0.5-1,1c0,0.6,0.5,1,1,1c2.6-0.1,5.7,0.1,6.4,0.4c0.9,0.4,3,1.3,3.6,1.7
			C517.9,178.9,518.1,178.9,518.2,178.9z"/>
	</g>
	<path class="st13" d="M496.9,194.7c0,0-1.3,0.8-1.7,1.3s-0.7,0.9-0.7,0.9s-0.6-0.6,0-1.5C495.2,194.6,496.9,194.7,496.9,194.7z"/>
	<path class="st13" d="M501.9,202.8c-1.4-0.1-3.1-1-2.7-0.4c0.4,0.5,1,0.9,2,1.2c0.2,0,0.3,0.1,0.6,0.1c0,0,0,0,0.1,0c0,0,0,0,0.1,0
		c0.2,0,0.4,0,0.6,0c1-0.1,1.7-0.5,2.1-0.9C505.1,202.2,503.3,202.9,501.9,202.8z"/>
	<path class="st13" d="M502.7,191.6L502.7,191.6c-0.1,0-0.1,0-0.1,0c-2.5-0.1-3.4-1.3-3.4-1.3s0.4,1,0.8,1.3c0.3,0.3,1,0.8,2.3,0.9
		c0.1,0,0.2,0,0.3,0c0.1,0,0.2,0,0.3,0c1.3,0.1,2-0.3,2.4-0.6s0.9-1.3,0.9-1.3S505.2,191.7,502.7,191.6z"/>
	<path class="st21" d="M508.6,197.1c0,0-4.4-0.2-6.3-0.3c-0.1,0-0.1,0-0.2,0c-1.8-0.1-6.3-0.3-6.3-0.3c-1,0,2.5,2.5,6.2,2.8
		C505.4,199.4,509.6,197.2,508.6,197.1z"/>
	<path class="st13" d="M508,195.3c0,0,1.3,0.9,1.6,1.4c0.3,0.5,0.6,1,0.6,1s0.7-0.5,0.1-1.5C509.8,195.4,508,195.3,508,195.3z"/>
	<path class="st27" d="M509.5,196.3c0,0-4.9-0.3-7-0.4c-0.1,0-0.1,0-0.2,0c-2-0.1-7-0.4-7-0.4c-1.1,0-0.5,0.7,0.4,0.9
		c0.7,0.2,4,0.6,6.6,0.7c2.6,0.2,5.9,0.1,6.6,0C510,197.1,510.5,196.5,509.5,196.3z"/>
	<path class="st13" d="M502.3,191.8c0,0,1.6-0.2,2.4-0.6c0.8-0.5,1.1-1,1.1-1s-0.3-4.2-0.4-4.7s1.4,2.7,1.3,5s-2,2.7-3.6,2.6
		s-2.5-1.7-2.5-1.7L502.3,191.8z"/>
</g>
<path class="st21" d="M172.3,345.7c-0.3,1.1-1,1.3-1.6,1.1c-0.6-0.2-3.4-1.6-3.3-2.7c0.1-0.6,2.6-0.7,4.2-0.3
	C172.2,344,172.6,344.6,172.3,345.7z"/>
<ellipse transform="matrix(0.2933 -0.956 0.956 0.2933 -208.7374 407.9243)" cx="171.6" cy="345.2" rx="1.6" ry="0.9"/>
<ellipse class="st21" cx="171" cy="344.6" rx="0.5" ry="0.7"/>
<ellipse transform="matrix(0.3181 -0.9481 0.9481 0.3181 56.4885 620.3866)" class="st12" cx="459.5" cy="270.9" rx="3.6" ry="12.1"/>
<path class="st8" d="M431.2,319.5c0,0,20.1-19.7,25.9-26.1c4.5-5.1,10.3-16.5,12.6-21.3c-1.8-1.6-5-3.3-8.9-4.6
	c-4-1.4-7.8-1.9-10.2-1.6c-2,4.7-5.1,12-6,13.3c-1.3,1.9-28.7,38.8-28.7,38.8s-9.8,13.9-10.8,15.2c-0.9,1.3-1.1,2.2-1.1,2.2
	s-0.8,0.8-1,1.6c-0.2,0.8,0.1,2.5,0.8,3.2c0.7,0.7,4.5,4.6,4.5,4.6l2.4,0.4c0,0,2.1,1.3,2.8,1.4s3.9-1.9,3.9-1.9s3.3-0.6,4.8-1.6
	c1.4-1,2-2.4,2-2.4s3.5-1.5,3.9-2.1s-1-5.6-0.5-9.7s0.7-5.3,0.7-5.3L431.2,319.5z"/>
<path class="st8" d="M555.6,234.4l-8.5-0.3c-0.9,0.7-5.3,5.3-6,6.3c-1.8,2.4-2.9,5-3.1,7.4c1.5,2.9,4.9,7.7,11.9,10.7
	c10.5,4.5,14.1,1,15.4-1.2C566.5,255.1,555.6,234.4,555.6,234.4z"/>
<path class="st28" d="M554.2,236"/>
<g>
	<path class="st8" d="M532.3,201.5c0,0-2-3.1-2.9-5s-1-5.1-1.2-6.1s-1.3-2.8-1.3-2.8s0.2-0.9,0.2-1.6c0-0.7-1-2.5-1.7-3.6
		s-2.2-2-1.5-2.5c0.6-0.5,4.3-2,5.5,0.8s1.1,4.4,1.1,4.4l6.6,7.4l6.3-14.1l8,12.4c0,0-0.1,1.7-1.1,3.6c-1,1.9-6.3,11.2-10,13.5
		C536.5,210.2,532.8,206.4,532.3,201.5z"/>
	<path class="st8" d="M545.6,199.2c0,0,4.4,9.6,7.9,14.9c3.5,5.2,12.9,19.5,14.3,26c1.4,6.5,0.7,17-1.5,18.2c-2.1,1.2-6,3.1-10.8-1
		c-4.9-4.1-16.4-35.2-16.4-35.2s-7.5-18.7-8.1-22s-0.6-3.3-0.6-3.3L545.6,199.2z"/>
	<path class="st29" d="M547.3,193.9l-15.2,4.8c-0.7,0.2-1.4-0.2-1.6-1l-5.1-27.4c-0.1-0.8,0.3-1.6,1-1.8l15.2-4.8
		c0.7-0.2,1.4,0.2,1.6,1l5.1,27.4C548.5,192.9,548,193.7,547.3,193.9z"/>
	<path class="st21" d="M545.8,192.9l-12.8,4c-0.6,0.2-1.2-0.2-1.4-0.9l-4.7-25c-0.1-0.7,0.3-1.4,0.9-1.6l12.8-4
		c0.6-0.2,1.2,0.2,1.4,0.9l4.7,25C546.9,192,546.4,192.7,545.8,192.9z"/>
	<path class="st8" d="M549.7,179c0,0,0.4-2.8,0.1-4.3s-0.3-1.8-1.1-3.3c-0.9-1.5-1-2.1-1.9-2.2c-0.9-0.1-3.1-0.1-4.5-0.8
		c-1.3-0.8-1.7,1.2-1.5,2.3c0.2,1,1.4,2.7,2.5,3c1.1,0.4,2.7,0.6,2.7,0.6l0.5,0.7l0.5,3l0.8,2.3L549.7,179z"/>
	<path class="st8" d="M550.3,194.4c0,0,2.1-3.4,2.5-4.7c0.3-1.3-0.6-3.6-0.6-3.6s0.4-2.1,0.5-3.1c0.1-0.9-1.3-3.3-1.3-3.3
		s0.3-2.9,0.1-4.1s-3.6-2.4-4.2-2.8s-2.1,0.3-3,0.5s-2.5,0.8-3.3,0.7s-0.6,2-0.4,2.5c0.2,0.5,0.6,0.8,0.6,0.8s-1.2,0.6-1.3,1.2
		s0.2,1.9,1.4,2.5s1.2,0.6,1.2,0.6s-0.5,1.8,0.3,2.7s3.8,1.1,3.8,1.1l1.4,3.4L550.3,194.4z"/>
</g>
<path class="st13" d="M403.9,335.6c-0.2,0.3-0.6,0.8-0.8,1.4c-0.2,0.8,0.1,2.5,0.8,3.2c0.7,0.7,4.5,4.6,4.5,4.6l2.4,0.4
	c0,0,2.1,1.3,2.8,1.4c0.8,0.1,3.9-1.9,3.9-1.9s3.3-0.6,4.8-1.6c1.4-1,2-2.4,2-2.4s3.5-1.5,3.9-2.1c0.1-0.2,0.1-0.7,0-1.5
	c-0.3,0.3-0.8,0.6-1.5,0.6c-1.7,0-3.3-1.4-3.3-1.4s-2.2,3.1-2.9,4c-0.7,0.9-5.5-4.8-6.9-6.9s-2.2-2.2-3.3-1.2s-1,1-1,1
	s-0.7-0.9-1.7,0.2s-1,1-1,1s-1.9,0.1-2.4,0.9C404,335.4,403.9,335.5,403.9,335.6z"/>
<g>
	<path class="st11" d="M354,410.4c-10.4,0-16.5-3.5-17-3.7c-0.5-0.3-0.6-0.9-0.4-1.4c0.3-0.5,0.9-0.6,1.4-0.4c0,0,5,2.9,13.6,3.3
		c7.9,0.4,20.7-1.2,36.4-11.1c30.4-19.1,34-64.1,34-64.5c0-0.5,0.5-1,1.1-0.9c0.6,0,1,0.5,0.9,1.1c0,0.5-3.7,46.4-34.8,66.1
		C374.9,407.9,362.9,410.4,354,410.4z"/>
</g>
<path d="M164.2,355.3c0,0-0.9,0.1-1.4,0.5c-0.4,0.4-0.5,1.2-0.5,1.2l2.5-1.5L164.2,355.3z"/>
<g>
	<path d="M167.8,359.5C167.8,359.5,167.8,359.5,167.8,359.5c-0.1,0-1.1-0.3-2.4-1.1c-1.3-0.8-2.1-1.9-2.1-2
		c-0.1-0.2-0.1-0.5,0.1-0.6c0.2-0.1,0.5-0.1,0.6,0.1c0,0,0.7,1,1.8,1.7c1.2,0.7,2.1,1,2.1,1c0.2,0.1,0.4,0.3,0.3,0.5
		C168.2,359.4,168,359.5,167.8,359.5z"/>
</g>
</svg>
