<?xml version="1.0" encoding="utf-8"?>
<!-- Generator: Adobe Illustrator 19.2.0, SVG Export Plug-In . SVG Version: 6.00 Build 0)  -->
<svg version="1.1" xmlns="http://www.w3.org/2000/svg" xmlns:xlink="http://www.w3.org/1999/xlink" x="0px" y="0px"
	 viewBox="0 0 590.2 507.7" style="enable-background:new 0 0 590.2 507.7;" xml:space="preserve">
<style type="text/css">
	.st0{fill:none;stroke:#64A55E;stroke-width:1.5;stroke-linecap:round;stroke-linejoin:round;stroke-miterlimit:10;}
	.st1{fill:#D1E42D;}
	.st2{fill:#78CDD1;}
	.st3{fill:#FA7A47;}
	.st4{fill:#5C6670;}
	.st5{fill:#546FC3;}
	.st6{fill:none;stroke:#64A55E;stroke-width:1.5;stroke-miterlimit:10;}
	.st7{fill:none;stroke:#5C6670;stroke-width:2;stroke-miterlimit:10;}
	.st8{fill:#FFFFFF;}
	.st9{fill:#F6F6F6;}
	.st10{fill:#ED4C6B;}
	.st11{fill:#C6C0B6;}
	.st12{fill:#A58D76;}
	.st13{fill:#C13658;}
	.st14{fill:#A09B93;}
	.st15{fill:none;stroke:#000000;stroke-width:1.0753;stroke-miterlimit:10;}
	.st16{fill:#FFFFFF;stroke:#5C6670;stroke-width:2;stroke-miterlimit:10;}
	.st17{fill:#89715D;}
	.st18{fill:#44413D;}
	.st19{fill:#78CCD0;}
	.st20{fill:#9BB1C4;}
	.st21{fill:none;stroke:#8DDBA7;stroke-width:2.5483;stroke-linecap:round;stroke-miterlimit:10;}
	.st22{fill:#67C187;}
	.st23{fill:#67C187;stroke:#5BA875;stroke-width:2.5483;stroke-miterlimit:10;}
	.st24{fill:#8DDBA7;}
	.st25{fill:#B0B723;}
	.st26{fill:#FFFFFF;stroke:#49516C;stroke-width:6.881829e-02;stroke-miterlimit:10;}
	.st27{fill:#FFDFB9;}
	.st28{fill:#773C35;}
	.st29{fill:#D66B4D;}
	.st30{fill:#F48866;}
	.st31{fill:#231F20;}
	.st32{fill:#BC5840;}
	.st33{fill:#752C1B;}
	.st34{fill:#602117;}
	.st35{fill:#333333;}
	.st36{fill:#EAEAEA;}
	.st37{fill:#BABABA;}
</style>
<path class="st0" d="M148,470.4c0,0,9.6,3.2,10.9,12.8c0,0,1.5-17.3-3.8-21.5"/>
<ellipse transform="matrix(0.1803 -0.9836 0.9836 0.1803 -131.2469 304.4127)" class="st1" cx="117" cy="231" rx="14.3" ry="14.3"/>
<circle class="st2" cx="93.9" cy="169.9" r="5"/>
<circle class="st3" cx="208.1" cy="162.2" r="4.3"/>
<circle class="st4" cx="246.4" cy="112.9" r="2.5"/>
<circle class="st2" cx="324" cy="277.2" r="4.8"/>
<circle class="st3" cx="418.9" cy="260.1" r="3.1"/>
<circle class="st5" cx="346.3" cy="187.1" r="3.5"/>
<path class="st6" d="M486.2,483.5c0,0,1.7-14.5,7.8-16.2"/>
<line class="st7" x1="581" y1="483.5" x2="590.2" y2="483.5"/>
<circle class="st2" cx="411.2" cy="48.6" r="28.8"/>
<path class="st8" d="M422.5,55.5V40h0v-0.8h-17.1V40v5.8v7.4c-0.8-0.7-1.9-1.2-3.2-1.2c-2.7,0-4.8,2.2-4.8,4.8s2.2,4.8,4.8,4.8
	c2.7,0,4.8-2.2,4.8-4.8c0-0.4-0.1-0.8-0.2-1.2v-9.9H421v7.4c-0.8-0.7-1.9-1.2-3.1-1.2c-2.7,0-4.8,2.2-4.8,4.8s2.2,4.8,4.8,4.8
	c2.7,0,4.8-2.2,4.8-4.8C422.7,56.4,422.6,55.9,422.5,55.5z"/>
<circle class="st1" cx="520.7" cy="220.7" r="28.8"/>
<path class="st8" d="M533.8,231.8h-24.9c-1.8,0-3.2-1.4-3.2-3.2v-14.9c0-1.8,1.4-3.2,3.2-3.2h24.9c1.8,0,3.2,1.4,3.2,3.2v14.9
	C537,230.3,535.5,231.8,533.8,231.8z M508.9,212.5c-0.7,0-1.2,0.5-1.2,1.2v14.9c0,0.7,0.5,1.2,1.2,1.2h24.9c0.7,0,1.2-0.5,1.2-1.2
	v-14.9c0-0.7-0.5-1.2-1.2-1.2H508.9z"/>
<g>
	<polygon class="st8" points="518.3,222.2 508.3,230 509.5,231.6 519.9,223.5 	"/>
	<polygon class="st8" points="522.7,223.5 533.2,231.6 534.4,230 524.4,222.2 	"/>
</g>
<path class="st8" d="M521.3,225.6c-0.2,0-0.4-0.1-0.6-0.2l-14.2-11.4l1.2-1.6l13.6,10.9l13.6-10.9l1.2,1.6L522,225.4
	C521.8,225.6,521.6,225.6,521.3,225.6z"/>
<circle class="st1" cx="60.5" cy="28.4" r="28.4"/>
<g>
	<path class="st9" d="M43.1,29c0.2,0.4,0.3,0.7,0.5,1H55l1.3-3.4c0.2-0.4,0.6-0.7,1-0.6c0.5,0,0.8,0.4,0.9,0.8l0.6,3.8l0.4,0l1-7
		c0.1-0.5,0.5-0.8,1-0.9c0.5,0,0.9,0.3,1,0.8l1.3,6.7l0.1-0.5c0.1-0.4,0.5-0.7,1-0.7h12.6c1.7-3.8,0.8-8.4-2.5-11.2
		c-4-3.5-10.2-3.1-13.7,1c-0.3,0.4-0.6,0.7-0.8,1.1c-2.8-4.6-8.8-6-13.3-3.2c-4.1,2.5-5.8,7.6-3.9,12.1L43.1,29z"/>
	<path class="st9" d="M65.4,31.1l-1.1,3.8c-0.1,0.4-0.5,0.8-1,0.7c-0.5,0-0.9-0.4-0.9-0.8l-0.8-4.3l-0.3,0l-1.2,8.1
		c-0.1,0.5-0.5,0.9-1,0.9c0,0,0,0,0,0c-0.5,0-0.9-0.4-1-0.8l-1.3-7.9l-0.2,0.6c-0.1,0.4-0.5,0.6-0.9,0.6H45.1L56,44.9
		c1.9,2.3,5.3,2.5,7.6,0.6c0.2-0.2,0.4-0.4,0.6-0.6l11.5-13.4c0.1-0.1,0.2-0.3,0.4-0.4H65.4z"/>
</g>
<g>
	<path class="st10" d="M242.7,436.8c-2.1-1.8-16.3,5.4-18.2,6.9c-1.9,1.5-13.4,16.6-14.3,17.7c-0.9,1.1-6.6,4.3-9.4,6.9
		c-2.8,2.6-5.1,6.4-5,8c0.1,1.6,1.1,4.1,1.5,5c0.4,1,5.3,2.1,12.2,0.3c6.9-1.8,14.3-5.2,20.2-9.7c5.9-4.5,11.4-8.9,14.7-10.3
		c3.3-1.4,9.7-4.6,9.6-6.8c-0.2-2.2-3-7.9-5.7-11.8S243.6,437.6,242.7,436.8z"/>
	<path class="st11" d="M252.5,451.8c0.2,2.2-6.3,5.4-9.6,6.8c-3.3,1.4-8.7,5.8-14.7,10.3c-5.9,4.5-13.3,8-20.2,9.7
		c-6.3,1.6-10.9,0.9-12,0c0.4,1.3,0.9,2.6,1.1,3.2c0.4,1,5.3,2.1,12.2,0.3c6.9-1.8,14.3-5.2,20.2-9.7c5.9-4.5,11.4-8.9,14.7-10.3
		s9.7-4.6,9.6-6.8c-0.1-1-0.7-2.8-1.7-4.8C252.4,451,252.5,451.4,252.5,451.8z"/>
	<path class="st11" d="M223.2,439.3c-2.4-4.1,16-11.4,16.7-8.8c0.7,2.6,0.9,7.7,1,8.5c0.1,0.9-1.5,5.6-7.6,7c-2.7,0.6-6-1.4-6.6-2
		C226,443.6,224.5,441.5,223.2,439.3z"/>
	<path class="st8" d="M215.4,462.4c0.4,0.2,0.9,0.2,1.2-0.2c0,0,0.1-0.1,0.1-0.1c0.3-0.4,0.1-1-0.3-1.3l-3.8-2.5
		c-0.4,0.6-0.8,1.1-1.2,1.5L215.4,462.4z"/>
	<path class="st8" d="M224.8,451.1c0.4,0.2,0.9,0.2,1.2-0.2c0,0,0.1-0.1,0.1-0.1c0.3-0.4,0.1-1-0.3-1.3l-4.1-2.7
		c-0.4,0.5-0.8,1-1.2,1.5L224.8,451.1z"/>
	<path class="st8" d="M221.6,454.8c0.4,0.2,0.9,0.2,1.2-0.2c0,0,0.1-0.1,0.1-0.1c0.3-0.4,0.1-1-0.3-1.3l-3.9-2.6
		c-0.4,0.5-0.8,1-1.2,1.5L221.6,454.8z"/>
	<path class="st8" d="M218.4,458.3c0.4,0.2,0.9,0.2,1.2-0.2c0,0,0.1-0.1,0.1-0.1c0.3-0.4,0.1-1-0.3-1.3l-3.6-2.4
		c-0.4,0.5-0.8,1-1.2,1.5L218.4,458.3z"/>
	<g>
		<path class="st11" d="M225.4,470.4c2.4-7.4,9.3-20.2,9.3-20.2s-3.7,2.6-6.7,5.7c-3,3-6.8,7.7-6.8,7.7l0.4-3.6c0,0-2.7,3.3-5.9,7.8
			c-2.3,3.1-4.4,7.4-5.5,9.7C215.4,475.9,220.7,473.5,225.4,470.4z"/>
		<polygon class="st11" points="224,475.6 224,475.6 224,475.6 		"/>
	</g>
	<path class="st10" d="M126.5,456c0-2.9-15.5-9.3-18-9.8s-22.5,0.7-24,0.7s-8-2.3-12-2.8s-8.7,0.3-9.8,1.5c-1.2,1.2-2.5,3.7-3,4.7
		s2,5.7,8.2,10c6.2,4.3,14,7.8,21.7,9.5c7.7,1.7,15,3,18.3,4.7c3.3,1.7,10.3,4.7,12,3c1.7-1.7,4.3-7.8,5.5-12.7
		C126.5,459.8,126.5,457.3,126.5,456z"/>
	<path class="st11" d="M121.7,474.3c-1.7,1.7-8.7-1.3-12-3c-3.3-1.7-10.7-3-18.3-4.7c-7.7-1.7-15.5-5.2-21.7-9.5
		c-5.6-3.9-8.1-8.1-8.2-9.6c-0.8,1.1-1.5,2.4-1.8,3.1c-0.5,1,2,5.7,8.2,10c6.2,4.3,14,7.8,21.7,9.5c7.7,1.7,15,3,18.3,4.7
		s10.3,4.7,12,3c0.8-0.8,1.8-2.5,2.7-4.7C122.2,473.7,121.9,474.1,121.7,474.3z"/>
	<path class="st11" d="M111.2,442.2c0.8-3.7,20.2,2.7,17.5,7c-1.5,2.4-4.5,6.3-5.2,7c-0.7,0.7-5.5,2.7-10.8-1.3
		c-2.3-1.7-3-5.8-3-6.7C109.7,447.3,110.6,444.7,111.2,442.2z"/>
	<path class="st8" d="M87.3,451.8c0.1,0.5,0.5,0.8,1,0.8c0.1,0,0.1,0,0.2,0c0.5-0.1,0.9-0.6,0.8-1.1l-0.6-4.8c-0.8,0-1.4,0.1-2,0.1
		L87.3,451.8z"/>
	<path class="st8" d="M102.8,451.5c0.1,0.5,0.5,0.8,1,0.8c0.1,0,0.1,0,0.2,0c0.5-0.1,0.9-0.6,0.8-1.1l-0.7-5.1c-0.6,0-1.3,0-2,0
		L102.8,451.5z"/>
	<path class="st8" d="M97.6,451.5c0.1,0.5,0.5,0.8,1,0.8c0.1,0,0.1,0,0.2,0c0.5-0.1,0.9-0.6,0.8-1.1l-0.6-4.9c-0.7,0-1.3,0.1-2,0.1
		L97.6,451.5z"/>
	<path class="st8" d="M92.6,451.3c0.1,0.5,0.5,0.8,1,0.8c0.1,0,0.1,0,0.2,0c0.5-0.1,0.9-0.6,0.8-1.1l-0.6-4.6c-0.7,0-1.4,0.1-2,0.1
		L92.6,451.3z"/>
	<g>
		<path class="st11" d="M87.8,465.3c7.6-3.2,22.6-6.4,22.6-6.4s-4.7-1.2-9.2-1.5s-10.8-0.2-10.8-0.2l3.2-2.2c0,0-4.5,0.2-10.3,0.7
			c-4.1,0.3-9,1.6-11.5,2.3C76.5,461.1,82.1,463.6,87.8,465.3z"/>
		<polygon class="st11" points="82.6,467.7 82.6,467.7 82.6,467.7 		"/>
	</g>
	<path class="st12" d="M141.7,347.7c0,0-12.3,40-15.3,46.3c-3,6.3-10.5,36.5-13.8,50.2c-0.9,3.6,11.9,9.3,13.7,6
		c9.7-17.7,20.8-42.8,22.5-46.5c1.7-3.7,29.3-47.3,29.3-47.3L141.7,347.7z"/>
	<path class="st12" d="M185.7,350c0,0,14.7,35.7,19.7,48.7s17.8,36.5,19.8,39.8s14.2-3,12.8-7.3c-1.3-4.3-11.3-41.5-16-62.8
		c-4.7-21.3-7.3-32-7.3-32L185.7,350z"/>
	
		<ellipse transform="matrix(0.1975 -0.9803 0.9803 0.1975 -145.9578 310.8016)" class="st13" cx="116.9" cy="244.6" rx="9.1" ry="3.9"/>
	<path class="st11" d="M156.5,181.7c0,0-2.8,2.2-3.2,3.2c-0.3,1,1.5,3.7,1.5,3.7s-8.5,16-6,35.3s7.5,47.3,7.5,47.3l-0.7,2.7l0.5,1.5
		c0,0,0.3,13,0.3,16.7s8,7.5,26.8,6.5s32-6.8,30.2-12.3s-8.7-40.8-11.2-59.7s-5.5-30-7.8-39.3c-2.3-9.3-18.5-17.5-18.5-17.5
		s-2-2.3-3.7-1.7C170.7,168.7,156.5,181.7,156.5,181.7z"/>
	<path class="st10" d="M210.5,291.7c-4.8,3.4-14.8,6.1-27.2,6.8c-13.5,0.7-21.4-1.1-24.8-3.5c-3.6,10.1-16,46.1-17.2,49.6
		c-1.3,4,8.7,8.7,16,11.7s20,7.3,21.3,4.3c0.7-1.7,1.3-3.2,2.7-7.5c1,4.4,3.2,10.1,3.7,11.5c1.3,4,39.7-6.7,38.3-14.3
		C222.7,346.8,212.9,305.7,210.5,291.7z"/>
	<path class="st11" d="M168.2,192.3c-7.9-0.4-13.5,6-15.7,12.5s-4.9,23.5-4.9,23.5l28,6c0,0,3.3-17,4-26
		C180.3,199.3,175.2,192.7,168.2,192.3z"/>
	<path class="st12" d="M158.1,154.8c0.8-0.1,1.6-0.4,2.3-0.9c2.2-1.9,1.9-6-0.7-9.1c-2.6-3.1-6.6-4.1-8.8-2.1
		c-1.8,1.5-1.9,4.5-0.5,7.2l-1.4,0.9c0,0-4.1-2.7-6.1-4.1c-2-1.4-2.7-1.6-2.7-1.6s0.2-2.9-0.5-4.8c-0.7-2-5.7-1.4-5.7-1.4
		s-2.9,2.5-4.3,3.2c-1.4,0.7-2.2,0.9-2.2,0.9l4.8,1.1c0,0-1,0-5,1.1c-4.1,1.1-9.9,0.4-9.9,0.4s2.5,9,3.6,12c1.1,3,3.8,4.5,3.8,4.5
		s1.8,10.2,3.6,13.5c1,1.9,4.3-1.3,4.3-1.3s8.6,11.8,12.3,11.5c7.3-0.7,15.3-14,16-15.4c0.7-1.4-2.5-14.3-2.5-14.3
		S158.3,155.4,158.1,154.8z"/>
	
		<ellipse transform="matrix(0.2085 -0.978 0.978 0.2085 -98.2928 341.2074)" class="st14" cx="161.7" cy="231.3" rx="4.5" ry="14.3"/>
	<path class="st15" d="M139.7,177.1c0,0,2-1.2,4.1-3.6s1.8-3.3,1.8-3.3"/>
	<g>
		<path d="M147.3,171l-1.3-0.3c-1.1-0.2-2.2,0-2.2,0c0,0,0.7-1.5,2-1.3C147,169.6,147.3,171,147.3,171z"/>
	</g>
	
		<ellipse transform="matrix(0.7601 -0.6498 0.6498 0.7601 -72.6032 122.7787)" class="st16" cx="130" cy="159.7" rx="4.9" ry="8.2"/>
	<ellipse transform="matrix(0.7601 -0.6498 0.6498 0.7601 -74.5074 123.4638)" cx="130" cy="162.6" rx="0.9" ry="2"/>
	<line class="st7" x1="149.5" y1="145" x2="133.7" y2="156.5"/>
	<path class="st17" d="M174.3,171.2c-0.7-1.1-5.2-8.3-9-14.2l-5-3.2c0,0,0,0-0.1,0.1c-0.6,0.5-1.4,0.8-2.3,0.9c0.2,0.6,0.3,1,0.3,1
		s3.2,12.9,2.5,14.3c-0.5,0.9-4.2,7.1-8.7,11.3c1.5,1.8,3.7,4.5,4.3,5.3c1,1.3,7-3,9.6-5.6C168.7,178.7,175.6,173.1,174.3,171.2z"/>
	<g>
		<path class="st18" d="M158.4,155.8C158.4,155.8,158.4,155.8,158.4,155.8C158.4,155.8,158.4,155.8,158.4,155.8z"/>
		<path class="st18" d="M159.6,144.8c2.6,3.1,3,7.1,0.7,9.1c0,0,0,0,0.1-0.1l5,3.2c0,0,1.7-4.8,1.1-11.4c-0.6-6.5-4-16.9-7.8-21.7
			c-3.8-4.7-6.2-8.1-9.7-8.2c-3.5-0.1-7.9,2.2-7.9,2.2s-6.6-2-13.1,3.4c-6.5,5.4-6.7,9-11.9,12.4c-5.2,3.4-6.7,1.8-8,3.9
			c-0.9,1.6,0.9,5.2,4.8,6.9c0.3,0.9,0.8,1.8,1.8,2.5c1.2,1,2.6,1.5,3.7,1.8c-0.6-2-1-3.5-1-3.5s0.7,0.1,1.7,0.2l-0.1-0.1
			c0.8,0,1.6,0.1,2.4,0.2c1.8,0,3.9-0.1,5.8-0.6c4-1,5-1.1,5-1.1l-4.8-1.1c0,0,0.7-0.2,2.2-0.9c1.4-0.7,4.3-3.2,4.3-3.2
			s5-0.5,5.7,1.4c0.7,2,0.5,4.8,0.5,4.8s0.7,0.2,2.7,1.6c2,1.4,6.1,4.1,6.1,4.1l1.4-0.9c-1.4-2.7-1.3-5.7,0.5-7.2
			C153,140.7,156.9,141.7,159.6,144.8z"/>
		<path class="st18" d="M159.1,159c0.1,0.3,0.1,0.5,0.2,0.8C159.3,159.5,159.2,159.3,159.1,159z"/>
		<path class="st18" d="M158.4,155.9c0,0.1,0.1,0.3,0.1,0.6C158.5,156.2,158.4,156,158.4,155.9z"/>
		<path class="st18" d="M158.5,156.5c0.1,0.6,0.4,1.5,0.6,2.5C158.9,157.9,158.7,157.1,158.5,156.5z"/>
	</g>
	<path class="st12" d="M88.2,240.5c0,1.3,1.7,2.8,2.3,3.2s9.5,4.3,11.3,5c1.8,0.7,5.5,1.7,5.5,1.7s19,6.8,29.7,9.5
		c10.7,2.7,24.8,4.2,26.7,4c1.8-0.2,2.5-0.7,2.5-1.2s6.5-22.2,8.2-30c0.1-0.3,0.1-0.5,0.1-0.8c-2.1-1.9-6.5-3.8-11.9-5
		c-4.8-1-9.2-1.2-12-0.5l-3.3,12.3c0,0-15.8-0.3-24.3-1.5s-13.5-2.5-13.5-2.5s-1.2-5.3-1.5-6.5s-1.7-1.8-2.8-2.5
		c-1.2-0.7-2.2-2.3-3-1.7c-0.8,0.7-3.3,0.8-3.3,0.8s-1.8-0.7-3.3-1c-1.5-0.3-3.2-0.3-3.7,0.8s-0.3,2.8-0.3,2.8s-2,1-2.3,2.3
		c-0.3,1.3-0.2,2.2-0.2,2.2s-1.3,1.5-1.5,2.5s0.7,3,0.7,3S88.2,239.2,88.2,240.5z"/>
	<path class="st10" d="M113.1,243.8c1-4.9,3.5-8.5,5.6-8.1l-4.5-1.2c-2.1-0.4-4.6,3.2-5.6,8.1c-1,4.9-0.1,9.2,2,9.6l4.5,1.2
		C113,253,112.1,248.7,113.1,243.8z"/>
	<path class="st19" d="M119.8,235.4c-0.1-0.2-0.3-0.4-0.6-0.5l-6.4-1.6c-0.7-0.2-1.7,0.2-2.2,1l-3.6,5.3c-0.3,0.5-0.3,1.1,0,1.4
		c0.1,0.2,0.3,0.4,0.6,0.5l6.4,1.6c0.7,0.2,1.7-0.2,2.2-1l3.6-5.3C120.1,236.2,120.1,235.7,119.8,235.4z"/>
	<path class="st8" d="M113.8,241.1l-4.7-1.2c-0.5-0.1-0.7-0.7-0.3-1.2l2.6-3.9c0.4-0.5,1.1-0.8,1.6-0.7l4.7,1.2
		c0.5,0.1,0.7,0.7,0.3,1.2l-2.6,3.9C115,240.9,114.3,241.2,113.8,241.1z"/>
	<circle class="st10" cx="156" cy="149.4" r="3.1"/>
</g>
<g>
	<rect x="163" y="303.9" class="st20" width="13.3" height="179.7"/>
	<rect x="310.8" y="303.9" class="st20" width="12" height="179.7"/>
	<rect x="457.2" y="303.9" class="st20" width="13.3" height="179.7"/>
	<rect x="163" y="314.1" class="st4" width="13.3" height="101.3"/>
	<rect x="310.8" y="314.1" class="st4" width="12" height="101.3"/>
	<rect x="457.2" y="314.1" class="st4" width="13.3" height="101.3"/>
	<path class="st21" d="M145.3,314.3c0-2.3,1.8-4.3,4.3-4.3H488c2.3,0,4.3,1.8,4.3,4.3"/>
	<path class="st22" d="M143.3,396.1h356.2c2.5,0,4.6,2.7,4.6,6l0,0c0,3.3-2,6-4.6,6H143.3c-2.5,0-4.6-2.7-4.6-6l0,0
		C138.7,398.7,140.7,396.1,143.3,396.1z"/>
	<g>
		<path class="st23" d="M149.6,310H488c2.3,0,4.3,1.8,4.3,4.3v14c0,2.3-1.8,4.3-4.3,4.3H149.6c-2.3,0-4.3-1.8-4.3-4.3v-14
			C145.3,312.1,147.1,310,149.6,310z"/>
		<circle class="st24" cx="463.8" cy="321.7" r="4.1"/>
		<circle class="st24" cx="316.7" cy="321.7" r="4.1"/>
		<circle class="st24" cx="169.5" cy="321.7" r="4.1"/>
		<path class="st21" d="M145.3,314.3c0-2.3,1.8-4.3,4.3-4.3H488c2.3,0,4.3,1.8,4.3,4.3"/>
	</g>
	<g>
		<path class="st23" d="M149.6,367.4H488c2.3,0,4.3,1.8,4.3,4.3v14c0,2.3-1.8,4.3-4.3,4.3H149.6c-2.3,0-4.3-1.8-4.3-4.3v-14
			C145.3,369.4,147.1,367.4,149.6,367.4z"/>
		<circle class="st24" cx="463.8" cy="379.1" r="4.1"/>
		<circle class="st24" cx="316.7" cy="379.1" r="4.1"/>
		<circle class="st24" cx="169.5" cy="379.1" r="4.1"/>
		<path class="st21" d="M145.3,371.7c0-2.3,1.8-4.3,4.3-4.3H488c2.3,0,4.3,1.8,4.3,4.3"/>
	</g>
	<g>
		<path class="st23" d="M149.6,338.7H488c2.3,0,4.3,1.8,4.3,4.3v14c0,2.3-1.8,4.3-4.3,4.3H149.6c-2.3,0-4.3-1.8-4.3-4.3v-14
			C145.3,340.7,147.1,338.7,149.6,338.7z"/>
		<circle class="st24" cx="463.8" cy="350.4" r="4.1"/>
		<circle class="st24" cx="316.7" cy="350.4" r="4.1"/>
		<circle class="st24" cx="169.5" cy="350.4" r="4.1"/>
		<path class="st21" d="M145.3,343c0-2.3,1.8-4.3,4.3-4.3H488c2.3,0,4.3,1.8,4.3,4.3"/>
	</g>
</g>
<g>
	<polygon class="st1" points="427.2,356.2 430.9,395.8 447,395.8 450.7,356.2 	"/>
	<path class="st8" d="M444.2,362.8c-3.3,0-5.9,3.8-5.9,8.4c0,4.6,2.6,8.4,5.9,8.4c1.9,0,3.5-1.2,4.6-3.1l0.8-8.7
		C448.7,364.9,446.6,362.8,444.2,362.8z"/>
	<polygon class="st25" points="427.4,358.4 450.5,358.4 450.7,356.2 427.2,356.2 	"/>
	<polygon class="st26" points="452.7,354.8 450.7,354.8 448.8,348.3 429.5,348.3 427.6,354.8 425.6,354.8 425.1,356.5 453.2,356.5 	
		"/>
</g>
<line class="st7" x1="0" y1="483.5" x2="577.1" y2="483.5"/>
<g>
	<path class="st4" d="M350.6,459.6c-3.8,0.6-6.9,1.7-9.4,11.6c-1.7,7-0.8,8-2.7,12.2s-2.4,11.3,3.3,17.3c5.8,6,9.3,2,11.9-1.7
		c2.6-3.7,2-11.5,2.4-16s1.5-11.7,1.4-15.8C357.4,463.1,357.5,458.6,350.6,459.6z"/>
	<path class="st27" d="M348.5,453.1c0,0-2.7,10.4-3.3,13.2c-0.6,2.8,1.2,4.7,1.2,4.7s-0.5,4.1-1.4,6.4c-0.5,1.3,1.6,0.6,4.2,0.6
		c2.8,0.1,4.1,1.9,4.1,0.2c0-2.2,0.1-4.6,0.1-6.5c0-0.4,1.9-1,2.6-6.7c0.7-5.5,0.2-12.5,0.2-12.5L348.5,453.1z"/>
	<path class="st4" d="M370.1,459.6c3.5,1.2,4.1,5.9,4.7,13.1c0.6,7.2-0.5,8,0.5,12.5c1,4.5,0.4,11.6-6.1,16.5s-9.1,0.4-10.9-3.7
		c-1.8-4.1,0.1-11.7,0.5-16.2c0.4-4.5,0.6-11.8,1.4-15.8C360.9,462,363.8,457.4,370.1,459.6z"/>
	<path class="st27" d="M371.3,454.8c0,0,0.9,10.7,1,13.5c0.1,2.9-2,4.4-2,4.4s-0.2,4.2,0.3,6.6c0.3,1.3-1.7,0.3-4.3-0.1
		c-2.8-0.4-4.4,1.1-4.1-0.5c0.4-2.1,0.6-4.6,1.1-6.4c0.1-0.4-1.7-1.3-1.4-7c0.3-5.5,1.9-12.3,1.9-12.3L371.3,454.8z"/>
	<path class="st4" d="M337.5,360.2c0,0-8.2,8-7.7,22.2c0.5,14.2,10.7,19.3,10.7,19.3s1.5,57,1.5,60.7c0,3.7,15.8,5.2,16.5,1.2
		s10-66.8,10.5-71.7c0.5-4.8-0.7-7.7-0.7-7.7s2.3,2.3,2.5,5.2c0.2,2.8-10.7,71.3-11.2,74.5c-0.5,3.2,12.8,5.5,14.8,0.3
		c2-5.2,20.3-63.3,20.3-63.3s6.7-3.2,8.5-11.8c1.8-8.7,2.2-21.2-3.8-26.7S337.5,360.2,337.5,360.2z"/>
	<path class="st28" d="M388.1,281c2.4-23.7,3.8-43.7,3.8-48.5c0-13.5-11-24.5-24.5-24.5c-13.5,0-24.5,11-24.5,24.5
		c0,4.8,1.4,24.8,3.8,48.5H388.1z"/>
	<path class="st2" d="M414.7,332.7c-0.2-4-5.5-25.2-5.5-25.2s0-1.8,0-2.8s-1.8-3-1.8-3s-1-5.8-2.2-10.2s-7.5-8.2-13.9-12.1
		c-5.5-3.5-10.9-6.1-10.9-6.1l-0.6,3.9l-2-1.2c0,0-1,0.4-2.4,0.9l0-0.6l-5.9,2.6c0,0,0,0,0,0c-0.8,0.2-1.5,0.3-2,0.3
		c-0.6,0-1.2-0.1-2-0.3c0,0,0,0,0,0l-5.9-2.6l0,0.6c-1.5-0.5-2.4-0.9-2.4-0.9l-2,1.2l-0.6-3.9c0,0-5.8,2.7-11.4,6.4
		c-6.4,3.8-12.6,7.6-13.9,12.1s-2.2,10.2-2.2,10.2s-1.8,2-1.8,3s0,2.8,0,2.8s-5.2,21.2-5.5,25.2s-0.2,5.8,0.5,6.8
		s18.5,14.2,18.5,14.2l24.2,2v0.4l2.4-0.2l6.5,0.5v-1.1l24.2-2c0,0,17.8-13.2,18.5-14.2S414.9,336.7,414.7,332.7z"/>
	<path class="st9" d="M382,275.5c-0.2-4.8-1-6.4-1.9-8c-0.8-1.6-5.9-3.1-12.5-3.1c0,0,0,0,0,0c0,0-0.1,0-0.1,0c0,0-0.1,0-0.1,0
		c0,0,0,0,0,0c-6.7,0-11.7,1.5-12.5,3.1c-0.8,1.6-1.6,3.2-1.9,8c-0.2,4.8,2.7,8.7,2.7,8.7s1.6-4.9,4.3-5.6c2.7-0.7,3.5,1.2,7.5,1.2
		c4,0,4.8-1.9,7.5-1.2c2.7,0.7,4.3,5.6,4.3,5.6S382.2,280.2,382,275.5z"/>
	<path class="st29" d="M367.4,260.1l-10.2-2.8v10.8c0,0,4.5,9.7,9.7,10.3c0.2,0,0.3,0.1,0.5,0.1c0.2,0,0.3,0,0.5-0.1
		c5.3-0.6,9.7-10.3,9.7-10.3v-10.8L367.4,260.1z"/>
	<path class="st30" d="M385.6,237c0.1-1.3,0.1-2.3,0.2-2.9c-0.2-0.2-0.4-0.4-0.7-0.5c-4.8-4-7.9-8.7-8.1-11.7
		c-3.3,3.1-9.8,6.6-17.8,9.1c-3.6,1.1-7,1.9-10.2,2.4c0,0.4,0.1,1.7,0.2,3.6c-1.4,0.2-2.4,2.8-2.2,5.9c0.3,3.1,1.6,5.5,3.1,5.5
		c0.2,1.6,0.4,3.1,0.6,4.2c1,5.7,11.7,11.6,16.7,11.6s15.7-5.9,16.7-11.6c0.2-1.1,0.4-2.6,0.6-4.2c1.5,0,2.8-2.4,3.1-5.5
		C388,239.8,387,237.2,385.6,237z"/>
	<path class="st8" d="M376.4,239.6c3.9,0.1,5.4,3.1,5.4,3.1s-0.5,1.7-4.9,1.7c-4.2,0-5.5-0.8-4.7-2.6
		C372.6,241,373.7,239.6,376.4,239.6z"/>
	<g>
		<circle class="st31" cx="376.9" cy="242.6" r="2.3"/>
		<circle class="st8" cx="376.2" cy="241.8" r="1"/>
	</g>
	<path class="st31" d="M376.3,238.7c3.3,0,5.1,1.8,5.7,2.8l1.7,0.2l-1.9,1.1l0,0v0c0,0-1.5-3.1-5.4-3.1c-3.9-0.1-4.5,2.8-4.5,2.8
		S371.5,238.7,376.3,238.7z"/>
	<path class="st8" d="M358.5,239.6c-3.9,0.1-5.4,3.1-5.4,3.1s0.5,1.7,4.9,1.7c4.2,0,5.5-0.8,4.7-2.6
		C362.3,241,361.2,239.6,358.5,239.6z"/>
	<g>
		<circle class="st31" cx="358" cy="242.6" r="2.3"/>
		<circle class="st8" cx="357.4" cy="241.8" r="1"/>
	</g>
	<path class="st31" d="M358.6,238.7c-3.3,0-5.1,1.8-5.7,2.8l-1.7,0.2l1.9,1.1l0,0v0c0,0,1.5-3.1,5.4-3.1c3.9-0.1,4.5,2.8,4.5,2.8
		S363.4,238.7,358.6,238.7z"/>
	<path class="st32" d="M362,253.8c0,0-0.6,0.4-1,1.5c-0.4,1-1,0.6-0.6-0.5C360.8,253.5,362,253.8,362,253.8z"/>
	<circle class="st8" cx="349" cy="249" r="1.8"/>
	<circle class="st8" cx="385.5" cy="249" r="1.8"/>
	<path class="st32" d="M369.2,250.2c-0.4,0.3-0.8,0.6-1.7,0.6c0,0,0,0-0.1,0c0,0,0,0-0.1,0c-1,0-1.3-0.3-1.7-0.6s-1.3-0.1-1.3-0.1
		s0.6,0.3,0.9,0.6c0.3,0.4,0.6,1,2.1,1s1.8-0.6,2.1-1c0.3-0.4,0.9-0.6,0.9-0.6S369.6,249.8,369.2,250.2z"/>
	<path class="st33" d="M368.3,259.1c3.3-0.6,5.1-4.2,5.1-4.2l-4.9-0.3l-1,0.4l-1-0.4l-4.9,0.3c0,0,1.8,3.6,5.1,4.2
		c0.2,0.1,0.5,0.1,0.8,0.1c0,0,0.1,0,0.1,0c0,0,0.1,0,0.1,0C367.9,259.2,368.1,259.2,368.3,259.1z"/>
	<path class="st8" d="M368.2,257.4c2.7-0.4,4.2-2.4,4.2-2.4l-4.1-0.3l-0.8,0.3l-0.8-0.3l-4.1,0.3c0,0,1.5,2,4.2,2.4
		c0.2,0,0.4,0.1,0.7,0.1c0,0,0,0,0.1,0c0,0,0,0,0.1,0C367.8,257.4,368,257.4,368.2,257.4z"/>
	<path class="st32" d="M372.9,253.8c0,0,0.6,0.4,1,1.5c0.4,1,1,0.6,0.6-0.5C374.1,253.5,372.9,253.8,372.9,253.8z"/>
	<g>
		<path class="st28" d="M352.5,238.1c-0.2,0-0.2,0-0.3-0.1c-0.3-0.2-0.1-0.6,0.1-0.8c0.1-0.1,2.2-2.5,5.7-2.9
			c3.7-0.5,5.2,1.2,5.3,1.2c0.3,0.2,0.3,0.5,0.1,0.8c-0.2,0.2-0.6,0.2-0.8,0c-0.1-0.1-1.4-1.1-4.4-0.8c-3.1,0.4-5.3,2.3-5.3,2.3
			C352.8,238.1,352.7,238.1,352.5,238.1z"/>
	</g>
	<g>
		<path class="st28" d="M382.6,238.1c0.2,0,0.2,0,0.3-0.1c0.3-0.2,0.1-0.6-0.1-0.8c-0.1-0.1-2.2-2.5-5.7-2.9
			c-3.7-0.5-5.2,1.2-5.3,1.2c-0.3,0.2-0.3,0.5-0.1,0.8c0.2,0.2,0.6,0.2,0.8,0c0.1-0.1,1.4-1.1,4.4-0.8c3.1,0.4,5.3,2.3,5.3,2.3
			C382.2,238.1,382.4,238.1,382.6,238.1z"/>
	</g>
	<path class="st34" d="M374.2,254.8c0,0,0,0-0.7,0c-0.7,0-1.7-0.4-3.7-0.8c-1.9-0.3-2.4,0.1-2.4,0.1s-0.5-0.4-2.4-0.1
		c-1.9,0.3-3,0.8-3.7,0.8c-0.7,0-0.7,0-0.7,0s1.5,0.6,4,0.6c1.2,0,1.7,0,2.1,0c0,0,0.1,0,0.2,0c0.2,0,0.4,0,0.5,0c0.1,0,0.3,0,0.5,0
		c0.1,0,0.1,0,0.2,0c0.4,0,0.9,0,2.1,0C372.7,255.4,374.2,254.8,374.2,254.8z"/>
	<path class="st35" d="M386.1,237c0-0.5,0.1-1.7,0.1-2.2l-2.6,5.2c-1.2-2.7-10.9-2.4-12.6-1.9c-0.4,0.1-0.7,0.4-1,0.8
		c-0.3,0.5-0.5,1.3-0.6,2.1h-3.9c-0.1-0.8-0.3-1.6-0.6-2.1c-0.3-0.5-0.6-0.7-1-0.8c-1.8-0.5-11.5-0.8-12.6,1.9l-2.5-5.2
		c0,0.4,0.1,1.6,0.1,2.1c0,0-0.1,0-0.1,0l2.2,4.4c-0.3,1.7-0.1,3.7,0,4.6c0.2,1.2,1.7,2.7,7.5,2.8c0.1,0,0.3,0,0.4,0
		c4.1,0,6.4-1.2,6.7-2.3c0.2-0.7,0.3-2.4,0.2-4.1h3.6c-0.1,1.7-0.1,3.4,0.2,4.1c0.3,1.1,2.6,2.3,6.7,2.3c0.1,0,0.3,0,0.4,0
		c5.7-0.1,7.2-1.6,7.5-2.8c0.2-0.9,0.3-2.9,0-4.6L386.1,237C386.1,237,386.1,237,386.1,237z M364.3,246c-0.1,0.3-1.6,1.5-5.8,1.4
		c-4.4-0.1-6.1-1-6.2-1.7c-0.2-1.1-0.4-3.7,0.2-5.1c0.4-1,4.3-1.5,7.5-1.5c1.5,0,2.8,0.1,3.6,0.3C364.3,239.7,364.7,244.5,364.3,246
		z M382.7,245.7c-0.2,0.8-1.9,1.7-6.2,1.7c-4.3,0.1-5.7-1.1-5.8-1.4c-0.4-1.5-0.1-6.3,0.7-6.7c0.8-0.2,2.1-0.3,3.6-0.3
		c3.2,0,7.1,0.5,7.5,1.5C383.1,242,382.9,244.6,382.7,245.7z"/>
	<path class="st36" d="M401.2,372.4h-65.7c-0.7,0-1.3-0.6-1.3-1.3V368c0-0.7,0.6-1.3,1.3-1.3h65.7c0.7,0,1.3,0.6,1.3,1.3v3.1
		C402.5,371.8,401.9,372.4,401.2,372.4z"/>
	<path class="st37" d="M400.3,366.7C400.3,366.7,400.3,366.7,400.3,366.7l0-2.3c0,0,0,0,0,0h-63.7v2.2c0,0,0,0,0,0.1H400.3z"/>
	<circle class="st1" cx="368" cy="326.3" r="30"/>
	<path class="st36" d="M399,364.5h-61.3c-1.9,0-3.5-1.6-3.5-3.5v-40.3c0-1.9,1.6-3.5,3.5-3.5H399c1.9,0,3.5,1.6,3.5,3.5V361
		C402.5,362.9,400.9,364.5,399,364.5z"/>
	<circle class="st8" cx="367.3" cy="343.2" r="7.7"/>
	<rect x="354" y="379" class="st4" width="39" height="17.5"/>
</g>
</svg>
