<?xml version="1.0" encoding="utf-8"?>

<svg version="1.1" xmlns="http://www.w3.org/2000/svg" xmlns:xlink="http://www.w3.org/1999/xlink" x="0px" y="0px"
	 viewBox="0 0 99.1 51.3" style="enable-background:new 0 0 99.1 51.3;" xml:space="preserve">

  <style type="text/css">
    .st0{fill:#231F20;}
    .st1{fill:#78CDD1;}
  </style>

  <title>CTIA</title>

  <g class="logo">
    <path class="st0" d="M84.5,11.2v5c-1.2-1.8-2.9-3.2-4.8-4.3c-1.9-1-3.9-1.4-6-1.4c-3.7-0.1-7.3,1.5-9.9,4.2c-2.7,2.6-4.2,6.2-4.1,10
      c-0.1,3.8,1.4,7.5,4.1,10.2c4.1,4.2,10.5,5.4,15.8,2.8c1.9-1,3.6-2.3,4.9-4v4.7H88V11.2H84.5z M81.7,17c2.1,2.1,3.2,4.9,3.1,7.9
      c0,1.9-0.5,3.9-1.4,5.6c-0.9,1.6-2.3,3-3.9,3.9c-1.6,1-3.5,1.5-5.4,1.5c-1.9,0-3.7-0.5-5.3-1.5c-1.7-1-3.1-2.4-4-4.1
      c-1-1.7-1.5-3.6-1.5-5.5c0-1.9,0.5-3.8,1.5-5.5c1.9-3.4,5.5-5.5,9.3-5.5C76.9,13.8,79.7,14.9,81.7,17"/>
    <rect x="50.2" y="11.2" class="st0" width="3.5" height="27.2"/>
    <path class="st0" d="M49.9,0.9C49.3,1.4,49,2.1,49,2.9c0,0.8,0.3,1.5,0.8,2c1.1,1.1,2.9,1.1,4,0c0,0,0,0,0,0c0.5-0.5,0.9-1.2,0.8-2
      c0-0.8-0.3-1.5-0.8-2C52.8-0.2,51-0.2,49.9,0.9C49.9,0.9,49.9,0.9,49.9,0.9"/>
    <polygon class="st0" points="36.4,1.1 36.4,11.2 31.6,11.2 31.6,14.2 36.4,14.2 36.4,38.4 39.9,38.4 39.9,14.2 45.4,14.2 45.4,11.2
      39.9,11.2 39.9,1.1 "/>
    <path class="st0" d="M24.7,13.5c-1.3-0.9-2.7-1.7-4.2-2.2c-1.7-0.5-3.4-0.8-5.2-0.8c-2.7,0-5.4,0.6-7.8,1.9c-2.3,1.2-4.2,3-5.4,5.3
      c-1.3,2.2-2,4.8-2,7.3c-0.1,3.8,1.5,7.4,4.2,10c2.9,2.7,6.7,4.2,10.7,4.1c2.6,0,5.1-0.5,7.5-1.6c2.1-1,3.9-2.6,5.2-4.5l-2.8-1.8
      c-2.3,3.1-5.9,4.8-9.8,4.8c-2.1,0-4.1-0.5-5.9-1.5C7.5,33.5,6,32.1,5,30.4c-1-1.7-1.5-3.6-1.5-5.6C3.5,21.8,4.7,19,6.8,17
      c2.2-2.1,5.2-3.3,8.2-3.2c3.9-0.1,7.5,1.7,9.8,4.8l2.8-1.7C26.9,15.5,25.9,14.4,24.7,13.5"/>
  </g>
  <g class="dots">
    <path class="st1" d="M5.9,51.3c2.4,0.1,4.5-1.7,4.6-4.2c0.1-2.4-1.7-4.5-4.2-4.6c-0.1,0-0.3,0-0.4,0c-2.4-0.1-4.5,1.7-4.6,4.2 c-0.1,2.4,1.7,4.5,4.2,4.6C5.6,51.3,5.7,51.3,5.9,51.3"/>
    <path class="st1" d="M18.9,51.3c2.4,0,4.3-2,4.3-4.4c0-2.4-2-4.3-4.4-4.3c-2.4,0-4.3,2-4.3,4.4C14.5,49.3,16.5,51.3,18.9,51.3 C18.9,51.3,18.9,51.3,18.9,51.3"/>
    <path class="st1" d="M32,51.3c2.4,0,4.3-2,4.3-4.4c0-2.4-2-4.3-4.4-4.3c-2.4,0-4.3,2-4.3,4.4C27.6,49.3,29.6,51.3,32,51.3 C32,51.3,32,51.3,32,51.3"/>
    <path class="st1" d="M84.3,51.3c2.4,0,4.3-2,4.3-4.4s-2-4.3-4.4-4.3c-2.4,0-4.3,2-4.3,4.4C79.9,49.3,81.9,51.3,84.3,51.3 C84.3,51.3,84.3,51.3,84.3,51.3"/>
    <path class="st1" d="M45.1,51.3c2.4,0,4.3-2,4.3-4.4c0-2.4-2-4.3-4.4-4.3c-2.4,0-4.3,2-4.3,4.4C40.7,49.3,42.7,51.3,45.1,51.3 C45.1,51.3,45.1,51.3,45.1,51.3"/>
    <path class="st1" d="M58.2,51.3c2.4,0,4.3-2,4.3-4.4c0-2.4-2-4.3-4.4-4.3c-2.4,0-4.3,2-4.3,4.4C53.8,49.3,55.7,51.3,58.2,51.3 C58.2,51.3,58.2,51.3,58.2,51.3"/>
    <path class="st1" d="M71.2,51.3c2.4,0,4.3-2,4.3-4.4s-2-4.3-4.4-4.3c-2.4,0-4.3,2-4.3,4.4C66.8,49.3,68.8,51.3,71.2,51.3 C71.2,51.3,71.2,51.3,71.2,51.3"/>
  </g>

  <g class="tm">
    <polygon points="93.2,11.5 91.8,11.5 91.8,11.2 94.9,11.2 94.9,11.5 93.5,11.5 93.5,15.6 93.2,15.6 "/>
    <path d="M95.8,11.2h0.4l0.9,2.6l0.2,0.5c0,0.2,0.1,0.3,0.2,0.5l0,0c0.1-0.2,0.1-0.3,0.2-0.5l0.2-0.5l0.9-2.6h0.4v4.4
      h-0.3v-2.9c0-0.2,0-0.4,0-0.6s0-0.4,0-0.6l0,0l-0.3,1l-0.9,2.6h-0.3l-0.9-2.6l-0.3-1l0,0c0,0.2,0,0.4,0,0.6s0,0.4,0,0.6v2.9h-0.3
      L95.8,11.2z"/>
  </g>
</svg>
