<?xml version="1.0" encoding="utf-8"?>
<!-- Generator: Adobe Illustrator 24.2.3, SVG Export Plug-In . SVG Version: 6.00 Build 0)  -->
<svg version="1.1" id="Layer_1" xmlns="http://www.w3.org/2000/svg" xmlns:xlink="http://www.w3.org/1999/xlink" x="0px" y="0px"
	 viewBox="0 0 372.8 192.7" style="enable-background:new 0 0 372.8 192.7;" xml:space="preserve">
<style type="text/css">
	.st0{clip-path:url(#SVGID_2_);fill:#FFFFFF;}
	.st1{fill:#FFFFFF;}
	.st2{clip-path:url(#SVGID_4_);fill:#FFFFFF;}
	.st3{clip-path:url(#SVGID_6_);fill:#FFFFFF;}
	.st4{clip-path:url(#SVGID_8_);fill:#FFFFFF;}
</style>
<g>
	<defs>
		<rect fill="#FFFFFF" id="SVGID_1_" width="372.8" height="192.7"/>
	</defs>
	<clipPath id="SVGID_2_" fill="#FFFFFF" >
		<use xlink:href="#SVGID_1_"  style="overflow:visible;"/>
	</clipPath>
	<path fill="#FFFFFF" class="st0" d="M318.7,93.7c0,7.8-1.7,14.7-5.2,20.9c-3.5,6.2-8.4,11.1-14.9,14.7c-6.4,3.6-13.3,5.4-20.4,5.4
		c-7.1,0-13.8-1.8-20-5.5c-6.2-3.7-11.2-8.8-14.9-15.3c-3.7-6.6-5.5-13.4-5.5-20.6c0-7.3,1.8-14.1,5.5-20.6
		c3.7-6.5,8.6-11.6,14.8-15.2c6.2-3.6,12.9-5.4,20.3-5.4c11.4,0,21,4,28.7,11.9C314.8,72,318.7,81.9,318.7,93.7 M330.8,144.2V42.1
		h-13v18.8c-5.1-7.1-11.1-12.5-17.9-16.1c-6.8-3.6-14.4-5.4-22.8-5.4c-14.5,0-27,5.2-37.3,15.7c-10.3,10.4-15.5,23-15.5,37.7
		c0,15,5.1,27.8,15.4,38.3c10.2,10.5,22.6,15.7,37,15.7c8.1,0,15.6-1.7,22.5-5.1c6.9-3.4,13-8.4,18.5-15.1v17.6H330.8z"/>
</g>
<rect x="188.6" y="42.1" fill="#FFFFFF" class="st1" width="13.1" height="102.2"/>
<g>
	<defs>
		<rect id="SVGID_3_" width="372.8" height="192.7" fill="#FFFFFF" />
	</defs>
	<clipPath id="SVGID_4_" fill="#FFFFFF" >
		<use xlink:href="#SVGID_3_"  style="overflow:visible;"/>
	</clipPath>
	<path class="st2" fill="#FFFFFF" d="M187.5,3.2c-2.1,2.1-3.2,4.7-3.2,7.7c0,2.9,1.1,5.5,3.2,7.6c2.1,2.1,4.6,3.2,7.6,3.2c3,0,5.5-1.1,7.7-3.2
		c2.1-2.1,3.2-4.7,3.2-7.6c0-3-1.1-5.6-3.2-7.7c-2.1-2.1-4.7-3.2-7.7-3.2C192.2,0,189.6,1.1,187.5,3.2"/>
</g>
<polygon class="st1" fill="#FFFFFF" points="136.8,4.1 136.8,42.1 118.9,42.1 118.9,53.4 136.8,53.4 136.8,144.2 150,144.2 150,53.4 170.8,53.4 
	170.8,42.1 150,42.1 150,4.1 "/>
<g>
	<defs>
		<rect id="SVGID_5_" fill="#FFFFFF" width="372.8" height="192.7"/>
	</defs>
	<clipPath id="SVGID_6_">
		<use xlink:href="#SVGID_5_"  style="overflow:visible;"/>
	</clipPath>
	<path class="st3" fill="#FFFFFF" d="M92.8,50.6c-4.4-3.3-9.7-6-16-8.1c-6.3-2.1-12.8-3.1-19.6-3.1c-10.8,0-20.5,2.4-29.2,7.1
		C19.3,51.3,12.4,58,7.5,66.4C2.5,74.9,0,84.1,0,94c0,14.7,5.3,27.2,16,37.5c10.6,10.3,24,15.4,40.2,15.4c10.5,0,19.9-2,28.1-6.1
		c8.2-4.1,14.8-9.8,19.7-17.1l-10.4-6.9c-9.5,12-21.8,17.9-36.8,17.9c-8.2,0-15.6-1.8-22.2-5.4C28,125.7,22.8,120.6,19,114
		c-3.8-6.6-5.7-13.6-5.7-21c0-11.4,4.1-21.2,12.3-29.2c8.2-8,18.6-12,31-12c15.6,0,27.9,6,36.9,17.9l10.4-6.5
		C100.9,58.2,97.2,53.9,92.8,50.6"/>
	<path class="st3" fill="#FFFFFF" d="M22,192.7c9.2,0,16.6-7.3,16.6-16.4c0-9.1-7.4-16.4-16.6-16.4s-16.6,7.4-16.6,16.4
		C5.4,185.4,12.8,192.7,22,192.7"/>
	<path class="st3" fill="#FFFFFF" d="M71.2,192.7c9.2,0,16.6-7.3,16.6-16.4c0-9.1-7.4-16.4-16.6-16.4s-16.6,7.4-16.6,16.4
		C54.6,185.4,62,192.7,71.2,192.7"/>
	<path class="st3" fill="#FFFFFF" d="M120.4,192.7c9.2,0,16.6-7.3,16.6-16.4c0-9.1-7.4-16.4-16.6-16.4c-9.2,0-16.6,7.4-16.6,16.4
		C103.7,185.4,111.2,192.7,120.4,192.7"/>
	<path class="st3" fill="#FFFFFF" d="M317.1,192.7c9.2,0,16.6-7.3,16.6-16.4c0-9.1-7.4-16.4-16.6-16.4c-9.2,0-16.6,7.4-16.6,16.4
		C300.4,185.4,307.9,192.7,317.1,192.7"/>
	<path class="st3" fill="#FFFFFF" d="M169.5,192.7c9.2,0,16.6-7.3,16.6-16.4c0-9.1-7.4-16.4-16.6-16.4c-9.2,0-16.6,7.4-16.6,16.4
		C152.9,185.4,160.4,192.7,169.5,192.7"/>
	<path class="st3" fill="#FFFFFF" d="M218.7,192.7c9.2,0,16.6-7.3,16.6-16.4c0-9.1-7.4-16.4-16.6-16.4c-9.2,0-16.6,7.4-16.6,16.4
		C202.1,185.4,209.5,192.7,218.7,192.7"/>
	<path class="st3" fill="#FFFFFF" d="M267.9,192.7c9.2,0,16.6-7.3,16.6-16.4c0-9.1-7.4-16.4-16.6-16.4c-9.2,0-16.6,7.4-16.6,16.4
		C251.3,185.4,258.7,192.7,267.9,192.7"/>
</g>
<polygon class="st1" points="350.5,43.3 345.3,43.3 345.3,42.3 356.9,42.3 356.9,43.3 351.7,43.3 351.7,58.6 350.5,58.6 "/>
<g>
	<defs>
		<rect id="SVGID_7_" width="372.8" height="192.7" fill="#FFFFFF"/>
	</defs>
	<clipPath id="SVGID_8_">
		<use xlink:href="#SVGID_7_"  style="overflow:visible;"/>
	</clipPath>
	<path class="st4" fill="#FFFFFF" d="M360,42.3h1.6l3.4,9.6c0.2,0.6,0.4,1.2,0.6,1.8c0.2,0.6,0.4,1.2,0.6,1.8h0.1c0.2-0.6,0.4-1.2,0.6-1.8
		c0.2-0.6,0.4-1.2,0.6-1.8l3.4-9.6h1.6v16.4h-1.1V47.9c0-0.7,0-1.4,0-2.2c0-0.8,0.1-1.5,0.1-2.2h-0.1l-1.3,3.7l-3.5,9.8h-1l-3.6-9.8
		l-1.3-3.7h-0.1c0,0.7,0.1,1.4,0.1,2.2c0,0.8,0.1,1.5,0.1,2.2v10.8H360V42.3z"/>
</g>
</svg>
