<svg xmlns="http://www.w3.org/2000/svg" width="104" height="120" viewBox="0 0 104 120">
  <metadata><?xpacket begin="﻿"?>
<x:xmpmeta xmlns:x="adobe:ns:meta/" x:xmptk="Adobe XMP Core 5.6-c138 79.159824, 2016/09/14-01:09:01        ">
   <rdf:RDF xmlns:rdf="http://www.w3.org/1999/02/22-rdf-syntax-ns#">
      <rdf:Description rdf:about=""/>
   </rdf:RDF>
</x:xmpmeta>





















<?xpacket end="w"?></metadata>
<defs>
    <style>
      .cls-1 {
        fill: rgba(0, 0, 0, 0.1);
        fill-rule: evenodd;
      }
    </style>
  </defs>
  <path class="cls-1" d="M53.5,94A1.5,1.5,0,1,1,52,95.5,1.5,1.5,0,0,1,53.5,94Zm0-61A1.5,1.5,0,1,1,52,34.5,1.5,1.5,0,0,1,53.5,33ZM1.5,61A1.5,1.5,0,1,1,0,62.5,1.5,1.5,0,0,1,1.5,61Zm0-61A1.5,1.5,0,1,1,0,1.5,1.5,1.5,0,0,1,1.5,0Z"/>
</svg>
