<svg preserveAspectRatio="xMidYMin" xmlns="http://www.w3.org/2000/svg" viewBox="0 0 959 593">
	<defs>
    <filter filterUnits="userSpaceOnUse" width="10000px" height="10000px">
      <feOffset in="SourceAlpha" dy="8" />
      <feGaussianBlur result="blurOut" stdDeviation="3.162" />
      <feFlood floodColor="#3E8A8D" result="floodOut" />
      <feComposite operator="atop" in="floodOut" in2="blurOut" />
      <feComponentTransfer>
        <feFuncA type="linear" slope=".51" />
      </feComponentTransfer>
      <feMerge>
        <feMergeNode />
        <feMergeNode in="SourceGraphic" />
      </feMerge>
    </filter>
	</defs>
	<g cursor="pointer" pointerEvents="all">
		<path data-name="South Dakota" data-abbreviation="SD" d="M472.8,203.2l-1-1.1-1.5-3.6,1.8-3.7,1.1-5.6-2.6-2.1-.3-2.7.6-3,2.2-.8.3-5.7-.1-30.1-.6-3-4.1-3.6-1-2v-1.9l1.9-1.3,1.5-1.9.2-2.7-57.4-1.6-56.2-3.9-.8,5.3-1.6,15.9L353.9,162l-1.6,24.6,16,1,19.6,1.1,18,1.3,23.8,1.3,10.7-.8,2.9,2.3,4.3,3,1,.8,3.5-.9,4-.3,2.7-.1,3.1,1.2,4.5,1.4,3.1,1.8.6,1.9.9,1.9.7-.5,1.1.2Z"/>
		<path data-name="District of Columbia" data-abbreviation="DC" d="m905.14 279.96-1.14-1.175c-1.94-2-4-4-5.86-6-0.68-0.75-1.41-1.45-2.13-2.16-1.56-1.57-3.13-3.12-4.69-4.7-2.12-2.14-4.2333-4.2867-6.34-6.44-1.31-1.35-2.65-2.67-3.94-4.05-1-1.13-2.17-2.2-3.26-3.3-0.4-0.4-0.78-0.82-1.19-1.21l-2.93-2.92c-0.82-0.82-1.63-1.65-2.49-2.43-0.14-0.13-0.18-0.13-0.31 0s-0.37 0.41-0.57 0.61l-2.8 2.77c-2.2 2.22-4.3933 4.4433-6.58 6.67l-2.22 2.25-3 3-0.58 0.53c-0.23 0.22-0.47 0.43-0.69 0.66-1.22 1.21-2.43 2.43-3.63 3.64-0.095 0.0996-0.18194 0.20662-0.26 0.32-0.0683 0.092-0.0683 0.21797 0 0.31 0.18 0.32 0.36 0.65 0.53 1 0.1302 0.2121 0.23112 0.44084 0.3 0.68 0.0285 0.12343 0.0831 0.23935 0.16 0.34 0.23865 0.26813 0.44972 0.5596 0.63 0.87 0.30659 0.39637 0.64076 0.77063 1 1.12 0.37827 0.34597 0.6783 0.76873 0.88 1.24 0.0804 0.2192 0.1879 0.42748 0.32 0.62 0.17329 0.2667 0.27648 0.57282 0.3 0.89 0.0198 0.20605 0.10778 0.3996 0.25 0.55 0.21 0.23 0.46 0.4 0.68 0.61l1.45 1.36c0.1739 0.16153 0.37324 0.2933 0.59 0.39 0.67 0.28 1.35 0.56 2 0.87 0.33711 0.15695 0.70957 0.22248 1.08 0.19 0.36012-0.0305 0.72247 0.0208 1.06 0.15l0.58 0.2c0.20935 0.0843 0.43888 0.1052 0.66 0.06 0.0748-0.0409 0.16523-0.0409 0.24 0 0.17533 0.0809 0.34273 0.17797 0.5 0.29 0.1774 0.11648 0.28007 0.31802 0.27 0.53 6e-3 0.20735 0.0537 0.41138 0.14 0.6 0.13 0.32 0.26 0.64 0.41 0.95 0.0761 0.14894 0.13321 0.30684 0.17 0.47 0.0226 0.19091 0.0766 0.37676 0.16 0.55 0.0712 0.10943 0.0712 0.25057 0 0.36-0.10111 0.15133-0.10111 0.34867 0 0.5 0.39 0.8 0.81 1.57 1.17 2.38 0.17 0.4 0.27 0.44 0.71 0.4h0.23c0.29712-0.0412 0.58468 0.12309 0.7 0.4 0.068 0.13613 0.1519 0.26369 0.25 0.38 0.39 0.57 0.38 0.47 0.3 1.06-0.021 0.35986 0.0891 0.71514 0.31 1 0.0711 0.14087 0.22365 0.22118 0.38 0.2l0.6-0.18c0.088-0.01 0.14826-0.0934 0.13-0.18 0.0111-0.24235-0.0406-0.48346-0.15-0.7-0.15-0.21 0-0.23 0.08-0.3 0.0878-0.0801 0.22219-0.0801 0.31 0 0.29795 0.26129 0.58169 0.53836 0.85 0.83 0.47069 0.61106 0.81104 1.3122 1 2.06 0.06 0.21451 0.0803 0.43818 0.06 0.66l-0.0148 0.0589c4.2e-4 0.13063-0.0851 0.18066-0.21528 0.19111-0.24168 0.0633-0.49018 0.0969-0.74 0.1l-0.20608 0.049 6e-3 0.061c0.15205 0.0685 0.29084 0.16331 0.41 0.28 0.11 0.09 0.18 0.07 0.27-0.06s0 0 0-0.07c0.082-0.0935 0.2119-0.12889 0.33-0.09 0.1 0 0.09 0.13 0.11 0.21 0.01 0.0663 0.01 0.13371 0 0.2 0.0344 0.13181 0.10753 0.25026 0.21 0.34 0.2921 0.21637 0.50614 0.52164 0.61 0.87 0 0.06 0.06 0.12 0.08 0.19 0.18732 0.42741 0.34112 0.86874 0.46 1.32 0.11992 0.77874 0.11992 1.5713 0 2.35-0.0475 0.44153-0.15169 0.8751-0.31 1.29-0.0418 0.10231-0.0687 0.21007-0.08 0.32 0 0.21-0.1 0.24-0.26 0.25l-1.24 0.1c-0.27 0-0.37 0-0.39 0.35 0.0102 0.0393 0.0102 0.0806 0 0.12-0.0102 0.0668-0.0735 0.11203-0.14 0.1-0.1 0-0.22 0-0.28-0.15s-0.09-0.11-0.17-0.09c-0.14817 0.0212-0.29738-0.031-0.4-0.14-0.14344-0.15315-0.35199-0.22763-0.56-0.2 0 0-0.09 0-0.1 0.06-0.032 0.0374-0.032 0.0926 0 0.13l0.3 0.11s0.08 0.07 0 0.1 0 0.29 0.09 0.4c0.0778 0.0763 0.12118 0.18102 0.12 0.29 0.0196 0.33546 0.0597 0.66941 0.12 1 0.0177 0.19606 0.0829 0.38485 0.19 0.55 0.0908 0.1199 0.1493 0.26105 0.17 0.41 0.0216 0.10807 0.0587 0.21247 0.11 0.31 0.0363 0.0796 0.1299 0.11525 0.21 0.08 0.0697-0.0195 0.11301-0.0888 0.1-0.16v-0.29c-0.01-0.0663-0.01-0.13371 0-0.2-0.0201-0.0525 7e-3 -0.11123 0.06-0.13 0.0376-0.0196 0.0824-0.0196 0.12 0 0.20825 0.13868 0.40856 0.28891 0.6 0.45 0.3287 0.28827 0.47108 0.73465 0.37 1.16-0.10364 0.36196-0.16735 0.73418-0.19 1.11 0.0138 0.26943-0.15398 0.51492-0.41 0.6h-0.08c-0.13139 0.067-0.18825 0.22449-0.13 0.36 0.0293 0.0909 0.0894 0.1687 0.17 0.22 0.2 0.11 0.2 0.12 0.14 0.33-0.0658 0.14332-0.0244 0.31306 0.1 0.41 0.0795 0.071 0.12341 0.17351 0.12 0.28 0.0165 0.30392 0.0634 0.60542 0.14 0.9 0.0179 0.1092 0.0626 0.21227 0.13 0.3 0.12146 0.15238 0.17884 0.34605 0.16 0.54v1c0.01 0.12313 0.01 0.24687 0 0.37-0.12 0.83-0.26 1.67-0.37 2.5-0.0585 0.26967-0.092 0.54417-0.1 0.82 0 0.87 0 1.74 0.07 2.62-8e-3 0.0622 0.019 0.12364 0.07 0.16 0.13042-0.0906 0.24813-0.1982 0.35-0.32l1.84-1.86 4.45-4.53c1.59-1.61 3.17-3.24 4.76-4.85l3.32-3.37 5.16-5.23 7.08-7.17 2.87-2.89 3.64-3.69 0.23-0.24c0.0496-0.0536 0.0702-0.21026 0-0.19"/>
		<path data-name="Wyoming" data-abbreviation="WY" d="M354.3,143.8l-10.5-.8-32.1-3.3-16.2-2.1-28.3-4.1-19.9-3-1.4,11.2L242.1,166l-5.3,30.4-1.5,10.5-1.7,11.9,6.5.9,25.9,2.5,20.6,2.3,36.8,4.1,23.8,2.9,4.5-44.2,1.4-25.4,1.2-18.1Z"/>
		<path data-name="Wisconsin" data-abbreviation="WI" d="M612.9,197.2l.4-3-1.6-4.5-.6-6.1-1.1-2.4,1-3.1.8-2.9,1.5-2.6-.6-3.4-.6-3.6.5-1.8,1.9-2.4.2-2.7-.8-1.3.6-2.6.5-3.2,2.7-5.7,2.9-6.8.2-2.3-.3-1-.8.5-4.2,6.3-2.7,4-1.9,1.8-.8,2.3-1.5.8-1.1,1.9-1.5-.3-.2-1.8,1.3-2.4,2.1-4.7,1.8-1.6,1.1-2.3-1.6-.9-1.4-1.4-1.6-10.3-3.7-1.1-1.4-2.3-12.6-2.7-2.5-1.1-8.2-2.3-8.2-1.1-4.2-5.4-.5,1.3-1.1-.2-.6-1.1-2.7-.8-1.1.2-1.8,1-1-.6.6-1.9,1.9-3.1,1.1-1.1-1.9-1.5-2.1.8-2.9,1.9-7.4,3.2-2.9.6-2.9-.5-1-.9-2.1,2.8-.2,2.7V123l-1.1,1.6-5.3,3.9-2.3,5.9.5.2,2.5,2.1.7,3.2-1.8,3.2V147l.5,6.6,3,3h3.4l1.8,3.2,3.4.5,3.9,5.7,7.1,4.1,2.1,2.7.9,7.4.7,3.3,2.3,1.6.2,1.4-2.1,3.4.2,3.2,2.5,3.9,2.5,1.1,3,.5L568,200h9.2l26.1-1.5,9.6-1.3Z"/>
		<path data-name="West Virginia" data-abbreviation="WV" d="M756.6,242l1.1,4.9,1.1,6.9,3.6-2.7,2.3-3.1,2.5-.6,1.5-1.5,1.8-2.6,1.2.6,2.9-.3,2.6-2.1,2-1.5,1.8-.5,1.3,1,2.2,1.1,1.9,1.8,1.4,1.3-.1,4.7-5.7-3.1-4.5-1.8-.2,5.3-.5,2.1-1.6,2.7-.6,1.6-3.1,2.4-.5,2.3-3.4.3-.3,3.1-1.1,5.5h-2.6l-1.3-.8-1.6-2.7-1.8.2-.3,4.4-2.1,6.6-5,10.8.8,1.3-.2,2.7-2.1,1.9-1.5-.3-3.2,2.4-2.6-1-1.8,4.7s-3.7.8-4.4,1-2.4-1.3-2.4-1.3l-2.4,2.3-2.6.6-2.9-.8-1.3-1.3-2.2-3-3.1-2-2.6-2.7-2.9-3.7-.6-2.3-2.6-1.5-.8-1.6-.2-5.3,2.2-.1,1.9-.8.2-2.7,1.6-1.5.2-5,1-3.9,1.3-.6,1.3,1.1.5,1.8,1.8-1,.5-1.6-1.1-1.8v-2.4l1-1.3,2.3-3.4,1.3-1.5,2.1.5,2.3-1.6,3.1-3.4,2.3-3.9.3-5.7.5-5v-4.7l-1.1-3.1,1-1.5,1.3-1.3,3.5,19.8,4.6-.8,10.8-1Z"/>
		<path data-name="Washington" data-abbreviation="WA" d="M93.6,6.4,98,7.9l9.7,2.7,8.6,1.9,20,5.7,23,5.7,15.2,3.4-1,3.9L169.4,45l-4.5,20.8-3.2,16.1-.4,9.4-13.2-3.9L132.5,84l-13.7.6-1.6-1.5L111.9,85l-4-.3-2.7-1.8-1.6.5-4.2-.2-1.9-1.4-4.8-1.7-1.4-.2-5-1.3-1.8,1.5-5.7-.3L74,76l.2-.8.1-7.9-2.1-3.9-4.1-.7-.4-2.4-2.5-.6-2.9-.5-1.8,1-2.3-2.9.3-2.9,2.7-.3,1.6-4L60.2,49l.2-3.7,4.4-.6L62.1,42l-1.5-7.1.6-2.9V24.1l-1.8-3.2,2.3-9.4,2.1.5,2.4,2.9,2.7,2.6,3.2,1.9,4.5,2.1,3.1.6,2.9,1.5,3.4,1,2.3-.2V22l1.3-1.1,2.1-1.3.3,1.1.3,1.8L90,23l-.3,2.1,1.8,1.5L92.6,29l.6,1.9,1.5-.2.2-1.3-1-1.3-.5-3.2.8-1.8-.6-1.5V19l1.8-3.6-1.1-2.6L91.9,8l.3-.8Zm-9.5,5.9,2-.2.5,1.4,1.5-1.6h2.3l.8,1.5-1.5,1.7.6.8-.7,2-1.4.4s-.9.1-.9-.2a21.64,21.64,0,0,1,1.5-2.6l-1.7-.6-.3,1.5-.7.6-1.5-2.3Z"/>
		<path data-name="Vermont" data-abbreviation="VT" d="M844.3,153.7l-.8-5.7-2.4-10-.6-.3-2.9-1.3.8-2.9-.8-2.1-2.7-4.6,1-3.9-.8-5.2-2.4-6.5-.8-4.9,26.2-6.7.3,5.8,1.9,2.7v4l-3.7,4-2.6,1.1v1.1l1.1,1.8v8.6l-.8,9.2-.2,4.8,1,1.3-.2,4.5-.5,1.8.7,1.6-7,1.4Z"/>
		<path data-name="Utah" data-abbreviation="UT" d="M253,309.3l-24.6-3.5-26.6-4.9-33.8-6,1.6-9.2,3.2-15.2L176,254l2.2-13.6,1.9-8.9,3.8-20.5,3.5-17.5,1.1-5.6,12.7,2.3,12,2.1,10.3,1.8,8.3,1.4,3.7.5L234,206.6l-2.3,13.2,7.8.9,16.4,1.8,8.2.9-2.1,22L258.8,268,255,295.8l-1.7,11.1Z"/>
		<path data-name="Texas" data-abbreviation="TX" d="M357.1,333.4l22.7,1.1,31.1,1.1-2.3,23.5-.3,18.2.1,2.1,4.3,3.8,1.7.8,1.8.3.7-1.3.9.9,1.7.5,1.6-.7,1.1.4-.3,3.4,4.3,1,2.7.8,4,.5,2.2,1.8,3.2-1.6,2.8.4,2,2.8,1.1.3-.2,2,3.1,1.2,2.8-1.8,1.5.4,2.4.2.4,1.9,4.6,2,2.7-.2,2-4.1h.3l1.1,1.9,4.4,1,3.3,1.2,3.3.8,2.1-.8.8-2.5h3.7l1.9.8,3.1-1.6h.7l.4,1.1h4.3l2.4-1.3,1.7.3,1.4,1.9,2.9,1.7,3.5,1.1,2.7,1.4,2.4,1.6,3.3-.9,1.9,1,.5,10.1.3,9.7.7,9.5.5,4,2.7,4.6,1.1,4.1,3.9,6.3.5,2.9.5,1-.7,7.5-2.7,4.4,1,2.9-.4,2.5-.8,7.3-1.4,2.7.6,4.4-5.7,1.6-9.9,4.5-1,1.9-2.6,1.9-2.1,1.5-1.3.8-5.7,5.3-2.7,2.1-5.3,3.2-5.7,2.4-6.3,3.4-1.8,1.5-5.8,3.6-3.4.6-3.9,5.5-4,.3-1,1.9,2.3,1.9-1.5,5.5-1.3,4.5-1.1,3.9-.8,4.5.8,2.4,1.8,7,1,6.1,1.8,2.7-1,1.5-3.1,1.9-5.7-3.9-5.5-1.1-1.3.5-3.2-.6-4.2-3.1-5.2-1.1-7.6-3.4-2.1-3.9-1.3-6.5-3.2-1.9-.6-2.3.6-.6.3-3.4-1.3-.6-.6-1,1.3-4.4-1.6-2.3-3.2-1.3-3.4-4.4-3.6-6.6-4.2-2.6.2-1.9-5.3-12.3-.8-4.2-1.8-1.9-.2-1.5-6-5.3-2.6-3.1v-1.1l-2.6-2.1-6.8-1.1-7.4-.6-3.1-2.3-4.5,1.8L352,483l-2.3,3.2-1,3.7-4.4,6.1-2.4,2.4-2.6-1-1.8-1.1-1.9-.6-3.9-2.3v-.6l-1.8-1.9-5.2-2.1-7.4-7.8-2.3-4.7v-8.1l-3.2-6.5-.5-2.7-1.6-1-1.1-2.1-5-2.1-1.3-1.6-7.1-7.9-1.3-3.2-4.7-2.3-1.5-4.4-2.6-2.9-1.9-.5-.6-4.7,8,.7,29,2.7,29,1.6,2.3-23.8,3.9-55.6,1.6-18.7h1.4m99.4,234.1-.6-7.1-2.7-7.2-.6-7,1.5-8.2,3.3-6.9,3.5-5.4,3.2-3.6.6.2-4.8,6.6-4.4,6.5-2,6.6-.3,5.2.9,6.1,2.6,7.2.5,5.2.2,1.5-.9.3Z"/>
		<path data-name="Tennessee" data-abbreviation="TN" d="M697.1,320.6l-51.9,5-15.8,1.8-4.6.5h-3.9v3.9l-8.4.5-7,.6-11.1.1-.3,5.8-2.1,6.3-1,3-1.3,4.4-.3,2.6-4,2.3,1.5,3.6-1,4.4-1,.8,7.3-.2,24.1-1.9,5.3-.2,8.1-.5,27.8-2.6,10.2-.8,8.4-1,8.4-1.1,4.8-.8-.1-4.5,1.8-1.5,2.7-.6.6-3.7,4.2-2.7,3.9-1.5,4.2-3.6,4.4-2.1.9-3.5,4.3-3.9.6-.2s0,1.1.8,1.1a8.75,8.75,0,0,1,1.9.3l2.3-3.6,2.1-.6,2.3.3,1.6-3.6,2.1-2.2.6-1,.2-3.9-1.5-.3-2.4,1.9-7.9.2-12,1.9-9.8.8Z"/>
		<path data-name="South Carolina" data-abbreviation="SC" d="M761.2,412.9l-1.8,1-2.6-1.3-.6-2.1-1.3-3.6-2.3-2.1-2.6-.6-1.6-4.8-2.7-6-4.2-1.9-2.1-1.9-1.3-2.6-2.1-2-2.3-1.3-2.3-2.9-3.1-2.3-4.5-1.8-.5-1.5-2.4-2.9-.5-1.5-3.4-5.2-3.4.2-4-2.4-1.3-1.3-.3-1.8.8-1.9,2.3-1-.3-2.1,6.1-2.6,9.1-4.5,7.3-.8,16.5-.5,2.3,1.9,1.6,3.2,4.4-.5,12.6-1.5,2.9.8,12.6,7.6,10.1,8.1-5.4,5.5-2.6,6.1-.5,6.3-1.6.8-1.1,2.7-2.4.6-2.1,3.6-2.7,2.7-2.3,3.4-1.6.8-3.6,3.4-2.9.2,1,3.2-5,5.5-2.3,1.6Z"/>
		<path data-name="Rhode Island" data-abbreviation="RI" d="M874.1,179.8l-.5-4.2-.8-4.4-1.7-5.9,5.7-1.5,1.6,1.1,3.4,4.4,2.9,4.4-2.9,1.5-1.3-.2-1.1,1.8-2.4,1.9-2.9,1.1Z"/>
		<path data-name="Pennsylvania" data-abbreviation="PA" d="M822.2,226.5l1.1-.6,2.3-.6,1.5-2.7,1.6-2.3,3.2-3.1v-.8l-2.4-1.6-3.6-2.4-1-2.6-2.7-.3-.2-1.1-.8-2.7,2.3-1.1.2-2.4-1.3-1.3.2-1.6,1.9-3.1v-3.1l2.3-2.4.2-1.1-2.6-.2-2.3-1.9-2.4-5.3-3-.9-2.3-2.1-18.6,4-43,8.7-8.9,1.5-.5-7.1-5.5,5.6-1.3.5-4.2,3,2.9,19.1,2.5,9.7,3.6,19.3,3.3-.6,11.9-1.5,37.9-7.7,14.9-2.8,8.3-1.6.3-.2,2.1-1.6,2.1-1Z"/>
		<path data-name="Oregon" data-abbreviation="OR" d="M140.3,176.7l4.3-17.9,4.7-17.9,1.1-4.2,2.4-5.6-.6-1.2h-2.5l-1.3-1.7.5-1.5.5-3.2,4.5-5.5,1.8-1.1,1.1-1.1,1.5-3.6,4-5.7,3.6-3.9.2-3.5-3.3-2.5-1.2-4.5-13.2-3.7-15.1-3.5-15.4.1-.5-1.4-5.5,2.1-4.5-.6L105,83.5l-1.3.7L99,84l-1.7-1.4L92,80.5l-.8.1-4.3-1.5L85,80.9l-6.2-.3-5.9-4.1.7-.8.2-7.8L71.5,64l-4.1-.6-.7-2.5-2.4-.5-5.8,2.1L56.2,69,53,79l-3.2,6.5-5,14.1-6.5,13.6-8.1,12.6-1.9,2.9-.8,8.6-1.3,6,2.7,3.5,6.7,2.3,11.6,3.3,7.9,2.5,12.4,3.6,13.3,3.6L94,165.7"/>
		<path data-name="Oklahoma" data-abbreviation="OK" d="M375.3,322.6l-10.7-.5-6.4-.5.3.2-.7,10.4,22,1.4,32.1,1.3-2.3,24.4-.5,17.8.2,1.6,4.3,3.7,2.1,1.1.7-.2.7-2.1,1.4,1.8h2.1v-1.4l2.7,1.4-.5,3.9,4.1.2,2.5,1.1,4.1.7,2.5,1.8,2.3-2.1,3.4.7,2.5,3.4h.9V395l2.3.7,2.3-2.3,1.8.7H454l.9,2.5,4.8,1.8,1.4-.7,1.8-4.1H464l1.1,2.1,4.1.7,3.7,1.4,3,.9,1.8-.9.7-2.5h4.3l2.1.9,2.7-2.1h1.1l.7,1.6h4.1l1.6-2.1,1.8.5,2.1,2.5,3.2,1.8,3.2.9,1.9,1.1-.4-37.2-1.4-11-.2-8.9-1.4-6.5-.8-7.2-.1-3.8-12.1.3-46.4-.5-45-2.1-24.1-.9Z"/>
		<path data-name="Ohio" data-abbreviation="OH" d="M731.4,195l-6.1,4.1-3.9,2.3-3.4,3.7-4,3.9-3.2.8-2.9.5-5.5,2.6-2.1.2-3.4-3.1-5.2.6-2.6-1.5-2.4-1.4-4.9.7L671.6,210l-7.8,1.2,1.3,14.6,1.8,13.7,2.6,23.4.6,4.8,4.1-.1,2.4-.8,3.4,1.5,2.1,4.4h5.1l1.9,2.1,1.8-.1,2.5-1.3,2.5.4,2,1.5,1.7-2.1,2.3-1.3,2.1-.7.6,2.7,1.8,1,3.5,2.3,2.2-.1,1.1-1.1-.1-1.4,1.6-1.5.2-5,1-3.9,1.5-1.4,1.5.9.8,1.2,1.2-.2-.4-2.4-.6-.6v-2.4l1-1.3,2.3-3.4,1.3-1.5,2.1.5,2.3-1.6,3.1-3.4,2.3-3.9.2-5.4.5-5v-4.7l-1.1-3.1,1-1.5.9-1-1.4-9.8-3-19.2Z"/>
		<path data-name="North Dakota" data-abbreviation="ND" d="M471.3,127.7l-.4-7.5-2-7.3-1.8-13.6-.5-9.8-2-3.1L463,81V70.7l.7-3.9-2.1-5.5-28.4-.6-18.6-.6-26.5-1.3-24.9-1.9-1.3,14.2-1.4,15.1-2.3,24.9-.5,11,56.8,3.8,56.8,1.8Z"/>
		<path data-name="North Carolina" data-abbreviation="NC" d="M832.1,298.5l1.7,4.7,3.6,6.5,2.4,2.4.6,2.3-2.4.2.8.6-.3,4.2-2.6,1.3-.6,2.1-1.3,2.9-3.7,1.6-2.4-.3-1.5-.2-1.6-1.3.3,1.3v1H827l.8,1.3-1.9,6.3h4.2l.6,1.6,2.3-2.3,1.3-.5-1.9,3.6-3.1,4.8H828l-1.1-.5-2.7.6-5.2,2.4-6.5,5.3-3.4,4.7-1.9,6.5-.5,2.4-4.7.5-5.5,1.3-9.9-8.2L774,350l-2.9-.8-12.6,1.5-4.3.8-1.6-3.2-3-2.1-16.5.5-7.3.8-9.1,4.5-6.1,2.6-1.6.3-5.8,1-7,.8-6.8.5.5-4.1,1.8-1.5,2.7-.6.6-3.7,4.2-2.7,3.9-1.5,4.2-3.6,4.4-2.1.6-3.1,3.9-3.9.6-.2s0,1.1.8,1.1a8.75,8.75,0,0,1,1.9.3l2.3-3.6,2.1-.6,2.3.3,1.6-3.6,2.9-2.6.5-2.1v-4l4.5.7,7.1-1.3,15.8-1.9,17.1-2.6,19.9-4,19.7-4.2,11.4-2.8,5.4-.8Zm3.9,33,2.6-2.5,3.2-2.6,1.5-.6.2-2-.6-6.1-1.5-2.3-.6-1.9.7-.2,2.7,5.5.4,4.4-.2,3.4-3.4,1.5-2.8,2.4-1.1,1.2-1.1-.2Z"/>
		<path data-name="Virginia" data-abbreviation="VA" d="M828.9,269.2l-.1-1.9,6.5-2.5-.8,3.2-2.9,3.8-.4,4.6.5,3.4-1.8,5-2.2,1.9-1.5-4.6.4-5.4,1.6-4.2Zm2.3,28.3L773,310.1l-37.4,5.3-6.7-.4-2.6,1.9-7.3.2-8.4,1-8.9,1,8.5-4.9v-2.1l1.5-2.1,10.6-11.5,3.9,4.5,3.8,1,2.5-1.1,2.2-1.3,2.5,1.3,3.9-1.4,1.9-4.6,2.6.5,2.9-2.1,1.8.5,2.8-3.7.3-2.1-1-1.3,1-1.9,5.3-12.3.6-5.7,1.2-.5,2.2,2.4,3.9-.3,1.9-7.6,2.8-.6,1-2.7,2.6-2.3,1.3-2.3,1.5-3.4.1-5.1,9.8,3.8c.7.3.7-4.8.7-4.8l4.1,1.4-.5,2.6,8.2,2.9,1.3,1.8-.9,3.7-1.3,1.3-.5,1.7.5,2.4,2,1.3,3.9,1.4,2.9,1,4.9.9,2.2,2.1,3.2.4.9,1.2-.4,4.7,1.4,1.1-.5,1.9,1.2.8-.2,1.4-2.7-.1.1,1.6,2.3,1.5.1,1.4,1.8,1.8.5,2.5-2.6,1.4,1.6,1.5,5.8-1.7,3.6,6.2Z"/>
		<path data-name="New York" data-abbreviation="NY" d="M828.6,189.4l-1.1-1-2.6-.2-2.3-1.9-1.6-6.1-3.5.1-2.4-2.7L795.7,182l-43,8.7-7.5,1.2-.7-6.5,1.4-1.1,1.3-1.1,1-1.6,1.8-1.1,1.9-1.8.5-1.6,2.1-2.7,1.1-1-.2-1-1.3-3.1-1.8-.2-1.9-6.1,2.9-1.8,4.4-1.5,4-1.3,3.2-.5,6.3-.2,1.9,1.3,1.6.2,2.1-1.3,2.6-1.1,5.2-.5,2.1-1.8,1.8-3.2,1.6-1.9h2.1l1.9-1.1.2-2.3-1.5-2.1-.3-1.5,1.1-2.1v-1.5h-1.8L790,138l-.8-1.1-.2-2.6,5.8-5.5.6-.8,1.5-2.9,2.9-4.5,2.7-3.7,2.1-2.4,2.4-1.8,3.1-1.2,5.5-1.3,3.2.2,4.5-1.5,7.6-2.1.5,5,2.4,6.5.8,5.2-1,3.9,2.6,4.5.8,2.1-.8,2.9,2.9,1.3.6.3,3.1,11-.5,5.1-.5,10.8.8,5.5.8,3.6,1.5,7.3v8.1l-1.1,2.3,1.8,2,.8,1.7-1.9,1.8.3,1.3,1.3-.3,1.5-1.3,2.3-2.6,1.1-.6,1.6.6,2.3.2,7.9-3.9,2.9-2.7,1.3-1.5,4.2,1.6-3.4,3.6-3.9,2.9-7.1,5.3-2.6,1-5.8,1.9-4,1.1-1.2-.5-.2-3.7.5-2.7-.2-2.1-2.8-1.7-4.5-1-3.9-1.1-3.5-2.1Z"/>
		<path data-name="New Mexico" data-abbreviation="NM" d="M282.7,431l-.7-6.1,8.6.5,29.5,3.1,28.4,1.4,2-22.3,3.7-55.9,1.1-19.4,2,.3V321.5l-32.2-2.4-36.9-4.4-34.5-4.1-4.2,30.8-7,53.2-3.8,26.9-2,13.3,15.5,2,1.3-10,16.7,2.6Z"/>
		<path data-name="New Jersey" data-abbreviation="NJ" d="M828.2,190.3l-2.1,2.4v3.1l-1.9,3.1-.2,1.6,1.3,1.3-.2,2.4-2.3,1.1.8,2.7.2,1.1,2.7.3,1,2.6,3.6,2.4,2.4,1.6v.8l-3.2,3.1-1.6,2.3-1.5,2.7-2.3,1.3-1.2.7-.2,1.2-.6,2.6,1.1,2.2,3.2,2.9,4.8,2.3,4,.6.2,1.5-.8,1,.3,2.7h.8l2.1-2.4.8-4.8,2.7-4,3.1-6.5,1.1-5.5-.6-1.1-.2-9.4-1.6-3.4-1.1.8-2.7.3-.5-.5,1.1-1,2.1-1.9.1-1.1-.4-3.4.5-2.7-.2-2.1-2.6-1.1-4.5-1-3.9-1.1-3.6-1.7Z"/>
		<path data-name="New Hampshire" data-abbreviation="NH" d="M880.8,142.4l.9-1.1,1.1-3.3-2.5-.9-.5-3.1-3.9-1.1-.3-2.7-7.3-23.4-4.6-14.5h-.9l-.6,1.6-.6-.5-1-1-1.5,1.9v5l.3,5.7,1.9,2.7v4l-3.7,5.1-2.6,1.1V119l1.1,1.8v8.6l-.8,9.2-.2,4.8,1,1.3-.2,4.5-.5,1.8,1.5.9,16.4-4.7,2.3-.6,1.5-2.6,3.7-1.6Z"/>
		<path data-name="Nevada" data-abbreviation="NV" d="M140.7,177.6l21,4.5,9.7,1.9,9.3,1.8,6.6,1.6-.6,5.9-3.5,17.3-4.1,20-1.9,9.7L175,253.6,171.8,270l-3.5,15.7-2,10.2-2.5,16.8-.5,1.1-1.1,2.5-1.9-.1-1.1-2.7-2.7-.5-1.4-1-2,.3-.9.7-1.3,1.3-.4,7L150,323l-.4,12.1-1.3,1.7-1.9-2.3-14.5-22.7-19.4-29L89.6,249,77.2,230.4l1.6-6.6,7-25.9,7.9-31.3,33.6,8.1,13.7,3"/>
		<path data-name="Nebraska" data-abbreviation="NE" d="M484.2,247l1.4,2.7.1,2.1,2.4,3.7,2.7,3.2h-5l-43.5-.9-40.8-.9-21.2-1,1.1-21.3L348,231.9l4.3-44,15.5,1L388,190l17.8,1.1,23.8,1.1,10.7-.5,2.1,2.3,4.8,3,1.1.9,4.3-1.4,3.9-.5,2.7-.2,1.8,1.4,5,1.6,3,1.6.5,1.6.9,2.1H473l1,5.2,2.7,8,1.2,4.6,2.1,3.8.5,4.9,1.4,4.3.5,6.5"/>
		<path data-name="Montana" data-abbreviation="MT" d="M356.7,122.3l.6-11.2,2.3-24.8c.5-5,1.1-8.5,1.4-15.4l.9-14.6-30.7-2.8L302,50l-29.3-4-32.3-5.3L222,37.3l-32.7-6.9-4.5,21.3,3.4,7.5-1.4,4.6,1.8,4.6,3.2,1.4,4.6,10.8,2.7,3.2.5,1.1L203,86l.5,2.1-7.1,17.6v2.5l2.5,3.2h.9l4.8-3,.7-1.1,1.6.7-.2,5.3,2.7,12.6,3,2.5.9.7,1.8,2.3-.5,3.4.7,3.4,1.1.9,2.3-2.3h2.7l3.2,1.6,2.5-.9h4.1l3.7,1.6,2.7-.5.5-3,3-.7,1.4,1.4.5,3.2,1.8,1.4,1.5-11.6,20.7,3,28.2,4,16.6,1.9,31.4,3.5,11,1.5,1.1-15.4,1.4-5.5Z"/>
		<path data-name="Missouri" data-abbreviation="MO" d="M555.8,249.5l-2.5-3.1-1.1-2.3-7.8.7-9.8.5-25.4.9-13.5.2-7.9.1-2.3.1,1.3,2.5-.2,2.3,2.5,3.9,3.1,4.1,3.1,2.7,2.3.2,1.4.9v3l-1.8,1.6-.5,2.3,2.1,3.4,2.5,3,2.5,1.8,1.4,11.7-.7,35.3.2,4.7.5,5.4,23.4-.1,23.2-.7,20.8-.8,11.7-.2,2.2,3.4-.7,3.3-3.1,2.4-.6,1.8,5.4.5,3.9-.7,1.7-5.5.7-5.9,2.3-2,1.7-1.5,2.1-1,.1-2.9.6-1.7-1-1.7-2.7.1-2.2-2.6-1.4-4.2.8-2.5-1.9-3.4-1.8-4.6-4.8-.8-7-5.6-1.7-4.1.8-3.2,2.1-6.1.5-2.9-1.9-1-6.9-.8-1-1.7-.1-4.2-5.5-3.4-7-7.8-2.3-7.3-.2-4.2.4-2.3Z"/>
		<path data-name="Mississippi" data-abbreviation="MS" d="M624.6,467l-.3,1.3h-5.2l-1.5-.8-2.1-.3-6.8,1.9-1.8-.8-2.6,4.2-1.1.8-1.1-2.5-1.1-3.9-3.4-3.2,1.1-7.5-.7-.9-1.8.2-8.2.7-24.2.7-.5-1.6.7-8,3.4-6.2,5.3-9.1-.9-2.1h1.1l.7-3.2-2.3-1.8.2-1.8-2.1-4.6-.3-5.3,1.4-2.7-.4-4.3-1.4-3,1.4-1.4-1.4-2.1.5-1.8.9-6.2,3-2.7-.7-2.1,3.7-5.3,2.7-.9v-2.5l-.7-1.4,2.7-5.3,2.7-1.1.1-3.4,8.7-.1,24.1-1.9,4.6-.2v6.4l.2,16.7-.8,31-.2,14.1,2.7,18.8,1.7,15.2Z"/>
		<path data-name="Minnesota" data-abbreviation="MN" d="M471.9,128.5l-.5-8.5-1.8-7.3-1.8-13.5-.5-9.8L465.5,86l-1.6-5V70.7l.7-3.9-1.8-5.5h30.1l.3-8.2.6-.2,2.3.5,1.9.8.8,5.5,1.5,6.1,1.6,1.6h4.8l.3,1.5,6.3.3v2.1h4.8l.3-1.3,1.1-1.1,2.3-.6,1.3,1H526l3.9,2.6,5.3,2.4,2.4.5.5-1,1.5-.5.5,2.9,2.6,1.3.5-.5,1.3.2v2.1l2.6,1h3.1l1.6-.8,3.2-3.2,2.6-.5.8,1.8.5,1.3h1l1-.8,8.9-.3,1.8,3.1h.6l.7-1.1,4.4-.4-.6,2.3-3.9,1.8-9.2,4.1-4.8,2-3.1,2.6-2.4,3.6L551,99.7l-1.8.8-4.5,5-1.3.2-3.8,2.9-2.8,3.2-.2,3,.2,7.8-1.6,1.6L530,128l-1.8,5.7,2.5,3.6.5,2.5-1.1,3-.2,3.7.5,7.1,3.4,4.1h3l2.5,2.3,3.2,1.4,3.7,5,7.1,5,1.8,2.1.2,5.5-20.6.7-60.2.5-.3-35.7-.5-3-4.1-3.4-1.1-1.8v-1.6l2.1-1.6,1.4-1.4-.1-3.2Z"/>
		<path data-name="Michigan" data-abbreviation="MI" d="M581.6,82.1l1.8-2.1,2.2-.8,5.4-3.9,2.3-.6.5.5-5.1,5.1-3.3,1.9-2.1.9-1.7-1Zm86.2,32.1.6,2.5,3.2.2,1.3-1.2s-.1-1.5-.4-1.6a19.37,19.37,0,0,1-1.6-1.9l-2.2.2-1.6.2-.3,1.1Zm30.1,63-3.2-8.2-2.3-9.1-2.4-3.2-2.6-1.8-1.6,1.1-3.9,1.8-1.9,5-2.7,3.7-1.1.6-1.5-.6s-2.6-1.5-2.4-2.1.5-5,.5-5l3.4-1.3.8-3.4.6-2.6,2.4-1.6-.3-10-1.6-2.3-1.3-.8-.8-2.1.8-.8,1.6.3.2-1.6L676,131l-1.3-2.6h-2.6l-4.5-1.5-5.5-3.4h-2.7l-.6.6-1-.5-3.1-2.3-2.9,1.8-2.9,2.3.3,3.6,1,.3,2.1.5.5.8-2.6.8-2.6.3-1.5,1.8-.3,2.1.3,1.6.3,5.5-3.6,2.1-.6-.2v-4.2l1.3-2.4.6-2.4-.8-.8-1.9.8-1,4.2-2.7,1.1-1.8,1.9-.2,1,.6.8-.6,2.6-2.3.5v1.1l.8,2.4-1.1,6.1-1.6,4,.6,4.7.5,1.1-.8,2.4-.3.8-.3,2.7,3.6,6,2.9,6.5,1.5,4.8-.8,4.7-1,6-2.4,5.2-.3,2.7-3.3,3.1,4.4-.2,21.4-2.3,7.3-1,.1,1.7,6.9-1.2,10.3-1.5,3.9-.5.1-.6.2-1.5,2.1-3.7,2-1.7-.2-5.1,1.6-1.6,1.1-.3.2-3.6,1.5-3,1.1.6.2.6.8.2,1.9-1-.4-9.1Zm-130.4-66,.7-.6,2.7-.8,3.6-2.3v-1l.6-.6,6-1,2.4-1.9,4.4-2.1.2-1.3,1.9-2.9,1.8-.8,1.3-1.8,2.3-2.3,4.4-2.4,4.7-.5,1.1,1.1-.3,1-3.7,1-1.5,3.1-2.3.8-.5,2.4-2.4,3.2-.3,2.6.8.5,1-1.1,3.6-2.9,1.3,1.3h2.3l3.2,1,1.5,1.1,1.5,3.1,2.7,2.7,3.9-.2,1.5-1,1.6,1.3,1.6.5,1.3-.8h1.1l1.6-1,4-3.6,3.4-1.1,6.6-.3,4.5-1.9,2.6-1.3,1.5.2v5.7l.5.3,2.9.8,1.9-.5,6.1-1.6,1.1-1.1,1.5.5v7l3.2,3.1,1.3.6,1.3,1-1.3.3-.8-.3-3.7-.5-2.1.6-2.3-.2-3.2,1.5h-1.8l-5.8-1.3-5.2.2-1.9,2.6-7,.6-2.4.8-1.1,3.1-1.3,1.1-.5-.2-1.5-1.6-4.5,2.4h-.6l-1.1-1.6-.8.2-1.9,4.4-1,4-3.2,7-1.2-1-1.4-1L608,127.2l-3.5-1.4-2.1-2.3-12.1-2.7-2.9-1-8.2-2.2-7.9-1.1Z"/>
		<path data-name="Massachusetts" data-abbreviation="MA" d="M900,173.9l2.2-.7.5-1.7,1,.1,1,2.3-1.3.5-3.9.1.5-.6Zm-9.4.8,2.3-2.6h1.6l1.8,1.5-2.4,1-2.2,1-1.1-.9Zm-34.8-22,17.5-4.2,2.3-.6,2.1-3.2,3.7-1.7,2.9,4.4-2.4,5.2-.3,1.5,1.9,2.6,1.1-.8h1.8l2.3,2.6,3.9,6,3.6.5,2.3-1,1.8-1.8-.8-2.7-2.1-1.6-1.5.8-1-1.3.5-.5,2.1-.2,1.8.8,1.9,2.4,1,2.9.3,2.4-4.2,1.5-3.9,1.9-3.9,4.5-1.9,1.5v-1l2.4-1.5.5-1.8-.8-3.1-2.9,1.5-.8,1.5.5,2.3-2.1,1-2.7-4.5-3.4-4.4-2.1-1.8-6.5,1.9-5.1,1.1-21.8,4.8-.4-4.9.6-10.6,5.2-.9,6.6-1.5Z"/>
		<path data-name="Maryland" data-abbreviation="MD" d="M837,255.3l-6.1,1.3-5.8.2-1.8-7.1-2.1-9.7-2.3-5.7-1.3-4.4-7.5,1.6-14.9,2.8-37.5,7.6,1.1,5,1,5.7.3-.3,2.1-2.4,2.3-2.6,2.4-.6,1.5-1.5,1.8-2.6,1.3.6,2.9-.3,2.6-2.1,2-1.5,1.8-.5,1.6,1.1,2.9,1.5,1.9,1.8,1.2,1.5,4.1,1.7v2.9l5.5,1.3,1.1.5,1.4-2,2.9,2-1.3,2.5-.8,4-1.8,2.6v2.1l.6,1.8,5.1,1.4,4.3-.1,3.1,1,2.1.3,1-2.1-1.5-2.1v-1.8l-2.4-2.1-2.1-5.5,1.3-5.3-.2-2.1-1.3-1.3s1.5-1.6,1.5-2.3a10.71,10.71,0,0,1,.5-2.1l1.9-1.3,1.9-1.6.5,1-1.5,1.6-1.3,3.7.3,1.1,1.8.3.5,5.5-2.1,1,.3,3.6.5-.2,1.1-1.9,1.6,1.8-1.6,1.3-.3,3.4,2.6,3.4,3.9.5,1.6-.8,3.2,4.2,1.4.5,6.7-2.8,2-4Zm-16.7,9,1.1,2.5.2,1.8,1.1,1.9s.9-.9.9-1.2-.7-3.1-.7-3.1l-.7-2.3-1.9.4Z"/>
		<path data-name="Maine" data-abbreviation="ME" d="M923.2,77.3l1.9,2.1,2.3,3.7V85l-2.1,4.7-1.9.6L920,93.4l-4.8,5.5h-1.3c-.6,0-1-2.1-1-2.1l-1.8.2-1,1.5-2.4,1.5-1,1.5,1.6,1.5-.5.6-.5,2.7-1.9-.2v-1.6l-.3-1.3-1.5.3-1.8-3.2-2.1,1.3,1.3,1.5.3,1.1-.8,1.3.3,3.1.2,1.6-1.6,2.6-2.9.5-.3,2.9-5.3,3.1-1.3.5-1.6-1.5-3.1,3.6,1,3.2-1.5,1.3-.2,4.4-1.1,6.3-2.5-1.2-.5-3.1-3.9-1.1-.3-2.7-7.3-23.4L864.4,92l1.4-.1,1.5.4V89.7l.8-5.5,2.6-4.7,1.5-4-1.9-2.4v-6l.8-1,.8-2.7-.2-1.5-.2-4.8,1.8-4.8,2.9-8.9,2.1-4.2h1.3l1.3.2v1.1l1.3,2.3,2.7.6.8-.8v-1l4-2.9,1.8-1.8,1.5.2,6,2.4,1.9,1L910,70.4h6l.8,1.9.2,4.8,2.9,2.3h.8l.2-.5-.5-1.1Zm-20.9,30.2,1.5-1.5,1.4,1.1.6,2.4-1.7.9Zm6.7-5.9,1.8,1.9s1.3.1,1.3-.2.2-2,.2-2l.9-.8-.8-1.8-2,.7Z"/>
		<path data-name="Louisiana" data-abbreviation="LA" d="M602.2,473l-1-2.6-1.1-3.1-3.3-3.5.9-6.8-.1-1.1-1.3.3-8.2.9-25,.5-.7-2.4.9-8.5,3.3-5.9,5-8.7-.6-2.4,1.3-.7.5-2-2.3-2.1-.1-1.9-1.8-4.3-.5-5.9-9.7.1-19.2.9H517v9.6l.7,9.4.7,3.9,2.5,4.1.9,5,4.3,5.5.2,3.2.7.7-.7,8.5-3,5,1.6,2.1-.7,2.5-.7,7.3-1.4,3.2.1,3.6,4.7-1.5,8.1-.3,10.3,3.6,6.5,1.1,3.7-1.5,3.2,1.1,3.2,1,.8-2.1-3.2-1.1-2.6.5-2.7-1.6s.2-1.3.8-1.5l3.1-1,1.8,1.5,1.8-1,3.2.6,1.5,2.4.3,2.3,4.5.3L573,492l-.8,1.6-1.3.8,1.6,1.6,8.4,3.6,3.6-1.3,1-2.4,2.6-.6,1.8-1.5,1.3,1,.8,2.9-2.3.8.6.6,3.4-1.3,2.3-3.4.8-.5-2.1-.3.8-1.6-.2-1.5,2.1-.5,1.1-1.3.6.8s-.2,3.1.6,3.1,4.2.6,4.2.6l4,1.9,1,1.5h2.9l1.1,1,2.3-3.1V493h-1.3l-3.4-2.7-5.8-.8-3.2-2.3,1.1-2.7,2.3.3.2-.6-1.8-1v-.5h3.2l1.8-3.1-1.3-1.9-.3-2.7-1.5.2-1.9,2.1-.6,2.6-3.1-.6-1-1.8,1.8-1.9,2-1.8-.2-.8Z"/>
		<path data-name="Kentucky" data-abbreviation="KY" d="M721.8,297.8l-2.3,2.7-4.2,3.6L711,310l-1.8,1.8v2.1l-3.9,2.1-5.7,3.4-3.5.4-51.9,4.9-15.8,1.8-4.6.5h-3.9l-.2,4.2-8.2.1-7,.6-10.4.2,1.9-.2,2.2-1.8,2.1-1.1.2-3.2.9-1.8-1.6-2.5.8-1.9,2.3-1.8,2.1-.6,2.7,1.3,3.6,1.3,1.1-.3.2-2.3-1.3-2.4.3-2.3,1.9-1.5,2.6-.6,1.6-.6-.8-1.8-.6-1.9,1.1-.8,1.1-3.3,3-1.7,5.8-1,3.6-.5,1.5,1.9,1.8.8,1.8-3.2,2.9-1.5,1.9,1.6.8,1.1,2.1-.5-.2-3.4,2.9-1.6,1.1-.8,1.1,1.6h4.7l.8-2.1-.3-2.3,2.9-3.6,4.7-3.9.5-4.5,2.7-.3,3.9-1.8,2.7-1.9-.3-1.9-1.5-1.5.6-2.2,4.1-.2,2.4-.8,2.9,1.6,1.6,4.4,5.8.3,1.8,1.8,2.1.2,2.4-1.5,3.1.5,1.3,1.5,2.7-2.6,1.8-1.3h1.6l.6,2.7,1.8,1,2.4,2.2.2,5.5.8,1.6,2.6,1.5.6,2.3,2.9,3.7,2.6,2.7,3.7,1.9Z"/>
		<path data-name="Kansas" data-abbreviation="KS" d="M503.4,325.1l-12.6.2-46.1-.5-44.6-2.1-24.6-1.3,4.1-64.7,21.8.8,40.5,1.4,44.1.5h5.1l3.2,3.2,2.8.2.9,1.1v2l-1.8,1.6-.5,2.6,2.2,3.6,2.5,3.1,2.5,2L504,290Z"/>
		<path data-name="Iowa" data-abbreviation="IA" d="M566.6,201.6l.2,1.9,2.3,1.1,1.1,1.3.3,1.3,3.9,3.2.7,2.2-.8,2.9-1.5,3.5-.8,2.7-2.2,1.6-1.7.6-5.5,1.5-.7,2.3-.8,2.3.6,1.4,1.7,1.7v3.7l-2.2,1.6-.5,1.5v2.5l-1.5.5-1.7,1.4-.5,1.5.5,1.7-1.4,1.2-2.3-2.7-1.5-2.6-8.3.8-10.2.6-25,.7-13,.2-9.4.2-1.3.1-1.7-4.5-.2-6.6-1.6-4.1-.7-5.3-2.3-3.7-.9-4.8-2.7-7.5-1.1-5.4-1.4-2.2-1.6-2.7,1.8-4.3,1.4-5.7-2.7-2.1-.5-2.7.9-2.5H485l49.6-.7,19.9-.7,1.9,2.7,1.8,2.6.5.8-1.8,2.7.5,4.2,2.5,3.9,3,1.8,2.4.2,1.3,2.2Z"/>
		<path data-name="Indiana" data-abbreviation="IN" d="M618.4,300.9l.1-2.9.5-4.5,2.3-2.9,1.8-3.9,2.6-4.2-.5-5.8-1.8-2.7-.3-3.2.8-5.5-.5-7-1.3-16-1.3-15.4-1-11.7,3.1.9,1.5,1,1.1-.3,2.1-1.9,2.8-1.6,5.1-.2,22-2.3,5.6-.5,1.5,16,4.3,36.8.6,5.8L669,271l1.2,1.8.1,1.4-2.5,1.6-3.5,1.6-3.2.6-.6,4.9-4.6,3.3-2.8,4,.3,2.4-.6,1.5h-3.3l-1.6-1.6-2.5,1.3-2.7,1.5.2,3.1-1.2.3-.5-1-2.2-1.5-3.3,1.3-1.6,3-1.4-.8-1.5-1.6-4.5.5-5.6,1-2.7,1.3Z"/>
		<path data-name="Illinois" data-abbreviation="IL" d="M617.8,301.6V298l.3-4.9,2.4-3.1,1.8-3.8,2.6-3.9-.4-5.3-2-3.5-.1-3.3.7-5.3-.8-7.2-1.1-15.8-1.3-15-.9-11.6-.3-.9-.8-2.6-1.3-3.7-1.6-1.8-1.5-2.6-.2-5.5-9.9,1.3-27.2,1.7-8.7-.4.2,2.4,2.3.7.9,1.1.5,1.8,3.9,3.4.7,2.3-.7,3.4-1.8,3.7-.7,2.5-2.3,1.8-1.8.7-5.3,1.4-.7,1.8L562,230l.7,1.4,1.8,1.6-.2,4.1-1.8,1.6-.7,1.6V243l-1.8.5-1.6,1.1-.2,1.4.2,2.1-1.7,1.3-1,2.8.5,3.7,2.3,7.3,7.3,7.5,5.5,3.7-.2,4.3.9,1.4,6.4.5,2.7,1.4-.7,3.7-2.3,5.9-.7,3.2,2.3,3.9,6.4,5.3,4.6.7,2.1,5,2.1,3.2-.9,3,1.6,4.1,1.8,2.1,1.9-.8.7-2.2,2-1.4,3.2-1.1,3.1,1.2,2.9,1.1.8-.2-.1-1.2-1.1-2.8.4-2.4,2.3-1.6,2.4-1,1.2-.4-.6-1.3-.8-2.2,1.2-1.3.9-2.9Z"/>
		<path data-name="Idaho" data-abbreviation="ID" d="M162.1,181c-22.6-4.3-14.1-2.8-21.1-4.4l4.4-17.5,4.3-17.7,1.4-4.2,2.5-5.9-1.3-2.3-2.5.1-.8-1,.5-1.1.3-3.1,4.5-5.5,1.8-.5,1.1-1.1.6-3.2.9-.7,3.9-5.8,3.9-4.3.2-3.8-3.4-2.6L162,92l.4-9.7,3.7-16.5L170.6,45l3.8-13.5.8-3.8,13,2.5L184,51.7l2.9,7.7L185.8,64l2,4.6,3.2,1.7,4.5,9.8,2.7,3.8.6,1.1,3.4,1.1.5,2.5-6.9,16.8.3,3.3,2.7,2.9,1.9.5,4.8-3.6.4-.5.2.8.3,4.1,2.6,12.9,3.5,2.7.4.8,2.1,2.4-.8,2.8.7,3.8,1.9.9,2.1-1.6,2.6-.5,3.4,1.6,2.5-.6,3.8-.2,4,1.6,2.7-.3.9-2.3,2.5-1.6.7,1.7.6,2.2,2.3,2.5-3.8,24-5.1,29-4.2-.3-8.2-1.5-9.8-1.8-12.2-2.4-12.5-2.5-8.5-1.8-9.3-1.7-9.2-1.7Z"/>
		<path data-name="Hawaii" data-abbreviation="HI" d="M233.1,519.3l1.9-3.6,2.3-.3.3.8-2.1,3.1Zm10.2-3.7,6.1,2.6,2.1-.3,1.6-3.9-.6-3.4-4.2-.5-4,1.8-1,3.7Zm30.7,10,3.7,5.5,2.4-.3,1.1-.5,1.5,1.3,3.7-.2,1-1.5-2.9-1.8-1.9-3.7-2.1-3.6-5.8,2.9-.7,1.9Zm20.2,8.9,1.3-1.9,4.7,1,.6-.5,6.1.6-.3,1.3-2.6,1.5-4.4-.3-5.4-1.7Zm5.3,5.2,1.9,3.9,3.1-1.1.3-1.6-1.6-2.1-3.7-.3v1.2Zm7-1.2,2.3-2.9,4.7,2.4,4.4,1.1,4.4,2.7v1.9l-3.6,1.8-4.8,1-2.4-1.5Zm16.6,15.6,1.6-1.3,3.4,1.6,7.6,3.6,3.4,2.1,1.6,2.4,1.9,4.4,4,2.6-.3,1.3-3.9,3.2-4.2,1.5-1.5-.6-3.1,1.8-2.4,3.2-2.3,2.9-1.8-.2-3.6-2.6-.3-4.5.6-2.4-1.6-5.7-2.1-1.8-.2-2.6,2.3-1,2.1-3.1.5-1-1.6-1.8-.1-2Z"/>
		<path data-name="Georgia" data-abbreviation="GA" d="M689.6,358l-4.8.8-8.4,1.1-8.6.9V363l.2,2.1.6,3.4,3.4,7.9,2.4,9.9,1.5,6.1,1.6,4.8,1.5,7,2.1,6.3,2.6,3.4.5,3.4,1.9.8.2,2.1-1.8,4.8-.5,3.2-.2,1.9,1.6,4.4.3,5.3-.8,2.4.6.8,1.5.8.6,3.4,2.6,3.9,1.5,1.5,7.9.2,10.8-.6,21.5-1.3,5.4-.7h4.6l.2,2.9,2.6.8.3-4.4-1.6-4.5,1.1-1.6,5.8.8,5,.3-.8-6.3,2.3-10,1.5-4.2-.5-2.6,3.3-6.2-.5-1.4-1.9.7-2.6-1.3-.6-2.1-1.3-3.6-2.3-2.1-2.6-.6-1.6-4.8-2.9-6.3-4.2-1.9-2.1-1.9-1.3-2.6-2.1-1.9-2.3-1.3-2.3-2.9-3.1-2.3-4.5-1.8-.5-1.5-2.4-2.9-.5-1.5-3.4-4.9-3.4.2-4.1-3-1.3-1.3-.3-1.8.8-1.9,2.4-1.2-1.1-1.2.1-.3-5.8,1-7,.8-6.8.4Z"/>
		<path data-name="Florida" data-abbreviation="FL" d="M755.4,445.5l2.3,7.3,3.7,9.7,5.3,9.4,3.7,6.3,4.8,5.5,4,3.7,1.6,2.9-1.1,1.3L779,493l2.9,7.4,2.9,2.9,2.6,5.3,3.6,5.8,4.5,8.2,1.3,7.6.5,12,.6,1.8-.3,3.4-2.4,1.3.3,1.9-.6,1.9.3,2.4.5,1.9L793,560l-3.1,1.5-3.9.2-1.5,1.6-2.4,1-1.3-.5-1.1-1-.3-2.9-.8-3.4-3.4-5.2-3.6-2.3-3.9-.3-.8,1.3-3.1-4.4-.6-3.6-2.6-4-1.8-1.1-1.6,2.1-1.8-.3-2.1-5-2.9-3.9-2.9-5.3-2.6-3.1-3.6-3.7,2.1-2.4,3.2-5.5-.2-1.6-4.5-1-1.6.6.3.6,2.6,1-1.5,4.5-.8.5-1.8-4-1.3-4.8-.3-2.7,1.5-4.7v-9.5l-3-3.7-1.3-3.1-5.2-1.3-1.9-.6-1.6-2.6-3.4-1.6-1.1-3.4-2.7-1-2.4-3.7-4.2-1.5-2.9-1.5h-2.6l-4,.8-.2,1.9.8,1-.5,1.1-3.1-.2-3.7,3.6-3.6,1.9h-3.9l-3.2,1.3-.3-2.7-1.6-1.9-2.9-1.1-1.6-1.5-8.1-3.9-7.6-1.8-4.4.6-6,.5-6,2.1-3.5.6-.2-8-2.6-1.9-1.8-1.8.3-3.1,10.2-1.3,25.5-2.9,6.8-.6,5.4.3,2.6,3.9,1.5,1.5,8.1.5,10.8-.6,21.5-1.3,5.4-.7h4.6l.2,2.9,3.8.8.3-4.8-1.6-4.5,1-.7,5.1.5,5.2.3Zm12.5,132.4,2.4-.6,1.3-.2,1.5-2.3,2.3-1.6,1.3.5,1.7.3.4,1.1-3.5,1.2-4.2,1.5-2.3,1.2-.9-1.1Zm13.5-5,1.2,1.1,2.7-2.1,5.3-4.2,3.7-3.9,2.5-6.6,1-1.7.2-3.4-.7.5-1,2.8-1.5,4.6-3.2,5.3-4.4,4.2-3.4,1.9-2.4,1.5Z"/>
		<path data-name="Delaware" data-abbreviation="DE" d="M822.4,230.4l.6-2.1v-1.2l-1.3-.1-2.1,1.6-1.5,1.5,1.5,4.2,2.3,5.7,2.1,9.7,1.6,6.3,5-.2,6.1-1.2-2.3-7.4-1,.5-3.6-2.4-1.8-4.7-1.9-3.6-2.3-1-2.1-3.6Z"/>
		<path data-name="Connecticut" data-abbreviation="CT" d="M873.2,180.1l-.6-4.2-.8-4.4-1.6-6-4.2.9-21.8,4.8.6,3.3,1.5,7.3v8.1l-1.1,2.3,1.8,2.1,5-3.4,3.6-3.2,1.9-2.1.8.6,2.7-1.5,5.2-1.1,7-3.5Z"/>
		<path data-name="Colorado" data-abbreviation="CO" d="M378.6,256.8l1.4-21.3-32.1-3.1-24.5-2.7-37.3-4.1-20.7-2.5-2.6,22.2-3.2,22.4-3.8,28-1.5,11.1-.3,2.8,33.9,3.8,37.7,4.3,32,3.2,16.6.8"/>
		<path data-name="California" data-abbreviation="CA" d="M136.7,386.8l3.8-.5,1.5-2,.7-1.9-3.2-.1-1.1-1.8.8-1.7v-6.2l2.2-1.3,2.7-2.6.4-4.9,1.6-3.5,1.9-2.1,3.3-1.7,1.3-.7.8-1.5-.9-.9-1-1.5-.9-5.3-2.9-5.2.1-2.8-2.2-3.2-15-23.2-19.4-28.7-22.4-33L76.1,231l1.8-7.2,6.8-25.9,8.1-31.4-12.4-3.3-13.5-3.4-12.6-4.1-7.5-2.1-11.4-3-7.1-2.4-1.6,4.7-.2,7.4-5.2,11.8-3.1,2.6-.3,1.1-1.8.8-1.5,4.2-.8,3.2,2.7,4.2,1.6,4.2,1.1,3.6-.3,6.5-1.8,3.1-.6,5.8-1,3.7,1.8,3.9,2.7,4.5,2.3,4.8,1.3,4-.3,3.2-.3.5v2.1l5.7,6.3-.5,2.4-.6,2.3L27,251l.2,8.2,2.1,3.7,1.9,2.6,2.7.5,1,2.7-1.1,3.6-2.1,1.6H30.6l-.8,3.9.5,2.9,3.2,4.4,1.6,5.3,1.5,4.7,1.3,3.1,3.4,5.8,1.5,2.6.5,2.9,1.6,1v2.4l-.8,1.9-1.8,7.1-.5,1.9,2.4,2.7,4.2.5,4.5,1.8,3.9,2.1h2.9l2.9,3.1,2.6,4.8,1.1,2.3,3.9,2.1,4.8.8,1.5,2.1.6,3.2-1.5.6.3,1,3.2.8,2.7.2,2.9,4.7,3.9,4.2.8,2.3,2.6,4.2.3,3.2v9.4l.5,1.8,10,1.5,19.7,2.7,14.2.9ZM48.8,337l1.3,1.5-.2,1.3-3.2-.1-.6-1.2-.6-1.5Zm1.9,0,1.2-.6,3.6,2.1,3.1,1.2-.9.6-4.5-.2-1.6-1.6Zm20.7,19.8,1.8,2.3.8,1,1.5.6.6-1.5-1-1.8-2.7-2-1.1.2v1.2ZM70,365.5l1.8,3.2,1.2,1.9-1.5.2-1.3-1.2a9.84,9.84,0,0,1-.7-1.9v-2.2Z"/>
		<path data-name="Arkansas" data-abbreviation="AR" d="M591,345l-3.8.9-6.2-.5.7-3,3.2-2.7.5-2.3-1.8-3-11,.5-20.8.9-23.3.7L505,337l1.6,6.9v8.2l1.4,11,.2,37.8,2.3,1.9,3-1.4,2.7,1.1.4,10.3,22.9-.1,18.9-.8,10.1-.2,1.1-2.1-.3-3.5-1.8-3,1.6-1.5-1.6-2.5.7-2.5,1.4-5.6,2.5-2.1-.7-2.3,3.7-5.4,2.7-1.4-.1-1.5-.3-1.8,2.9-5.6,2.4-1.3.4-3.4,1.8-1.2.9-4.2-1.3-4,4-2.4.6-2,1.2-4.3.7-3.1Z"/>
		<path data-name="Arizona" data-abbreviation="AZ" d="M137.7,387.5l-2.6,2.2-.3,1.5.5,1,18.9,10.7,12.1,7.6,14.7,8.6,16.8,10,12.3,2.4,25.1,2.7,2.5-12.5,3.8-27.2,7-52.9,4.3-31-24.6-3.7L201,302.3,167.6,296l-2.9,18.1-.5.5-1.7,2.6-2.5-.1-1.3-2.7-2.7-.3-.9-1.1h-.9l-.9.6-1.9,1-.1,7-.2,1.7-.6,12.6-1.5,2.2-.6,3.3,2.7,4.9,1.3,5.8.8,1,1,.6-.1,2.3-1.6,1.4-3.4,1.7-1.9,1.9-1.5,3.7-.6,4.9-2.9,2.7-2.1.7-.1,5.8-.5,1.7.5.8,3.7.6-.6,2.7-1.5,2.2-3.9.7Z"/>
		<path data-name="Alaska" data-abbreviation="AK" d="M158.1,453.7l-.3,85.4,1.6,1,3.1.2,1.5-1.1h2.6l.2,2.9,7,6.8.5,2.6,3.4-1.9.6-.2.3-3.1,1.5-1.6,1.1-.2,1.9-1.5,3.1,2.1.6,2.9,1.9,1.1,1.1,2.4,3.9,1.8,3.4,6,2.7,3.9,2.3,2.7,1.5,3.7,5,1.8,5.2,2.1,1,4.4.5,3.1-1,3.4-1.8,2.3-1.6-.8-1.5-3.1-2.7-1.5-1.8-1.1-.8.8,1.5,2.7.2,3.7-1.1.5-1.9-1.9-2.1-1.3.5,1.6,1.3,1.8-.8.8a3.19,3.19,0,0,1-1.3-1c-.5-.6-2.1-3.4-2.1-3.4l-1-2.3s-.3,1.3-1,1a5.05,5.05,0,0,1-1.3-1.5l1.8-1.9-1.5-1.5v-5h-.8l-.8,3.4-1.1.5-1-3.7-.6-3.7-.8-.5.3,5.7v1.1l-1.5-1.3-3.6-6-2.1-.5-.6-3.7-1.6-2.9-1.6-1.1v-2.3l2.1-1.3-.5-.3-2.6.6-3.4-2.4-2.6-2.9-4.8-2.6-4-2.6,1.3-3.2V542l-1.8,1.6-2.9,1.1-3.7-1.1-5.7-2.4h-5.5l-.6.5-6.5-3.9-2.1-.3-2.7-5.8-3.6.3-3.6,1.5.5,4.5,1.1-2.9,1,.3-1.5,4.4,3.2-2.7.6,1.6-3.9,4.4-1.3-.3-.5-1.9-1.3-.8-1.3,1.1-2.7-1.8-3.1,2.1-1.8,2.1-3.4,2.1-4.7-.2-.5-2.1,3.7-.6v-1.3l-2.3-.6,1-2.4,2.3-3.9v-1.8l.2-.8,4.4-2.3,1,1.3h2.7l-1.3-2.6-3.7-.3-5,2.7-2.4,3.4-1.8,2.6-1.1,2.3-4.2,1.5-3.1,2.6-.3,1.6,2.3,1,.8,2.1-2.7,3.2-6.5,4.2-7.8,4.2-2.1,1.1-5.3,1.1L70.2,564l1.8,1.3-1.5,1.5-.5,1.1-2.7-1-3.2.2-.8,2.3h-1l.3-2.4L59,568.3l-2.9,1L52.7,568l-2.9,1.9H46.6l-2.1,1.3-1.6.8-2.1-.3-2.6-1.1-2.3.6-1,1-1.6-1.1v-1.9l3.1-1.3,6.3.6,4.4-1.6,2.1-2.1,2.9-.6,1.8-.8,2.7.2,1.6,1.3,1-.3,2.3-2.7,3.1-1,3.4-.6,1.3-.3.6.5h.8l1.3-3.7,4-1.5,1.9-3.7,2.3-4.5,1.6-1.5.3-2.6-1.6,1.3-3.4.6-.6-2.4-1.3-.3-1,1-.2,2.9-1.5-.2L71,540.1l-1.3,1.3-1.1-.5-.3-1.9-4,.2-2.1,1.1-2.6-.3,1.5-1.5.5-2.6L61,534l1.5-1,1.3-.2-.6-1.8v-4.4l-1-1-.8,1.5H55.3l-1.5-1.3-.6-3.9-2.1-3.6v-1l2.1-.8.2-2.1,1.1-1.1-.8-.5-1.3.5-1.1-2.7,1-5,4.5-3.2,2.6-1.6,1.9-3.7,2.7-1.3,2.6,1.1.3,2.4,2.4-.3,3.2-2.4,1.6.6,1,.6h1.6l2.3-1.3.8-4.4s.3-2.9,1-3.4a7.87,7.87,0,0,0,1-1l-1.1-1.9-2.6.8-3.2.8-1.9-.5-3.6-1.8-5-.2-3.6-3.7.5-3.9.6-2.4-2.1-1.8-1.9-3.7.5-.8,6.8-.5h2.1l1,1h.6l-.2-1.6,3.9-.6,2.6.3,1.5,1.1-1.5,2.1-.5,1.5,2.7,1.6,5,1.8,1.8-1-2.3-4.4-1-3.2,1-.8L78.5,464l-.5-1.1.5-1.6-.8-3.9-2.9-4.7-2.4-4.2,2.9-1.9h3.2l1.8.6,4.2-.2,3.7-3.6,1.1-3.1,3.7-2.4,1.6,1,2.7-.6,3.7-2.1,1.1-.2,1,.8,4.5-.2,2.7-3.1h1.1l3.6,2.4,1.9,2.1-.5,1.1.6,1.1,1.6-1.6,3.9.3.3,3.7,1.9,1.5,7.1.6,6.3,4.2,1.5-1,5.2,2.6,2.1-.6,1.9-.8,4.8,1.9,4.5,2.7ZM43,482.6l2.1,5.3-.2,1-2.9-.3-1.8-4-1.8-1.5H36l-.2-2.6,1.8-2.4,1.1,2.4,1.5,1.5Zm-2.6,33.5,3.7.8,3.7,1,.8,1L47,522.6l-3.1-.2-3.4-3.6ZM19.7,502l1.1,2.6,1.1,1.6-1.1.8-2.1-3.1V502ZM6,575.1l3.4-2.3,3.4-1,2.6.3.5,1.6,1.9.5,1.9-1.9-.3-1.6,2.7-.6,2.9,2.6-1.1,1.8-4.4,1.1-2.7-.5L13.1,574l-4.4,1.5-1.6.3Zm48.9-4.5,1.6,1.9,2.1-1.6-1.5-1.3-2.2,1Zm2.9,3,1.1-2.3,2.1.3-.8,1.9H57.8Zm23.6-1.9,1.5,1.8,1-1.1-.8-1.9Zm8.8-12.5,1.1,5.8,2.9.8,5-2.9,4.4-2.6-1.6-2.4.5-2.4-2.1,1.3-2.9-.8,1.6-1.1,1.9.8,3.9-1.8.5-1.5-2.4-.8.8-1.9-2.7,1.9-4.7,3.6-4.8,2.9-1.4,1.1Zm42.3-19.8,2.4-1.5-1-1.8-1.8,1Z"/>
		<path data-name="Alabama" data-abbreviation="AL" d="M625.6,466.8,624,451.6l-2.7-18.8.2-14.1.8-31-.2-16.7.2-6.4,7.8-.4,27.8-2.6,8.9-.7-.1,2.2.2,2.1.6,3.4,3.4,7.9,2.4,9.9,1.5,6.1,1.6,4.8,1.5,7,2.1,6.3,2.6,3.4.5,3.4,1.9.8.2,2.1-1.8,4.8-.5,3.2-.2,1.9,1.6,4.4.3,5.3-.8,2.4.6.8,1.5.8,1,2.5h-6.3l-6.8.6-25.5,2.9-10.4,1.4-.1,3.8,1.8,1.8,2.6,1.9.6,7.9-5.5,2.6-2.7-.3,2.7-1.9v-1l-3.1-6-2.3-.6-1.5,4.4-1.3,2.7-.6-.2h-2.9Z"/>
	</g>
</svg>
