<svg xmlns="http://www.w3.org/2000/svg" viewBox="0 0 75.7 108.1">
  <path fill="#C4D438" d="M17.9 106.9c-2.4 0-4.4-2-4.4-4.4V61.7c0-1.2.5-2.4 1.5-3.3l13.7-13.7c.8-.8 1.9-1.3 3.1-1.3s2.3.5 3.1 1.3l13.7 13.7c1 .9 1.5 2.1 1.5 3.3v40.8c0 2.4-2 4.4-4.4 4.4H17.9z"/>
  <path fill="#5C666F" d="M31.8 44.4c.9 0 1.8.3 2.4 1l13.7 13.7c.7.6 1.1 1.6 1.1 2.5v40.8c0 1.9-1.5 3.4-3.4 3.4H17.9c-1.9 0-3.4-1.5-3.4-3.4V61.7c0-1 .4-1.9 1.1-2.5l13.7-13.7c.8-.7 1.6-1.1 2.5-1.1m0-2c-1.4 0-2.8.5-3.8 1.6L14.3 57.7c-1.1 1-1.8 2.4-1.8 4v40.8c0 3 2.4 5.4 5.4 5.4h27.8c3 0 5.4-2.4 5.4-5.4V61.7c0-1.6-.7-3-1.8-4L35.6 44c-1-1-2.4-1.6-3.8-1.6z"/>
  <path fill="#FFF" d="M31.8 63.9c-2.2 0-3.9-1.8-3.9-3.9s1.8-3.9 3.9-3.9 3.9 1.8 3.9 3.9-1.7 3.9-3.9 3.9z"/>
  <path fill="#5C666F" d="M31.8 57c1.6 0 2.9 1.3 2.9 2.9s-1.3 2.9-2.9 2.9-2.9-1.3-2.9-2.9 1.3-2.9 2.9-2.9m0-2c-2.7 0-4.9 2.2-4.9 4.9s2.2 4.9 4.9 4.9 4.9-2.2 4.9-4.9-2.1-4.9-4.9-4.9z"/>
  <g fill="none" stroke="#5C666F" stroke-linecap="round" stroke-miterlimit="10" stroke-width="2">
    <path d="M28.6 90c.7 1.3 2 2.2 3.6 2.2 2.2 0 4-1.8 4-4s-1.8-4-4-4-4-1.8-4-4 1.8-4 4-4c1.9 0 3.5 1.3 3.9 3.1M32.4 73.7v2.2M32.1 92.8V95"/>
  </g>
  <path fill="#78CDD1" d="M42.1 78.9c-2.4 0-4.4-2-4.4-4.4V33.7c0-1.2.5-2.4 1.5-3.3l13.7-13.7c.8-.8 1.9-1.3 3.1-1.3s2.3.5 3.1 1.3l13.7 13.7c1 .9 1.5 2.1 1.5 3.3v40.8c0 2.4-2 4.4-4.4 4.4H42.1z"/>
  <path fill="#5C666F" d="M56 16.4c.9 0 1.8.3 2.4 1l13.7 13.7c.7.6 1.1 1.6 1.1 2.5v40.8c0 1.9-1.5 3.4-3.4 3.4H42.1c-1.9 0-3.4-1.5-3.4-3.4V33.7c0-1 .4-1.9 1.1-2.5l13.7-13.7c.7-.7 1.6-1.1 2.5-1.1m0-2c-1.4 0-2.8.5-3.8 1.6L38.5 29.7c-1.1 1-1.8 2.4-1.8 4v40.8c0 3 2.4 5.4 5.4 5.4h27.8c3 0 5.4-2.4 5.4-5.4V33.7c0-1.6-.7-3-1.8-4L59.8 16c-1-1-2.4-1.6-3.8-1.6z"/>
  <path fill="#FFF" d="M56 35.8c-2.2 0-3.9-1.8-3.9-3.9S53.8 28 56 28s3.9 1.8 3.9 3.9-1.7 3.9-3.9 3.9z"/>
  <path fill="#5C666F" d="M56 29c1.6 0 2.9 1.3 2.9 2.9 0 1.6-1.3 2.9-2.9 2.9s-2.9-1.3-2.9-2.9c0-1.6 1.3-2.9 2.9-2.9m0-2c-2.7 0-4.9 2.2-4.9 4.9s2.2 4.9 4.9 4.9 4.9-2.2 4.9-4.9S58.7 27 56 27z"/>
  <g fill="none" stroke="#5C666F" stroke-linecap="round" stroke-miterlimit="10" stroke-width="2">
    <path d="M52.8 62c.7 1.3 2 2.2 3.6 2.2 2.2 0 4-1.8 4-4s-1.8-4-4-4-4-1.8-4-4 1.8-4 4-4c1.9 0 3.5 1.3 3.9 3.1M56.6 45.7v2.2M56.3 64.8V67"/>
  </g>
  <g>
    <path fill="#FA7A47" d="M5.3 64.4c-2.4 0-4.4-2-4.4-4.4V19.2c0-1.2.5-2.4 1.5-3.3L16.1 2.2c.8-.8 1.9-1.3 3.1-1.3s2.3.5 3.1 1.3L36 15.9c1 .9 1.5 2.1 1.5 3.3V60c0 2.4-2 4.4-4.4 4.4H5.3z"/>
    <path fill="#5C666F" d="M19.2 1.9c.9 0 1.8.3 2.4 1l13.7 13.7c.7.6 1.1 1.6 1.1 2.5V60c0 1.9-1.5 3.4-3.4 3.4H5.3c-1.9 0-3.4-1.5-3.4-3.4V19.2c0-1 .4-1.9 1.1-2.5L16.8 2.9c.7-.7 1.5-1 2.4-1m0-2c-1.4 0-2.8.5-3.8 1.6L1.7 15.1c-1.1 1-1.8 2.4-1.8 4V60c0 3 2.4 5.4 5.4 5.4h27.8c3 0 5.4-2.4 5.4-5.4V19.2c0-1.6-.7-3-1.8-4L23 1.5C22 .4 20.6-.1 19.2-.1z"/>
  </g>
  <g>
    <path fill="#FFF" d="M19.2 21.3c-2.2 0-3.9-1.8-3.9-3.9s1.8-3.9 3.9-3.9 3.9 1.8 3.9 3.9-1.7 3.9-3.9 3.9z"/>
    <path fill="#5C666F" d="M19.2 14.4c1.6 0 2.9 1.3 2.9 2.9s-1.3 2.9-2.9 2.9-2.9-1.3-2.9-2.9 1.3-2.9 2.9-2.9m0-2c-2.7 0-4.9 2.2-4.9 4.9s2.2 4.9 4.9 4.9 4.9-2.2 4.9-4.9-2.2-4.9-4.9-4.9z"/>
  </g>
  <g fill="none" stroke="#5C666F" stroke-linecap="round" stroke-miterlimit="10" stroke-width="2">
    <path d="M16 46.7c.7 1.3 2 2.2 3.6 2.2 2.2 0 4-1.8 4-4s-1.8-4-4-4-4-1.8-4-4 1.8-4 4-4c1.9 0 3.5 1.3 3.9 3.1M19.8 30.4v2.2M19.5 49.5v2.2"/>
  </g>
</svg>
