<svg xmlns="http://www.w3.org/2000/svg" viewBox="0 0 103.2 256.9">
  <path fill="#6B3709" stroke="#23282B" stroke-miterlimit="10" stroke-width=".99999" d="M14.37 220.229l9.532 3.633-7.872 20.65-9.531-3.633z"/>
  <path fill="#4FB2C8" stroke="#5C6670" stroke-miterlimit="10" stroke-width="2" d="M13.7 220.5l11.1 4.8c1.5.6 3.2 0 4-1.4L51 182.1c1.5-2.8 2.2-6 1.9-9.2l-3.4-47.8-29.9-.5L30.1 172 12 216.5c-.6 1.6.1 3.4 1.7 4z"/>
  <path fill="#78CE8A" stroke="#5C6670" stroke-miterlimit="10" stroke-width="2" d="M7.6 234.9l13.7 2.9 3.3 13 6.2 2.4-.8 2.4h-8.7L3 242.7z"/>
  <path fill="#6B3709" stroke="#23282B" stroke-miterlimit="10" d="M30 226.5h10.2v22.1H30z"/>
  <path fill="#4FB2C8" stroke="#5C6670" stroke-miterlimit="10" stroke-width="2" d="M25.4 109.3l.3 122.3c0 2.7 2.2 4.8 4.9 4.7l10.1-.4c2.4-.1 4.3-2 4.5-4.3L56.1 92.7l-30.7 16.6z"/>
  <path fill="#4FB2C8" stroke="#5C6670" stroke-miterlimit="10" stroke-width="2" d="M26.8 135.5c-10.9.5-12.4-18.8-12.4-18.8l16.6-.2"/>
  <path fill="#935615" stroke="#5C6670" stroke-miterlimit="10" d="M39.4 47.4l-17.5-1.9 12.8-23.8 10.9 1.1z"/>
  <circle cx="84.2" cy="41.1" r="19" fill="#D1E42D"/>
  <path fill="#E1E9EF" stroke="#5C6670" stroke-miterlimit="10" stroke-width="2" d="M12.5 115.6c0 .5.4 1 1 1h38.4c4.3 0 8.5-.5 7.6-13.8s-9-52.2-12.3-57.9c-3.3-5.7-16.1-9.5-23.2-3.3S12 60.1 12.5 72.4c.4 11.1.1 37.7 0 43.2z"/>
  <path fill="#E1E9EF" stroke="#5C6670" stroke-miterlimit="10" stroke-width="2" d="M41.7 40.2S18.2 29.9 6.8 31.5C-4.6 33 4.1 42.9 9.1 48.7s8.1 5.1 13.1.9 8.8-6.9 8.8-6.9"/>
  <path fill="#5C6670" d="M77 60.6c-.6-.3-.9-1-.7-1.7l11.6-27c.3-.6 1-.9 1.7-.7.6.3.9 1 .7 1.7l-11.6 27c-.3.7-1.1.9-1.7.7z"/>
  <path fill="#935615" stroke="#5C6670" stroke-linejoin="round" stroke-miterlimit="10" stroke-width="2" d="M69.9 65.1L77 49.9c.4-.9 1.6-1.3 2.5-.8.8.4 1.1 1.3.9 2.1l-1.3 4.5 2.8-7.1c.6-1.5 2.8-.9 2.6.7L83 59.4l-5.7 11.3-7.4-5.6z"/>
  <ellipse cx="45.1" cy="19.9" fill="#935615" stroke="#5C6670" stroke-linejoin="round" stroke-miterlimit="10" stroke-width="2" rx="15" ry="13.6" transform="rotate(-64.291 45.094 19.911)"/>
  <path stroke="#23282B" stroke-linecap="round" stroke-miterlimit="10" stroke-width="2" d="M63.4 13.4s3.8 1.4 1.2 3.8c-2.6 2.4-6.2-.8-6.2-.8s-2.1-2.6-6.3-2.7c-4.2-.1-10.6 5.3-10.6 5.3s-.4-4-3.9-3-6.8 5.7-6.8 5.7-3.3-4.3-3.1-6.1 2.9-3.2 2.9-3.2l32.8 1z"/>
  <path fill="#E1E9EF" stroke="#5C6670" stroke-miterlimit="10" stroke-width="2" d="M48.7 48.7l10.1 31 8.7-16.9c1.1-2.2 4-2.8 5.9-1.2l5.6 4.5c1.3 1.1 1.8 2.9 1.1 4.5L67.6 100c-2 4.6-6.5 7.7-11.5 7.7-5.3 0-10-3.2-11.9-8.1L32.5 68.9"/>
  <path fill="#E1E9EF" stroke="#5C6670" stroke-miterlimit="10" stroke-width="2" d="M60.4 88l-1.8-8.3 4.8 4.8"/>
  <path fill="#78CE8A" stroke="#5C6670" stroke-miterlimit="10" stroke-width="2" d="M29 246.2l12.6-3.7 17.8 9.4v3.6H27.8l.3-8.2c.1-.5.4-.9.9-1.1z"/>
  <path fill="#D1E42D" stroke="#5C6670" stroke-miterlimit="10" stroke-width="2" d="M74.2 13.3l-44.1-1.6s1-8.9 12.7-9.3S57.6 2 59.2 4.6s.9 7.5.9 7.5"/>
  <path fill="#EFB266" stroke="#5C6670" stroke-miterlimit="10" stroke-width="2" d="M42.6 19.1l-1.2-.2c-.8-.1-1.3-.9-1.2-1.6l2.5-14.8c.1-.8.9-1.3 1.6-1.2l1.2.2c.8.1 1.3.9 1.2 1.6l-2.5 14.8c-.1.8-.8 1.3-1.6 1.2z"/>
  <ellipse cx="41.4" cy="18.9" fill="#EFB266" stroke="#5C6670" stroke-miterlimit="10" stroke-width="2" rx="5.8" ry="4.6" transform="rotate(-73.561 41.406 18.935)"/>
  <path fill="#935615" stroke="#5C6670" stroke-miterlimit="10" d="M58.7 19l.7 8.4c.1.7-.7 1.2-1.3.8l-2.7-1.5"/>
  <circle cx="54" cy="19.8" r="1.1"/>
  <path fill="none" stroke="#000" stroke-miterlimit="10" stroke-width="2" d="M49.1 24.8s.4 2.5 2.8 3.1"/>
  <path fill="#935615" d="M34 23.5l-3.8 7.9 8 4.5 2.5-7.6z"/>
  <path fill="#5C6670" d="M13.5 116.5l2.8 11 35.6-11z"/>
</svg>
