<svg xmlns="http://www.w3.org/2000/svg" viewBox="0 0 157.3 275.5">
  <path fill="#FFF" stroke="#5C6670" stroke-linejoin="round" stroke-miterlimit="10" stroke-width="1.99998" d="M2.702 41.98l2.9-2.9 18.455 18.456-2.9 2.9z"/>
  <path fill="#F4CCA4" stroke="#5C6670" stroke-linejoin="round" stroke-miterlimit="10" stroke-width="2" d="M45.6 29l-8.9.7.5-13.1c.1-1.6 1.3-2.8 2.8-2.9 1.6-.1 2.9 1 3.2 2.5L45.6 29z"/>
  <circle cx="39.7" cy="12.8" r="8.6" fill="#F4CCA4" stroke="#5C6670" stroke-linejoin="round" stroke-miterlimit="10" stroke-width="2"/>
  <path fill="#5C6670" stroke="#5C6670" stroke-linejoin="round" stroke-miterlimit="10" stroke-width="2" d="M45.9 18.8l-1-7.1-2.8-1.6-3.4 2.1-.5-4.6 6.4-1.7 3.2 5.3z"/>
  <path fill="#F4CCA4" d="M37.759 17.303l5.186-.381.498 6.781-5.186.381z"/>
  <path fill="#5C6670" stroke="#5C6670" stroke-linejoin="round" stroke-miterlimit="10" stroke-width="2" d="M44.1 9.1s-2.7 10.9-.9 13.2c1.8 2.3 6.1 3.6 8-.7 1.8-4.3-3.6-4.6-4.8-10.7-1.1-6.1-2.3-1.8-2.3-1.8z"/>
  <path fill="#FA7A47" stroke="#5C6670" stroke-linejoin="round" stroke-miterlimit="10" stroke-width="2" d="M30.9 4.6L48.4 15s4.4-6.2-2.8-11.2-12.1 1.4-12.1 1.4l-2.6-.6z"/>
  <path fill="#F4CCA4" stroke="#5C6670" stroke-linejoin="round" stroke-miterlimit="10" stroke-width="2" d="M34.1 6.6l-3.8 2.3 1.6 1.2"/>
  <path fill="#F0F0F0" stroke="#5C6670" stroke-linejoin="round" stroke-miterlimit="10" stroke-width="2" d="M32.6 11.7s1.4.1 2.3-.4"/>
  <circle cx="34.3" cy="8.2" r=".5" fill="#5C6670"/>
  <path fill="#F4CCA4" stroke="#5C6670" stroke-linejoin="round" stroke-miterlimit="10" stroke-width="2" d="M41 11.3c.4-.3.9-.4 1.4-.2.9.2 1.4 1.2 1.2 2.1-.2.9-1.2 1.4-2.1 1.2-.6-.2-1-.6-1.2-1.1"/>
  <path fill="#78CDD1" stroke="#5C6670" stroke-linejoin="round" stroke-miterlimit="10" stroke-width="2" d="M55.2 62.5L35.4 64l-1.1-31c-.2-4.4 3.2-8.1 7.5-8.4 4.2-.3 8 2.7 8.6 6.9l4.8 31z"/>
  <path fill="#78CDD1" stroke="#5C6670" stroke-linejoin="round" stroke-miterlimit="10" stroke-width="2" d="M36.6 57.8L27 54.1l9.5-24.6c.6-1.5 2.3-2.3 3.8-1.7l4 1.6c1.5.6 2.3 2.3 1.7 3.8l-9.4 24.6z"/>
  <path fill="#F0F0F0" stroke="#5C6670" stroke-linejoin="round" stroke-miterlimit="10" stroke-width="2" d="M40.8 12.2h1.7"/>
  <path fill="#F7F7F7" stroke="#5C6670" stroke-linejoin="round" stroke-miterlimit="10" stroke-width="2.00008" d="M89.173 109.064l66.786 158.078-16.95 7.162-66.786-158.078z"/>
  <path fill="#F7F7F7" stroke="#5C6670" stroke-linejoin="round" stroke-miterlimit="10" stroke-width="2" d="M60.3 145.1H18c-8.8 0-16-7.2-16-16V50.3h74.3v78.8c0 8.8-7.2 16-16 16z"/>
  <path fill="#F0F0F0" stroke="#5C6670" stroke-linejoin="round" stroke-miterlimit="10" stroke-width="2" d="M2 64.6h74.1"/>
  <path fill="#F7F7F7" stroke="#5C6670" stroke-linejoin="round" stroke-miterlimit="10" stroke-width="2" d="M84.3 132.3h-8.2v-26.6h8.2c4.3 0 7.7 3.5 7.7 7.7v11.2c0 4.2-3.5 7.7-7.7 7.7z"/>
  <circle cx="83.5" cy="119.5" r="4.6" fill="#FFF" stroke="#5C6670" stroke-linejoin="round" stroke-miterlimit="10" stroke-width="2"/>
  <circle cx="76.8" cy="38.1" r="1.7" fill="#FFF"/>
</svg>
