<svg xmlns="http://www.w3.org/2000/svg" viewBox="0 0 86.9 141.8">
  <path fill="#5C666F" d="M19.1 42.2c-.7.3-1.6 0-1.9-.8L7.6 18.9c-.3-.7 0-1.6.8-1.9.7-.3 1.6 0 1.9.8l9.6 22.5c.3.7 0 1.6-.8 1.9z"/>
  <path fill="#5C666F" d="M8.9 18.3c-.4.2-.9 0-1.1-.4L.8 1.4C.6 1 .8.5 1.3.3c.4-.2.9 0 1.1.4l7 16.5c.2.4 0 .9-.5 1.1z"/>
  <path fill="#F0F0F0" stroke="#5C6670" stroke-linejoin="round" stroke-miterlimit="10" stroke-width="2" d="M69.9 140.6c.1-.1 14.3-11.7 14.3-11.7 1.4-1.3 1.8-3.5 1.5-4.5-.2-.9-1.3-3-3.1-5.4-1.9-2.4-11-13.1-11.3-13.4s-15.6-36-16-36.9-2.6-15.8-2.6-16.7c0-.8-5.9-19-6.5-20.6-.5-1.5-2-1.7-3.2-1.2l-18.9 7.2S7.1 48 6.1 48.6c-1.5.9-3.1 2.7-2 4.9.7 1.5 34.6 74.8 34.9 75.7.6 1.3 2.2 3.2 4.4 3.7 0 0 25.9 7.8 26 7.8.2.1.5-.1.5-.1z"/>
  <path fill="#FFF" stroke="#5C666F" stroke-miterlimit="10" stroke-width="2" d="M32.3 59.5c.2 1.2 3.2 18.1 3.6 18.9.4.7 16.9 38.4 17.1 38.9.3.5 11 13.4 11.5 14 .5.6 1.7.7 2.6.1.9-.7 14.5-10.8 14.8-11.1s1-1.1-.2-2.3c-1.2-1.2-10.3-11.8-10.5-12.3s-15.7-36.5-16-37.1c-.2-.7-2.2-15.9-2.6-16.9-.4-1-4.7-15-5.1-16.1-.4-1.2-1.4-2-2.5-1.5l-17.2 7c-1.2.5-1.7 1.8-1.2 3l5.7 15.4z"/>
  <path fill="#86CECE" d="M29.2 44.6c-.3-.6 0-1.3.6-1.6l14.4-5.9c.6-.3 1.3 0 1.6.6l4.1 13.5c.3.6 0 1.3-.6 1.6l-13.5 6c-.6.3-1.3 0-1.6-.6l-5-13.6zM35.3 62.9l15.3-7c.3-.1.6.1.6.4l.8 6.9c0 .2-.1.4-.2.5L37 70.8c-.3.1-.6 0-.6-.3l-1.3-7.1c-.1-.2 0-.4.2-.5z"/>
  <path fill="#F48364" d="M45 83.1l-3 1.5c-.2.1-.5 0-.5-.2l-1.2-2.8c-.1-.2 0-.5.2-.5l2.9-1.5c.2-.1.5 0 .5.2l1.3 2.8c.1.2 0 .4-.2.5zM50.6 80.2l-3 1.6c-.2.1-.5 0-.5-.2l-1.2-2.8c-.1-.2 0-.5.2-.5l3-1.6c.2-.1.5 0 .5.2l1.1 2.8c.2.2.1.4-.1.5zM55.8 77.5l-3 1.6c-.2.1-.5 0-.5-.2l-1.2-2.8c-.1-.2 0-.5.2-.5l2.9-1.6c.2-.1.5 0 .5.2l1.2 2.8c.2.1.1.4-.1.5zM47.4 88.7l-2.9 1.7c-.2.1-.5 0-.5-.2l-1.2-2.9c-.1-.2 0-.5.2-.5l3-1.6c.2-.1.5 0 .5.2l1.2 2.8c0 .2-.1.4-.3.5zM52.9 85.6L50 87.3c-.2.1-.5 0-.5-.2l-1.2-2.7c-.1-.2 0-.5.2-.5l3-1.6c.2-.1.5 0 .5.2l1.1 2.7c.1.1 0 .3-.2.4zM58 82.8l-2.9 1.6c-.2.1-.5 0-.5-.2l-1.1-2.6c-.1-.2 0-.5.2-.5l3-1.6c.2-.1.5 0 .5.2l1.1 2.5c0 .2-.1.5-.3.6zM49.8 94.4l-3 1.6c-.2.1-.5 0-.5-.2l-1.2-2.9c-.1-.2 0-.5.2-.5l3-1.6c.2-.1.5 0 .5.2l1.2 2.9c.2.2.1.4-.2.5zM55.3 91.4L52.4 93c-.2.1-.5 0-.5-.2l-1.2-2.9c-.1-.2 0-.5.2-.5l2.9-1.6c.2-.1.5 0 .5.2l1.3 2.8c0 .2-.1.5-.3.6zM60.5 88.5l-2.9 1.6c-.2.1-.5 0-.5-.2l-1.2-2.8c-.1-.2 0-.5.2-.5l3-1.6c.2-.1.5 0 .5.2l1.2 2.8c0 .2-.1.4-.3.5zM52.3 100.3l-2.9 1.7c-.2.1-.5 0-.5-.2l-1.2-2.9c-.1-.2 0-.5.2-.5l2.9-1.7c.2-.1.5 0 .5.2l1.2 2.8c.1.2 0 .5-.2.6zM57.7 97l-2.8 1.7c-.2.1-.5 0-.5-.2l-1.2-2.8c-.1-.2 0-.5.2-.5l2.9-1.7c.2-.1.5 0 .5.2l1.1 2.8c.1.2 0 .4-.2.5zM62.8 94l-2.9 1.7c-.2.1-.5 0-.5-.2l-1.1-2.7c-.1-.2 0-.5.2-.5l2.9-1.7c.2-.1.5 0 .5.2l1.1 2.7c.1.1 0 .4-.2.5zM56.7 109.7l-3.3 2c-.2.1-.5 0-.5-.2l-1.1-2.7c-.1-.2 0-.5.2-.5l3.4-2c.2-.1.5 0 .5.2l1.1 2.6c0 .2-.1.5-.3.6zM61.9 106.5l-3.1 2c-.2.1-.5 0-.5-.2l-1.1-2.6c-.1-.2 0-.5.2-.5l3.2-1.9c.2-.1.5 0 .5.2l1 2.6c.2 0 .1.3-.2.4zM67 103.3l-3.1 1.8c-.2.1-.5 0-.5-.2l-1-2.4c-.1-.2 0-.5.2-.5l3.2-1.8c.2-.1.5 0 .5.2l1 2.4c0 .1-.1.4-.3.5z"/>
  <path fill="none" stroke="#5C666F" stroke-linecap="round" stroke-miterlimit="10" stroke-width="2" d="M17.6 41.5c-1.5.9-3.2 2.3-2.2 4.6.7 1.4 40.9 89.7 41.3 90.6"/>
  <path fill="#86CECE" d="M56.4 117.6c2-1.3 12.2-8.3 14-9.5.1-.1.3-.1.4.1l4.7 5.4c.1.1.1.4-.1.5L61.6 124c-.1.1-.3.1-.4-.1l-4.8-5.8c-.2-.1-.2-.3 0-.5z"/>
  <path fill="none" stroke="#5C666F" stroke-miterlimit="10" stroke-width="2" d="M35.8 78.5l19.5-9.7M52.9 117.4L71 105.3"/>
</svg>
