<svg xmlns="http://www.w3.org/2000/svg" viewBox="0 0 57 477.8">
  <path fill="#5C6670" stroke="#5C6670" stroke-miterlimit="10" stroke-width="2" d="M13.6 84.5c-.8 0-1.4-.6-1.4-1.4v-7.3c0-.8.6-1.4 1.4-1.4.8 0 1.4.6 1.4 1.4v7.3c-.1.8-.7 1.4-1.4 1.4zM44.4 84.5c-.8 0-1.4-.6-1.4-1.4v-7.3c0-.8.6-1.4 1.4-1.4.8 0 1.4.6 1.4 1.4v7.3c0 .8-.6 1.4-1.4 1.4z"/>
  <path fill="#F0F0F0" stroke="#5C6670" stroke-miterlimit="10" stroke-width="2" d="M24.9 476.6h8.3V26.2c0-2.3-1.9-4.1-4.1-4.1-2.3 0-4.1 1.9-4.1 4.1v450.4z"/>
  <path fill="#F0F0F0" stroke="#5C6670" stroke-miterlimit="10" stroke-width="2" d="M34.95 67.967h-12.8v-32h12.8z"/>
  <path fill="#D1E42D" d="M17 63.4h21.9c7.6 0 13.7-6.1 13.7-13.7H3.3c0 7.6 6.1 13.7 13.7 13.7z"/>
  <path fill="#F0F0F0" stroke="#5C6670" stroke-miterlimit="10" stroke-width="2" d="M53.853 50.594h-50.9v-7.3h50.9z"/>
  <path fill="#5C6670" stroke="#5C6670" stroke-miterlimit="10" stroke-width="2" d="M24.9 141.7h8.3V84.6c0-1.2-.9-2.1-2.1-2.1H27c-1.2 0-2.1.9-2.1 2.1v57.1z"/>
  <path fill="#78CDD1" stroke="#5C6670" stroke-miterlimit="10" stroke-width="2" d="M45.8 135.8H11.3c-5.5 0-10-4.5-10-10v-34c0-5.5 4.5-10 10-10h34.4c5.5 0 10 4.5 10 10v34c.1 5.5-4.4 10-9.9 10zM31.8 1.1h-5.6c-1.4 0-2.6 1.1-2.6 2.6v20.5c0 1.4 1.1 2.6 2.6 2.6h5.6c1.4 0 2.6-1.1 2.6-2.6V3.7c0-1.4-1.2-2.6-2.6-2.6z"/>
</svg>
