<svg xmlns="http://www.w3.org/2000/svg" xmlns:xlink="http://www.w3.org/1999/xlink" viewBox="0 0 145.8 145.5">
  <circle cx="72.8" cy="72.8" r="71.6" fill="#78CDD1"/>
  <path fill="#5C6670" d="M72.8 145.5C32.7 145.5.2 112.9.2 72.9.2 32.8 32.8.3 72.8.3c40.1 0 72.6 32.6 72.6 72.6 0 40-32.6 72.6-72.6 72.6zm0-143.3c-39 0-70.6 31.7-70.6 70.6s31.7 70.6 70.6 70.6 70.6-31.7 70.6-70.6S111.7 2.2 72.8 2.2z"/>
  <circle cx="72.8" cy="73" r="66.5" fill="#FFF" stroke="#5C6670" stroke-linejoin="round" stroke-miterlimit="10" stroke-width="2"/>
  <g>
    <defs>
      <circle cx="72.8" cy="72.9" r="65.7"/>
    </defs>
    <clipPath>
      <use overflow="visible" xlink:href="#a"/>
    </clipPath>
    <path fill="none" stroke="#5C666F" stroke-linejoin="round" stroke-miterlimit="10" d="M73.1 32.9v11.3" clip-path="url(#b)"/>
    <g clip-path="url(#b)">
      <path fill="none" stroke="#C4D438" stroke-linejoin="round" stroke-miterlimit="10" stroke-width="5" d="M-6.3 103.3l12-44.7c1.6-6.1 7.5-6.1 9.1 0l7.4 27.7c1.6 6.1 7.5 6.1 9.1 0 0 0 5.7-22.3 7.4-27.7 2.1-6.9 7.4-7.2 9.1 0 1.8 7.2 7.4 27.7 7.4 27.7 1.6 6.1 7.5 6.1 9.1 0l7.4-27.7c1.6-6.1 7.5-6.1 9.1 0l7.4 27.7c1.6 6.1 7.5 6.1 9.1 0l7.4-27.7c1.6-6.1 7.5-6.1 9.1 0l7.4 27.7c1.6 6.1 7.5 6.1 9.1 0l12-44.7"/>
    </g>
    <path fill="none" stroke="#5C666F" stroke-linejoin="round" stroke-miterlimit="10" d="M-3 44.2h148.5M-3 100.1h148.5M73.1 99.7v3.3M23.8 39.4v4.8M23.8 99.7v3.3M122.8 39.4v4.8M122.8 99.7v3.3" clip-path="url(#b)"/>
    <g fill="none" stroke="#C5D2DF" stroke-linecap="round" stroke-linejoin="round" stroke-miterlimit="10" stroke-width="8" clip-path="url(#b)" opacity=".3">
      <path d="M30.2 38.4C37.5 29 47.7 22.1 59.5 19M22.6 51.7c.5-1.1.9-2.3 1.5-3.4"/>
    </g>
  </g>
</svg>
