<svg data-name="26" xmlns="http://www.w3.org/2000/svg" viewBox="0 0 412.7 96.43" role="presentation"><defs><style>.cls-1{fill:#fff;}</style></defs><title>Artboard 1</title><path class="cls-1" d="M230.74,89.75c0,2.26.13,4.48.34,6.68h-96a43.19,43.19,0,0,0-7.28-31.74A89.58,89.58,0,0,1,274.83,24,71.11,71.11,0,0,0,230.74,89.75Z"/><path class="cls-1" d="M91.53,45.66a44,44,0,0,1,36.25,19,89.63,89.63,0,0,0-3.62,25.06c0,2.26.17,4.47.34,6.68H48A43.79,43.79,0,0,1,91.53,45.66Z"/><path class="cls-1" d="M135.06,96.43H124.5c-.16-2.21-.34-4.43-.34-6.68a89.63,89.63,0,0,1,3.62-25.06,43.19,43.19,0,0,1,7.28,31.74Z"/><path class="cls-1" d="M0,89.75a22.93,22.93,0,1,1,45.85,0,22.68,22.68,0,0,1-1.11,6.68H1.11A22.68,22.68,0,0,1,0,89.75Z"/><path class="cls-1" d="M368,96.43H303.32c.16-2.21.34-4.43.34-6.68A89.4,89.4,0,0,0,274.83,24,71.07,71.07,0,0,1,371.6,75.92,21.93,21.93,0,0,0,368,96.43Z"/><path class="cls-1" d="M303.65,89.75c0,2.26-.17,4.47-.34,6.68H231.07c-.21-2.2-.34-4.43-.34-6.68A71.11,71.11,0,0,1,274.83,24,89.4,89.4,0,0,1,303.65,89.75Z"/><path class="cls-1" d="M373,89.75a71.39,71.39,0,0,0-1.37-13.83,22.77,22.77,0,0,1,40,20.51h-39C372.83,94.22,373,92,373,89.75Z"/><path class="cls-1" d="M372.63,96.43H368a21.93,21.93,0,0,1,3.64-20.51A71.39,71.39,0,0,1,373,89.75C373,92,372.83,94.22,372.63,96.43Z"/></svg>
