<svg data-name="20" xmlns="http://www.w3.org/2000/svg" viewBox="0 0 21.07 108.95"><defs><style>.cls-1,.cls-2,.cls-5{fill:#5c6670;}.cls-2,.cls-3,.cls-5,.cls-6{stroke:#5c6670;stroke-miterlimit:10;}.cls-2{stroke-width:2px;}.cls-3{fill:#f0f0f0;}.cls-4{fill:#5c666f;}.cls-6{fill:#78cdd1;}</style></defs><title>Artboard 2</title><path class="cls-1" d="M11.45,108.95V10.87c0-.89-.34-1.62-.75-1.62h0c-.41,0-.75.72-.75,1.62v98.08Z"/><rect class="cls-2" x="4.42" y="29.21" width="1" height="3.68" rx="0.5" ry="0.5"/><rect class="cls-2" x="15.79" y="29.21" width="1" height="3.68" rx="0.5" ry="0.5"/><rect class="cls-3" x="8.03" y="14.71" width="5" height="12.5" transform="translate(21.07 41.93) rotate(-180)"/><path class="cls-4" d="M6,20.07h8.57a5.36,5.36,0,0,1,5.36,5.36v0a0,0,0,0,1,0,0H.65a0,0,0,0,1,0,0v0A5.36,5.36,0,0,1,6,20.07Z" transform="translate(20.59 45.5) rotate(180)"/><rect class="cls-3" x="0.52" y="17.57" width="19.9" height="2.85" transform="translate(20.95 37.99) rotate(-180)"/><path class="cls-5" d="M8.7,31.61h4a0,0,0,0,1,0,0V52.15a1.28,1.28,0,0,1-1.28,1.28H10A1.28,1.28,0,0,1,8.7,52.15V31.61a0,0,0,0,1,0,0Z" transform="translate(21.4 85.04) rotate(-180)"/><rect class="cls-6" x="0.5" y="31.81" width="20.07" height="19" rx="3" ry="3"/><rect class="cls-6" x="8.59" y="0.5" width="4.23" height="10.26" rx="1.5" ry="1.5"/></svg>
