<svg data-name="Layer 5" xmlns="http://www.w3.org/2000/svg" viewBox="0 0 22.61 75.46"><defs><style>.cls-1{fill:none;}.cls-1,.cls-2,.cls-3,.cls-4{stroke:#5c6670;stroke-miterlimit:10;}.cls-2{fill:#f0f0f0;}.cls-3{fill:#c4d438;}.cls-4{fill:#fa7a47;}</style></defs><title>Artboard 1</title><polyline class="cls-1" points="3.28 10.05 11.75 12.82 19.63 10.13"/><path class="cls-2" d="M11.58.5h0a1.17,1.17,0,0,1,1.17,1.17V75a0,0,0,0,1,0,0H10.41a0,0,0,0,1,0,0V1.67A1.17,1.17,0,0,1,11.58.5Z"/><line class="cls-2" x1="3.28" y1="7.53" x2="19.72" y2="7.53"/><rect class="cls-3" x="0.5" y="5.14" width="3" height="6" rx="1.5" ry="1.5"/><rect class="cls-3" x="19.11" y="5.14" width="3" height="6" rx="1.5" ry="1.5"/><line class="cls-1" x1="3.88" y1="30.34" x2="19.38" y2="30.34"/><rect class="cls-4" x="17.76" y="27.46" width="3" height="6" rx="1.5" ry="1.5"/><rect class="cls-4" x="2.43" y="27.46" width="3" height="6" rx="1.5" ry="1.5"/><rect class="cls-4" x="10.07" y="27.46" width="3" height="6" rx="1.5" ry="1.5"/></svg>
