<svg data-name="20" xmlns="http://www.w3.org/2000/svg" viewBox="0 0 14.19 71.79"><defs><style>.cls-1,.cls-4{fill:#5c6670;}.cls-2{fill:#f0f0f0;}.cls-2,.cls-4,.cls-5{stroke:#5c6670;stroke-miterlimit:10;}.cls-3{fill:#5c666f;}.cls-5{fill:#c4d438;}</style></defs><title>Artboard 1</title><path class="cls-1" d="M8,71.79V7.32c0-.59-.34-1.06-.75-1.06h0c-.41,0-.75.48-.75,1.06V71.79Z"/><rect class="cls-1" x="2.94" y="19.18" width="0.94" height="2.81" rx="0.35" ry="0.35"/><rect class="cls-1" x="10.41" y="19.18" width="0.94" height="2.81" rx="0.35" ry="0.35"/><rect class="cls-2" x="5.45" y="9.84" width="3.29" height="8.22" transform="translate(14.19 27.9) rotate(-180)"/><path class="cls-3" d="M4.12,13.37H9.76a3.52,3.52,0,0,1,3.52,3.52v0a0,0,0,0,1,0,0H.6a0,0,0,0,1,0,0v0a3.52,3.52,0,0,1,3.52-3.52Z" transform="translate(13.88 30.25) rotate(-180)"/><rect class="cls-2" x="0.51" y="11.72" width="13.08" height="1.87" transform="translate(14.11 25.32) rotate(-180)"/><path class="cls-4" d="M6.2,20.95h2a0,0,0,0,1,0,0V34.29a1,1,0,0,1-1,1h0a1,1,0,0,1-1-1V20.95A0,0,0,0,1,6.2,20.95Z" transform="translate(14.41 56.24) rotate(-180)"/><rect class="cls-5" x="0.5" y="20.78" width="13.19" height="13.08" rx="2.25" ry="2.25"/><rect class="cls-5" x="5.82" y="0.5" width="2.78" height="6.75" rx="0.75" ry="0.75"/></svg>
