<svg data-name="Layer 5" xmlns="http://www.w3.org/2000/svg" viewBox="0 0 29.1 97.83"><defs><style>.cls-1{fill:none;}.cls-1,.cls-2,.cls-3,.cls-4{stroke:#5c6670;stroke-miterlimit:10;}.cls-2{fill:#f0f0f0;}.cls-3{fill:#fa7a47;}.cls-4{fill:#c4d438;}</style></defs><title>Artboard 1</title><polyline class="cls-1" points="4.12 12.92 15.13 16.52 25.38 13.03"/><path class="cls-2" d="M14.56.5h.71a1.17,1.17,0,0,1,1.17,1.17V97.33a0,0,0,0,1,0,0H13.39a0,0,0,0,1,0,0V1.67A1.17,1.17,0,0,1,14.56.5Z"/><line class="cls-2" x1="4.12" y1="9.64" x2="25.49" y2="9.64"/><rect class="cls-3" x="0.5" y="6.53" width="3.9" height="7.8" rx="1.5" ry="1.5"/><rect class="cls-3" x="24.7" y="6.53" width="3.9" height="7.8" rx="1.5" ry="1.5"/><line class="cls-1" x1="4.9" y1="39.31" x2="25.05" y2="39.31"/><rect class="cls-4" x="22.95" y="35.56" width="3.9" height="7.8" rx="1.5" ry="1.5"/><rect class="cls-4" x="3.01" y="35.56" width="3.9" height="7.8" rx="1.5" ry="1.5"/><rect class="cls-4" x="12.94" y="35.56" width="3.9" height="7.8" rx="1.5" ry="1.5"/></svg>
