<svg data-name="Layer 1" xmlns="http://www.w3.org/2000/svg" xmlns:xlink="http://www.w3.org/1999/xlink" viewBox="0 0 2078 899" role="presentation"><defs><style>.cls-1{fill:url(#linear-gradient);}</style><linearGradient x1="1039" y1="899" x2="1039" gradientUnits="userSpaceOnUse"><stop offset="0.35" stop-color="#ddeeef"/><stop offset="1" stop-color="#a9dee1"/></linearGradient></defs><title>Artboard 1</title><path class="cls-1" d="M2036.1,308.72c-18-12.8-42.5-29-68.3-25.7-10.4-5.8-19-12.8-29.4-18.2-8.1-.6-4.7,2.2-14.7.8-23.6-10.8-40.6-21.9-63-31-3.6-6.4-24.7-42.2-56.2-52-42.7-2-53.8-24.7-102.1-22.3,1.4,7.7-19.4,12.8-44.9,13.8-36.1-21.7-235.4-12.3-243,4.2,17.1,2.2,20-4.3,21.7-5.6,9.9,10.6-27.7,30.1-38.6,27.2-12.7.2-15.2,4.6-21.9,7.4-14.7-.3-23.8-3.7-34.9-5.9-4.4-2,8.9-5.8,3.6-6-17.6-1.6-37.9-15.3-54.7-7.1,5.1,5.5,20-.7,25.2,5.8-44.1-.1-120.8-12.7-161.3,4.4-39.3,21.9-102,33.9-154.7,51.8-5.3,23.6-8.2,45.7,1.5,68.9-36.3-4.2-93.2-13.5-104.4-20.1-14.7-8.6-31-20.9-31.8-33.4-21-6.6-16.8-26.8-38.2-32.7-5.4-30.4-32.7-49.6-94.6-53.2-32.2,1.3-34.6,19.3-58.1,26-24.6-9.2-65.4-13-68.1-28.8-2-11.7,6.5-20.6-6.7-28.8-28.4-6.5-37.8-20-52.4-31.2-29.5-.8-55.2-3-81.4-5-5.9,3.1-8.5,8.2-12.2,12.7-77.2-4.3-136.9-7.7-179.5-21.4-32.3-10.4-63-23.2-98.1-32.3.6-3.1,7.2-2.3,9.1-4.6-34.4-3.2-79.5-3-107.5-8,17.5-16.9,17-27.9-10.3-30.8-2.8-2,3.4-1.9,5.1-5.3-27.6-4.7-17-20.2-61.4-19.7A2.23,2.23,0,0,1,9.45,0H0V899H2078V302l-1.88-.7C2065.42,300.67,2046.21,306.75,2036.1,308.72Z"/></svg>
