<svg xmlns="http://www.w3.org/2000/svg" viewBox="0 0 2090 719.42" role="presentation"><defs><style>.cls-1{fill:#f1f5f5;}.cls-2{fill:#eceef2;}.cls-12,.cls-13,.cls-3,.cls-8{fill:none;}.cls-10,.cls-11,.cls-12,.cls-13,.cls-3,.cls-4,.cls-6,.cls-7{stroke:#5c6670;}.cls-10,.cls-11,.cls-12,.cls-13,.cls-3,.cls-4,.cls-6,.cls-7,.cls-8{stroke-miterlimit:10;}.cls-10,.cls-11,.cls-12,.cls-3,.cls-4,.cls-6,.cls-7{stroke-width:2px;}.cls-4{fill:#f0f0f0;}.cls-11,.cls-5{fill:#c7d4e2;}.cls-6{fill:#fa7a47;}.cls-7{fill:#c4d438;}.cls-8{stroke:#c7d4e2;stroke-width:8px;}.cls-9{fill:#5c6670;}.cls-10{fill:#78cdd1;}.cls-12{stroke-linecap:round;}.cls-13{stroke-width:4px;}</style></defs><title>Artboard 1</title><g data-name="BG Elements"><polygon class="cls-1" points="640 309.42 534 309.42 534 719.42 1564 719.42 1564 649.42 1486 649.42 1486 525.42 1352 525.42 1352 171.42 1134 171.42 1134 571.42 1102 571.42 1102 451.42 904 451.42 904 243.42 640 243.42 640 309.42"/></g><g data-name="Layer 5"><path class="cls-2" d="M1094.24,84.39a74.17,74.17,0,0,0-148.35,0"/><path class="cls-2" d="M1139.13,84.39a35.13,35.13,0,1,0-70.27,0"/><path class="cls-2" d="M1033.73,84.39a64.41,64.41,0,1,0-128.83,0"/><path class="cls-2" d="M1127.42,84.39a13.66,13.66,0,1,1,27.33,0s-275.22,3.9-275.22,0a19.52,19.52,0,1,1,39,0"/><polyline class="cls-3" points="1858.85 93.02 1940.46 119.69 2016.41 93.83"/><polyline class="cls-3" points="1858.85 59.09 1940.46 85.75 2016.41 59.9"/><path class="cls-4" d="M1938.84,1h0a11.31,11.31,0,0,1,11.31,11.31V718.42a0,0,0,0,1,0,0h-22.62a0,0,0,0,1,0,0V12.31A11.31,11.31,0,0,1,1938.84,1Z"/><rect class="cls-5" x="1960.96" y="69.59" width="18.78" height="44.44" rx="5.04" ry="5.04"/><rect class="cls-5" x="1894.71" y="69.59" width="18.78" height="44.44" rx="5.04" ry="5.04"/><line class="cls-4" x1="1858.85" y1="59.09" x2="2017.22" y2="59.09"/><line class="cls-4" x1="2017.22" y1="93.02" x2="1858.85" y2="93.02"/><rect class="cls-4" x="1854" y="50.2" width="28.28" height="57.37" rx="6.5" ry="6.5"/><rect class="cls-4" x="1993.79" y="50.2" width="27.47" height="57.37" rx="6.5" ry="6.5"/><rect class="cls-4" x="1926.72" y="48.58" width="24.24" height="57.37" rx="6.5" ry="6.5"/><rect class="cls-4" x="1926.72" y="45.35" width="24.24" height="57.37" rx="6.5" ry="6.5"/><rect class="cls-6" x="1854" y="47.77" width="24.24" height="57.37" rx="6.5" ry="6.5"/><rect class="cls-6" x="1997.83" y="47.77" width="24.24" height="57.37" rx="6.5" ry="6.5"/><line class="cls-7" x1="1885.51" y1="282.09" x2="1993.05" y2="282.09"/><rect class="cls-7" x="1977.96" y="265.52" width="14.68" height="34.75" rx="3.94" ry="3.94"/><rect class="cls-7" x="1885.45" y="265.52" width="14.68" height="34.75" rx="3.94" ry="3.94"/><rect class="cls-7" x="1931.5" y="265.52" width="14.68" height="34.75" rx="3.94" ry="3.94"/><rect class="cls-4" x="1881.07" y="705.15" width="115.95" height="13.28"/><line class="cls-4" x1="2090" y1="718.42" x2="363" y2="718.42"/><path class="cls-8" d="M626,605.42v-31a19,19,0,0,1,19-19h43"/><path class="cls-9" d="M559.5,666.92H568a0,0,0,0,1,0,0v15a0,0,0,0,1,0,0h-8.5a4.5,4.5,0,0,1-4.5-4.5v-6A4.5,4.5,0,0,1,559.5,666.92Z"/><rect class="cls-10" x="704" y="355.91" width="11" height="51"/><rect class="cls-9" x="730" y="387.42" width="316" height="331"/><path class="cls-9" d="M1069.5,647.92h8.5a0,0,0,0,1,0,0v15a0,0,0,0,1,0,0h-8.5a4.5,4.5,0,0,1-4.5-4.5v-6A4.5,4.5,0,0,1,1069.5,647.92Z" transform="translate(2143 1310.85) rotate(180)"/><rect class="cls-10" x="660" y="406.42" width="408" height="312"/><rect class="cls-7" x="562" y="590.42" width="98" height="128"/><polyline class="cls-11" points="781 717.84 781 590.34 946.33 590.34 946.33 717.84"/><line class="cls-4" x1="863" y1="717.99" x2="863" y2="591.42"/><rect class="cls-4" x="849" y="653.42" width="4" height="16"/><rect class="cls-4" x="871" y="653.42" width="4" height="16"/><rect class="cls-9" x="642" y="590.42" width="18" height="128"/><line class="cls-4" x1="579" y1="618.42" x2="624" y2="618.42"/><line class="cls-4" x1="579" y1="625.42" x2="624" y2="625.42"/><line class="cls-4" x1="579" y1="633.42" x2="624" y2="633.42"/><line class="cls-4" x1="579" y1="640.42" x2="624" y2="640.42"/><line class="cls-4" x1="579" y1="647.42" x2="624" y2="647.42"/><line class="cls-12" x1="661.33" y1="478.42" x2="712" y2="478.42"/><line class="cls-12" x1="1016.33" y1="539.92" x2="1067" y2="539.92"/><line class="cls-12" x1="1037" y1="550.92" x2="1066.5" y2="550.92"/><line class="cls-12" x1="661.33" y1="488.92" x2="692" y2="488.92"/><path class="cls-13" d="M1076,655.92h181.63a6.38,6.38,0,0,1,6.38,6.38v5.5a6.38,6.38,0,0,0,6.38,6.38H1928"/><path class="cls-13" d="M557,674.42H248.5a7.5,7.5,0,0,0-7.5,7.5v1a7.5,7.5,0,0,1-7.5,7.5H0"/></g></svg>