<svg width="803.71" height="740.55" data-name="Layer 6" xmlns="http://www.w3.org/2000/svg" xmlns:xlink="http://www.w3.org/1999/xlink" viewBox="0 0 803.71 740.55" role="presentation"><defs><style>.cls-1,.cls-15,.cls-17,.cls-19,.cls-4{fill:none;}.cls-2,.cls-20,.cls-24{fill:#d1e42d;}.cls-13,.cls-3{fill:#c7d4e2;}.cls-4{stroke:#78cdd1;stroke-linecap:round;stroke-width:40px;}.cls-10,.cls-15,.cls-17,.cls-21,.cls-22,.cls-24,.cls-4,.cls-7{stroke-miterlimit:10;}.cls-23,.cls-5,.cls-8{fill:#fff;}.cls-6,.cls-7{fill:#ffdfb9;}.cls-10,.cls-12,.cls-13,.cls-14,.cls-15,.cls-17,.cls-19,.cls-20,.cls-21,.cls-22,.cls-24,.cls-6,.cls-7,.cls-8,.cls-9{stroke:#5c6670;}.cls-12,.cls-13,.cls-14,.cls-19,.cls-20,.cls-6,.cls-8,.cls-9{stroke-linejoin:round;}.cls-10,.cls-12,.cls-13,.cls-14,.cls-15,.cls-19,.cls-20,.cls-21,.cls-22,.cls-24,.cls-6,.cls-7,.cls-8,.cls-9{stroke-width:2px;}.cls-10,.cls-9{fill:#f0f0f0;}.cls-11{clip-path:url(#clip-path);}.cls-12{fill:#78cdd1;}.cls-14,.cls-18{fill:#5c6670;}.cls-16{clip-path:url(#clip-path-2);}.cls-21{fill:#ff8c00;}.cls-22{fill:#546fc3;}.cls-23{opacity:0.3;}</style><clipPath><rect class="cls-1" x="123.22" y="1" width="493.67" height="404.18"/></clipPath><clipPath><path class="cls-1" d="M395.91,176.8h0c-3.92,0-6.89-4.23-6.19-8.84l2.7-17.89h7.5l2.23,18.13C402.69,172.73,399.75,176.8,395.91,176.8Z"/></clipPath></defs><title>Artboard 1</title><circle class="cls-2" cx="287.38" cy="349.38" r="15"/><circle class="cls-3" cx="114.19" cy="149.55" r="15"/><line class="cls-4" x1="195.42" y1="238.03" x2="413.19" y2="328.55"/><circle class="cls-5" cx="267.19" cy="119.55" r="12"/><path class="cls-6" d="M18.22,320,64.76,133.87c3.24-13,21.83-12.46,24.37.66l32.64,168.64Z"/><path class="cls-7" d="M567.07,382.7s8.49,37.09,29.31,55.91c2.26,17.69,9,157,15.57,300.94H802.58l-22.6-196L734.32,355.35l-165.73-35Z"/><path class="cls-6" d="M730.55,305.48,652.9,130c-5.41-12.22-23.64-8.55-23.9,4.81l-3.36,171.74Z"/><path class="cls-7" d="M192.49,368.18s-2,38-19.33,60.09c.81,18.32,18.93,164.14,37.6,311.28H20.22L10.17,563,23,369.8,180.33,307Z"/><rect class="cls-8" x="71.7" y="1" width="596.71" height="404.18" rx="29.59" ry="29.59"/><rect class="cls-9" x="123.29" y="1" width="494.54" height="404.18"/><rect class="cls-9" x="93.77" y="183.14" width="9" height="37.5" rx="4.5" ry="4.5"/><path class="cls-7" d="M104.91,428.39c23.15-42.42-18.64-94.66-18.64-94.66l5.34-105.44c.5-9.86-8.91-18.35-21-19h0c-10.33-.52-19.56,4.91-22.14,13L14.21,330.07c-24.74,60.55-3.3,238.58-3.3,238.58"/><line class="cls-10" x1="53.6" y1="268.82" x2="32.82" y2="268.39"/><path class="cls-10" d="M49.52,220.52l11,.3a9.32,9.32,0,0,1,9,10.66h0a9.85,9.85,0,0,1-10.79,8.37l-13.81-1.46Z"/><circle class="cls-10" cx="647.24" cy="216.14" r="18"/><path class="cls-7" d="M663.64,427.06c-30.06-37.85,2.2-96.45,2.2-96.45l-23.27-103C640.39,218,648.2,208,660,205.35h0c10.09-2.28,20.11,1.49,24,9.06l52.14,100.3c34.72,55.44,44,234.51,44,234.51"/><line class="cls-10" x1="686.94" y1="261.08" x2="707.34" y2="257.11"/><path class="cls-10" d="M682.71,212.78,671.9,215a9.32,9.32,0,0,0-7,12h0a9.85,9.85,0,0,0,12.06,6.41l13.35-3.8Z"/><g class="cls-11"><rect class="cls-12" x="216.41" y="117.71" width="300.74" height="177.82" rx="14.75" ry="14.75"/><path class="cls-9" d="M306.92,232.82s-6.08,20.79-16.73,17.24,1-29.91,1-29.91-17.08,16.28-12.51,30c3.55,10.65,15.25,12.94,28.66,5.08"/><polyline class="cls-13" points="412.7 177.44 421.59 202.68 414.76 208.88"/><path class="cls-10" d="M414.78,222.35v36.12a7.17,7.17,0,0,1-7.17,7.17h-4.11a7.17,7.17,0,0,1-7.12-6.31L391.85,222Z"/><path class="cls-14" d="M364.39,186.44l4.34,17.38,8.87-12a8.7,8.7,0,0,1,7-3.53h6.11a2.22,2.22,0,0,1,2.22,2.22v1.66a2.22,2.22,0,0,1-2.32,2.22l-4.82-.21-13.89,26.18a3.84,3.84,0,0,1-5.89,1.12l-13.74-11.78"/><path class="cls-13" d="M395.66,167.43h0a19.44,19.44,0,0,1,19.44,19.44v36.5a0,0,0,0,1,0,0H376.22a0,0,0,0,1,0,0v-36.5A19.44,19.44,0,0,1,395.66,167.43Z"/><rect class="cls-10" x="405.84" y="148.04" width="5.07" height="5.07" rx="2.54" ry="2.54" transform="translate(17.84 -41.59) rotate(5.96)"/><path class="cls-15" d="M406.49,150.74a3,3,0,0,1,2.63-1"/><rect class="cls-10" x="383.46" y="145.71" width="5.07" height="5.07" rx="2.54" ry="2.54" transform="translate(754.51 335.76) rotate(-174.04)"/><path class="cls-15" d="M387.24,148.39a3,3,0,0,0-2.56-1.21"/><path class="cls-10" d="M395.91,176.8h0c-3.92,0-6.89-4.23-6.19-8.84l2.7-17.89h7.5l2.23,18.13C402.69,172.73,399.75,176.8,395.91,176.8Z"/><g class="cls-16"><ellipse class="cls-14" cx="393.73" cy="152.78" rx="9.56" ry="14.13"/></g><ellipse class="cls-10" cx="397.12" cy="150.34" rx="13.07" ry="10.55" transform="translate(206.36 529.7) rotate(-84.04)"/><line class="cls-15" x1="397.52" y1="148.04" x2="397.27" y2="150.38"/><path class="cls-17" d="M393.33,148.47a2.72,2.72,0,0,1,1.92-.42"/><path class="cls-17" d="M399.63,148.37a2.72,2.72,0,0,1,1.65,1.06"/><path class="cls-14" d="M393.74,150.46a7.09,7.09,0,0,0,7.42.7s-1,3.64-4.09,3.32S393.74,150.46,393.74,150.46Z"/><path class="cls-9" d="M386.85,147.72a13.1,13.1,0,0,1-.69-5.3c.33-2.46,1.81-1.61,1.81-1.61s-1.18-4.41,1.73-5.36,3.9.72,3.9.72a4.11,4.11,0,0,1,2.71-3.54,4.65,4.65,0,0,1,4.38.61s.32-1.53,2.55-1.29a2.93,2.93,0,0,1,2.69,1.92s2.24.23,2.68,2a7.32,7.32,0,0,1,0,3.43s1.22-.5,1.74,2-2.28,9.12-2.28,9.12l-1.16-6-3.36-2.15a5.46,5.46,0,0,1-2.11-2.25s-1.61,2-3.5,1.35a7.61,7.61,0,0,1-2.8-1.62s-1,2.71-3.16,2.63a3.58,3.58,0,0,0-3.1,1.31Z"/><polyline class="cls-13" points="386.21 169.99 368.01 180.54 365.94 196.06 378.97 192.54"/><path class="cls-10" d="M368.11,191.09l-18.93,74.79H321a19.8,19.8,0,0,1-16.09-31.33l47.63-66.5Z"/><path class="cls-10" d="M414.78,223.37l1.13,23h-22l-.41-8.07-1.91-.31.31-14.9S414.91,223.23,414.78,223.37Z"/><path class="cls-10" d="M363.15,197l4.34,17.38,8.87-12a8.7,8.7,0,0,1,7-3.53h6.11a2.22,2.22,0,0,1,2.22,2.22v1.66a2.22,2.22,0,0,1-2.32,2.22l-4.82-.21-13.89,26.18a3.84,3.84,0,0,1-5.89,1.12L351,220.26"/><ellipse class="cls-14" cx="384.51" cy="219.46" rx="9.31" ry="17.41"/><path class="cls-10" d="M388.75,261.54l3.9-50a8.32,8.32,0,0,0-8.05-9h-.46a8.32,8.32,0,0,0-8.55,8.9l3.54,50.25Z"/><path class="cls-9" d="M389.37,254.87l5,8.84h-21.1l5.28-8.53S389.6,255.1,389.37,254.87Z"/><path class="cls-9" d="M394.33,263.71v2.48h-21.1v-2.48S394.18,263.87,394.33,263.71Z"/><line class="cls-9" x1="389.68" y1="247.88" x2="377.73" y2="246.49"/><path class="cls-10" d="M380.84,251.3h5.9a0,0,0,0,1,0,0v2.15a1.88,1.88,0,0,1-1.88,1.88h-2.13a1.88,1.88,0,0,1-1.88-1.88V251.3A0,0,0,0,1,380.84,251.3Z" transform="translate(767.57 506.63) rotate(-180)"/><polygon class="cls-18" points="414.35 246.64 414.35 249.44 395.58 249.44 393.87 246.33 414.35 246.64"/><path class="cls-10" d="M387.82,255.08h0a1.11,1.11,0,0,0-1.59-1l-5.2,2.5a1.11,1.11,0,0,1-1.59-1V255a1.11,1.11,0,0,1,1.53-1l5.32,2.17A1.11,1.11,0,0,0,387.82,255.08Z"/><path class="cls-10" d="M375.56,159.13s6.83-2.17,9.31-3.1,4-.62,5.59,1.55c.25.36.51.7.76,1a1.09,1.09,0,0,1-1.16,1.73l-4.1-1.15"/><path class="cls-10" d="M352.53,168.06,362,151.55a9.66,9.66,0,0,1,4.1-3.84l16.94-8.34a1.56,1.56,0,0,1,2.24,1.3l.51,8.08a5.57,5.57,0,0,1-3.15,5.38l-11.05,5.3,14.32-.26-12.53,8.06-5.31,23.86Z"/><path class="cls-10" d="M368.66,150a3.69,3.69,0,0,1,2.86-2.1"/><path class="cls-10" d="M366.56,151.37s1.86,15.83,0,18.31-5.59,3.41-8.38,2.79,1.24-14.28,1.24-14.28"/><path class="cls-10" d="M381.15,140.82a3.19,3.19,0,0,0,4,2.79"/><path class="cls-10" d="M372.18,171.2a32.1,32.1,0,0,1,.28,6.86c-.31,3.1-2.48-1.24-2.48-1.24s1.86,6.52,1.55,9-3.41.31-3.41.31"/><path class="cls-10" d="M324,240.57s5.58-14.52,22-16.75,12.66,22,6.33,29.78l-4.47,6.33h10.3a4.59,4.59,0,0,1,4.59,4.59h0a1.37,1.37,0,0,1-1.37,1.37H326.7"/><polygon class="cls-10" points="352.28 167.82 349.18 172.47 367.18 194.5 368.73 188.61 352.28 167.82"/><path class="cls-9" d="M347.11,174.54l-2.26-.13a2,2,0,0,0-2,1.29l-3.19,8.23a.76.76,0,0,0,.25.89l2.19,1.64a2.25,2.25,0,0,0,2.86-.13l5-4.55h2a1.28,1.28,0,0,0,1.21-.87h0a1.28,1.28,0,0,0-.57-1.51L346.7,176Z"/><path class="cls-9" d="M409.08,196.68l6.46,17.71a5.53,5.53,0,0,0,7.15,3.28h0a5.53,5.53,0,0,0,2.76-8.06l-9.24-15.1Z"/><rect class="cls-9" x="365.13" y="194.09" width="3.93" height="3.93" transform="translate(-31.12 317) rotate(-45)"/><path class="cls-9" d="M409.93,197a4.19,4.19,0,0,1-3.09-1.8l-3.5-5.08a1.3,1.3,0,0,1,.34-1.81h0a1.3,1.3,0,0,1,1.51,0l3.47,2.62-1.59-11.69a.76.76,0,0,1,1.33-.61l6.53,7.27a7.66,7.66,0,0,1,2,5.31l0,1.89A4.19,4.19,0,0,1,414,197"/><path class="cls-9" d="M278.53,228.76S274,234.85,276,238.9"/><path class="cls-9" d="M298.31,227.75s1.52,5.58-1.52,8.62"/><line class="cls-9" x1="269.41" y1="265.77" x2="473.72" y2="265.77"/><circle class="cls-10" cx="361.24" cy="268.27" r="5.24"/><line class="cls-10" x1="366.48" y1="273.51" x2="341.83" y2="273.51"/><line class="cls-10" x1="340.28" y1="273.51" x2="336.9" y2="273.51"/><path class="cls-9" d="M303.61,253.79a15.91,15.91,0,0,0,.92,5.24c.92,2.16,2-.77,2-.77s-.46,3.54.31,5.24,2.47-.62,2.47-.62a3.21,3.21,0,0,0,1.54,1.85c1.39.92,3.85-.62,3.85-.62"/><path class="cls-9" d="M366,216l.78-1.37a.61.61,0,0,1,1.11.12l.43,1.4"/><path class="cls-19" d="M388.55,169.22v1.85a7.4,7.4,0,0,0,7.4,7.4h0a7.4,7.4,0,0,0,7.4-7.4v-1.85"/><circle class="cls-20" cx="377.03" cy="202.93" r="28.68"/><polygon class="cls-9" points="393.41 202.93 366.37 187.32 366.37 218.54 393.41 202.93"/><polyline class="cls-12" points="220.89 244.72 190.57 263.57 221.71 263.57"/><rect class="cls-20" x="217.23" y="-31.43" width="300.74" height="113.08" rx="14.75" ry="14.75" transform="translate(735.2 50.22) rotate(-180)"/><polyline class="cls-20" points="513.5 30.85 543.82 49.69 512.68 49.69"/><rect class="cls-8" x="216.41" y="317.2" width="120.34" height="66.93" rx="14.75" ry="14.75"/><polyline class="cls-8" points="220.89 352.72 190.57 371.56 221.71 371.56"/><circle class="cls-9" cx="252.76" cy="351.13" r="6"/><circle class="cls-9" cx="275.26" cy="351.13" r="6"/><circle class="cls-9" cx="297.76" cy="351.13" r="6"/><circle class="cls-21" cx="164.21" cy="265.55" r="16"/><circle class="cls-22" cx="570.67" cy="46.55" r="16"/><line class="cls-22" x1="243.76" y1="36.15" x2="477.75" y2="36.15"/><line class="cls-22" x1="243.76" y1="22.15" x2="477.75" y2="22.15"/><polygon class="cls-23" points="356.26 453.13 278.26 453.13 681.74 -89.85 759.74 -89.85 356.26 453.13"/><circle class="cls-24" cx="164.21" cy="366.04" r="16"/></g><rect class="cls-19" x="123.22" y="1" width="494.71" height="404.18"/><path class="cls-19" d="M8.62,543s84.73-54.32,176.78-20.85"/><circle class="cls-9" cx="11" cy="541.3" r="10" transform="translate(-69.36 5.89) rotate(-7.37)"/></svg>
