<?xml version="1.0" encoding="utf-8"?>
<!-- Generator: Adobe Illustrator 21.0.2, SVG Export Plug-In . SVG Version: 6.00 Build 0)  -->
<svg version="1.1" xmlns="http://www.w3.org/2000/svg" xmlns:xlink="http://www.w3.org/1999/xlink" x="0px" y="0px"
	 viewBox="0 0 2205 718.4" style="enable-background:new 0 0 2205 718.4;" xml:space="preserve" role="presentation">
<style type="text/css">
	.st0{opacity:0.24;}
	.st1{fill:none;stroke:#5C6670;stroke-miterlimit:10;}
	.st2{fill:#5C666F;}
	.st3{fill:#5C666F;stroke:#5C6670;stroke-miterlimit:10;}
	.st4{fill:#F0F0F0;stroke:#5C6670;stroke-width:2;stroke-miterlimit:10;}
	.st5{fill:#DCE2E2;}
	.st6{fill:#F1F5F5;}
	.st7{fill:#E5EAEA;}
	.st8{fill:none;stroke:#C4D438;stroke-width:2;stroke-linecap:round;stroke-miterlimit:10;}
	.st9{fill:#5C6670;stroke:#5C6670;stroke-width:2;stroke-miterlimit:10;}
	.st10{fill:#D1E42D;}
	.st11{fill:#78CDD1;stroke:#5C6670;stroke-width:2;stroke-miterlimit:10;}
</style>
<title>Artboard 1</title>
<g>
	<g class="st0">
		<polyline class="st1" points="134.6,502 158.9,508.7 182,502.2 		"/>
		<polyline class="st1" points="134.6,493.4 158.9,500.1 182,493.6 		"/>
		<path class="st2" d="M158.4,482.7L158.4,482.7c0.8,0,1.4,0.6,1.4,1.4l0,0v131.2l0,0h-2.9l0,0V484.1
			C157,483.3,157.6,482.7,158.4,482.7z"/>
		<path class="st2" d="M164.2,495.4L164.2,495.4c1,0,1.7,0.8,1.7,1.7v4.7c0,1-0.8,1.7-1.7,1.7l0,0c-1,0-1.7-0.8-1.7-1.7v-4.7
			C162.5,496.1,163.3,495.4,164.2,495.4z"/>
		<path class="st2" d="M152,495.4L152,495.4c1,0,1.7,0.8,1.7,1.7v4.7c0,1-0.8,1.7-1.7,1.7l0,0c-1,0-1.7-0.8-1.7-1.7v-4.7
			C150.2,496.1,151,495.4,152,495.4z"/>
		<line class="st1" x1="138.6" y1="493.4" x2="177.9" y2="493.4"/>
		<line class="st1" x1="177.9" y1="499.7" x2="138.6" y2="499.7"/>
		<path class="st3" d="M158.4,490.9L158.4,490.9c1.2,0,2.2,1,2.2,2.2v6.1c0,1.2-1,2.2-2.2,2.2h0c-1.2,0-2.2-1-2.2-2.2v-6.1
			C156.1,491.9,157.2,490.9,158.4,490.9z"/>
		<path class="st2" d="M136.7,488.8L136.7,488.8c1.7,0,3,1.3,3,3v13c0,1.7-1.3,3-3,3l0,0c-1.7,0-3-1.3-3-3v-13
			C133.7,490.1,135.1,488.8,136.7,488.8z"/>
		<path class="st2" d="M180.1,488.8L180.1,488.8c1.7,0,3,1.3,3,3v13c0,1.7-1.3,3-3,3l0,0c-1.7,0-3-1.3-3-3v-13
			C177.1,490.1,178.4,488.8,180.1,488.8z"/>
		<line class="st1" x1="146" y1="534.7" x2="171.7" y2="534.7"/>
		<path class="st2" d="M171,531.6L171,531.6c0.8,0,1.4,0.6,1.4,1.4v3.7c0,0.8-0.6,1.4-1.4,1.4l0,0c-0.8,0-1.4-0.6-1.4-1.4v-3.7
			C169.6,532.2,170.2,531.6,171,531.6z"/>
		<path class="st2" d="M145.9,531.6L145.9,531.6c0.8,0,1.4,0.6,1.4,1.4v3.7c0,0.8-0.6,1.4-1.4,1.4l0,0c-0.8,0-1.4-0.6-1.4-1.4v-3.7
			C144.5,532.2,145.1,531.6,145.9,531.6z"/>
		<path class="st2" d="M158.4,529L158.4,529c1.2,0,2.2,1,2.2,2.2v6.1c0,1.2-1,2.2-2.2,2.2h0c-1.2,0-2.2-1-2.2-2.2v-6.1
			C156.1,530,157.2,529,158.4,529z"/>
		<rect x="147.7" y="613.7" class="st4" width="21.4" height="1.6"/>
	</g>
	<g class="st0">
		<polyline class="st1" points="251.6,465.5 275.9,472.2 299,465.7 		"/>
		<polyline class="st1" points="251.6,456.9 275.9,463.6 299,457.1 		"/>
		<path class="st2" d="M275.4,446.2L275.4,446.2c0.8,0,1.4,0.6,1.4,1.4l0,0v131.2l0,0h-2.9l0,0V447.6
			C273.9,446.8,274.6,446.2,275.4,446.2z"/>
		<path class="st2" d="M281.2,458.9L281.2,458.9c1,0,1.7,0.8,1.7,1.7v4.7c0,1-0.8,1.7-1.7,1.7h0c-1,0-1.7-0.8-1.7-1.7v-4.7
			C279.5,459.6,280.2,458.9,281.2,458.9z"/>
		<path class="st2" d="M269,458.9L269,458.9c1,0,1.7,0.8,1.7,1.7v4.7c0,1-0.8,1.7-1.7,1.7h0c-1,0-1.7-0.8-1.7-1.7v-4.7
			C267.2,459.6,268,458.9,269,458.9z"/>
		<line class="st1" x1="255.6" y1="456.9" x2="294.9" y2="456.9"/>
		<line class="st1" x1="294.9" y1="463.2" x2="255.6" y2="463.2"/>
		<path class="st3" d="M275.4,454.4L275.4,454.4c1.2,0,2.2,1,2.2,2.2v6.1c0,1.2-1,2.2-2.2,2.2h0c-1.2,0-2.2-1-2.2-2.2v-6.1
			C273.1,455.4,274.1,454.4,275.4,454.4z"/>
		<path class="st2" d="M253.7,452.3L253.7,452.3c1.7,0,3,1.3,3,3v13c0,1.7-1.3,3-3,3h0c-1.7,0-3-1.3-3-3v-13
			C250.7,453.6,252.1,452.3,253.7,452.3z"/>
		<path class="st2" d="M297.1,452.3L297.1,452.3c1.7,0,3,1.3,3,3v13c0,1.7-1.3,3-3,3l0,0c-1.7,0-3-1.3-3-3v-13
			C294.1,453.6,295.4,452.3,297.1,452.3z"/>
		<line class="st1" x1="263" y1="498.2" x2="288.7" y2="498.2"/>
		<path class="st2" d="M288,495.1L288,495.1c0.8,0,1.4,0.6,1.4,1.4v3.7c0,0.8-0.6,1.4-1.4,1.4h0c-0.8,0-1.4-0.6-1.4-1.4v-3.7
			C286.6,495.7,287.2,495.1,288,495.1z"/>
		<path class="st2" d="M262.9,495.1L262.9,495.1c0.8,0,1.4,0.6,1.4,1.4v3.7c0,0.8-0.6,1.4-1.4,1.4h0c-0.8,0-1.4-0.6-1.4-1.4v-3.7
			C261.5,495.7,262.1,495.1,262.9,495.1z"/>
		<path class="st2" d="M275.4,492.5L275.4,492.5c1.2,0,2.2,1,2.2,2.2v6.1c0,1.2-1,2.2-2.2,2.2h0c-1.2,0-2.2-1-2.2-2.2v-6.1
			C273.1,493.5,274.1,492.5,275.4,492.5z"/>
		<rect x="264.7" y="577.2" class="st4" width="21.4" height="1.6"/>
	</g>
	<path class="st5" d="M0,719.2v-58.4c60-47.2,147.6-100.4,264.1-102c206.6-3,275,86.6,383.2,159.9L0,719.2z"/>
	<polygon class="st6" points="1618.6,468.6 1818,468.6 1818,718.6 558,718.6 558,524.2 603,524.4 603,404.4 760.7,404.5
		760.7,524.5 795,524.6 795,217.6 1053,217.6 1053,586.6 1171.6,586.3 1171.6,718.6 1618.6,718.6 1618.6,585.6 1618.6,585.2 	"/>
	<rect x="1759.6" y="552.2" class="st6" width="445.5" height="166.5"/>
</g>
<g>
	<path class="st7" d="M1607.7,56.8c0-24.9,20.1-45,45-45s45,20.1,45,45"/>
	<path class="st7" d="M1580.5,56.8c-0.3-11.8,9.1-21.5,20.8-21.8c11.8-0.3,21.5,9.1,21.8,20.8c0,0.3,0,0.6,0,0.9"/>
	<path class="st7" d="M1644.4,56.8c0-21.6,17.5-39.1,39.1-39.1c21.6,0,39.1,17.5,39.1,39.1"/>
	<path class="st7" d="M1587.6,56.8c0-4.6-3.7-8.3-8.3-8.3c-4.6,0-8.3,3.7-8.3,8.3c0,0,166.9,2.4,166.9,0
		c-0.2-6.5-5.6-11.7-12.2-11.5c-6.3,0.2-11.3,5.2-11.5,11.5"/>
	<path class="st8" d="M1670.6,412.8c-27.1,26.8-27.3,70.6-0.5,97.7c0,0,0,0,0,0"/>
	<path class="st8" d="M1768.1,510.7c27-27,27-70.7,0-97.7c0,0,0,0,0,0"/>
	<path class="st8" d="M1681.7,423.9c-21,20.7-21.2,54.5-0.5,75.5c0,0,0,0,0,0"/>
	<path class="st8" d="M1756.9,499.6c20.8-20.8,20.8-54.6,0-75.5"/>
	<path class="st8" d="M1745.5,488.1c14.5-14.5,14.5-38,0-52.6"/>
	<path class="st8" d="M1693.2,435.3c-14.6,14.4-14.9,37.9-0.5,52.5c0,0,0,0,0,0"/>
	<path class="st9" d="M1709.5,436.1L1709.5,436.1c0.5,0,1,0.4,1,1v5.1c0,0.5-0.4,1-0.9,1h0c-0.5,0-0.9-0.4-0.9-1v-5.1
		C1708.6,436.6,1709,436.1,1709.5,436.1z"/>
	<path class="st9" d="M1731.1,436.1L1731.1,436.1c0.5,0,1,0.4,1,1v5.1c0,0.5-0.4,1-0.9,1h0c-0.5,0-0.9-0.4-0.9-1v-5.1
		C1730.2,436.6,1730.6,436.1,1731.1,436.1z"/>
	<path class="st4" d="M1723.2,718.2h-5.8l0,0v-316c0-1.6,1.3-2.9,2.9-2.9l0,0l0,0c1.6,0,2.9,1.3,2.9,2.9v0L1723.2,718.2
		L1723.2,718.2L1723.2,718.2z"/>
	<rect x="1715.5" y="409.1" class="st4" width="9" height="22.4"/>
	<path class="st10" d="M1727.3,428.3h-15.4c-5.3,0-9.6-4.3-9.6-9.6l0,0l0,0h34.6l0,0l0,0C1736.9,424,1732.6,428.3,1727.3,428.3z"/>
	<rect x="1702.1" y="414.2" class="st4" width="35.7" height="5.1"/>
	<path class="st9" d="M1723.2,483.2h-5.8l0,0v-39.4c0-1.2,0.9-2.1,2.1-2.1h1.6c1.2,0,2.1,0.9,2.1,2.1L1723.2,483.2L1723.2,483.2
		L1723.2,483.2z"/>
	<path class="st11" d="M1710.9,441.2h18.2c5.5,0,10,4.5,10,10v17.9c0,5.5-4.5,10-10,10h-18.2c-5.5,0-10-4.5-10-10v-17.9
		C1700.9,445.7,1705.4,441.2,1710.9,441.2z"/>
	<path class="st11" d="M1719.1,384.7h2.4c1.4,0,2.6,1.1,2.6,2.5v12.9c0,1.4-1.1,2.5-2.6,2.5h-2.4c-1.4,0-2.6-1.1-2.6-2.5v-12.9
		C1716.6,385.8,1717.7,384.7,1719.1,384.7z"/>
	<path class="st8" d="M874.2,412.8c-27.1,26.8-27.3,70.6-0.5,97.7c0,0,0,0,0,0"/>
	<path class="st8" d="M971.7,510.7c27-27,27-70.7,0-97.7c0,0,0,0,0,0"/>
	<path class="st8" d="M885.3,423.9c-21,20.7-21.2,54.5-0.5,75.5c0,0,0,0,0,0"/>
	<path class="st8" d="M960.5,499.6c20.8-20.8,20.8-54.6,0-75.5"/>
	<path class="st8" d="M949.1,488.1c14.5-14.5,14.5-38,0-52.6"/>
	<path class="st8" d="M896.8,435.3c-14.6,14.4-14.9,37.9-0.5,52.5c0,0,0,0,0,0"/>
	<path class="st9" d="M913.1,436.1L913.1,436.1c0.5,0,1,0.4,1,1v5.1c0,0.5-0.4,1-1,1h0c-0.5,0-1-0.4-1-1v-5.1
		C912.1,436.6,912.6,436.1,913.1,436.1z"/>
	<path class="st9" d="M934.7,436.1L934.7,436.1c0.5,0,1,0.4,1,1v5.1c0,0.5-0.4,1-1,1h0c-0.5,0-1-0.4-1-1v-5.1
		C933.8,436.6,934.2,436.1,934.7,436.1z"/>
	<path class="st4" d="M926.8,718.2H921l0,0v-316c0-1.6,1.3-2.9,2.9-2.9h0l0,0c1.6,0,2.9,1.3,2.9,2.9v0L926.8,718.2L926.8,718.2
		L926.8,718.2z"/>
	<rect x="919.1" y="409.1" class="st4" width="9" height="22.4"/>
	<path class="st10" d="M930.9,428.3h-15.4c-5.3,0-9.6-4.3-9.6-9.6l0,0l0,0h34.6l0,0l0,0C940.5,424,936.2,428.3,930.9,428.3z"/>
	<rect x="905.6" y="414.2" class="st4" width="35.7" height="5.1"/>
	<path class="st9" d="M926.8,483.2H921l0,0v-39.4c0-1.2,0.9-2.1,2.1-2.1h1.6c1.2,0,2.1,0.9,2.1,2.1L926.8,483.2L926.8,483.2z"/>
	<path class="st11" d="M914.5,441.2h18.2c5.5,0,10,4.5,10,10v17.9c0,5.5-4.5,10-10,10h-18.2c-5.5,0-10-4.5-10-10v-17.9
		C904.5,445.7,909,441.2,914.5,441.2z"/>
	<path class="st11" d="M922.7,384.7h2.4c1.4,0,2.5,1.1,2.5,2.5v12.9c0,1.4-1.1,2.5-2.5,2.5h-2.4c-1.4,0-2.5-1.1-2.5-2.5v-12.9
		C920.1,385.8,921.3,384.7,922.7,384.7z"/>
</g>
</svg>
