<svg data-name="Layer 2" xmlns="http://www.w3.org/2000/svg" xmlns:xlink="http://www.w3.org/1999/xlink" viewBox="0 0 1531.9 716.38"><defs><style>.cls-1,.cls-11,.cls-25,.cls-9{fill:none;}.cls-2,.cls-26,.cls-7{fill:#5c6670;}.cls-3{fill:#67c187;}.cls-11,.cls-12,.cls-13,.cls-14,.cls-15,.cls-16,.cls-17,.cls-18,.cls-19,.cls-20,.cls-21,.cls-22,.cls-23,.cls-24,.cls-25,.cls-26,.cls-3,.cls-4,.cls-5,.cls-6,.cls-7,.cls-8,.cls-9{stroke:#5c6670;}.cls-11,.cls-13,.cls-14,.cls-17,.cls-18,.cls-19,.cls-20,.cls-24,.cls-26,.cls-3,.cls-4,.cls-9{stroke-miterlimit:10;}.cls-12,.cls-13,.cls-14,.cls-15,.cls-16,.cls-17,.cls-18,.cls-19,.cls-20,.cls-21,.cls-22,.cls-23,.cls-24,.cls-25,.cls-26,.cls-3,.cls-4,.cls-5,.cls-6,.cls-7,.cls-8,.cls-9{stroke-width:2px;}.cls-21,.cls-4{fill:#ffdfb9;}.cls-13,.cls-5{fill:#edc964;}.cls-12,.cls-15,.cls-16,.cls-21,.cls-22,.cls-23,.cls-25,.cls-5,.cls-6,.cls-7,.cls-8{stroke-linejoin:round;}.cls-6{fill:#c7d4e2;}.cls-20,.cls-8{fill:#78cdd1;}.cls-10{clip-path:url(#clip-path);}.cls-12{fill:#ffe042;}.cls-14{fill:#c4d438;}.cls-15,.cls-17{fill:#ed4c6b;}.cls-16{fill:#fff;}.cls-18,.cls-23,.cls-27{fill:#f0f0f0;}.cls-19{fill:#e53939;}.cls-22{fill:#c5d2df;}.cls-24{fill:#fa7a47;}.cls-28{opacity:0.5;}.cls-29{clip-path:url(#clip-path-2);}.cls-30,.cls-32{font-size:18px;}.cls-30{fill:#999;font-family:SourceSansPro-Regular, Source Sans Pro;}.cls-31{letter-spacing:-0.01em;}.cls-32{font-family:SourceSansPro-Semibold, Source Sans Pro;font-weight:700;}.cls-33{letter-spacing:-0.04em;}</style><clipPath><path class="cls-1" d="M912.75,123.4h0c-10.7,0-18.79-11.55-16.9-24.11l7.36-48.8h20.46L929.74,100C931.26,112.31,923.22,123.4,912.75,123.4Z"/></clipPath><clipPath><path class="cls-1" d="M1105.35,205.1h0c-7.19,0-12.63-7.76-11.36-16.21l4.95-32.8h13.75l4.08,33.24C1117.79,197.65,1112.39,205.1,1105.35,205.1Z"/></clipPath></defs><title>Artboard 1</title><rect class="cls-2" x="448.8" y="103.63" width="28.71" height="124.39"/><rect class="cls-3" x="10.57" y="113.2" width="505.21" height="51.67" rx="6.18" ry="6.18"/><rect class="cls-3" x="31.62" y="241.42" width="28.71" height="124.39"/><rect class="cls-3" x="477.51" y="241.42" width="28.71" height="124.39"/><rect class="cls-2" x="31.62" y="241.42" width="28.71" height="19.67"/><rect class="cls-2" x="477.51" y="241.42" width="28.71" height="19.67"/><rect class="cls-3" x="10.57" y="170.61" width="505.21" height="51.67" rx="6.18" ry="6.18"/><rect class="cls-3" x="1" y="228.66" width="532" height="13.4" rx="6.7" ry="6.7"/><circle class="cls-2" cx="71.81" cy="136.17" r="5.74"/><circle class="cls-2" cx="71.81" cy="195.49" r="5.74"/><circle class="cls-2" cx="464.11" cy="136.17" r="5.74"/><circle class="cls-2" cx="464.11" cy="195.49" r="5.74"/><polygon class="cls-4" points="810.63 715.38 909.45 438.11 1085.67 438.11 1011.9 715.38 810.63 715.38"/><path class="cls-5" d="M670,276.24s-16.6,56.71-45.64,47,2.77-81.6,2.77-81.6S580.52,286.08,593,323.43c9.68,29,41.61,35.31,78.18,13.87"/><polyline class="cls-6" points="958.55 125.15 982.82 194.01 964.2 210.95"/><path class="cls-4" d="M964.22,247.69v98.53a19.57,19.57,0,0,1-19.57,19.57H933.43A19.57,19.57,0,0,1,914,348.58L901.69,246.84Z"/><path class="cls-7" d="M826.76,149.71l11.85,47.41,24.21-32.71a23.74,23.74,0,0,1,19.08-9.62h16.68a6.07,6.07,0,0,1,6.07,6.07v4.53a6.07,6.07,0,0,1-6.33,6.06l-13.14-.57-37.89,71.42a10.47,10.47,0,0,1-16.06,3L793.74,213.2"/><path class="cls-8" d="M912.07,97.86h0a53,53,0,0,1,53,53v99.57a0,0,0,0,1,0,0H859a0,0,0,0,1,0,0V150.89a53,53,0,0,1,53-53Z"/><rect class="cls-4" x="939.84" y="44.96" width="13.83" height="13.83" rx="6.92" ry="6.92" transform="translate(10.5 -98.03) rotate(5.96)"/><path class="cls-9" d="M941.63,52.31s3.06-3.65,7.18-2.83"/><rect class="cls-4" x="878.79" y="38.59" width="13.83" height="13.83" rx="6.92" ry="6.92" transform="translate(1761.89 182.72) rotate(-174.04)"/><path class="cls-9" d="M889.12,45.92s-2.81-3.85-7-3.31"/><path class="cls-4" d="M912.75,123.4h0c-10.7,0-18.79-11.55-16.9-24.11l7.36-48.8h20.46L929.74,100C931.26,112.31,923.22,123.4,912.75,123.4Z"/><g class="cls-10"><ellipse class="cls-7" cx="906.81" cy="57.87" rx="26.08" ry="38.54"/></g><ellipse class="cls-4" cx="916.06" cy="51.23" rx="35.66" ry="28.79" transform="translate(769.99 957.01) rotate(-84.04)"/><line class="cls-9" x1="917.14" y1="44.95" x2="916.47" y2="51.34"/><path class="cls-11" d="M905.7,46.13A7.42,7.42,0,0,1,910.93,45"/><path class="cls-11" d="M922.9,45.87a7.42,7.42,0,0,1,4.51,2.88"/><path class="cls-7" d="M906.84,51.56s9.42,7.58,20.23,1.9c0,0-2.74,9.93-11.16,9S906.84,51.56,906.84,51.56Z"/><path class="cls-12" d="M888,44.07s-2.81-7.74-1.9-14.46,4.93-4.38,4.93-4.38-3.21-12,4.72-14.62,10.65,2,10.65,2,.33-7.2,7.39-9.66a12.69,12.69,0,0,1,12,1.67s.86-4.17,7-3.53,7.33,5.23,7.33,5.23,6.11.64,7.31,5.44a20,20,0,0,1-.12,9.35s3.33-1.35,4.76,5.39-6.22,24.89-6.22,24.89l-3.17-16.5L933.45,29a14.91,14.91,0,0,1-5.74-6.13s-4.4,5.5-9.54,3.69a20.77,20.77,0,0,1-7.63-4.41s-2.69,7.38-8.62,7.19-8.46,3.59-8.46,3.59Z"/><polyline class="cls-8" points="886.3 104.83 836.63 133.62 830.99 175.95 866.55 166.36"/><path class="cls-13" d="M836.92,162.41l-51.65,204H708.36c-44,0-69.51-49.72-43.91-85.46L794.4,99.57Z"/><path class="cls-14" d="M964.22,250.46l3.08,62.65H907.19l-1.13-22-5.22-.85.85-40.64S964.59,250.09,964.22,250.46Z"/><path class="cls-13" d="M826.31,174.08l11.85,47.41,24.21-32.71a23.74,23.74,0,0,1,19.08-9.62h16.68a6.07,6.07,0,0,1,6.07,6.07v4.53a6.07,6.07,0,0,1-6.33,6.06l-13.14-.57-37.89,71.42a10.47,10.47,0,0,1-16.06,3l-37.48-32.13"/><ellipse class="cls-7" cx="881.65" cy="239.81" rx="25.4" ry="47.49"/><path class="cls-4" d="M893.22,354.59l10.64-136.47a22.71,22.71,0,0,0-22-24.46l-1.26,0a22.71,22.71,0,0,0-23.32,24.29L867,355Z"/><path class="cls-15" d="M894.91,336.39l13.55,24.13H850.89l14.39-23.28S895.55,337,894.91,336.39Z"/><path class="cls-15" d="M908.46,360.52v6.77H850.89v-6.77S908,360.94,908.46,360.52Z"/><polygon class="cls-16" points="895.76 317.34 863.16 313.53 865.28 337.24 894.91 336.39 895.76 317.34"/><path class="cls-17" d="M871.63,326.65h16.09a0,0,0,0,1,0,0v5.86a5.14,5.14,0,0,1-5.14,5.14h-5.8a5.14,5.14,0,0,1-5.14-5.14v-5.86A0,0,0,0,1,871.63,326.65Z" transform="translate(1759.35 664.32) rotate(-180)"/><polygon class="cls-2" points="963.07 313.95 963.07 321.57 911.85 321.57 907.19 313.11 963.07 313.95"/><path class="cls-18" d="M890.68,337h0a3,3,0,0,0-4.34-2.73l-14.18,6.83a3,3,0,0,1-4.34-2.73v-1.69a3,3,0,0,1,4.17-2.8l14.53,5.92A3,3,0,0,0,890.68,337Z"/><path class="cls-19" d="M857.24,75.2s18.63-5.93,25.4-8.47,11-1.69,15.24,4.23c.69,1,1.39,1.9,2.06,2.77a3,3,0,0,1-3.16,4.71L885.6,75.32"/><path class="cls-13" d="M794.4,99.57l26-45A26.36,26.36,0,0,1,831.56,44l46.2-22.76a4.25,4.25,0,0,1,6.11,3.54l1.39,22.05a15.21,15.21,0,0,1-8.6,14.67L846.52,76l39.08-.7-34.18,22-14.5,65.1Z"/><path class="cls-13" d="M838.41,50.41a10.05,10.05,0,0,1,7.79-5.72"/><path class="cls-13" d="M832.68,54s5.08,43.18,0,50-15.24,9.31-22.86,7.62,3.39-38.95,3.39-38.95"/><path class="cls-13" d="M872.48,25.25s.85,9.31,11,7.62"/><path class="cls-13" d="M848,108.13s1.6,10.25.75,18.71-6.77-3.39-6.77-3.39,5.08,17.78,4.23,24.55-9.31.85-9.31.85"/><path class="cls-13" d="M716.69,297.4s15.23-39.6,59.91-45.7,34.53,59.91,17.26,81.24L781.68,350.2h28.1a12.52,12.52,0,0,1,12.52,12.52h0a3.73,3.73,0,0,1-3.73,3.73H724"/><polygon class="cls-20" points="793.74 98.91 785.27 111.61 834.38 171.72 838.61 155.63 793.74 98.91"/><path class="cls-21" d="M779.63,117.25l-6.16-.34a5.52,5.52,0,0,0-5.45,3.52l-8.7,22.45a2.08,2.08,0,0,0,.69,2.42l6,4.48a6.14,6.14,0,0,0,7.8-.36L787.53,137h5.39a3.48,3.48,0,0,0,3.3-2.38h0a3.48,3.48,0,0,0-1.57-4.12l-16.16-9.3Z"/><path class="cls-21" d="M948.67,177.64,966.3,226a15.09,15.09,0,0,0,19.52,8.94h0a15.09,15.09,0,0,0,7.53-22l-25.2-41.18Z"/><rect class="cls-22" x="828.77" y="170.59" width="10.72" height="10.72" transform="translate(119.89 641.36) rotate(-45)"/><path class="cls-21" d="M951,178.51a11.42,11.42,0,0,1-8.42-4.9L933,159.75a3.54,3.54,0,0,1,.94-4.95h0a3.54,3.54,0,0,1,4.12.11l9.46,7.15-4.34-31.9a2.08,2.08,0,0,1,3.62-1.67l17.81,19.83A20.9,20.9,0,0,1,970,162.81l-.13,5.16a11.43,11.43,0,0,1-7.72,10.53"/><path class="cls-23" d="M592.53,265.18s-12.45,16.6-6.92,27.66"/><path class="cls-23" d="M646.47,262.41s4.15,15.21-4.15,23.51"/><line class="cls-23" x1="381" y1="366.14" x2="1125.03" y2="366.14"/><circle class="cls-24" cx="818.17" cy="372.96" r="14.29"/><line class="cls-18" x1="832.46" y1="387.25" x2="765.21" y2="387.25"/><line class="cls-18" x1="761" y1="387.25" x2="751.75" y2="387.25"/><path class="cls-5" d="M661,333.45s0,8.41,2.52,14.29,5.46-2.1,5.46-2.1-1.26,9.67.84,14.29,6.73-1.68,6.73-1.68.42,2.52,4.2,5,10.51-1.68,10.51-1.68"/><path class="cls-23" d="M831.2,230.46l2.12-3.73a1.66,1.66,0,0,1,3,.34l1.16,3.81"/><path class="cls-25" d="M892.67,102.75v5A20.18,20.18,0,0,0,912.85,128h0A20.18,20.18,0,0,0,933,107.79v-5"/><path class="cls-18" d="M1036.06,499.13s41.61,6.31,54.22-18.92"/><polygon class="cls-18" points="926.62 320.41 976.71 179.2 971.53 329.06 926.62 320.41"/><rect class="cls-18" x="1175.81" y="116.26" width="6.73" height="47.08" rx="3.36" ry="3.36"/><rect class="cls-26" x="951.4" y="61.49" width="228.78" height="426.24" rx="27.45" ry="27.45"/><line class="cls-18" x1="951.4" y1="89.19" x2="1180.17" y2="89.19"/><line class="cls-18" x1="951.4" y1="461.25" x2="1180.17" y2="461.25"/><rect class="cls-27" x="953.22" y="88.88" width="225.96" height="369.48"/><g class="cls-28"><polyline class="cls-6" points="1136.14 206.28 1152.45 252.56 1139.93 263.94"/><path class="cls-4" d="M1139.95,288.64v66.23A13.16,13.16,0,0,1,1126.79,368h-7.54a13.16,13.16,0,0,1-13.06-11.58l-8.27-68.38Z"/><path class="cls-7" d="M1047.56,222.78l8,31.87,16.27-22a16,16,0,0,1,12.83-6.46h11.21a4.08,4.08,0,0,1,4.08,4.08v3a4.08,4.08,0,0,1-4.26,4.08l-8.83-.38-25.47,48a7,7,0,0,1-10.8,2l-25.19-21.59"/><path class="cls-8" d="M1104.9,187.94h0a35.64,35.64,0,0,1,35.64,35.64V290.5a0,0,0,0,1,0,0h-71.28a0,0,0,0,1,0,0V223.57A35.64,35.64,0,0,1,1104.9,187.94Z"/><rect class="cls-4" x="1123.56" y="152.38" width="9.3" height="9.3" rx="4.65" ry="4.65" transform="translate(22.4 -116.3) rotate(5.96)"/><path class="cls-9" d="M1124.76,157.32s2.05-2.45,4.83-1.91"/><rect class="cls-18" x="1082.53" y="148.1" width="9.3" height="9.3" rx="4.65" ry="4.65" transform="translate(2152.61 417.55) rotate(-174.04)"/><path class="cls-9" d="M1089.47,153s-1.89-2.58-4.69-2.22"/><path class="cls-4" d="M1105.35,205.1h0c-7.19,0-12.63-7.76-11.36-16.21l4.95-32.8h13.75l4.08,33.24C1117.79,197.65,1112.39,205.1,1105.35,205.1Z"/><g class="cls-29"><ellipse class="cls-7" cx="1101.36" cy="161.06" rx="17.53" ry="25.9"/></g><ellipse class="cls-4" cx="1107.58" cy="156.59" rx="23.97" ry="19.35" transform="translate(836.82 1241.92) rotate(-84.04)"/><line class="cls-9" x1="1108.3" y1="152.37" x2="1107.86" y2="156.67"/><path class="cls-11" d="M1100.62,153.16a5,5,0,0,1,3.51-.78"/><path class="cls-11" d="M1112.18,153a5,5,0,0,1,3,1.94"/><path class="cls-7" d="M1101.38,156.82s6.33,5.1,13.6,1.28c0,0-1.84,6.67-7.5,6.08S1101.38,156.82,1101.38,156.82Z"/><path class="cls-12" d="M1088.75,151.78s-1.89-5.2-1.27-9.72,3.31-2.94,3.31-2.94-2.16-8.09,3.17-9.82,7.16,1.32,7.16,1.32a7.54,7.54,0,0,1,5-6.49,8.53,8.53,0,0,1,8,1.12s.58-2.8,4.68-2.37,4.92,3.52,4.92,3.52,4.1.43,4.91,3.66a13.42,13.42,0,0,1-.08,6.28s2.24-.91,3.2,3.62-4.18,16.73-4.18,16.73l-2.13-11.09-6.17-3.93a10,10,0,0,1-3.86-4.12s-3,3.7-6.41,2.48a14,14,0,0,1-5.13-3s-1.81,5-5.8,4.83a6.57,6.57,0,0,0-5.69,2.41Z"/><polyline class="cls-8" points="1087.58 192.62 1054.2 211.97 1050.4 240.42 1074.3 233.97"/><path class="cls-13" d="M1054.39,231.32l-34.71,137.14H968a36.35,36.35,0,0,1-14.77-3.06v-75l72.59-101.35Z"/><path class="cls-14" d="M1139.95,290.5l2.07,42.11h-40.4l-.76-14.8-3.51-.57.57-27.31S1140.2,290.25,1139.95,290.5Z"/><path class="cls-13" d="M1045.28,242.13l8,31.87,16.27-22a16,16,0,0,1,12.83-6.46h11.21a4.08,4.08,0,0,1,4.08,4.08v3a4.08,4.08,0,0,1-4.26,4.08l-8.83-.38-25.47,48a7,7,0,0,1-10.8,2l-25.19-21.59"/><ellipse class="cls-7" cx="1084.45" cy="283.34" rx="17.07" ry="31.92"/><path class="cls-4" d="M1092.23,360.49l7.15-91.72a15.26,15.26,0,0,0-14.77-16.44l-.85,0a15.26,15.26,0,0,0-15.67,16.33l6.5,92.15Z"/><path class="cls-15" d="M1093.37,348.25l9.1,16.22h-38.69l9.67-15.65S1093.79,348.68,1093.37,348.25Z"/><path class="cls-15" d="M1102.47,364.47V369h-38.69v-4.55S1102.19,364.76,1102.47,364.47Z"/><polygon class="cls-16" points="1093.93 335.45 1072.03 332.89 1073.45 348.82 1093.37 348.25 1093.93 335.45"/><path class="cls-15" d="M1077.72,341.71h10.81a0,0,0,0,1,0,0v3.94a3.46,3.46,0,0,1-3.46,3.46h-3.9a3.46,3.46,0,0,1-3.46-3.46v-3.94a0,0,0,0,1,0,0Z" transform="translate(2166.25 690.82) rotate(-180)"/><polygon class="cls-2" points="1139.17 333.18 1139.17 338.3 1104.75 338.3 1101.62 332.61 1139.17 333.18"/><path class="cls-18" d="M1090.52,348.64h0a2,2,0,0,0-2.92-1.83l-9.53,4.59a2,2,0,0,1-2.92-1.83v-1.14a2,2,0,0,1,2.8-1.88l9.76,4A2,2,0,0,0,1090.52,348.64Z"/><path class="cls-13" d="M1068,172.71s12.52-4,17.07-5.69,7.4-1.14,10.24,2.85c.47.65.93,1.28,1.39,1.86a2,2,0,0,1-2.13,3.17l-7.51-2.1"/><path class="cls-13" d="M1025.81,189.08l17.46-30.27a17.71,17.71,0,0,1,7.52-7l31.05-15.3a2.85,2.85,0,0,1,4.11,2.38l.93,14.82a10.22,10.22,0,0,1-5.78,9.86l-20.26,9.72,26.26-.47-23,14.78-9.74,43.75Z"/><path class="cls-13" d="M1055.39,156a6.76,6.76,0,0,1,5.24-3.84"/><path class="cls-13" d="M1051.54,158.48s3.41,29,0,33.57-10.24,6.26-15.36,5.12,2.28-26.18,2.28-26.18"/><path class="cls-13" d="M1078.29,139.13s.57,6.26,7.4,5.12"/><path class="cls-13" d="M1061.85,194.84a58.86,58.86,0,0,1,.51,12.58c-.57,5.69-4.55-2.28-4.55-2.28s3.41,11.95,2.85,16.5-6.26.57-6.26.57"/><path class="cls-13" d="M973.58,322s10.24-26.62,40.27-30.71,23.21,40.27,11.6,54.6l-8.19,11.6h18.89a8.41,8.41,0,0,1,8.41,8.41h0a2.51,2.51,0,0,1-2.51,2.51h-63.6"/><polygon class="cls-8" points="1025.37 188.64 1019.67 197.17 1052.68 237.58 1055.52 226.76 1025.37 188.64"/><path class="cls-4" d="M1015.88,201l-4.14-.23a3.71,3.71,0,0,0-3.66,2.36l-5.85,15.09a1.4,1.4,0,0,0,.47,1.63l4,3a4.13,4.13,0,0,0,5.25-.24l9.24-8.34h3.62a2.34,2.34,0,0,0,2.22-1.6h0a2.34,2.34,0,0,0-1.05-2.77l-10.86-6.25Z"/><path class="cls-4" d="M1129.5,241.56,1141.35,274a10.14,10.14,0,0,0,13.12,6h0a10.14,10.14,0,0,0,5.06-14.78l-16.94-27.68Z"/><rect class="cls-22" x="1048.91" y="236.82" width="7.21" height="7.21" transform="translate(138.27 814.66) rotate(-45)"/><path class="cls-4" d="M1131.07,242.14a7.68,7.68,0,0,1-5.66-3.29l-6.42-9.32a2.38,2.38,0,0,1,.63-3.33h0a2.38,2.38,0,0,1,2.77.07l6.36,4.81-2.92-21.44a1.4,1.4,0,0,1,2.43-1.12l12,13.33a14.05,14.05,0,0,1,3.59,9.73l-.09,3.47a7.68,7.68,0,0,1-5.19,7.08"/><line class="cls-23" x1="953.08" y1="368.25" x2="1179.18" y2="368.25"/><circle class="cls-24" cx="1041.79" cy="372.83" r="9.61"/><line class="cls-18" x1="1051.39" y1="382.44" x2="1006.19" y2="382.44"/><line class="cls-18" x1="1003.36" y1="382.44" x2="997.15" y2="382.44"/><path class="cls-23" d="M1050.54,277.05l1.43-2.51a1.11,1.11,0,0,1,2,.23l.78,2.56"/><path class="cls-25" d="M1091.86,191.22v3.39a13.56,13.56,0,0,0,13.56,13.56h0A13.56,13.56,0,0,0,1119,194.61v-3.39"/></g><rect class="cls-7" x="967.8" y="226.45" width="195.27" height="79.47" rx="14.28" ry="14.28"/><rect class="cls-16" x="967.8" y="222.25" width="195.27" height="79.47" rx="14.28" ry="14.28"/><text class="cls-30" transform="translate(1043.68 256.81)">Sha<tspan class="cls-31" x="28.53" y="0">r</tspan><tspan x="34.6" y="0">e</tspan></text><text class="cls-32" transform="translate(988.16 275.73)">“Jimmy<tspan class="cls-33" x="61.49" y="0">’</tspan><tspan x="65.68" y="0">s Fi</tspan><tspan class="cls-31" x="90.95" y="0">r</tspan><tspan x="97.49" y="0">st Dog”</tspan></text><line class="cls-18" x1="1012.47" y1="415" x2="1153.71" y2="415"/><circle class="cls-18" cx="1038.81" cy="415" r="5.5"/><path class="cls-18" d="M994.57,413.07l-15.19-8.77a2.22,2.22,0,0,0-3.34,1.93v17.54a2.22,2.22,0,0,0,3.34,1.93l15.19-8.77A2.22,2.22,0,0,0,994.57,413.07Z"/><rect class="cls-18" x="1137.14" y="98.18" width="23.54" height="11.21" rx="0.77" ry="0.77"/><rect class="cls-18" x="1160.68" y="101.41" width="2.97" height="4.76" rx="0.77" ry="0.77"/><circle class="cls-18" cx="980.07" cy="77.03" r="5.04"/><line class="cls-18" x1="1025.85" y1="77.87" x2="1105.72" y2="77.87"/><path class="cls-4" d="M951.8,476.53s17.5-3.76,13.66-56c-2.62-35.75-16.62-61.44-16.62-61.44l23.72,35.47a25.84,25.84,0,0,0,27.95,10.65l6.36-1.65a13.57,13.57,0,0,0,9.29-18l-23.49-61.66a31.14,31.14,0,0,0-29-20.05l-37-.13A31.13,31.13,0,0,0,896,329.08c-6.71,35.67-12.65,71.29,5.13,152.4"/><path class="cls-4" d="M1016.16,385.55l-8.78,2.28a19,19,0,0,1-19.46-6.35h0a10.58,10.58,0,0,1,5.14-16.82l13.35-4Z"/><polyline class="cls-4" points="946.06 347.9 948.85 359.05 938.62 350.93"/><path class="cls-4" d="M1244.78,539.32,1140,300.34a18.14,18.14,0,0,1,9.33-23.9h0a18.14,18.14,0,0,1,23.07,7.68l87.28,154.15,15.42,27.27-25.82-46a17.18,17.18,0,0,1,11.59-25.25h0a41.26,41.26,0,0,1,44.49,20.89l15.18,28.2-15.89-30.33,31.3,2.68a76.52,76.52,0,0,1,61.58,41.38l132.69,258.26H1350.57L1324,658.13a49.12,49.12,0,0,0-21.59-20.63l-69.16-33.72a56,56,0,0,1-25.33-24.84L1196,555.61a56,56,0,0,1-5.34-35l7.49-43.51a37.57,37.57,0,0,1,8.71-18.32h0"/><path class="cls-4" d="M1150.91,300a55.43,55.43,0,0,1,16.43-6.7,4.82,4.82,0,0,0,3.15-7h0a14.15,14.15,0,0,0-16.89-6.67l-.63.22a14.54,14.54,0,0,0-9.46,15.88l.13.87A4.83,4.83,0,0,0,1150.91,300Z"/><path class="cls-4" d="M1354.94,432.77l-11-15.78s-16.48-21-39.23-3.93"/><path class="cls-4" d="M1244.28,547.44l-.64-8.91a.63.63,0,0,1,1.19-.34l4,7.59"/><line class="cls-4" x1="1200.94" y1="397.31" x2="1219.65" y2="388.6"/><path class="cls-4" d="M1287.3,462.26s9.66-14,34.36-11.48"/></svg>
