<svg width="574.44" height="574.44" xmlns="http://www.w3.org/2000/svg" xmlns:xlink="http://www.w3.org/1999/xlink" viewBox="0 0 574.44 574.44" role="presentation"><defs><style>.cls-1,.cls-11,.cls-6,.cls-7,.cls-9{fill:none;}.cls-2{isolation:isolate;}.cls-3{fill:#78cdd1;}.cls-3,.cls-4{stroke:#5c6670;}.cls-11,.cls-3,.cls-4,.cls-6,.cls-7,.cls-9{stroke-linejoin:round;}.cls-3,.cls-4,.cls-6{stroke-width:2px;}.cls-4{fill:#fff;}.cls-5{clip-path:url(#clip-path);}.cls-6{stroke:#5c666f;}.cls-7{stroke:#78cdd1;}.cls-7,.cls-9{stroke-width:20px;}.cls-8{mix-blend-mode:multiply;}.cls-9{stroke:#c4d438;}.cls-10{opacity:0.3;}.cls-11{stroke:#c5d2df;stroke-linecap:round;stroke-width:58px;}</style><clipPath><circle class="cls-1" cx="287.22" cy="287.91" r="265.68"/></clipPath></defs><title>Artboard 1</title><g class="cls-2"><g data-name="Layer 3"><circle class="cls-3" cx="287.22" cy="287.22" r="286.22"/><circle class="cls-4" cx="287.22" cy="287.91" r="265.68"/><g class="cls-5"><line class="cls-6" x1="288.59" y1="127.68" x2="288.59" y2="172.87"/><path class="cls-7" d="M5.3,407.74,53.2,229.11c6.57-24.51,29.84-24.51,36.41,0l29.7,110.74c6.57,24.51,29.84,24.51,36.41,0,0,0,22.94-89.06,29.7-110.74,8.56-27.48,29.36-28.66,36.41,0s29.7,110.74,29.7,110.74c6.57,24.51,29.84,24.51,36.41,0l29.7-110.74c6.57-24.51,29.84-24.51,36.41,0l29.7,110.74c6.57,24.51,29.84,24.51,36.41,0l29.7-110.74c6.57-24.51,29.84-24.51,36.41,0l29.7,110.74c6.57,24.51,29.84,24.51,36.41,0l47.9-178.62"/><g class="cls-8"><path class="cls-9" d="M-24.49,408.76l47.9-178.62c6.57-24.51,29.84-24.51,36.41,0l29.7,110.74c6.57,24.51,29.84,24.51,36.41,0,0,0,22.94-89.06,29.7-110.74,8.56-27.48,29.36-28.66,36.41,0s29.7,110.74,29.7,110.74c6.57,24.51,29.84,24.51,36.41,0l29.7-110.74c6.57-24.51,29.84-24.51,36.41,0L354,340.88c6.57,24.51,29.84,24.51,36.41,0l29.7-110.74c6.57-24.51,29.84-24.51,36.41,0l29.7,110.74c6.57,24.51,29.84,24.51,36.41,0l47.9-178.62"/></g><line class="cls-6" x1="-15.43" y1="172.87" x2="577.55" y2="172.87"/><line class="cls-6" x1="-15.43" y1="396.1" x2="577.55" y2="396.1"/><line class="cls-6" x1="288.59" y1="394.73" x2="288.59" y2="407.74"/><line class="cls-6" x1="91.39" y1="153.7" x2="91.39" y2="172.87"/><line class="cls-6" x1="91.39" y1="394.73" x2="91.39" y2="407.74"/><line class="cls-6" x1="487.17" y1="153.7" x2="487.17" y2="172.87"/><line class="cls-6" x1="487.17" y1="394.73" x2="487.17" y2="407.74"/><g class="cls-10"><path class="cls-11" d="M114.46,153.54A218.62,218.62,0,0,1,231.52,76"/><path class="cls-11" d="M84.13,206.66q2.71-6.83,5.86-13.43"/></g></g></g></g></svg>
