<?xml version="1.0" encoding="utf-8"?>
<!-- Generator: Adobe Illustrator 22.1.0, SVG Export Plug-In . SVG Version: 6.00 Build 0)  -->
<svg version="1.1" xmlns="http://www.w3.org/2000/svg" xmlns:xlink="http://www.w3.org/1999/xlink" x="0px" y="0px"
	 viewBox="0 0 24 24" style="enable-background:new 0 0 24 24;" xml:space="preserve">
<style type="text/css">
	.st0{fill:#FFFFFF;}
</style>
<title>restart-arrow</title>
<path class="st0" d="M23.3,8.1c-0.4-1.2-1-2.4-1.8-3.4c-0.8-1-1.7-1.9-2.8-2.6C17.9,1.5,17,1,16,0.7c-0.4-0.2-0.8,0-1,0.4
	c0,0,0,0.1,0,0.1c-0.1,0.4,0.1,0.8,0.5,0.9C21,4,23.9,10,21.9,15.5S14,23.9,8.5,22S0.1,14.1,2.1,8.6c0.9-2.7,2.9-4.8,5.4-6v2.7
	C7.5,5.7,7.8,6,8.2,6S9,5.7,9,5.2l0,0V0.8C9,0.3,8.7,0,8.2,0l0,0H3.7C3.3,0,3,0.3,3,0.8s0.3,0.8,0.8,0.8h2.5c-0.5,0.3-1,0.6-1.4,0.9
	C3.8,3.2,3,4,2.3,5C0.8,7,0,9.5,0,12c0,1.6,0.3,3.2,0.9,4.7C2.8,21.1,7.2,24,12,24c1.6,0,3.2-0.3,4.7-0.9C21.1,21.2,24,16.8,24,12
	C24,10.7,23.8,9.3,23.3,8.1z"/>
</svg>
