<?xml version="1.0" encoding="utf-8"?>
<!-- Generator: Adobe Illustrator 19.2.0, SVG Export Plug-In . SVG Version: 6.00 Build 0)  -->
<svg version="1.1" xmlns="http://www.w3.org/2000/svg" xmlns:xlink="http://www.w3.org/1999/xlink" x="0px" y="0px"
	 viewBox="0 0 629.8 171.4" style="enable-background:new 0 0 629.8 171.4;" xml:space="preserve">
<style type="text/css">
	.st0{fill:#FFFFFF;}
	.st1{fill:#D1E42D;}
	.st2{fill:#F06263;}
	.st3{fill:#DCAA84;}
	.st4{fill:#C7D4E2;}
	.st5{fill:#FAB54C;}
	.st6{fill:#752C1B;}
	.st7{fill:#4D575E;}
	.st8{fill:#5C6670;}
	.st9{fill:#53AAAA;}
	.st10{fill:#A3B6C6;}
	.st11{fill:#78CDD1;}
	.st12{fill:#94DDDD;}
	.st13{fill:none;stroke:#5C6670;stroke-width:2;stroke-miterlimit:10;}
</style>
<g>
	<path class="st0" d="M294.4,8.2c-13.7-3.7-84-9.7-117-7c-16.9,1.4-45.3,40.1-53.4,51.7c2.4-0.4,5-0.6,7.8-0.6c1.9,0,3.5,3.1,3.5,7
		c0,1.6-0.3,3-0.7,4.2c66.7,2.1,162.5,5.4,162.5,5.4s23.9-1.2,40.9-1.7c0.4,0,0.7,0,1.1,0C333.6,57.7,306.6,11.5,294.4,8.2z"/>
	<g>
		<path class="st1" d="M253.3,57.9l-6.4,3.7c-0.6,0.3-1.3,0.1-1.6-0.6l-6.4-15.9c-0.3-0.7,0-1.5,0.6-1.8l6.4-3.7
			c0.6-0.3,1.3-0.1,1.6,0.6l6.4,15.9C254.1,56.8,253.9,57.6,253.3,57.9z"/>
		<path class="st0" d="M252.1,56.5l-4.7,2.9c-0.4,0.3-1,0-1.2-0.6l-5.5-13.6c-0.2-0.6-0.1-1.3,0.4-1.5l4.7-2.9c0.4-0.3,1,0,1.2,0.6
			l5.4,13.6C252.7,55.6,252.5,56.3,252.1,56.5z"/>
		<path class="st2" d="M269.8,63.1c0,0-4.8-6.1-6-7.8c-1.2-1.7-5,0.7-4.2,2.5c0.8,1.8,5.3,10.6,5.3,10.6l3.1-1l1.7-2.4L269.8,63.1z"
			/>
		<path class="st2" d="M276.8,55.1l-0.7,1.3c0,0-8.1,6.8-9.8,9.2s-2,3.1-2,3.1l14.9,0.6l6.5-13.4L276.8,55.1z"/>
		<path class="st3" d="M279.5,28.9c-5.8-1.3-8.9,0.2-10.3,2.1c0,0-1.6,2.5-1.6,4.5s0.6,2.9,0.7,3.4c0.1,0.5,0.4,2.4-0.1,3.6
			s-0.9,1.7-0.9,1.7s0.6,0.8,1,0.9c0.4,0.1,0.8,0.2,0.8,0.2s0.9,3.9,1.4,4.8s2.1,1,3.1,0.8s6.7-2.6,8.3-5.2s3.6-7.1,3.6-7.1
			S285.3,30.2,279.5,28.9z"/>
		<path class="st4" d="M284.1,49.1l-7.9,3.6l-0.1,3.7c0,0,0.6,0.1,1,0.8s0.4,2.1,0.4,2.1s4.7-3.4,5.9-4.9S284.9,50.1,284.1,49.1z"/>
		<path class="st3" d="M283.6,49.3l-0.5-5.8c-0.4,0.8-0.8,1.5-1.2,2.2c-0.9,1.4-2.9,2.8-4.8,3.7l0.4,2.7L283.6,49.3z"/>
		<path class="st5" d="M288.8,37.7c-0.1-1.8-0.3-3.1-0.7-4.1c-0.6-2.6-2.3-5.3-6.1-6.4c-5.9-1.6-11.4,0.1-13.3,2.4
			c-1.1,1.4-0.6,3.6,1.2,4.9s1.8,1.9,4.7,2.1c2.2,0.2,4.1,2.1,5,3c0.3-0.5,0.8-0.8,1.3-0.8c1,0,1.9,1.4,1.9,3.1c0,1.1-0.3,2-0.8,2.5
			v0.1c0.1,0.6-3.4,13.7-3.4,13.7s3.1,0.9,5.6,0.3s4.4-2.8,4.4-2.8S289.3,45.6,288.8,37.7z"/>
		<circle class="st0" cx="281.1" cy="44.8" r="0.9"/>
		<path class="st3" d="M250.7,60.5c0,0-0.9-3.1-1.2-3.9s-1.4-2.8-1.4-2.8s-0.4-1.1-0.6-1.5c-0.2-0.4-0.5-1.2-0.5-2.3
			c0-1.1-1.3-0.9-1.8,0.3s0.1,2.2,0.3,2.5s0.2,0.5,0.2,0.9s-0.3,0.8-0.6,0.8s-2.5-0.4-2.5-0.4l-0.8-1.7c0,0-1.4,0.8-1.5,1.3
			s0.5,1.7,0.5,1.7s-0.2,1.2-0.1,1.5c0,0.3,0.7,0.9,0.7,0.9s0,1,0.2,1.3s0.7,0.5,0.7,0.5s0.3,1,0.6,1.2c0.2,0.2,5,2,5,2l1.5-0.3
			L250.7,60.5z"/>
		<path class="st3" d="M260.1,57.2c0.4,0.7,2.6-0.3,3-1.3c0.5-1,0-2.8-0.2-3.5c-0.2-0.7-2-3.8-2.4-4.5c-0.5-0.8-0.7-1-0.8-1
			s-2.3-0.6-2.8-0.9s-1.8,0.3-2.5-0.1c-0.8-0.4-0.8,0.4-0.7,0.9c0.2,0.5,0.8,1.2,2.1,1.1c1.3-0.1,1.3-0.1,1.3-0.1l1.5,1
			c0,0-0.8,0.1-1.1,0.2c-0.3,0.1-1,0.8-1,0.8s-0.7,0-0.9,0.4c-0.2,0.3-0.5,1-0.5,1s-0.2,0.4-0.2,0.8c0.1,0.4,0.3,0.8,0.3,0.8
			s-0.2,0.7-0.2,1c0,0.2,0.2,1,0.7,1.2c0.5,0.2,2.4,0.5,2.4,0.5s0.2,0.5,0.8,0.8S259.7,56.5,260.1,57.2z"/>
		<path class="st2" d="M261.1,68.6c0,0-9.2-9-9.9-9.6s-5.4,3-4.3,4.6s4.2,5.6,4.2,5.6L261.1,68.6z"/>
		<path class="st6" d="M270.8,47.2c0,0,1.3-0.2,1.8-0.7s0.6-0.5,0.6-0.5s0.2,0.7-0.6,1.2c-0.8,0.5-1.1,0.3-1.4,0.3
			S270.8,47.2,270.8,47.2z"/>
		<path class="st7" d="M280.6,38.4l-8.3,1.6l-0.3-1.5c-0.1-0.3-0.2-0.5-0.5-0.7s-0.6-0.2-0.8-0.2l-2,0.4c-0.3,0.1-0.5,0.2-0.7,0.5
			s-0.2,0.6-0.2,0.8l0.7,3.5c0.1,0.6,0.6,1,1.2,1h0.1l2.1-0.2l0,0c0.3,0,0.6-0.2,0.8-0.4s0.2-0.5,0.2-0.8l-0.4-1.7l8.3-1.6
			c0.2,0,0.3-0.2,0.3-0.4C281,38.5,280.8,38.4,280.6,38.4z"/>
		<path class="st0" d="M272,42.8c0,0.1-0.1,0.1-0.2,0.1l-2.1,0.2c-0.2,0-0.5-0.2-0.5-0.4l-0.7-3.5c0-0.1,0-0.2,0.1-0.3
			c0.1-0.1,0.1-0.1,0.2-0.2l2-0.4h0.1c0.1,0,0.1,0,0.2,0.1c0.1,0.1,0.1,0.1,0.2,0.2l0.8,3.9C272.1,42.7,272.1,42.7,272,42.8z"/>
	</g>
	<g>
		<ellipse transform="matrix(0.8934 -0.4493 0.4493 0.8934 -6.5216 81.8027)" class="st8" cx="169.1" cy="54.6" rx="1.8" ry="4"/>
		<path class="st8" d="M168.2,57.1l-8.5,4.3c-0.8,0.4-1.7,0.1-2.1-0.7l0,0c-0.4-0.8-0.1-1.7,0.7-2.1l8.5-4.3
			c0.8-0.4,1.7-0.1,2.1,0.7l0,0C169.3,55.8,169,56.7,168.2,57.1z"/>
		<path class="st8" d="M163.2,64.3l-1.5,0.8c-1.1,0.5-2.4,0.1-2.9-1l-3.7-7.3c-0.5-1.1-0.1-2.4,1-2.9l1.5-0.8c1.1-0.5,2.4-0.1,2.9,1
			l3.7,7.3C164.7,62.5,164.3,63.8,163.2,64.3z"/>
		<path class="st8" d="M173,66.8L173,66.8c-1,0.5-2.2,0.1-2.7-0.9l-9.4-18.6c-0.5-1-0.1-2.2,0.9-2.7l0,0c1-0.5,2.2-0.1,2.7,0.9
			l9.4,18.6C174.4,65.1,174,66.3,173,66.8z"/>
		<path class="st8" d="M156.3,64.2c2.3,0.1,4.7,0.2,7.1,0.2c-1.9-4-5.9-11.8-8.8-11.2c-3.8,0.8-28.8,6.7-28.8,6.7l0.5,0.3
			C137.7,61.3,148.8,62.7,156.3,64.2z"/>
		<path class="st8" d="M145.3,55.3l6.2-32.1c-1.7,1.9-3.5,3.9-5.3,6l-5.3,27.1C142.5,56,143.9,55.6,145.3,55.3z"/>
	</g>
	<g>
		<polygon class="st7" points="293.7,44.4 292.5,51.9 297,52.5 298.6,45.1 		"/>
		<path class="st8" d="M277.2,69.9c0,0,9-17.1,9.9-18.9s14.2-1.1,14,1.1s-1.8,18.7-1.8,18.7L277.2,69.9z"/>
		<path class="st8" d="M299.7,48.2l-7.5-0.8c-1.3-0.1-2.3-1.3-2.2-2.6l0.4-10.5c0-1.3,1.1-2.5,2.4-2.7l7.6-1.3
			c1.3-0.2,2.3,0.6,2.3,1.9l-0.6,14C302.1,47.4,301,48.4,299.7,48.2z"/>
	</g>
	<g>
		<polygon class="st7" points="208.7,40.9 207.5,48.4 212,49 213.6,41.6 		"/>
		<path class="st8" d="M192.2,66.4c0,0,9-17.1,9.9-18.9c0.9-1.8,14.2-1.1,14,1.1s-1.8,18.7-1.8,18.7L192.2,66.4z"/>
		<path class="st8" d="M214.7,44.7l-7.5-0.8c-1.3-0.1-2.3-1.3-2.2-2.6l0.4-10.5c0-1.3,1.1-2.5,2.4-2.7l7.6-1.3
			c1.3-0.2,2.3,0.6,2.3,1.9l-0.5,13.9C217.1,43.9,216,44.9,214.7,44.7z"/>
	</g>
	<path class="st9" d="M177.6,4.2c5.4-0.2,12-0.7,19.7-0.7c36.3,0,85.6,4.7,96.3,7.6c5.2,1.4,23.2,24.9,42,56.2c0.8,0,1.6,0,2.4-0.1
		c0.4,0,0.7,0,1.1,0c-5.4-9.5-32.4-55.7-44.7-59c-13.7-3.7-84-9.7-117-7c-16.9,1.4-45.3,40.1-53.4,51.7c1.4-0.2,2.8-0.4,4.3-0.5
		C153.4,17.5,169.4,4.5,177.6,4.2z"/>
	<polygon class="st7" points="68.7,125.5 81.7,125.5 140.4,120.2 152.4,120.2 138,86.2 84.7,86.5 72.7,105.5 	"/>
	<path class="st7" d="M253,122.2h25h59.3c0,0-13.3-31-14.3-31.7s-12-0.7-13.3-0.7s-40,0.3-40,0.3L253,122.2z"/>
	<circle class="st8" cx="111.7" cy="133.2" r="34.3"/>
	<circle class="st7" cx="111.7" cy="133.2" r="27.7"/>
	<circle class="st4" cx="111.7" cy="133.2" r="18.8"/>
	<circle class="st10" cx="111.7" cy="133.2" r="14.7"/>
	<circle class="st4" cx="111.7" cy="133.2" r="11.9"/>
	<circle class="st8" cx="297.7" cy="133.2" r="34.3"/>
	<circle class="st7" cx="297.7" cy="133.2" r="27.7"/>
	<circle class="st4" cx="297.7" cy="133.2" r="18.8"/>
	<circle class="st10" cx="297.7" cy="133.2" r="14.7"/>
	<circle class="st4" cx="297.7" cy="133.2" r="11.9"/>
	<path class="st10" d="M66.3,134.1c1.5,0,3.3-1.1,4-2.4l6.3-12c0.7-1.3,0-2.4-1.5-2.4H37.7c-2.6,0-4.7,1.9-4.7,4.1v8.5
		c0,2.3,2.1,4.1,4.7,4.1L66.3,134.1L66.3,134.1z"/>
	<path class="st4" d="M359.5,94.1c2.5-0.7,5.1-4.5,6.3-9.4c0.9-3.9,0.7-7.6-0.3-9.8C364.4,79.8,362.4,87.1,359.5,94.1z"/>
	<path class="st11" d="M337.9,67.2c-17,0.5-40.9,1.7-40.9,1.7s-194.6-6.7-222.3-7S38,74.2,38,101.5c0,7.1,0.6,12.2,1.4,15.8h35.7
		l0,0c4-6.9,11.6-20,12.6-21.5c1.3-2,3-2.7,7-2.7s28.7,0,33.3,0c4.7,0,6.1,4,8,7c3,4.7,16.7,27.3,16.7,27.3h103.7
		c4.9-8.5,17.2-30.1,18.3-31.7c1.3-2,3-2.7,7-2.7s28.7,0,33.3,0c4.7,0,6.1,4,8,7c3,4.7,16.7,27.3,16.7,27.3l8-10.1
		c0,0,4-6.5,10.2-19.8s8.8-29,8.8-29S354.9,66.7,337.9,67.2z"/>
	<path class="st4" d="M33.3,110.6c-1.8,0-3.2,1.4-3.2,3.2v15.4c0,1.8,1.4,3.2,3.2,3.2h0.8c-0.6-0.7-1-1.6-1-2.5v-8.5
		c0-2.3,2.1-4.1,4.7-4.1h1.7c-0.4-1.8-0.8-4.1-1-6.8h-5.2V110.6z"/>
	<g>
		<path class="st4" d="M38.8,69.2c-1.6,0-2.9,1.3-2.9,2.9v38.5h2.5c-0.2-2.6-0.4-5.6-0.4-9c0-15.2,2.8-25.9,10.1-32.3L38.8,69.2
			L38.8,69.2z"/>
	</g>
	<path class="st4" d="M59.8,80c-3.2,6.9-9.3,12.5-13.6,12.5S41,86.9,44.3,80s9.3-12.5,13.6-12.5S63,73,59.8,80z"/>
	<path class="st0" d="M57.3,79.4c-2.6,5.7-7.7,10.3-11.2,10.3s-4.3-4.6-1.6-10.3c2.7-5.7,7.7-10.3,11.2-10.3S60,73.7,57.3,79.4z"/>
	<path class="st10" d="M57.8,67.4c4.3,0,5.2,5.6,1.9,12.5s-9.3,12.5-13.6,12.5c4.3,0,15.6-5.6,21.8-12.5S73.6,67.4,57.8,67.4z"/>
	<ellipse class="st4" cx="44.9" cy="103" rx="3" ry="5.5"/>
	<path class="st10" d="M44.9,97.4c1.7,0,3,2.5,3,5.5s-1.3,5.5-3,5.5c1.7,0,7-2.5,7-5.5S46.6,97.4,44.9,97.4z"/>
	<ellipse class="st4" cx="350.2" cy="110.7" rx="3" ry="5.5"/>
	<path class="st10" d="M350.2,105.2c-1.7,0-3,2.5-3,5.5s1.3,5.5,3,5.5c-1.7,0-7-2.5-7-5.5S348.5,105.2,350.2,105.2z"/>
	<path class="st12" d="M74.7,61.9C85,62,118.4,63,156.3,64.2C135,60,84.1,56.5,77.6,56.5c-6.1,0-11.3,2.5-13.7,6
		C67.1,62.1,70.7,61.8,74.7,61.9z"/>
	<path class="st4" d="M210.7,71.4c-1.6-0.2-3.2-0.2-5-0.2c-7.4,0-13.4,1.5-13.4,3.3s6,3.2,13.4,3.2c1.3,0,2.5,0,3.6-0.1L210.7,71.4z
		"/>
	<path class="st4" d="M286.7,75.9c-1.6-0.2-3.2-0.2-5-0.2c-7.4,0-13.4,1.5-13.4,3.3s6,3.2,13.4,3.2c1.3,0,2.5,0,3.6-0.1L286.7,75.9z
		"/>
	<path class="st10" d="M205.6,77.7c1.3,0,2.5,0,3.6-0.1L210,74c-1.3-0.1-2.7-0.1-4.2-0.1c-5.5,0-10.4,0.6-13.1,1.5
		C194.3,76.7,199.5,77.7,205.6,77.7z"/>
	<path class="st10" d="M268.3,79.2c0.4,1.7,6.3,3,13.4,3c1.3,0,2.5,0,3.6-0.1l0.8-3.5c-1.9-0.1-3.8-0.2-5.9-0.2
		C275.7,78.4,271.5,78.7,268.3,79.2z"/>
	<g>
		<path class="st12" d="M290.3,93.2c0.7,0,1.3,0,2,0l4.7-24.3c0,0-0.7,0-2-0.1L290.3,93.2z"/>
		<path class="st12" d="M210.6,127.5h2l11.9-61.1c-0.7,0-1.3,0-2-0.1L210.6,127.5z"/>
		<path class="st12" d="M133.2,95.8c0.6,0.7,1.1,1.5,1.6,2.4l6.7-34.4c-0.7,0-1.4,0-2-0.1L133.2,95.8z"/>
	</g>
	<path class="st12" d="M225.2,66.4l11.9-61.5c-1.4-0.1-2.7-0.2-4.1-0.2l-12,61.6C222.5,66.4,223.8,66.4,225.2,66.4z"/>
	<path class="st9" d="M221,66.3l12-61.6c-1.4-0.1-2.7-0.2-4.1-0.2l-12,61.7C218.2,66.2,219.6,66.3,221,66.3z"/>
	<path class="st9" d="M303.3,20.2l-9.4,48.6c2.1,0.1,3.2,0.1,3.2,0.1s0.3,0,1,0l8.6-44.5C305.5,22.8,304.4,21.4,303.3,20.2z"/>
	<ellipse class="st10" cx="131.8" cy="59.3" rx="3.5" ry="7"/>
	<path class="st4" d="M128.3,59.3c0-3.9,1.6-7,3.5-7c-11.2,0.2-20.6,3.3-20.6,7s9.3,6.9,20.6,7C129.8,66.4,128.3,63.2,128.3,59.3z"
		/>
	<path class="st10" d="M343.3,134.1c-1.5,0-3.3-1.1-4-2.4l-6.3-12c-0.7-1.3,0-2.4,1.5-2.4h19.6c2.6,0,4.1,1.9,3.4,4.1l-2.6,8.5
		c-0.7,2.3-3.4,4.1-5.9,4.1L343.3,134.1L343.3,134.1z"/>
	<path class="st4" d="M336,122.3h19.6c0.6,0,1.1,0.1,1.6,0.3l0.4-1.2c0.7-2.3-0.8-4.1-3.4-4.1h-19.6c-1.5,0-2.1,1.1-1.5,2.4l1.6,3
		C335,122.5,335.4,122.3,336,122.3z"/>
	<path class="st4" d="M33.6,126.9c0-2.3,2.1-4.1,4.7-4.1H75l1.6-3.1c0.7-1.3,0-2.4-1.5-2.4H37.7c-2.6,0-4.7,1.9-4.7,4.1v8.5
		c0,0.7,0.2,1.3,0.5,1.8v-4.8H33.6z"/>
</g>
<title>car</title>
<line class="st13" x1="0" y1="167.5" x2="629.8" y2="167.5"/>
<path class="st0" d="M378.2,26.5h177c5,0,9,4,9,9v0c0,5-4,9-9,9h-177c-5,0-9-4-9-9v0C369.2,30.6,373.2,26.5,378.2,26.5z"/>
<circle class="st11" cx="586.9" cy="37.3" r="9.8"/>
<path class="st11" d="M438.4,105.7h76.5c5,0,9,4,9,9v0c0,5-4,9-9,9h-76.5c-5,0-9-4-9-9v0C429.4,109.7,433.4,105.7,438.4,105.7z"/>
<circle class="st0" cx="546.6" cy="114.7" r="9.8"/>
<circle class="st1" cx="486.4" cy="77.8" r="9.8"/>
</svg>
