<?xml version="1.0" encoding="utf-8"?>
<!-- Generator: Adobe Illustrator 19.2.0, SVG Export Plug-In . SVG Version: 6.00 Build 0)  -->
<svg version="1.1" xmlns="http://www.w3.org/2000/svg" xmlns:xlink="http://www.w3.org/1999/xlink" x="0px" y="0px"
	 viewBox="0 0 495 180.7" style="enable-background:new 0 0 495 180.7;" xml:space="preserve">
<style type="text/css">
	.st0{fill:#4D575E;}
	.st1{fill:#D8D8D8;}
	.st2{fill:#C9C9C9;}
	.st3{fill:#DCE2E2;}
	.st4{fill:#FFFFFF;}
	.st5{fill:#F7F7F7;}
	.st6{fill:#5C6670;}
	.st7{fill:#C7D4E2;}
	.st8{fill:#A3B6C6;}
	.st9{fill:#4FB2C8;}
	.st10{fill:#5BCBDD;}
	.st11{fill:none;}
	.st12{fill:#E6FFFF;}
	.st13{fill:none;stroke:#5C6670;stroke-width:2;stroke-linejoin:round;}
	.st14{fill:#78CDD1;}
</style>
<polygon class="st0" points="263.5,98.5 285,98.5 341.5,105.5 404,98.5 418.5,116.5 423,139 406,139 338.5,139 331.5,146.5 
	278,146.5 275,148.5 218.5,148.5 216.5,145 205,145 202,148 148.5,148 127.5,142.5 92.5,142.5 105.5,101 132.5,89 "/>
<rect x="99.9" y="17.9" transform="matrix(0.9835 -0.1808 0.1808 0.9835 -1.3675 36.1766)" class="st1" width="195.7" height="15.3"/>
<rect x="216.2" y="22.8" transform="matrix(0.9835 -0.1808 0.1808 0.9835 -1.2602 47.1208)" class="st2" width="83.2" height="15.3"/>
<path class="st1" d="M271.3,61.5v-25c0-1.2-1-2.2-2.2-2.2h-47c-1.2,0-2.2,1-2.2,2.2v25H271.3z"/>
<g>
	<path class="st3" d="M74.8,7.2V70c0,2.4,1.9,4.3,4.3,4.3h43.4c2.4,0,4.3-1.9,4.3-4.3V7.2H74.8z"/>
	<rect x="74.8" y="7.7" class="st2" width="52" height="1.9"/>
	<rect x="73" y="6.4" class="st3" width="55.6" height="1.9"/>
	<rect x="73" y="63.4" class="st4" width="55.6" height="1"/>
	<g>
		<rect x="74.8" y="27.7" class="st2" width="52" height="1.9"/>
		<rect x="74.8" y="43.3" class="st2" width="52" height="1.9"/>
	</g>
	<rect x="74.8" y="65.5" class="st1" width="52" height="1.9"/>
	<rect x="73" y="64.2" class="st5" width="55.6" height="1.9"/>
</g>
<g>
	<circle class="st6" cx="383.2" cy="147.9" r="32.8"/>
	<circle class="st0" cx="383.2" cy="147.9" r="26.5"/>
	<circle class="st7" cx="383.2" cy="147.9" r="18"/>
	<circle class="st8" cx="383.2" cy="147.9" r="14.1"/>
	<circle class="st7" cx="383.2" cy="147.9" r="11.4"/>
</g>
<g>
	<circle class="st6" cx="145.2" cy="147.9" r="32.8"/>
	<circle class="st0" cx="145.2" cy="147.9" r="26.5"/>
	<circle class="st7" cx="145.2" cy="147.9" r="18"/>
	<circle class="st8" cx="145.2" cy="147.9" r="14.1"/>
	<circle class="st7" cx="145.2" cy="147.9" r="11.4"/>
</g>
<path class="st8" d="M439.5,153.8h-5.7c-2.5,0-5.2-1.8-5.9-4.1l-2.6-8.5c-0.7-2.2,0.8-4.1,3.4-4.1h19.6c1.5,0,2.2,1.1,1.5,2.4
	l-6.3,12C442.8,152.8,441,153.9,439.5,153.8L439.5,153.8z"/>
<path class="st7" d="M448.1,142.5l1.6-3c0.6-1.3,0-2.4-1.5-2.4h-19.6c-2.6,0-4.1,1.8-3.4,4.1l0.4,1.2c0.5-0.2,1-0.3,1.6-0.3h19.6
	C447.4,142.1,447.8,142.3,448.1,142.5z"/>
<path class="st8" d="M427.8,152.1h23.1c2.3,0,4.2-1.6,4.2-3.7v-7.6c0-2-1.9-3.7-4.2-3.7h-30.9c-1.3,0-2,1-1.3,2.1l5.6,10.7
	C424.8,151.2,426.4,152.2,427.8,152.1L427.8,152.1z"/>
<path class="st9" d="M343.2,143.5c0,0,10.7-20.3,13.4-24.5c1.7-2.7,2.9-6.3,7.1-6.3c4.1,0,32.5,0,36.1,0c3.6,0,5.1,0.6,6.3,2.4
	c0.9,1.3,10.2,15.9,13.8,22l0,0h29.4c0.7-3.2,1.3-7.8,1.3-14.1c0-24.4-8-35.6-32.8-35.4h-20.5c0,0-50.5-50.2-54.8-50.2
	s-51.5,0-56.5,0s-4.2,2.8-4.2,5.5s0,96.2,0,96.2v4.2H343.2z"/>
<g>
	<path class="st10" d="M409.6,111.6c-1.3-2-3-2.7-7.1-2.7s-36.3,0-41,0c-4.8,0-6.2,4.1-8.1,7.1c-2.8,4.4-13.7,24.8-15.1,27.5h4.9
		c0,0,10.7-20.3,13.4-24.5c1.7-2.7,2.9-6.3,7.1-6.3c4.1,0,32.5,0,36.1,0c3.6,0,5.1,0.6,6.3,2.4c0.9,1.3,10.2,15.9,13.8,22h3.5
		C419.1,129.5,410.5,113.1,409.6,111.6z"/>
</g>
<path class="st7" d="M454.7,131.1h-4.6c-0.2,2.4-0.5,4.5-0.9,6.1h1.5c2.3,0,4.2,1.6,4.2,3.7v7.6c0,0.8-0.4,1.6-0.9,2.2h0.7
	c1.6,0,2.9-1.3,2.9-2.9v-13.8C457.6,132.5,456.4,131.2,454.7,131.1L454.7,131.1z"/>
<g>
	<path class="st7" d="M449.8,94.3h-8.3c6.5,5.7,9,15.3,9,28.9c0,3-0.2,5.7-0.4,8h2.2V96.8C452.4,95.4,451.3,94.2,449.8,94.3
		L449.8,94.3z"/>
</g>
<path class="st7" d="M433.3,94.4c4.1,0,9.7,5.3,12.9,11.8s2.3,11.8-1.8,11.8c-4.1,0-9.8-5.3-12.9-11.8
	C428.4,99.6,429.2,94.4,433.3,94.4z"/>
<path class="st4" d="M435.4,95.9c3.3,0,8,4.4,10.6,9.7c2.6,5.4,1.8,9.7-1.5,9.7c-3.3,0-8.1-4.4-10.6-9.7
	C431.3,100.2,432,95.9,435.4,95.9z"/>
<path class="st8" d="M423.8,106.1c5.9,6.5,16.6,11.8,20.6,11.8c-4.1,0-9.7-5.3-12.9-11.8c-3.1-6.5-2.3-11.8,1.8-11.8
	C418.4,94.3,417.9,99.6,423.8,106.1z"/>
<ellipse class="st7" cx="444.7" cy="130.8" rx="3.5" ry="3.8"/>
<path class="st8" d="M436.5,130.8c0,2.1,6.2,3.8,8.2,3.8c-2,0-3.5-1.7-3.5-3.8c0-2.1,1.5-3.8,3.5-3.8
	C442.7,126.9,436.5,128.7,436.5,130.8z"/>
<path class="st7" d="M454.6,145.8v4.3c0.3-0.4,0.4-1,0.4-1.6v-7.6c0-2-1.9-3.7-4.2-3.7h-30.9c-1.3,0-2,1-1.3,2.1l1.4,2.8h30.3
	C452.6,142.1,454.5,143.7,454.6,145.8L454.6,145.8z"/>
<path class="st11" d="M353.4,116c1.9-3,3.3-7.1,8.1-7.1c0.6,0,1.6,0,3,0V86.2c-28.8,0-67.2,0-70.3,0c-3.3,0-4.1-1.2-4.2-2.8v55.5
	h50.9C344.6,131.8,351.2,119.4,353.4,116z"/>
<path class="st6" d="M358.7,85.9v0.2c11.3,0,21.7,0,28.7,0c-8-7.8-20.6-20.3-30.8-29.8c2.2,2.3,2.1,3,2.1,6.5
	C358.7,66.8,358.7,85.9,358.7,85.9z"/>
<path class="st6" d="M358.7,85.9c0,0,0-19.2,0-23c0-3.5,0.1-4.2-2.1-6.5c-8.1-7.5-14.7-13.1-16.4-13.1c-4.2,0-40.9,0-45.9,0
	c-3.3,0-4.1,1.2-4.2,2.8c0,0.9,0,1.8,0,2.7c0,1,0,14.9,0,31.8c0,0.9,0,1.8,0,2.7c0.2,1.6,1,2.8,4.2,2.8c3,0,36.6,0,64.5,0V85.9z"/>
<path class="st12" d="M360.8,84V63.4c7.3,6.9,15.1,14.5,21.3,20.6H360.8z"/>
<path class="st12" d="M294.2,84c-1.9,0-2-0.3-2.1-0.8v-37c0.1-0.4,0.2-0.8,2.1-0.8h45.8c0.7,0.3,3.7,1.9,15.1,12.5
	c1.5,1.6,1.5,1.6,1.5,4.5V84H294.2z"/>
<path class="st6" d="M306.1,108.1h-9.1c-0.7,0-1.2-0.5-1.2-1.2V93.6c0-0.7,0.5-1.2,1.2-1.2h9.1c0.7,0,1.2,0.5,1.2,1.2v13.4
	C307.2,107.6,306.7,108.1,306.1,108.1z"/>
<path class="st6" d="M353.5,81.6c0,5.8,1.2,10.5,2.7,10.5c1.5,0,1.5,0.1,0,0c8.6-0.1,15.8-4.9,15.8-10.5c0-5.5-7.2-10.2-15.8-10.5
	C354.7,71.1,353.5,75.8,353.5,81.6z"/>
<path class="st10" d="M171.3,111.6c-1.3-2-3-2.7-7.1-2.7s-36.3,0-41,0c-4.8,0-6.2,4.1-8.1,7.1c-2.3,3.6-9.7,17.4-13.3,24.1h4.9
	c3.2-6,9.6-18,11.6-21.1c1.7-2.7,2.9-6.3,7.1-6.3c4.1,0,32.5,0,36.1,0c3.6,0,5.1,0.6,6.3,2.4c0.8,1.2,10.4,17,15,24.9h3.6
	C181.5,130.9,172.2,112.9,171.3,111.6z"/>
<path class="st9" d="M273.6,61.5H74.2c-1.2,0-2.2,1-2.2,2.2v74.3c0,1.2,1,2.2,2.2,2.2h27.7c3.6-6.7,11-20.5,13.3-24.1
	c1.9-3,3.3-7.1,8.1-7.1c4.7,0,36.9,0,41,0s5.8,0.7,7.1,2.7c0.9,1.3,10.2,19.3,15.2,28.5h87.1c1.2,0,2.2-1,2.2-2.2V63.7
	C275.8,62.5,274.8,61.5,273.6,61.5z"/>
<path class="st8" d="M92.9,152.2c1.3,0,2.7-1,3.1-2.1l3.4-10.7c0.4-1.2-0.4-2.1-1.8-2.1H73.4c-2.3,0-4.2,1.7-4.2,3.7v7.6
	c0,2.1,1.9,3.7,4.2,3.7L92.9,152.2L92.9,152.2z"/>
<path class="st7" d="M69.7,145.8c0-2.1,1.9-3.7,4.2-3.7h24.7l0.9-2.8c0.4-1.2-0.4-2.1-1.8-2.1H73.4c-2.3,0-4.2,1.7-4.2,3.7v7.6
	c0,0.6,0.2,1.2,0.4,1.6L69.7,145.8L69.7,145.8z"/>
<path class="st10" d="M220.3,129.3h-28c-2,0-3.6-1.6-3.6-3.6V71.9c0-2,1.6-3.6,3.6-3.6h28c2,0,3.6,1.6,3.6,3.6v53.8
	C223.8,127.7,222.2,129.3,220.3,129.3z"/>
<path class="st10" d="M98.9,129.3h-13c-2,0-3.6-1.6-3.6-3.6V71.9c0-2,1.6-3.6,3.6-3.6h13c2,0,3.6,1.6,3.6,3.6v53.8
	C102.5,127.7,100.9,129.3,98.9,129.3z"/>
<path class="st10" d="M264.6,129.3h-28c-2,0-3.6-1.6-3.6-3.6V71.9c0-2,1.6-3.6,3.6-3.6h28c2,0,3.6,1.6,3.6,3.6v53.8
	C268.2,127.7,266.6,129.3,264.6,129.3z"/>
<path class="st10" d="M172.3,102.8h-58.2c-2,0-3.6-1.6-3.6-3.6V71.9c0-2,1.6-3.6,3.6-3.6h58.2c2,0,3.6,1.6,3.6,3.6v27.3
	C175.8,101.2,174.2,102.8,172.3,102.8z"/>
<circle class="st10" cx="110.3" cy="111" r="3"/>
<title>Artboard 1_1</title>
<line class="st13" x1="0" y1="179.7" x2="495" y2="179.7"/>
<path class="st4" d="M102.8,87.3v2c0,2.5-2,4.4-4.4,4.4H53.8c-2.5,0-4.4-2-4.4-4.4v-2c0-2.5,2-4.4,4.4-4.4h44.6
	C100.8,82.8,102.8,84.8,102.8,87.3z"/>
<circle class="st14" cx="116" cy="88.1" r="5.6"/>
<circle class="st7" cx="200.9" cy="154" r="5.2"/>
</svg>
