<svg data-name="Layer 1" xmlns="http://www.w3.org/2000/svg" viewBox="0 0 2244.23 1015" role="presentation"><title>City_shape_front</title><polygon fill="#f6f6f6" points="2239.46 254.74 2079.37 254.74 2080.05 363.12 2056.89 364.48 2057.57 224.75 1972.42 224.06 1973.78 279.27 1939.72 280.64 1941.08 45.67 1857.97 44.99 1857.97 0 1724.45 0.68 1724.45 116.33 1588.96 116.12 1588.96 312.68 1570.85 312.68 1570.85 290.46 1428.11 290.46 1428.11 247.92 1342.63 247.92 1342.63 226.38 1232.88 226.38 1233.23 367 1139.23 367 1139.23 280 1014.72 280 1014.23 320 958.18 320 957.7 280 823.23 280 822.85 250.92 706.36 250.92 706.36 315.68 635.51 315.68 635.51 199.12 460.43 199.12 459.75 269.33 410.02 269.33 410.02 133.68 276.49 133 276.49 177.99 163.38 178.67 164.75 283.64 130.68 282.28 132.05 227.06 46.89 227.75 25.09 257.74 0 257.74 0.73 1015 2244.23 1013 2239.46 254.74"/></svg>
