<?xml version="1.0" encoding="utf-8"?>
<!-- Generator: Adobe Illustrator 21.0.2, SVG Export Plug-In . SVG Version: 6.00 Build 0)  -->
<svg version="1.1" xmlns="http://www.w3.org/2000/svg" xmlns:xlink="http://www.w3.org/1999/xlink" x="0px" y="0px"
	 viewBox="0 0 2156 725.5" style="enable-background:new 0 0 2156 725.5;" xml:space="preserve" role="presentation">
<path fill="#e4eded" d="M1075.5,725.5l1080.5-1l-4.3-612.6H2008l0.6,97.2l-20.8,1.2l0.6-125.4l-76.5-0.6l1.2,49.5l-30.6,1.2l1.2-94.2l-74.6-0.6V0
	l-119.9,0.6v121.7h-44.7l-0.6-63H1487v104.6h-63.6v-58.1h-85.3l-0.1,207.3H1164v82.6h-88h4h-88v-82.6H818.1L818,105.8h-85.3v58.1
	h-63.6V59.3H511.9l-0.6,63h-44.7V0.6L346.8,0v40.4L272.2,41l1.2,94.2l-30.6-1.2l1.2-49.5L167.6,85l0.6,125.4l-20.8-1.2l0.6-97.2H4.3
	L0,724.5l1080.5,1"/>
</svg>
