<svg data-name="26" xmlns="http://www.w3.org/2000/svg" viewBox="0 0 462.09 100.38" role="presentation"><defs><style>.cls-1{fill:#fff;}</style></defs><title>Cloud</title><path class="cls-1" d="M781.13,665c0,2.26.13,4.48.34,6.68h-96A44.48,44.48,0,0,0,686,665a43.88,43.88,0,0,0-7.84-25.06,89.58,89.58,0,0,1,147.05-40.7A71.1,71.1,0,0,0,781.13,665Z" transform="translate(-501 -575.23)"/><path class="cls-1" d="M641.92,620.88a44,44,0,0,1,36.25,19A89.72,89.72,0,0,0,674.55,665c0,2.26.18,4.47.34,6.68h-76.5a43.78,43.78,0,0,1,43.53-50.77Z" transform="translate(-501 -575.23)"/><path class="cls-1" d="M685.45,671.65H674.89c-.16-2.21-.34-4.42-.34-6.68a89.72,89.72,0,0,1,3.62-25.06A43.88,43.88,0,0,1,686,665,44.48,44.48,0,0,1,685.45,671.65Z" transform="translate(-501 -575.23)"/><path class="cls-1" d="M550.39,665a22.93,22.93,0,0,1,45.85,0,22.69,22.69,0,0,1-1.1,6.68H551.5A22.37,22.37,0,0,1,550.39,665Z" transform="translate(-501 -575.23)"/><path class="cls-1" d="M918.34,671.65H853.71c.16-2.21.33-4.42.33-6.68a89.38,89.38,0,0,0-28.82-65.76A71.07,71.07,0,0,1,922,651.14a22,22,0,0,0-3.65,20.51Z" transform="translate(-501 -575.23)"/><path class="cls-1" d="M854,665c0,2.26-.17,4.47-.33,6.68H781.47c-.21-2.2-.34-4.42-.34-6.68a71.1,71.1,0,0,1,44.09-65.76A89.38,89.38,0,0,1,854,665Z" transform="translate(-501 -575.23)"/><path class="cls-1" d="M923.35,665A71.67,71.67,0,0,0,922,651.14,22.86,22.86,0,0,1,963.09,665a22.37,22.37,0,0,1-1.11,6.68H923C923.22,669.45,923.35,667.23,923.35,665Z" transform="translate(-501 -575.23)"/><path class="cls-1" d="M923,671.65h-4.68A22,22,0,0,1,922,651.14,71.67,71.67,0,0,1,923.35,665C923.35,667.23,923.22,669.45,923,671.65Z" transform="translate(-501 -575.23)"/><path class="cls-1" d="M501,672.27a11.47,11.47,0,1,1,22.38,3.34H501.56A11.19,11.19,0,0,1,501,672.27Z" transform="translate(-501 -575.23)"/></svg>
