<?xml version="1.0" encoding="utf-8"?>
<!-- Generator: Adobe Illustrator 19.2.0, SVG Export Plug-In . SVG Version: 6.00 Build 0)  -->
<svg version="1.1" xmlns="http://www.w3.org/2000/svg" xmlns:xlink="http://www.w3.org/1999/xlink" x="0px" y="0px"
	 viewBox="0 0 181.6 144.2" style="enable-background:new 0 0 181.6 144.2;" xml:space="preserve">
<style type="text/css">
	.st0{fill:#8E9DA5;}
	.st1{fill:#60AEAE;}
	.st2{fill:#78CCD0;}
	.st3{fill:#6E777F;}
	.st4{fill:#7B858D;}
	.st5{fill:#A0B6BE;}
	.st6{fill:#5D6671;}
	.st7{opacity:0.6;fill:#B5E2EE;enable-background:new    ;}
	.st8{fill:#A8CDDA;}
	.st9{fill:#CFDC38;}
</style>
<title>Drone</title>
<path class="st0" d="M73.5,122L50.1,91.6c-0.3-0.4-1.3-0.3-2.1,0.3c-0.8,0.6-1.2,1.5-0.8,1.9l23.3,30.4L73.5,122z"/>
<path class="st0" d="M113.2,122l23.3-30.4c0.3-0.4,1.3-0.3,2.1,0.3s1.2,1.5,0.8,1.9l-23.3,30.4L113.2,122z"/>
<rect x="63.3" y="92" class="st1" width="60" height="50.8"/>
<polygon class="st2" points="123.3,92 63.3,92 70.2,74.3 116.5,74.3 "/>
<ellipse transform="matrix(0.7123 -0.7019 0.7019 0.7123 -50.279 59.3953)" class="st3" cx="47.3" cy="91" rx="3.5" ry="3.5"/>
<path class="st0" d="M74.9,61.3L47.6,88.2c-0.4,0.4-0.1,1.3,0.6,2s1.6,1,2,0.6l27.3-26.9L74.9,61.3z"/>
<ellipse transform="matrix(0.7019 -0.7123 0.7123 0.7019 -23.3044 126.3629)" class="st3" cx="139.3" cy="91" rx="3.5" ry="3.5"/>
<path class="st0" d="M111.8,61.3l27.3,26.9c0.4,0.4,0.1,1.3-0.6,2s-1.6,1-2,0.6l-27.3-26.9L111.8,61.3z"/>
<path class="st4" d="M104.2,46.1L130,33.2c1.5-0.8,2.8-2.5,2.8-3.8v-3.6c0-1.3-1.3-2-2.8-1.5l-23.9,7.5c-1.5,0.5-2.9,2-3,3.4
	l-1.3,9.7C101.6,46.4,102.7,46.9,104.2,46.1z"/>
<path class="st5" d="M127.9,16.8h9.9c1,0,1.7,0.8,1.7,1.8l1.5,5.9l-1.8,0.3l-1.9,6.7c-0.3,1-1.3,1.8-2.3,1.8h-5.2
	c-1,0-1.9-0.8-2-1.8l-0.8-6.7l-0.7-0.3v-5.9C126.2,17.6,126.9,16.8,127.9,16.8z"/>
<path class="st0" d="M129.8,39.2h5.2c1,0,2-0.8,2.3-1.8l3.7-12.9c0.3-1-0.3-1.8-1.3-1.8h-11.8c-1,0-1.7,0.8-1.6,1.8l1.5,12.9
	C128,38.4,128.9,39.2,129.8,39.2z"/>
<path class="st6" d="M137.4,4.9v14.8c0,0.8-1.9,1.4-4.3,1.4s-4.3-0.6-4.3-1.4V4.9H137.4z"/>
<ellipse class="st7" cx="132.6" cy="6.1" rx="28.9" ry="5.1"/>
<path class="st6" d="M128.9,4.9c0,0.8,1.9,1.4,4.3,1.4s4.3-0.6,4.3-1.4s-1.9-2.4-4.3-2.4C130.8,2.5,128.9,4.1,128.9,4.9z"/>
<path class="st4" d="M114.5,61.8l29.1,3.8c1.7,0.2,3.1-0.8,3.1-2.3v-4c0-1.5-1.4-3.1-3.1-3.7L116.7,47c-1.7-0.5-3.2,0.2-3.4,1.7
	l-1.5,10C111.6,60.1,112.8,61.5,114.5,61.8z"/>
<path class="st5" d="M141.2,47.5h11.5c1.1,0,1.9,0.9,1.9,2l1.5,6.7l-2.1,0.4l-2.2,7.5c-0.3,1.1-1.5,2-2.6,2h-5.8
	c-1.1,0-2.1-0.9-2.2-2l-0.9-7.6l-0.8-0.3v-6.7C139.3,48.4,140.1,47.5,141.2,47.5z"/>
<path class="st0" d="M143.4,72.7h5.8c1.1,0,2.3-0.9,2.6-2l4.2-14.6c0.3-1.1-0.3-2-1.4-2h-13.3c-1.1,0-1.9,0.9-1.8,2l1.7,14.6
	C141.3,71.8,142.3,72.7,143.4,72.7z"/>
<path class="st6" d="M152,34.7v16c0,0.9-2.2,1.6-4.8,1.6s-4.8-0.7-4.8-1.6v-16H152z"/>
<path class="st4" d="M79.1,46.1L53.2,33.3c-1.5-0.8-2.8-2.5-2.8-3.8v-3.6c0-1.3,1.3-2,2.8-1.5l23.9,7.5c1.5,0.5,2.9,2,3,3.4l1.3,9.7
	C81.7,46.4,80.6,46.9,79.1,46.1z"/>
<path class="st5" d="M55.4,16.8h-9.9c-1,0-1.7,0.8-1.7,1.8l-1.5,5.9l1.8,0.3l1.9,6.7c0.3,1,1.3,1.8,2.3,1.8h5.2c1,0,1.9-0.8,2-1.8
	l0.8-6.7l0.7-0.3v-5.9C57,17.6,56.3,16.8,55.4,16.8z"/>
<path class="st0" d="M53.5,39.2h-5.2c-1,0-2-0.8-2.3-1.8l-3.7-12.9c-0.3-1,0.3-1.8,1.3-1.8h11.8c1,0,1.7,0.8,1.6,1.8l-1.5,12.9
	C55.3,38.4,54.4,39.2,53.5,39.2z"/>
<path class="st6" d="M45.9,4.9v14.8c0,0.8,1.9,1.4,4.3,1.4s4.3-0.6,4.3-1.4V4.9H45.9z"/>
<ellipse class="st7" cx="50.7" cy="6.1" rx="28.9" ry="5.1"/>
<path class="st6" d="M54.4,4.9c0,0.8-1.9,1.4-4.3,1.4s-4.3-0.6-4.3-1.4s1.9-2.4,4.3-2.4S54.4,4.1,54.4,4.9z"/>
<path class="st4" d="M68.8,61.8l-29.1,3.8c-1.7,0.2-3.1-0.8-3.1-2.3v-4c0-1.5,1.4-3.1,3.1-3.7L66.6,47c1.7-0.5,3.2,0.2,3.4,1.7
	l1.5,10C71.7,60.1,70.5,61.5,68.8,61.8z"/>
<path class="st5" d="M42.1,47.5H30.6c-1.1,0-1.9,0.9-1.9,2l-1.5,6.7l2.1,0.4l2.2,7.5c0.3,1.1,1.5,2,2.6,2h5.8c1.1,0,2.1-0.9,2.2-2
	l0.9-7.6l0.8-0.3v-6.7C44,48.4,43.2,47.5,42.1,47.5z"/>
<path class="st0" d="M39.9,72.7h-5.8c-1.1,0-2.3-0.9-2.6-2l-4.2-14.6c-0.3-1.1,0.3-2,1.4-2H42c1.1,0,1.9,0.9,1.8,2l-1.7,14.6
	C42,71.8,41,72.7,39.9,72.7z"/>
<path class="st6" d="M31.3,34.7v16c0,0.9,2.2,1.6,4.8,1.6s4.8-0.7,4.8-1.6v-16H31.3z"/>
<path class="st5" d="M116.9,36.3c-0.9-4.4-5.2-7.9-9.6-7.9H101H84.1h-6.3c-4.5,0-8.8,3.6-9.6,7.9L64,46.1c1.8-2.8,5-4.7,8.3-4.7H84
	h16.9h11.7c3.3,0,6.5,1.9,8.3,4.7L116.9,36.3z"/>
<path class="st6" d="M114.7,41.4H70.4c-4.4,0-7.2,3.6-6.3,7.9L68,62c1,4.4,5.4,7.9,9.8,7.9h29.4c4.4,0,8.8-3.6,9.8-7.9l4-12.6
	C121.9,45,119.1,41.4,114.7,41.4z"/>
<ellipse class="st7" cx="36.7" cy="36.1" rx="32.6" ry="5.7"/>
<path class="st6" d="M40.9,34.7c0,0.9-2.2,1.6-4.8,1.6s-4.8-0.7-4.8-1.6c0-0.9,2.2-2.7,4.8-2.7S40.9,33.8,40.9,34.7z"/>
<path class="st8" d="M108.9,34.3c0,1.6-7.5,2.9-16.8,2.9s-16.8-1.3-16.8-2.9s7.5-6.9,16.8-6.9S108.9,32.7,108.9,34.3z"/>
<ellipse class="st7" cx="146.6" cy="36.1" rx="32.6" ry="5.7"/>
<path class="st6" d="M142.4,34.7c0,0.9,2.2,1.6,4.8,1.6c2.7,0,4.8-0.7,4.8-1.6c0-0.9-2.2-2.7-4.8-2.7
	C144.5,32,142.4,33.8,142.4,34.7z"/>
<circle class="st9" cx="74.2" cy="50.5" r="2.4"/>
<title>Drone</title>
</svg>
