<svg id="Layer_1" data-name="Layer 1" xmlns="http://www.w3.org/2000/svg" xmlns:xlink="http://www.w3.org/1999/xlink" viewBox="0 0 424.66 448.42"><defs><style>.cls-1{fill:none;}.cls-2{fill:#56626c;}.cls-3{clip-path:url(#clip-path);}.cls-4{fill:#5cbaba;}.cls-5{fill:#c4d900;}.cls-6{fill:#57b152;}</style><clipPath id="clip-path" transform="translate(-11.51 -9.59)"><rect class="cls-1" x="11.51" y="68" width="408" height="290"/></clipPath></defs><title>heading</title><path class="cls-2" d="M23.66,21.33H11.51V12.91H45.87v8.42H33.71V57.19h-10Z" transform="translate(-11.51 -9.59)"/><path class="cls-2" d="M52,9.59H62V21.27l-.48,6c2.51-2.24,5.84-4.62,10.39-4.62,7.33,0,10.46,5.16,10.46,13.58V57.19h-10V37.56c0-4.89-1.29-6.38-4.14-6.38-2.51,0-4.07,1.15-6.24,3.26V57.19H52Z" transform="translate(-11.51 -9.59)"/><path class="cls-2" d="M88.77,40.35c0-10.94,7.81-17.66,15.89-17.66,9.57,0,14.33,7,14.33,16.16a22.39,22.39,0,0,1-.41,4.42H98.41c.89,4.88,4.28,7.13,8.76,7.13a13.54,13.54,0,0,0,7.27-2.25l3.33,6.05a22.12,22.12,0,0,1-12,3.8C96.17,58,88.77,51.48,88.77,40.35Zm21.73-3.67c0-3.74-1.63-6.38-5.64-6.38-3.12,0-5.84,2.1-6.51,6.38Z" transform="translate(-11.51 -9.59)"/><path class="cls-2" d="M11.51,367H55.4v13.34H27.32v14.09H51.2v13.23H27.32V423.8H56.48v13.34h-45Z" transform="translate(-11.51 -9.59)"/><path class="cls-2" d="M65,410.46c0-17.75,13-28,27.75-28a23.59,23.59,0,0,1,15.6,5.7l-7.42,10.22c-2.58-2.15-4.74-3.12-7.21-3.12-7.64,0-12.48,5.92-12.48,15.17s5.06,15.17,11.94,15.17c3.44,0,6.78-1.72,9.58-3.87L109,432.08a26.64,26.64,0,0,1-17.65,6.35C76.48,438.43,65,428.21,65,410.46Z" transform="translate(-11.51 -9.59)"/><path class="cls-2" d="M112.19,410.46c0-17.75,12.48-28,26-28s25.93,10.22,25.93,28-12.48,28-25.93,28S112.19,428.21,112.19,410.46Zm35.82,0c0-9.25-3.33-15.17-9.79-15.17s-9.79,5.92-9.79,15.17,3.23,15.17,9.79,15.17S148,419.71,148,410.46Z" transform="translate(-11.51 -9.59)"/><path class="cls-2" d="M175,383.78h12.91l1.08,6.78h.43c4.52-4.3,9.9-8.07,17.1-8.07,11.62,0,16.57,8.18,16.57,21.52v33.13H207.28V406.05c0-7.75-2.05-10.11-6.57-10.11-4,0-6.45,1.83-9.89,5.16v36H175Z" transform="translate(-11.51 -9.59)"/><path class="cls-2" d="M233.41,410.46c0-17.75,12.48-28,26-28s25.93,10.22,25.93,28-12.48,28-25.93,28S233.41,428.21,233.41,410.46Zm35.82,0c0-9.25-3.33-15.17-9.79-15.17s-9.79,5.92-9.79,15.17,3.23,15.17,9.79,15.17S269.23,419.71,269.23,410.46Z" transform="translate(-11.51 -9.59)"/><path class="cls-2" d="M296.23,383.78h12.91l1.07,6.89h.43c4.41-4.41,9.15-8.18,16.14-8.18,7.53,0,12,3.23,14.73,8.93,4.74-4.84,9.69-8.93,16.79-8.93,11.51,0,16.67,8.18,16.67,21.52v33.13H359.16V406.05c0-7.75-2.05-10.11-6.57-10.11-2.69,0-5.7,1.72-9.14,5.16v36H327.64V406.05c0-7.75-2.05-10.11-6.57-10.11-2.58,0-5.7,1.72-9,5.16v36H296.23Z" transform="translate(-11.51 -9.59)"/><path class="cls-2" d="M386.79,456.93l2.8-12.05a17.11,17.11,0,0,0,3.55.65c5.27,0,8-2.8,9.36-7l.75-2.8-20.54-52h15.92l7.63,22.91c1.51,4.85,2.8,9.9,4.2,15.17h.43c1.18-5.05,2.37-10.11,3.66-15.17L421,383.78h15.17l-18.5,53.9C412.61,451.12,406.91,458,394.32,458A24.18,24.18,0,0,1,386.79,456.93Z" transform="translate(-11.51 -9.59)"/><g class="cls-3"><path class="cls-4" d="M335.26,245.37a20,20,0,0,1,0-40h63.1a20,20,0,0,1,0,40Z" transform="translate(-11.51 -9.59)"/><path class="cls-4" d="M398.23,358h-.34c-.54,0-54.22-.9-69.45-.9-79.74,0-144.55-64.84-144.55-144.55S248.75,68,328.44,68c11.75,0,53.29,1.07,55.06,1.12a20,20,0,0,1-1,40c-.42,0-42.8-1.11-54.06-1.11a104.52,104.52,0,1,0,0,209c15.56,0,67.89.86,70.11.9a20,20,0,0,1-.31,40Z" transform="translate(-11.51 -9.59)"/><path class="cls-5" d="M399.9,358a19.8,19.8,0,0,1-19.59-19.85L379.43,225a19.83,19.83,0,0,1,19.43-20.17H399a19.81,19.81,0,0,1,19.59,19.86l.89,113.11A19.81,19.81,0,0,1,400.06,358h-.16Z" transform="translate(-11.51 -9.59)"/><path class="cls-4" d="M32.46,210.16a20,20,0,0,1-20-19.83l-1-101.81A20,20,0,0,1,31.3,68.32h.27a20,20,0,0,1,20,19.83l1,101.81a20,20,0,0,1-19.79,20.2h-.26Z" transform="translate(-11.51 -9.59)"/><path class="cls-5" d="M152.62,108.59h-121a20,20,0,0,1,0-40h121a20,20,0,0,1,0,40" transform="translate(-11.51 -9.59)"/><path class="cls-5" d="M35.45,357.27a20,20,0,0,1-.07-40l53.68-.19a53.43,53.43,0,0,0-.19-106.86h-.18c-40,.14-55.92.4-56.08.41a20,20,0,0,1-.67-40c.65,0,16.35-.28,56.6-.42h.33a93.47,93.47,0,0,1,.29,186.93l-53.69.19Z" transform="translate(-11.51 -9.59)"/><path class="cls-6" d="M51.59,108.59,51.4,88.15a20,20,0,0,0-17.07-19.6H31.49a20,20,0,0,0,0,40Z" transform="translate(-11.51 -9.59)"/><path class="cls-6" d="M52.51,170.15l-.19,20.44a20,20,0,0,1-17.07,19.6H32.41a20,20,0,0,1,0-40Z" transform="translate(-11.51 -9.59)"/><path class="cls-6" d="M379.43,244.9l.19-20.44a20,20,0,0,1,17.07-19.6h2.84a20,20,0,0,1,0,40Z" transform="translate(-11.51 -9.59)"/><path class="cls-6" d="M379.43,318l.19,20.44A20,20,0,0,0,396.69,358h2.84a20,20,0,0,0,0-40Z" transform="translate(-11.51 -9.59)"/></g></svg>