<?xml version="1.0" encoding="utf-8"?>
<!-- Generator: Adobe Illustrator 19.2.0, SVG Export Plug-In . SVG Version: 6.00 Build 0)  -->
<svg version="1.1" xmlns="http://www.w3.org/2000/svg" xmlns:xlink="http://www.w3.org/1999/xlink" x="0px"
	 y="0px" viewBox="0 0 504.8 456.3" style="enable-background:new 0 0 504.8 456.3;" xml:space="preserve">
<style type="text/css">
	.st0{fill:#EFC8A7;}
	.st1{fill:#55B9BF;}
	.st2{fill:#FFFFFF;}
	.st3{fill:#773C35;}
	.st4{fill:#F48866;}
	.st5{fill:#DCAA84;}
	.st6{fill:#D15D34;}
	.st7{fill:#78CDD1;}
	.st8{fill:#70BABA;}
	.st9{fill:#569694;}
	.st10{fill:#FA7A47;}
	.st11{fill:#D1E42D;}
	.st12{fill:#C7D4E2;}
</style>
<title>Artboard 1</title>
<path class="st0" d="M262.3,155.1c1.3-2.8,1-11,1-11l5.3-26.1l8.7-0.3c0,0,0.7-10.1,0.3-17c-0.3-6.9-3.3-14.5-3.3-14.5
	s6-5.4,5.7-9.8c-0.3-4.4-5.3-21.4-5.3-21.4l-46.3-6.6L196,58.4l-9.3,12.3l-4.5,14.1c0.6,6.6,1.7,12.9,3.8,15.2
	c5,5.3,13.7,3.7,13.7,3.7s0.6,21.9,4.2,29.8c3.8,8.6,23.8,22.7,43.8,28.5C251.7,163.2,261,157.9,262.3,155.1z"/>
<path class="st1" d="M443.9,81.7l35.9-3.3c2.2-0.2,3.6,2,3.1,4.9l-20.7,133.3c-0.5,2.9-2.6,5.5-4.8,5.7l-35.9,3.3
	c-2.2,0.2-3.6-2-3.1-4.9l20.7-133.3C439.6,84.5,441.7,81.9,443.9,81.7z"/>
<path class="st2" d="M442.8,87.8C442.8,87.8,442.8,87.8,442.8,87.8c0.1-0.9,0.9-1.5,1.7-1.6l29.3-2.7c1.3-0.1,2.3,1,2.1,2.3
	l-20.2,129.7c0,0,0,0,0,0c-0.1,0.8-0.9,1.5-1.7,1.5l-29.3,2.7c-1.3,0.1-2.3-1-2.1-2.3L442.8,87.8z"/>
<ellipse transform="matrix(0.2101 -0.9777 0.9777 0.2101 116.9671 325.0999)" cx="259.7" cy="90.2" rx="3.7" ry="2.3"/>
<g>
	<path class="st3" d="M267.2,84c-0.1,0-5.2-1.7-11.6-1.7c-6.7,0-10.9,1.1-13.5,2c-2,0.8-3.1-1.6-0.6-3.2c2.2-1.4,6.9-3.9,14.1-3.9
		c7.4,0,15.9,1.8,16.1,2C274,81.5,269.4,85.1,267.2,84z"/>
</g>
<g>
	<path class="st4" d="M259,133.7c-0.1,0-0.1,0-0.2,0c-0.5-0.1-11.9-2.5-14.5-3.5c-2.8-1-5.3-4.4-5.4-4.5c-0.3-0.4-0.2-1.1,0.2-1.4
		c0.4-0.3,1.1-0.2,1.4,0.2c0,0,2.2,3,4.5,3.8c2.5,0.9,14.1,3.4,14.3,3.4c0.5,0.1,0.9,0.6,0.8,1.2C259.9,133.3,259.5,133.7,259,133.7
		z"/>
</g>
<path class="st5" d="M203.8,133.5c-3.5-7.9-4.2-29.8-4.2-29.8s-8.2-0.2-13.2-5.5c-1.2-1.3-2.7-12.5-3.3-15.7
	C179,86.1,177,107,177,107l-8.2,21.5l-9,20.7l57.8,25c0,0,8.2-15.2,10.7-15.5s19.3,3.3,19.3,3.3
	C227.7,156.2,207.6,142.1,203.8,133.5z"/>
<path class="st3" d="M254.7,53.2c0,0-11.2,8-17,9.5c-5.8,1.5-16.5-4.8-16.5-4.8s-3.3,9.5-3.7,13S217,79,217,79h-11.7
	c0,0,0-9.5-9.7-9.2c-9.7,0.3-10.5,6.8-10.7,14.8s1.5,13.5,1.5,13.5L176,109.3c0,0-6.2-8.7-10.5-16.3s-6.7-51,6.7-66
	c13.3-15,35.8-15.7,44.2-14.8c8.3,0.8,23.7,9,23.7,9l19.2,15.2L254.7,53.2z"/>
<path class="st6" d="M218.2,51.1c0,0,17.7,7.4,37.5,10.7c19.8,3.3,37,3,45.5,2.3c18.3-1.3,15.3-7.4,9.2-8.3
	c-7.6-1.2-34.3-5.1-34.3-5.1L218.2,51.1z"/>
<path class="st2" d="M222.8,186c0,0,4.5-19.8,5.8-22.2s-22-16-37.8-24.8s-25.2-12.2-26.5-10.5s-15.8,24.8-15.8,24.8L222.8,186z"/>
<path class="st7" d="M155.5,149c-19,2.1-40,24-60,70.5S57,456.3,57,456.3h197c0,0-11-60.3-14.5-105.8s0-124.5-6.5-152.5
	S178.5,146.5,155.5,149z"/>
<path class="st0" d="M477.5,191.7c-1.5-4.2-10.8-6.2-10.8-6.2L466,189c0,0-3-0.5-8.5-0.8c-3.6-0.2-12-0.1-17.4-0.1
	c0-0.1,0.1-0.1,0.1-0.2c1-1.5,4.8-1.2,8-3.8s4.8-8.2,4.2-14.5s-7-6-7.8-3.5s-3.2,5-4.8,6.5s-5.2,4-7.8,4s-5.2,0.5-6.5,2
	s-12,10.8-15.5,12s-8.6,2.9-10.6,4.6c-1.3,1.1-11.5,8.9-18.8,14.5c9.1,6,21.7,25.3,26.8,39c3.8-2.2,7.5-4.3,8.6-4.3
	c2.2,0,34.8,4.5,38,4.2s15-0.8,17-1.8s4-4.5,4-9.5s-5.5-3.5-5.5-3.5s2-3.5,1.8-5.8s-1-6.2-1-6.2s2.5-2,3-3.5s1.2-2.2,1-6.8
	s-3-5.5-3-5.5s2-1,4.8-4S479,196,477.5,191.7z"/>
<path class="st5" d="M476.7,190.4c0.5,1.5,1,4-0.7,4.9c-2.5,1.2-10.5,0.8-10.5,0.8s0.5,5.5-0.5,7.8s-3.2,4.2-3.2,4.2s3.2,7,2,10.8
	s-2.5,5.5-2.5,5.5s1.5,2.8,1.5,5.5s-3.2,6.2-3.2,6.2s0.5,7-1,8.8s-12,1-20,0s-24.5-3.5-24.5-3.5l-7.5,4.6c0.4,1,0.8,2,1.2,3
	c3.8-2.2,7.5-4.3,8.6-4.3c2.2,0,34.8,4.5,38,4.2s15-0.8,17-1.8s4-4.5,4-9.5s-5.5-3.5-5.5-3.5s2-3.5,1.8-5.8s-1-6.2-1-6.2
	s2.5-2,3-3.5s1.2-2.2,1-6.8s-3-5.5-3-5.5s2-1,4.8-4s2.8-6.2,1.2-10.5C477.3,191.3,477,190.8,476.7,190.4z"/>
<path class="st8" d="M324.1,197.4c-12.8-7.7-20.5-18.3-17.2-23.8L240.9,249l45.1,53l66.8-100C349,206.8,336.4,204.9,324.1,197.4z"/>
<ellipse transform="matrix(0.515 -0.8572 0.8572 0.515 -0.7496 373.8372)" class="st9" cx="330" cy="187.6" rx="11.5" ry="27"/>
<path class="st0" d="M416,127.5c0-2.2-2-5.8-4.2-5.2s-12.8,1.5-14.2,1.5s-2.8,0.2-6.5,0.2s-10.8-0.8-12-1.5s-4.2-1.2-7.8-0.5
	s-18.8,2.5-20.5,2.5s-5.8-0.2-8.8-0.2s-4.8,1.5-6.5,4.2s-11.2,20.5-13,23s-5.2,4.5-6.2,7c-0.7,1.7-6.5,12.8-10,19.6
	c1.1,5.7,7.9,13.4,17.8,19.4c3.2,2,6.5,3.5,9.6,4.7l7.6-17.4c0,0,0,0,6.8-2s10-8.2,10-8.2l3.2,0.8c0,0,6.8,0.5,11.5-1.5
	s4.8-6.8,4.8-10.2s0-5.5,0-5.5s4-3,3.2-5.5s-5.5-13.2-5.5-13.2s4.2-0.8,6.8-0.8s19,1.2,24-0.8S416,129.7,416,127.5z"/>
<path class="st5" d="M408,132.7c-6,4-17.2,3.2-22.8,3s-7.8-0.8-7.8-0.8s-1.2,2.5-6.2,2.5s-7.5,0.5-8.2,1.2s-8.8,8.2-8.8,8.2
	s5.2,5,6.2,6.5c0.7,1,3.1,1.5,5.2,1.9c2.4,1,4.8,2.2,5.3,3.3c1,2.2,0.5,8.5-2.2,10.8s-3.8,2.2-8.2,1.5s-8.2-1.5-8.2-1.5l1,2.5
	c0,0-2.8,4-9.5,7.5s-17.8,3.2-17.8,3.2l5.2,1.8l-6.6,13.3c3.1,1.8,6.1,3.3,9.1,4.4l7.6-17.4c0,0,0,0,6.8-2s10-8.2,10-8.2l3.2,0.8
	c0,0,6.8,0.5,11.5-1.5s4.8-6.8,4.8-10.2s0-5.5,0-5.5s4-3,3.2-5.5s-5.5-13.2-5.5-13.2s4.2-0.8,6.8-0.8s19,1.2,24-0.8s10-8,10-10.2
	s-2-5.8-4.2-5.2C411.8,122.2,414,128.7,408,132.7z"/>
<path class="st7" d="M374,208.5l-100,70c0,0-37-70.5-48.5-89.5s-51.5-28.5-67.5,0.5s-1,54,14.5,79.5s75.5,96,84,103.5
	S285,368,300,358s100-88.5,108.5-95.5S384.5,202,374,208.5z"/>
<path class="st5" d="M266.9,113.4c-2.8-0.9-5,0-7.6,0.7c-5.2,1.4,8.2,3.8,8.2,3.8l9.9-0.4C274.1,117.9,269.7,114.3,266.9,113.4z"/>
<path class="st5" d="M255.3,138.3c-3.3-0.2-7.2-0.5-9.5-0.7c-2.3-0.2,1.3,2.7,5.8,3.3C256.2,141.7,260.7,138.7,255.3,138.3z"/>
<path class="st4" d="M242.8,124.2c0,0-0.6,0.2-4,1.4s-3.4,1.2-3.4,1.2s-0.3-1.8,2.3-3.3C240.5,122,242.8,124.2,242.8,124.2z"/>
<path class="st6" d="M163,54h67.7c0.5,0,1-0.4,1-1v-7.2c0-0.5-0.4-1-1-1H163c-0.5,0-1,0.4-1,1V53C162,53.6,162.4,54,163,54z"/>
<path class="st6" d="M279,55.8c0,0,0.8-30.3-4.7-40.5C268.8,5.2,248.7-2.5,218.5,0s-42,17.5-44.5,21.5c-0.8,1.2-0.9,1.9-0.6,2.2
	h15.5v21h0l0.2,1.4l-0.1,6.5c0,0,0.5,0.9,21.1,0.7c20.7-0.2,66.8,3.5,68.2,3.8C279.5,57.5,279,55.8,279,55.8z"/>
<path class="st10" d="M279,52c0,0,0.8-26.5-4.7-36.7c-3.8-7-14.5-12.8-30.5-14.9c-5,0.7-8.1,2.7-10,7.9c-3.2,8.8-2.7,45.3-2.7,45.3
	l3,0.4c20.6,1,36.9-0.2,37.8-0.2C279.3,53.5,279,52,279,52z"/>
<circle class="st11" cx="438.2" cy="99.6" r="11.7"/>
<circle class="st10" cx="408.3" cy="70.9" r="7.8"/>
<circle class="st12" cx="354.9" cy="103.5" r="3.9"/>
<path class="st2" d="M179.8,449.8v2c0,2.5-2,4.4-4.4,4.4H99.1c-2.5,0-4.4-2-4.4-4.4v-2c0-2.5,2-4.4,4.4-4.4h76.3
	C177.8,445.4,179.8,447.4,179.8,449.8z"/>
<circle class="st11" cx="193" cy="450.7" r="5.6"/>
<circle class="st12" cx="119.1" cy="376.8" r="8.2"/>
</svg>
