<?xml version="1.0" encoding="utf-8"?>
<!-- Generator: Adobe Illustrator 19.2.0, SVG Export Plug-In . SVG Version: 6.00 Build 0)  -->
<svg version="1.1" xmlns="http://www.w3.org/2000/svg" xmlns:xlink="http://www.w3.org/1999/xlink" x="0px"
	 y="0px" viewBox="0 0 409.7 453.2" style="enable-background:new 0 0 409.7 453.2;" xml:space="preserve">
<style type="text/css">
	.st0{fill:#F0F0F0;}
	.st1{fill:#50A06B;}
	.st2{fill:#67C187;}
	.st3{fill:#5D5D5D;}
	.st4{fill:#468C5C;}
	.st5{fill:#FFFFFF;}
	.st6{fill:#55B9BF;}
	.st7{fill:#DCAA84;}
	.st8{fill:#7A684E;}
	.st9{fill:#EFC8A7;}
	.st10{fill:#49516C;}
	.st11{fill:#752C1B;}
	.st12{fill:#602117;}
</style>
<title>Girl_in_car</title>
<path class="st0" d="M377.1,453.2H251.4c-17.9,0-30.2-14.6-27.4-32.5l36.6-232.8c2.8-17.9,19.8-32.5,37.6-32.5h78.9
	c17.9,0,32.5,14.6,32.5,32.5v232.8C409.7,438.6,395,453.2,377.1,453.2z"/>
<path class="st1" d="M154.3,163.3c0.7,3.2-6.1,7.5-15.3,9.5c-9.2,2.1-17.2,1.1-17.9-2.1L144.5,293l37-44L154.3,163.3z"/>
<path class="st2" d="M224,192.8l-4,3.5c0,0-41.2,35-50.2,46s-15.2,13.2-17.8,35.2s4,86,4,89.5s0,3.5,0,3.5s-22,34-31,47
	s-10,14.5-5.5,19S144,450.8,189,452s67.5,0,67.5,0l1.5-62.5c0,0,33-106.5,42.5-134.5S288,195,288,195C276,186,224,192.8,224,192.8z"
	/>
<path class="st0" d="M379.8,130.7h-41.9c-6,0-10.1-4.9-9.1-10.8L341,42.2c0.9-6,6.6-10.8,12.6-10.8h26.3c6,0,10.8,4.9,10.8,10.8
	v77.6C390.7,125.8,385.8,130.7,379.8,130.7z"/>
<polygon class="st3" points="366.1,155.3 369.3,130.7 349.1,130.7 346,155.3 "/>
<path class="st4" d="M237.3,277.3c16.7,26.3,29,50.9,35.5,64.6c10.1-32.2,22.4-71.5,27.7-86.9c9.5-28-12.5-60-12.5-60
	c-12-9-64-2.2-64-2.2l-4,3.5c0,0-20.6,17.5-35.8,31.6C192.3,231.5,216.6,244.6,237.3,277.3z"/>
<path class="st5" d="M205,62.8L193,64c0,0-2.2,1.8-2.2,4.2s0.2,22.5,0.2,22.5l4,2.5l6.5-1l5-13L205,62.8z"/>
<path class="st6" d="M64.2,54l-35.5-6.3c-2.1-0.4-3.7,1.7-3.5,4.7L34.8,187c0.2,2.9,2.1,5.7,4.3,6l35.5,6.3c2.1,0.4,3.7-1.7,3.5-4.7
	L68.5,60.1C68.2,57.1,66.3,54.4,64.2,54z"/>
<path class="st5" d="M64.8,60.2C64.8,60.2,64.8,60.2,64.8,60.2c-0.1-0.9-0.8-1.5-1.6-1.7l-29-5.1c-1.3-0.2-2.4,0.8-2.3,2.1l9.3,131
	c0,0,0,0,0,0c0.1,0.9,0.8,1.5,1.6,1.7l29,5.1c1.3,0.2,2.4-0.8,2.3-2.1L64.8,60.2z"/>
<path class="st7" d="M241.5,135c0,0-1.2,18.8-3.2,29.8s-3,16.5-3,16.5l34.8-0.5l22-62l-2-21.5l-5-2l-23,15.2L241.5,135z"/>
<path class="st0" d="M281.2,163c0,0-19.8,4.5-36,6.5s-18,1.8-18.2,2.5s-7,24.2-7,24.2s2.8-1,3.5,1.5s1.2,7.2,1.2,7.2s25-8.8,41-15.2
	S281.2,163,281.2,163z"/>
<path class="st8" d="M205.2,44c0,0-5-11.5,0-20.5s12.5-9,12.5-9S219.2,0,265.8,0S335,35.5,335,117s-30.8,100.2-35.8,101.8
	s-5.2-3-19.2-11.8s-22.2-9.2-22.2-9.2l4.8-3.8l-8.2,1c0,0,16.2-20.5,23-48.2s13-43.8,9.8-55s-19.2-7.5-19.2-7.5l-25.8-15L205.2,44z"
	/>
<path class="st9" d="M217.3,26.3c0,0-13.3,14.3-15.7,24.3c-2.3,10,2.5,19.5,2.5,19.5s-3.5,8.8-7.2,15c-3.4,5.7-7.8,11.5-7.7,12.5
	c0.3,2.8,5.7,7,12,7.7c0,0,0.5,8.2,3.8,19.8c3.2,11.3,6.1,16.4,8.5,17.2c7.3,2.2,17.6,0.4,27.3-1.8s25-10.2,30.2-15s12-23.5,12-23.5
	s12,1.5,15.5-15.2s-10-20.2-17.2-18s-6.8,8-6.8,8s-9-1.2-13.2-7.2s-4.2-7.5-4.2-7.5s-9.8,0-25.5-10S217.3,26.3,217.3,26.3z"/>
<path class="st7" d="M209.3,101.7c1.5-1.8-1.5-1.3-4.7-0.8c-3.2,0.5-2.8,1.7-7.5,0.8c-4.7-0.8-7.8-4-7.8-4c0.3,2.8,5.7,7,12,7.7
	C206.7,104.8,207.8,103.5,209.3,101.7z"/>
<circle class="st5" cx="283.8" cy="100.2" r="5.5"/>
<g>
	<path class="st8" d="M235.8,68.3c-0.5,0-0.9-0.2-1.3-0.5c0,0-1.1-1-3.2-2.4c-0.5-0.4-1.1-0.8-1.6-1.3c-1.8-1.6-4.1-3.5-8.6-3.9
		c-6.3-0.5-11.3-0.2-11.4-0.2c-1.1,0.1-2.1-0.8-2.1-1.9c-0.1-1.1,0.8-2.1,1.9-2.1c0.2,0,5.4-0.3,11.9,0.2c5.8,0.4,8.8,3.1,10.9,4.8
		c0.5,0.4,0.9,0.8,1.3,1c2.2,1.5,3.4,2.6,3.5,2.6c0.8,0.7,0.9,2,0.2,2.8C237,68.1,236.4,68.3,235.8,68.3z"/>
</g>
<path d="M191.8,93.2c0.5-0.7,1-1.5,1.6-2.4c-0.1,0-0.2-0.1-0.3-0.2c-0.3-0.3-0.5-0.7-0.5-1.2v-22c0-1.2,1-2.4,2.2-2.7l7.2-0.4
	c-0.2-0.9-0.4-1.8-0.6-2.8l-6.9,0.4l-0.2,0c-2.6,0.5-4.7,2.9-4.7,5.5v22c0,1.3,0.6,2.5,1.5,3.4C191.4,93,191.6,93.1,191.8,93.2z"/>
<path class="st9" d="M104.8,215.2l-28.2-29c0,0-8.2-16.2-9.8-22.5s-6.2-8.2-8.2-10.2s-4-3.8-5-10.8s0-10-3-11.8s-8.5,1.5-10,10.5
	s1,10.2,3.5,13s2.8,6.2,1.8,8.8s-5.5,1.2-9,0.5s-3.8-2.9-3.8-2.9l-1.1-14c0,0-3.9,0.2-9.1,1.4s-6.5,3.5-7,6.2s1.8,8.2,1.8,8.2
	S15,166,15,169s2.5,7.2,2.5,7.2s-3,4.5-3,7s0,2.5,0,2.5s-3.5,0-4,1.2s-1.8,6.2-0.8,9.2s11,10,11,10s7.2,3.5,8.2,3.8
	s23.5,9.2,24.8,10.5S79.5,247,79.5,247l11.5-9.5L104.8,215.2z"/>
<path class="st7" d="M82,245c-8.8-9.2-25.9-26.9-29.2-29c-4.5-2.8-29.2-10.2-30.2-13s1.8-7,1.8-7s-0.8-3-0.8-5.5s2-5.8,2-5.8
	s-1-2.8-1-5.8s2.8-5.2,2.8-5.2s-2-4.2-1.8-7s3.5-5.5,3.5-5.5s-1.2-2.5-5.8-7.5c-3.5-3.9-1.8-5.1-0.9-5.4c-4.9,1.3-6.1,3.5-6.6,6.1
	c-0.5,2.8,1.8,8.2,1.8,8.2S15,166,15,169s2.5,7.2,2.5,7.2s-3,4.5-3,7s0,2.5,0,2.5s-3.5,0-4,1.2s-1.8,6.2-0.8,9.2s11,10,11,10
	s7.2,3.5,8.2,3.8s23.5,9.2,24.8,10.5S79.5,247,79.5,247L82,245z"/>
<ellipse transform="matrix(0.9756 -0.2195 0.2195 0.9756 -33.2909 34.2995)" class="st4" cx="137.7" cy="167" rx="17" ry="5.9"/>
<path class="st10" d="M189,452c-45-1.2-65-11-69.5-15.5c-0.1-0.1-0.2-0.2-0.3-0.3l-9.2,17h108.5l-1.5-0.7
	C208.9,452.4,199.6,452.3,189,452z"/>
<path class="st9" d="M143.7,138.8c-0.9-3.1-17.5-15-23.2-19.8c-5.7-4.8-7.7-7-9.6-8.9c-2-2-6.3,1.9-6.3,1.9s-1.2-2.3-2.4-2.1
	s-4.3,2.3-4.9,2.4c-0.6,0.1-3.8-0.2-5.6-0.9c-1.9-0.7-3.1-1.1-5.7-0.2c-2.6,0.8-8.8,2.6-14.3,1.5c-5.5-1.2-9.1-2.7-10.6-4.6
	s-7.4,3.8-2.2,11.4c5.2,7.5,19.4,5.9,23.5,5.6c4.1-0.3,6.4-0.6,7.1-0.3s2.1,0.6,2.1,0.6s-1.6,5.6-2.3,7.1s1.3,4.7,1.3,4.7l1.8,3.3
	c0,0-2.1,0.5-3.4,0.5c-1.3,0.1-10,1.2-9.4,5.6c0.6,4.4,3.8,8.3,7.9,8c4.1-0.3,11.9-2,13.6-1.5s2.3,2.3,3.5,3.1
	c1.3,0.8,4.2,1.4,5.4,1.6c1.1,0.2,10,2.6,11.2,3.2c0.9,0.4,3.1,7.5,4.6,12.6c3.3,0.6,8.1,0.4,13.3-0.8c6.1-1.4,11.2-3.7,13.6-6.1
	C151,161.4,144.5,141.4,143.7,138.8z"/>
<g>
	<path class="st7" d="M135,173.5c-2.2-5.2-6.3-14.3-7-15.8c-1-2-5-3-9.5-3s-7.8-0.8-10-1.2s-3.2-0.8-4-2.5s-16.2,3-20,2.8
		c-0.2,0-0.3,0-0.5,0c1,0.6,2.2,0.9,3.4,0.8c4.1-0.3,11.9-2,13.6-1.5s2.3,2.3,3.5,3.1c1.3,0.8,4.2,1.4,5.4,1.6
		c1.1,0.2,10,2.6,11.2,3.2c0.9,0.4,3.1,7.5,4.6,12.6C128.2,174,131.4,174,135,173.5z"/>
	<path class="st7" d="M82.3,125c4.1-0.3,6.4-0.6,7.1-0.3s2.1,0.6,2.1,0.6s-1.6,5.6-2.3,7.1s1.3,4.7,1.3,4.7l1.8,3.3
		c4.7,0.4,12-1.6,14,0.4s0.8-2-0.8-6.2s-3-4.5-5-7s-8.2-4.5-10.2-5.2s-10,1.8-16,1.5s-11.9-2-15.4-4.4C64,126.9,78.2,125.2,82.3,125
		z"/>
</g>
<path class="st2" d="M165.8,264.8c0,0,56-45.8,68-53s33.8-11,46,6.5s-1,40.8-17.5,57.2s-80.1,59.8-83.2,62c-9.8,6.8-26.4,2-33.5-5.5
	c-9-9.5-80.1-92.9-86.5-99c-11-10.5,19.5-46.2,34.5-34S165.8,264.8,165.8,264.8z"/>
<path class="st7" d="M223.3,110c0,0,6,4,7.3,8.7c1.3,4.7,2,0,2-3.3C232.7,112,223.3,110,223.3,110z"/>
<path class="st11" d="M210.7,118.5c0,0-1.5,2-1,5.2c0.5,3.2,1,4.8,4.2,6.2c3.2,1.3,9.3-2.8,11.3-4.5c2-1.7,6.2-6.9,4.7-9.7
	c-0.7-1.2-6.3,2-6.3,2l-6.5,1L210.7,118.5z"/>
<path class="st5" d="M211.5,117.3c0,0,0.3,3.3,0.8,4.8s4.7,1.5,9.3-0.3c4.7-1.8,6.7-5.7,6.7-5.7l-12.5,0.8L211.5,117.3z"/>
<path class="st12" d="M206,116.2l1.3-1.3l2.2,1.3l3.2-1.2c0,0,5,0.5,9.2,0.2c4.2-0.3,8.3-1.2,8.3-1.2s0.5,1.5-1.2,2.2
	c-1.7,0.7-9.2,2.2-16,2.5C206.2,119,206,116.2,206,116.2z"/>
<path d="M214.8,93.6c-1.3,0-2.5-0.5-3.4-1.3c-1-0.9-1.6-2.2-1.6-3.6V65.4c0-2.8,2.3-5.3,5.1-5.4l0.1,0l18.1,0.8
	c1.4-0.1,2.7,0.4,3.6,1.3c1,0.9,1.6,2.2,1.6,3.6v21.2c0,2.8-2.3,5.3-5.1,5.4h0l-18.1,1.3C215,93.6,214.9,93.6,214.8,93.6z"/>
<path class="st5" d="M215.1,62.9c-1.2,0.1-2.2,1.2-2.2,2.4v23.3c0,0.6,0.2,1.1,0.6,1.4c0.4,0.4,0.9,0.5,1.5,0.5l18.1-1.3
	c1.2-0.1,2.3-1.2,2.3-2.5V65.7c0-0.6-0.2-1.1-0.6-1.4c-0.4-0.4-0.9-0.6-1.5-0.5l-0.1,0L215.1,62.9z"/>
<ellipse transform="matrix(0.9917 -0.1282 0.1282 0.9917 -7.8473 28.7937)" cx="219.7" cy="75.3" rx="2.7" ry="4.3"/>
</svg>
