<svg xmlns="http://www.w3.org/2000/svg" viewBox="0 0 44 44">
  <g data-name="Share : TW">
    <path fill-rule="evenodd" d="M22 0A22 22 0 1 1 0 22 22 22 0 0 1 22 0z"/>
    <path fill="#fff" d="M15.41 16.07a2.2 2.2 0 0 0-1.33.45l7.56 7.11a.6.6 0 0 0 .72 0l7.56-7.11a2.2 2.2 0 0 0-1.33-.45zm-1.91 1.11a2.22 2.22 0 0 0-.29 1.09v7.46a2.16 2.16 0 0 0 .37 1.21l5.52-4.46-5.6-5.3zm17 0l-5.62 5.29 5.52 4.46a2.16 2.16 0 0 0 .37-1.21v-7.45a2.22 2.22 0 0 0-.29-1.09zm-10.73 5.89l-5.57 4.5a2.26 2.26 0 0 0 1.21.36h13.18a2.26 2.26 0 0 0 1.21-.36l-5.57-4.5-1.23 1.2a1.42 1.42 0 0 1-1.92 0l-1.27-1.2z"/>
  </g>
</svg>
