<svg xmlns="http://www.w3.org/2000/svg" viewBox="0 0 44 44" aria-labelledby="linkedinIconTitle linkedinIconDesc">
<defs>
  <style>.cls-1{fill-rule:evenodd;}.cls-2{fill:#fff;}</style>
</defs>
<title>LinkedIn button icon</title>
<desc>Small LinkedIn icon for a button</desc>
<g><g data-name="Share : TW"><path class="cls-1" d="M22,0A22,22,0,1,1,0,22,22,22,0,0,1,22,0Z"/><path class="cls-2" d="M18.05,28.08h-3.3l0-9.86H18ZM16.32,16.93h0a1.67,1.67,0,1,1,0-3.33,1.65,1.65,0,0,1,1.79,1.66A1.68,1.68,0,0,1,16.32,16.93ZM29.47,28.08H26.15V22.72c0-1.3-.34-2.18-1.5-2.18a1.69,1.69,0,0,0-1.6,1.17,2.3,2.3,0,0,0-.11.78v5.59H19.6l0-9.86h3.34l0,1.39A3.09,3.09,0,0,1,25.78,18c2.11,0,3.69,1.37,3.69,4.33v5.73Z"/></g></g></svg>
