<svg xmlns="http://www.w3.org/2000/svg" viewBox="0 0 44 44" aria-labelledby="twitterOptimIconTitle twitterOptimIconDesc">
  <title>Icon for Twitter button</title>
  <desc>Icon for Twitter button</desc>
  <g fill-rule="evenodd" data-name="Share : TW">
    <path d="M22 0A22 22 0 1 1 0 22 22 22 0 0 1 22 0z"/>
    <path fill="#fff" d="M30.76 17.65a6.64 6.64 0 0 1-1.88.52 3.26 3.26 0 0 0 1.44-1.82 6.69 6.69 0 0 1-2.08.79 3.29 3.29 0 0 0-5.68 2.24 3.08 3.08 0 0 0 .09.75 9.31 9.31 0 0 1-6.77-3.42 3.29 3.29 0 0 0 1 4.38 3.13 3.13 0 0 1-1.49-.41A3.28 3.28 0 0 0 18 23.94a3.43 3.43 0 0 1-.86.11 4.07 4.07 0 0 1-.61-.05 3.28 3.28 0 0 0 3.07 2.27 6.58 6.58 0 0 1-4.07 1.41 6.81 6.81 0 0 1-.78-.05 9.35 9.35 0 0 0 14.38-7.85v-.42a6.75 6.75 0 0 0 1.64-1.69z"/>
  </g>
</svg>
