<svg xmlns="http://www.w3.org/2000/svg" viewBox="0 0 44 44">
  <g>
    <g>
      <path d="M22 0c12.2 0 22 9.8 22 22s-9.8 22-22 22S0 34.2 0 22 9.8 0 22 0z"/>
      <path d="M22 26c-.2 0-.4-.1-.6-.2l-4-3c-.4-.3-.5-1-.2-1.4.3-.4 1-.5 1.4-.2l3.4 2.6 3.4-2.5c.4-.3 1.1-.2 1.4.2.3.4.2 1.1-.2 1.4l-4 3c-.2 0-.4.1-.6.1z" fill="#fff"/>
      <path d="M22 25c-.6 0-1-.4-1-1V13c0-.6.4-1 1-1s1 .4 1 1v11c0 .6-.4 1-1 1zM27 30H17c-.6 0-1-.4-1-1s.4-1 1-1h10c.6 0 1 .4 1 1s-.4 1-1 1z" fill="#fff"/>
    </g>
  </g>
</svg>
