<svg xmlns="http://www.w3.org/2000/svg" viewBox="0 0 44 44"><defs><style>.cls-1{fill-rule:evenodd;}.cls-2{fill:#fff;}</style></defs><title>action-icons</title><g><g data-name="Share : TW"><path class="cls-1" d="M22,0A22,22,0,1,1,0,22,22,22,0,0,1,22,0Z"/><path class="cls-2" d="M15.41,16.07a2.2,2.2,0,0,0-1.33.45l7.56,7.11a.6.6,0,0,0,.72,0l7.56-7.11a2.2,2.2,0,0,0-1.33-.45ZM13.5,17.18a2.22,2.22,0,0,0-.29,1.09v7.46a2.16,2.16,0,0,0,.37,1.21h0l5.52-4.46L13.5,17.18Zm17,0-5.62,5.29,5.52,4.46h0a2.16,2.16,0,0,0,.37-1.21V18.27a2.22,2.22,0,0,0-.29-1.09ZM19.77,23.07l-5.57,4.5a2.26,2.26,0,0,0,1.21.36H28.59a2.26,2.26,0,0,0,1.21-.36l-5.57-4.5L23,24.27a1.42,1.42,0,0,1-1.92,0l-1.27-1.2Z"/></g></g></svg>