<svg xmlns="http://www.w3.org/2000/svg" viewBox="0 0 44 44" aria-labelledby="facebookOptimIconTitle facebookOptimIconDesc">
  <title>Icon for Facebook button</title>
  <desc>Icon for Facebook button</desc>
  <g data-name="Share : TW">
    <path fill-rule="evenodd" d="M22 0A22 22 0 1 1 0 22 22 22 0 0 1 22 0z"/>
    <path fill="#fff" d="M29.12 14H14.88a.89.89 0 0 0-.88.88v14.24a.88.88 0 0 0 .88.88h7.67v-6.2h-2.09v-2.41h2.09v-1.78a2.9 2.9 0 0 1 3.1-3.19 17.39 17.39 0 0 1 1.86.09v2.16h-1.28c-1 0-1.19.48-1.19 1.18v1.54h2.39l-.31 2.42H25V30h4.08a.88.88 0 0 0 .88-.88V14.88a.89.89 0 0 0-.88-.88"/>
  </g>
</svg>
