<svg xmlns="http://www.w3.org/2000/svg" viewBox="0 0 44 44" aria-labelledby="facebookIconTitle facebookIconDesc">
<defs>
  <style>.cls-1{fill-rule:evenodd;}.cls-2{fill:#fff;}</style>
</defs>
<title>Facebook button icon</title>
<desc>Small Facebook icon for a button</desc>
<g><g data-name="Share : TW"><path class="cls-1" d="M22,0A22,22,0,1,1,0,22,22,22,0,0,1,22,0Z"/><path class="cls-2" d="M29.12,14H14.88a.89.89,0,0,0-.88.88V29.12a.88.88,0,0,0,.88.88h7.67V23.8H20.46V21.39h2.09V19.61a2.9,2.9,0,0,1,3.1-3.19,17.39,17.39,0,0,1,1.86.09v2.16H26.23c-1,0-1.19.48-1.19,1.18v1.54h2.39l-.31,2.42H25V30h4.08a.88.88,0,0,0,.88-.88V14.88a.89.89,0,0,0-.88-.88"/></g></g></svg>
