<svg xmlns="http://www.w3.org/2000/svg" viewBox="0 0 44 44">
  <path fill="#010101" fill-rule="evenodd" d="M22 0c12.2 0 22 9.8 22 22s-9.8 22-22 22S0 34.2 0 22 9.8 0 22 0z" clip-rule="evenodd"/>
  <path fill="#FFF" d="M16.7 19.6c-.3 0-.5.1-.7.3l-1.2 1.4c-1.1 1.1-1.7 2.5-1.7 4s.6 3 1.7 4c1.1 1.1 2.5 1.7 4 1.7s2.9-.6 4-1.7L24 28c.2-.2.3-.5.3-.7 0-.3-.1-.5-.3-.7-.2-.2-.5-.3-.7-.3-.3 0-.5.1-.7.3l-1.3 1.3c-.7.7-1.6 1.1-2.6 1.1s-1.9-.4-2.6-1.1c-.7-.7-1.1-1.6-1.1-2.6s.4-1.9 1.1-2.6l1.3-1.3c.2-.2.3-.5.3-.7 0-.3-.1-.5-.3-.7-.2-.3-.4-.4-.7-.4zM26.6 22.6c-.2.2-.3.5-.3.7 0 .3.1.5.3.7.4.4 1 .4 1.4 0l1.3-1.3c1.1-1.1 1.7-2.5 1.7-4s-.6-3-1.7-4c-1.1-1.1-2.5-1.7-4-1.7s-2.9.6-4 1.7L20 16c-.4.4-.4 1.1 0 1.5.2.2.5.3.7.3s.5-.1.7-.3l1.3-1.3c.7-.7 1.6-1.1 2.6-1.1s1.9.4 2.6 1.1c.7.7 1.1 1.6 1.1 2.6s-.4 1.9-1.1 2.6l-1.3 1.2z"/>
  <path fill="#FFF" d="M24.2 18.7c-.3 0-.5.1-.7.3l-4.4 4.4c-.4.4-.4 1.1 0 1.5.4.4 1 .4 1.4 0l4.4-4.4c.2-.2.3-.5.3-.7 0-.3-.1-.5-.3-.7-.2-.2-.4-.4-.7-.4z"/>
</svg>
