<?xml version="1.0" encoding="utf-8"?>
<!-- Generator: Adobe Illustrator 21.0.2, SVG Export Plug-In . SVG Version: 6.00 Build 0)  -->
<svg version="1.1" xmlns="http://www.w3.org/2000/svg" xmlns:xlink="http://www.w3.org/1999/xlink" x="0px"
	 y="0px" viewBox="0 0 31 23" style="enable-background:new 0 0 31 23;" xml:space="preserve" aria-labelledby="burgerMenuIconTitle burgerMenuIconDesc">
   <title>Icon for mobile menu</title>
   <desc>Three horizontal bars for the mobile menu icon</desc>
<path d="M29.5,3h-14C14.7,3,14,2.3,14,1.5S14.7,0,15.5,0h14C30.3,0,31,0.7,31,1.5S30.3,3,29.5,3z"/>
<path fill="#78CDD1" d="M9.5,3h-4C4.7,3,4,2.3,4,1.5S4.7,0,5.5,0h4C10.3,0,11,0.7,11,1.5S10.3,3,9.5,3z"/>
<path d="M29.5,13h-28C0.7,13,0,12.3,0,11.5S0.7,10,1.5,10h28c0.8,0,1.5,0.7,1.5,1.5S30.3,13,29.5,13z"/>
<path fill="#78CDD1" d="M29.5,23h-28C0.7,23,0,22.3,0,21.5S0.7,20,1.5,20h28c0.8,0,1.5,0.7,1.5,1.5S30.3,23,29.5,23z"/>
</svg>
