<?xml version="1.0" encoding="utf-8"?>
<!-- Generator: Adobe Illustrator 21.0.2, SVG Export Plug-In . SVG Version: 6.00 Build 0)  -->
<svg version="1.1" xmlns="http://www.w3.org/2000/svg" xmlns:xlink="http://www.w3.org/1999/xlink" x="0px" y="0px"
	 viewBox="0 0 10.3 10.3" style="enable-background:new 0 0 10.3 10.3;" xml:space="preserve" aria-labelledby="crossIconTitle crossIconTitle">
   <title>Icon to close menu</title>
   <desc>Small icon to close menu</desc>
<style type="text/css">
	.st0{fill:#FFFFFF;}
</style>
<title>Close</title>
<path class="st0" d="M6.5,5.1L10,1.7c0.4-0.4,0.4-1,0-1.4c-0.4-0.4-1-0.4-1.4,0L5.1,3.7L1.7,0.3c-0.4-0.4-1-0.4-1.4,0
	c-0.4,0.4-0.4,1,0,1.4l0,0l3.4,3.4L0.3,8.6c-0.4,0.4-0.4,1,0,1.4c0,0,0,0,0,0c0.4,0.4,1,0.4,1.4,0c0,0,0,0,0,0l3.4-3.4L8.6,10
	c0.4,0.4,1,0.4,1.4,0c0,0,0,0,0,0c0.4-0.4,0.4-1,0-1.4c0,0,0,0,0,0L6.5,5.1z"/>
</svg>
