<svg xmlns="http://www.w3.org/2000/svg" viewBox="0 0 30 30"><defs><style>.cls-1{fill:#78cdd1;fill-rule:evenodd;}</style></defs><title>Numbers+icons</title><g data-name="Icons copy"><g data-name="Event copy"><rect x="14" y="-0.22" width="2" height="20" rx="1" ry="1" transform="translate(5.22 24.78) rotate(-90)"/><path class="cls-1" d="M21.58,19.29a1.65,1.65,0,1,1-1.64,1.64A1.64,1.64,0,0,1,21.58,19.29Z"/><path class="cls-1" d="M15,19.29a1.65,1.65,0,1,1-1.65,1.64A1.64,1.64,0,0,1,15,19.29Z"/><path class="cls-1" d="M8.42,19.29a1.65,1.65,0,0,1,0,3.29,1.65,1.65,0,1,1,0-3.29Z"/><path class="cls-1" d="M21.58,13.8a1.65,1.65,0,1,1,0,3.29,1.65,1.65,0,0,1,0-3.29Z"/><path class="cls-1" d="M15,13.8a1.65,1.65,0,1,1-1.65,1.65A1.65,1.65,0,0,1,15,13.8Z"/><path class="cls-1" d="M8.42,13.8a1.65,1.65,0,1,1-1.65,1.65A1.64,1.64,0,0,1,8.42,13.8Z"/><path d="M24.06,28H3.75A3.73,3.73,0,0,1,0,24.24V5.69A3.74,3.74,0,0,1,3.75,2h22.5A3.74,3.74,0,0,1,30,5.69V21.51a1,1,0,1,1-2,0v-15A2.6,2.6,0,0,0,25.4,4H4.6A2.6,2.6,0,0,0,2,6.54V23.39A2.59,2.59,0,0,0,4.6,26H24.06a1,1,0,1,1,0,2Z"/><rect x="6.59" y="0.88" width="1.8" height="4" rx="0.9" ry="0.9"/><rect x="21.62" y="0.88" width="1.8" height="4" rx="0.9" ry="0.9"/></g></g></svg>