<?xml version="1.0" encoding="utf-8"?>
<!-- Generator: Adobe Illustrator 23.0.1, SVG Export Plug-In . SVG Version: 6.00 Build 0)  -->
<svg version="1.1" xmlns="http://www.w3.org/2000/svg" xmlns:xlink="http://www.w3.org/1999/xlink" x="0px" y="0px"
	 viewBox="0 0 800 800" style="enable-background:new 0 0 800 800;" xml:space="preserve">
<style type="text/css">
	.st0{fill:#78CDD1;}
	.st1{fill:#383B3E;}
	.st2{fill:none;}
	.st3{fill:#FFFFFF;}
	.st4{fill:none;stroke:#FFFFFF;stroke-width:9;stroke-linecap:round;stroke-linejoin:round;stroke-miterlimit:10;}
	.st5{fill:none;stroke:#FFFFFF;stroke-width:8;stroke-linecap:round;stroke-linejoin:round;stroke-miterlimit:10;}
	.st6{fill:#78CDD1;stroke:#FFFFFF;stroke-width:8;stroke-miterlimit:10;}
	.st7{fill:#373535;}
	.st8{fill:#373535;stroke:#373535;stroke-width:4;stroke-miterlimit:10;}
	.st9{fill:none;stroke:#383B3E;stroke-width:7;stroke-miterlimit:10;}
	.st10{fill:none;stroke:#383B3E;stroke-width:7;stroke-linecap:round;stroke-linejoin:round;stroke-miterlimit:10;}
</style>
<circle class="st0" cx="402.02" cy="406.28" r="387"/>
<g>
	<circle class="st1" cx="367.67" cy="155.13" r="5.19"/>
	<circle class="st9" cx="368.62" cy="645.8" r="18.8"/>
	<rect x="212.92" y="209.21" class="st1" width="311.4" height="7.09"/>
	<rect x="212.92" y="599.95" class="st1" width="311.4" height="7.09"/>
	<path class="st1" d="M493.18,690.08H244.06c-19.12,0-34.68-15.56-34.68-34.68V157.16c0-19.12,15.56-34.68,34.68-34.68h249.12
		c19.12,0,34.68,15.56,34.68,34.68v101.07c0,1.96-1.59,3.54-3.54,3.54c-1.96,0-3.54-1.59-3.54-3.54V157.16
		c0-15.22-12.38-27.6-27.6-27.6H244.06c-15.22,0-27.6,12.38-27.6,27.6v498.23c0,15.22,12.38,27.6,27.6,27.6h249.12
		c15.22,0,27.6-12.38,27.6-27.6V551.35c0-1.96,1.59-3.54,3.54-3.54c1.96,0,3.54,1.59,3.54,3.54v104.04
		C527.86,674.52,512.3,690.08,493.18,690.08z"/>
	<g>
		<path class="st3" d="M515.06,480.32c-1.68,0-3.04-1.36-3.04-3.04V429l-15.62-15.62c-1.19-1.19-1.19-3.11,0-4.29
			c1.19-1.19,3.11-1.19,4.29,0l16.51,16.51c0.57,0.57,0.89,1.34,0.89,2.15v49.54C518.09,478.96,516.73,480.32,515.06,480.32z"/>
		<path class="st3" d="M537.07,480.32c-1.68,0-3.04-1.36-3.04-3.04v-49.54c0-0.8,0.32-1.58,0.89-2.15l16.51-16.51
			c1.19-1.19,3.11-1.19,4.29,0c1.19,1.19,1.19,3.11,0,4.29L540.11,429v48.28C540.11,478.96,538.75,480.32,537.07,480.32z"/>
	</g>
	<g>
		<g>
			<path class="st1" d="M557.51,481.93c-1.68,0-3.04-1.36-3.04-3.04v-17.01c-0.02-0.16-0.69-9.71,7.87-15.12
				c16.53-10.47,26.8-30.24,26.8-51.59c0-34.75-28.27-63.02-63.02-63.02s-63.02,28.27-63.02,63.02c0,20.7,9.88,39.88,26.42,51.3
				c6.14,4.25,7.66,6.83,8.02,7.74c0.14,0.36,0.22,0.74,0.22,1.13v23.54c0,1.68-1.36,3.04-3.04,3.04c-1.68,0-3.04-1.36-3.04-3.04
				v-22.67c-0.51-0.62-2.02-2.25-5.62-4.74c-18.18-12.55-29.04-33.6-29.04-56.3c0-38.1,30.99-69.09,69.09-69.09
				c38.1,0,69.09,30.99,69.09,69.09c0,23.41-11.35,45.14-29.63,56.72c-5.49,3.47-5.06,9.68-5.05,9.74l0.01,17.25
				C560.54,480.57,559.18,481.93,557.51,481.93z"/>
		</g>
		<g>
			<path class="st1" d="M539.62,535.22L539.62,535.22l-26.02-0.02c-0.63,0-1.25-0.2-1.76-0.57l-22.11-15.77
				c-0.8-0.57-1.27-1.49-1.27-2.47l0.02-21.23c0-1.68,1.36-3.03,3.04-3.03h0l69.21,0.06c0.81,0,1.58,0.32,2.15,0.89
				c0.57,0.57,0.89,1.34,0.89,2.15l-0.02,21.23c0,0.96-0.45,1.86-1.22,2.43l-21.09,15.73C540.92,535,540.28,535.22,539.62,535.22z
				 M514.58,529.12l24.04,0.02l19.06-14.22l0.02-16.67l-63.14-0.06l-0.02,16.63L514.58,529.12z"/>
			<path class="st1" d="M558.77,520.3L558.77,520.3L494,520.24c-1.68,0-3.04-1.36-3.03-3.04c0-1.68,1.36-3.03,3.04-3.03h0
				l64.77,0.06c1.68,0,3.04,1.36,3.03,3.04C561.8,518.94,560.45,520.3,558.77,520.3z"/>
		</g>
	</g>
	<path class="st3" d="M472.81,336.42c-0.83,0-1.66-0.32-2.29-0.95l-29.07-29.07c-1.27-1.27-1.27-3.32,0-4.58
		c1.27-1.27,3.32-1.27,4.58,0l29.07,29.07c1.27,1.27,1.27,3.32,0,4.58C474.47,336.1,473.64,336.42,472.81,336.42z"/>
	<path class="st3" d="M524.32,306.47c-1.79,0-3.24-1.45-3.24-3.24v-41.11c0-1.79,1.45-3.24,3.24-3.24c1.79,0,3.24,1.45,3.24,3.24
		v41.11C527.56,305.01,526.11,306.47,524.32,306.47z"/>
	<path class="st3" d="M579.78,336.42c-0.83,0-1.66-0.32-2.29-0.95c-1.27-1.27-1.27-3.32,0-4.58l29.07-29.07
		c1.27-1.27,3.32-1.27,4.58,0c1.27,1.27,1.27,3.32,0,4.58l-29.07,29.07C581.44,336.1,580.61,336.42,579.78,336.42z"/>
	<path class="st3" d="M603.07,383.41c0-1.79,1.45-3.24,3.24-3.24h41.11c1.79,0,3.24,1.45,3.24,3.24c0,1.79-1.45,3.24-3.24,3.24
		h-41.11C604.52,386.65,603.07,385.2,603.07,383.41z"/>
	<path class="st3" d="M400.68,383.41c0-1.79,1.45-3.24,3.24-3.24h41.11c1.79,0,3.24,1.45,3.24,3.24c0,1.79-1.45,3.24-3.24,3.24
		h-41.11C402.13,386.65,400.68,385.2,400.68,383.41z"/>
	<line class="st10" x1="336.66" y1="183.4" x2="397.66" y2="183.4"/>
</g>
</svg>
