<?xml version="1.0" encoding="utf-8"?>
<!-- Generator: Adobe Illustrator 23.0.1, SVG Export Plug-In . SVG Version: 6.00 Build 0)  -->
<svg version="1.1" xmlns="http://www.w3.org/2000/svg" xmlns:xlink="http://www.w3.org/1999/xlink" x="0px" y="0px"
	 viewBox="0 0 800 800" style="enable-background:new 0 0 800 800;" xml:space="preserve">
<style type="text/css">
	.st0{fill:#78CDD1;}
	.st1{fill:#383B3E;}
	.st2{fill:none;}
	.st3{fill:#FFFFFF;}
	.st4{fill:none;stroke:#383B3E;stroke-width:7;stroke-miterlimit:10;}
	.st5{fill:none;stroke:#383B3E;stroke-width:7;stroke-linecap:round;stroke-linejoin:round;stroke-miterlimit:10;}
	.st6{fill:#2E2E2E;}
	.st7{fill:none;stroke:#FFFFFF;stroke-width:6;stroke-linecap:round;stroke-linejoin:round;stroke-miterlimit:10;}
</style>
<circle class="st0" cx="401.09" cy="398.09" r="387"/>
<g>
	<g>
		<path class="st1" d="M620.05,505.66c-18.45-20.92-42.91-32.44-68.89-32.44h-4.54V440.3l-0.47-2.04l1.22-0.75
			c24.33-14.84,38.86-40.76,38.86-69.36c0-44.63-35.78-80.94-79.75-80.94c-43.97,0-79.75,36.31-79.75,80.94
			c0,28.44,15.1,55.14,39.41,69.69l1.15,0.69l-0.2,1.33c-0.03,0.18-0.07,0.34-0.12,0.4v32.95h-4.07
			c-28.29,0-53.81,13.75-71.66,35.68c-1.3,1.59-2.56,3.23-3.77,4.91c-13.87,19.17-22.21,43.7-22.21,70.4v31.21v5.16v31.46
			c0,1.46,1.19,2.64,2.64,2.64h278.22c1.45,0,2.63-1.18,2.63-2.64v-67.87C648.76,554.54,638.56,526.66,620.05,505.66z M553.4,312.36
			l1.54-1.53l1.42,1.3c14.2,13.08,22.83,30.9,24.29,50.19l0.2,2.68l-2.63-0.57c-29.49-6.38-44.61-22.95-49.74-29.78l-1.28-1.7
			l1.77-1.18c8.49-5.64,16.73-12.17,24.22-19.09L553.4,312.36z M434.48,349.15c8.54-33.35,38.15-56.66,72-56.66
			c15.21,0,29.89,4.7,42.43,13.57l2.03,1.43l-1.83,1.68c-40.67,37.55-81.09,43.15-101.56,43.15c-5.67,0-9.58-0.42-11.41-0.69
			l-2.22-0.32L434.48,349.15z M432.01,368.15c0-2.93,0.21-5.98,0.67-9.61l0.26-2.07l2.06,0.33c1.69,0.28,6.39,0.92,13.39,0.92
			c16.9,0,43.25-3.65,72.76-21.04l1.57-0.93l1.08,1.48c5.52,7.67,21.98,26.22,55.34,32.75l1.7,0.33l-0.09,1.74
			c-2.04,40.24-34.67,71.76-74.29,71.76C465.41,443.82,432.01,409.87,432.01,368.15z M506.49,492.23l-34.24-17.96V441.3l2.81,1.23
			c9.98,4.36,20.55,6.57,31.42,6.57c11.06,0,21.84-2.32,32.02-6.88l2.83-1.26v33.3L506.49,492.23z M540.24,480.77l-6.79,31.8
			l-22.06-16.93L540.24,480.77z M501.7,495.67l-21.36,17.32l-6.96-32.16L501.7,495.67z M463.57,479.73l0.96-1.22h2.95l34.35,158.96
			l-3.32,1.89c-36.13-33.34-45.55-66.19-47.07-72.45l-0.15-0.61l10.3-26.77c0.31-0.82,0.2-1.73-0.29-2.45
			c-0.49-0.72-1.31-1.14-2.17-1.14h-19.4L463.57,479.73z M431.51,649.4v-31.91c0-1.46-1.18-2.64-2.63-2.64
			c-1.46,0-2.64,1.18-2.64,2.64v31.91h-55.7v-28.82v-5.16v-31.21c0-25.91,7.46-47.66,19.11-64.58c1.24-1.8,2.52-3.54,3.85-5.23
			c16.35-20.77,39.26-33.11,61.43-35.47l3.39-0.36l-25,58.97c-0.35,0.82-0.26,1.75,0.23,2.48c0.49,0.75,1.31,1.19,2.2,1.19h19.54
			l-9.19,23.9c-0.17,0.46-0.22,0.95-0.14,1.42c0.29,1.62,7.83,40.19,51.98,79.36l3.96,3.51H431.51z M505.02,627.19l-23.43-108.42
			l24.94-20.21l25.69,19.72l-23.28,108.91L505.02,627.19z M546.11,478.5h5.33l23.27,56.3h-19.08c-0.86,0-1.67,0.43-2.16,1.13
			c-0.5,0.73-0.61,1.64-0.31,2.46l10.16,27.06l-0.14,0.6c-1.53,6.48-11.04,40.57-48.02,74.82l-3.33-1.89L546.11,478.5z
			 M643.47,649.4h-56.75v-31.91c0-1.46-1.18-2.64-2.64-2.64c-1.45,0-2.63,1.18-2.63,2.64v31.91h-67.9l3.84-3.49
			c43.8-39.83,50.97-78.6,51.26-80.22c0.08-0.47,0.03-0.95-0.13-1.39l-9.08-24.2h19.22c0.89,0,1.7-0.44,2.19-1.17
			c0.5-0.73,0.59-1.66,0.24-2.48l-23.87-57.74l3.43,0.44c53.79,6.81,82.81,59.2,82.81,105.04V649.4z"/>
		<path class="st2" d="M400.81,618.01c0,1.42-1.16,2.58-2.58,2.58h-27.69v28.82h55.7v-31.91c0-1.46,1.18-2.64,2.64-2.64
			c1.45,0,2.63,1.18,2.63,2.64v31.91h70.37l-3.96-3.51c-44.15-39.17-51.68-77.74-51.98-79.36c-0.08-0.46-0.03-0.96,0.14-1.42
			l9.19-23.9h-19.54c-0.89,0-1.71-0.44-2.2-1.19c-0.49-0.73-0.58-1.66-0.23-2.48l25-58.97l-3.39,0.36
			c-22.16,2.36-45.08,14.7-61.43,35.47c4.79,12.67,7.32,26.41,7.31,40.59V618.01z"/>
		<path class="st2" d="M292.19,482.41c-7,2.2-14.46,3.32-22.17,3.32c-10.21,0-18.88-1.89-24.34-3.47l-2.78-0.81l24.39,112.88
			l3.64-0.01l24.1-112.79L292.19,482.41z"/>
		<path class="st2" d="M229.68,457.06l-0.82,1.19l-22.29,52.6h18.12c0,0,0,0,0,0v-0.75c0.85,0,1.65,0.42,2.13,1.13
			c0.48,0.7,0.59,1.59,0.29,2.38l-9.54,24.81l0.13,0.53c1.39,5.77,10.02,35.97,43.23,66.81l3.16-1.8l-31.75-146.9H229.68z"/>
		<path class="st2" d="M321.13,538.15l0.12-0.51l-9.41-25.09c-0.29-0.8-0.18-1.7,0.3-2.39c0.49-0.69,1.28-1.11,2.12-1.11h17.5
			l-21.49-51.99h-4.76l-31.68,148.3l3.16,1.79C311.13,575.39,319.74,544.12,321.13,538.15z"/>
		<path class="st2" d="M387.47,513.81c-11.45-28.11-34.71-51.88-68.56-56.17l-2.96-0.38l22.06,53.39c0.33,0.8,0.24,1.7-0.24,2.41
			c-0.47,0.72-1.28,1.15-2.15,1.15h-17.64l8.35,22.29c0.16,0.42,0.2,0.9,0.13,1.36c-0.28,1.53-7.15,37.73-47.62,74.54l-3.31,3.01
			h62.55v-29.49c0-1.43,1.16-2.59,2.58-2.59c1.43,0,2.59,1.16,2.59,2.59v29.49h22.01v-31.21
			C365.25,557.51,373.59,532.98,387.47,513.81z"/>
		<path class="st2" d="M337.44,358.13l0.07-1.5l-1.47-0.29c-30.98-6.08-46.3-23.32-51.45-30.46l-0.91-1.28l-1.37,0.8
			c-27.4,16.16-51.88,19.55-67.6,19.55c-6.5,0-10.87-0.6-12.45-0.85l-1.78-0.29l-0.22,1.79c-0.42,3.36-0.62,6.19-0.62,8.91
			c0,38.65,30.95,70.1,68.98,70.1C305.32,424.61,335.55,395.41,337.44,358.13z"/>
		<path class="st2" d="M288.07,321.85l1.1,1.48c4.76,6.32,18.77,21.67,46.09,27.59l2.28,0.49l-0.18-2.32
			c-1.35-17.87-9.35-34.38-22.51-46.49l-1.24-1.14l-1.48,1.57c-7.1,6.62-14.68,12.62-22.52,17.82L288.07,321.85z"/>
		<path class="st2" d="M268.63,429.77c-10.1,0-19.93-2.06-29.21-6.12l-2.43-1.05v31.6l4.58,21.2l0.86,0.34
			c0.5,0.2,12.37,4.77,27.67,4.77c9.11,0,17.65-1.6,25.37-4.76l0.85-0.34l4.55-21.29l-0.02-31.84l-2.44,1.1
			C288.94,427.62,278.91,429.77,268.63,429.77z"/>
		<path class="st2" d="M395.66,555c0-11.66-2.03-23.79-6.01-35.37c-11.65,16.91-19.11,38.67-19.11,64.58v31.21h25.12V555z"/>
		<path class="st2" d="M213.97,339.69c18.97,0,56.43-5.2,94.15-40.02l1.57-1.45l-1.75-1.24c-11.62-8.22-25.21-12.57-39.32-12.57
			c-31.36,0-58.78,21.58-66.69,52.49l-0.48,1.88l1.92,0.27C205.06,339.28,208.67,339.69,213.97,339.69z"/>
		<path class="st2" d="M527.21,332.95l1.28,1.7c5.13,6.83,20.25,23.4,49.74,29.78l2.63,0.57l-0.2-2.68
			c-1.46-19.29-10.09-37.11-24.29-50.19l-1.42-1.3l-1.54,1.53l-0.2,0.32c-7.49,6.92-15.73,13.44-24.22,19.09L527.21,332.95z"/>
		<path class="st2" d="M212.34,538.67c-0.09-0.46-0.04-0.95,0.12-1.39l8.47-22.01h-17.95c-0.86,0-1.67-0.44-2.15-1.17
			c-0.47-0.72-0.55-1.62-0.22-2.43l23.12-54.52l-2.92,0.31c-37.91,4.03-78.22,39.6-78.22,97.58l0.01,60.38h51.43v-29.49
			c0-1.42,1.16-2.58,2.59-2.58c1.42,0,2.58,1.16,2.58,2.58v29.5h64.83l-3.41-3.03C219.34,575.77,212.6,540.17,212.34,538.67z"/>
		<path class="st2" d="M447.56,352.32c20.47,0,60.89-5.6,101.56-43.15l1.83-1.68l-2.03-1.43c-12.55-8.87-27.22-13.57-42.43-13.57
			c-33.85,0-63.46,23.3-72,56.66l-0.55,2.17l2.22,0.32C437.97,351.9,441.89,352.32,447.56,352.32z"/>
		<polygon class="st2" points="506.52,498.56 481.58,518.77 505.02,627.19 508.94,627.18 532.22,518.27 		"/>
		<path class="st2" d="M560.66,479.14l-3.43-0.44l23.87,57.74c0.34,0.82,0.25,1.75-0.24,2.48c-0.49,0.73-1.31,1.17-2.19,1.17h-19.22
			l9.08,24.2c0.16,0.44,0.21,0.92,0.13,1.39c-0.29,1.62-7.46,40.39-51.26,80.22l-3.84,3.49h67.9v-31.91c0-1.46,1.18-2.64,2.63-2.64
			c1.46,0,2.64,1.18,2.64,2.64v31.91h56.75v-65.23C643.47,538.34,614.45,485.95,560.66,479.14z"/>
		<path class="st2" d="M464.53,478.51l-0.96,1.22l-23.83,56.21h19.4c0.86,0,1.68,0.42,2.17,1.14c0.5,0.72,0.6,1.63,0.29,2.45
			l-10.3,26.77l0.15,0.61c1.53,6.26,10.95,39.11,47.07,72.45l3.32-1.89l-34.35-158.96H464.53z"/>
		<path class="st2" d="M563.17,566.04l0.14-0.6l-10.16-27.06c-0.3-0.82-0.19-1.73,0.31-2.46c0.49-0.69,1.3-1.13,2.16-1.13h19.08
			l-23.27-56.3h-5.33l-34.28,160.47l3.33,1.89C552.14,606.61,561.64,572.52,563.17,566.04z"/>
		<path class="st2" d="M580.75,372.06l0.09-1.74l-1.7-0.33c-33.35-6.53-49.81-25.08-55.34-32.75l-1.08-1.48l-1.57,0.93
			c-29.51,17.39-55.86,21.04-72.76,21.04c-7.01,0-11.71-0.64-13.39-0.92l-2.06-0.33l-0.26,2.07c-0.46,3.63-0.67,6.68-0.67,9.61
			c0,41.72,33.4,75.66,74.46,75.66C546.09,443.82,578.71,412.3,580.75,372.06z"/>
		<polygon class="st2" points="501.7,495.67 473.38,480.82 480.34,512.99 		"/>
		<path class="st2" d="M541.34,440.96l-2.83,1.26c-10.19,4.56-20.96,6.88-32.02,6.88c-10.87,0-21.44-2.21-31.42-6.57l-2.81-1.23
			v32.97l34.24,17.96l34.85-17.97V440.96z"/>
		<polygon class="st2" points="540.24,480.77 511.39,495.64 533.44,512.56 		"/>
		<path class="st1" d="M343.25,615.42v-29.49c0-1.43-1.16-2.59-2.59-2.59c-1.42,0-2.58,1.16-2.58,2.59v29.49h-62.55l3.31-3.01
			c40.47-36.8,47.34-73.01,47.62-74.54c0.07-0.46,0.03-0.94-0.13-1.36l-8.35-22.29h17.64c0.86,0,1.67-0.43,2.15-1.15
			c0.48-0.71,0.57-1.62,0.24-2.41l-22.06-53.39l2.96,0.38c33.85,4.29,57.11,28.06,68.56,56.17c1.21-1.68,2.47-3.31,3.77-4.91
			c-4.33-9.8-10.05-18.87-17.09-26.85c-17.15-19.45-39.9-30.16-64.06-30.16h-4.07l-0.01-30.48l-0.42-1.77l1.06-0.64
			c9.91-6.04,18.4-14.45,24.58-24.33l2.57-4.12l2.14-4.32l0.56-1.53c4.17-9.59,6.28-19.76,6.28-30.2
			c0-41.49-33.26-75.26-74.15-75.26c-40.88,0-74.15,33.76-74.15,75.26c0,9.43,1.75,18.66,5.19,27.48c0,0.01,0,0.01,0.01,0.02
			c0.24,0.53,1.62,3.49,2.9,6.21l0.89,1.78v0.1c0.65,1.36,1.18,2.45,1.38,2.81l1.73,2.67c6.21,9.64,14.7,17.85,24.54,23.74l1.02,0.6
			l-0.23,1.27l0.51,0.21l-0.59,0.03l-0.18,14.78l0.17,3.69v11.99h-3.65c-50.03,0-90.75,46.27-90.75,103.15v62.96
			c0,1.42,1.16,2.58,2.58,2.58h225.25v-5.16H343.25z M313.6,301.45l1.24,1.14c13.17,12.11,21.16,28.62,22.51,46.49l0.18,2.32
			l-2.28-0.49c-27.32-5.91-41.33-21.27-46.09-27.59l-1.1-1.48l1.53-1.01c7.84-5.2,15.42-11.2,22.52-17.82L313.6,301.45z
			 M201.94,336.9c7.91-30.91,35.34-52.49,66.69-52.49c14.1,0,27.69,4.35,39.32,12.57l1.75,1.24l-1.57,1.45
			c-37.72,34.81-75.17,40.02-94.15,40.02c-5.29,0-8.91-0.41-10.6-0.64l-1.92-0.27L201.94,336.9z M199.65,354.51
			c0-2.72,0.2-5.55,0.62-8.91l0.22-1.79l1.78,0.29c1.57,0.25,5.95,0.85,12.45,0.85c15.72,0,40.2-3.39,67.6-19.55l1.37-0.8l0.91,1.28
			c5.16,7.14,20.47,24.38,51.45,30.46l1.47,0.29l-0.07,1.5c-1.89,37.28-32.12,66.48-68.81,66.48
			C230.59,424.61,199.65,393.15,199.65,354.51z M300.87,454.13l-4.55,21.29l-0.85,0.34c-7.72,3.16-16.26,4.76-25.37,4.76
			c-15.3,0-27.17-4.58-27.67-4.77l-0.86-0.34l-4.58-21.2v-31.6l2.43,1.05c9.28,4.05,19.11,6.12,29.21,6.12
			c10.29,0,20.31-2.15,29.79-6.39l2.44-1.1L300.87,454.13z M199.19,615.43v-29.5c0-1.42-1.16-2.58-2.58-2.58
			c-1.43,0-2.59,1.16-2.59,2.58v29.49H142.6l-0.01-60.38c0-57.98,40.3-93.55,78.22-97.58l2.92-0.31l-23.12,54.52
			c-0.33,0.81-0.25,1.71,0.22,2.43c0.48,0.73,1.29,1.17,2.15,1.17h17.95l-8.47,22.01c-0.16,0.44-0.21,0.92-0.12,1.39
			c0.26,1.5,7,37.11,48.27,73.73l3.41,3.03H199.19z M260.92,605.76c-33.22-30.83-41.84-61.04-43.23-66.81l-0.13-0.53l9.54-24.81
			c0.3-0.79,0.2-1.68-0.29-2.38c-0.48-0.7-1.28-1.13-2.13-1.13v0.75c0,0,0,0,0,0h-18.12l22.29-52.6l0.82-1.19h2.65l31.75,146.9
			L260.92,605.76z M267.28,594.32l-24.39-112.88l2.78,0.81c5.47,1.58,14.13,3.47,24.34,3.47c7.71,0,15.17-1.12,22.17-3.32l2.83-0.88
			l-24.1,112.79L267.28,594.32z M305.52,457.06h4.76l21.49,51.99h-17.5c-0.84,0-1.63,0.42-2.12,1.11c-0.48,0.69-0.59,1.59-0.3,2.39
			l9.41,25.09l-0.12,0.51c-1.39,5.97-10,37.24-44.13,69l-3.16-1.79L305.52,457.06z"/>
	</g>
	<path class="st1" d="M229.8,293.54c-2.38-5.25-3.59-10.86-3.59-16.66c0-22.27,18.12-40.39,40.39-40.39
		c22.28,0,40.39,18.12,40.39,40.39c0,4.93-0.87,9.76-2.61,14.32l-5.63-2.15c1.48-3.87,2.22-7.97,2.22-12.18
		c0-18.95-15.42-34.37-34.37-34.37c-18.95,0-34.37,15.42-34.37,34.37c0,4.94,1.03,9.71,3.05,14.18L229.8,293.54z"/>
	<path class="st3" d="M270.8,502.36c-10.29,0-19.27-3.44-19.83-3.66c-1.55-0.6-2.32-2.35-1.71-3.9c0.6-1.54,2.35-2.31,3.9-1.7
		c0.18,0.07,18.68,7.12,31.05,0.18c1.45-0.82,3.29-0.3,4.1,1.15c0.81,1.44,0.29,3.28-1.15,4.09
		C282.03,501.41,276.23,502.36,270.8,502.36"/>
	<path class="st0" d="M512.38,649.47l4.71,2.74c39.6-37.46,49.63-74.54,51.23-81.59l0.2-0.86l-10.86-29.6
		c-0.24-0.66-0.15-1.4,0.24-1.98c0.38-0.57,1.04-0.91,1.72-0.91h21.32l-25.31-62.57h-6.71L512.38,649.47z"/>
	<path class="st0" d="M458.68,477.96l-26.23,62.08h22.09c0.7,0,1.36,0.35,1.76,0.94c0.4,0.57,0.49,1.31,0.24,1.97l-11.23,29.31
		l0.21,0.88c1.65,6.82,11.86,42.68,51.16,79.07l4.8-2.75l-37.31-173.27h-4.26L458.68,477.96z"/>
	<path class="st3" d="M516.1,647.82l0.52,0.3c37.3-36.09,46.88-71.16,48.48-78.14l-10.52-28.68c-0.6-1.67-0.37-3.52,0.61-4.97
		c1.01-1.48,2.67-2.35,4.45-2.35h16.44l-22.64-55.99h-1.82L516.1,647.82z M517.1,655.5c-0.57,0-1.14-0.15-1.66-0.44l-4.71-2.74
		c-1.22-0.72-1.86-2.14-1.57-3.52l36.54-174.78c0.32-1.53,1.66-2.62,3.22-2.62h6.71c1.34,0,2.54,0.82,3.05,2.06L584,536.03
		c0.41,1.01,0.29,2.17-0.32,3.08c-0.61,0.91-1.64,1.45-2.73,1.45h-19.64l10.3,28.07c0.22,0.6,0.26,1.26,0.11,1.88l-0.2,0.86
		c-1.63,7.19-11.84,45.1-52.17,83.23C518.73,655.19,517.92,655.5,517.1,655.5"/>
	<path class="st3" d="M454.54,543.33h0.06H454.54z M448.74,572.47c1.66,6.83,11.45,40.69,48.4,75.67l0.6-0.34l-36.21-168.16
		l-24.13,57.1h17.13c1.79,0,3.46,0.89,4.48,2.37c1,1.47,1.22,3.34,0.59,5L448.74,572.47z M496.67,655.5c-0.81,0-1.62-0.29-2.24-0.87
		c-40.01-37.06-50.43-73.75-52.12-80.72l-0.21-0.88c-0.15-0.65-0.11-1.33,0.12-1.96l10.63-27.74h-20.41c-1.1,0-2.14-0.55-2.74-1.47
		c-0.61-0.92-0.73-2.09-0.29-3.11l26.24-62.07c0.08-0.21,0.19-0.41,0.32-0.59l1.22-1.77c0.61-0.9,1.62-1.43,2.71-1.43h4.26
		c1.55,0,2.9,1.08,3.22,2.59l37.31,173.28c0.3,1.4-0.33,2.83-1.58,3.55l-4.8,2.75C497.8,655.36,497.24,655.5,496.67,655.5"/>
</g>
<path class="st7" d="M606.98,262.37h-16.79l-17.28,29.47l-18.18-29.47H370.66c-7.25,0-13.19-5.94-13.19-13.19V141.03
	c0-7.25,5.94-13.19,13.19-13.19h236.32c7.25,0,13.19,5.94,13.19,13.19v108.14C620.17,256.43,614.23,262.37,606.98,262.37z"/>
</svg>
