<svg xmlns="http://www.w3.org/2000/svg" xmlns:xlink="http://www.w3.org/1999/xlink" viewBox="0 0 18 19">
  <defs>
    <path d="M24662-50h118V69h-118z"/>
  </defs>
  <clipPath>
    <use overflow="visible" xlink:href="#a"/>
  </clipPath>
  <g>
    <defs>
      <path d="M-750.6-1292h1860v3777h-1860z"/>
    </defs>
    <clipPath>
      <use overflow="visible" xlink:href="#c"/>
    </clipPath>
    <g clip-path="url(#d)">
      <defs>
        <path d="M0 0h18v19H0z"/>
      </defs>
      <clipPath>
        <use overflow="visible" xlink:href="#e"/>
      </clipPath>
      <g clip-path="url(#f)">
        <defs>
          <path d="M3.7 6.7c-.3 0-.5.1-.7.3L1.8 8.4C.7 9.5.1 11 .1 12.5c0 1.5.6 3 1.7 4.1 1.1 1.1 2.5 1.7 4 1.7s2.9-.6 4-1.7l1.3-1.3c.2-.2.3-.5.3-.7s-.2-.6-.4-.8c-.2-.2-.5-.3-.7-.3s-.5.1-.7.3l-1.3 1.3c-.7.7-1.6 1.1-2.6 1.1s-1.9-.4-2.6-1.1c-.7-.7-1.1-1.6-1.1-2.6s.4-1.9 1.1-2.6l1.3-1.3c.2-.2.3-.5.3-.7s-.1-.6-.3-.8c-.2-.3-.4-.4-.7-.4z"/>
        </defs>
        <clipPath>
          <use overflow="visible" xlink:href="#g"/>
        </clipPath>
        <g clip-path="url(#h)">
          <defs>
            <path d="M-92-92h202v203H-92z"/>
          </defs>
          <clipPath>
            <use overflow="visible" xlink:href="#i"/>
          </clipPath>
          <path fill="#2A2A2A" d="M-4.9 1.7h21.3v21.5H-4.9z" clip-path="url(#j)"/>
        </g>
      </g>
      <g clip-path="url(#f)">
        <defs>
          <path d="M13.5 9.8c-.2.2-.3.5-.3.7s.1.5.3.7c.4.4 1 .4 1.4 0l1.3-1.3c1.1-1.1 1.7-2.6 1.7-4.1 0-1.5-.6-3-1.7-4.1C15.1.6 13.7 0 12.2 0s-2.9.6-4 1.7L7 3.1c-.5.4-.5 1.1 0 1.5.2.2.5.3.7.3s.5-.1.7-.3l1.3-1.3c.7-.7 1.6-1.1 2.6-1.1s1.9.4 2.6 1.1c.7.7 1.1 1.6 1.1 2.6s-.4 1.9-1.1 2.6l-1.4 1.3z"/>
        </defs>
        <clipPath>
          <use overflow="visible" xlink:href="#k"/>
        </clipPath>
        <g clip-path="url(#l)">
          <defs>
            <path d="M-92-92h202v203H-92z"/>
          </defs>
          <clipPath>
            <use overflow="visible" xlink:href="#m"/>
          </clipPath>
          <path fill="#2A2A2A" d="M1.6-4.9h21.3v21.5H1.6z" clip-path="url(#n)"/>
        </g>
      </g>
      <g clip-path="url(#f)">
        <defs>
          <path d="M11.2 5.9c-.3 0-.5.1-.7.3l-4.3 4.5c-.4.4-.4 1.1 0 1.5.4.4 1 .4 1.4 0L12 7.7c.2-.2.3-.5.3-.7 0-.3-.1-.5-.3-.7-.3-.3-.5-.4-.8-.4z"/>
        </defs>
        <clipPath>
          <use overflow="visible" xlink:href="#o"/>
        </clipPath>
        <g clip-path="url(#p)">
          <defs>
            <path d="M-92-92h202v203H-92z"/>
          </defs>
          <clipPath>
            <use overflow="visible" xlink:href="#q"/>
          </clipPath>
          <path fill="#2A2A2A" d="M.8.9h16.4v16.5H.8z" clip-path="url(#r)"/>
        </g>
      </g>
    </g>
  </g>
</svg>
