<svg xmlns="http://www.w3.org/2000/svg" viewBox="0 0 27 22"><title>Numbers+icons</title><g><g><path d="M21.19,6H19V4a2,2,0,0,0-2-2H10A2,2,0,0,0,8,4V6H5.81A2.32,2.32,0,0,0,3.5,8.33v6.34A2.32,2.32,0,0,0,5.81,17H8v1a2,2,0,0,0,2,2h7a2,2,0,0,0,2-2V17h2.19a2.32,2.32,0,0,0,2.31-2.31V8.33A2.32,2.32,0,0,0,21.19,6ZM9,4a1,1,0,0,1,1-1h7a1,1,0,0,1,1,1V6H9Zm9,14a1,1,0,0,1-1,1H10a1,1,0,0,1-1-1V12.5h9Zm4.5-3.33A1.31,1.31,0,0,1,21.19,16H19V12.5h1.85a.5.5,0,0,0,0-1H6.15a.5.5,0,1,0,0,1H8V16H5.81A1.31,1.31,0,0,1,4.5,14.67V8.33A1.31,1.31,0,0,1,5.81,7H21.19A1.31,1.31,0,0,1,22.5,8.33Z"/></g></g></svg>