<svg xmlns="http://www.w3.org/2000/svg" viewBox="0 0 30 30"><defs><style>.cls-1,.cls-2{fill:#593c81;}.cls-2{fill-rule:evenodd;}</style></defs><title>Numbers+icons</title><g data-name="Icons copy"><g data-name="Report copy"><path d="M16.94,2.05H7.37A3.31,3.31,0,0,0,4.06,5.36V24.67A3.32,3.32,0,0,0,7.37,28H22.68A3.32,3.32,0,0,0,26,24.67V11.56a1,1,0,0,0-2,0V24.67A1.32,1.32,0,0,1,22.68,26H7.37a1.32,1.32,0,0,1-1.31-1.32V5.36A1.31,1.31,0,0,1,7.37,4.05h9.57a1,1,0,0,0,0-2Z"/><rect class="cls-1" x="14" y="12.48" width="2" height="10" rx="1" ry="1" transform="translate(-2.48 32.48) rotate(-90)"/><rect class="cls-1" x="14" y="16.47" width="2" height="10" rx="1" ry="1" transform="translate(-6.47 36.47) rotate(-90)"/><rect class="cls-1" x="14" y="8.48" width="2" height="10" rx="1" ry="1" transform="translate(1.52 28.48) rotate(-90)"/></g><g data-name="Document copy"><path class="cls-2" d="M19.44,2.36V9.05h6.72Z"/></g></g></svg>