<svg xmlns="http://www.w3.org/2000/svg" viewBox="0 0 30 30"><defs><style>.cls-1{fill:#78cdd1;}</style></defs><title>Numbers+icons</title><g data-name="Icons copy"><g data-name="Report copy"><path class="cls-1" d="M25.42,14.28V12.92a1.88,1.88,0,0,0-3.73,0v1.36Z"/><path d="M23.54,10.13a2.76,2.76,0,0,0-2.9,2.59V24.14l2,2.72a1.28,1.28,0,0,0,.88.54,1.25,1.25,0,0,0,.89-.54l2-2.72V12.72A2.76,2.76,0,0,0,23.54,10.13Zm0,1.53c1,0,1.41.57,1.41,1v1.22H22.14V12.67A1.3,1.3,0,0,1,23.51,11.66Zm-1.37,11V15.19h2.78V22.7Zm1.38,3L22.41,24h2.21Z"/><path d="M17.54,28H7.33A3.31,3.31,0,0,1,4,24.66V5.3A3.32,3.32,0,0,1,7.33,2H22.66A3.32,3.32,0,0,1,26,5.3V8.05a1,1,0,0,1-2,0V5.3A1.32,1.32,0,0,0,22.66,4H7.33A1.32,1.32,0,0,0,6,5.3V24.66A1.31,1.31,0,0,0,7.33,26H17.54a1,1,0,0,1,0,2Z"/><rect class="cls-1" x="13.3" y="12.25" width="2" height="9" rx="1" ry="1" transform="translate(-2.45 31.04) rotate(-90)"/><rect class="cls-1" x="13.3" y="16.24" width="2" height="9" rx="1" ry="1" transform="translate(-6.44 35.04) rotate(-90)"/><rect class="cls-1" x="13.3" y="8.25" width="2" height="9" rx="1" ry="1" transform="translate(1.55 27.04) rotate(-90)"/></g></g></svg>