<svg xmlns="http://www.w3.org/2000/svg" viewBox="0 0 44.1 44.2">
  <path fill="#010101" fill-rule="evenodd" d="M22 .1c12.2 0 22 9.8 22 22s-9.8 22-22 22-22-9.8-22-22S9.9.1 22 .1z" clip-rule="evenodd"/>
  <g fill="#FFF">
    <path d="M28.5 20.8c-.6 0-1 .4-1 1v7H15.3V16.6h7c.6 0 1-.4 1-1s-.4-1-1-1H15c-1 0-1.8.8-1.8 1.7V29c0 1 .8 1.8 1.8 1.8h12.7c1 0 1.7-.8 1.7-1.8v-7.3c.1-.4-.3-.9-.9-.9z"/>
    <path d="M29.7 13.4h-4.4c-.6 0-1 .4-1 1s.4 1 1 1h1.9l-6.8 6.8c-.4.4-.4 1 0 1.4.2.2.5.3.7.3s.5-.1.7-.3l6.9-6.9v2c0 .6.4 1 1 1s1-.4 1-1v-4.3c0-.5-.4-1-1-1z"/>
  </g>
</svg>
