<svg xmlns="http://www.w3.org/2000/svg" viewBox="0 0 30 30"><defs><style>.cls-1{fill:#ff8c00;fill-rule:evenodd;}</style></defs><title>Numbers+icons</title><g><g data-name="Press release"><path d="M23.75,28h-20A3.71,3.71,0,0,1,0,24.31V5.66A3.72,3.72,0,0,1,3.75,2h22.5A3.72,3.72,0,0,1,30,5.66V22.82a1,1,0,0,1-2,0V6.5A2.57,2.57,0,0,0,25.4,4H4.6A2.57,2.57,0,0,0,2,6.5v17A2.57,2.57,0,0,0,4.6,26H23.75a1,1,0,1,1,0,2Z"/><rect x="18.81" y="4.16" width="2" height="8.37" rx="1" ry="1" transform="translate(11.46 28.16) rotate(-90)"/><rect x="18.81" y="8.29" width="2" height="8.37" rx="1" ry="1" transform="translate(7.33 32.29) rotate(-90)"/><rect x="14" y="7.6" width="2" height="18" rx="1" ry="1" transform="translate(-1.6 31.61) rotate(-90)"/><rect x="14" y="11.73" width="2" height="18" rx="1" ry="1" transform="translate(-5.72 35.73) rotate(-90)"/><path class="cls-1" d="M6.54,7.36h5.92a.54.54,0,0,1,.54.53v4.94a.54.54,0,0,1-.54.53H6.54A.54.54,0,0,1,6,12.83V7.89A.54.54,0,0,1,6.54,7.36Z"/></g></g></svg>