<svg xmlns="http://www.w3.org/2000/svg" viewBox="0 0 30 30"><defs><style>.cls-1{fill:#a9d53e;}</style></defs><title>Numbers+icons</title><g data-name="Icons copy"><g data-name="Event copy"><path d="M14.21,28H7.31A3.31,3.31,0,0,1,4,24.66V5.28A3.32,3.32,0,0,1,7.31,2H22.63A3.32,3.32,0,0,1,26,5.28V8a1,1,0,0,1-2,0V5.28A1.32,1.32,0,0,0,22.63,4H7.31A1.32,1.32,0,0,0,6,5.28V24.66A1.31,1.31,0,0,0,7.31,26h6.9a1,1,0,0,1,0,2Z"/><path class="cls-1" d="M22.19,28c-3.13,0-3.58-2-3.58-3.81V16.08A2.3,2.3,0,0,1,21,13.44a2.22,2.22,0,0,1,2.32,2.67v6.77a.86.86,0,0,1-.89.94.92.92,0,0,1-.9-1V16.15c0-.25,0-.73-.57-.73s-.55.5-.55.74v8A1.77,1.77,0,0,0,22.29,26a1.87,1.87,0,0,0,2.09-1.82V15.55A3.06,3.06,0,0,0,21,12.32a3.07,3.07,0,0,0-3.43,3.23v6.2a.91.91,0,0,1-.88,1,.94.94,0,0,1-.92-1v-6.2A4.85,4.85,0,0,1,21,10.38c4.24,0,5.17,3.25,5.17,5.17V24.2A3.61,3.61,0,0,1,22.19,28Z"/><rect x="9.77" y="1.01" width="1.8" height="4" rx="0.9" ry="0.9"/><rect x="18.35" y="1.01" width="1.8" height="4" rx="0.9" ry="0.9"/></g></g></svg>