<svg xmlns="http://www.w3.org/2000/svg" viewBox="0 0 30 30"><defs><style>.cls-1{fill:#78cdd1;}</style></defs><title>Numbers+icons</title><g data-name="Icons copy"><g data-name="Search copy"><path class="cls-1" d="M7.4,14a1,1,0,0,1-1-1A5.45,5.45,0,0,1,11.89,7.6a1,1,0,0,1,0,2A3.45,3.45,0,0,0,8.4,13,1,1,0,0,1,7.4,14Z"/><path d="M11.88,5.78A7.31,7.31,0,0,1,19.27,13a7.31,7.31,0,0,1-7.39,7.23A7.31,7.31,0,0,1,4.5,13a7.31,7.31,0,0,1,7.38-7.23m0-2A9.3,9.3,0,0,0,2.5,13a9.3,9.3,0,0,0,9.38,9.23A9.31,9.31,0,0,0,21.27,13a9.31,9.31,0,0,0-9.39-9.23Z"/><path d="M26.5,26.22a1,1,0,0,1-.69-.28l-5.55-5.3a1,1,0,0,1,1.38-1.45l5.55,5.31a1,1,0,0,1,0,1.41A1,1,0,0,1,26.5,26.22Z"/></g></g></svg>