<svg xmlns="http://www.w3.org/2000/svg" width="45" height="45" aria-labelledby="infoIconId infoIconDesc">
  <title>Info button icon</title>
  <desc>Info button icon</desc>
  <g data-name="Layer 2">
    <path d="M22.5 0A22.5 22.5 0 1 1 0 22.5 22.5 22.5 0 0 1 22.5 0z"/>
    <path fill="#fff" d="M23.5 17a1.5 1.5 0 1 0-1.5-1.5 1.5 1.5 0 0 0 1.5 1.5zM24.52 26.78a2.3 2.3 0 0 1-.6.09 1.31 1.31 0 0 1-.79-.18.89.89 0 0 1-.23-.7 4.8 4.8 0 0 1 .07-.6c.05-.26.1-.5.16-.7l.73-2.56a3.52 3.52 0 0 0 .14-.77v-.59a1.65 1.65 0 0 0-.57-1.31 2.32 2.32 0 0 0-1.57-.46 4 4 0 0 0-1.23.21c-.44.13-.89.3-1.37.49l-.19.79.51-.16a1.88 1.88 0 0 1 .57-.09 1.15 1.15 0 0 1 .78.19 1 1 0 0 1 .2.69 3.38 3.38 0 0 1-.06.6c-.05.22-.1.45-.17.7l-.72 2.57a6 6 0 0 0-.14.72 4.46 4.46 0 0 0-.05.63 1.65 1.65 0 0 0 .59 1.3 2.36 2.36 0 0 0 1.64.52 3.69 3.69 0 0 0 1.2-.18c.35-.12.81-.3 1.39-.53l.19-.79a2.74 2.74 0 0 1-.48.12z"/>
  </g>
</svg>
