<svg xmlns="http://www.w3.org/2000/svg" viewBox="0 0 30 30"><defs><style>.cls-1{fill:#a9d53e;}</style></defs><title>Numbers+icons</title><g data-name="Icons copy"><g data-name="Report copy"><path d="M.06,20.28V8.41A3.35,3.35,0,0,1,3.37,5H21.18A3.35,3.35,0,0,1,24.5,8.41V21.66A3.36,3.36,0,0,1,21.18,25H8.25a1,1,0,0,1,0-2H21.18a1.33,1.33,0,0,0,1.32-1.34V8.41a1.33,1.33,0,0,0-1.32-1.34H3.37A1.33,1.33,0,0,0,2.06,8.41V20.28a1,1,0,0,1-1,1A1,1,0,0,1,.06,20.28Z"/></g><g data-name="Video copy"><path class="cls-1" d="M10.64,11.94,15,14.68a.5.5,0,0,1,0,.85l-4.4,2.74a.5.5,0,0,1-.77-.42V12.36A.5.5,0,0,1,10.64,11.94Z"/><path d="M27.5,21c-.35-.35-3.94-4.26-4.41-4.74A1.46,1.46,0,0,1,22.51,15c0-.47.09-.68.58-1.18s4.29-4.47,4.6-4.78a1.44,1.44,0,0,1,1.52,0A1.53,1.53,0,0,1,30,10.34v9.48a1.5,1.5,0,0,1-.77,1.31A1.73,1.73,0,0,1,27.5,21Zm-3-5.87L28,18.58v-7Z"/></g></g></svg>