<svg xmlns="http://www.w3.org/2000/svg" viewBox="0 0 30 30"><defs><style>.cls-1{fill:#78cdd1;}</style></defs><g data-name="Icons copy"><g data-name="Search copy"><path d="M13.22,13.68H11.45a3.51,3.51,0,0,0-3,2.15h-5C.56,15.83.12,21.37.05,23.06a1,1,0,0,0,1,1.05h0a1,1,0,0,0,1-1c.12-2.92.93-5.29,1.41-5.29H7.64a27.83,27.83,0,0,0-1,6.48,1,1,0,0,0,1,1.05h0a1,1,0,0,0,1-1c.15-3.65,1.22-8.72,2.83-8.72h1.77a1,1,0,1,0,0-2Z"/><path d="M26.53,15.83h-5a3.51,3.51,0,0,0-3-2.15H16.74a1,1,0,0,0,0,2h1.81c1.61,0,2.68,5.07,2.83,8.72a1,1,0,0,0,1,1h0a1,1,0,0,0,1-1.05,27.83,27.83,0,0,0-1-6.48h4.17c.47,0,1.29,2.37,1.41,5.29a1,1,0,0,0,1,1h0a1,1,0,0,0,1-1.05C29.88,21.37,29.44,15.83,26.53,15.83Z"/><path d="M24.29,9.3a2,2,0,1,1-2.08,2,2.06,2.06,0,0,1,2.08-2m0-2a4,4,0,1,0,4.1,4,4.06,4.06,0,0,0-4.1-4Z"/><path d="M5.71,9.3a2,2,0,1,1-2.09,2,2.06,2.06,0,0,1,2.09-2m0-2a4,4,0,1,0,0,8.08,4,4,0,1,0,0-8.08Z"/><path class="cls-1" d="M15.25,21.46H12.74a1,1,0,1,1,0-2h2.51a1,1,0,1,1,0,2Z"/><path d="M15,6.64a2.46,2.46,0,1,1-2.46,2.45A2.46,2.46,0,0,1,15,6.64m0-2a4.48,4.48,0,1,0,4.47,4.47A4.47,4.47,0,0,0,15,4.62Z"/></g></g></svg>