<svg xmlns="http://www.w3.org/2000/svg" viewBox="0 0 27 22">
  <path d="M21.19 6H19V4a2 2 0 0 0-2-2h-7a2 2 0 0 0-2 2v2H5.81A2.32 2.32 0 0 0 3.5 8.33v6.34A2.32 2.32 0 0 0 5.81 17H8v1a2 2 0 0 0 2 2h7a2 2 0 0 0 2-2v-1h2.19a2.32 2.32 0 0 0 2.31-2.31V8.33A2.32 2.32 0 0 0 21.19 6zM9 4a1 1 0 0 1 1-1h7a1 1 0 0 1 1 1v2H9zm9 14a1 1 0 0 1-1 1h-7a1 1 0 0 1-1-1v-5.5h9zm4.5-3.33A1.31 1.31 0 0 1 21.19 16H19v-3.5h1.85a.5.5 0 0 0 0-1H6.15a.5.5 0 1 0 0 1H8V16H5.81a1.31 1.31 0 0 1-1.31-1.33V8.33A1.31 1.31 0 0 1 5.81 7h15.38a1.31 1.31 0 0 1 1.31 1.33z"/>
</svg>
