<?xml version="1.0" encoding="utf-8"?>
<!-- Generator: Adobe Illustrator 23.0.1, SVG Export Plug-In . SVG Version: 6.00 Build 0)  -->
<svg version="1.1" xmlns="http://www.w3.org/2000/svg" xmlns:xlink="http://www.w3.org/1999/xlink" x="0px" y="0px"
	 viewBox="0 0 800 800" style="enable-background:new 0 0 800 800;" xml:space="preserve">
<style type="text/css">
	.st0{fill:#78CDD1;}
	.st1{fill:#383B3E;}
	.st2{fill:none;}
	.st3{fill:#FFFFFF;}
	.st4{fill:none;stroke:#383B3E;stroke-width:7;stroke-miterlimit:10;}
	.st5{fill:none;stroke:#383B3E;stroke-width:7;stroke-linecap:round;stroke-linejoin:round;stroke-miterlimit:10;}
	.st6{fill:#2E2E2E;}
	.st7{fill:none;stroke:#FFFFFF;stroke-width:6;stroke-linecap:round;stroke-linejoin:round;stroke-miterlimit:10;}
</style>
<circle class="st0" cx="397.22" cy="396.8" r="387"/>
<g>
	<g>
		<path class="st6" d="M510.82,703.75c-0.08,0-0.16,0-0.25-0.01c-2.03-0.13-3.57-1.89-3.44-3.92l22.27-241.17H265.04l22.27,241.17
			c0.13,2.03-1.41,3.79-3.44,3.92c-2.07,0.12-3.79-1.41-3.92-3.44l-22.53-245.1c-0.07-1.02,0.29-2.02,0.99-2.76
			c0.7-0.74,1.67-1.17,2.69-1.17h272.25c1.02,0,1.99,0.42,2.69,1.17c0.7,0.74,1.05,1.74,0.99,2.76l-22.53,245.1
			C514.37,702.25,512.75,703.75,510.82,703.75z"/>
		<path class="st6" d="M571.6,458.65H222.85c-2.04,0-3.69-1.65-3.69-3.69v-79.21c0-2.04,1.65-3.69,3.69-3.69H571.6
			c2.04,0,3.69,1.65,3.69,3.69v79.21C575.29,457,573.64,458.65,571.6,458.65z M226.53,451.27h341.38v-71.83H226.53V451.27z"/>
	</g>
	<g>
		<path class="st6" d="M421.91,252.65c-1.28,0-2.52-0.67-3.2-1.85l-2.91-5.07c-0.96-1.68-0.46-3.81,1.14-4.89
			c1.6-1.08,3.77-0.74,4.96,0.79c1.34,1.71,2.49,3.71,3.41,5.94c0.74,1.8-0.04,3.86-1.78,4.72
			C423.02,252.52,422.46,252.65,421.91,252.65z"/>
		<path class="st6" d="M372.1,252.79c-0.54,0-1.09-0.12-1.61-0.37c-1.75-0.85-2.54-2.91-1.81-4.71c0.93-2.28,2.1-4.34,3.48-6.1
			c1.19-1.52,3.35-1.86,4.96-0.79c1.6,1.08,2.1,3.21,1.15,4.89l-2.97,5.22C374.63,252.11,373.38,252.79,372.1,252.79z"/>
		<path class="st6" d="M451.08,251.64h-29.45c-1.81,0-3.28-1.47-3.28-3.28s1.47-3.28,3.28-3.28h29.45c1.85,0,3.35-1.51,3.35-3.35
			v-90.96c0-31.63-25.74-57.37-57.37-57.37c-31.63,0-57.37,25.74-57.37,57.37c0,1.51,0.03,90.96,0.03,90.96
			c0,1.85,1.51,3.36,3.35,3.36h30.57c1.81,0,3.28,1.47,3.28,3.28s-1.47,3.28-3.28,3.28h-30.57c-5.46,0-9.91-4.45-9.91-9.91
			c0,0-0.03-89.45-0.03-90.96c0-35.25,28.68-63.92,63.92-63.92c35.25,0,63.92,28.68,63.92,63.92v90.96
			C460.99,247.19,456.54,251.64,451.08,251.64z"/>
		<path class="st6" d="M396.99,288.79c-11.43,0-22.23-5.02-29.62-13.78c-0.47-0.56-0.77-1.24-0.85-1.96
			c-0.76-6.69-0.73-12.63,0.08-17.66c0.22-1.35,1.17-2.48,2.47-2.91c0.75-0.25,1.52-0.49,2.31-0.73V231.2c0-1.34,0.73-2.57,1.9-3.22
			c1.17-0.65,2.6-0.62,3.74,0.09c6.12,3.8,13.05,5.81,20.05,5.81c6.95,0,13.83-1.98,19.92-5.73c1.14-0.7,2.57-0.73,3.73-0.08
			c1.17,0.65,1.89,1.88,1.89,3.22v20.45c0.83,0.25,1.63,0.5,2.41,0.76c1.3,0.44,2.25,1.56,2.47,2.91c0.8,5,0.83,10.89,0.08,17.52
			c-0.08,0.72-0.37,1.4-0.84,1.96C419.33,283.73,408.49,288.79,396.99,288.79z M373.73,271.08c5.96,6.58,14.38,10.34,23.26,10.34
			c8.95,0,17.4-3.79,23.36-10.43c0.45-4.53,0.5-8.61,0.13-12.18c-0.8-0.24-1.64-0.48-2.53-0.72c-1.61-0.43-2.73-1.89-2.73-3.56
			v-17.14c-11.56,5.11-24.93,5.08-36.47-0.07v17.21c0,1.67-1.12,3.13-2.73,3.56c-0.85,0.23-1.66,0.46-2.44,0.69
			C373.22,262.38,373.26,266.5,373.73,271.08z"/>
		<path class="st6" d="M397.06,241.25c-8.38,0-16.66-2.39-23.94-6.92c-12.83-7.97-21.59-21.82-23.8-37.42
			c-5.7-2.43-6.89-8.91-7.32-11.23c-0.02-0.13-0.04-0.25-0.07-0.36c-1.62-2.3-3.27-6.65-3.89-9.94c-0.92-4.86-0.23-9.1,1.99-12.27
			c2.29-3.27,4.92-3.95,6.73-3.95c0.69,0,1.36,0.1,2,0.27v-0.74c0-1.64,1.08-3.08,2.65-3.54c7.86-2.31,15.85-6.35,23.11-11.69
			c8.07-5.93,14.78-13.06,19.41-20.63c0.67-1.09,1.86-1.76,3.15-1.76c1.28,0,2.47,0.67,3.15,1.76c4.63,7.57,11.34,14.7,19.41,20.63
			c7.25,5.32,15.23,9.36,23.08,11.68c1.57,0.46,2.65,1.9,2.65,3.54v0.75c0.64-0.18,1.3-0.27,2-0.27c1.81,0,4.45,0.69,6.74,3.95
			c2.22,3.17,2.91,7.41,1.99,12.27c-0.62,3.29-2.27,7.63-3.89,9.94c-0.02,0.11-0.04,0.23-0.06,0.36c-0.43,2.33-1.62,8.8-7.32,11.24
			c-2.22,15.67-11.05,29.56-23.96,37.52C413.6,238.89,405.38,241.25,397.06,241.25z M347.89,181.02c0.92,0.93,1.14,2.14,1.36,3.32
			c0.66,3.56,1.52,5.69,3.99,6.06c1.68,0.25,2.96,1.61,3.13,3.3c1.36,14.33,9.08,27.18,20.65,34.36c6.12,3.8,13.05,5.81,20.05,5.81
			c6.95,0,13.83-1.98,19.92-5.73c11.64-7.17,19.41-20.05,20.78-34.45c0.16-1.69,1.45-3.05,3.13-3.3c2.47-0.37,3.33-2.5,3.99-6.06
			c0.22-1.18,0.44-2.39,1.36-3.32c1.13-1.73,4.63-9.66,1.81-13.68c-0.48-0.68-0.78-0.82-0.78-0.82c-0.22,0.04-1.31,0.69-2.63,2.48
			c-0.94,1.28-2.61,1.81-4.12,1.32c-1.51-0.5-2.54-1.91-2.54-3.5v-5.43c-7.79-2.63-15.59-6.74-22.72-11.97
			c-7.16-5.26-13.37-11.42-18.19-18.03c-4.82,6.61-11.03,12.77-18.19,18.03c-7.13,5.24-14.94,9.35-22.75,11.98v5.43
			c0,1.59-1.02,3.01-2.54,3.5c-1.52,0.5-3.17-0.03-4.12-1.31c-1.3-1.76-2.37-2.42-2.71-2.47c0,0.02-0.28,0.2-0.7,0.8
			C343.26,171.36,346.77,179.29,347.89,181.02z M342.27,185.77c0.2,0.29,0.49,0.6,0.91,0.88
			C342.88,186.45,342.58,186.15,342.27,185.77z M451.86,185.77c-0.31,0.38-0.61,0.68-0.9,0.88
			C451.37,186.37,451.66,186.05,451.86,185.77z"/>
		<path class="st6" d="M349.96,163.07c-1.65,0-3.15-1.12-3.57-2.79c-0.5-1.98,0.7-3.98,2.68-4.47c0.78-0.2,1.56-0.43,2.35-0.66
			c7.86-2.31,15.85-6.35,23.11-11.69c8.07-5.93,14.78-13.06,19.41-20.63c0.67-1.09,1.86-1.76,3.15-1.76c1.28,0,2.47,0.67,3.15,1.76
			c4.63,7.57,11.34,14.7,19.41,20.63c7.25,5.32,15.23,9.36,23.08,11.68c0.8,0.24,1.59,0.47,2.38,0.67c1.98,0.5,3.18,2.5,2.68,4.47
			c-0.49,1.98-2.5,3.18-4.47,2.68c-0.89-0.22-1.78-0.48-2.67-0.75c-8.66-2.55-17.43-6.98-25.36-12.81
			c-7.16-5.26-13.37-11.42-18.19-18.03c-4.82,6.61-11.03,12.77-18.19,18.03c-7.94,5.83-16.72,10.26-25.39,12.82
			c-0.88,0.26-1.77,0.52-2.64,0.74C350.56,163.04,350.25,163.07,349.96,163.07z"/>
		<path class="st6" d="M488.15,366.95c-2.04,0-3.69-1.65-3.69-3.69v-12.41c0-1.5-0.04-2.98-0.1-4.46l-0.07-1.33
			c-0.06-1.07-0.13-2.14-0.22-3.2l-0.12-1.37c-0.12-1.26-0.27-2.52-0.44-3.76l-0.07-0.58c-0.2-1.42-0.44-2.83-0.7-4.24l-0.24-1.22
			c-0.2-1.02-0.42-2.04-0.65-3.05c-0.1-0.45-0.21-0.9-0.32-1.35c-0.26-1.09-0.55-2.17-0.85-3.24l-0.24-0.88
			c-0.39-1.34-0.8-2.66-1.23-3.97l-0.38-1.1c-0.33-0.96-0.68-1.92-1.04-2.87c-0.17-0.44-0.34-0.88-0.51-1.32
			c-0.37-0.94-0.76-1.87-1.16-2.79l-0.46-1.07c-0.55-1.23-1.12-2.44-1.71-3.64l-0.5-0.97c-0.46-0.9-0.92-1.78-1.4-2.66
			c-0.24-0.43-0.48-0.85-0.72-1.28c-0.46-0.81-0.93-1.6-1.41-2.39l-0.7-1.15c-0.69-1.1-1.4-2.19-2.13-3.26l-0.59-0.83
			c-0.57-0.82-1.15-1.62-1.75-2.42c-0.3-0.41-0.61-0.81-0.92-1.21c-0.52-0.68-1.06-1.34-1.6-2l-0.23-0.29
			c-0.24-0.29-0.47-0.58-0.71-0.87c-0.73-0.86-1.47-1.7-2.22-2.53l-0.88-0.94c-0.69-0.74-1.39-1.47-2.11-2.19
			c-0.31-0.31-0.63-0.62-0.95-0.93l-0.17-0.16c-0.58-0.56-1.16-1.11-1.76-1.66c-0.43-0.4-0.8-0.74-1.18-1.07
			c-0.69-0.62-1.4-1.21-2.11-1.8l-0.26-0.22c-0.28-0.23-0.55-0.46-0.83-0.69c-0.1-0.08-0.21-0.17-0.31-0.25
			c-0.18,0.45-0.46,0.87-0.82,1.23l-8.04,7.93l7.21,8.13c1.2,1.35,1.24,3.38,0.09,4.78l-46.78,57.06c-0.27,0.44-0.63,0.82-1.09,1.12
			c-0.84,0.55-1.82,0.73-2.74,0.56c-1.07-0.19-2.02-0.82-2.57-1.78c0-0.01-0.02-0.04-0.05-0.08l-46.63-56.87
			c-1.15-1.4-1.11-3.43,0.09-4.79l7.21-8.13l-8.04-7.93c-0.38-0.37-0.66-0.81-0.85-1.28c-0.12,0.1-0.25,0.2-0.37,0.3
			c-0.28,0.22-0.55,0.45-0.83,0.68l-0.28,0.23c-0.71,0.59-1.41,1.18-2.1,1.8c-0.34,0.3-0.67,0.61-1.01,0.91l-0.18,0.16
			c-0.59,0.54-1.17,1.09-1.75,1.65c-0.42,0.41-0.77,0.75-1.12,1.09c-0.72,0.72-1.42,1.45-2.11,2.19l-0.87,0.94
			c-0.76,0.83-1.49,1.68-2.22,2.53l-0.96,1.16c-0.53,0.65-1.07,1.32-1.59,2c-0.31,0.4-0.62,0.8-0.92,1.21
			c-0.59,0.8-1.17,1.6-1.74,2.42l-0.59,0.83c-0.73,1.07-1.44,2.16-2.13,3.26l-0.7,1.15c-0.48,0.79-0.95,1.58-1.41,2.39
			c-0.24,0.43-0.48,0.85-0.72,1.28c-0.48,0.87-0.94,1.76-1.4,2.65l-0.51,0.98c-0.59,1.19-1.16,2.41-1.71,3.63l-0.46,1.07
			c-0.4,0.92-0.78,1.85-1.16,2.79c-0.18,0.44-0.35,0.88-0.51,1.32c-0.36,0.95-0.71,1.91-1.04,2.87l-0.38,1.1
			c-0.44,1.31-0.85,2.63-1.23,3.97l-0.24,0.89c-0.3,1.07-0.58,2.15-0.84,3.23l-0.32,1.35c-0.23,1.01-0.44,2.03-0.65,3.05l-0.24,1.21
			c-0.26,1.41-0.5,2.82-0.7,4.24l-0.07,0.58c-0.17,1.25-0.31,2.5-0.44,3.76l-0.12,1.37c-0.09,1.06-0.16,2.13-0.22,3.2l-0.07,1.33
			c-0.06,1.48-0.1,2.97-0.1,4.46v12.41c0,2.04-1.65,3.69-3.69,3.69c-2.04,0-3.69-1.65-3.69-3.69v-12.41c0-1.6,0.04-3.19,0.11-4.77
			l0.07-1.42c0.06-1.15,0.14-2.29,0.24-3.43l0.13-1.47c0.13-1.35,0.29-2.69,0.47-4.02l0.08-0.62c0.22-1.53,0.47-3.05,0.75-4.55
			l0.26-1.31c0.22-1.09,0.45-2.19,0.69-3.27l0.34-1.44c0.28-1.17,0.59-2.32,0.91-3.47l0.26-0.96c0.41-1.43,0.85-2.84,1.32-4.25
			l0.41-1.18c0.36-1.04,0.73-2.06,1.12-3.08c0.18-0.48,0.37-0.95,0.55-1.43c0.4-1.01,0.81-2,1.24-2.99l0.49-1.15
			c0.59-1.32,1.2-2.62,1.84-3.91l0.54-1.05c0.49-0.96,0.99-1.91,1.5-2.85c0.25-0.46,0.51-0.92,0.77-1.38
			c0.49-0.86,0.99-1.72,1.51-2.56l0.2-0.32c0.18-0.31,0.37-0.61,0.56-0.91c0.74-1.19,1.5-2.36,2.29-3.51l0.64-0.9
			c0.61-0.88,1.24-1.74,1.88-2.6c0.33-0.44,0.66-0.87,1-1.31c0.56-0.73,1.14-1.45,1.72-2.16l0.27-0.33c0.25-0.31,0.5-0.62,0.76-0.92
			c0.78-0.93,1.58-1.84,2.39-2.73l0.87-0.94c0.82-0.88,1.58-1.67,2.36-2.45c0.38-0.38,0.76-0.75,1.15-1.12
			c0.69-0.66,1.32-1.26,1.96-1.85l0.18-0.16c0.37-0.34,0.73-0.67,1.1-1c0.75-0.66,1.5-1.3,2.27-1.94l0.27-0.22
			c0.31-0.26,0.62-0.52,0.93-0.77c0.94-0.76,1.9-1.5,2.87-2.22c0.39-0.29,0.79-0.57,1.18-0.86l0.22-0.15
			c0.68-0.49,1.36-0.97,2.06-1.44c0.5-0.34,1-0.67,1.5-1c0.75-0.49,1.51-0.96,2.28-1.43l0.42-0.26c0.29-0.18,0.58-0.36,0.87-0.53
			c1.13-0.66,2.27-1.29,3.42-1.91c0.35-0.19,0.7-0.36,1.06-0.54l0.72-0.36c0.49-0.25,0.98-0.5,1.48-0.74
			c1.59-0.77,3.51-0.29,4.56,1.13c1.05,1.42,0.95,3.39-0.25,4.69l-8.82,9.59l8,7.88c1.4,1.38,1.47,3.61,0.17,5.07l-7.45,8.39
			l42.23,51.5l42.23-51.5l-7.45-8.39c-1.3-1.47-1.23-3.7,0.17-5.07l8-7.88l-8.76-9.52c-1.2-1.3-1.3-3.27-0.25-4.69
			c1.06-1.42,2.97-1.89,4.57-1.12c0.39,0.19,0.78,0.39,1.17,0.59l0.85,0.43c0.36,0.18,0.72,0.36,1.07,0.55
			c1.16,0.61,2.3,1.25,3.42,1.91c0.3,0.18,0.59,0.36,0.88,0.54l0.41,0.25c0.76,0.46,1.52,0.94,2.28,1.43c0.5,0.33,1,0.66,1.5,1
			c0.69,0.47,1.38,0.95,2.06,1.44l0.23,0.17c0.39,0.28,0.78,0.56,1.16,0.84c0.97,0.72,1.93,1.46,2.88,2.23
			c0.32,0.25,0.62,0.51,0.93,0.77l0.25,0.21c0.77,0.64,1.53,1.28,2.28,1.95c0.41,0.36,0.81,0.73,1.21,1.1
			c0.7,0.65,1.34,1.24,1.96,1.85l0.16,0.16c0.35,0.34,0.7,0.68,1.04,1.02c0.77,0.78,1.53,1.57,2.28,2.37l0.95,1.02
			c0.81,0.89,1.61,1.8,2.39,2.73c0.27,0.32,0.53,0.64,0.8,0.97l0.23,0.28c0.58,0.71,1.16,1.43,1.72,2.16
			c0.33,0.43,0.67,0.87,0.99,1.3c0.64,0.86,1.27,1.72,1.88,2.6l0.63,0.89c0.79,1.16,1.55,2.33,2.29,3.51
			c0.19,0.3,0.38,0.61,0.56,0.92l0.19,0.32c0.51,0.84,1.02,1.7,1.51,2.56c0.26,0.45,0.52,0.91,0.77,1.37
			c0.52,0.94,1.02,1.9,1.51,2.86l0.54,1.04c0.64,1.29,1.25,2.59,1.84,3.91l0.49,1.15c0.43,0.99,0.84,1.99,1.24,2.99
			c0.19,0.47,0.37,0.95,0.55,1.42c0.39,1.02,0.76,2.05,1.12,3.08l0.41,1.18c0.47,1.41,0.91,2.83,1.32,4.26l0.26,0.94
			c0.32,1.15,0.62,2.31,0.91,3.48c0.12,0.48,0.23,0.97,0.34,1.45c0.25,1.08,0.48,2.17,0.69,3.27l0.26,1.3
			c0.28,1.51,0.53,3.02,0.75,4.55l0.08,0.62c0.18,1.34,0.34,2.68,0.47,4.03l0.13,1.46c0.1,1.14,0.18,2.28,0.24,3.43l0.08,1.42
			c0.07,1.59,0.11,3.17,0.11,4.77v12.41C491.84,365.3,490.19,366.95,488.15,366.95z"/>
		<path class="st6" d="M380.97,317.49c-1.5,0-2.91-0.93-3.46-2.41c-5.02-13.64-8.45-25.86-10.19-36.33
			c-0.33-1.97,0.97-3.84,2.93-4.22c1.95-0.39,3.87,0.86,4.31,2.8c1.53,6.77,4.86,20.37,9.91,35.3c0.65,1.91-0.36,3.99-2.27,4.66
			C381.8,317.42,381.38,317.49,380.97,317.49z"/>
		<path class="st6" d="M397.03,354.46c-1.38,0-2.65-0.77-3.28-2c-0.9-1.75-8.98-17.66-16.24-37.38
			c-5.19-15.34-8.59-29.21-10.15-36.13c-0.02-0.07-0.03-0.14-0.04-0.21c-0.32-1.9-0.59-3.81-0.8-5.69c-0.18-1.62,0.71-3.16,2.2-3.8
			c1.49-0.64,3.23-0.23,4.28,1.01c5.99,7.1,14.74,11.17,23.99,11.17c9.31,0,18.09-4.1,24.08-11.26c1.04-1.25,2.79-1.66,4.28-1.02
			c1.5,0.64,2.39,2.18,2.21,3.8c-1.35,12.05-5.24,26.72-11.55,43.59c-7.09,18.22-14.81,34.11-15.67,35.86
			c-0.61,1.25-1.88,2.05-3.28,2.07C397.06,354.46,397.05,354.46,397.03,354.46z M375.76,282.45c1.81,7.42,4.72,18.38,8.71,30.16
			c4.52,12.26,9.36,23.03,12.51,29.66c3.05-6.58,7.77-17.12,12.15-28.37c4.4-11.77,7.57-22.39,9.48-31.69
			c-6.32,4.25-13.82,6.58-21.61,6.58C389.36,288.79,382,286.55,375.76,282.45z"/>
		<path class="st6" d="M397.02,354.48c-1.1,0-2.15-0.49-2.85-1.35l-47.06-57.4c-1.15-1.4-1.11-3.43,0.09-4.79l7.21-8.13l-8.04-7.93
			c-1.42-1.39-1.47-3.66-0.13-5.12l26.11-28.38c1.34-1.46,3.59-1.6,5.1-0.31c1.51,1.28,1.74,3.53,0.51,5.08
			c-0.96,1.22-1.79,2.68-2.46,4.33c-0.73,1.79-1.28,3.83-1.64,6.07c-0.7,4.37-0.71,9.64-0.03,15.66c0.2,1.75,0.45,3.54,0.75,5.31
			c1.67,10.02,4.98,21.79,9.84,35c7.1,19.27,15,34.85,15.88,36.56c0.43,0.83,0.52,1.8,0.26,2.7c-0.09,0.31-0.23,0.63-0.39,0.91
			c-0.62,1.03-1.7,1.69-2.89,1.78C397.2,354.47,397.11,354.48,397.02,354.48z M354.81,293.48l27.24,33.22
			c-1.5-3.65-3.03-7.56-4.53-11.63c-5.02-13.64-8.45-25.86-10.19-36.33c-0.32-1.89-0.59-3.81-0.8-5.69
			c-0.58-5.15-0.7-9.85-0.36-14.04l-12.08,13.12l8,7.88c1.4,1.38,1.47,3.61,0.17,5.07L354.81,293.48z"/>
		<path class="st6" d="M396.99,354.5c-0.69,0-1.39-0.19-2-0.6c-1.58-1.04-2.14-3.06-1.28-4.74c0.01-0.01,0.01-0.03,0.02-0.04v0
			c0.86-1.67,8.39-16.5,15.37-35.18c6.1-16.31,9.84-30.39,11.13-41.83c0.67-5.97,0.66-11.2-0.04-15.53
			c-0.37-2.29-0.94-4.39-1.7-6.22c-0.67-1.61-1.47-3.02-2.4-4.21c-1.22-1.56-0.99-3.8,0.51-5.08c1.51-1.28,3.76-1.14,5.1,0.31
			l26.11,28.38c1.35,1.46,1.29,3.73-0.12,5.12l-8.04,7.93l7.21,8.13c1.2,1.35,1.24,3.38,0.09,4.78l-47.06,57.4
			C399.16,354.02,398.08,354.5,396.99,354.5z M427.91,259.01c0.34,4.16,0.23,8.83-0.35,13.93c-1.35,12.05-5.24,26.71-11.55,43.59
			c-1.33,3.55-2.67,6.96-3.99,10.17l27.24-33.22l-7.45-8.39c-1.3-1.47-1.23-3.7,0.17-5.07l8-7.88L427.91,259.01z"/>
		<path class="st6" d="M397.13,366.95c-2.04,0-3.69-1.65-3.69-3.69v-13.35c0-2.04,1.65-3.69,3.69-3.69c2.04,0,3.69,1.65,3.69,3.69
			v13.35C400.81,365.3,399.16,366.95,397.13,366.95z"/>
	</g>
	<path class="st7" d="M250.12,375.05c0,0-6.43-46.29,28.29-66.86"/>
	<path class="st7" d="M301.31,298.93l-10.3,10.3c-2.92,2.92-7.69,2.92-10.61,0l-3.03-3.03c-2.92-2.92-2.92-7.69,0-10.61l10.3-10.3
		c2.92-2.92,7.69-2.92,10.61,0l3.03,3.03C304.22,291.24,304.22,296.01,301.31,298.93z"/>
	<circle class="st7" cx="397.22" cy="555.06" r="52.72"/>
	<circle class="st7" cx="397.22" cy="553.78" r="70.72"/>
</g>
</svg>
