<svg data-name="12" xmlns="http://www.w3.org/2000/svg" viewBox="0 0 47.83 60.14" role="presentation">
  <defs>
    <style>
      .cls-1{fill:#f0f0f0;stroke:#5c6670;stroke-miterlimit:10;stroke-width:2px}
    </style>
  </defs>
  <path class="cls-1" d="M974.66 275c-10.87 0-19.66 13-19.66 29.08s8.81 29.07 19.68 29.07h6.46V275z" transform="translate(-953.98 -274.01)"/>
  <ellipse cx="27.14" cy="30.07" rx="19.68" ry="29.07" fill="#fff" stroke="#5c6670" stroke-miterlimit="10" stroke-width="2"/>
  <path d="M979.47 323.49v-4.41a6.82 6.82 0 0 1-2.35-1 7.77 7.77 0 0 1-2.23-2.31l1.9-5.11a9.45 9.45 0 0 0 1.89 1.89 2.93 2.93 0 0 0 1.66.57 1.57 1.57 0 0 0 1.39-.59 3.34 3.34 0 0 0 .41-1.87 2.62 2.62 0 0 0-.49-1.56 8.18 8.18 0 0 0-1.24-1.34l-1.6-1.39a10.34 10.34 0 0 1-1.6-1.74 9.21 9.21 0 0 1-1.24-2.38 9.85 9.85 0 0 1-.49-3.3 13 13 0 0 1 1-5.55 5.34 5.34 0 0 1 2.92-2.91v-4.58h2.88v4.49a4.85 4.85 0 0 1 2.18 1.32 11 11 0 0 1 1.71 2.38l-2.19 4.32a7.34 7.34 0 0 0-1.33-1.59 2.07 2.07 0 0 0-1.35-.53 1.53 1.53 0 0 0-1.24.48 2.89 2.89 0 0 0-.41 1.81 2.27 2.27 0 0 0 .49 1.45 8.31 8.31 0 0 0 1.24 1.23l1.6 1.32a9.7 9.7 0 0 1 1.6 1.72 9.09 9.09 0 0 1 1.24 2.42 10.41 10.41 0 0 1 .49 3.39 14.16 14.16 0 0 1-1 5.55 5.58 5.58 0 0 1-3 3.17v4.67z" transform="translate(-953.98 -274.01)" fill="#78cdd1"/>
  <path class="cls-1" d="M18.8 3.46h-5.65M11.94 11.13H5.88M12.34 49.49H6.28"/>
</svg>
