<svg xmlns="http://www.w3.org/2000/svg" viewBox="0 0 50 50"><defs><style>.cls-1{fill:#78cdd1;}.cls-1,.cls-3{fill-rule:evenodd;}.cls-2,.cls-3{fill:#fff;}</style></defs><title>mediaicon-</title><g><g data-name="Type : Photo"><path class="cls-1" d="M25,0A25,25,0,1,1,0,25,25,25,0,0,1,25,0Z"/><path class="cls-2" d="M36.2,36.3h-22a4,4,0,0,1-4-4v-12a4,4,0,0,1,4-4h22a4,4,0,0,1,4,4v12A4,4,0,0,1,36.2,36.3Zm-22-18a2,2,0,0,0-2,2v12a2,2,0,0,0,2,2h22a2,2,0,0,0,2-2v-12a2,2,0,0,0-2-2Z"/><path class="cls-2" d="M25.2,31.8a5.5,5.5,0,1,1,5.5-5.5A5.5,5.5,0,0,1,25.2,31.8Zm0-9a3.5,3.5,0,1,0,3.5,3.5A3.5,3.5,0,0,0,25.2,22.8Z"/><path class="cls-3" d="M22.2,14.3h0a1,1,0,0,1,1-1h5a1,1,0,0,1,1,1h0a1,1,0,0,1-1,1h-5A1,1,0,0,1,22.2,14.3Z"/></g></g></svg>