<svg xmlns="http://www.w3.org/2000/svg" viewBox="0 0 50 50"><defs><style>.cls-1{fill:#78cdd1;fill-rule:evenodd;}.cls-2{fill:#fff;}</style></defs><title>mediaicon-</title><g><g data-name="Type : Photo"><path class="cls-1" d="M25,0A25,25,0,1,1,0,25,25,25,0,0,1,25,0Z"/><path class="cls-2" d="M31.72,27.63a1.69,1.69,0,1,0,1.75,1.69A1.72,1.72,0,0,0,31.72,27.63Z"/><ellipse class="cls-2" cx="25.22" cy="29.32" rx="1.75" ry="1.68"/><ellipse class="cls-2" cx="18.73" cy="29.32" rx="1.73" ry="1.68"/><path class="cls-2" d="M31.72,22a1.69,1.69,0,1,0,1.75,1.68A1.71,1.71,0,0,0,31.72,22Z"/><path class="cls-2" d="M25.22,22A1.69,1.69,0,1,0,27,23.68,1.71,1.71,0,0,0,25.22,22Z"/><path class="cls-2" d="M18.73,22a1.69,1.69,0,1,0,1.74,1.68A1.71,1.71,0,0,0,18.73,22Z"/><path class="cls-2" d="M35,14.3H33v-.41a1.33,1.33,0,0,0-2.66,0v.41H19.7v-.41a1.33,1.33,0,0,0-2.65,0v.41h-2a3.41,3.41,0,0,0-3.42,3.4V34a3.41,3.41,0,0,0,3.42,3.4H33a1,1,0,0,0,0-2h-18A1.41,1.41,0,0,1,13.63,34V17.7a1.41,1.41,0,0,1,1.42-1.4h2v.25a1.33,1.33,0,0,0,2.65,0V16.3H30.3v.25a1.33,1.33,0,0,0,2.66,0V16.3h2a1.42,1.42,0,0,1,1.43,1.4V31.63a1,1,0,0,0,2,0V17.7A3.42,3.42,0,0,0,35,14.3Z"/></g></g></svg>