<svg xmlns="http://www.w3.org/2000/svg" viewBox="0 0 50 50"><defs><style>.cls-1{fill:#78cdd1;}.cls-2{fill:#fff;}</style></defs><title>mediaicon-</title><g><g data-name="Type : Photo"><path class="cls-1" d="M25,0A25,25,0,1,1,0,25,25,25,0,0,1,25,0Z"/><path class="cls-2" d="M22.4,28.58a1.87,1.87,0,0,1-.73-.15,2,2,0,0,1-1.18-1.78V22.37a1.87,1.87,0,0,1,3.05-1.54c.31.24,2.4,1.3,4.15,2.14l.17.1a1.84,1.84,0,0,1,.79,1.39A2,2,0,0,1,28,26a1.38,1.38,0,0,1-.25.17l-4.22,2A1.84,1.84,0,0,1,22.4,28.58Zm.09-6v3.94l.07,0,3.84-1.86C25.21,24,23.23,23,22.49,22.53Zm4.85,2.7h0Zm0,0h0Z"/><path class="cls-2" d="M40.34,18.09a1.85,1.85,0,0,0-2,.27L35,21.25V19c0-2.43-1.37-4-3.49-4H16.09A4.09,4.09,0,0,0,12,19.09v9.27a1,1,0,0,0,2,0V19.09A2.1,2.1,0,0,1,16.09,17H31.51c1,0,1.49.67,1.49,2V30c0,1.33-.5,2-1.49,2H19.94a1,1,0,1,0,0,2H31.51C33.63,34,35,32.43,35,30V27.64c1.34,1.21,3.16,2.83,3.51,3.08a2,2,0,0,0,1.11.35,1.85,1.85,0,0,0,.83-.2,1.72,1.72,0,0,0,.94-1.57V19.66A1.76,1.76,0,0,0,40.34,18.09Zm-1,10.77c-.73-.62-2.59-2.29-4.25-3.79L35,25V23.87l0,0,4.35-3.72Z"/></g></g></svg>