<?xml version="1.0" encoding="utf-8"?>
<!-- Generator: Adobe Illustrator 22.1.0, SVG Export Plug-In . SVG Version: 6.00 Build 0)  -->
<svg version="1.1" xmlns="http://www.w3.org/2000/svg" xmlns:xlink="http://www.w3.org/1999/xlink" x="0px" y="0px"
	 viewBox="0 0 28.5 28.5" style="enable-background:new 0 0 28.5 28.5;" xml:space="preserve">
<style type="text/css">
	.st0{fill:#78CDD1;}
</style>
<g>
	<path d="M24.6,26.2H6.3c-0.6,0-1-0.4-1-1c0-0.6,0.4-1,1-1h18v-20h-20v16c0,0.6-0.4,1-1,1s-1-0.4-1-1V4C2.2,3.5,2.3,3,2.7,2.6
		C3,2.3,3.5,2.2,4,2.3h20.5c0.5-0.1,1,0.1,1.4,0.4C26.1,3,26.3,3.5,26.2,4v20.5c0.1,0.5-0.1,1-0.4,1.4
		C25.5,26.1,25.1,26.3,24.6,26.2z"/>
	<path d="M14.3,20.2c-3.3,0-6-2.7-6-6c0-3.3,2.7-6,6-6s6,2.7,6,6C20.3,17.6,17.6,20.2,14.3,20.2z M14.3,10.3c-2.2,0-4,1.8-4,4
		s1.8,4,4,4c2.2,0,4-1.8,4-4S16.5,10.3,14.3,10.3z"/>
	<circle class="st0" cx="20.8" cy="7.3" r="1.6"/>
</g>
</svg>
