<svg xmlns="http://www.w3.org/2000/svg" viewBox="0 0 30 30">
  <path d="M10.9 26.4c-3.2 0-6.4-1.2-8.8-3.4-.4-.4-.4-1 0-1.4.4-.4 1-.4 1.4 0 2 1.8 4.6 2.8 7.3 2.8 8.5 0 13.6-6.6 13.6-12.9 0-.4.2-.8.6-.9.6-.3 1.1-.9 1.3-1.6.2-.6.2-1.3.1-2-.8.5-1.7.8-2.6 1-.3.1-.6 0-.9-.2-.9-.8-2-1.2-3.1-1.2-2.4-.1-4.4 1.8-4.5 4.2v.4c.1.5-.4 1-.9 1.1h-.2c-3.4-.3-6.5-1.8-8.9-4.2-.4 2.2-.7 6.5 2.8 9.4.4.4.4 1 0 1.4-.3.3-.8.4-1.2.1C1.8 14.9 3.2 8.5 3.7 6.6c0 0 0-.1.1-.2.1-.5.5-.9 1.1-.9.5 0 1 .2 1.3.5 1.9 2.2 4.4 3.7 7.3 4.2.4-3.2 3.2-5.6 6.4-5.6 1.4 0 2.8.5 4 1.3.8-.2 1.5-.6 2.2-1 .4-.3 1-.3 1.4 0 .9.6 1.1 2.1 1 3.3 0 1.5-.8 2.9-2 3.8-.5 8.3-7.4 14.6-15.6 14.4zm-7-20z"/>
  <path fill="#78cdd1" d="M14.6 22.6c-.6 0-1-.5-1-1 0-.4.3-.8.7-.9 1.8-.7 3.3-1.9 4.6-3.3.4-.4 1-.5 1.4-.1s.5 1 .1 1.4l-.1.1c-1.5 1.6-3.3 2.9-5.3 3.8h-.4z"/>
</svg>
