<svg
 xmlns="http://www.w3.org/2000/svg"
 xmlns:xlink="http://www.w3.org/1999/xlink"
 width="27px" height="27px"
 role="img"
 aria-labelledby="footerFacebookIconTitle footerFacebookIconDesc">
<title>Facebook icon</title>
<desc>Facebook icon that appears in the footer</desc>
<path fill-rule="evenodd"  fill="rgb(120, 205, 209)"
 d="M5.000,5.000 C5.552,5.000 6.000,5.448 6.000,6.000 L6.000,9.000 C6.000,9.552 5.552,10.000 5.000,10.000 C4.448,10.000 4.000,9.552 4.000,9.000 L4.000,6.000 C4.000,5.448 4.448,5.000 5.000,5.000 Z"/>
<path fill-rule="evenodd"  fill="rgb(120, 205, 209)"
 d="M5.000,4.000 L9.000,4.000 C9.552,4.000 10.000,4.448 10.000,5.000 C10.000,5.552 9.552,6.000 9.000,6.000 L5.000,6.000 C4.448,6.000 4.000,5.552 4.000,5.000 C4.000,4.448 4.448,4.000 5.000,4.000 Z"/>
<path fill-rule="evenodd"  stroke="rgb(255, 255, 255)" stroke-width="2px" stroke-linecap="butt" stroke-linejoin="miter" fill="none"
 d="M3.000,19.000 L3.000,4.000 C3.000,2.895 2.895,3.000 4.000,3.000 L22.000,3.000 C23.105,3.000 23.000,2.895 23.000,4.000 L23.000,22.000 C23.000,23.105 23.105,23.000 22.000,23.000 L5.000,23.000 "/>
<path fill-rule="evenodd"  fill="rgb(255, 255, 255)"
 d="M16.543,23.000 L16.543,16.158 L18.607,16.158 L18.916,13.491 L16.543,13.491 L16.543,11.789 C16.543,11.017 16.736,10.491 17.731,10.491 L18.999,10.490 L18.999,8.105 C18.780,8.073 18.027,8.000 17.151,8.000 C15.321,8.000 14.069,9.243 14.069,11.525 L14.069,13.491 L12.000,13.491 L12.000,16.158 L14.069,16.158 L14.069,23.000 L16.543,23.000 Z"/>
</svg>
