<svg xmlns="http://www.w3.org/2000/svg" xmlns:xlink="http://www.w3.org/1999/xlink" width="28px" height="22px"
  role="img"
  desc="footerGoogleplusIconTitle footerGoogleplusIconDesc">
  <title>Google Plus icon</title>
  <desc>Google Plus icon that appears in the footer</desc>
  <path fill-rule="evenodd" fill="rgb(255, 255, 255)" d="M10.635,7.391 L10.635,9.969 L14.970,9.969 C14.797,11.077 13.660,13.213 10.639,13.213 C8.035,13.213 5.908,11.087 5.908,8.465 C5.908,5.845 8.030,3.719 10.636,3.719 C12.121,3.719 13.115,4.342 13.681,4.878 L15.754,2.915 C14.424,1.690 12.698,0.951 10.639,0.951 C6.412,0.950 3.000,4.316 3.000,8.465 C3.000,12.614 6.414,15.981 10.635,15.981 C15.045,15.981 17.967,12.931 17.967,8.636 C17.967,8.143 17.913,7.765 17.847,7.391 L10.635,7.391 ZM27.000,7.391 L24.817,7.391 L24.817,5.242 L22.634,5.242 L22.634,7.391 L20.452,7.391 L20.452,9.538 L22.636,9.538 L22.636,11.688 L24.825,11.688 L24.825,9.538 L27.000,9.538 "/><path fill-rule="evenodd" stroke="rgb(120, 205, 209)" stroke-width="2px" stroke-linecap="round" stroke-linejoin="miter" fill="none" d="M2.209,14.120 C3.709,16.945 6.923,18.899 10.652,18.899 C11.774,18.899 12.819,18.752 13.768,18.476 "/>
</svg>