<svg xmlns="http://www.w3.org/2000/svg" viewBox="0 0 30 30">
  <path d="M9.8 11.6c0-.3.1-.6.4-.8.3-.2.6-.3.9-.3.3 0 .7.1.9.3.2.2.4.5.4.9 0 .3-.1.6-.3.8-.3.2-.6.3-.9.3-.3 0-.7-.1-.9-.3-.4-.2-.6-.5-.5-.9zm.1 8.9v-6.8h2.2v6.8H9.9zm3.5 0h2.2v-3.8c0-.2 0-.4.1-.5.1-.2.2-.4.4-.6.2-.2.5-.2.7-.2.8 0 1.1.5 1.1 1.5v3.6h2.2v-3.9c.1-.8-.2-1.6-.7-2.3-.5-.5-1.2-.8-1.9-.8-.8 0-1.6.4-2 1.1v-1h-2.3v2c0 1.1.2 2.9.2 4.9z"/>
  <path d="M25.4 27H7c-.6 0-1-.4-1-1s.4-1 1-1h18V5H5v16c0 .6-.4 1-1 1s-1-.4-1-1V4.7c-.1-.5.1-1 .4-1.4.4-.2.9-.4 1.4-.3h20.5c.5-.1 1 .1 1.4.4.3.4.5.9.4 1.4v20.5c.1.5-.1 1-.4 1.4-.4.2-.8.3-1.3.3z"/>
  <path fill="#78cdd1" d="M22.2 11.8c-.6 0-1-.4-1-1v-2h-2c-.6 0-1-.4-1-1s.4-1 1-1h3c.6 0 1 .4 1 1v3c0 .5-.4 1-1 1z"/>
</svg>
