<svg xmlns="http://www.w3.org/2000/svg" viewBox="0 0 30 30"><defs><style>.cls-1{fill:#78cdd1;}</style></defs><g data-name="Icons copy"><g data-name="Twitter copy"><path d="M10.85,26.37A13,13,0,0,1,2.08,23a1,1,0,1,1,1.43-1.4,11,11,0,0,0,7.34,2.82c8.54,0,13.65-6.57,13.65-12.93a1,1,0,0,1,.61-.92,2.39,2.39,0,0,0,1.28-1.6A4.3,4.3,0,0,0,26.5,7a10.3,10.3,0,0,1-2.64,1A1,1,0,0,1,23,7.83a4.67,4.67,0,0,0-3.09-1.17,4.36,4.36,0,0,0-4.46,4.24,2.55,2.55,0,0,0,0,.39,1,1,0,0,1-1.1,1.09A14.74,14.74,0,0,1,5.42,8.19c-.44,2.2-.71,6.49,2.83,9.44A1,1,0,0,1,7,19.17C1.84,14.89,3.2,8.5,3.74,6.64c0,0,0-.13.07-.21a1.16,1.16,0,0,1,1.06-.91,1.58,1.58,0,0,1,1.31.54,12.62,12.62,0,0,0,7.27,4.18,6.4,6.4,0,0,1,6.43-5.58,6.58,6.58,0,0,1,4,1.34,11.11,11.11,0,0,0,2.24-1,1.29,1.29,0,0,1,1.39,0c.9.56,1.11,2.11,1,3.26a4.79,4.79,0,0,1-2,3.82A15.17,15.17,0,0,1,10.85,26.37Zm-7-20,0,.09Z"/><path class="cls-1" d="M14.6,22.59a1,1,0,0,1-.33-1.94,13,13,0,0,0,4.59-3.29,1,1,0,1,1,1.4,1.42,14.42,14.42,0,0,1-5.33,3.75A1,1,0,0,1,14.6,22.59Z"/></g></g></svg>