<svg xmlns="http://www.w3.org/2000/svg" xmlns:xlink="http://www.w3.org/1999/xlink" width="35px" height="27px"
  role="img"
  aria-labelledby="footerYoutubeIconTitle footerYoutubeIconDesc">
  <title>Youtube icon</title>
  <desc>Youtube icon that appears in the footer</desc>
  <path fill-rule="evenodd" stroke="rgb(255, 255, 255)" stroke-width="2px" stroke-linecap="butt" stroke-linejoin="miter" fill="none" d="M7.430,22.754 C10.812,22.787 16.999,22.879 16.999,22.879 C16.999,22.879 25.708,22.879 27.880,22.290 C29.078,21.965 30.022,21.009 30.343,19.794 C30.925,17.593 30.925,13.000 30.925,13.000 C30.925,13.000 30.925,8.407 30.343,6.206 C30.022,4.991 29.078,4.035 27.880,3.710 C25.708,3.120 16.999,3.120 16.999,3.120 C16.999,3.120 8.290,3.120 6.118,3.710 C4.919,4.035 3.975,4.991 3.655,6.206 C3.073,8.407 3.073,13.000 3.073,13.000 C3.073,13.000 3.202,16.837 3.785,19.038 "/><path fill-rule="evenodd" fill="rgb(255, 255, 255)" d="M13.636,17.543 L13.636,8.532 L21.632,13.038 L13.636,17.543 Z"/><path fill-rule="evenodd" stroke="rgb(120, 205, 209)" stroke-width="2px" stroke-linecap="butt" stroke-linejoin="miter" fill="none" d="M15.000,19.000 L22.000,15.000 "/>
</svg>