<svg xmlns="http://www.w3.org/2000/svg" xmlns:xlink="http://www.w3.org/1999/xlink" width="27px" height="27px"
  role="img"
  aria-labelledby="footerLinkedinIconTitle footerLinkedinIconDesc">
  <title>Twitter icon</title>
  <desc>Twitter icon that appears in the footer</desc>
  <path fill-rule="evenodd" stroke="rgb(255, 255, 255)" stroke-width="2px" stroke-linecap="butt" stroke-linejoin="miter" fill="none" d="M3.000,19.000 L3.000,4.000 C3.000,2.895 2.895,3.000 4.000,3.000 L22.000,3.000 C23.104,3.000 23.000,2.895 23.000,4.000 L23.000,22.000 C23.000,23.105 23.104,23.000 22.000,23.000 L5.000,23.000 "/><path fill-rule="evenodd" fill="rgb(255, 255, 255)" d="M7.001,9.099 C7.001,8.713 7.136,8.394 7.406,8.143 C7.676,7.892 8.028,7.767 8.460,7.767 C8.885,7.767 9.228,7.891 9.491,8.138 C9.761,8.393 9.896,8.724 9.896,9.134 C9.896,9.504 9.765,9.813 9.502,10.060 C9.232,10.315 8.877,10.442 8.437,10.442 L8.425,10.442 C8.000,10.442 7.657,10.315 7.395,10.060 C7.132,9.806 7.001,9.485 7.001,9.099 ZM7.152,19.233 L7.152,11.496 L9.722,11.496 L9.722,19.233 L7.152,19.233 ZM11.147,19.233 L13.718,19.233 L13.718,14.913 C13.718,14.643 13.749,14.434 13.811,14.287 C13.919,14.025 14.083,13.803 14.303,13.622 C14.523,13.440 14.799,13.350 15.131,13.350 C15.996,13.350 16.428,13.932 16.428,15.098 L16.428,19.233 L18.999,19.233 L18.999,14.797 C18.999,13.654 18.729,12.788 18.188,12.197 C17.648,11.607 16.934,11.311 16.046,11.311 C15.050,11.311 14.274,11.739 13.718,12.597 L13.718,12.620 L13.706,12.620 L13.718,12.597 L13.718,11.496 L11.147,11.496 C11.163,11.744 11.170,12.512 11.170,13.801 C11.170,15.090 11.163,16.901 11.147,19.233 Z"/><path fill-rule="evenodd" fill="rgb(120, 205, 209)" d="M17.000,4.000 L20.000,4.000 C20.552,4.000 21.000,4.448 21.000,5.000 C21.000,5.552 20.552,6.000 20.000,6.000 L17.000,6.000 C16.448,6.000 16.000,5.552 16.000,5.000 C16.000,4.448 16.448,4.000 17.000,4.000 Z"/><path fill-rule="evenodd" fill="rgb(120, 205, 209)" d="M21.000,4.000 C21.552,4.000 22.000,4.448 22.000,5.000 L22.000,9.000 C22.000,9.552 21.552,10.000 21.000,10.000 C20.447,10.000 20.000,9.552 20.000,9.000 L20.000,5.000 C20.000,4.448 20.447,4.000 21.000,4.000 Z"/>
</svg>