<svg xmlns="http://www.w3.org/2000/svg" viewBox="0 0 30 30"><defs><style>.cls-1{fill:#78cdd1;}</style></defs><title>Numbers+icons</title><g data-name="Icons copy"><g data-name="Facebook copy"><path class="cls-1" d="M11.55,25.09a10.54,10.54,0,0,1-9.33-5.31A1,1,0,0,1,4,18.84a8.53,8.53,0,0,0,7.56,4.25,10.3,10.3,0,0,0,2.83-.38,1,1,0,0,1,.56,1.92A12.4,12.4,0,0,1,11.55,25.09Z"/><path d="M11.53,12.58v2.58h4.34a4.11,4.11,0,0,1-4.34,3.24,4.75,4.75,0,0,1,0-9.49,4.33,4.33,0,0,1,3.05,1.16l2.07-2a7.37,7.37,0,0,0-5.12-2,7.52,7.52,0,1,0,0,15,7,7,0,0,0,7.33-7.34,6.46,6.46,0,0,0-.12-1.25Z"/><path d="M27.19,12.66h-2v-2a.25.25,0,0,0-.25-.25h-1.5a.25.25,0,0,0-.25.25v2h-2a.25.25,0,0,0-.25.25v1.5a.25.25,0,0,0,.25.25h2v2a.25.25,0,0,0,.25.25H25a.25.25,0,0,0,.25-.25v-2h2a.25.25,0,0,0,.25-.25v-1.5A.25.25,0,0,0,27.19,12.66Z"/></g></g></svg>