<svg xmlns="http://www.w3.org/2000/svg" xmlns:xlink="http://www.w3.org/1999/xlink" width="29px" height="25px"
  role="img"
  aria-labelledby="footerTwitterIconTitle footerTwitterIconDesc">
  <title>Twitter icon</title>
  <desc>Twitter icon that appears in the footer</desc>
  <path fill-rule="evenodd" stroke="rgb(255, 255, 255)" stroke-width="2px" stroke-linecap="butt" stroke-linejoin="miter" fill="none" d="M6.000,15.000 C0.564,10.462 2.908,3.359 3.000,3.000 C3.095,2.842 3.042,2.674 3.232,2.659 C3.421,2.646 3.604,2.721 3.724,2.861 C6.063,5.612 9.447,7.356 13.097,7.715 C13.081,7.547 13.073,7.376 13.073,7.208 C13.073,4.206 15.619,1.763 18.748,1.763 C20.201,1.763 21.607,2.303 22.657,3.257 C23.622,3.045 24.547,2.689 25.410,2.198 C25.617,2.083 25.876,2.099 26.064,2.241 C26.251,2.385 26.328,2.625 26.255,2.844 C26.253,2.850 26.805,3.830 26.157,4.105 C26.389,4.003 26.667,4.066 26.833,4.256 C26.999,4.445 27.013,4.716 26.871,4.921 C26.200,5.882 25.381,6.719 24.437,7.414 C24.440,7.534 24.441,7.655 24.441,7.774 C24.441,14.885 18.800,22.241 9.361,22.241 C6.472,22.241 3.006,21.052 1.000,19.000 "/><path fill-rule="evenodd" stroke="rgb(120, 205, 209)" stroke-width="2px" stroke-linecap="butt" stroke-linejoin="miter" fill="none" d="M13.000,16.000 C13.000,16.000 16.930,15.040 18.000,12.000 C19.010,9.130 19.000,9.000 19.000,9.000 "/>
</svg>