<svg xmlns="http://www.w3.org/2000/svg" viewBox="0 0 30 30"><defs><style>.cls-1{fill:#78cdd1;}</style></defs><g data-name="Icons copy"><g data-name="Facebook copy"><path d="M11.41,18V10.93a.41.41,0,0,1,.61-.35l6.27,3.53a.41.41,0,0,1,0,.71L12,18.35A.41.41,0,0,1,11.41,18Z"/><path d="M14.67,25.58s-6-.09-9.29-.12a1,1,0,0,1,0-2h0c3.28,0,9.28.12,9.28.12,2.3,0,8.65-.1,10.27-.54a2.41,2.41,0,0,0,1.69-1.71A35.77,35.77,0,0,0,27.17,15a35.77,35.77,0,0,0-.53-6.33A2.41,2.41,0,0,0,25,7c-1.62-.44-8-.54-10.28-.54S6,6.52,4.38,7A2.4,2.4,0,0,0,2.7,8.67,34.79,34.79,0,0,0,2.17,15a33.21,33.21,0,0,0,.65,5.6,1,1,0,0,1-1.93.51A34,34,0,0,1,.17,15,36.3,36.3,0,0,1,.76,8.16,4.42,4.42,0,0,1,3.86,5c2.17-.59,9.93-.61,10.81-.61s8.64,0,10.81.61a4.42,4.42,0,0,1,3.09,3.13,36.48,36.48,0,0,1,.6,6.84,36.48,36.48,0,0,1-.6,6.84A4.42,4.42,0,0,1,25.48,25C23.31,25.56,15.54,25.58,14.67,25.58Z"/><rect class="cls-1" x="12.13" y="17.46" width="7.76" height="2" rx="1" ry="1" transform="translate(-7.09 10.48) rotate(-30)"/></g></g></svg>