<svg xmlns="http://www.w3.org/2000/svg" viewBox="0 0 30 30"><defs><style>.cls-1{fill:#78cdd1;}</style></defs><title>socialicon-facebook</title><g data-name="Icons copy"><g data-name="Facebook copy"><path d="M18.47,25.64V19.26H20.4l.29-2.49H18.47V15.18c0-.72.18-1.21,1.11-1.21h1.18V11.74a13.94,13.94,0,0,0-1.72-.1c-1.71,0-2.88,1.16-2.88,3.29v1.84H14.23v2.49h1.93v6.38Z"/><path d="M25.41,27H7a1,1,0,0,1,0-2H25V5H5V21a1,1,0,0,1-2,0V4.71a1.73,1.73,0,0,1,.38-1.37A1.73,1.73,0,0,1,4.75,3h20.5a1.73,1.73,0,0,1,1.37.38A1.73,1.73,0,0,1,27,4.71v20.5a1.74,1.74,0,0,1-.38,1.37A1.59,1.59,0,0,1,25.41,27Z"/><path class="cls-1" d="M7.74,11.72a1,1,0,0,0,1-1v-2h2a1,1,0,0,0,0-2h-3a1,1,0,0,0-1,1v3A1,1,0,0,0,7.74,11.72Z"/></g></g></svg>