<svg xmlns="http://www.w3.org/2000/svg" viewBox="0 0 55 55">
  <defs>
    <style>
      .cls-1,.cls-2{}.cls-2{fill-rule:evenodd}
    </style>
  </defs>
  <g data-name="Icons copy">
    <g data-name="Smart Cities Working Group copy">
      <path d="M10.18 21h-3a1 1 0 0 1 0-2h3a1 1 0 0 1 0 2zM29.18 21h-7a1 1 0 0 1 0-2h7a1 1 0 0 1 0 2z" class="cls-1" fill="#78cdd1" />
      <path d="M41.18 34.39A1.62 1.62 0 1 1 39.57 36a1.62 1.62 0 0 1 1.61-1.61zM13.18 34.39A1.62 1.62 0 1 1 11.57 36a1.62 1.62 0 0 1 1.61-1.61z" class="cls-2" fill="#78cdd1" />
      <path fill-rule="evenodd" d="M18.18 13h2v10h-2z"/>
      <path d="M26.07 11H13.72C6.38 11 .18 17 .18 24v6c0 2.47 2.56 5.35 5 5.9v.1a8 8 0 0 0 16 0h12a8 8 0 0 0 16 0h.72a5.64 5.64 0 0 0 3.61-1 3.57 3.57 0 0 0 1.31-2.92C54.82 25.45 40.39 11 26.07 11zm-12.35 2h12.35c7.2 0 14.8 4.27 20 9H2.39a11.57 11.57 0 0 1 11.33-9zm-.54 29a6 6 0 1 1 6-6 6 6 0 0 1-6 6zm28 0a6 6 0 1 1 6-6 6 6 0 0 1-6 6zm11.08-8.58a3.86 3.86 0 0 1-2.36.58h-1a8 8 0 0 0-15.49 0 1.06 1.06 0 0 0-.19 0h-12.3a8 8 0 0 0-15.45-.1C4 33.51 2.18 31.48 2.18 30v-6h46c2.86 3 4.65 6 4.65 8.06a1.62 1.62 0 0 1-.57 1.37z"/>
    </g>
  </g>
</svg>
