<svg xmlns="http://www.w3.org/2000/svg" viewBox="0 0 55 55"><defs><style>.cls-1{fill:#78cdd1;}</style></defs><title>Numbers+icons</title><g data-name="Icons copy"><g data-name="Smart Cities Working Group copy"><path class="cls-1" d="M26.59,24.78,22.82,21a1,1,0,0,1,0-1.41,1,1,0,0,1,1.41,0l2.23,2.22,4.29-5.16a1,1,0,0,1,1.54,1.29Z"/><path d="M42.51,20.43a15,15,0,1,0-21.1,13.84L19.23,49.55l9.26-5.78,8.35,6L34.57,33.8A15.2,15.2,0,0,0,42.51,20.43ZM32.7,34.84l1.5,10.55-5.64-4-6.74,4.22L23.33,35a14.75,14.75,0,0,0,4.17.61c.28,0,.55,0,.83,0h.1c.28,0,.56,0,.83-.07A22.86,22.86,0,0,0,32.7,34.84ZM29,33.49c-.46,0-.92.07-1.38.07a14.92,14.92,0,0,1-4.77-.93l-1.18-.46v0a13.11,13.11,0,1,1,18.8-11.76A13.12,13.12,0,0,1,29,33.49Z"/></g></g></svg>