<?xml version="1.0" encoding="utf-8"?>
<!-- Generator: Adobe Illustrator 21.0.2, SVG Export Plug-In . SVG Version: 6.00 Build 0)  -->
<svg version="1.1" xmlns="http://www.w3.org/2000/svg" xmlns:xlink="http://www.w3.org/1999/xlink" x="0px" y="0px"
	 viewBox="0 0 37 51.1" style="enable-background:new 0 0 37 51.1;" xml:space="preserve">
<style type="text/css">
	.st0{fill:#FFFFFF;}
</style>
<title>Numbers+icons</title>
<g>
	<g>
		<path d="M27.2,20.3v-4.8c0-4.8-3.9-8.7-8.7-8.7s-8.7,3.9-8.7,8.7v4.8c-5.7,4.8-6.5,13.3-1.7,19s13.3,6.5,19,1.7s6.5-13.3,1.7-19
			C28.3,21.4,27.8,20.8,27.2,20.3z M11.8,15.6c0-3.7,3-6.7,6.7-6.7c3.7,0,6.7,3,6.7,6.7v3.4c-4.1-2.4-9.2-2.4-13.3,0L11.8,15.6z
			 M18.5,42.2C12.1,42.2,7,37,7,30.7s5.1-11.5,11.5-11.5S30,24.3,30,30.7C30,37,24.8,42.1,18.5,42.2z"/>
		<path class="st0" d="M18.5,24.8L18.5,24.8c0.6,0,1,0.4,1,1v9.7c0,0.6-0.4,1-1,1l0,0c-0.6,0-1-0.4-1-1v-9.7
			C17.5,25.2,17.9,24.8,18.5,24.8z"/>
		<path class="st0" d="M12.6,30.6L12.6,30.6c0-0.6,0.4-1,1-1h9.7c0.6,0,1,0.4,1,1l0,0c0,0.6-0.4,1-1,1h-9.7
			C13.1,31.6,12.6,31.1,12.6,30.6z"/>
	</g>
</g>
</svg>
