<svg xmlns="http://www.w3.org/2000/svg" viewBox="0 0 55 55"><defs><style>.cls-1{fill:#78cdd1;}</style></defs><title>Numbers+icons</title><g data-name="Icons copy"><g data-name="Smart Cities Working Group copy"><path class="cls-1" d="M10.49,42.43a1,1,0,0,1-.34-.06,1,1,0,0,1-.6-1.27,22.28,22.28,0,0,1,8.31-10.73,1,1,0,0,1,1.39.26A1,1,0,0,1,19,32a20.22,20.22,0,0,0-7.57,9.75A1,1,0,0,1,10.49,42.43Zm34,0a1,1,0,0,1-1-.69,18.71,18.71,0,0,0-7.39-9.82,1,1,0,0,1,1.12-1.66,20.72,20.72,0,0,1,8.17,10.87,1,1,0,0,1-.64,1.25A.84.84,0,0,1,44.49,42.43Z"/><path d="M47.16,23.35V20.09a2.66,2.66,0,1,0-5.32,0v3.26H35.78a1.19,1.19,0,0,0-.25-.38,11.82,11.82,0,0,0-8-3,11.87,11.87,0,0,0-7.89,2.89.94.94,0,0,0-.28.48H13.27V20.09a2.66,2.66,0,1,0-5.32,0v3.26c-4.7,0-5.45,1.57-5.45,3,0,1.62,1,2.59,2.91,3A75.71,75.71,0,0,0,18.07,31a3.45,3.45,0,0,0-.57,1.9,3.5,3.5,0,0,0,3.5,3.5H34a3.48,3.48,0,0,0,3-5.21c8.64-.47,10.76-1.3,12.59-1.79s2.87-1.39,2.87-3S51.48,23.35,47.16,23.35Zm-3.32-3.26a.66.66,0,1,1,1.32,0v3.26H43.84ZM27.52,22a10.12,10.12,0,0,1,5.16,1.37H22.36A10.15,10.15,0,0,1,27.52,22ZM10.61,19.41a.68.68,0,0,1,.66.68v3.26H10V20.09A.68.68,0,0,1,10.61,19.41ZM34,31.35a1.5,1.5,0,0,1,0,3H21a1.5,1.5,0,0,1,0-3Zm15.61-4c-.49.15-6.54,2-20.29,2a129.83,129.83,0,0,1-23.82-2c-.6-.13-1-.45-1-1a1,1,0,0,1,1-1H49c.82,0,1.54,0,1.54.87A1,1,0,0,1,49.61,27.35Z"/><rect class="cls-1" x="41.84" y="21.35" width="5.32" height="2"/><rect class="cls-1" x="7.95" y="21.35" width="5.32" height="2"/><rect class="cls-1" x="13.62" y="19.37" width="6.6" height="2" rx="1" ry="1"/><rect class="cls-1" x="34.88" y="19.37" width="6.6" height="2" rx="1" ry="1"/><rect class="cls-1" x="47.39" y="19.37" width="6.6" height="2" rx="1" ry="1"/><rect class="cls-1" x="1" y="19.37" width="6.6" height="2" rx="1" ry="1"/></g></g></svg>