<svg xmlns="http://www.w3.org/2000/svg" viewBox="0 0 55 55">
  <g data-name="Icons copy">
    <g data-name="Smart Cities Working Group copy">
      <path fill="#78cdd1" d="M26.59 24.78L22.82 21a1 1 0 0 1 0-1.41 1 1 0 0 1 1.41 0l2.23 2.22 4.29-5.16a1 1 0 0 1 1.54 1.29z"/>
      <path d="M42.51 20.43a15 15 0 1 0-21.1 13.84l-2.18 15.28 9.26-5.78 8.35 6-2.27-15.97a15.2 15.2 0 0 0 7.94-13.37zM32.7 34.84l1.5 10.55-5.64-4-6.74 4.22L23.33 35a14.75 14.75 0 0 0 4.17.61H28.43c.28 0 .56 0 .83-.07a22.86 22.86 0 0 0 3.44-.7zM29 33.49c-.46 0-.92.07-1.38.07a14.92 14.92 0 0 1-4.77-.93l-1.18-.46a13.11 13.11 0 1 1 18.8-11.76A13.12 13.12 0 0 1 29 33.49z"/>
    </g>
  </g>
</svg>
