<svg xmlns="http://www.w3.org/2000/svg" viewBox="0 0 55 55"><defs><style>.cls-1,.cls-2{fill:#78cdd1;}.cls-2,.cls-3{fill-rule:evenodd;}</style></defs><title>Numbers+icons</title><g data-name="Icons copy"><g data-name="Smart Cities Working Group copy"><path class="cls-1" d="M10.18,21h-3a1,1,0,0,1,0-2h3a1,1,0,0,1,0,2Z"/><path class="cls-1" d="M29.18,21h-7a1,1,0,0,1,0-2h7a1,1,0,0,1,0,2Z"/><path class="cls-2" d="M41.18,34.39A1.62,1.62,0,1,1,39.57,36,1.62,1.62,0,0,1,41.18,34.39Z"/><path class="cls-2" d="M13.18,34.39A1.62,1.62,0,1,1,11.57,36,1.62,1.62,0,0,1,13.18,34.39Z"/><path class="cls-3" d="M18.18,13h2V23h-2Z"/><path d="M26.07,11H13.72C6.38,11,.18,17,.18,24v6c0,2.47,2.56,5.35,5,5.9,0,0,0,.06,0,.1a8,8,0,0,0,16,0h12a8,8,0,0,0,16,0h.72a5.64,5.64,0,0,0,3.61-1,3.57,3.57,0,0,0,1.31-2.92C54.82,25.45,40.39,11,26.07,11ZM13.72,13H26.07c7.2,0,14.8,4.27,20,9H2.39A11.57,11.57,0,0,1,13.72,13Zm-.54,29a6,6,0,1,1,6-6A6,6,0,0,1,13.18,42Zm28,0a6,6,0,1,1,6-6A6,6,0,0,1,41.18,42Zm11.08-8.58A3.86,3.86,0,0,1,49.9,34h-1a8,8,0,0,0-15.49,0,1.06,1.06,0,0,0-.19,0H20.92a8,8,0,0,0-15.45-.1C4,33.51,2.18,31.48,2.18,30V24h46c2.86,3,4.65,6,4.65,8.06A1.62,1.62,0,0,1,52.26,33.43Z"/></g></g></svg>