<svg xmlns="http://www.w3.org/2000/svg" viewBox="0 0 55 55"><defs><style>.cls-1{fill:#78cdd1;}.cls-1,.cls-2{fill-rule:evenodd;}</style></defs><title>Numbers+icons</title><g data-name="Icons copy"><g data-name="Smart Cities Working Group copy"><path class="cls-1" d="M45.5,24.5a1,1,0,0,0-1,1v4a1,1,0,0,0,2,0v-4A1,1,0,0,0,45.5,24.5Z"/><path class="cls-1" d="M39.5,20.5a1,1,0,0,0-1,1v11a1,1,0,0,0,2,0v-11A1,1,0,0,0,39.5,20.5Z"/><path class="cls-1" d="M33.5,15.5a1,1,0,0,0-1,1v22a1,1,0,0,0,2,0v-22A1,1,0,0,0,33.5,15.5Z"/><path class="cls-2" d="M9.5,24.5a1,1,0,0,0-1,1v4a1,1,0,0,0,2,0v-4A1,1,0,0,0,9.5,24.5Z"/><path class="cls-2" d="M15.5,20.5a1,1,0,0,0-1,1v11a1,1,0,0,0,2,0v-11A1,1,0,0,0,15.5,20.5Z"/><path class="cls-2" d="M21.5,15.5a1,1,0,0,0-1,1v22a1,1,0,0,0,2,0v-22A1,1,0,0,0,21.5,15.5Z"/><path class="cls-2" d="M27.5,11.5a1,1,0,0,0-1,1v30a1,1,0,0,0,2,0v-30A1,1,0,0,0,27.5,11.5Z"/></g></g></svg>