<svg width="115.35" height="373.83" data-name="Layer 1" xmlns="http://www.w3.org/2000/svg" viewBox="0 0 115.35 373.83"><defs><style>.cls-1{fill:#5c666f;}.cls-2{fill:#f0f0f0;stroke:#5c6670;stroke-linejoin:round;}.cls-2,.cls-3,.cls-6,.cls-7{stroke-width:2px;}.cls-3{fill:#fff;}.cls-3,.cls-6,.cls-7{stroke:#5c666f;stroke-miterlimit:10;}.cls-4{fill:#78cdd1;}.cls-5{fill:#fa7a47;}.cls-6,.cls-7{fill:none;}.cls-6{stroke-linecap:round;}</style></defs><title>1G_phone</title><rect class="cls-1" x="41.13" y="43.39" width="7" height="65.5" rx="3.5" ry="3.5"/><rect class="cls-1" x="42.63" width="4" height="46.79" rx="2" ry="2"/><path class="cls-2" d="M158.11,1591.13c.27-.1,42.43-12.28,42.43-12.28,4.23-1.7,7.2-6,7.58-8.38.33-2.11,0-7.87-1.83-14.87s-12-39.13-12.38-40-.5-93.75-.62-96.13,9.12-37.37,9.87-39.25,4.83-47.28,5.08-51.3c.23-3.73-2.82-5.7-5.85-5.7l-48.29-1.77s-47.24,7.38-50.19,7.77c-4.25.57-9.25,3.07-9,9,.16,3.75,6,196.6,6,198.88a16.42,16.42,0,0,0,6.19,12.25l49.78,41.44A1.42,1.42,0,0,0,158.11,1591.13Z" transform="translate(-93.9 -1218.33)"/><path class="cls-3" d="M151.29,1377.6c-.75,2.75-9.88,42.87-9.75,44.87s1.12,100.25,1.25,101.5,11.62,39.75,12.25,41.63,3.12,3.25,5.75,2.62,42.08-10.18,43-10.55,3.25-1.38,1.75-5.25-11.59-35.7-11.59-36.82-.59-95-.59-96.58,9.87-37,10-39.55,4.12-41.57,4.42-44.45-1.12-5.79-4.15-5.79l-44.38-.8a5.48,5.48,0,0,0-5.48,5.48Z" transform="translate(-93.9 -1218.33)"/><path class="cls-4" d="M158.74,1337.67a2.88,2.88,0,0,1,2.88-2.88l37.21.64a2.88,2.88,0,0,1,2.88,2.88l-4,38a2.88,2.88,0,0,1-2.87,2.87l-35.26.67a2.87,2.87,0,0,1-2.88-2.87Z" transform="translate(-93.9 -1218.33)"/><path class="cls-4" d="M154.74,1388,195,1387a1.06,1.06,0,0,1,1.05,1.36l-4.69,15.88a1,1,0,0,1-1,.76l-39.28,1.9a1.07,1.07,0,0,1-1.09-1.29l3.69-16.83A1.09,1.09,0,0,1,154.74,1388Z" transform="translate(-93.9 -1218.33)"/><path class="cls-5" d="M157.16,1441.39l-8,.62a1,1,0,0,1-1-1l0-7.2a1,1,0,0,1,1-1l7.84-.67a1,1,0,0,1,1,1l.16,7.25A1,1,0,0,1,157.16,1441.39Z" transform="translate(-93.9 -1218.33)"/><path class="cls-5" d="M172.16,1440.22l-8,.66a1,1,0,0,1-1-1v-7.21a1,1,0,0,1,1-1l8.13-.72a1,1,0,0,1,1,1l-.13,7.27A1,1,0,0,1,172.16,1440.22Z" transform="translate(-93.9 -1218.33)"/><path class="cls-5" d="M186.16,1439.12l-8,.65a1,1,0,0,1-1-1v-7.19a1,1,0,0,1,1-1l7.93-.68a1,1,0,0,1,1,1l.07,7.22A1,1,0,0,1,186.16,1439.12Z" transform="translate(-93.9 -1218.33)"/><path class="cls-5" d="M157.16,1455.94l-8,.9a1,1,0,0,1-1-1v-7.57a1,1,0,0,1,1-1l8-.66a1,1,0,0,1,1,1v7.33A1,1,0,0,1,157.16,1455.94Z" transform="translate(-93.9 -1218.33)"/><path class="cls-5" d="M172.16,1454.35l-8,.87a1,1,0,0,1-1-1v-7.13a1,1,0,0,1,1-1l8-.68a1,1,0,0,1,1,1v6.94A1,1,0,0,1,172.16,1454.35Z" transform="translate(-93.9 -1218.33)"/><path class="cls-5" d="M186.16,1452.84l-8,.88a1,1,0,0,1-1-1V1446a1,1,0,0,1,1-1l8-.66a1,1,0,0,1,1,1v6.53A1,1,0,0,1,186.16,1452.84Z" transform="translate(-93.9 -1218.33)"/><path class="cls-5" d="M157.24,1470.8l-8,.78a1,1,0,0,1-1-1v-7.53a1,1,0,0,1,1-1l8-.77a1,1,0,0,1,1,1v7.52A1,1,0,0,1,157.24,1470.8Z" transform="translate(-93.9 -1218.33)"/><path class="cls-5" d="M172.16,1469.25l-8,.86a1,1,0,0,1-1-1v-7.42a1,1,0,0,1,1-1l7.89-.82a1,1,0,0,1,1,1l.11,7.38A1,1,0,0,1,172.16,1469.25Z" transform="translate(-93.9 -1218.33)"/><path class="cls-5" d="M186.16,1467.77l-8,.82a1,1,0,0,1-1-1v-7.23a1,1,0,0,1,1-1l8-.78a1,1,0,0,1,1,1v7.19A1,1,0,0,1,186.16,1467.77Z" transform="translate(-93.9 -1218.33)"/><path class="cls-5" d="M157.16,1485.94l-8,1.12a1,1,0,0,1-1-1v-7.49a1,1,0,0,1,1-1l8-1a1,1,0,0,1,1,1v7.37A1,1,0,0,1,157.16,1485.94Z" transform="translate(-93.9 -1218.33)"/><path class="cls-5" d="M172.05,1483.83l-7.89,1.17a1,1,0,0,1-1-1v-7.28a1,1,0,0,1,1-1l8-1a1,1,0,0,1,1,1l-.11,7.11A1,1,0,0,1,172.05,1483.83Z" transform="translate(-93.9 -1218.33)"/><path class="cls-5" d="M186.08,1481.89l-7.92,1.08a1,1,0,0,1-1-1v-7a1,1,0,0,1,1-1l8-1a1,1,0,0,1,1,1l-.08,6.92A1,1,0,0,1,186.08,1481.89Z" transform="translate(-93.9 -1218.33)"/><path class="cls-5" d="M158.12,1510.75l-9.24,1.37a1,1,0,0,1-1-1v-7a1,1,0,0,1,1-1l9.24-1.25a1,1,0,0,1,1,1v6.87A1,1,0,0,1,158.12,1510.75Z" transform="translate(-93.9 -1218.33)"/><path class="cls-5" d="M172.56,1508.62l-8.68,1.44a1,1,0,0,1-1-1v-6.78a1,1,0,0,1,1-1l8.78-1.27a1,1,0,0,1,1,1l-.1,6.61A1,1,0,0,1,172.56,1508.62Z" transform="translate(-93.9 -1218.33)"/><path class="cls-5" d="M186.74,1506.37l-8.61,1.09a1,1,0,0,1-1-1v-6.27a1,1,0,0,1,1-1l8.69-1a1,1,0,0,1,1,1l-.08,6.18A1,1,0,0,1,186.74,1506.37Z" transform="translate(-93.9 -1218.33)"/><path class="cls-6" d="M135.91,1324.22c-4.25.57-9.25,2.07-9,8,.16,3.75,6,235.6,6,237.88" transform="translate(-93.9 -1218.33)"/><path class="cls-4" d="M149,1528.72c5.56-1.12,36.48-7.43,41.5-8.45a.75.75,0,0,1,.88.53l5.26,16.38a.74.74,0,0,1-.56.94l-41.56,9.45a.75.75,0,0,1-.89-.52l-5.2-17.35A.77.77,0,0,1,149,1528.72Z" transform="translate(-93.9 -1218.33)"/><line class="cls-7" x1="47.35" y1="204.42" x2="99.27" y2="201.17"/><line class="cls-7" x1="48.6" y1="305.84" x2="99.77" y2="296.17"/></svg>
