<svg width="163.46" height="286.56" data-name="Layer 7" xmlns="http://www.w3.org/2000/svg" viewBox="0 0 163.46 286.56"><defs><style>.cls-1{fill:#f0f0f0;}.cls-1,.cls-2,.cls-6,.cls-7{stroke:#5c6670;stroke-width:2px;}.cls-1,.cls-2,.cls-6{stroke-linejoin:round;}.cls-2,.cls-4{fill:#fff;}.cls-3{fill:#5c6670;}.cls-5{fill:#6cc;}.cls-6,.cls-7{fill:none;}.cls-7{stroke-miterlimit:10;}.cls-8{fill:#c7d4e2;}.cls-9{fill:#fa7a47;}</style></defs><title>2G_phone</title><path class="cls-1" d="M510.59,453.44,471.4,438.61a10.11,10.11,0,0,1-6.14-12.23l40.4-141.54,27.94,8a12.62,12.62,0,0,0,14.3-5.66l9.47-15.85c3.25.93,9.59,2.84,13.44,3.93a14.9,14.9,0,0,1,2.05,1.92s-6.12,29.93-6.27,30.46L527.38,445A12.76,12.76,0,0,1,510.59,453.44Z" transform="translate(-423.25 -217.27)"/><path class="cls-2" d="M509.61,453.07l-41.37-15.65a6.43,6.43,0,0,1-3.91-7.78L502.05,297.5l54.76,15.63L518.07,448.82A6.42,6.42,0,0,1,509.61,453.07Z" transform="translate(-423.25 -217.27)"/><path class="cls-2" d="M532.16,371.15l-47.43-15.41a7.5,7.5,0,0,1-4.9-9.19l16.41-57.49a7.5,7.5,0,0,1,9.09-5.2L553.6,296.3a7.52,7.52,0,0,1,5.35,9.33l-17.26,60.44A7.5,7.5,0,0,1,532.16,371.15Z" transform="translate(-423.25 -217.27)"/><path class="cls-2" d="M426.33,475.61l33.85-33a3.58,3.58,0,0,1,3.76-.78L512.16,460a3.59,3.59,0,0,1,1.3,5.87l-35.05,35.89a3.58,3.58,0,0,1-4,.77l-47-21.06" transform="translate(-423.25 -217.27)"/><path class="cls-2" d="M473.66,497.51l-47-21.06a3.58,3.58,0,0,1-1-5.84l33.84-33a3.59,3.59,0,0,1,3.77-.78L511.44,455a3.59,3.59,0,0,1,1.3,5.87l-35,35.89A3.6,3.6,0,0,1,473.66,497.51Z" transform="translate(-423.25 -217.27)"/><path class="cls-2" d="M528.63,370.14l-44.35-14.52a7.3,7.3,0,0,1-4.45-9.07l16.41-57.49a7.29,7.29,0,0,1,8.64-5.33l45.19,11.56a7.26,7.26,0,0,1,4.86,9.19l-17.25,60.44A7.25,7.25,0,0,1,528.63,370.14Z" transform="translate(-423.25 -217.27)"/><polygon class="cls-3" points="155.27 11.85 140.48 55.91 143.59 56.84 158.27 12.7 155.27 11.85"/><rect class="cls-3" x="578.42" y="217.19" width="7.24" height="13.25" rx="3.31" ry="3.31" transform="translate(-320.98 -391.81) rotate(18.67)"/><path class="cls-4" d="M507.88,445.06l-34.39-12.69c-3-1.11-4.6-4.7-3.6-8.2l15.59-54.61c1.07-3.74,4.66-6,7.94-4.92l36.45,11.7a4.7,4.7,0,0,1,2.73,5.91l-16.55,58C515,444.06,511.21,446.28,507.88,445.06Z" transform="translate(-423.25 -217.27)"/><path class="cls-5" d="M530.14,364.66l-44.38-14.11a2.07,2.07,0,0,1-1.32-2.57L488,335.56a2.06,2.06,0,0,1,2.52-1.47L535,347.73c1.06.31,1.78,1,1.46,2.13l-3.8,13.34A2.07,2.07,0,0,1,530.14,364.66Z" transform="translate(-423.25 -217.27)"/><polyline class="cls-6" points="135.7 88.36 142.38 67.7 128.35 63.7"/><polyline class="cls-7" points="147.47 70.38 142.38 67.7 147.28 57.89"/><path class="cls-8" d="M513.83,337.31h0a18.59,18.59,0,0,1-12.13-22.77l4.14-14.5a9.86,9.86,0,0,1,11.93-6.84l16.92,4.37a9.85,9.85,0,0,1,7,12.24l-4.26,14.93A18.58,18.58,0,0,1,513.83,337.31Z" transform="translate(-423.25 -217.27)"/><path class="cls-9" d="M494.06,372.13l4.53,1.48c1.06.34,2.11,1.86,1.41,4a2.82,2.82,0,0,1-3.3,2.15l-4.64-1.51c-.77-.26-2.5-1.29-1.64-3.92S493.16,371.84,494.06,372.13Z" transform="translate(-423.25 -217.27)"/><path class="cls-9" d="M507,376.36l4.53,1.47c1.06.35,2.11,1.87,1.41,4a2.83,2.83,0,0,1-3.3,2.15L505,382.47c-.77-.25-2.5-1.29-1.64-3.92S506.13,376.06,507,376.36Z" transform="translate(-423.25 -217.27)"/><path class="cls-9" d="M520.38,380.71l4.54,1.48c1.05.34,2.11,1.86,1.41,4a2.83,2.83,0,0,1-3.3,2.15l-4.64-1.51c-.78-.26-2.5-1.29-1.64-3.92S519.49,380.42,520.38,380.71Z" transform="translate(-423.25 -217.27)"/><path class="cls-9" d="M490.91,381.63l4.54,1.48c1.05.34,2.11,1.86,1.41,4a2.82,2.82,0,0,1-3.3,2.15l-4.64-1.51c-.78-.25-2.5-1.29-1.65-3.92S490,381.34,490.91,381.63Z" transform="translate(-423.25 -217.27)"/><path class="cls-9" d="M504.28,386l4.54,1.48c1.05.34,2.11,1.86,1.41,4a2.82,2.82,0,0,1-3.3,2.15l-4.64-1.51c-.78-.25-2.5-1.29-1.65-3.92S503.39,385.68,504.28,386Z" transform="translate(-423.25 -217.27)"/><path class="cls-9" d="M517.13,390.18l4.54,1.48c1.05.34,2.1,1.86,1.41,4a2.83,2.83,0,0,1-3.3,2.15l-4.64-1.51c-.78-.26-2.5-1.29-1.65-3.92S516.24,389.89,517.13,390.18Z" transform="translate(-423.25 -217.27)"/><path class="cls-9" d="M488.17,391.25l4.53,1.47c1.06.35,2.11,1.87,1.41,4a2.82,2.82,0,0,1-3.3,2.15l-4.64-1.52c-.77-.25-2.5-1.29-1.64-3.92S487.27,391,488.17,391.25Z" transform="translate(-423.25 -217.27)"/><path class="cls-9" d="M501.54,395.59l4.53,1.48c1.06.34,2.11,1.86,1.41,4a2.82,2.82,0,0,1-3.3,2.15l-4.64-1.51c-.77-.26-2.5-1.3-1.64-3.92S500.64,395.3,501.54,395.59Z" transform="translate(-423.25 -217.27)"/><path class="cls-9" d="M514.33,399.78l4.54,1.48c1,.34,2.11,1.86,1.41,4a2.82,2.82,0,0,1-3.3,2.15l-4.64-1.51c-.78-.25-2.5-1.29-1.64-3.92S513.44,399.49,514.33,399.78Z" transform="translate(-423.25 -217.27)"/><path class="cls-9" d="M485.42,400.86l4.54,1.48c1.05.34,2.11,1.86,1.41,4a2.82,2.82,0,0,1-3.3,2.15L483.43,407c-.78-.25-2.5-1.29-1.65-3.92S484.53,400.57,485.42,400.86Z" transform="translate(-423.25 -217.27)"/><path class="cls-9" d="M498.45,405.11l4.54,1.47c1.05.35,2.11,1.87,1.41,4a2.84,2.84,0,0,1-3.3,2.15l-4.64-1.52c-.78-.25-2.5-1.29-1.65-3.92S497.56,404.82,498.45,405.11Z" transform="translate(-423.25 -217.27)"/><path class="cls-9" d="M511.59,409.4l4.53,1.47c1.06.35,2.11,1.87,1.41,4a2.83,2.83,0,0,1-3.3,2.15l-4.63-1.52c-.78-.25-2.51-1.29-1.65-3.92S510.69,409.1,511.59,409.4Z" transform="translate(-423.25 -217.27)"/><circle class="cls-8" cx="59.71" cy="197.04" r="3.29"/><circle class="cls-8" cx="68.44" cy="200.25" r="3.29"/><circle class="cls-8" cx="77.35" cy="203.48" r="3.29"/><circle class="cls-9" cx="86.26" cy="206.64" r="3.29"/><circle class="cls-8" cx="57.17" cy="205.94" r="3.29"/><circle class="cls-8" cx="65.9" cy="209.15" r="3.29"/><circle class="cls-8" cx="74.81" cy="212.37" r="3.29"/><circle class="cls-8" cx="83.72" cy="215.53" r="3.29"/><line class="cls-2" x1="52.92" y1="280.4" x2="53.45" y2="285.45"/><line class="cls-2" x1="90.39" y1="240.13" x2="91.23" y2="246.17"/><path class="cls-6" d="M424.75,472s-2.44,7.58,3.46,9.87" transform="translate(-423.25 -217.27)"/></svg>
