<svg width="161.48" height="214.87" data-name="Layer 7" xmlns="http://www.w3.org/2000/svg" viewBox="0 0 161.48 214.87"><defs><style>.cls-1{fill:#f0f0f0;}.cls-1,.cls-10,.cls-11,.cls-3,.cls-8,.cls-9{stroke:#5c6670;stroke-linejoin:round;stroke-width:2px;}.cls-1,.cls-2,.cls-3,.cls-4,.cls-5,.cls-6,.cls-7,.cls-8,.cls-9{fill-rule:evenodd;}.cls-2{fill:#5c666f;}.cls-10,.cls-11,.cls-3,.cls-9{fill:#fff;}.cls-4{fill:#fa7a47;}.cls-5,.cls-8{fill:none;}.cls-6{fill:#6cc;}.cls-7{fill:#c7d4e2;}.cls-10,.cls-9{stroke-linecap:round;}</style></defs><title>3G_phone</title><path class="cls-1" d="M559.1,296.8c-9.33-1.41-28.23-5.08-49-4.37s-26.08-.16-32,1.94-10,7.7-9.22,12.12,19.18,59.61,24.25,74.67,22.61,66.34,26.18,73.7,5.94,12,18.43,12.61,57.68.58,75.15-8.73c7.59-4.58,12.8-7.35,5.82-25.21S568.43,298.2,559.1,296.8Z" transform="translate(-461.54 -253.83)"/><path class="cls-2" d="M465,269.16a11.78,11.78,0,0,0-3.4,9.7c.61,4.14,4.25,20,5.34,22.78a29.92,29.92,0,0,0,1.45,3.4s4.58-6.77,6.3-8.24a16.79,16.79,0,0,1,10.67-3.4c4.86.14,4.36,0,4.36,0L481,273.52s-2.75-5.59-7.76-5.82S466.75,267.72,465,269.16Z" transform="translate(-461.54 -253.83)"/><path class="cls-3" d="M481,293.89c4,11.14,33.45,89.21,33.45,89.21s1.65,6.12,7.76,5.82S594,386,594,386s3.68.47,1.94-5.33-22.25-55.89-35.88-82.92C559,296.29,533.72,290.91,481,293.89Z" transform="translate(-461.54 -253.83)"/><path class="cls-4" d="M586.08,393.26a6.31,6.31,0,0,1,5.36,5.19c.45,2.76-1.29,5-4,4.95a6.24,6.24,0,0,1-5.67-5.5A4,4,0,0,1,586.08,393.26Z" transform="translate(-461.54 -253.83)"/><path class="cls-4" d="M537.59,395.2a6.32,6.32,0,0,1,5.37,5.19c.45,2.76-1.3,5-4,4.95a6.26,6.26,0,0,1-5.68-5.5A4,4,0,0,1,537.59,395.2Z" transform="translate(-461.54 -253.83)"/><path class="cls-4" d="M600.08,410.26a5.55,5.55,0,0,1,4.8,4.46,3.46,3.46,0,0,1-3.57,4.26,5.49,5.49,0,0,1-5.08-4.73A3.46,3.46,0,0,1,600.08,410.26Z" transform="translate(-461.54 -253.83)"/><path class="cls-4" d="M589.66,410.89a5.57,5.57,0,0,1,4.8,4.47,3.46,3.46,0,0,1-3.57,4.26,5.5,5.5,0,0,1-5.08-4.73A3.46,3.46,0,0,1,589.66,410.89Z" transform="translate(-461.54 -253.83)"/><path class="cls-4" d="M579.53,411.71a5.56,5.56,0,0,1,4.8,4.46,3.46,3.46,0,0,1-3.57,4.26,5.48,5.48,0,0,1-5.07-4.72A3.45,3.45,0,0,1,579.53,411.71Z" transform="translate(-461.54 -253.83)"/><path class="cls-4" d="M569,412.69a5.55,5.55,0,0,1,4.8,4.46,3.46,3.46,0,0,1-3.57,4.26,5.48,5.48,0,0,1-5.08-4.73A3.46,3.46,0,0,1,569,412.69Z" transform="translate(-461.54 -253.83)"/><path class="cls-4" d="M558.37,413.17a5.57,5.57,0,0,1,4.8,4.46,3.47,3.47,0,0,1-3.57,4.27,5.5,5.5,0,0,1-5.08-4.73A3.46,3.46,0,0,1,558.37,413.17Z" transform="translate(-461.54 -253.83)"/><path class="cls-4" d="M548.18,413.66a5.55,5.55,0,0,1,4.8,4.46,3.46,3.46,0,0,1-3.57,4.26,5.48,5.48,0,0,1-5.07-4.73A3.45,3.45,0,0,1,548.18,413.66Z" transform="translate(-461.54 -253.83)"/><path class="cls-4" d="M537.64,414.63a5.54,5.54,0,0,1,4.8,4.46,3.46,3.46,0,0,1-3.57,4.26,5.48,5.48,0,0,1-5.07-4.73A3.45,3.45,0,0,1,537.64,414.63Z" transform="translate(-461.54 -253.83)"/><path class="cls-4" d="M605,422.4a5.53,5.53,0,0,1,4.79,4.46,3.46,3.46,0,0,1-3.56,4.26,5.49,5.49,0,0,1-5.08-4.73A3.45,3.45,0,0,1,605,422.4Z" transform="translate(-461.54 -253.83)"/><path class="cls-4" d="M594.61,423a5.56,5.56,0,0,1,4.8,4.46,3.46,3.46,0,0,1-3.57,4.27,5.49,5.49,0,0,1-5.07-4.73A3.46,3.46,0,0,1,594.61,423Z" transform="translate(-461.54 -253.83)"/><path class="cls-4" d="M584.49,423.85a5.56,5.56,0,0,1,4.8,4.46,3.46,3.46,0,0,1-3.57,4.26,5.48,5.48,0,0,1-5.08-4.73A3.46,3.46,0,0,1,584.49,423.85Z" transform="translate(-461.54 -253.83)"/><path class="cls-4" d="M573.91,424.83a5.54,5.54,0,0,1,4.79,4.46,3.46,3.46,0,0,1-3.56,4.26,5.49,5.49,0,0,1-5.08-4.73A3.45,3.45,0,0,1,573.91,424.83Z" transform="translate(-461.54 -253.83)"/><path class="cls-4" d="M563.32,425.31a5.55,5.55,0,0,1,4.8,4.46,3.46,3.46,0,0,1-3.57,4.26,5.48,5.48,0,0,1-5.07-4.72A3.45,3.45,0,0,1,563.32,425.31Z" transform="translate(-461.54 -253.83)"/><path class="cls-4" d="M553.14,425.8a5.55,5.55,0,0,1,4.8,4.46,3.46,3.46,0,0,1-3.57,4.26,5.49,5.49,0,0,1-5.08-4.73A3.45,3.45,0,0,1,553.14,425.8Z" transform="translate(-461.54 -253.83)"/><path class="cls-4" d="M542.6,426.77a5.55,5.55,0,0,1,4.8,4.46,3.46,3.46,0,0,1-3.57,4.26,5.49,5.49,0,0,1-5.08-4.73A3.45,3.45,0,0,1,542.6,426.77Z" transform="translate(-461.54 -253.83)"/><path class="cls-4" d="M609.49,434.05a5.56,5.56,0,0,1,4.8,4.46,3.46,3.46,0,0,1-3.57,4.26,5.48,5.48,0,0,1-5.07-4.73A3.45,3.45,0,0,1,609.49,434.05Z" transform="translate(-461.54 -253.83)"/><path class="cls-4" d="M599.07,434.69a5.55,5.55,0,0,1,4.8,4.46,3.46,3.46,0,0,1-3.57,4.26,5.49,5.49,0,0,1-5.08-4.73A3.46,3.46,0,0,1,599.07,434.69Z" transform="translate(-461.54 -253.83)"/><path class="cls-4" d="M588.94,435.5a5.57,5.57,0,0,1,4.8,4.47,3.46,3.46,0,0,1-3.57,4.26,5.49,5.49,0,0,1-5.07-4.73A3.46,3.46,0,0,1,588.94,435.5Z" transform="translate(-461.54 -253.83)"/><path class="cls-4" d="M578.36,436.48a5.56,5.56,0,0,1,4.8,4.46,3.46,3.46,0,0,1-3.57,4.26,5.48,5.48,0,0,1-5.07-4.73A3.45,3.45,0,0,1,578.36,436.48Z" transform="translate(-461.54 -253.83)"/><path class="cls-4" d="M567.78,437a5.55,5.55,0,0,1,4.8,4.46,3.46,3.46,0,0,1-3.57,4.26,5.49,5.49,0,0,1-5.08-4.73A3.45,3.45,0,0,1,567.78,437Z" transform="translate(-461.54 -253.83)"/><path class="cls-4" d="M557.59,437.45a5.55,5.55,0,0,1,4.8,4.46,3.46,3.46,0,0,1-3.57,4.26,5.48,5.48,0,0,1-5.07-4.73A3.45,3.45,0,0,1,557.59,437.45Z" transform="translate(-461.54 -253.83)"/><path class="cls-4" d="M547.05,438.42a5.55,5.55,0,0,1,4.8,4.46,3.46,3.46,0,0,1-3.57,4.26,5.48,5.48,0,0,1-5.07-4.73A3.45,3.45,0,0,1,547.05,438.42Z" transform="translate(-461.54 -253.83)"/><path class="cls-5" d="M528.06,414.63a5.55,5.55,0,0,1,4.8,4.46,3.46,3.46,0,0,1-3.57,4.26,5.49,5.49,0,0,1-5.08-4.73A3.45,3.45,0,0,1,528.06,414.63Z" transform="translate(-461.54 -253.83)"/><path class="cls-6" d="M494.37,316.67l24.73,67.4,73.21-2.42-28.12-64.49Z" transform="translate(-461.54 -253.83)"/><path class="cls-7" d="M558.87,389.51c9.74-.46,19.55,4.85,21.06,11.45,1.41,6.16-5.18,10.53-14,10.16-8.27-.34-16.28-4.75-18.49-10.16C545,395.21,549.85,389.94,558.87,389.51Z" transform="translate(-461.54 -253.83)"/><path class="cls-8" d="M532.92,466.93s7.63-4.86,5.22-17.4-23.65-66.43-23.65-66.43" transform="translate(-461.54 -253.83)"/><path class="cls-9" d="M508.84,304.8s10.3-5.15,35.43,0" transform="translate(-461.54 -253.83)"/><path class="cls-9" d="M555.71,461c7.66.53,25.52.9,49.23-4.23" transform="translate(-461.54 -253.83)"/><line class="cls-10" x1="18.08" y1="61.79" x2="23.58" y2="76.74"/><ellipse class="cls-10" cx="85.46" cy="207.09" rx="3.46" ry="1.46"/><path class="cls-11" d="M558.77,344.78l-3.06,2.61a.31.31,0,0,1-.47-.07L553.11,344a.17.17,0,0,1,0-.1l20.7-87.15c.18-1.24,1.61-2.07,3.18-1.85h0a2.64,2.64,0,0,1,2.53,2.67l-20.7,87.15A.36.36,0,0,1,558.77,344.78Z" transform="translate(-461.54 -253.83)"/><path class="cls-11" d="M572.93,259.1a7.92,7.92,0,0,0,5.56,1.48" transform="translate(-461.54 -253.83)"/></svg>
