<svg width="108" height="274.54" data-name="Layer 7" xmlns="http://www.w3.org/2000/svg" viewBox="0 0 108 274.54"><defs><style>.cls-1,.cls-7{fill:#f0f0f0;}.cls-1,.cls-2,.cls-5,.cls-7{stroke:#5c6670;stroke-linejoin:round;stroke-width:2px;}.cls-1,.cls-2,.cls-3,.cls-4,.cls-5,.cls-6{fill-rule:evenodd;}.cls-2,.cls-5{fill:#fff;}.cls-3{fill:#fa7a47;}.cls-4{fill:#c7d4e2;}.cls-5{stroke-linecap:round;}.cls-6{fill:#6cc;}</style></defs><title>4G_Phone</title><path class="cls-1" d="M324.28,353.16l63.51,15.08c10.69,3,13.71,12.16,13.71,32.89V606.48c0,11.5-6.41,18.45-15.53,18.45l-77.22-.46c-12.36,0-13.25-11.59-13.25-23.93V373.26C295.5,356,309.85,350.58,324.28,353.16Z" transform="translate(-294.5 -351.39)"/><path class="cls-2" d="M328.4,353.16l58.94,15.08c10.68,3,13.7,9,13.7,29.69V605.82c0,11.51-6.41,16.45-15.53,16.45l-65.34-.46c-12.36,0-13.25-9.58-13.25-21.93V374.63C306.92,353.7,314,350.58,328.4,353.16Z" transform="translate(-294.5 -351.39)"/><path class="cls-3" d="M356.27,592.48c4.29,0,7.76,4.7,7.76,10.51s-3.47,10.5-7.76,10.5-7.77-4.7-7.77-10.5S352,592.48,356.27,592.48Z" transform="translate(-294.5 -351.39)"/><path class="cls-4" d="M301,387.43a1.74,1.74,0,0,1,1.68,1.82l-.17,9.14a1.81,1.81,0,0,1-1.74,1.83,1.73,1.73,0,0,1-1.68-1.83l.16-9.14A1.81,1.81,0,0,1,301,387.43Z" transform="translate(-294.5 -351.39)"/><path class="cls-4" d="M301.07,437.23c1.77,0,3.2,2.15,3.2,4.79s-1.43,4.8-3.2,4.8-3.2-2.15-3.2-4.8S299.3,437.23,301.07,437.23Z" transform="translate(-294.5 -351.39)"/><path class="cls-4" d="M301.07,413.47c1.77,0,3.2,2.15,3.2,4.8s-1.43,4.79-3.2,4.79-3.2-2.14-3.2-4.79S299.3,413.47,301.07,413.47Z" transform="translate(-294.5 -351.39)"/><path class="cls-5" d="M349.47,378.71l13.1,2.8a2.89,2.89,0,0,1,2.34,2.7,1.88,1.88,0,0,1-2.34,1.87l-13.1-2.8a2.91,2.91,0,0,1-2.34-2.71A1.88,1.88,0,0,1,349.47,378.71Z" transform="translate(-294.5 -351.39)"/><path class="cls-3" d="M355.58,370.06a2.57,2.57,0,1,1-2.05,2.52A2.32,2.32,0,0,1,355.58,370.06Z" transform="translate(-294.5 -351.39)"/><path class="cls-6" d="M313.32,388.8v196L394.65,588l.45-183.21Z" transform="translate(-294.5 -351.39)"/><line class="cls-7" x1="1" y1="249.15" x2="12.42" y2="248.49"/><line class="cls-7" x1="1" y1="24.03" x2="12.42" y2="23.37"/></svg>
