<svg width="288.48" height="155.19" data-name="Layer 7" xmlns="http://www.w3.org/2000/svg" viewBox="0 0 288.48 155.19"><defs><style>.cls-1,.cls-5,.cls-6{fill:#f0f0f0;}.cls-1,.cls-3,.cls-4,.cls-5,.cls-6,.cls-7{stroke:#5c6670;stroke-linejoin:round;stroke-width:2px;}.cls-1,.cls-2,.cls-3,.cls-4,.cls-6{fill-rule:evenodd;}.cls-2{fill:#6cc;}.cls-3{fill:#fff;}.cls-4{fill:none;}.cls-5,.cls-6{stroke-linecap:round;}.cls-7{fill:#fa7a47;}</style></defs><title>5G</title><path class="cls-1" d="M472.61,460.05c-38.28,2.63-37.84,23.48-37.84,41.76v12.4s-1.84,34.08,28.71,37.19c20.7,1.47,32.62.66,32.62.66s3.67,3.79,16.32,3.26,15-.65,19.57-3.26c16.33.31,45.68,0,45.68,0s11.21,7.21,48.94,1.3S666.21,522,666.41,509s3.06-41.37-26.1-52.85c-19.11-6.41-57.42-5.22-57.42-5.22s-22.52,3.82-107.67,45c-6.74,2.6-11.4,5.1-10-14.19S468,465.52,472.61,460.05Z" transform="translate(-433.75 -401.5)"/><path class="cls-2" d="M578.65,486.81c9.91,0,17.94,8.61,17.94,19.24s-8,19.25-17.94,19.25-17.95-8.61-17.95-19.25S568.74,486.81,578.65,486.81Z" transform="translate(-433.75 -401.5)"/><path class="cls-2" d="M519.59,484.85c10.46,0,18.93,9,18.93,20.23s-8.47,20.22-18.93,20.22-18.92-9-18.92-20.22S509.14,484.85,519.59,484.85Z" transform="translate(-433.75 -401.5)"/><path class="cls-1" d="M496.1,551.4c-31.34,0-32-41.37-31.32-57.69L493.5,482Z" transform="translate(-433.75 -401.5)"/><path class="cls-3" d="M530,471.8c1.12,2.11,1.9,5.87,7.83,5.87H560.7A20.26,20.26,0,0,0,564,473.1c3.89-.36,9.6.9,15,1.31s26.1,3.37,32,5.22,13,6.18,13,18.27-.25,21.73-1.31,27.4-1.92,11.87-15,12.4,16.1-.3,22.84-2.61S648.27,529,648.79,509s-2.08-32-15.66-36.54-68.51-4.57-68.51-4.57h-32S528.92,469.68,530,471.8Z" transform="translate(-433.75 -401.5)"/><path class="cls-3" d="M488.27,490.07s.09,25.48,1.31,32.62,2.34,22.76,6.52,27.41,8.15,4.89,13,5.22a104.64,104.64,0,0,0,15-.65c2.77-.29,10.49.19,15-15.66s6.52-24.15,6.52-24.15.39-5.33-3.91-5.22c-2,.09-7.07,13.56-9.14,17.62s-4.35,9.23-10.44,9.79-15,.65-15,.65-4.84.49-4.57-8.48-2.61-45-2.61-45" transform="translate(-433.75 -401.5)"/><path class="cls-3" d="M554.18,518.13A120.62,120.62,0,0,0,565.92,541c2.36,3.69,8.52,15.1,32,14.36s40-1.93,52.85-11.75,17.18-24,15.66-47.63-13-36.3-32.63-41.76-53.5-3.26-53.5-3.26l-23.78,8-22,9.63,73.79.66s24.55.7,31.32,6.52,13.8,23.14,6.52,46.33c-5.5,16.61-31.32,15.66-31.32,15.66s-22.86,1.41-30-.65-11-7.32-18.93-18.92C559.57,510,555.6,509.63,554.18,518.13Z" transform="translate(-433.75 -401.5)"/><path class="cls-3" d="M477.83,456.79c-5.13,3-13.05,8.31-13.05,13.7v30.29s12.86-6,15.66-7.45,69.82-32,69.82-32,49.54-21.67,122-23.49c7.88,0,23.83.47,33.28,5.87-3.47,3.33-11.68,11.46-42.41,26.1-3.31-2.85-5.88-2-5.88-2s5.13,7.24,6.53,11.75,4,21,3.26,26.75c-.13,2.64,0,2.61,0,2.61s3.76-.29,5.22-6.52c12.68-5.86,47.58-20.14,48.94-47.64.26-9.9-5.31-27-7.87-34.35a12.09,12.09,0,0,0-4.91-6.2c-7.07-4.51-25.08-12.93-59.65-11.65-46.85,1.74-82.71,14.27-110.27,24.14S483,453.83,477.83,456.79Z" transform="translate(-433.75 -401.5)"/><path class="cls-4" d="M698.7,440.9s19.62,3.86,22,18.06" transform="translate(-433.75 -401.5)"/><line class="cls-5" x1="8.86" y1="91.89" x2="23.21" y2="90.15"/><line class="cls-5" x1="8.86" y1="118.67" x2="23.21" y2="116.93"/><path class="cls-6" d="M543.78,510.11s5.5-8.71,12,3.16" transform="translate(-433.75 -401.5)"/><polygon class="cls-7" points="67.98 39.67 67.98 82.17 98.5 69.12 96.07 26.32 67.98 39.67"/></svg>
