<svg data-name="Layer 1" xmlns="http://www.w3.org/2000/svg" xmlns:xlink="http://www.w3.org/1999/xlink" viewBox="0 0 392 392" role="presentation"><defs><style>.cls-1,.cls-10,.cls-11,.cls-12{fill:none;}.cls-2{fill:#e6ffff;}.cls-11,.cls-2,.cls-5,.cls-6,.cls-7{stroke:#5c6670;}.cls-10,.cls-11,.cls-12,.cls-2,.cls-6{stroke-linejoin:round;}.cls-10,.cls-11,.cls-12,.cls-2,.cls-5,.cls-6,.cls-7{stroke-width:2px;}.cls-3,.cls-6{fill:#5c6670;}.cls-4{fill:#d0e2e1;}.cls-5{fill:#c7d4e2;}.cls-5,.cls-7{stroke-miterlimit:10;}.cls-13,.cls-7{fill:#78cdd1;}.cls-8{fill:#d1e42d;}.cls-15,.cls-9{fill:#fff;}.cls-10,.cls-12{stroke:#fff;}.cls-11,.cls-12{stroke-linecap:round;}.cls-14{clip-path:url(#clip-path);}.cls-15{opacity:0.2;}</style><clipPath><path class="cls-1" d="M64.61,235.45l212.06-108q9.91,2.76,19.62,6.44l24.57,9.35A11.66,11.66,0,0,1,322,164.49l-24.7,12.58a32.86,32.86,0,0,0-58.55,29.83l-79,40.28a32.85,32.85,0,0,0-58.63,29.66,24.87,24.87,0,0,1-30.67-12.07l-9.36-18.36A8.16,8.16,0,0,1,64.61,235.45Z"/></clipPath></defs><title>Assets</title><path class="cls-2" d="M107.84,157.16l68.07-34.69a227.4,227.4,0,0,1,81.76.49l6.61,70.94L137,258.76,71.2,219.45A67.19,67.19,0,0,1,107.84,157.16Z"/><path class="cls-3" d="M296.45,132.82l25.11,10c9.9,3.76,9.81,17.91.38,22.72l-60.47,30.81-7.54-75.13A261.41,261.41,0,0,1,296.45,132.82Z"/><path class="cls-4" d="M102.49,217.33l-9.85-6.46a11.1,11.1,0,0,0-11.11-.61l-11.92,6.07,7.59,14.9S101.28,217.94,102.49,217.33Z"/><path class="cls-5" d="M72,220.2l-9.82-5.86c3.51-28.27,20.83-55.56,48.13-69.47l3.07-1.57a230.12,230.12,0,0,1,64.15-21.11L108.92,156.7C85.35,168.71,71.05,194.42,72,220.2Z"/><path class="cls-3" d="M71.2,219.45,137,258.76l-33.13,16.88a24.87,24.87,0,0,1-33.45-10.87h0a88.39,88.39,0,0,1-9-51.18l9.81,5.86"/><rect class="cls-3" x="229.41" y="135.46" width="5.72" height="34.14" rx="1.94" ry="1.94" transform="translate(477.37 283.47) rotate(174.82)"/><path class="cls-4" d="M191,191.14l4.4-2.94a4.38,4.38,0,0,0,.72-6.69l-20.57-21.3a4.39,4.39,0,0,0-5.58-.6h0a4.39,4.39,0,0,0-1.22,6.08l16.17,24.23A4.38,4.38,0,0,0,191,191.14Z"/><rect class="cls-4" x="160.91" y="146.91" width="8.58" height="12.87" rx="2.91" ry="2.91" transform="matrix(-0.83, 0.55, -0.55, -0.83, 387.73, 189.22)"/><rect class="cls-6" x="119.48" y="200.79" width="18.76" height="7.61" transform="translate(188.19 438.99) rotate(-162)"/><polyline class="cls-6" points="102.36 193.35 109.95 203.11 119.47 198.26 113.51 193.21"/><line class="cls-6" x1="107.22" y1="199.55" x2="115.97" y2="195.22"/><path class="cls-6" d="M110.48,186.12a2.47,2.47,0,0,1-1.59-1.2c-.55-.87-.72-1.75-.38-2l.55-.34,2,3.2S110.58,186.14,110.48,186.12Z"/><ellipse class="cls-6" cx="110.06" cy="184.19" rx="0.72" ry="1.86" transform="translate(-80.8 86.15) rotate(-31.95)"/><path class="cls-6" d="M110.41,195.31l1.69-.86a4.29,4.29,0,0,0,1-6.9l-4.46-4.34a5.56,5.56,0,0,0-6.4-1h0a5.56,5.56,0,0,0-2,8.2l2.08,2.9A6.34,6.34,0,0,0,110.41,195.31Z"/><line class="cls-6" x1="109.43" y1="183.95" x2="102.05" y2="187.71"/><path class="cls-6" d="M102.21,193.18a66.54,66.54,0,0,1-4.28-5.72c-1.05-1.81.3-2.24.3-2.24a2.36,2.36,0,0,1,.7-3c1.6-1.47,4.82-1.81,4.82-1.81s-.43-2.38,1.86-1.2a3.72,3.72,0,0,1,2.26,3.15c-.56,2.24-4.15,1.59-4.15,1.59s.41,1.07-.17,1.46l.06.12a1.44,1.44,0,0,1-1.71,2l-.38-.12Z"/><path class="cls-6" d="M96.85,184.82s.67-.47,1.38.4a1.25,1.25,0,0,0-1-.07"/><path class="cls-6" d="M100,190.2a3.5,3.5,0,0,0,.37,1.11c.32.45.57.23.57.23a.59.59,0,0,0,.19.62,4.07,4.07,0,0,0,.81.44"/><path class="cls-6" d="M109.28,184.06l2.87,1.37a.31.31,0,0,1,0,.56l-.72.36"/><path class="cls-6" d="M109.38,186.87a2.4,2.4,0,0,1-1.59-1.2c-.55-.87-.72-1.74-.38-1.95l.55-.35,2,3.2S109.48,186.9,109.38,186.87Z"/><ellipse class="cls-6" cx="108.96" cy="184.94" rx="0.72" ry="1.86" transform="translate(-81.36 85.68) rotate(-31.95)"/><path class="cls-6" d="M103,187.72a1.57,1.57,0,0,0-2.2-.23l-.21.18a1.56,1.56,0,0,0-.23,2.2l1.17,1.44a1.57,1.57,0,0,0,2.2.23l.22-.18a1.57,1.57,0,0,0,.56-1"/><path class="cls-6" d="M100.85,188.2a1.74,1.74,0,0,1,2.26.61"/><path class="cls-6" d="M117.83,197.54s2.8-.26,9.21,2.73a36.69,36.69,0,0,1,6.07,3.47l-3.61,1.93-10.93-7.82Z"/><path class="cls-6" d="M102.44,188.27a.88.88,0,0,0-.26,1.3"/><rect class="cls-6" x="104.17" y="190.75" width="6.84" height="7.21" transform="translate(312.3 280.65) rotate(141.82)"/><path class="cls-6" d="M119.43,197.81l-.83-1.8a.83.83,0,0,0-.48-.43l-1.94-.44c-.27-.06-.43.18-.32.5l.59,1.83a.75.75,0,0,0,.52.52l2.19.42C119.45,198.46,119.59,198.16,119.43,197.81Z"/><path class="cls-6" d="M144.55,214.94l-19,9.7L107.63,201s1.8-3.56,7.18-3,8.21,1.29,11.6,2.79C132.35,203.46,144.55,214.94,144.55,214.94Z"/><path class="cls-6" d="M111.86,187a1.79,1.79,0,0,1-2.1.67"/><path class="cls-4" d="M120.52,227.05l4.4-2.94a4.38,4.38,0,0,0,.72-6.69l-20.57-21.29a4.38,4.38,0,0,0-5.58-.6h0a4.37,4.37,0,0,0-1.22,6.07l16.17,24.24A4.39,4.39,0,0,0,120.52,227.05Z"/><rect class="cls-4" x="90.42" y="182.82" width="8.58" height="12.87" rx="2.91" ry="2.91" transform="matrix(-0.83, 0.55, -0.55, -0.83, 278.53, 294.13)"/><path class="cls-7" d="M64.61,235.45l212.06-108q9.91,2.76,19.62,6.44l24.57,9.35A11.66,11.66,0,0,1,322,164.49l-24.7,12.58a32.86,32.86,0,0,0-58.55,29.83l-79,40.28a32.85,32.85,0,0,0-58.63,29.66,24.87,24.87,0,0,1-30.67-12.07l-9.36-18.36A8.16,8.16,0,0,1,64.61,235.45Z"/><circle class="cls-6" cx="267.71" cy="191.35" r="27.88"/><path class="cls-8" d="M317.87,145.26l2.45-1.25-24.57-9.35,2.78,4.85A14.64,14.64,0,0,0,317.87,145.26Z"/><circle class="cls-6" cx="130.11" cy="261.46" r="27.88"/><circle class="cls-9" cx="267.71" cy="191.35" r="23.33"/><circle class="cls-9" cx="130.15" cy="261.44" r="23.33"/><line class="cls-10" x1="167.24" y1="181.46" x2="199.87" y2="226.62"/><line class="cls-11" x1="138.43" y1="142.2" x2="167.93" y2="182.34"/><line class="cls-12" x1="319.15" y1="144.07" x2="284.89" y2="161.53"/><line class="cls-12" x1="94.04" y1="258.77" x2="73.42" y2="269.28"/><circle class="cls-13" cx="267.71" cy="191.35" r="5.59"/><rect class="cls-8" x="65.22" y="249.49" width="11.44" height="21.45" rx="3.88" ry="3.88" transform="translate(252.29 459.86) rotate(153)"/><circle class="cls-13" cx="130.15" cy="261.44" r="8.26"/><g class="cls-14"><path class="cls-15" d="M118.49,174.25,185,195.87c10,3.25-8.58,6.27,1.9,9.68l74.26,24.13-18.41,9.38-80.42-26.13c-16.4-5.33,10.61-9.4.59-12.65l-58.32-18.95Z"/></g></svg>
