<svg xmlns="http://www.w3.org/2000/svg" xmlns:xlink="http://www.w3.org/1999/xlink" width="2655px" height="777px" role="presentation"><path fill-rule="evenodd" fill="rgb(221, 238, 239)" d="M2653.997,775.993 C2347.133,226.614 1866.487,0.001 1326.193,0.001 C786.837,0.001 306.923,225.386 -0.011,773.132 C118.785,773.146 2533.808,772.683 2653.997,775.993 Z"/><path fill-rule="evenodd" fill="rgb(92, 102, 111)" d="M659.000,187.001 C661.761,187.001 664.000,189.239 664.000,192.001 C664.000,194.762 661.761,197.000 659.000,197.000 C656.239,197.000 654.000,194.762 654.000,192.001 C654.000,189.239 656.239,187.001 659.000,187.001 Z"/><path fill-rule="evenodd" fill="rgb(92, 102, 111)" d="M968.000,77.000 C970.761,77.000 973.000,79.240 973.000,82.000 C973.000,84.762 970.761,87.001 968.000,87.001 C965.239,87.001 963.000,84.762 963.000,82.000 C963.000,79.240 965.239,77.000 968.000,77.000 Z"/><path fill-rule="evenodd" fill="rgb(92, 102, 111)" d="M1328.000,34.001 C1330.761,34.001 1333.000,36.239 1333.000,39.001 C1333.000,41.762 1330.761,44.000 1328.000,44.000 C1325.239,44.000 1323.000,41.762 1323.000,39.001 C1323.000,36.239 1325.239,34.001 1328.000,34.001 Z"/><path fill-rule="evenodd" fill="rgb(92, 102, 111)" d="M1687.000,76.001 C1689.761,76.001 1692.000,78.239 1692.000,81.001 C1692.000,83.762 1689.761,86.001 1687.000,86.001 C1684.239,86.001 1682.000,83.762 1682.000,81.001 C1682.000,78.239 1684.239,76.001 1687.000,76.001 Z"/><path fill-rule="evenodd" fill="rgb(92, 102, 111)" d="M1987.000,185.000 C1989.761,185.000 1992.000,187.240 1992.000,190.000 C1992.000,192.762 1989.761,195.001 1987.000,195.001 C1984.239,195.001 1982.000,192.762 1982.000,190.000 C1982.000,187.240 1984.239,185.000 1987.000,185.000 Z"/><path fill-rule="evenodd" stroke="rgb(92, 102, 111)" stroke-width="2px" stroke-dasharray="0, 8" stroke-linecap="round" stroke-linejoin="miter" fill="none" d="M2571.341,678.933 C2274.406,295.124 1851.312,39.001 1328.500,39.001 C806.596,39.001 362.211,294.267 65.208,676.934 "/></svg>