<svg data-name="Layer 1" xmlns="http://www.w3.org/2000/svg" viewBox="0 0 392 392" role="presentation"><defs><style>.cls-1,.cls-8{fill:none;}.cls-1,.cls-2,.cls-3,.cls-4,.cls-5,.cls-7{stroke:#5c6670;stroke-linejoin:round;}.cls-1{stroke-linecap:round;stroke-width:4px;}.cls-2{fill:#c7d4e2;}.cls-2,.cls-3,.cls-4,.cls-5,.cls-7,.cls-8{stroke-width:2px;}.cls-3{fill:#ddae9f;}.cls-4{fill:#e2c6bf;}.cls-5{fill:#78cdd1;}.cls-6{fill:#5c6670;}.cls-7{fill:#f0f0f0;}.cls-8{stroke:#c5d2df;stroke-miterlimit:10;}.cls-9{fill:#d1e42d;}.cls-10{fill:#fff;}</style></defs><title>Assets</title><polyline class="cls-1" points="214.58 217.84 207.37 252.31 185.16 260.91"/><circle class="cls-2" cx="207.31" cy="251.51" r="2.26"/><rect class="cls-3" x="134.31" y="218.47" width="67.38" height="55.07" transform="translate(199.67 -50.2) rotate(40.43)"/><rect class="cls-4" x="147.56" y="242.73" width="55.07" height="18.63" transform="translate(-130.32 221.86) rotate(-49.57)"/><path class="cls-5" d="M215,169.7h0a15,15,0,0,1,15,15v15a0,0,0,0,1,0,0H200a0,0,0,0,1,0,0v-15A15,15,0,0,1,215,169.7Z" transform="translate(114.99 -80.49) rotate(28.67)"/><path class="cls-6" d="M171.74,134.34h0a2.83,2.83,0,0,1,2.83,2.83v16.42a0,0,0,0,1,0,0h-5.66a0,0,0,0,1,0,0V137.17A2.83,2.83,0,0,1,171.74,134.34Z" transform="translate(90.14 -64.75) rotate(28.67)"/><path class="cls-6" d="M269.56,189.13h0a2.83,2.83,0,0,1,2.83,2.83v16.42a0,0,0,0,1,0,0h-5.66a0,0,0,0,1,0,0V192A2.83,2.83,0,0,1,269.56,189.13Z" transform="translate(128.42 -104.97) rotate(28.67)"/><rect class="cls-7" x="158.85" y="150.35" width="16.99" height="5.66" rx="2.83" ry="2.83" transform="translate(94.02 -61.51) rotate(28.67)"/><rect class="cls-7" x="257.22" y="204.14" width="16.99" height="5.66" rx="2.83" ry="2.83" transform="translate(131.89 -102.11) rotate(28.67)"/><path class="cls-5" d="M147,179.3H270a4.77,4.77,0,0,1,4.77,4.77v0a28.5,28.5,0,0,1-28.5,28.5h-75.5a28.5,28.5,0,0,1-28.5-28.5v0A4.77,4.77,0,0,1,147,179.3Z" transform="matrix(0.88, 0.48, -0.48, 0.88, 119.58, -76.01)"/><circle class="cls-6" cx="178.7" cy="131.63" r="2.34"/><circle class="cls-6" cx="276.36" cy="186.33" r="2.34"/><line class="cls-8" x1="179.72" y1="136.06" x2="203.56" y2="149.11"/><line class="cls-8" x1="149.58" y1="119.58" x2="173.42" y2="132.62"/><rect class="cls-6" x="193.57" y="188.12" width="63.42" height="33.97" rx="16.99" ry="16.99" transform="translate(126.04 -82.94) rotate(28.67)"/><line class="cls-8" x1="278.04" y1="191.12" x2="301.88" y2="204.17"/><line class="cls-8" x1="247.9" y1="174.64" x2="271.74" y2="187.68"/><circle class="cls-9" cx="225.77" cy="205.38" r="12.46"/><circle class="cls-10" cx="208.6" cy="196" r="3.71"/><circle class="cls-10" cx="242.44" cy="214.5" r="3.71"/><line class="cls-8" x1="168.64" y1="124.85" x2="162.68" y2="121.58"/><line class="cls-8" x1="188.14" y1="145.83" x2="182.18" y2="142.57"/><line class="cls-8" x1="268.45" y1="180.72" x2="262.49" y2="177.46"/><line class="cls-8" x1="287.95" y1="201.71" x2="281.99" y2="198.45"/><polyline class="cls-1" points="188 204 160.45 206.43 155.48 229.72"/><circle class="cls-2" cx="161.25" cy="206.37" r="2.26"/></svg>
