<svg data-name="Layer 1" xmlns="http://www.w3.org/2000/svg" viewBox="0 0 392 392" role="presentation"><defs><style>.cls-1,.cls-2{fill:#5c666f;}.cls-2,.cls-3,.cls-4,.cls-5,.cls-6{fill-rule:evenodd;}.cls-3{fill:#c4d438;}.cls-4{fill:#fff;}.cls-5{fill:#78cdd1;}.cls-6{fill:none;stroke:#fff;stroke-linecap:round;stroke-width:4px;}</style></defs><title>Assets</title><path class="cls-1" d="M135.77,129.32a5.42,5.42,0,0,1,4.84,2.93l1,1.89a5.42,5.42,0,0,1-2.33,7.29L102,160.67a5.29,5.29,0,0,1-2.46.6,5.4,5.4,0,0,1-4.84-2.93l-1-1.88a5.44,5.44,0,0,1,2.33-7.3l37.3-19.24a5.42,5.42,0,0,1,2.46-.6m0-2a7.41,7.41,0,0,0-3.37.82L95.09,147.38a7.44,7.44,0,0,0-3.19,10l1,1.89a7.46,7.46,0,0,0,6.62,4,7.28,7.28,0,0,0,3.37-.82l37.31-19.24a7.44,7.44,0,0,0,3.19-10l-1-1.88a7.45,7.45,0,0,0-6.62-4Z"/><g data-name="Shape 1449"><path class="cls-2" d="M95.89,146.12c-1.24-5-4.1-30.3,6.22-38.07a22.52,22.52,0,0,1,14-4.84c6.55,0,13.06,2.7,18.26,5.32l-.44.7c-2,3.1-2.95,15.79-3.15,18.94C118.71,134.65,100,144.52,95.89,146.12Z"/><path class="cls-1" d="M116.1,104.21c6,0,11.91,2.32,16.83,4.72-1.92,3.46-2.84,14.49-3.12,18.62-11.09,6-27.68,14.69-33.16,17.16a78,78,0,0,1-1.07-15.09c.19-7.17,1.59-16.6,7.13-20.77a21.6,21.6,0,0,1,13.39-4.64m0-2a23.6,23.6,0,0,0-14.59,5c-12.16,9.16-7,39.29-6.27,40.05,0,0,0,0,.08,0,2,0,36.41-18.54,36.41-18.54s1-15.8,3-19c0,0,14.21,8,16,10.56,0,0-3.26-6.08-14.42-11.91-6.51-3.41-13.36-6.21-20.23-6.21Z"/></g><g data-name="Shape 1449 copy"><path class="cls-3" d="M153,120.7c-14.69-14-28.63-17-37.78-17a43.79,43.79,0,0,0-8.44.82c11-8.4,28.65-19.08,39.21-21.09a21.34,21.34,0,0,1,4-.37c15.06,0,34.58,13.65,39.25,17.09A175.68,175.68,0,0,1,153,120.7Z"/><path class="cls-1" d="M150,84.06c13.79,0,31.54,11.78,37.57,16.09a176.91,176.91,0,0,1-34.36,19.37c-14.75-13.88-28.76-16.83-38-16.83a44,44,0,0,0-4.58.23c10.87-7.78,26.25-16.75,35.54-18.52a20.18,20.18,0,0,1,3.82-.34m0-2a22.14,22.14,0,0,0-4.19.37c-12.21,2.34-33.29,15.87-43.36,24.24a41.42,41.42,0,0,1,12.77-2c10,0,23.41,3.44,37.56,17.19a170.73,170.73,0,0,0,38.13-21.76S167.66,82.06,150,82.06Z"/></g><g data-name="Shape 1451"><path class="cls-2" d="M221.75,312.15c-17.5,0-31.39-11.64-41.53-20.14-1.4-1.18-2.73-2.29-4-3.29-3.33-2.69-5-5.5-5-8.34,0-5.7,6.71-11.07,11.15-14.62l.62-.5c3.9-3.13,8.49-6.47,13.6-6.47,3.59,0,7.1,1.62,10.72,4.95,15.35,14.09,36.38,20.41,40.11,21.45a11.17,11.17,0,0,0,1.09,1.58c1.78,2.32,4.76,6.21,3.54,10.62s-6.24,8.29-14.95,11.73a41.75,41.75,0,0,1-15.36,3Z"/><path class="cls-1" d="M196.6,259.79c3.33,0,6.61,1.53,10.05,4.68,15.24,14,35.41,20.25,40.12,21.58.26.41.59.85,1,1.32,1.67,2.18,4.45,5.82,3.36,9.75s-6.06,7.79-14.35,11.07a40.78,40.78,0,0,1-15,3c-17.13,0-30.86-11.51-40.89-19.91-1.4-1.18-2.73-2.29-4-3.3-3.09-2.49-4.65-5-4.65-7.56,0-5.22,6.49-10.41,10.78-13.84l.61-.5c3.77-3,8.19-6.25,13-6.25m0-2c-5.29,0-10,3.27-14.23,6.69-6.88,5.53-19.33,14.89-6.75,25,10.12,8.15,25.78,23.65,46.13,23.65a42.37,42.37,0,0,0,15.72-3.1c28.1-11.1,10.2-24.23,10.78-25.67,0,0-23.42-5.93-40.25-21.38-4.11-3.78-7.89-5.21-11.4-5.21Z"/></g><g data-name="Ellipse 5"><path class="cls-4" d="M204.26,281.16c-.49-.61-2.14-.11-3.67,1.14s-2.38,2.75-1.88,3.36,2.14.11,3.67-1.14S204.76,281.78,204.26,281.16Z"/></g><g data-name="Ellipse 5 copy 2"><path class="cls-4" d="M215.68,288.48c-.5-.61-2.14-.1-3.68,1.14s-2.37,2.75-1.88,3.36,2.14.11,3.68-1.13S216.17,289.1,215.68,288.48Z"/></g><g data-name="Ellipse 5 copy 3"><path class="cls-4" d="M227.3,293.79c-.49-.61-2.14-.1-3.67,1.14s-2.38,2.75-1.88,3.36,2.14.11,3.67-1.13S227.8,294.41,227.3,293.79Z"/></g><g data-name="Ellipse 5 copy 4"><path class="cls-4" d="M194.15,274.3c-.49-.61-2.14-.1-3.67,1.14s-2.38,2.75-1.88,3.36,2.14.11,3.67-1.14S194.65,274.92,194.15,274.3Z"/></g><g data-name="Shape 1450"><path class="cls-3" d="M239.88,308.07c7.54-11.58,8.13-30.61,1.84-58-4.52-19.64-18.85-46.67-21.55-51.67l36.6-24.36c2.77,4.7,15.43,26.46,18.74,36.59,7.24,22.09,9.94,39.45,7.81,50.21C280.83,273.42,268.89,297,239.88,308.07Z"/><path class="cls-1" d="M256.44,175.5c3.57,6.09,15,26,18.12,35.48,9.08,27.7,9.24,42.32,7.78,49.7-1.67,8.44-6.4,17.75-13,25.55a72.53,72.53,0,0,1-27.16,19.82c3.13-6,4.75-13.61,4.85-22.75s-1.33-20.2-4.37-33.42c-4.41-19.13-17.63-44.45-21.22-51.11l35-23.27m.65-2.84-38.24,25.46s16.9,30.49,21.9,52.21,7.74,46.22-3.63,59.79c30.24-10.21,44.14-33.73,47.18-49.05s-4-39.14-7.84-50.72-19.37-37.69-19.37-37.69Z"/></g><g data-name="Rounded Rectangle 1341 copy"><path class="cls-2" d="M204.31,206.13c-5.18,0-9.92-3.24-12.31-6.46-.44-.59-6.2-7.41-15.56-18.49-12.39-14.64-27.8-32.87-29.55-35.18-3.5-4.62-8-16.31.38-23,5.48-4.37,46.1-27.77,49.57-29.17a15.08,15.08,0,0,1,5.54-1c4.17,0,8.06,1.49,9.92,3.8l52,59.21c2.45,3.19,3.51,6.23,3.1,9s-2.24,5.29-5.47,7.62c-6.81,4.89-43.93,28.67-52.34,32.53a12.59,12.59,0,0,1-5.27,1.16Z"/><path class="cls-1" d="M202.38,93.83c3.82,0,7.49,1.37,9.15,3.43l0,0,0,0,51.91,59.13c2.3,3,3.28,5.77,2.91,8.23s-2.06,4.78-5.07,6.95c-6.78,4.88-43.79,28.59-52.16,32.43a11.65,11.65,0,0,1-4.86,1.07c-4.84,0-9.26-3-11.51-6.06-.46-.61-6-7.11-15.61-18.54-12.37-14.63-27.77-32.85-29.5-35.13-2.14-2.83-8.38-14.77.2-21.61,5.45-4.34,45.87-27.63,49.33-29a13.82,13.82,0,0,1,5.16-.94m0-2a16,16,0,0,0-5.91,1.08c-3.8,1.53-44.45,25-49.83,29.32-9.22,7.35-3.95,19.89-.55,24.37,2.95,3.89,44,52.17,45.11,53.67,2.57,3.45,7.54,6.86,13.11,6.86a13.54,13.54,0,0,0,5.69-1.25c8.65-4,46.06-28,52.5-32.63,5.73-4.12,8.75-10,2.54-18.07L213.08,96c-2.1-2.6-6.36-4.17-10.7-4.17Z"/></g><g data-name="Rounded Rectangle 1341"><path class="cls-5" d="M204.6,197.41c-1.8,0-4.15-.54-5.37-2l-2.45-3.06c-29.41-36.58-44.78-55.77-45.7-57s-4-6.36,1.11-10.73c3.33-2.86,45.65-27.36,49.31-29.18a10.45,10.45,0,0,1,4.59-1.06,8.93,8.93,0,0,1,7.06,3.18c.73.92,7.23,8.38,15.46,17.82,13.43,15.41,31.81,36.51,34,39.39a6.67,6.67,0,0,1,1.34,5.11,5.13,5.13,0,0,1-2.17,3.51c-4.16,2.79-51.4,32.18-54.89,33.74a6.2,6.2,0,0,1-2.32.37Z"/><path class="cls-1" d="M206.09,95.29a7.92,7.92,0,0,1,6.28,2.81c.75.93,7.26,8.41,15.51,17.88,13.41,15.38,31.77,36.45,34,39.31a5.6,5.6,0,0,1,1.15,4.33,4.16,4.16,0,0,1-1.73,2.85c-4.16,2.78-51.29,32.1-54.75,33.65a5,5,0,0,1-1.91.29c-1.57,0-3.59-.44-4.59-1.68l-2.5-3.11c-36.58-45.51-45-56.08-45.62-56.94-1.15-1.59-3.36-5.68,1-9.4,3.3-2.84,45.45-27.22,49.1-29a9.29,9.29,0,0,1,4.14-1m0-2a11.49,11.49,0,0,0-5,1.16c-3.65,1.81-46,26.28-49.52,29.32-4.47,3.85-3.79,8.61-1.27,12.08,1.6,2.21,47,58.68,48.18,60.13,1.43,1.78,4,2.43,6.15,2.43a7.11,7.11,0,0,0,2.73-.46c3.79-1.7,51.65-31.55,55-33.81,3-2,3.68-6.66,1.06-10.07-3.56-4.63-47.57-54.81-49.5-57.22a9.92,9.92,0,0,0-7.84-3.56Z"/></g><path class="cls-1" d="M225.24,109.45h7.53a2.35,2.35,0,0,1,2.35,2.35v2.73a.35.35,0,0,1-.35.35H222.9a0,0,0,0,1,0,0V111.8A2.35,2.35,0,0,1,225.24,109.45Z" transform="translate(164.32 -134.5) rotate(49.21)"/><path class="cls-6" d="M198.79,130a17.82,17.82,0,1,1-4.88,24.74"/></svg>
