<svg data-name="Layer 1" xmlns="http://www.w3.org/2000/svg" xmlns:xlink="http://www.w3.org/1999/xlink" viewBox="0 0 392 392" role="presentation"><defs><style>.cls-1,.cls-26,.cls-29{fill:none;}.cls-2{fill:#f4f4f4;}.cls-3{isolation:isolate;}.cls-4{fill:#eaeaea;}.cls-5{clip-path:url(#clip-path);}.cls-6{fill:#eceef2;}.cls-7{clip-path:url(#clip-path-2);}.cls-8{fill:#e4e4e4;}.cls-9{clip-path:url(#clip-path-3);}.cls-10{clip-path:url(#clip-path-4);}.cls-11{fill:#e5e5e5;}.cls-12{fill:#e6e6e6;}.cls-13{fill:#e7e7e7;}.cls-14{fill:#e8e8e8;}.cls-15{fill:#e9e9e9;}.cls-16{fill:#ebebeb;}.cls-17{fill:#ececec;}.cls-18{fill:#ededed;}.cls-19{fill:#eee;}.cls-20{fill:#efefef;}.cls-21{clip-path:url(#clip-path-5);}.cls-22{clip-path:url(#clip-path-6);}.cls-23{clip-path:url(#clip-path-7);}.cls-24,.cls-27{fill:#78cdd1;}.cls-25{fill:#c4d438;}.cls-26,.cls-27,.cls-29{stroke:#5c666f;stroke-miterlimit:10;stroke-width:2px;}.cls-28{fill:#5c666f;}.cls-29{stroke-linecap:round;}</style><clipPath><ellipse class="cls-1" cx="223.86" cy="252.1" rx="10.37" ry="37.32" transform="translate(-28.66 475.49) rotate(-89.89)"/></clipPath><clipPath><path class="cls-1" d="M261.19,252.16c0-1.53-1.23-3.09-3.82-4.57l.19-101.4c2.59,1.47,3.82,3,3.82,4.57C261.32,181.18,261.25,221.74,261.19,252.16Z"/></clipPath><clipPath><path class="cls-1" d="M257.37,247.59c2.59,1.48,3.82,3,3.82,4.57l.19-101.4c0-1.54-1.23-3.1-3.82-4.57l-.19,101.4"/></clipPath><clipPath><path class="cls-1" d="M186.72,150.63c0-3.83,7.68-7.49,20.89-9.27,18.51-2.49,40.87-.33,49.95,4.83l-.19,101.4c-9.08-5.15-31.44-7.31-49.94-4.82-13.22,1.77-20.9,5.44-20.9,9.27C186.58,221.62,186.66,181.05,186.72,150.63Z"/></clipPath><clipPath><path class="cls-1" d="M186.53,252c0-3.83,7.68-7.5,20.9-9.27,18.5-2.49,40.86-.33,49.94,4.82l.19-101.4c-9.08-5.16-31.44-7.32-49.95-4.83-13.21,1.78-20.89,5.44-20.89,9.27L186.53,252"/></clipPath><clipPath><path class="cls-1" d="M186.53,252l.19-101.41c0,1.54,1.22,3.1,3.82,4.57,9.07,5.16,31.43,7.32,49.94,4.83,13.21-1.78,20.89-5.45,20.9-9.27l-.19,101.4c0,3.83-7.69,7.5-20.9,9.28-18.51,2.49-40.87.32-49.94-4.83C187.75,255.13,186.52,253.57,186.53,252Z"/></clipPath><clipPath><path class="cls-1" d="M261.19,252.16c0,3.83-7.69,7.5-20.9,9.28-18.51,2.49-40.87.32-49.94-4.83-2.6-1.48-3.83-3-3.82-4.57l.19-101.41c0,1.54,1.22,3.1,3.82,4.57,9.07,5.16,31.43,7.32,49.94,4.83,13.21-1.78,20.89-5.45,20.9-9.27l-.19,101.4"/></clipPath></defs><title>Assets</title><path class="cls-2" d="M262.34,269.26c0,5.48-16.64,14.52-37.42,14.52s-36.09-5.34-38.93-15.84l.65-16.4s11.05,9.84,38.12,9.84,37.58-9.19,37.58-9.19Z"/><g class="cls-3"><ellipse class="cls-4" cx="223.86" cy="252.1" rx="10.37" ry="37.32" transform="translate(-28.66 475.49) rotate(-89.89)"/><g class="cls-3"><g class="cls-5"><path class="cls-6" d="M223.42,251.85c-.5.07-.71.23-.47.37a2.63,2.63,0,0,0,1.35.13c.5-.06.7-.23.46-.37a2.59,2.59,0,0,0-1.34-.13m7.13.9-9,1.21-4.4-2.51,9-1.2,4.4,2.5"/><path d="M224.3,252.35a2.63,2.63,0,0,1-1.35-.13c-.24-.14,0-.3.47-.37a2.59,2.59,0,0,1,1.34.13c.24.14,0,.31-.46.37"/></g></g><g class="cls-3"><g class="cls-7"><g class="cls-3"><path class="cls-8" d="M261.19,252.16l.19-101.4c0-1.54-1.23-3.1-3.82-4.57l-.19,101.4c2.59,1.48,3.82,3,3.82,4.57"/></g><g class="cls-9"><path class="cls-2" d="M257.55,150.56a1.3,1.3,0,0,0,.41.79c.44.22.52-.79.3-1.45-.17-.5-.47-.66-.65-.32,0,.06-.05.14-.06.16v.82m0,4.39,0-8.76a12.6,12.6,0,0,1,2.24,1.58l0,8.77a11.78,11.78,0,0,0-2.24-1.59"/><path d="M257.55,150.56c.14.68.5,1,.71.7a1.86,1.86,0,0,0-.3-1.83c-.25-.12-.36.15-.41.31v.82"/><path class="cls-2" d="M257.53,160.17a1.38,1.38,0,0,0,.41.79c.44.22.53-.8.3-1.45s-.47-.66-.65-.33c0,.07,0,.14-.06.17v.82m0,4.39,0-9.61a11.78,11.78,0,0,1,2.24,1.59l0,9.6a12.24,12.24,0,0,0-2.24-1.58"/><path d="M257.53,160.17c.14.68.5,1,.71.7a1.83,1.83,0,0,0-.3-1.83c-.25-.12-.36.14-.41.31v.82"/><path class="cls-2" d="M257.51,169.77a1.41,1.41,0,0,0,.41.8c.44.21.53-.8.3-1.45s-.47-.67-.64-.33a.43.43,0,0,0-.06.17v.81m0,4.39v-9.6a12.24,12.24,0,0,1,2.24,1.58v9.61a12.46,12.46,0,0,0-2.24-1.59"/><path d="M257.51,169.77c.14.68.51,1,.71.7a1.82,1.82,0,0,0-.3-1.82c-.24-.13-.36.14-.4.31v.81"/><path class="cls-2" d="M257.5,179.38a1.31,1.31,0,0,0,.4.79c.44.22.53-.8.31-1.45s-.47-.66-.65-.32a.54.54,0,0,0-.06.16v.82m0,4.4,0-9.62a12.46,12.46,0,0,1,2.24,1.59l0,9.61a12.6,12.6,0,0,0-2.24-1.58"/><path d="M257.5,179.38c.13.68.5,1,.7.7a1.83,1.83,0,0,0-.29-1.83c-.25-.12-.37.15-.41.31v.82"/><path class="cls-2" d="M257.48,189a1.39,1.39,0,0,0,.4.79c.45.21.53-.8.31-1.45s-.47-.67-.65-.33c0,.07-.05.14-.06.17V189m0,4.39,0-9.6a12.6,12.6,0,0,1,2.24,1.58l0,9.61a12.11,12.11,0,0,0-2.24-1.59"/><path d="M257.48,189c.14.67.5,1,.71.69a1.84,1.84,0,0,0-.3-1.82c-.25-.12-.36.14-.41.31V189"/><path class="cls-2" d="M257.46,198.59a1.27,1.27,0,0,0,.41.79c.44.22.52-.79.3-1.45s-.47-.66-.65-.32c0,.07,0,.14-.06.17v.81m0,4.4,0-9.61a12.11,12.11,0,0,1,2.24,1.59l0,9.61a11.78,11.78,0,0,0-2.24-1.59"/><path d="M257.46,198.59c.14.68.5,1,.71.7a1.84,1.84,0,0,0-.3-1.83c-.25-.12-.36.15-.41.32v.81"/><path class="cls-2" d="M257.44,208.2a1.32,1.32,0,0,0,.41.79c.44.22.52-.8.3-1.45s-.47-.67-.64-.33a.87.87,0,0,0-.07.17v.82m0,4.4,0-9.61a11.78,11.78,0,0,1,2.24,1.59l0,9.6a12.24,12.24,0,0,0-2.24-1.58"/><path d="M257.44,208.2c.14.67.5,1,.71.7a1.81,1.81,0,0,0-.3-1.83c-.25-.12-.36.14-.41.31v.82"/><path class="cls-2" d="M257.42,217.81a1.38,1.38,0,0,0,.41.79c.44.22.53-.8.31-1.46-.18-.51-.48-.66-.65-.32a.43.43,0,0,0-.06.17v.82m0,4.39v-9.6a12.24,12.24,0,0,1,2.24,1.58v9.61a12.11,12.11,0,0,0-2.24-1.59"/><path d="M257.42,217.81c.14.68.51,1,.71.7a1.85,1.85,0,0,0-.3-1.84c-.24-.12-.36.15-.4.32v.82"/><path class="cls-2" d="M257.41,227.42a1.31,1.31,0,0,0,.4.79c.44.22.53-.81.31-1.46s-.47-.67-.65-.32a1.2,1.2,0,0,0-.06.17v.82m0,4.39,0-9.61a12.11,12.11,0,0,1,2.24,1.59l0,9.6a12.6,12.6,0,0,0-2.24-1.58"/><path d="M257.41,227.42c.14.67.5,1,.71.69a1.86,1.86,0,0,0-.3-1.83c-.25-.12-.37.15-.41.32v.82"/><path class="cls-2" d="M257.39,237a1.32,1.32,0,0,0,.41.79c.44.22.52-.8.3-1.45s-.48-.66-.65-.32c0,.06-.05.14-.06.16V237m0,4.39,0-9.6a12.6,12.6,0,0,1,2.24,1.58l0,9.61a11.56,11.56,0,0,0-2.24-1.59"/><path d="M257.39,237c.14.68.5,1,.71.7a1.86,1.86,0,0,0-.3-1.83c-.25-.12-.36.14-.41.31V237"/><path class="cls-2" d="M257.37,246.63a1.38,1.38,0,0,0,.41.79c.44.22.53-.8.3-1.45s-.47-.66-.65-.33c0,.07-.05.14-.06.17v.82m0,1v-6.18a10.65,10.65,0,0,1,2.24,1.59v6.18a12.11,12.11,0,0,0-2.24-1.59"/><path d="M257.37,246.63c.14.67.5,1,.71.69a1.84,1.84,0,0,0-.3-1.82c-.25-.12-.36.14-.41.31v.82"/><path class="cls-2" d="M260.91,154.07s.07.09.11-.09c.1-.5,0-2-.17-1.86a3.73,3.73,0,0,0,.06,1.95m-1.13,2.47,0-8.77a4.35,4.35,0,0,1,1.57,2.75l0,8.76a4.31,4.31,0,0,0-1.57-2.74"/><path d="M260.92,152.15c.17.35.19,2,0,1.95s-.29-2-.07-2c0,0,0,0,.05,0"/><path class="cls-2" d="M260.9,163.67s.06.1.1-.08c.1-.51,0-2-.16-1.87a3.63,3.63,0,0,0,.06,1.95m-1.12-7.13a4.31,4.31,0,0,1,1.57,2.74l0,9.61a4.27,4.27,0,0,0-1.57-2.75l0-9.6"/><path d="M260.9,161.75c.17.35.19,2,0,2s-.3-2-.08-2c0,0,0,0,0,0"/><path class="cls-2" d="M260.88,173.28s.06.1.1-.09c.1-.49,0-2-.16-1.86a3.53,3.53,0,0,0,.06,1.95m-1.12-7.14a4.27,4.27,0,0,1,1.57,2.75v9.61a4.35,4.35,0,0,0-1.57-2.75v-9.61"/><path d="M260.88,171.36c.17.35.19,2,0,2s-.29-2-.08-2c0,0,0,0,.05,0"/><path class="cls-2" d="M260.86,182.88s.07.1.1-.08c.11-.49,0-2-.16-1.87a3.63,3.63,0,0,0,.06,1.95m-1.11-7.13a4.35,4.35,0,0,1,1.57,2.75l0,9.61a4.35,4.35,0,0,0-1.57-2.75l0-9.61"/><path d="M260.86,181c.17.35.19,2,0,1.95s-.28-2-.07-2c0,0,0,0,0,0"/><path class="cls-2" d="M260.84,192.49s.07.1.11-.09c.1-.49,0-2-.17-1.86a3.63,3.63,0,0,0,.06,2m-1.11-7.13a4.35,4.35,0,0,1,1.57,2.75l0,9.61a4.31,4.31,0,0,0-1.57-2.75l0-9.61"/><path d="M260.85,190.57c.16.35.19,2,0,2s-.28-2-.07-2c0,0,0,0,.05,0"/><path class="cls-2" d="M260.82,202.1s.07.09.11-.09c.1-.49,0-2-.16-1.86a3.62,3.62,0,0,0,.05,1.95M259.71,195a4.31,4.31,0,0,1,1.57,2.75l0,9.6a4.29,4.29,0,0,0-1.57-2.74l0-9.61"/><path d="M260.83,200.18c.17.35.19,2,0,1.95a3.32,3.32,0,0,1-.08-2s0,0,.05,0"/><path class="cls-2" d="M260.81,211.7s.06.1.1-.08c.1-.49,0-2-.16-1.87a3.53,3.53,0,0,0,.06,1.95m-1.12-7.12a4.29,4.29,0,0,1,1.57,2.74v9.61a4.33,4.33,0,0,0-1.58-2.75l0-9.6"/><path d="M260.81,209.78c.17.36.19,2,0,2a3.36,3.36,0,0,1-.08-2s0,0,.05,0"/><path class="cls-2" d="M260.79,221.32s.07.09.1-.09c.11-.51,0-2-.16-1.87a3.57,3.57,0,0,0,.06,2m-1.12-7.14a4.33,4.33,0,0,1,1.58,2.75l0,9.6a4.33,4.33,0,0,0-1.57-2.74v-9.61"/><path d="M260.79,219.39c.17.35.19,2,0,2s-.29-2-.08-2c0,0,0,0,.05,0"/><path class="cls-2" d="M260.77,230.92s.07.1.11-.09c.1-.49,0-2-.17-1.87a3.67,3.67,0,0,0,.06,2m-1.11-7.13a4.33,4.33,0,0,1,1.57,2.74l0,9.61a4.31,4.31,0,0,0-1.57-2.75l0-9.6"/><path d="M260.77,229c.17.35.2,2,0,2s-.28-2-.07-2c0,0,0,0,0,0"/><path class="cls-2" d="M260.75,240.53s.07.09.11-.09c.1-.5,0-2-.17-1.86a3.73,3.73,0,0,0,.06,1.95m-1.11-7.14a4.31,4.31,0,0,1,1.57,2.75l0,9.6a4.29,4.29,0,0,0-1.57-2.74l0-9.61"/><path d="M260.76,238.61c.16.35.19,2,0,1.95s-.29-2-.07-2c0,0,0,0,.05,0"/><path class="cls-2" d="M260.74,250.13s.06.1.1-.09c.1-.5,0-2-.16-1.86a3.63,3.63,0,0,0,.06,1.95m-1.13-.95V243a4.29,4.29,0,0,1,1.57,2.74v6.19a4.31,4.31,0,0,0-1.57-2.75"/><path d="M260.74,248.21c.17.35.19,2,0,2s-.3-2-.08-2c0,0,0,0,.05,0"/><path class="cls-2" d="M261.35,159.28l0-8.76c0,.08,0,.16,0,.24l0,8.76a1.93,1.93,0,0,0,0-.24"/><path class="cls-2" d="M261.33,168.89l0-9.61a1.93,1.93,0,0,1,0,.24l0,9.61a1.93,1.93,0,0,0,0-.24"/><path class="cls-2" d="M261.32,178.5v-9.61a1.93,1.93,0,0,1,0,.24v9.6c0-.08,0-.16,0-.23"/><path class="cls-2" d="M261.3,188.11l0-9.61c0,.07,0,.15,0,.23l0,9.62a1.93,1.93,0,0,0,0-.24"/><path class="cls-2" d="M261.28,197.72l0-9.61a1.93,1.93,0,0,1,0,.24l0,9.6a1.69,1.69,0,0,0,0-.23"/><path class="cls-2" d="M261.26,207.32l0-9.6a1.69,1.69,0,0,1,0,.23l0,9.61v-.24"/><path class="cls-2" d="M261.25,216.93v-9.37l0,9.6v-.23"/><path class="cls-2" d="M261.23,226.53l0-9.6v9.84c0-.08,0-.16,0-.24"/><path class="cls-2" d="M261.21,236.14l0-9.61c0,.08,0,.16,0,.24l0,9.6a1.85,1.85,0,0,0,0-.23"/><path class="cls-2" d="M261.19,245.74l0-9.6a1.85,1.85,0,0,1,0,.23l0,9.61v-.24"/><path class="cls-2" d="M261.18,251.93v.23a1.69,1.69,0,0,0,0-.23"/></g></g></g><g class="cls-3"><g class="cls-10"><g class="cls-3"><path class="cls-8" d="M257.37,247.59l.19-101.4a29.49,29.49,0,0,0-5.79-2.39l-.18,101.41a30,30,0,0,1,5.78,2.38"/><path class="cls-8" d="M251.59,245.21l.18-101.41c-.88-.28-1.81-.53-2.77-.78l-.19,101.41c1,.24,1.89.5,2.78.78"/><path class="cls-11" d="M248.81,244.43,249,143c-.78-.19-1.57-.37-2.39-.55l-.19,101.41c.82.17,1.62.36,2.39.55"/><path class="cls-12" d="M246.42,243.88l.19-101.41c-.72-.15-1.46-.3-2.21-.43l-.19,101.41c.75.13,1.49.28,2.21.43"/><path class="cls-12" d="M244.21,243.45,244.4,142c-.69-.13-1.4-.25-2.12-.36l-.19,101.41c.72.11,1.43.23,2.12.36"/><path class="cls-13" d="M242.09,243.09l.19-101.41c-.68-.11-1.38-.21-2.08-.3L240,242.78l2.08.31"/><path class="cls-14" d="M240,242.78l.19-101.4c-.68-.1-1.37-.18-2.07-.26L238,242.53l2.06.25"/><path class="cls-14" d="M238,242.53l.18-101.41-2.06-.22-.19,101.41c.69.06,1.38.14,2.07.22"/><path class="cls-15" d="M235.88,242.31l.19-101.41c-.69-.07-1.39-.13-2.09-.18l-.19,101.41c.7.05,1.4.11,2.09.18"/><path class="cls-4" d="M233.79,242.13,234,140.72c-.71-.06-1.42-.11-2.14-.15L231.65,242c.72,0,1.43.09,2.14.15"/><path class="cls-4" d="M231.65,242l.19-101.41c-.73,0-1.46-.08-2.2-.12l-.19,101.41c.74,0,1.47.07,2.2.12"/><path class="cls-16" d="M229.45,241.86l.19-101.41-2.29-.08-.19,101.41,2.29.08"/><path class="cls-17" d="M227.16,241.78l.19-101.41-2.42,0-.19,101.41c.81,0,1.62,0,2.42,0"/><path class="cls-17" d="M224.74,241.74l.19-101.41c-.88,0-1.76,0-2.65,0l-.18,101.41q1.32,0,2.64,0"/><path class="cls-18" d="M222.1,241.74l.18-101.41c-1,0-2,0-3,.07l-.19,101.41c1,0,2-.06,3-.07"/><path class="cls-19" d="M219.13,241.81l.19-101.41c-1.21,0-2.41.1-3.61.17L215.52,242c1.2-.07,2.4-.13,3.61-.17"/><path class="cls-20" d="M215.52,242l.19-101.41q-2.9.18-5.73.5l-.18,101.4q2.82-.32,5.72-.49"/><path class="cls-20" d="M209.8,242.47l.18-101.4c-.79.09-1.58.18-2.37.29-1.6.21-3.11.46-4.55.72l-.19,101.41q2.16-.41,4.56-.72,1.17-.17,2.37-.3"/><path class="cls-20" d="M202.87,243.49l.19-101.41c-1.68.32-3.25.67-4.7,1l-.19,101.41c1.45-.38,3-.72,4.7-1"/><path class="cls-19" d="M198.17,244.53l.19-101.41c-.9.24-1.75.49-2.56.74l-.18,101.41c.8-.26,1.65-.5,2.55-.74"/><path class="cls-18" d="M195.62,245.27l.18-101.41c-.65.21-1.26.43-1.85.65l-.19,101.41c.59-.23,1.21-.44,1.86-.65"/><path class="cls-17" d="M193.76,245.92,194,144.51c-.52.19-1,.4-1.49.6l-.18,101.41c.46-.21,1-.41,1.48-.6"/><path class="cls-17" d="M192.28,246.52l.18-101.41c-.43.19-.84.39-1.22.58l-.19,101.41c.39-.2.79-.39,1.23-.58"/><path class="cls-16" d="M191.05,247.1l.19-101.41c-.37.19-.72.38-1,.58L190,247.67c.33-.19.67-.38,1-.57"/><path class="cls-4" d="M190,247.67l.19-101.4a8.34,8.34,0,0,0-.88.57l-.19,101.41c.27-.2.57-.39.88-.58"/><path class="cls-4" d="M189.13,248.25l.19-101.41q-.4.28-.75.57l-.19,101.41a9.2,9.2,0,0,1,.75-.57"/><path class="cls-15" d="M188.38,248.82l.19-101.41c-.23.19-.43.39-.62.58l-.19,101.41c.19-.19.4-.39.62-.58"/><path class="cls-14" d="M187.76,249.4,188,148c-.18.2-.35.4-.5.6L187.26,250c.15-.2.32-.4.5-.6"/><path class="cls-14" d="M187.26,250l.19-101.41a4.49,4.49,0,0,0-.38.62l-.18,101.4a5,5,0,0,1,.37-.61"/><path class="cls-13" d="M186.89,250.61l.18-101.4a3.86,3.86,0,0,0-.25.64l-.18,101.41a2.9,2.9,0,0,1,.25-.65"/><path class="cls-12" d="M186.64,251.26l.18-101.41a3.19,3.19,0,0,0-.1.68l-.19,101.41a2.61,2.61,0,0,1,.11-.68"/><path class="cls-12" d="M186.53,251.94l.19-101.41v.1L186.53,252v-.1"/></g><g class="cls-21"><path class="cls-2" d="M186.7,159.4l0-8.77a2.92,2.92,0,0,1,0-.51v8.77a2.21,2.21,0,0,0-.05.51"/><path class="cls-2" d="M186.68,169l0-9.6a2.21,2.21,0,0,1,.05-.51l0,9.6,0,.51"/><path class="cls-2" d="M186.66,178.61l0-9.61,0-.51,0,9.61a2.94,2.94,0,0,0-.05.51"/><path class="cls-2" d="M186.65,188.22v-9.61a2.94,2.94,0,0,1,.05-.51l0,9.61a2.92,2.92,0,0,0,0,.51"/><path class="cls-2" d="M186.63,197.83l0-9.61a2.92,2.92,0,0,1,0-.51l0,9.61a2.92,2.92,0,0,0,0,.51"/><path class="cls-2" d="M186.61,207.44l0-9.61a2.92,2.92,0,0,1,0-.51v9.61a2.76,2.76,0,0,0,0,.51"/><path class="cls-2" d="M186.59,217l0-9.6a2.76,2.76,0,0,1,0-.51l0,9.6a2.94,2.94,0,0,0,0,.51"/><path class="cls-2" d="M186.57,226.65l0-9.61a2.94,2.94,0,0,1,0-.51l0,9.61a2.94,2.94,0,0,0-.05.51"/><path class="cls-2" d="M186.56,236.25v-9.6a2.94,2.94,0,0,1,.05-.51l0,9.6a2.92,2.92,0,0,0,0,.51"/><path class="cls-2" d="M186.54,245.86l0-9.61a2.92,2.92,0,0,1,0-.51l0,9.61,0,.51"/><path class="cls-2" d="M186.53,252v-6.18l0-.51v6.18a2.92,2.92,0,0,0,0,.51"/><path class="cls-2" d="M187.32,153.7c.27-.48.23-2,0-2s-.3,2-.09,2c0,0,0,0,0,0m-.57,5.19v-8.77a4.77,4.77,0,0,1,1.76-2.66l0,8.76a4.75,4.75,0,0,0-1.75,2.67"/><path d="M187.32,151.78c.12-.14.16.22.17.34.07.7-.1,1.71-.24,1.61a4,4,0,0,1,.07-1.95"/><path class="cls-2" d="M187.3,163.3c.27-.48.23-2,0-2a3.32,3.32,0,0,0-.09,2s0,0,.05,0m-.55-4.41a4.75,4.75,0,0,1,1.75-2.67v9.61a4.75,4.75,0,0,0-1.76,2.66l0-9.6"/><path d="M187.31,161.38c.11-.14.16.23.17.34.07.71-.11,1.72-.25,1.61a3.85,3.85,0,0,1,.08-2"/><path class="cls-2" d="M187.28,172.91c.27-.48.23-2,0-2s-.3,2-.09,2c0,0,0,0,.05,0m-.55-4.42a4.75,4.75,0,0,1,1.76-2.66l0,9.6a4.77,4.77,0,0,0-1.76,2.67l0-9.61"/><path d="M187.29,171c.11-.14.16.22.17.34.07.7-.11,1.71-.24,1.61a3.84,3.84,0,0,1,.07-1.95"/><path class="cls-2" d="M187.27,182.51c.26-.47.22-2,0-1.95s-.31,2-.1,2a.07.07,0,0,0,.06,0m-.56-4.41a4.77,4.77,0,0,1,1.76-2.67l0,9.62a4.8,4.8,0,0,0-1.76,2.66l0-9.61"/><path d="M187.27,180.59c.11-.14.16.23.17.35.07.7-.11,1.71-.24,1.6a3.84,3.84,0,0,1,.07-1.95"/><path class="cls-2" d="M187.25,192.12c.26-.47.22-2,0-2s-.31,2-.09,2c0,0,0,0,.05,0m-.56-4.41a4.8,4.8,0,0,1,1.76-2.66l0,9.6a4.82,4.82,0,0,0-1.76,2.67l0-9.61"/><path d="M187.25,190.2c.12-.14.16.23.17.34.07.7-.1,1.71-.24,1.61a4,4,0,0,1,.07-2"/><path class="cls-2" d="M187.23,201.72c.27-.47.22-2,0-1.95a3.59,3.59,0,0,0-.11,2s.05,0,.07,0m-.56-4.4a4.82,4.82,0,0,1,1.76-2.67l0,9.61a4.77,4.77,0,0,0-1.75,2.67v-9.61"/><path d="M187.23,199.8c.12-.14.16.23.18.35.07.71-.11,1.71-.25,1.6a4,4,0,0,1,.07-1.95"/><path class="cls-2" d="M187.21,211.33c.27-.47.23-2,0-2a3.57,3.57,0,0,0-.11,2s.06,0,.07,0m-.55-4.4a4.77,4.77,0,0,1,1.75-2.67v9.6a4.77,4.77,0,0,0-1.76,2.67l0-9.6"/><path d="M187.22,209.41c.11-.14.16.23.17.34.07.72-.11,1.71-.25,1.61a3.85,3.85,0,0,1,.08-2"/><path class="cls-2" d="M187.19,220.94c.27-.47.23-2,0-2s-.3,2-.09,2c0,0,0,0,.05,0m-.55-4.41a4.77,4.77,0,0,1,1.76-2.67l0,9.61a4.77,4.77,0,0,0-1.76,2.67l0-9.61"/><path d="M187.2,219c.11-.14.16.22.17.34.07.71-.11,1.72-.24,1.61a3.84,3.84,0,0,1,.07-1.95"/><path class="cls-2" d="M187.18,230.55c.26-.47.22-2,0-2a3.2,3.2,0,0,0-.1,2,.07.07,0,0,0,.06,0m-.56-4.41a4.77,4.77,0,0,1,1.76-2.67l0,9.61a4.77,4.77,0,0,0-1.76,2.66l0-9.6"/><path d="M187.18,228.62c.11-.14.16.23.17.35.07.7-.11,1.71-.24,1.61a3.88,3.88,0,0,1,.07-2"/><path class="cls-2" d="M187.16,240.16c.27-.48.22-2,0-2s-.3,2-.09,2a.05.05,0,0,0,0,0m-.56-4.42a4.77,4.77,0,0,1,1.76-2.66l0,9.6a4.82,4.82,0,0,0-1.76,2.67l0-9.61"/><path d="M187.16,238.24c.12-.15.16.22.17.33.07.71-.1,1.72-.24,1.61a3.91,3.91,0,0,1,.07-1.94"/><path class="cls-2" d="M187.14,249.76c.27-.48.23-2,0-1.95a3.32,3.32,0,0,0-.09,2s0,0,0,0m-.57,1.77v-6.18a4.82,4.82,0,0,1,1.76-2.67v6.18a4.82,4.82,0,0,0-1.76,2.67"/><path d="M187.14,247.84c.12-.14.17.22.18.34.07.7-.11,1.71-.25,1.61a4,4,0,0,1,.07-1.95"/><path class="cls-2" d="M190.31,151.12c.56-.39.53-1.9.13-2s-.74,1.41-.39,1.89a.18.18,0,0,0,.26.06m-1.81,5.1,0-8.76A16.22,16.22,0,0,1,192.7,145l0,8.77a16.22,16.22,0,0,0-4.18,2.44"/><path d="M190.31,149.2c.43-.19.56.77.3,1.47-.18.5-.47.64-.62.29a1.94,1.94,0,0,1,.32-1.76"/><path class="cls-2" d="M190.29,160.73c.56-.39.53-1.9.13-1.95s-.74,1.41-.39,1.89a.19.19,0,0,0,.26.06m-1.79-4.51a16.22,16.22,0,0,1,4.18-2.44l0,9.6a16.43,16.43,0,0,0-4.17,2.45v-9.61"/><path d="M190.3,158.81c.42-.2.55.76.29,1.47-.18.49-.47.63-.61.29s0-1.55.32-1.76"/><path class="cls-2" d="M190.27,170.33c.57-.39.56-1.89.13-1.94s-.73,1.42-.39,1.88a.18.18,0,0,0,.26.06m-1.78-4.5a16.43,16.43,0,0,1,4.17-2.45l0,9.61a16.32,16.32,0,0,0-4.17,2.44l0-9.6"/><path d="M190.28,168.42c.42-.2.55.76.3,1.46-.19.5-.47.64-.62.29s-.05-1.54.32-1.75"/><path class="cls-2" d="M190.26,179.94c.56-.4.55-1.89.12-1.95s-.73,1.43-.39,1.89a.2.2,0,0,0,.27.06m-1.79-4.51a16.32,16.32,0,0,1,4.17-2.44v9.61a16.51,16.51,0,0,0-4.18,2.45l0-9.62"/><path d="M190.26,178c.42-.2.55.77.3,1.47-.18.49-.47.63-.62.29a1.9,1.9,0,0,1,.32-1.76"/><path class="cls-2" d="M190.24,189.55c.56-.4.55-1.9.13-2s-.73,1.42-.39,1.88a.19.19,0,0,0,.26.07m-1.79-4.5a16.51,16.51,0,0,1,4.18-2.45l0,9.61a16.22,16.22,0,0,0-4.18,2.44l0-9.6"/><path d="M190.24,187.63c.42-.2.55.76.3,1.46-.18.5-.47.64-.62.3s0-1.55.32-1.76"/><path class="cls-2" d="M190.22,199.15c.57-.39.55-1.89.13-2s-.74,1.43-.39,1.89a.18.18,0,0,0,.26.06m-1.79-4.5a16.22,16.22,0,0,1,4.18-2.44l0,9.61a16.4,16.4,0,0,0-4.18,2.44l0-9.61"/><path d="M190.22,197.23c.43-.2.56.77.3,1.47-.18.5-.47.63-.62.29s0-1.55.32-1.76"/><path class="cls-2" d="M190.2,208.76c.57-.4.55-1.9.13-1.95s-.73,1.42-.39,1.89a.2.2,0,0,0,.26.06m-1.79-4.5a16.4,16.4,0,0,1,4.18-2.44l0,9.6a16.32,16.32,0,0,0-4.17,2.44v-9.6"/><path d="M190.21,206.84c.41-.2.54.78.29,1.47-.18.49-.47.63-.61.29s0-1.55.32-1.76"/><path class="cls-2" d="M190.19,218.37c.55-.39.52-1.9.12-2s-.73,1.43-.39,1.9a.2.2,0,0,0,.27.06m-1.79-4.51a16.32,16.32,0,0,1,4.17-2.44V221a16.22,16.22,0,0,0-4.18,2.44l0-9.61"/><path d="M190.19,216.44c.42-.19.55.77.3,1.48-.18.5-.47.63-.62.29s-.05-1.56.32-1.77"/><path class="cls-2" d="M190.17,228c.56-.4.55-1.9.13-2s-.74,1.43-.39,1.89a.19.19,0,0,0,.26.07m-1.79-4.51a16.22,16.22,0,0,1,4.18-2.44l0,9.6a16.22,16.22,0,0,0-4.18,2.45l0-9.61"/><path d="M190.17,226.05c.42-.2.55.77.3,1.47-.18.5-.47.64-.62.3s0-1.56.32-1.77"/><path class="cls-2" d="M190.15,237.58c.56-.39.53-1.9.13-2s-.74,1.41-.39,1.89a.18.18,0,0,0,.26.06m-1.79-4.5a16.22,16.22,0,0,1,4.18-2.45l0,9.61a16.22,16.22,0,0,0-4.18,2.44l0-9.6"/><path d="M190.15,235.66c.43-.19.56.77.3,1.47-.18.5-.47.63-.62.29s0-1.55.32-1.76"/><path class="cls-2" d="M190.13,247.19c.56-.39.53-1.9.13-1.95s-.74,1.41-.39,1.89a.2.2,0,0,0,.26.06m-1.8,1.67v-6.18a16.22,16.22,0,0,1,4.18-2.44v6.18a16.22,16.22,0,0,0-4.18,2.44"/><path d="M190.14,245.27c.42-.2.55.76.29,1.46-.18.5-.47.64-.61.3s0-1.55.32-1.76"/><path class="cls-2" d="M195.63,148.84c.74-.29.85-1.64.31-1.9s-1.17.83-.86,1.59a.43.43,0,0,0,.55.31m-2.95,4.94,0-8.77a42.23,42.23,0,0,1,6.42-2.08l0,8.77a43,43,0,0,0-6.42,2.08"/><path d="M195.64,146.93c.63-.16.83.81.45,1.49s-.87.61-1,0,.1-1.37.59-1.52"/><path class="cls-2" d="M195.61,158.45c.74-.29.85-1.65.31-1.9s-1.16.82-.86,1.58c.11.27.32.4.55.32m-2.93-4.67a43,43,0,0,1,6.42-2.08l0,9.6a43,43,0,0,0-6.42,2.08l0-9.6"/><path d="M195.62,156.53c.64-.16.84.82.45,1.49s-.87.61-1,0a1.34,1.34,0,0,1,.59-1.53"/><path class="cls-2" d="M195.6,168.06c.75-.31.85-1.64.31-1.91s-1.16.85-.87,1.59a.45.45,0,0,0,.56.32m-2.94-4.68a43,43,0,0,1,6.42-2.08v9.61a42.76,42.76,0,0,0-6.43,2.08l0-9.61"/><path d="M195.6,166.14c.64-.16.84.81.46,1.49s-.87.61-1.05,0a1.33,1.33,0,0,1,.59-1.52"/><path class="cls-2" d="M195.58,177.66c.75-.3.85-1.64.31-1.9s-1.16.84-.87,1.58a.44.44,0,0,0,.56.32M192.64,173a42.76,42.76,0,0,1,6.43-2.08l0,9.61a42.23,42.23,0,0,0-6.42,2.08V173"/><path d="M195.58,175.74c.64-.16.84.82.46,1.49s-.87.61-1,0a1.34,1.34,0,0,1,.58-1.53"/><path class="cls-2" d="M195.56,187.27c.76-.3.86-1.64.31-1.9s-1.16.84-.87,1.58a.45.45,0,0,0,.56.32m-2.93-4.67a42.23,42.23,0,0,1,6.42-2.08l0,9.61a43,43,0,0,0-6.42,2.08l0-9.61"/><path d="M195.56,185.35c.64-.16.84.81.46,1.49s-.87.61-1,0a1.32,1.32,0,0,1,.58-1.52"/><path class="cls-2" d="M195.54,196.87c.76-.3.86-1.63.31-1.9s-1.16.84-.86,1.59a.43.43,0,0,0,.55.31m-2.93-4.66a43,43,0,0,1,6.42-2.08l0,9.61a40.79,40.79,0,0,0-6.42,2.08l0-9.61"/><path d="M195.55,195c.64-.16.84.82.45,1.5s-.87.59-1,0a1.34,1.34,0,0,1,.59-1.53"/><path class="cls-2" d="M195.52,206.48c.76-.3.86-1.64.32-1.9s-1.17.84-.87,1.58a.45.45,0,0,0,.55.32m-2.93-4.66a40.79,40.79,0,0,1,6.42-2.08l0,9.6a43,43,0,0,0-6.42,2.08l0-9.6"/><path d="M195.53,204.56c.64-.16.84.82.45,1.49s-.87.6-1,0a1.34,1.34,0,0,1,.59-1.53"/><path class="cls-2" d="M195.51,216.09c.75-.3.86-1.64.31-1.91s-1.17.83-.87,1.59a.44.44,0,0,0,.56.32m-2.94-4.67a43,43,0,0,1,6.42-2.08V219a40.11,40.11,0,0,0-6.42,2.08v-9.61"/><path d="M195.51,214.16c.64-.15.84.83.46,1.5s-.88.6-1.05,0a1.36,1.36,0,0,1,.59-1.54"/><path class="cls-2" d="M195.49,225.7c.75-.3.86-1.65.31-1.91s-1.12.75-.89,1.51c.09.33.32.48.58.4M192.56,221A40.11,40.11,0,0,1,199,219l0,9.6a42.23,42.23,0,0,0-6.42,2.08l0-9.6"/><path d="M195.49,223.77c.64-.16.84.82.46,1.5s-.87.61-1,0,.09-1.37.58-1.53"/><path class="cls-2" d="M195.47,235.3c.74-.29.85-1.64.31-1.9s-1.17.83-.87,1.59a.44.44,0,0,0,.56.31m-2.93-4.67a42.23,42.23,0,0,1,6.42-2.08l0,9.61a41.85,41.85,0,0,0-6.42,2.08l0-9.61"/><path d="M195.47,233.38c.64-.15.84.82.46,1.5s-.87.6-1,0a1.36,1.36,0,0,1,.58-1.53"/><path class="cls-2" d="M195.45,244.91c.74-.3.85-1.65.31-1.9s-1.16.82-.86,1.58a.43.43,0,0,0,.55.32m-2.94,1.51v-6.18a41.85,41.85,0,0,1,6.42-2.08v6.18a42.23,42.23,0,0,0-6.42,2.08"/><path d="M195.46,243c.64-.16.84.81.45,1.49s-.87.61-1,0a1.34,1.34,0,0,1,.59-1.53"/><path class="cls-2" d="M203.11,147c.92-.22,1.12-1.48.48-1.84s-1.51.5-1.28,1.32a.68.68,0,0,0,.8.52m-4,4.7,0-8.77a80.32,80.32,0,0,1,8.49-1.57l0,8.77a78.76,78.76,0,0,0-8.49,1.57"/><path d="M203.11,145.08c.84-.11,1.11.88.6,1.53s-1.36.47-1.43-.31a1.15,1.15,0,0,1,.83-1.22"/><path class="cls-2" d="M203.09,156.61c.93-.23,1.12-1.49.48-1.85s-1.51.5-1.28,1.32a.68.68,0,0,0,.8.53m-4-4.91a78.76,78.76,0,0,1,8.49-1.57l0,9.6a84,84,0,0,0-8.49,1.57l0-9.6"/><path d="M203.1,154.69c.83-.11,1.1.88.6,1.52s-1.37.47-1.44-.31a1.15,1.15,0,0,1,.84-1.21"/><path class="cls-2" d="M203.07,166.21a1.05,1.05,0,0,0,.48-1.84c-.66-.38-1.51.49-1.28,1.32a.68.68,0,0,0,.8.52m-4-4.91a84,84,0,0,1,8.49-1.57v9.61a77.85,77.85,0,0,0-8.49,1.57V161.3"/><path d="M203.08,164.29c.83-.1,1.1.89.6,1.53s-1.37.47-1.44-.31a1.15,1.15,0,0,1,.84-1.22"/><path class="cls-2" d="M203.06,175.82c.93-.23,1.13-1.47.48-1.84s-1.52.49-1.28,1.32a.68.68,0,0,0,.8.52m-4-4.91a77.85,77.85,0,0,1,8.49-1.57l0,9.61a83,83,0,0,0-8.49,1.57l0-9.61"/><path d="M203.06,173.9c.84-.11,1.1.88.6,1.53s-1.37.47-1.44-.31a1.16,1.16,0,0,1,.84-1.22"/><path class="cls-2" d="M203,185.42a1.06,1.06,0,0,0,.48-1.84c-.67-.38-1.52.49-1.28,1.32a.68.68,0,0,0,.8.52m-4-4.9a83,83,0,0,1,8.49-1.57l0,9.61a77.85,77.85,0,0,0-8.49,1.57l0-9.61"/><path d="M203,183.5c.84-.1,1.1.89.6,1.53s-1.37.47-1.43-.31a1.16,1.16,0,0,1,.83-1.22"/><path class="cls-2" d="M203,195c.94-.23,1.13-1.47.48-1.84s-1.51.49-1.28,1.32a.68.68,0,0,0,.8.52m-4-4.9a77.85,77.85,0,0,1,8.49-1.57l0,9.6a81.15,81.15,0,0,0-8.49,1.58l0-9.61"/><path d="M203,193.11c.85-.11,1.11.88.61,1.53s-1.37.47-1.44-.31a1.15,1.15,0,0,1,.83-1.22"/><path class="cls-2" d="M203,204.63a1.05,1.05,0,0,0,.48-1.84c-.66-.38-1.51.5-1.28,1.33a.68.68,0,0,0,.8.51m-4-4.89a81.15,81.15,0,0,1,8.49-1.58l0,9.61a78.76,78.76,0,0,0-8.49,1.57l0-9.6"/><path d="M203,202.71c.84-.1,1.1.89.6,1.54s-1.37.46-1.44-.32a1.16,1.16,0,0,1,.84-1.22"/><path class="cls-2" d="M203,214.25a1.06,1.06,0,0,0,.47-1.85c-.66-.38-1.51.49-1.28,1.32a.69.69,0,0,0,.81.53m-4-4.91a78.76,78.76,0,0,1,8.49-1.57v9.6A80.17,80.17,0,0,0,199,219v-9.61"/><path d="M203,212.32c.83-.11,1.1.89.6,1.54s-1.37.47-1.44-.32a1.15,1.15,0,0,1,.84-1.22"/><path class="cls-2" d="M203,223.85a1.07,1.07,0,0,0,.48-1.85c-.67-.38-1.52.5-1.28,1.33a.68.68,0,0,0,.8.52m-4-4.9a80.17,80.17,0,0,1,8.49-1.58l0,9.61a80.32,80.32,0,0,0-8.49,1.57l0-9.6"/><path d="M203,221.93c.84-.11,1.11.88.6,1.53s-1.37.47-1.44-.31a1.16,1.16,0,0,1,.84-1.22"/><path class="cls-2" d="M203,233.46c.92-.22,1.12-1.48.48-1.84s-1.52.49-1.28,1.32a.68.68,0,0,0,.8.52m-4-4.91a80.32,80.32,0,0,1,8.49-1.57l0,9.6a81.15,81.15,0,0,0-8.49,1.58l0-9.61"/><path d="M203,231.54c.84-.11,1.11.88.6,1.53s-1.36.47-1.43-.31a1.15,1.15,0,0,1,.83-1.22"/><path class="cls-2" d="M202.93,243.07c.93-.23,1.12-1.49.48-1.85s-1.51.5-1.28,1.32a.7.7,0,0,0,.8.53m-4,1.27v-6.18a81.15,81.15,0,0,1,8.49-1.58v6.19a77.85,77.85,0,0,0-8.49,1.57"/><path d="M202.94,241.15c.83-.11,1.1.88.6,1.52s-1.37.47-1.44-.31a1.15,1.15,0,0,1,.84-1.21"/><path class="cls-2" d="M212.41,145.75A1,1,0,0,0,213,144a1,1,0,0,0-1.57,1.08.86.86,0,0,0,.95.68m-4.82,4.38,0-8.77h0c3.16-.43,6.43-.72,9.73-.88l0,8.77c-3.3.16-6.56.45-9.72.87h0"/><path d="M212.41,143.83a.91.91,0,0,1,.69,1.58.92.92,0,0,1-1.66-.53,1.09,1.09,0,0,1,1-1"/><path class="cls-2" d="M212.39,155.36a1,1,0,0,0,.62-1.76,1,1,0,0,0-1.57,1.08.87.87,0,0,0,.95.68m-4.8-5.23h0c3.16-.42,6.42-.71,9.72-.87l0,9.6c-3.29.17-6.56.46-9.72.88h0l0-9.6"/><path d="M212.4,153.44a.9.9,0,0,1,.68,1.57.92.92,0,0,1-1.66-.52,1.08,1.08,0,0,1,1-1.05"/><path class="cls-2" d="M212.37,165a1,1,0,0,0,.63-1.75,1,1,0,0,0-1.57,1.07.86.86,0,0,0,.94.68m-4.8-5.23h0c3.16-.42,6.43-.71,9.72-.88l0,9.61c-3.29.16-6.56.45-9.72.88h0v-9.61"/><path d="M212.38,163a.91.91,0,0,1,.68,1.58.92.92,0,0,1-1.65-.53,1.08,1.08,0,0,1,1-1.05"/><path class="cls-2" d="M212.36,174.57a1,1,0,0,0,.62-1.76,1.05,1.05,0,0,0-1.57,1.08.87.87,0,0,0,1,.68m-4.8-5.23h0c3.16-.43,6.43-.72,9.72-.88v9.61c-3.3.17-6.57.46-9.73.88h0l0-9.61"/><path d="M212.36,172.65a.91.91,0,0,1,.69,1.57.92.92,0,0,1-1.66-.52,1.09,1.09,0,0,1,1-1"/><path class="cls-2" d="M212.34,184.17a1,1,0,0,0,.62-1.75,1,1,0,0,0-1.57,1.07.86.86,0,0,0,1,.68m-4.8-5.22h0c3.16-.42,6.43-.71,9.73-.88l0,9.61c-3.3.16-6.57.45-9.72.88h0l0-9.61"/><path d="M212.34,182.25a.91.91,0,0,1,.69,1.58.92.92,0,0,1-1.66-.53,1.09,1.09,0,0,1,1-1.05"/><path class="cls-2" d="M212.32,193.78a1,1,0,0,0,.62-1.76,1,1,0,0,0-1.57,1.08.87.87,0,0,0,.95.68m-4.8-5.22h0c3.15-.43,6.42-.72,9.72-.88l0,9.61c-3.3.16-6.56.45-9.72.87h0l0-9.6"/><path d="M212.32,191.86a.91.91,0,0,1,.69,1.58.92.92,0,0,1-1.66-.53,1.09,1.09,0,0,1,1-1"/><path class="cls-2" d="M212.3,203.38a1,1,0,0,0,.63-1.75,1,1,0,0,0-1.58,1.08.87.87,0,0,0,1,.67m-4.8-5.22h0c3.16-.42,6.42-.71,9.72-.87l0,9.6c-3.29.16-6.56.45-9.72.88h0l0-9.61"/><path d="M212.31,201.46A.91.91,0,0,1,213,203a.92.92,0,0,1-1.66-.53,1.1,1.1,0,0,1,1-1"/><path class="cls-2" d="M212.29,213a1,1,0,0,0,.62-1.76,1,1,0,0,0-1.57,1.07.87.87,0,0,0,.95.69m-4.81-5.23h0c3.16-.43,6.43-.72,9.72-.88v9.61c-3.3.16-6.57.45-9.73.87h0v-9.6"/><path d="M212.29,211.07a.95.95,0,1,1-1,1.05,1.08,1.08,0,0,1,1-1.05"/><path class="cls-2" d="M212.27,222.6a1,1,0,0,0,.62-1.76,1,1,0,0,0-1.59,1,.87.87,0,0,0,1,.77m-4.8-5.23h0c3.16-.42,6.43-.71,9.73-.87l0,9.6c-3.3.16-6.57.45-9.72.88h0l0-9.61"/><path d="M212.27,220.67a1,1,0,1,1-1,1.06,1.1,1.1,0,0,1,1-1.06"/><path class="cls-2" d="M212.25,232.21a1,1,0,0,0,.62-1.76,1,1,0,0,0-1.57,1.08.87.87,0,0,0,.95.68m-4.8-5.23h0c3.15-.43,6.42-.72,9.72-.88l0,9.61c-3.3.16-6.57.45-9.72.87h0l0-9.6"/><path d="M212.25,230.29a.91.91,0,0,1,.69,1.58.92.92,0,0,1-1.66-.53,1.09,1.09,0,0,1,1-1.05"/><path class="cls-2" d="M212.23,241.81a1,1,0,0,0,.62-1.75,1,1,0,0,0-1.57,1.08.86.86,0,0,0,.95.67m-4.81,1v-6.19h0c3.15-.42,6.42-.71,9.72-.87v6.18c-3.3.16-6.57.45-9.72.88h0"/><path d="M212.24,239.9a.9.9,0,0,1,.68,1.57.92.92,0,0,1-1.66-.52,1.07,1.07,0,0,1,1-1"/><path class="cls-2" d="M222.27,145.26a1,1,0,0,0,.71-1.65,1,1,0,0,0-1.69.71,1,1,0,0,0,1,.94m-5,4,0-8.77c3.29-.16,6.61-.19,9.88-.11l0,8.77c-3.26-.09-6.58,0-9.88.11"/><path d="M222.28,143.34A1,1,0,0,1,223,145a1,1,0,0,1-1.68-.65,1,1,0,0,1,1-1"/><path class="cls-2" d="M222.26,154.87a1,1,0,0,0,.7-1.65,1,1,0,0,0-1.69.7,1,1,0,0,0,1,1m-4.94-5.62c3.3-.16,6.62-.2,9.88-.11l0,9.6c-3.26-.08-6.58-.05-9.88.11l0-9.6"/><path d="M222.26,153a1,1,0,0,1,.7,1.63,1,1,0,1,1-.7-1.63"/><path class="cls-2" d="M222.24,164.47a1,1,0,0,0,.7-1.64,1,1,0,0,0-1.69.7,1,1,0,0,0,1,.94m-4.94-5.62c3.3-.16,6.62-.19,9.88-.11v9.61c-3.27-.09-6.59,0-9.89.11l0-9.61"/><path d="M222.24,162.55a1,1,0,0,1,.7,1.63,1,1,0,0,1-1.69-.65,1,1,0,0,1,1-1"/><path class="cls-2" d="M222.22,174.08a1,1,0,0,0,.7-1.65,1,1,0,0,0-1.69.7,1,1,0,0,0,1,1m-4.94-5.62c3.3-.16,6.62-.2,9.89-.11l0,9.61c-3.27-.08-6.59-.05-9.88.11v-9.61"/><path d="M222.22,172.16a1,1,0,0,1,.7,1.63,1,1,0,1,1-.7-1.63"/><path class="cls-2" d="M222.2,183.68a1,1,0,0,0,.7-1.64,1,1,0,0,0-1.68.7.94.94,0,0,0,1,.94m-4.93-5.61c3.29-.16,6.61-.19,9.88-.11l0,9.61c-3.26-.09-6.59,0-9.88.11l0-9.61"/><path d="M222.21,181.76a1,1,0,0,1,.69,1.64,1,1,0,0,1-1.68-.66,1,1,0,0,1,1-1"/><path class="cls-2" d="M222.19,193.29a1,1,0,0,0,.7-1.64,1,1,0,0,0-1.69.69,1,1,0,0,0,1,.95m-4.94-5.61c3.29-.16,6.62-.2,9.88-.11l0,9.6c-3.26-.08-6.58,0-9.88.12l0-9.61"/><path d="M222.19,191.37a1,1,0,0,1,.69,1.63,1,1,0,0,1-1.68-.66,1,1,0,0,1,1-1"/><path class="cls-2" d="M222.17,202.89a1,1,0,0,0,.7-1.64,1,1,0,0,0-1.69.7,1,1,0,0,0,1,.94m-4.94-5.6c3.3-.17,6.62-.2,9.88-.12l0,9.61c-3.26-.09-6.58-.05-9.88.11l0-9.6"/><path d="M222.17,201a1,1,0,0,1,.7,1.63,1,1,0,1,1-.7-1.63"/><path class="cls-2" d="M222.15,212.51a1,1,0,0,0,.7-1.65,1,1,0,0,0-1.69.7,1,1,0,0,0,1,.95m-4.94-5.62c3.3-.16,6.62-.2,9.88-.11v9.6c-3.27-.08-6.59,0-9.88.12v-9.61"/><path d="M222.15,210.58a1,1,0,0,1,.7,1.64,1,1,0,0,1-1.69-.66,1,1,0,0,1,1-1"/><path class="cls-2" d="M222.13,222.11a1,1,0,0,0,.7-1.65,1,1,0,0,0-1.69.71,1,1,0,0,0,1,.94m-4.93-5.61c3.29-.17,6.61-.2,9.88-.12l0,9.61c-3.27-.09-6.59-.05-9.88.11l0-9.6"/><path d="M222.14,220.19a1,1,0,0,1,.69,1.64,1,1,0,1,1-.69-1.64"/><path class="cls-2" d="M222.11,231.72a1,1,0,0,0,.71-1.65,1,1,0,0,0-1.69.71,1,1,0,0,0,1,.94m-4.93-5.62c3.29-.16,6.61-.2,9.88-.11l0,9.6c-3.26-.08-6.59,0-9.88.12l0-9.61"/><path d="M222.12,229.8a1,1,0,0,1,.69,1.63,1,1,0,0,1-1.68-.65,1,1,0,0,1,1-1"/><path class="cls-2" d="M222.1,241.33a1,1,0,0,0,.7-1.65,1,1,0,0,0-1.69.7,1,1,0,0,0,1,1m-4.95.56v-6.18c3.29-.16,6.62-.2,9.88-.12v6.19c-3.26-.09-6.59-.05-9.88.11"/><path d="M222.1,239.41a1,1,0,0,1,.7,1.63,1,1,0,1,1-.7-1.63"/><path class="cls-2" d="M232.05,145.51a.95.95,0,1,0-1-1,1,1,0,0,0,1,1m-4.85,3.63,0-8.77c3.26.08,6.47.29,9.53.6v8.76c-3.07-.31-6.27-.51-9.54-.59"/><path d="M232.05,143.59a1,1,0,1,1-1,.81.89.89,0,0,1,1-.81"/><path class="cls-2" d="M232,155.12a.95.95,0,1,0-1-1,1,1,0,0,0,1,1m-4.83-6c3.27.08,6.47.28,9.54.59l0,9.61c-3.07-.31-6.27-.52-9.54-.6l0-9.6"/><path d="M232,153.2a1,1,0,1,1-.95.8.9.9,0,0,1,.95-.8"/><path class="cls-2" d="M232,164.72a.95.95,0,1,0-1-1,1,1,0,0,0,1,1m-4.83-6c3.27.08,6.47.29,9.54.6l0,9.61c-3.06-.32-6.27-.52-9.53-.6v-9.61"/><path d="M232,162.8a1,1,0,1,1-.95.81.9.9,0,0,1,.95-.81"/><path class="cls-2" d="M232,174.33a.95.95,0,1,0-1-1,1,1,0,0,0,1,1m-4.82-6c3.26.08,6.47.28,9.53.6l0,9.61c-3.06-.31-6.27-.52-9.53-.6l0-9.61"/><path d="M232,172.41a1,1,0,0,1,.6,1.74,1,1,0,0,1-1.56-.94.9.9,0,0,1,1-.8"/><path class="cls-2" d="M232,183.93a.94.94,0,1,0-1-1,1,1,0,0,0,1,1m-4.83-6c3.26.08,6.47.29,9.53.6l0,9.61c-3.06-.32-6.27-.52-9.53-.6l0-9.61"/><path d="M232,182a1,1,0,0,1,.6,1.74,1,1,0,0,1-1.56-.93.91.91,0,0,1,1-.81"/><path class="cls-2" d="M232,193.54a.95.95,0,1,0-1-1,1,1,0,0,0,1,1m-4.83-6c3.26.08,6.47.28,9.53.6v9.6c-3.07-.31-6.27-.51-9.54-.6l0-9.6"/><path d="M232,191.62a1,1,0,0,1,.61,1.74,1,1,0,0,1-1.56-.94.9.9,0,0,1,1-.8"/><path class="cls-2" d="M231.94,203.14a.95.95,0,1,0-1-1,1,1,0,0,0,1,1m-4.83-6c3.27.09,6.47.29,9.54.6l0,9.61c-3.06-.32-6.27-.52-9.54-.6l0-9.61"/><path d="M231.94,201.22a1,1,0,1,1-.95.81.9.9,0,0,1,.95-.81"/><path class="cls-2" d="M231.92,212.76a.95.95,0,1,0-.95-1,1,1,0,0,0,.95,1m-4.83-6c3.27.08,6.48.28,9.54.6l0,9.6c-3.06-.31-6.27-.51-9.53-.6v-9.6"/><path d="M231.93,210.83a1,1,0,1,1-1,.81.9.9,0,0,1,1-.81"/><path class="cls-2" d="M231.9,222.36a.95.95,0,1,0-1-1,1,1,0,0,0,1,1m-4.82-6c3.26.09,6.47.29,9.53.6l0,9.61c-3.06-.32-6.27-.52-9.53-.6l0-9.61"/><path d="M231.91,220.44a1,1,0,0,1,.6,1.74,1,1,0,0,1-1.56-.93.89.89,0,0,1,1-.81"/><path class="cls-2" d="M231.89,232a.95.95,0,1,0-1-1,1,1,0,0,0,1,1m-4.83-6c3.26.08,6.47.28,9.53.6v9.6c-3.07-.31-6.27-.51-9.54-.6l0-9.6"/><path d="M231.89,230.05a1,1,0,1,1-.95.8.89.89,0,0,1,.95-.8"/><path class="cls-2" d="M231.87,241.57a.95.95,0,1,0-1-1,1,1,0,0,0,1,1m-4.84.21v-6.19c3.27.09,6.47.29,9.54.6l0,6.19c-3.06-.32-6.27-.52-9.53-.6"/><path d="M231.87,239.66a1,1,0,0,1,.61,1.73,1,1,0,0,1-1.56-.93.9.9,0,0,1,1-.8"/><path class="cls-2" d="M241.22,146.45c.91.08,1.07-1,.61-1.55a.8.8,0,0,0-1.48.37,1.1,1.1,0,0,0,.87,1.18m-4.48,3.28V141c3.07.31,6,.74,8.68,1.26l0,8.77c-2.69-.53-5.61-.95-8.67-1.27"/><path d="M241.22,144.53a1,1,0,0,1,.48,1.82c-.68.41-1.56-.44-1.32-1.27a.75.75,0,0,1,.84-.55"/><path class="cls-2" d="M241.2,156.05c.91.09,1.08-1,.61-1.55a.8.8,0,0,0-1.48.37,1.1,1.1,0,0,0,.87,1.18m-4.46-6.32c3.06.32,6,.74,8.67,1.27l0,9.6c-2.69-.52-5.61-.95-8.67-1.26l0-9.61"/><path d="M241.2,154.13a1,1,0,0,1,.48,1.83c-.67.41-1.56-.45-1.31-1.27a.75.75,0,0,1,.83-.56"/><path class="cls-2" d="M241.18,165.66c.85.08,1.12-.91.62-1.55a.81.81,0,0,0-1.49.37,1.11,1.11,0,0,0,.87,1.18m-4.46-6.32c3.06.31,6,.74,8.67,1.26v9.61c-2.7-.53-5.62-1-8.68-1.26l0-9.61"/><path d="M241.18,163.74a1.05,1.05,0,0,1,.49,1.83c-.68.41-1.57-.45-1.32-1.27a.74.74,0,0,1,.83-.56"/><path class="cls-2" d="M241.16,175.26c.91.09,1.08-1,.62-1.54a.8.8,0,0,0-1.49.36,1.1,1.1,0,0,0,.87,1.18M236.7,169c3.06.31,6,.73,8.68,1.26l0,9.61c-2.69-.52-5.61-.95-8.68-1.26l0-9.61"/><path d="M241.17,173.34a1.05,1.05,0,0,1,.48,1.83c-.68.41-1.57-.44-1.32-1.27a.76.76,0,0,1,.84-.56"/><path class="cls-2" d="M241.14,184.87c.91.08,1.08-1,.62-1.55a.8.8,0,0,0-1.48.37,1.1,1.1,0,0,0,.86,1.18m-4.46-6.31c3.07.31,6,.74,8.68,1.26l0,9.61c-2.69-.53-5.61-1-8.68-1.26l0-9.61"/><path d="M241.15,183a1.05,1.05,0,0,1,.48,1.83c-.68.41-1.57-.45-1.32-1.27a.77.77,0,0,1,.84-.56"/><path class="cls-2" d="M241.13,194.47c.9.09,1.07-1,.61-1.54a.8.8,0,0,0-1.48.37,1.08,1.08,0,0,0,.87,1.17m-4.47-6.3c3.07.31,6,.73,8.68,1.26l0,9.6c-2.69-.52-5.61-.95-8.67-1.26v-9.6"/><path d="M241.13,192.56a1,1,0,0,1,.48,1.82c-.67.41-1.56-.45-1.32-1.27a.75.75,0,0,1,.84-.55"/><path class="cls-2" d="M241.11,204.08c.91.08,1.07-1,.62-1.55a.81.81,0,0,0-1.49.37,1.1,1.1,0,0,0,.87,1.18m-4.46-6.31c3.06.31,6,.74,8.67,1.26l0,9.61c-2.69-.53-5.61-.95-8.67-1.26l0-9.61"/><path d="M241.11,202.16a1,1,0,0,1,.49,1.83c-.68.4-1.57-.45-1.32-1.27a.76.76,0,0,1,.83-.56"/><path class="cls-2" d="M241.09,213.7c.91.08,1.08-1,.62-1.56a.8.8,0,0,0-1.49.37,1.12,1.12,0,0,0,.87,1.19m-4.46-6.32c3.06.31,6,.73,8.67,1.26v9.61c-2.7-.53-5.62-.95-8.68-1.27l0-9.6"/><path d="M241.09,211.77a1.05,1.05,0,0,1,.49,1.83c-.65.4-1.51-.36-1.34-1.19a.75.75,0,0,1,.85-.64"/><path class="cls-2" d="M241.07,223.3c.91.08,1.08-1,.62-1.55a.8.8,0,0,0-1.48.37,1.09,1.09,0,0,0,.86,1.18M236.61,217c3.06.32,6,.74,8.68,1.27l0,9.6c-2.69-.53-5.61-.95-8.68-1.26l0-9.61"/><path d="M241.08,221.37a1.06,1.06,0,0,1,.48,1.84c-.68.41-1.56-.45-1.32-1.28a.77.77,0,0,1,.84-.56"/><path class="cls-2" d="M241.06,232.91c.91.08,1.07-1,.61-1.55a.8.8,0,0,0-1.48.36,1.1,1.1,0,0,0,.87,1.19m-4.47-6.32c3.07.31,6,.73,8.68,1.26l0,9.61c-2.69-.53-5.61-1-8.67-1.27v-9.6"/><path d="M241.06,231a1,1,0,0,1,.48,1.82c-.68.41-1.56-.44-1.32-1.27a.75.75,0,0,1,.84-.55"/><path class="cls-2" d="M241,242.51c.91.08,1.08-1,.61-1.55a.8.8,0,0,0-1.48.37,1.1,1.1,0,0,0,.87,1.18m-4.48-.13,0-6.19c3.06.32,6,.74,8.67,1.27v6.18c-2.69-.53-5.61-.95-8.68-1.26"/><path d="M241,240.59a1,1,0,0,1,.48,1.83c-.67.41-1.56-.45-1.32-1.27a.77.77,0,0,1,.84-.56"/><path class="cls-2" d="M249.27,148c.77.15.92-.88.52-1.5s-1-.56-1.22.08a1.21,1.21,0,0,0,.7,1.42m-3.86,3,0-8.77a59.55,59.55,0,0,1,7.31,1.88l0,8.77a56.14,56.14,0,0,0-7.31-1.88"/><path d="M249.28,146.1c.83.27.95,1.62.34,1.9s-1.3-.72-1-1.48a.58.58,0,0,1,.69-.42"/><path class="cls-2" d="M249.25,157.63c.78.15.92-.89.53-1.51s-1.06-.56-1.23.09a1.23,1.23,0,0,0,.7,1.42M245.41,151a56.14,56.14,0,0,1,7.31,1.88l0,9.6a59.08,59.08,0,0,0-7.31-1.88l0-9.6"/><path d="M249.26,155.71c.83.27,1,1.62.35,1.89s-1.31-.72-1-1.48a.56.56,0,0,1,.68-.41"/><path class="cls-2" d="M249.24,167.23c.72.14.94-.82.52-1.5s-1.06-.56-1.23.08a1.21,1.21,0,0,0,.71,1.42m-3.85-6.63a59.08,59.08,0,0,1,7.31,1.88l0,9.61a57.62,57.62,0,0,0-7.3-1.88V160.6"/><path d="M249.24,165.32c.83.26.95,1.62.35,1.89s-1.31-.72-1-1.48a.56.56,0,0,1,.68-.41"/><path class="cls-2" d="M249.22,176.84c.72.14.95-.83.52-1.5s-1.06-.56-1.23.08a1.22,1.22,0,0,0,.71,1.42m-3.84-6.63a57.62,57.62,0,0,1,7.3,1.88v9.61a59.55,59.55,0,0,0-7.31-1.88l0-9.61"/><path d="M249.22,174.92c.84.27,1,1.62.35,1.89s-1.31-.71-1-1.47a.57.57,0,0,1,.68-.42"/><path class="cls-2" d="M249.2,186.45c.72.13,1-.83.52-1.51s-1.05-.56-1.22.08a1.23,1.23,0,0,0,.7,1.43m-3.84-6.63a59.55,59.55,0,0,1,7.31,1.88l0,9.61a57.8,57.8,0,0,0-7.31-1.88l0-9.61"/><path d="M249.2,184.53c.84.27,1,1.62.35,1.89s-1.3-.72-1-1.48a.56.56,0,0,1,.68-.41"/><path class="cls-2" d="M249.18,196.05c.77.15.91-.88.53-1.5s-1.06-.56-1.23.08a1.21,1.21,0,0,0,.7,1.42m-3.84-6.62a57.8,57.8,0,0,1,7.31,1.88l0,9.6a59.08,59.08,0,0,0-7.31-1.88l0-9.6"/><path d="M249.19,194.13c.84.27,1,1.63.34,1.9s-1.3-.73-1-1.48a.58.58,0,0,1,.69-.42"/><path class="cls-2" d="M249.17,205.66c.76.14.91-.89.52-1.51s-1.06-.56-1.23.09a1.22,1.22,0,0,0,.71,1.42M245.32,199a59.08,59.08,0,0,1,7.31,1.88l0,9.61a59.08,59.08,0,0,0-7.31-1.88l0-9.61"/><path d="M249.17,203.74c.84.27,1,1.62.35,1.89s-1.31-.72-1-1.48a.56.56,0,0,1,.68-.41"/><path class="cls-2" d="M249.15,215.27c.72.14.95-.83.52-1.51s-1.06-.56-1.23.08a1.23,1.23,0,0,0,.71,1.43m-3.85-6.63a59.08,59.08,0,0,1,7.31,1.88v9.6a58.31,58.31,0,0,0-7.31-1.87v-9.61"/><path d="M249.15,213.34c.84.27,1,1.63.35,1.91s-1.31-.73-1-1.49a.57.57,0,0,1,.68-.42"/><path class="cls-2" d="M249.13,224.88c.75.14,1-.93.47-1.59s-1.08-.43-1.19.25a1.21,1.21,0,0,0,.72,1.34m-3.84-6.63a58.31,58.31,0,0,1,7.31,1.87l0,9.61a59.55,59.55,0,0,0-7.31-1.88l0-9.6"/><path d="M249.13,223c.84.27,1,1.63.35,1.9s-1.3-.72-1-1.48a.57.57,0,0,1,.68-.42"/><path class="cls-2" d="M249.11,234.48c.77.15.91-.88.52-1.5s-1.06-.56-1.22.08a1.21,1.21,0,0,0,.7,1.42m-3.84-6.63a59.55,59.55,0,0,1,7.31,1.88l0,9.6a57.86,57.86,0,0,0-7.31-1.87l0-9.61"/><path d="M249.12,232.56c.83.27.95,1.62.34,1.9s-1.3-.72-1-1.48a.58.58,0,0,1,.69-.42"/><path class="cls-2" d="M249.09,244.09c.77.15.92-.89.53-1.51s-1.06-.56-1.23.08a1.24,1.24,0,0,0,.7,1.43m-3.85-.45v-6.18a57.86,57.86,0,0,1,7.31,1.87v6.19a57.8,57.8,0,0,0-7.31-1.88"/><path d="M249.1,242.17c.83.27,1,1.62.35,1.89s-1.31-.72-1-1.48a.56.56,0,0,1,.68-.41"/><path class="cls-2" d="M255.71,150.19c.56.2.67-.82.38-1.47s-.68-.65-.87-.16a1.52,1.52,0,0,0,.49,1.63m-3,2.69,0-8.77a27.42,27.42,0,0,1,4.82,2.08l0,8.76a27.44,27.44,0,0,0-4.82-2.07"/><path d="M255.72,148.27c.63.35.68,1.8.2,1.94s-1-1.09-.67-1.72c.11-.22.28-.3.47-.22"/><path class="cls-2" d="M255.69,159.8c.57.2.67-.82.39-1.47s-.69-.65-.87-.17a1.51,1.51,0,0,0,.48,1.64m-3,2.68,0-9.6a27.44,27.44,0,0,1,4.82,2.07l0,9.61a29.48,29.48,0,0,0-4.82-2.08"/><path d="M255.7,157.88c.64.34.68,1.79.2,1.94s-1-1.09-.67-1.72c.11-.22.28-.3.47-.22"/><path class="cls-2" d="M255.68,169.4c.56.2.66-.82.38-1.46s-.69-.65-.87-.17a1.48,1.48,0,0,0,.49,1.63m-3,2.69,0-9.61a30.36,30.36,0,0,1,4.82,2.08v9.6a28.34,28.34,0,0,0-4.83-2.07"/><path d="M255.68,167.48c.64.35.68,1.8.21,1.94s-1-1.09-.67-1.72a.34.34,0,0,1,.46-.22"/><path class="cls-2" d="M255.66,179c.56.2.66-.82.38-1.47s-.69-.65-.87-.16a1.52,1.52,0,0,0,.49,1.63m-3,2.69v-9.61a28.34,28.34,0,0,1,4.83,2.07l0,9.62a28.19,28.19,0,0,0-4.82-2.08"/><path d="M255.66,177.09c.64.34.68,1.8.21,1.94s-1-1.07-.67-1.72c.11-.22.28-.3.46-.22"/><path class="cls-2" d="M255.64,188.61c.56.2.67-.82.38-1.46s-.69-.65-.87-.17a1.5,1.5,0,0,0,.49,1.63m-3,2.7,0-9.61a28.19,28.19,0,0,1,4.82,2.08l0,9.6a28.21,28.21,0,0,0-4.82-2.07"/><path d="M255.64,186.69c.64.35.68,1.8.21,1.94s-1-1.06-.67-1.71c.11-.22.28-.31.46-.23"/><path class="cls-2" d="M255.62,198.22c.56.2.67-.82.39-1.46s-.69-.66-.88-.17a1.52,1.52,0,0,0,.49,1.63m-3,2.69,0-9.6a28.21,28.21,0,0,1,4.82,2.07l0,9.61a27.85,27.85,0,0,0-4.82-2.08"/><path d="M255.63,196.3c.64.35.68,1.8.2,1.94s-1-1.18-.63-1.78a.33.33,0,0,1,.43-.16"/><path class="cls-2" d="M255.61,207.82c.55.21.66-.81.38-1.46s-.69-.65-.87-.17a1.47,1.47,0,0,0,.49,1.63m-3,2.7,0-9.61a27.85,27.85,0,0,1,4.82,2.08l0,9.61a27.1,27.1,0,0,0-4.82-2.08"/><path d="M255.61,205.91c.64.34.68,1.8.21,1.94s-1-1.18-.64-1.78a.31.31,0,0,1,.43-.16"/><path class="cls-2" d="M255.59,217.44c.56.2.66-.83.38-1.47s-.69-.66-.87-.17a1.49,1.49,0,0,0,.49,1.64m-3,2.68v-9.6a27.1,27.1,0,0,1,4.82,2.08v9.6a28.54,28.54,0,0,0-4.82-2.08"/><path d="M255.59,215.51c.64.35.68,1.81.21,2s-1-1.09-.67-1.73a.34.34,0,0,1,.46-.22"/><path class="cls-2" d="M255.57,227c.56.21.7-.84.34-1.55-.25-.5-.66-.54-.83-.08a1.51,1.51,0,0,0,.49,1.63m-3,2.69,0-9.61a28.54,28.54,0,0,1,4.82,2.08l0,9.61a27.42,27.42,0,0,0-4.82-2.08"/><path d="M255.57,225.12c.64.34.68,1.8.21,1.94s-1-1.07-.67-1.72c.11-.22.28-.31.46-.22"/><path class="cls-2" d="M255.55,236.65c.56.2.67-.82.38-1.47s-.69-.65-.87-.16a1.52,1.52,0,0,0,.49,1.63m-3,2.68,0-9.6a27.42,27.42,0,0,1,4.82,2.08l0,9.6a31.23,31.23,0,0,0-4.82-2.08"/><path d="M255.56,234.73c.63.34.67,1.8.2,1.94s-1-1.09-.67-1.72c.11-.22.28-.3.47-.22"/><path class="cls-2" d="M255.53,246.26c.57.2.67-.82.39-1.47s-.69-.65-.88-.17a1.53,1.53,0,0,0,.49,1.64m-3-.74v-6.19a28.84,28.84,0,0,1,4.82,2.08v6.18a28.21,28.21,0,0,0-4.82-2.07"/><path d="M255.54,244.34c.64.34.68,1.79.2,1.94s-1-1.09-.67-1.73c.11-.21.28-.3.47-.21"/></g></g></g><g class="cls-3"><g class="cls-22"><g class="cls-3"><path class="cls-8" d="M186.53,252l.19-101.41c0,1.54,1.22,3.1,3.82,4.57a29.38,29.38,0,0,0,5.78,2.39L196.13,259a30,30,0,0,1-5.78-2.39c-2.6-1.48-3.83-3-3.82-4.57"/><path class="cls-8" d="M196.13,259l.19-101.41c.88.27,1.81.53,2.78.77l-.19,101.41c-1-.24-1.9-.5-2.78-.77"/><path class="cls-11" d="M198.91,259.77l.19-101.41c.77.2,1.57.38,2.39.56l-.19,101.4c-.82-.17-1.62-.35-2.39-.55"/><path class="cls-12" d="M201.3,260.32l.19-101.4c.71.15,1.45.29,2.2.43l-.19,101.41c-.75-.14-1.48-.28-2.2-.44"/><path class="cls-12" d="M203.5,260.76l.19-101.41c.7.13,1.4.25,2.12.36l-.19,101.41-2.12-.36"/><path class="cls-13" d="M205.62,261.12l.19-101.41c.68.11,1.38.21,2.08.3l-.19,101.41-2.08-.3"/><path class="cls-14" d="M207.7,261.42,207.89,160l2.07.26-.19,101.41-2.07-.26"/><path class="cls-14" d="M209.77,261.68,210,160.27l2.07.22-.19,101.4c-.7-.06-1.39-.14-2.07-.21"/><path class="cls-15" d="M211.84,261.89l.19-101.4,2.08.18-.18,101.41-2.09-.19"/><path class="cls-4" d="M213.93,262.08l.18-101.41,2.14.15-.19,101.41-2.13-.15"/><path class="cls-4" d="M216.06,262.23l.19-101.41,2.2.11-.18,101.41-2.21-.11"/><path class="cls-16" d="M218.27,262.34l.18-101.41c.76,0,1.53.06,2.29.09l-.18,101.4c-.77,0-1.53,0-2.29-.08"/><path class="cls-17" d="M220.56,262.42l.18-101.4,2.42,0L223,262.47l-2.42-.05"/><path class="cls-17" d="M223,262.47l.18-101.41c.88,0,1.77,0,2.65,0l-.19,101.41H223"/><path class="cls-18" d="M225.62,262.46l.19-101.41c1,0,2,0,3-.06l-.19,101.4c-1,0-2,.06-3,.07"/><path class="cls-19" d="M228.58,262.39l.19-101.4c1.21,0,2.42-.1,3.62-.18l-.19,101.41c-1.2.08-2.41.13-3.62.17"/><path class="cls-20" d="M232.2,262.22l.19-101.41c1.92-.12,3.84-.28,5.72-.49l-.19,101.41q-2.82.31-5.72.49"/><path class="cls-20" d="M237.92,261.73l.19-101.41,2.37-.29c1.6-.22,3.12-.46,4.55-.73l-.19,101.41c-1.43.27-3,.51-4.55.73l-2.37.29"/><path class="cls-20" d="M244.84,260.71,245,159.3c1.69-.31,3.26-.66,4.7-1l-.19,101.41c-1.44.38-3,.73-4.7,1"/><path class="cls-19" d="M249.54,259.67l.19-101.41c.9-.23,1.75-.48,2.56-.74l-.19,101.41c-.8.26-1.66.5-2.56.74"/><path class="cls-18" d="M252.1,258.93l.19-101.41c.65-.2,1.27-.42,1.85-.64L254,258.29c-.58.22-1.2.43-1.85.64"/><path class="cls-17" d="M254,258.29l.19-101.41c.52-.2,1-.4,1.49-.61l-.19,101.41c-.47.21-1,.41-1.49.61"/><path class="cls-17" d="M255.44,257.68l.19-101.41c.43-.19.84-.38,1.22-.58l-.18,101.41c-.39.2-.8.39-1.23.58"/><path class="cls-16" d="M256.67,257.1l.18-101.41c.37-.18.72-.38,1-.57l-.19,101.41c-.32.19-.67.38-1,.57"/><path class="cls-4" d="M257.7,256.53l.19-101.41c.32-.19.61-.38.89-.57L258.59,256c-.28.19-.57.38-.89.57"/><path class="cls-4" d="M258.59,256l.19-101.41c.27-.19.51-.38.74-.57l-.19,101.4a7.61,7.61,0,0,1-.74.58"/><path class="cls-15" d="M259.33,255.38l.19-101.4c.23-.2.43-.39.62-.59L260,254.8a5.8,5.8,0,0,1-.62.58"/><path class="cls-14" d="M260,254.8l.19-101.41a5.4,5.4,0,0,0,.5-.59l-.19,101.41a4.47,4.47,0,0,1-.5.59"/><path class="cls-14" d="M260.45,254.21l.19-101.41a5.17,5.17,0,0,0,.38-.62l-.19,101.41a4.14,4.14,0,0,1-.38.62"/><path class="cls-13" d="M260.83,253.59,261,152.18a3.39,3.39,0,0,0,.25-.64L261.08,253a3.39,3.39,0,0,1-.25.64"/><path class="cls-12" d="M261.08,253l.19-101.41a3.3,3.3,0,0,0,.11-.69l-.19,101.41a3.3,3.3,0,0,1-.11.69"/><path class="cls-12" d="M261.19,252.26l.19-101.41v-.09l-.19,101.4v.1"/></g><g class="cls-23"><path class="cls-2" d="M261.14,156.81s0,0,0,0a4.65,4.65,0,0,1,.06-2h0a6.72,6.72,0,0,1-.05,1.95m.22,2.71,0-8.76a3.74,3.74,0,0,1-1.08,2.46l0,8.77a3.74,3.74,0,0,0,1.08-2.47"/><path d="M261.15,154.89a4.84,4.84,0,0,0,0,2,5.8,5.8,0,0,0,.07-2l0,0"/><path class="cls-2" d="M261.13,166.42s0,0,0,0a4.65,4.65,0,0,1,.06-2h0a7.1,7.1,0,0,1,0,1.95m.21,2.71,0-9.61a3.74,3.74,0,0,1-1.08,2.47v9.6a3.72,3.72,0,0,0,1.07-2.46"/><path d="M261.13,164.5a4.79,4.79,0,0,0,0,1.95,5.73,5.73,0,0,0,.07-2l0,0"/><path class="cls-2" d="M261.11,176s0,0,0,0a4.49,4.49,0,0,1,.05-2h0a6.39,6.39,0,0,1,0,2m.22,2.71v-9.6a3.72,3.72,0,0,1-1.07,2.46l0,9.61a3.79,3.79,0,0,0,1.08-2.47"/><path d="M261.11,174.1a4.64,4.64,0,0,0,0,2,5.29,5.29,0,0,0,.06-2l0,0"/><path class="cls-2" d="M261.09,185.63s0,0,0,0a4.65,4.65,0,0,1,.06-2h0a6.39,6.39,0,0,1,0,1.95m.22,2.72,0-9.62a3.79,3.79,0,0,1-1.08,2.47l0,9.61a3.74,3.74,0,0,0,1.08-2.46"/><path d="M261.09,183.71a4.59,4.59,0,0,0,0,1.95,5.27,5.27,0,0,0,.07-2l0,0"/><path class="cls-2" d="M261.07,195.23s0,0,0,0a4.65,4.65,0,0,1,.06-2h0a6.72,6.72,0,0,1-.05,1.95m.22,2.72,0-9.6a3.74,3.74,0,0,1-1.08,2.46l0,9.61a3.74,3.74,0,0,0,1.08-2.47"/><path d="M261.08,193.31a4.66,4.66,0,0,0,0,2,5.28,5.28,0,0,0,.07-2l0,0"/><path class="cls-2" d="M261.06,204.84s0,0,0,0a4.69,4.69,0,0,1,.06-2h0a6.75,6.75,0,0,1,0,2m.21,2.72,0-9.61a3.74,3.74,0,0,1-1.08,2.47l0,9.6a3.77,3.77,0,0,0,1.08-2.46"/><path d="M261.06,202.92a4.84,4.84,0,0,0,0,2,5.34,5.34,0,0,0,.07-2l0,0"/><path class="cls-2" d="M261,214.44s0,0,0,0a4.65,4.65,0,0,1,.06-2h0a6.75,6.75,0,0,1,0,1.95m.21,2.72,0-9.6a3.72,3.72,0,0,1-1.08,2.46v9.61a3.73,3.73,0,0,0,1.07-2.47"/><path d="M261,212.52a4.84,4.84,0,0,0,0,2,5.28,5.28,0,0,0,.07-2l0,0"/><path class="cls-2" d="M261,224.06a.07.07,0,0,1,0,0,4.52,4.52,0,0,1,.05-2h0a6.45,6.45,0,0,1,0,2m.22,2.71v-9.61a3.73,3.73,0,0,1-1.07,2.47l0,9.61a3.76,3.76,0,0,0,1.08-2.47"/><path d="M261,222.13a4.69,4.69,0,0,0,0,2,5.18,5.18,0,0,0,.06-2l0,0"/><path class="cls-2" d="M261,233.66s0,0,0,0a4.69,4.69,0,0,1,.06-2h0a6.76,6.76,0,0,1-.05,1.95m.22,2.71,0-9.6a3.76,3.76,0,0,1-1.08,2.47l0,9.6a3.74,3.74,0,0,0,1.08-2.47"/><path d="M261,231.74a4.84,4.84,0,0,0,0,2,5.34,5.34,0,0,0,.07-2s0,0,0,0"/><path class="cls-2" d="M261,243.27s0,0,0,0a4.69,4.69,0,0,1,.06-2h0a6.72,6.72,0,0,1,0,2m.22,2.71,0-9.61a3.74,3.74,0,0,1-1.08,2.47l0,9.61A3.79,3.79,0,0,0,261.2,246"/><path d="M261,241.35a4.67,4.67,0,0,0,0,2,5.8,5.8,0,0,0,.07-2l0,0"/><path class="cls-2" d="M261,252.87s0,0,0,0a4.65,4.65,0,0,1,.06-2h0a7.09,7.09,0,0,1,0,2m.22-.71V246a3.81,3.81,0,0,1-1.08,2.47v6.18a3.74,3.74,0,0,0,1.08-2.47"/><path d="M261,251a4.79,4.79,0,0,0,0,1.95,5.73,5.73,0,0,0,.07-2l0,0"/><path class="cls-2" d="M258.82,159.44c-.33.19-.46-.69-.28-1.38.13-.49.36-.71.51-.48a2.14,2.14,0,0,1-.23,1.86m1.46,2.55,0-8.77a11.82,11.82,0,0,1-3.54,2.52v8.77a11.8,11.8,0,0,0,3.53-2.52"/><path d="M258.83,157.52c-.48.4-.45,1.91-.11,1.95s.63-1.56.3-1.93a.13.13,0,0,0-.19,0"/><path class="cls-2" d="M258.8,169c-.33.2-.46-.68-.27-1.37.13-.49.35-.71.5-.49a2.14,2.14,0,0,1-.23,1.86m1.48-7a11.8,11.8,0,0,1-3.53,2.52l0,9.6a11.82,11.82,0,0,0,3.54-2.52V162"/><path d="M258.81,167.13c-.47.39-.45,1.9-.11,2s.63-1.56.3-1.93a.12.12,0,0,0-.19,0"/><path class="cls-2" d="M258.79,178.65c-.35.2-.47-.68-.28-1.37.13-.5.35-.72.5-.49a2.17,2.17,0,0,1-.22,1.86m1.48-7.06a11.82,11.82,0,0,1-3.54,2.52l0,9.61a12,12,0,0,0,3.54-2.52l0-9.61"/><path d="M258.79,176.73c-.47.4-.45,1.91-.11,2s.63-1.55.3-1.93a.13.13,0,0,0-.19,0"/><path class="cls-2" d="M258.77,188.26c-.34.19-.46-.68-.28-1.38.13-.5.36-.71.5-.48a2.14,2.14,0,0,1-.22,1.86m1.48-7.06a12,12,0,0,1-3.54,2.52v9.61a11.76,11.76,0,0,0,3.53-2.52l0-9.61"/><path d="M258.77,186.34c-.47.39-.44,1.9-.11,1.95s.63-1.56.31-1.93a.13.13,0,0,0-.2,0"/><path class="cls-2" d="M258.75,197.86c-.34.2-.46-.68-.28-1.37.13-.5.36-.72.5-.49a2.1,2.1,0,0,1-.22,1.86m1.48-7.05a11.76,11.76,0,0,1-3.53,2.52l0,9.61a11.8,11.8,0,0,0,3.53-2.52l0-9.61"/><path d="M258.75,195.94c-.47.4-.44,1.91-.11,1.95s.63-1.55.31-1.92a.13.13,0,0,0-.2,0"/><path class="cls-2" d="M258.73,207.47c-.34.19-.46-.68-.27-1.38.13-.5.35-.71.5-.48a2.14,2.14,0,0,1-.23,1.86m1.48-7.05a11.8,11.8,0,0,1-3.53,2.52l0,9.6a11.63,11.63,0,0,0,3.53-2.52l0-9.6"/><path d="M258.74,205.55c-.48.4-.45,1.91-.11,1.95s.64-1.54.3-1.93a.12.12,0,0,0-.19,0"/><path class="cls-2" d="M258.72,217.07c-.35.2-.47-.67-.28-1.37.13-.5.35-.72.5-.49a2.17,2.17,0,0,1-.22,1.86m1.47-7a11.63,11.63,0,0,1-3.53,2.52l0,9.61a11.82,11.82,0,0,0,3.54-2.52V210"/><path d="M258.72,215.15c-.48.41-.45,1.92-.11,1.95s.64-1.54.3-1.92a.12.12,0,0,0-.19,0"/><path class="cls-2" d="M258.7,226.69c-.34.19-.46-.7-.28-1.39.13-.49.36-.71.5-.48a2.2,2.2,0,0,1-.22,1.87m1.48-7.06a11.82,11.82,0,0,1-3.54,2.52l0,9.6a12,12,0,0,0,3.54-2.51l0-9.61"/><path d="M258.7,224.76c-.47.4-.45,1.91-.11,2s.63-1.56.3-1.94a.13.13,0,0,0-.19,0"/><path class="cls-2" d="M258.68,236.29c-.34.2-.46-.68-.28-1.38.13-.5.36-.72.5-.49a2.12,2.12,0,0,1-.22,1.87m1.48-7a12,12,0,0,1-3.54,2.51v9.61a11.76,11.76,0,0,0,3.53-2.52l0-9.6"/><path d="M258.68,234.36c-.47.4-.44,1.92-.11,2s.63-1.56.31-1.93a.14.14,0,0,0-.2,0"/><path class="cls-2" d="M258.66,245.9c-.33.19-.46-.69-.28-1.38.13-.49.36-.71.5-.49a2.13,2.13,0,0,1-.22,1.87m1.48-7.06a11.76,11.76,0,0,1-3.53,2.52l0,9.6a11.8,11.8,0,0,0,3.53-2.51l0-9.61"/><path d="M258.67,244c-.48.4-.45,1.91-.12,2s.64-1.56.31-1.93a.13.13,0,0,0-.19,0"/><path class="cls-2" d="M258.64,255.5c-.33.2-.46-.69-.27-1.38.12-.48.35-.7.5-.48a2.14,2.14,0,0,1-.23,1.86m1.47-.87v-6.18a11.8,11.8,0,0,1-3.53,2.51v6.19a11.94,11.94,0,0,0,3.53-2.52"/><path d="M258.65,253.58c-.47.4-.45,1.91-.11,2s.63-1.56.3-1.93a.13.13,0,0,0-.19,0"/><path class="cls-2" d="M254.12,161.81c-.59.17-.77-.8-.42-1.48s.75-.62.93-.13a1.45,1.45,0,0,1-.51,1.61m2.63,2.7v-8.77a33.58,33.58,0,0,1-5.82,2.19l0,8.77a33.72,33.72,0,0,0,5.83-2.19"/><path d="M254.12,159.89c-.72.33-.76,1.77-.23,1.93s1-1,.71-1.69a.38.38,0,0,0-.48-.24"/><path class="cls-2" d="M254.1,171.42c-.59.17-.77-.8-.42-1.49s.75-.62.93-.13-.07,1.46-.51,1.62m2.65-6.91a33.72,33.72,0,0,1-5.83,2.19l0,9.6a33.72,33.72,0,0,0,5.83-2.19l0-9.6"/><path d="M254.11,169.5c-.73.33-.77,1.76-.24,1.93s1-1,.71-1.69a.36.36,0,0,0-.47-.24"/><path class="cls-2" d="M254.09,181c-.59.18-.77-.79-.42-1.48s.74-.62.92-.13a1.43,1.43,0,0,1-.5,1.61m2.64-6.91a33.72,33.72,0,0,1-5.83,2.19v9.61a33.9,33.9,0,0,0,5.82-2.19l0-9.61"/><path d="M254.09,179.1c-.72.34-.77,1.77-.24,1.93s1-1,.71-1.69a.37.37,0,0,0-.47-.24"/><path class="cls-2" d="M254.07,190.63c-.59.17-.77-.8-.42-1.48s.74-.62.92-.13a1.43,1.43,0,0,1-.5,1.61m2.64-6.91a33.9,33.9,0,0,1-5.82,2.19l0,9.61a34,34,0,0,0,5.83-2.19v-9.61"/><path d="M254.07,188.71c-.72.33-.76,1.76-.23,1.93s1-1,.71-1.69a.38.38,0,0,0-.48-.24"/><path class="cls-2" d="M254.05,200.23c-.59.18-.77-.79-.42-1.48s.75-.62.93-.13a1.45,1.45,0,0,1-.51,1.61m2.65-6.9a34,34,0,0,1-5.83,2.19l0,9.61a33.72,33.72,0,0,0,5.83-2.19l0-9.61"/><path d="M254.05,198.32c-.72.33-.76,1.76-.23,1.92s1-1,.71-1.68c-.11-.23-.28-.32-.48-.24"/><path class="cls-2" d="M254,209.84c-.58.17-.77-.8-.42-1.48s.75-.62.93-.13a1.45,1.45,0,0,1-.51,1.61m2.65-6.9a33.72,33.72,0,0,1-5.83,2.19l0,9.61a33.67,33.67,0,0,0,5.83-2.2l0-9.6"/><path d="M254,207.92c-.74.34-.78,1.77-.24,1.93s1-1.12.68-1.75a.35.35,0,0,0-.44-.18"/><path class="cls-2" d="M254,219.45c-.58.17-.77-.8-.41-1.49s.74-.62.92-.13a1.43,1.43,0,0,1-.51,1.62m2.65-6.91a33.67,33.67,0,0,1-5.83,2.2v9.6a33.9,33.9,0,0,0,5.82-2.19l0-9.61"/><path d="M254,217.53c-.73.33-.77,1.76-.24,1.93s1.06-1.13.68-1.75a.34.34,0,0,0-.44-.18"/><path class="cls-2" d="M254,229.06c-.59.17-.78-.8-.42-1.49s.74-.62.92-.13a1.44,1.44,0,0,1-.5,1.62m2.64-6.91a33.9,33.9,0,0,1-5.82,2.19l0,9.61a33,33,0,0,0,5.82-2.2l0-9.6"/><path d="M254,227.13c-.72.33-.77,1.77-.23,1.94s1-1,.7-1.7a.37.37,0,0,0-.47-.24"/><path class="cls-2" d="M254,238.67c-.59.17-.77-.81-.42-1.49s.74-.63.92-.13a1.45,1.45,0,0,1-.5,1.62m2.64-6.92a33,33,0,0,1-5.82,2.2l0,9.6a34,34,0,0,0,5.83-2.19v-9.61"/><path d="M254,236.74c-.72.33-.77,1.77-.23,1.94s1-1,.71-1.7c-.11-.23-.28-.32-.48-.24"/><path class="cls-2" d="M254,248.27c-.59.17-.77-.8-.42-1.48s.75-.62.93-.13a1.45,1.45,0,0,1-.51,1.61m2.65-6.91a34,34,0,0,1-5.83,2.19l0,9.61a32.87,32.87,0,0,0,5.83-2.2l0-9.6"/><path d="M254,246.35c-.72.33-.76,1.76-.23,1.93s1-1,.71-1.69a.37.37,0,0,0-.48-.24"/><path class="cls-2" d="M253.94,257.88c-.59.17-.77-.8-.42-1.49s.75-.62.93-.13a1.45,1.45,0,0,1-.51,1.62m2.64-.73V251a32.87,32.87,0,0,1-5.83,2.2v6.18a33.72,33.72,0,0,0,5.83-2.19"/><path d="M254,256c-.73.33-.77,1.76-.24,1.93s1-1,.71-1.7c-.11-.22-.28-.31-.47-.23"/><path class="cls-2" d="M247.21,163.79c-.79.12-1-.86-.56-1.52s1.21-.52,1.34.19a1.2,1.2,0,0,1-.78,1.33m3.71,2.91,0-8.77a69,69,0,0,1-7.94,1.73l0,8.76a68.61,68.61,0,0,0,7.94-1.72"/><path d="M247.21,161.87c-.88.24-1.06,1.49-.45,1.85s1.43-.52,1.21-1.35a.63.63,0,0,0-.76-.5"/><path class="cls-2" d="M247.19,173.4c-.79.12-1-.87-.56-1.52s1.22-.52,1.34.19a1.2,1.2,0,0,1-.78,1.33m3.73-6.7a68.61,68.61,0,0,1-7.94,1.72l0,9.61a68.48,68.48,0,0,0,7.94-1.73l0-9.6"/><path d="M247.19,171.48a1.09,1.09,0,0,0-.45,1.85c.63.37,1.43-.52,1.21-1.35a.62.62,0,0,0-.76-.5"/><path class="cls-2" d="M247.17,183c-.78.12-1-.86-.56-1.51s1.22-.53,1.34.19a1.18,1.18,0,0,1-.78,1.32m3.73-6.7A68.48,68.48,0,0,1,243,178l0,9.61a70.84,70.84,0,0,0,7.95-1.73V176.3"/><path d="M247.18,181.08c-.88.25-1.06,1.49-.45,1.85s1.42-.52,1.2-1.34a.63.63,0,0,0-.75-.51"/><path class="cls-2" d="M247.15,192.61c-.78.12-1-.87-.56-1.52s1.22-.52,1.34.19a1.19,1.19,0,0,1-.78,1.33m3.74-6.7a70.84,70.84,0,0,1-7.95,1.73v9.61a69,69,0,0,0,7.94-1.73l0-9.61"/><path d="M247.16,190.69a1.09,1.09,0,0,0-.45,1.85c.62.37,1.42-.52,1.2-1.35a.62.62,0,0,0-.75-.5"/><path class="cls-2" d="M247.14,202.21c-.79.12-1-.86-.57-1.51s1.22-.53,1.34.19a1.18,1.18,0,0,1-.77,1.32m3.73-6.69a69,69,0,0,1-7.94,1.73l0,9.61a70.63,70.63,0,0,0,7.94-1.73l0-9.61"/><path d="M247.14,200.29c-.88.25-1.06,1.49-.45,1.85s1.43-.52,1.21-1.34a.64.64,0,0,0-.76-.51"/><path class="cls-2" d="M247.12,211.82c-.79.12-1-.86-.56-1.52s1.21-.52,1.34.19a1.17,1.17,0,0,1-.78,1.33m3.73-6.69a70.63,70.63,0,0,1-7.94,1.73l0,9.6a68.61,68.61,0,0,0,7.94-1.72l0-9.61"/><path d="M247.12,209.9c-.86.24-1,1.5-.45,1.85s1.43-.52,1.21-1.34a.63.63,0,0,0-.76-.51"/><path class="cls-2" d="M247.1,221.42c-.78.13-1-.86-.56-1.51s1.22-.53,1.34.19a1.17,1.17,0,0,1-.78,1.32m3.73-6.68a68.61,68.61,0,0,1-7.94,1.72l0,9.61a71.33,71.33,0,0,0,7.95-1.73v-9.6"/><path d="M247.1,219.5c-.86.25-1,1.51-.44,1.86s1.42-.53,1.2-1.35a.64.64,0,0,0-.76-.51"/><path class="cls-2" d="M247.08,231c-.78.12-1-.87-.56-1.53s1.22-.52,1.34.19a1.2,1.2,0,0,1-.78,1.34m3.74-6.7a71.33,71.33,0,0,1-7.95,1.73l0,9.6a68.81,68.81,0,0,0,8-1.72l0-9.61"/><path d="M247.09,229.11a1.1,1.1,0,0,0-.45,1.86c.63.38,1.42-.52,1.2-1.35a.62.62,0,0,0-.75-.51"/><path class="cls-2" d="M247.07,240.64c-.79.13-1-.86-.57-1.52s1.22-.52,1.34.2a1.18,1.18,0,0,1-.77,1.32M250.8,234a68.81,68.81,0,0,1-8,1.72v9.61a68.48,68.48,0,0,0,7.94-1.73l0-9.6"/><path d="M247.07,238.72a1.1,1.1,0,0,0-.45,1.86c.62.37,1.42-.53,1.2-1.35a.62.62,0,0,0-.75-.51"/><path class="cls-2" d="M247.05,250.25c-.79.12-1-.86-.57-1.52s1.22-.52,1.35.19a1.2,1.2,0,0,1-.78,1.33m3.73-6.7a68.48,68.48,0,0,1-7.94,1.73l0,9.6a68.61,68.61,0,0,0,7.94-1.72l0-9.61"/><path d="M247.05,248.33c-.88.24-1.06,1.49-.45,1.85s1.43-.52,1.21-1.35a.63.63,0,0,0-.76-.5"/><path class="cls-2" d="M247,259.86c-.79.12-1-.87-.56-1.52s1.22-.53,1.34.19a1.2,1.2,0,0,1-.78,1.33m3.72-.52v-6.18a68.61,68.61,0,0,1-7.94,1.72v6.19a70.63,70.63,0,0,0,7.94-1.73"/><path d="M247,257.94a1.09,1.09,0,0,0-.45,1.85c.63.37,1.43-.53,1.21-1.35a.63.63,0,0,0-.76-.5"/><path class="cls-2" d="M238.3,165.23a.94.94,0,1,1,1-1.08,1.12,1.12,0,0,1-1,1.08m4.68,3.19,0-8.76-2.52.37c-2.29.31-4.65.54-7,.71v8.77c2.38-.17,4.73-.41,7-.71.87-.12,1.7-.24,2.52-.38"/><path d="M238.31,163.31a1,1,0,0,0-.62,1.76,1,1,0,0,0,1.55-1.11.81.81,0,0,0-.93-.65"/><path class="cls-2" d="M238.29,174.83a.94.94,0,1,1,1-1.07,1.11,1.11,0,0,1-1,1.07m4.69-6.41c-.82.14-1.65.26-2.52.38-2.29.3-4.64.54-7,.71l0,9.61c2.38-.17,4.73-.41,7-.72.87-.11,1.71-.24,2.52-.37l0-9.61"/><path d="M238.29,172.91a1,1,0,0,0-.61,1.77,1.05,1.05,0,0,0,1.55-1.11.83.83,0,0,0-.94-.66"/><path class="cls-2" d="M238.27,184.44a.94.94,0,1,1,1-1.08,1.11,1.11,0,0,1-1,1.08M243,178c-.81.13-1.65.26-2.52.37-2.29.31-4.64.55-7,.72l0,9.6c2.38-.17,4.73-.4,7-.71.86-.12,1.7-.24,2.51-.37l0-9.61"/><path d="M238.27,182.52a1,1,0,0,0-.61,1.76,1,1,0,0,0,1.55-1.11.82.82,0,0,0-.94-.65"/><path class="cls-2" d="M238.25,194a.94.94,0,1,1,1-1.07,1.11,1.11,0,0,1-1,1.07m4.69-6.4c-.81.13-1.65.25-2.51.37-2.3.31-4.65.54-7,.71l0,9.62c2.38-.17,4.74-.41,7-.72.86-.11,1.7-.24,2.52-.37v-9.61"/><path d="M238.25,192.12a1,1,0,0,0-.61,1.77,1,1,0,0,0,1.55-1.11.83.83,0,0,0-.94-.66"/><path class="cls-2" d="M238.23,203.65a.94.94,0,1,1,1-1.08,1.11,1.11,0,0,1-1,1.08m4.7-6.4c-.82.13-1.66.26-2.52.37-2.29.31-4.65.55-7,.72v9.6c2.38-.17,4.73-.4,7-.71l2.52-.37,0-9.61"/><path d="M238.24,201.73a1,1,0,0,0-.62,1.77,1.05,1.05,0,0,0,1.55-1.12.82.82,0,0,0-.93-.65"/><path class="cls-2" d="M238.21,213.25a.94.94,0,1,1,1-1.07,1.09,1.09,0,0,1-1,1.07m4.7-6.39-2.52.37c-2.29.31-4.64.54-7,.71l0,9.61c2.38-.17,4.73-.41,7-.72.87-.11,1.71-.24,2.52-.37l0-9.6"/><path d="M238.22,211.33a1,1,0,0,0-.62,1.77,1,1,0,0,0,1.55-1.11.82.82,0,0,0-.93-.66"/><path class="cls-2" d="M238.2,222.86a.94.94,0,1,1,1-1.07,1.09,1.09,0,0,1-1,1.07m4.69-6.4c-.81.13-1.65.26-2.52.37-2.29.31-4.64.55-7,.72l0,9.6c2.38-.17,4.73-.4,7-.71.86-.12,1.7-.24,2.51-.37l0-9.61"/><path d="M238.2,220.94a1,1,0,0,0-.61,1.77,1.05,1.05,0,0,0,1.55-1.11.83.83,0,0,0-.94-.66"/><path class="cls-2" d="M238.18,232.47a.94.94,0,1,1,1-1.08,1.11,1.11,0,0,1-1,1.08m4.69-6.4c-.81.13-1.65.25-2.51.37-2.3.31-4.65.54-7,.71l0,9.61c2.38-.17,4.73-.41,7-.72.86-.11,1.7-.24,2.51-.37l0-9.6"/><path d="M238.18,230.54a1,1,0,0,0-.61,1.78,1,1,0,0,0,1.55-1.12.83.83,0,0,0-.94-.66"/><path class="cls-2" d="M238.16,242.08a.95.95,0,1,1,1-1.17,1.1,1.1,0,0,1-1,1.17m4.69-6.41c-.81.13-1.65.26-2.51.37-2.3.31-4.65.55-7,.72v9.6c2.37-.17,4.73-.4,7-.71l2.52-.37v-9.61"/><path d="M238.16,240.15a1,1,0,0,0-.61,1.78,1.05,1.05,0,0,0,1.55-1.12.83.83,0,0,0-.94-.66"/><path class="cls-2" d="M238.14,251.68a.94.94,0,1,1,1-1.07,1.11,1.11,0,0,1-1,1.07m4.7-6.4-2.52.37c-2.29.31-4.65.54-7,.71l0,9.61c2.38-.17,4.73-.41,7-.72.86-.11,1.7-.24,2.52-.37l0-9.6"/><path d="M238.15,249.77a1,1,0,0,0-.62,1.76,1,1,0,0,0,1.55-1.11.81.81,0,0,0-.93-.65"/><path class="cls-2" d="M238.12,261.29a.94.94,0,1,1,1-1.07,1.11,1.11,0,0,1-1,1.07m4.69-.22v-6.19c-.82.13-1.66.26-2.52.37-2.29.31-4.64.55-7,.72v6.18c2.37-.17,4.73-.4,7-.71l2.52-.37"/><path d="M238.13,259.37a1,1,0,0,0-.62,1.77,1.05,1.05,0,0,0,1.55-1.12.82.82,0,0,0-.93-.65"/><path class="cls-2" d="M228.5,165.92a.94.94,0,0,1-.69-1.62,1,1,0,0,1,1.68.63,1,1,0,0,1-1,1m4.94,3.59v-8.77c-3.27.24-6.59.34-9.88.32,0,2.63,0,6.14,0,8.77,3.29,0,6.61-.09,9.89-.32"/><path d="M228.51,164a1,1,0,0,0-.64,1.72,1,1,0,0,0,1.62-.89.94.94,0,0,0-1-.83"/><path class="cls-2" d="M228.48,175.53a.94.94,0,0,1-.69-1.62,1,1,0,0,1,1.69.62,1,1,0,0,1-1,1m5-6c-3.28.23-6.6.33-9.89.32l0,9.6c3.29,0,6.62-.08,9.89-.31l0-9.61"/><path d="M228.49,173.61a1,1,0,0,0-.63,1.72,1,1,0,0,0,1.61-.89.93.93,0,0,0-1-.83"/><path class="cls-2" d="M228.47,185.14a.94.94,0,0,1-.7-1.62,1,1,0,0,1,1.69.62,1,1,0,0,1-1,1m4.95-6c-3.27.23-6.6.33-9.89.31l0,9.61c3.29,0,6.62-.09,9.89-.32l0-9.6"/><path d="M228.47,183.22a1,1,0,0,0-.63,1.71,1,1,0,0,0,1.61-.89.92.92,0,0,0-1-.82"/><path class="cls-2" d="M228.45,194.74a.94.94,0,0,1-.7-1.62,1,1,0,0,1,1.69.63,1,1,0,0,1-1,1m5-6c-3.27.23-6.6.34-9.89.32v9.61c3.29,0,6.61-.08,9.88-.31l0-9.62"/><path d="M228.45,192.82a1,1,0,0,0-.63,1.72,1,1,0,0,0,1.62-.89.94.94,0,0,0-1-.83"/><path class="cls-2" d="M228.43,204.35a.94.94,0,0,1-.7-1.62,1,1,0,0,1,1.69.62,1,1,0,0,1-1,1m4.95-6c-3.27.23-6.59.33-9.88.31l0,9.61c3.29,0,6.61-.09,9.89-.32v-9.6"/><path d="M228.43,202.43a1,1,0,0,0-.63,1.71,1,1,0,0,0,1.62-.89.94.94,0,0,0-1-.82"/><path class="cls-2" d="M228.41,214a.94.94,0,0,1-.69-1.62,1,1,0,0,1,1.68.63,1,1,0,0,1-1,1m5-6c-3.28.23-6.6.34-9.89.32l0,9.6c3.29,0,6.61-.08,9.89-.31l0-9.61"/><path d="M228.42,212a1,1,0,0,0-.71,1.66,1,1,0,0,0,1.69-.73.93.93,0,0,0-1-.93"/><path class="cls-2" d="M228.39,223.56a.94.94,0,0,1-.69-1.62,1,1,0,0,1,1.69.62,1,1,0,0,1-1,1m5-6c-3.28.23-6.6.33-9.89.31l0,9.61c3.29,0,6.62-.09,9.89-.32l0-9.6"/><path d="M228.4,221.64a1,1,0,0,0-.7,1.66,1,1,0,0,0,1.69-.74.93.93,0,0,0-1-.92"/><path class="cls-2" d="M228.38,233.17a.94.94,0,0,1-.7-1.62,1,1,0,0,1,1.69.62,1,1,0,0,1-1,1m5-6c-3.27.23-6.6.34-9.89.32l0,9.6c3.29,0,6.62-.08,9.89-.31l0-9.61"/><path d="M228.38,231.24a1,1,0,0,0-.63,1.73,1,1,0,0,0,1.61-.9.94.94,0,0,0-1-.83"/><path class="cls-2" d="M228.36,242.78a1,1,0,0,1-.7-1.63,1,1,0,0,1,1.69.63,1,1,0,0,1-1,1m4.95-6c-3.27.23-6.6.33-9.89.31v9.61c3.29,0,6.61-.08,9.89-.32v-9.6"/><path d="M228.36,240.85a1,1,0,0,0-.63,1.73,1,1,0,0,0,1.62-.9.94.94,0,0,0-1-.83"/><path class="cls-2" d="M228.34,252.38a.94.94,0,0,1-.69-1.62,1,1,0,0,1,1.68.63,1,1,0,0,1-1,1m5-6c-3.28.24-6.6.34-9.89.32l0,9.61c3.29,0,6.61-.09,9.89-.32l0-9.61"/><path d="M228.35,250.46a1,1,0,0,0-.64,1.72,1,1,0,0,0,1.62-.89.94.94,0,0,0-1-.83"/><path class="cls-2" d="M228.32,262a.94.94,0,0,1-.69-1.62,1,1,0,0,1,1.69.62,1,1,0,0,1-1,1m5,.16V256c-3.28.23-6.6.33-9.89.32,0,1.85,0,4.32,0,6.18,3.29,0,6.61-.09,9.89-.32"/><path d="M228.33,260.07a1,1,0,0,0-.63,1.72,1,1,0,0,0,1.61-.9.93.93,0,0,0-1-.82"/><path class="cls-2" d="M218.65,165.87a1,1,0,0,1-.61-1.73,1,1,0,0,1,1.58.91.93.93,0,0,1-1,.82m4.9,4,0-8.77c-3.29,0-6.55-.16-9.68-.41l0,8.77c3.14.25,6.39.39,9.68.41"/><path d="M218.66,164a.93.93,0,0,0-.69,1.61,1,1,0,0,0,1.66-.61,1,1,0,0,0-1-1"/><path class="cls-2" d="M218.64,175.48a1,1,0,0,1-.61-1.73,1,1,0,0,1,1.57.9.92.92,0,0,1-1,.83m4.91-5.65c-3.29,0-6.54-.16-9.68-.41l0,9.6c3.14.26,6.39.39,9.68.41l0-9.6"/><path d="M218.64,173.56a.93.93,0,0,0-.69,1.6,1,1,0,0,0,1.66-.61,1,1,0,0,0-1-1"/><path class="cls-2" d="M218.62,185.08a1,1,0,0,1-.61-1.72,1,1,0,0,1,1.58.9.93.93,0,0,1-1,.82m4.91-5.65c-3.29,0-6.54-.15-9.68-.41l0,9.61c3.14.25,6.39.39,9.68.41l0-9.61"/><path d="M218.62,183.16a.93.93,0,0,0-.68,1.61,1,1,0,0,0,1.65-.61,1,1,0,0,0-1-1"/><path class="cls-2" d="M218.6,194.69A1,1,0,0,1,218,193a1,1,0,0,1,1.58.9.93.93,0,0,1-1,.83m4.91-5.65c-3.29,0-6.54-.16-9.68-.41v9.61c3.13.26,6.39.39,9.68.41V189"/><path d="M218.6,192.77a.93.93,0,0,0-.68,1.6.94.94,0,0,0,1.65-.6,1,1,0,0,0-1-1"/><path class="cls-2" d="M218.58,204.29a1,1,0,0,1-.61-1.72,1,1,0,0,1,1.58.9.93.93,0,0,1-1,.82m4.92-5.64c-3.29,0-6.55-.15-9.68-.41l0,9.61c3.13.25,6.39.39,9.68.41l0-9.61"/><path d="M218.59,202.37a.93.93,0,0,0-.69,1.61,1,1,0,0,0,1.66-.61,1,1,0,0,0-1-1"/><path class="cls-2" d="M218.57,213.9a1,1,0,0,1-.62-1.73,1,1,0,0,1,1.58.91.92.92,0,0,1-1,.82m4.91-5.64c-3.29,0-6.55-.16-9.68-.41l0,9.6c3.14.26,6.39.4,9.68.41l0-9.6"/><path d="M218.57,212a.94.94,0,0,0-.69,1.61,1,1,0,0,0,1.66-.61,1,1,0,0,0-1-1"/><path class="cls-2" d="M218.55,223.5a1,1,0,0,1-.61-1.72,1,1,0,0,1,1.58.9.93.93,0,0,1-1,.82m4.91-5.64c-3.29,0-6.54-.15-9.68-.41l0,9.61c3.14.25,6.39.39,9.68.41l0-9.61"/><path d="M218.55,221.58a1,1,0,1,0,1,1,1,1,0,0,0-1-1"/><path class="cls-2" d="M218.53,233.12a1,1,0,0,1-.61-1.74,1,1,0,0,1,1.58.91.94.94,0,0,1-1,.83m4.91-5.65c-3.29,0-6.54-.16-9.68-.41v9.61c3.13.25,6.39.39,9.67.4l0-9.6"/><path d="M218.53,231.19a.93.93,0,0,0-.68,1.61.94.94,0,0,0,1.65-.61,1,1,0,0,0-1-1"/><path class="cls-2" d="M218.51,242.72a1,1,0,0,1-.61-1.73,1,1,0,0,1,1.58.91.92.92,0,0,1-1,.82m4.91-5.65c-3.28,0-6.54-.15-9.67-.4l0,9.6c3.13.25,6.39.39,9.68.41v-9.61"/><path d="M218.52,240.8a1,1,0,1,0,1,1,1,1,0,0,0-1-1"/><path class="cls-2" d="M218.49,252.33a1,1,0,0,1-.61-1.73,1,1,0,0,1,1.58.91.93.93,0,0,1-1,.82m4.92-5.65c-3.29,0-6.55-.16-9.68-.41l0,9.61c3.13.25,6.39.39,9.68.41l0-9.61"/><path d="M218.5,250.41a.93.93,0,0,0-.69,1.61,1,1,0,0,0,1.66-.61,1,1,0,0,0-1-1"/><path class="cls-2" d="M218.48,261.94a1,1,0,0,1-.61-1.73,1,1,0,0,1,1.57.9.93.93,0,0,1-1,.83m4.9.53c0-1.86,0-4.33,0-6.18-3.29,0-6.55-.16-9.68-.41v6.18c3.13.25,6.39.39,9.68.41"/><path d="M218.48,260a.93.93,0,0,0-.69,1.6,1,1,0,0,0,1.66-.61,1,1,0,0,0-1-1"/><path class="cls-2" d="M209.27,165.12a1,1,0,0,1-.56-1.78c.61-.46,1.54.18,1.46,1a.82.82,0,0,1-.9.76m4.6,4.3,0-8.77c-3.14-.25-6.16-.62-9-1.09l0,8.77c2.81.47,5.83.84,9,1.09"/><path d="M209.27,163.2c-.88-.06-1.15.93-.63,1.56a.84.84,0,0,0,1.53-.4,1.07,1.07,0,0,0-.9-1.16"/><path class="cls-2" d="M209.25,174.72a1,1,0,0,1-.56-1.77c.61-.47,1.55.18,1.46,1a.8.8,0,0,1-.9.75m4.62-5.3c-3.14-.25-6.16-.62-9-1.09l0,9.61c2.82.47,5.83.83,9,1.08l0-9.6"/><path d="M209.26,172.8c-.88-.06-1.16.93-.64,1.56a.83.83,0,0,0,1.53-.39,1.08,1.08,0,0,0-.89-1.17"/><path class="cls-2" d="M209.24,184.33a1,1,0,0,1-.57-1.77c.62-.47,1.55.17,1.46,1a.81.81,0,0,1-.89.76m4.61-5.31c-3.14-.25-6.15-.61-9-1.08l0,9.6c2.82.47,5.84.84,9,1.09l0-9.61"/><path d="M209.24,182.41c-.88-.06-1.16.93-.64,1.56a.83.83,0,0,0,1.53-.4,1.07,1.07,0,0,0-.89-1.16"/><path class="cls-2" d="M209.22,193.93a1,1,0,0,1-.57-1.77c.62-.47,1.55.18,1.47,1a.81.81,0,0,1-.9.75m4.61-5.3c-3.13-.25-6.15-.62-9-1.09v9.62c2.81.47,5.83.83,9,1.08v-9.61"/><path d="M209.22,192c-.88,0-1.15.93-.63,1.56a.83.83,0,0,0,1.53-.39,1.1,1.1,0,0,0-.9-1.17"/><path class="cls-2" d="M209.2,203.54a1,1,0,0,1-.57-1.77c.62-.47,1.55.17,1.47,1a.82.82,0,0,1-.9.76m4.62-5.3c-3.14-.25-6.16-.61-9-1.08l0,9.6c2.81.47,5.83.84,9,1.09l0-9.61"/><path d="M209.2,201.62c-.88-.06-1.15.93-.63,1.56a.83.83,0,0,0,1.53-.4,1.08,1.08,0,0,0-.9-1.16"/><path class="cls-2" d="M209.18,213.14a1,1,0,0,1-.56-1.77c.61-.46,1.54.18,1.46,1a.8.8,0,0,1-.9.75m4.62-5.29c-3.14-.25-6.16-.62-9-1.09l0,9.61c2.81.47,5.83.83,9,1.08l0-9.6"/><path d="M209.19,211.23c-.87-.06-1.15.94-.64,1.56a.84.84,0,0,0,1.53-.4,1.07,1.07,0,0,0-.89-1.16"/><path class="cls-2" d="M209.16,222.75a1,1,0,0,1-.56-1.77c.62-.47,1.55.18,1.46,1a.8.8,0,0,1-.9.76m4.62-5.3c-3.14-.25-6.16-.61-9-1.08l0,9.6c2.82.47,5.83.84,9,1.09l0-9.61"/><path d="M209.17,220.83a.91.91,0,0,0-.64,1.56.83.83,0,0,0,1.53-.4,1.07,1.07,0,0,0-.89-1.16"/><path class="cls-2" d="M209.15,232.36a1,1,0,0,1-.57-1.77c.62-.47,1.55.17,1.46,1a.8.8,0,0,1-.89.76m4.61-5.3c-3.14-.25-6.15-.62-9-1.09v9.61c2.81.47,5.83.83,9,1.09v-9.61"/><path d="M209.15,230.44c-.88-.06-1.16.93-.63,1.56a.83.83,0,0,0,1.52-.4,1.07,1.07,0,0,0-.89-1.16"/><path class="cls-2" d="M209.13,242a1,1,0,0,1-.57-1.78c.62-.47,1.55.18,1.47,1a.82.82,0,0,1-.9.76m4.62-5.3c-3.14-.26-6.16-.62-9-1.09l0,9.6c2.81.47,5.83.84,9,1.09l0-9.6"/><path d="M209.13,240c-.86-.06-1.14,1-.63,1.57a.83.83,0,0,0,1.53-.4,1.1,1.1,0,0,0-.9-1.17"/><path class="cls-2" d="M209.11,251.58a1,1,0,0,1-.56-1.78c.61-.46,1.54.18,1.46,1a.82.82,0,0,1-.9.76m4.62-5.31c-3.14-.25-6.16-.62-9-1.09l0,9.61c2.81.47,5.83.83,9,1.09l0-9.61"/><path d="M209.11,249.66c-.88-.06-1.15.93-.63,1.56a.84.84,0,0,0,1.53-.4,1.07,1.07,0,0,0-.9-1.16"/><path class="cls-2" d="M209.09,261.18a1,1,0,0,1-.56-1.77c.61-.47,1.54.18,1.46,1a.81.81,0,0,1-.9.76m4.61.88v-6.18c-3.14-.26-6.16-.62-9-1.09V261c2.81.47,5.83.84,9,1.09"/><path d="M209.1,259.26c-.88-.06-1.16.93-.64,1.56a.83.83,0,0,0,1.53-.4,1.08,1.08,0,0,0-.89-1.16"/><path class="cls-2" d="M200.86,163.71a1.11,1.11,0,0,1-.43-1.85c.61-.37,1.4.53,1.18,1.34a.65.65,0,0,1-.75.51m4,4.62,0-8.77a69.52,69.52,0,0,1-7.74-1.71v8.77a68.82,68.82,0,0,0,7.73,1.71"/><path d="M200.86,161.79c-.75-.12-1,.85-.54,1.52s1.18.53,1.31-.2a1.18,1.18,0,0,0-.77-1.32"/><path class="cls-2" d="M200.84,173.32a1.13,1.13,0,0,1-.42-1.86c.6-.37,1.39.53,1.17,1.34a.64.64,0,0,1-.75.52m4.06-5a66.6,66.6,0,0,1-7.73-1.72l0,9.61a69.24,69.24,0,0,0,7.73,1.72l0-9.61"/><path d="M200.85,171.4c-.76-.12-1,.85-.55,1.51s1.18.53,1.31-.2a1.17,1.17,0,0,0-.76-1.31"/><path class="cls-2" d="M200.82,182.92a1.12,1.12,0,0,1-.42-1.85c.6-.38,1.39.52,1.17,1.34a.64.64,0,0,1-.75.51m4.06-5a69.24,69.24,0,0,1-7.73-1.72l0,9.61a69.32,69.32,0,0,0,7.73,1.71l0-9.6"/><path d="M200.83,181c-.76-.12-1,.85-.55,1.52s1.18.53,1.31-.2a1.18,1.18,0,0,0-.76-1.32"/><path class="cls-2" d="M200.81,192.53a1.12,1.12,0,0,1-.43-1.85c.61-.38,1.4.52,1.17,1.33a.64.64,0,0,1-.74.52m4.05-5a69.32,69.32,0,0,1-7.73-1.71l0,9.61a69.44,69.44,0,0,0,7.74,1.72v-9.62"/><path d="M200.81,190.61c-.76-.12-1,.85-.55,1.51s1.18.53,1.31-.2a1.16,1.16,0,0,0-.76-1.31"/><path class="cls-2" d="M200.79,202.13a1.12,1.12,0,0,1-.43-1.85c.61-.37,1.4.53,1.18,1.34a.64.64,0,0,1-.75.51m4.06-5a69.44,69.44,0,0,1-7.74-1.72v9.61a68.82,68.82,0,0,0,7.73,1.71l0-9.6"/><path d="M200.79,200.21c-.75-.12-1,.85-.54,1.52s1.18.53,1.31-.2a1.18,1.18,0,0,0-.77-1.32"/><path class="cls-2" d="M200.77,211.74a1.12,1.12,0,0,1-.43-1.85c.61-.38,1.4.52,1.18,1.34a.64.64,0,0,1-.75.51m4.06-5a68.82,68.82,0,0,1-7.73-1.71l0,9.6a69.24,69.24,0,0,0,7.73,1.72l0-9.61"/><path d="M200.77,209.82c-.76-.12-1,.85-.54,1.52s1.18.51,1.31-.2a1.18,1.18,0,0,0-.77-1.32"/><path class="cls-2" d="M200.75,221.34a1.12,1.12,0,0,1-.42-1.85c.6-.37,1.39.53,1.17,1.34a.63.63,0,0,1-.75.51m4.06-5a69.24,69.24,0,0,1-7.73-1.72l0,9.61a69.32,69.32,0,0,0,7.73,1.71l0-9.6"/><path d="M200.76,219.42c-.76-.12-1,.86-.55,1.52s1.18.52,1.31-.2a1.18,1.18,0,0,0-.76-1.32"/><path class="cls-2" d="M200.74,231a1.12,1.12,0,0,1-.43-1.86c.6-.38,1.39.53,1.17,1.34a.64.64,0,0,1-.74.52m4-5a69.32,69.32,0,0,1-7.73-1.71l0,9.6a69.44,69.44,0,0,0,7.74,1.72V226"/><path d="M200.74,229c-.78-.12-1,.95-.49,1.6a.67.67,0,0,0,1.26-.37,1.16,1.16,0,0,0-.77-1.23"/><path class="cls-2" d="M200.72,240.56a1.13,1.13,0,0,1-.43-1.86c.61-.38,1.4.53,1.17,1.35a.62.62,0,0,1-.74.51m4.06-5a69.44,69.44,0,0,1-7.74-1.72v9.61a68.82,68.82,0,0,0,7.73,1.71l0-9.6"/><path d="M200.72,238.64c-.76-.13-1,.85-.55,1.52s1.18.53,1.31-.2a1.15,1.15,0,0,0-.76-1.32"/><path class="cls-2" d="M200.7,250.17a1.11,1.11,0,0,1-.43-1.85c.61-.37,1.4.53,1.18,1.33a.65.65,0,0,1-.75.52m4.06-5a68.82,68.82,0,0,1-7.73-1.71l0,9.6a68.74,68.74,0,0,0,7.73,1.72l0-9.61"/><path d="M200.7,248.25c-.75-.12-1,.85-.54,1.51s1.18.54,1.31-.19a1.18,1.18,0,0,0-.77-1.32"/><path class="cls-2" d="M200.68,259.77a1.12,1.12,0,0,1-.43-1.85c.61-.37,1.4.53,1.18,1.34a.63.63,0,0,1-.75.51m4,1.2v-6.18a68.74,68.74,0,0,1-7.73-1.72v6.19a68.82,68.82,0,0,0,7.73,1.71"/><path d="M200.69,257.86c-.76-.13-1,.84-.55,1.51s1.18.53,1.31-.2a1.16,1.16,0,0,0-.76-1.31"/><path class="cls-2" d="M193.93,161.7c-.71-.33-.76-1.78-.23-1.93s1.08,1,.74,1.69a.39.39,0,0,1-.51.24m3.24,4.91v-8.76a33.88,33.88,0,0,1-6-2.29l0,8.76a33.24,33.24,0,0,0,6,2.29"/><path d="M193.94,159.78c-.65-.19-.74.94-.39,1.55s.78.53.95,0a1.39,1.39,0,0,0-.56-1.54"/><path class="cls-2" d="M193.91,171.31c-.71-.34-.76-1.79-.23-1.94s1.08,1,.74,1.7a.41.41,0,0,1-.51.24m3.26-4.7a33.24,33.24,0,0,1-6-2.29v9.61a33.58,33.58,0,0,0,6,2.29l0-9.6"/><path d="M193.92,169.39c-.65-.2-.74.93-.38,1.55s.77.52.94,0a1.38,1.38,0,0,0-.56-1.54"/><path class="cls-2" d="M193.9,180.91c-.71-.33-.76-1.78-.23-1.93s1.07,1,.73,1.7a.38.38,0,0,1-.5.23m3.25-4.69a33.58,33.58,0,0,1-6-2.29l0,9.6a33.09,33.09,0,0,0,6,2.3l0-9.61"/><path d="M193.9,179c-.64-.19-.73.94-.38,1.55s.78.53.94,0a1.42,1.42,0,0,0-.56-1.54"/><path class="cls-2" d="M193.88,190.52c-.71-.33-.76-1.78-.23-1.94s1.08,1,.73,1.7a.4.4,0,0,1-.5.24m3.25-4.69a33.09,33.09,0,0,1-6-2.3l0,9.62a33.88,33.88,0,0,0,6,2.29l0-9.61"/><path d="M193.88,188.6c-.64-.2-.73.93-.38,1.55s.78.52.94,0a1.4,1.4,0,0,0-.56-1.54"/><path class="cls-2" d="M193.86,200.12c-.71-.33-.75-1.78-.23-1.93s1.08,1,.74,1.7a.4.4,0,0,1-.51.23m3.25-4.68a33.88,33.88,0,0,1-6-2.29l0,9.6a32.93,32.93,0,0,0,6,2.3v-9.61"/><path d="M193.86,198.2c-.64-.19-.73.94-.38,1.55s.78.53.94,0a1.4,1.4,0,0,0-.56-1.54"/><path class="cls-2" d="M193.84,209.73c-.71-.33-.75-1.78-.23-1.94s1.08,1.05.74,1.71a.41.41,0,0,1-.51.23m3.26-4.68a32.93,32.93,0,0,1-6-2.3v9.61a33.58,33.58,0,0,0,6,2.29l0-9.6"/><path d="M193.85,207.81c-.65-.2-.74.94-.39,1.55s.78.53.95,0a1.41,1.41,0,0,0-.56-1.54"/><path class="cls-2" d="M193.83,219.33c-.71-.32-.76-1.78-.24-1.93s1.08,1,.74,1.7a.38.38,0,0,1-.5.23m3.25-4.68a33.58,33.58,0,0,1-6-2.29l0,9.6a33.09,33.09,0,0,0,6,2.3l0-9.61"/><path d="M193.83,217.41c-.65-.19-.74.94-.38,1.56s.78.52.94,0a1.42,1.42,0,0,0-.56-1.55"/><path class="cls-2" d="M193.81,229c-.71-.33-.76-1.79-.23-1.94s1.07,1,.73,1.7a.4.4,0,0,1-.5.24m3.25-4.69a33.09,33.09,0,0,1-6-2.3l0,9.61a33.12,33.12,0,0,0,6,2.29l0-9.6"/><path d="M193.81,227c-.64-.19-.73.94-.38,1.56s.78.53.94,0a1.4,1.4,0,0,0-.56-1.55"/><path class="cls-2" d="M193.79,238.55c-.71-.32-.76-1.78-.23-1.94s1.08,1,.74,1.71a.4.4,0,0,1-.51.23m3.25-4.69a33.12,33.12,0,0,1-6-2.29l0,9.61a33.7,33.7,0,0,0,6,2.29v-9.61"/><path d="M193.79,236.63c-.64-.2-.73.94-.38,1.56s.78.52.94,0a1.4,1.4,0,0,0-.56-1.55"/><path class="cls-2" d="M193.77,248.16c-.71-.33-.76-1.78-.23-1.94s1.08,1.05.74,1.7a.4.4,0,0,1-.51.24m3.26-4.69a33.7,33.7,0,0,1-6-2.29l0,9.6a33.24,33.24,0,0,0,6,2.29l0-9.6"/><path d="M193.78,246.24c-.65-.2-.74.93-.39,1.55s.78.53.94,0a1.37,1.37,0,0,0-.55-1.54"/><path class="cls-2" d="M193.75,257.76c-.71-.33-.76-1.78-.23-1.93s1.08,1,.74,1.7a.4.4,0,0,1-.51.23m3.25,1.5v-6.19a33.24,33.24,0,0,1-6-2.29V257a32.93,32.93,0,0,0,6,2.3"/><path d="M193.76,255.85c-.65-.2-.74.93-.39,1.55s.78.52.95,0a1.38,1.38,0,0,0-.56-1.54"/><path class="cls-2" d="M189,159.16c-.45-.4-.43-1.93-.1-2s.66,1.59.31,2a.15.15,0,0,1-.21,0m2.14,5.16,0-8.76-.65-.36a10.07,10.07,0,0,1-2.94-2.33c0,2.63,0,6.14,0,8.77a10.07,10.07,0,0,0,2.94,2.33l.65.35"/><path d="M189,157.24c-.35-.22-.43.7-.28,1.36s.37.76.53.47a2,2,0,0,0-.25-1.83"/><path class="cls-2" d="M189,168.77c-.45-.41-.43-1.94-.1-2s.66,1.59.31,1.94a.15.15,0,0,1-.21,0m2.16-4.45-.65-.35a10.07,10.07,0,0,1-2.94-2.33l0,9.6a10.21,10.21,0,0,0,2.94,2.33l.66.36v-9.61"/><path d="M189,166.85c-.35-.22-.43.7-.27,1.36s.36.75.53.46a2,2,0,0,0-.26-1.82"/><path class="cls-2" d="M189,178.37c-.45-.4-.43-1.93-.11-2s.67,1.59.31,2a.14.14,0,0,1-.2,0m2.16-4.44-.66-.36a10.21,10.21,0,0,1-2.94-2.33l0,9.61a10.21,10.21,0,0,0,2.94,2.33c.21.12.43.24.66.35l0-9.6"/><path d="M189,176.45c-.35-.21-.43.71-.27,1.36s.37.76.53.47a2,2,0,0,0-.26-1.83"/><path class="cls-2" d="M189,188c-.45-.4-.43-1.93-.1-2s.66,1.58.3,1.94a.13.13,0,0,1-.2,0m2.16-4.45c-.23-.11-.45-.23-.66-.35a10.21,10.21,0,0,1-2.94-2.33v9.61a10.07,10.07,0,0,0,2.94,2.33l.65.36,0-9.62"/><path d="M189,186.06c-.35-.22-.42.7-.27,1.36s.37.75.53.46a2,2,0,0,0-.26-1.82"/><path class="cls-2" d="M189,197.58c-.45-.4-.43-1.93-.1-2s.67,1.58.31,1.94a.15.15,0,0,1-.21,0m2.16-4.43-.65-.36a10.07,10.07,0,0,1-2.94-2.33l0,9.61a10.07,10.07,0,0,0,2.94,2.33l.65.35,0-9.6"/><path d="M189,195.66c-.34-.21-.42.71-.27,1.36s.37.76.53.47a2,2,0,0,0-.26-1.83"/><path class="cls-2" d="M188.94,207.19c-.45-.4-.42-1.93-.1-2s.65,1.49.34,1.91a.16.16,0,0,1-.24.05m2.16-4.44-.65-.35a10.07,10.07,0,0,1-2.94-2.33l0,9.6a10.07,10.07,0,0,0,2.94,2.33l.66.36v-9.61"/><path d="M189,205.27c-.35-.22-.43.7-.28,1.36s.38.75.53.47a2,2,0,0,0-.25-1.83"/><path class="cls-2" d="M188.92,216.79c-.45-.4-.42-1.93-.1-1.95s.65,1.48.34,1.91a.16.16,0,0,1-.24,0m2.17-4.43-.66-.36a10.07,10.07,0,0,1-2.94-2.33l0,9.61a10.21,10.21,0,0,0,2.94,2.33c.21.12.43.24.66.35l0-9.6"/><path d="M188.93,214.87c-.35-.21-.43.71-.27,1.37s.37.75.53.46a2.08,2.08,0,0,0-.26-1.83"/><path class="cls-2" d="M188.91,226.41c-.45-.4-.43-1.94-.11-2s.67,1.59.31,1.95a.13.13,0,0,1-.2,0m2.16-4.45c-.23-.11-.45-.23-.66-.35a10.21,10.21,0,0,1-2.94-2.33l0,9.6a10,10,0,0,0,2.94,2.33l.66.36,0-9.61"/><path d="M188.91,224.48c-.35-.22-.42.71-.27,1.37s.34.73.5.51a2,2,0,0,0-.23-1.88"/><path class="cls-2" d="M188.89,236c-.45-.4-.43-1.93-.1-2s.67,1.59.3,1.95a.13.13,0,0,1-.2,0m2.16-4.44-.66-.36a10,10,0,0,1-2.94-2.33v9.61a10.07,10.07,0,0,0,2.94,2.33l.65.36,0-9.61"/><path d="M188.89,234.08c-.35-.21-.42.71-.27,1.37s.37.76.53.47a2.07,2.07,0,0,0-.26-1.84"/><path class="cls-2" d="M188.87,245.62c-.45-.41-.43-1.94-.1-2s.66,1.59.31,1.94a.15.15,0,0,1-.21,0m2.16-4.44-.65-.36a10.07,10.07,0,0,1-2.94-2.33l0,9.61a10.24,10.24,0,0,0,2.94,2.33l.65.35,0-9.6"/><path d="M188.88,243.7c-.35-.22-.43.7-.28,1.36s.37.76.53.47a2,2,0,0,0-.25-1.83"/><path class="cls-2" d="M188.85,255.22c-.45-.4-.43-1.93-.1-1.95s.66,1.58.31,1.94a.14.14,0,0,1-.21,0M191,257v-6.18l-.65-.35a10.24,10.24,0,0,1-2.94-2.33v6.18a10.07,10.07,0,0,0,2.94,2.33l.65.35"/><path d="M188.86,253.3c-.35-.21-.43.71-.28,1.37s.37.75.53.46a2,2,0,0,0-.25-1.83"/><path class="cls-2" d="M186.83,156.42a9.16,9.16,0,0,1,0-1.95h0a5.59,5.59,0,0,1,0,2l0,0m.75,5.22c0-2.63,0-6.14,0-8.77a3.47,3.47,0,0,1-.88-2.24l0,8.77a3.63,3.63,0,0,0,.88,2.24"/><path d="M186.84,154.5l0,0h0a7.78,7.78,0,0,0,0,2h0a6.4,6.4,0,0,0,0-1.95"/><path class="cls-2" d="M186.82,166a8.6,8.6,0,0,1,0-1.95h0a5.64,5.64,0,0,1,0,2l0,0m.74,5.21,0-9.6a3.63,3.63,0,0,1-.88-2.24l0,9.6a3.62,3.62,0,0,0,.88,2.24"/><path d="M186.82,164.11a.08.08,0,0,0,0,0h0a8.82,8.82,0,0,0,0,2h0a6.1,6.1,0,0,0,0-1.95"/><path class="cls-2" d="M186.8,175.64a9.31,9.31,0,0,1,0-2h0a5.57,5.57,0,0,1,0,2s0,0,0,0m.74,5.21,0-9.61a3.52,3.52,0,0,1-.88-2.24l0,9.61a3.63,3.63,0,0,0,.88,2.24"/><path d="M186.8,173.72s0,0,0,0h0a8.26,8.26,0,0,0,0,2h0a6.1,6.1,0,0,0,0-1.95"/><path class="cls-2" d="M186.78,185.24a9.21,9.21,0,0,1,0-2h0a5.89,5.89,0,0,1,0,2l0,0m.75,5.22v-9.61a3.63,3.63,0,0,1-.88-2.24v9.61a3.47,3.47,0,0,0,.88,2.24"/><path d="M186.78,183.32s0,0,0,0h0a8.26,8.26,0,0,0,.05,2h0a6.41,6.41,0,0,0,0-2"/><path class="cls-2" d="M186.76,194.85a9.25,9.25,0,0,1,0-2h0a5.59,5.59,0,0,1,0,2l0,0m.75,5.22,0-9.61a3.47,3.47,0,0,1-.88-2.24l0,9.61a3.57,3.57,0,0,0,.88,2.24"/><path d="M186.77,192.93s0,0,0,0h0a7.78,7.78,0,0,0,0,2h0a6.4,6.4,0,0,0,0-1.95"/><path class="cls-2" d="M186.75,204.45a8.59,8.59,0,0,1,0-1.95h0a5.37,5.37,0,0,1,0,2,.08.08,0,0,1,0,0m.74,5.22,0-9.6a3.57,3.57,0,0,1-.88-2.24l0,9.61a3.58,3.58,0,0,0,.88,2.23"/><path d="M186.75,202.53l0,0h0a7.78,7.78,0,0,0,0,2h0a6.74,6.74,0,0,0,0-1.95"/><path class="cls-2" d="M186.73,214.06a9.22,9.22,0,0,1,0-1.95h0a5.63,5.63,0,0,1,0,2l0,0m.74,5.22,0-9.61a3.58,3.58,0,0,1-.88-2.23l0,9.6a3.58,3.58,0,0,0,.88,2.24"/><path d="M186.73,212.14s0,0,0,0h0a8.19,8.19,0,0,0,0,2h0a6.1,6.1,0,0,0,0-2"/><path class="cls-2" d="M186.71,223.67a9.31,9.31,0,0,1,0-2h0a5.89,5.89,0,0,1,0,2s0,0,0,0m.74,5.21,0-9.6a3.58,3.58,0,0,1-.88-2.24l0,9.61a3.58,3.58,0,0,0,.88,2.23"/><path d="M186.71,221.74s0,0,0,0h0a8.34,8.34,0,0,0,0,2h0a6.16,6.16,0,0,0,0-2"/><path class="cls-2" d="M186.69,233.28a8.63,8.63,0,0,1,0-2h0a5.94,5.94,0,0,1,0,2l0,0m.75,5.21v-9.61a3.58,3.58,0,0,1-.88-2.23v9.6a3.47,3.47,0,0,0,.88,2.24"/><path d="M186.7,231.35s0,0,0,0h0a7.78,7.78,0,0,0,0,2h0a6.81,6.81,0,0,0,0-2"/><path class="cls-2" d="M186.67,242.88a9.16,9.16,0,0,1,0-1.95h0a5.83,5.83,0,0,1,0,2l0,0m.75,5.22,0-9.61a3.47,3.47,0,0,1-.88-2.24l0,9.61a3.58,3.58,0,0,0,.88,2.24"/><path d="M186.68,241l0,0h0a7.78,7.78,0,0,0,0,2h0a6.4,6.4,0,0,0,0-1.95"/><path class="cls-2" d="M186.66,252.49a8.6,8.6,0,0,1,0-2h0a5.64,5.64,0,0,1,0,2,.08.08,0,0,1,0,0m.75,1.79V248.1a3.56,3.56,0,0,1-.88-2.24V252a3.57,3.57,0,0,0,.88,2.24"/><path d="M186.66,250.57a.08.08,0,0,0,0,0h0a8.73,8.73,0,0,0,0,2h0a6.1,6.1,0,0,0,0-2"/></g></g></g><ellipse class="cls-4" cx="224.05" cy="150.69" rx="10.37" ry="37.32" transform="translate(72.94 374.46) rotate(-89.89)"/></g><path class="cls-2" d="M261.68,173.15c0,5.49-16,9.93-36.76,9.93s-38.28-4.44-38.28-9.93V126.84h75Z"/><path class="cls-24" d="M262.34,269.26c0,5.48-16.64,14.52-37.42,14.52s-36.09-5.34-38.93-15.84l.65-7.22s11.05,9.85,38.12,9.85,37.58-10.5,37.58-10.5Z"/><polygon class="cls-25" points="186.21 118.3 186.21 128.15 192.6 132.41 206.06 135.53 225.75 136.68 246.75 134.88 258.56 131.43 262.5 128.8 262.01 117.81 246.75 123.55 232.15 126.18 210.82 125.19 190.14 120.93 186.21 118.3"/><path class="cls-26" d="M186.31,117V267.45c0,9.15,17.05,16.57,38.07,16.57s38.07-7.42,38.07-16.57V117"/><ellipse class="cls-27" cx="224.38" cy="116.33" rx="38.07" ry="9.84"/><ellipse class="cls-28" cx="204.8" cy="115.35" rx="6.34" ry="1.64"/><ellipse class="cls-28" cx="242.21" cy="115.35" rx="6.34" ry="1.64"/><path class="cls-29" d="M262.45,126.84c0,5.43-17,9.84-38.07,9.84s-38.07-4.41-38.07-9.84"/><path class="cls-29" d="M262.45,258.1c0,5.44-17,12.47-38.07,12.47s-38.07-7-38.07-12.47"/><polygon class="cls-25" points="132.39 247.6 132.39 257.44 138.79 261.71 152.24 264.83 171.93 265.97 192.93 264.17 204.75 260.72 208.68 258.1 208.19 247.1 192.93 252.85 178.33 255.47 157 254.49 136.32 250.22 132.39 247.6"/><path class="cls-2" d="M208.52,281.73c0,5.48-16.64,14.52-37.42,14.52s-36.09-5.34-38.93-15.84l.65-22.31S143.87,266,171,266s37.57-7.87,37.57-7.87Z"/><path class="cls-24" d="M208.52,281.73c0,5.48-16.64,14.52-37.42,14.52s-36.09-5.34-38.93-15.84l.65-7.22S143.87,283,171,283s37.57-10.5,37.57-10.5Z"/><ellipse class="cls-27" cx="170.56" cy="245.63" rx="38.07" ry="9.84"/><ellipse class="cls-28" cx="150.98" cy="244.64" rx="6.34" ry="1.64"/><ellipse class="cls-28" cx="188.39" cy="244.64" rx="6.34" ry="1.64"/><path class="cls-29" d="M208.63,256.13c0,5.44-17,9.84-38.07,9.84s-38.06-4.4-38.06-9.84"/><path class="cls-29" d="M208.63,270.57c0,5.44-17,12.47-38.07,12.47s-38.06-7-38.06-12.47"/><path class="cls-26" d="M132.5,246.28v33.64c0,9.15,17,16.57,38.06,16.57s38.07-7.42,38.07-16.57V246.28"/></svg>
