<svg data-name="Layer 1" xmlns="http://www.w3.org/2000/svg" viewBox="0 0 392 392" role="presentation"><defs><style>.cls-1,.cls-5{fill:#f0f0f0;}.cls-1,.cls-3,.cls-4,.cls-5,.cls-6,.cls-7{stroke:#5c6670;stroke-linejoin:round;stroke-width:2px;}.cls-1,.cls-2,.cls-3,.cls-4,.cls-6{fill-rule:evenodd;}.cls-2{fill:#6cc;}.cls-3{fill:#fff;}.cls-4,.cls-6{fill:none;}.cls-5,.cls-6{stroke-linecap:round;}.cls-7{fill:#fa7a47;}</style></defs><title>Assets</title><path class="cls-1" d="M129.77,155.68c-28.36-8.17-33.53,7-38.34,20.23l-3.26,9s-10.29,24.15,11,34.44a201.31,201.31,0,0,0,23.4,9.05s1.66,3.71,10.94,6.65,11,3.47,15,2.79c11.72,4.53,33,12,33,12s6.2,8.16,35,13.82S253.42,251.35,257,242s13.1-29.1-5-45.07c-12.12-9.66-40.12-18.88-40.12-18.88s-17.29-3.16-89.67,4.22c-5.55.11-9.58.68-3.49-12.89S125,158.42,129.77,155.68Z"/><path class="cls-2" d="M199.37,202.91c7.16,2.61,10.7,11,7.9,18.64s-10.87,11.8-18,9.19-10.7-11-7.9-18.63S192.21,200.31,199.37,202.91Z"/><path class="cls-2" d="M157.2,186c7.56,2.75,11.3,11.53,8.36,19.6s-11.45,12.39-19,9.64-11.29-11.52-8.36-19.59S149.65,183.22,157.2,186Z"/><path class="cls-1" d="M122.72,227.89c-22.66-8.25-12.23-38.32-7.47-49.94L139.1,177Z"/><path class="cls-3" d="M207.11,247.63c4.48,1.13,13.68,3.77,17,3.83,5.48.1,14.43.29,20.07-14.06s6.92-23.68-1.71-30.53-48.31-21.32-48.31-21.32l-23.11-8.41s-3.17.32-2.92,2.14-.17,4.74,4.12,6.3l16.5,6a15.64,15.64,0,0,0,3.56-2.44c2.92.76,6.71,3.17,10.51,4.89s18,9.3,21.73,12.18,7.81,7.9,4.63,16.64-5.9,15.64-8.15,19.47-4.43,8.34-14,5.28"/><path class="cls-3" d="M133.19,181.5s-6.64,18.44-7.64,23.92-4.29,17.07-2.49,21.53,4.6,5.67,8.06,7.2a80.51,80.51,0,0,0,11,3.48c2.08.52,7.53,2.9,15-7.37s10.36-14.65,11.07-15.74c1.68-2.54-.63-5.34-2.83-3.79s-7.3,6.93-9.86,9.32-5.58,5.53-10.12,4.33-11-3.48-11-3.48-3.63-.92-1.07-7.33,10-33.23,10-33.23"/><path class="cls-3" d="M174,220.37a87.65,87.65,0,0,0,1.9,18.34c.73,3.29,2.18,13.15,19.33,18.79s29.38,9.11,41.29,5.41,18.73-12.84,23.85-30.31.16-29.65-12.6-38.76S210,177.4,210,177.4l-19.29-.48-18.4,1.19L225.46,198s17.57,7,20.92,13,3.9,20.35-7.47,35.2c-8.34,10.55-26.76,3.08-26.76,3.08s-16.89-5-21.52-8.37-6-8.18-8.7-18.66C179.47,214.68,174.65,214.94,174,220.37Z"/><path class="cls-3" d="M134.4,154.7c-4.49.79-11.62,2.58-13,6.47l-6.18,17-1.79,4.91s10.89-1,13.28-1.26,58.88-4.75,58.88-4.75,41.5-2.63,94.37,15.13c5.69,2.07,17.1,6.61,22.51,13-3.38,1.5-11.46,5.21-37.52,7.71-1.64-2.93-3.73-3-3.73-3s1.8,6.58,1.62,10.21-2.61,16.25-4.68,20.19c-.79,1.88-.68,1.89-.68,1.89s2.79.78,5.49-3.34c10.7-.9,39.68-2.05,47.9-21.56,2.79-7.09,3.27-20.92,3.34-26.9a9.25,9.25,0,0,0-1.91-5.77c-3.92-5.12-14.73-15.95-40.05-24.11-34.32-11.07-63.54-11.45-86-11.56S138.89,153.91,134.4,154.7Z"/><path class="cls-4" d="M298.22,201.31s13.16,8,11.18,18.86"/><line class="cls-5" x1="99.31" y1="171.88" x2="110.14" y2="174.4"/><line class="cls-5" x1="92.26" y1="191.24" x2="103.1" y2="193.76"/><path class="cls-6" d="M168,210.59s6.26-4.85,7.86,5.45"/><polygon class="cls-7" points="155.78 149.7 144.6 180.42 170.09 179.01 179.59 147.43 155.78 149.7"/></svg>
