<?xml version="1.0" encoding="utf-8"?>
<!-- Generator: Adobe Illustrator 19.2.0, SVG Export Plug-In . SVG Version: 6.00 Build 0)  -->
<svg version="1.1" xmlns="http://www.w3.org/2000/svg" xmlns:xlink="http://www.w3.org/1999/xlink" x="0px" y="0px"
	 viewBox="0 0 636.2 182.8" style="enable-background:new 0 0 636.2 182.8;" xml:space="preserve">
<style type="text/css">
	.st0{fill:#FFFFFF;}
	.st1{fill:#F06263;}
	.st2{fill:#DCAA84;}
	.st3{fill:#C7D4E2;}
	.st4{fill:#FAB54C;}
	.st5{fill:#752C1B;}
	.st6{fill:#4D575E;}
	.st7{fill:#5C6670;}
	.st8{fill:#53AAAA;}
	.st9{fill:#A3B6C6;}
	.st10{fill:#78CDD1;}
	.st11{fill:#94DDDD;}
</style>
<title>Blue-car</title>
<g>
	<path class="st0" d="M310,72.9c0.4,0,0.7,0,1.2,0c17.9,0.5,43.1,1.8,43.1,1.8s101-3.5,171.3-5.7c-0.4-1.3-0.7-2.7-0.7-4.4
		c0-4.1,1.7-7.4,3.7-7.4c3,0,5.7,0.2,8.2,0.6c-8.5-12.2-38.5-53-56.3-54.5c-34.8-2.8-108.9,3.5-123.3,7.4
		C344.3,14.2,315.8,62.9,310,72.9z"/>
	<g>
		<path class="st1" d="M366.3,61l6.9,14.1l15.7-0.6c0,0-0.3-0.7-2.1-3.3s-10.3-9.7-10.3-9.7l-0.7-1.4L366.3,61z"/>
		<path class="st2" d="M366.5,42.8c0,0,2.1,4.7,3.8,7.5c1.7,2.7,7.7,5.3,8.7,5.5c1.1,0.2,2.7,0.1,3.3-0.8c0.5-0.9,1.5-5.1,1.5-5.1
			s0.4-0.1,0.8-0.2c0.4-0.1,1.1-0.9,1.1-0.9s-0.4-0.5-0.9-1.8c-0.5-1.3-0.2-3.3-0.1-3.8s0.7-1.5,0.7-3.6s-1.7-4.7-1.7-4.7
			c-1.5-2-4.7-3.6-10.9-2.2C366.7,33.9,366.5,42.8,366.5,42.8z"/>
		<path class="st3" d="M368.7,59.4c1.3,1.6,6.2,5.2,6.2,5.2s0-1.5,0.4-2.2c0.4-0.7,1.1-0.8,1.1-0.8l-0.1-3.9l-8.3-3.8
			C367.2,54.9,367.5,57.8,368.7,59.4z"/>
		<path class="st2" d="M375,57l0.4-2.8c-2-0.9-4.1-2.4-5.1-3.9c-0.4-0.7-0.8-1.5-1.3-2.3l-0.5,6.1L375,57z"/>
		<path class="st4" d="M363.3,60.8c0,0,2,2.3,4.6,3c2.6,0.6,5.9-0.3,5.9-0.3s-3.7-13.8-3.6-14.4v-0.1c-0.5-0.5-0.8-1.5-0.8-2.6
			c0-1.8,0.9-3.3,2-3.3c0.5,0,1.1,0.3,1.4,0.8c0.9-0.9,3-3,5.3-3.2c3.1-0.2,3.1-0.8,5-2.2c1.9-1.4,2.4-3.7,1.3-5.2
			c-2-2.4-7.8-4.2-14-2.5c-4,1.2-5.8,4-6.4,6.7c-0.4,1.1-0.6,2.4-0.7,4.3C362.5,50.1,363.3,60.8,363.3,60.8z"/>
		<circle class="st0" cx="371.2" cy="49.3" r="0.9"/>
		<path class="st5" d="M381.6,52.1c-0.3,0-0.6,0.2-1.5-0.3c-0.8-0.5-0.6-1.3-0.6-1.3s0.1,0,0.6,0.5s1.9,0.7,1.9,0.7
			S381.9,52.1,381.6,52.1z"/>
		<path class="st6" d="M371.2,42.9c0,0.2,0.1,0.4,0.3,0.4l8.7,1.7l-0.4,1.8c0,0.3,0,0.6,0.2,0.8s0.5,0.4,0.8,0.4l0,0l2.2,0.2h0.1
			c0.6,0,1.2-0.4,1.3-1.1l0.7-3.7c0-0.2,0-0.5-0.2-0.8c-0.2-0.3-0.4-0.4-0.7-0.5l-2.1-0.4c-0.2,0-0.5,0-0.8,0.2
			c-0.3,0.2-0.4,0.4-0.5,0.7l-0.3,1.6l-8.7-1.7C371.5,42.5,371.3,42.6,371.2,42.9z"/>
		<path class="st0" d="M380.7,46.9l0.8-4.1c0.1-0.1,0.1-0.1,0.2-0.2c0.1-0.1,0.1-0.1,0.2-0.1h0.1l2.1,0.4c0.1,0.1,0.1,0.1,0.2,0.2
			s0.1,0.2,0.1,0.3l-0.7,3.7c0,0.2-0.3,0.4-0.5,0.4l-2.2-0.2c-0.1,0-0.2,0-0.2-0.1C380.7,47.1,380.7,47.1,380.7,46.9z"/>
	</g>
	<g>
		
			<ellipse transform="matrix(0.4493 -0.8934 0.8934 0.4493 216.1376 469.8853)" class="st7" cx="489.2" cy="59.6" rx="4.2" ry="1.9"/>
		<path class="st7" d="M489.4,60L489.4,60c0.4-0.8,1.4-1.2,2.2-0.7l9,4.5c0.8,0.4,1.2,1.4,0.7,2.2l0,0c-0.4,0.8-1.4,1.2-2.2,0.7
			l-9-4.5C489.3,61.8,489,60.9,489.4,60z"/>
		<path class="st7" d="M494.4,66.8l3.9-7.7c0.5-1.2,1.9-1.6,3.1-1.1l1.6,0.8c1.2,0.5,1.6,1.9,1.1,3.1l-3.9,7.7
			c-0.5,1.2-1.9,1.6-3.1,1.1l-1.6-0.8C494.3,69.3,493.8,67.9,494.4,66.8z"/>
		<path class="st7" d="M484.1,69.6l9.9-19.6c0.5-1.1,1.8-1.5,2.8-0.9l0,0c1.1,0.5,1.5,1.8,0.9,2.8l-9.9,19.6
			c-0.5,1.1-1.8,1.5-2.8,0.9l0,0C484,71.9,483.6,70.7,484.1,69.6z"/>
		<path class="st7" d="M534.3,65.5l0.5-0.3c0,0-26.3-6.2-30.4-7.1c-3.1-0.6-7.3,7.6-9.3,11.8c2.5,0,5.1-0.1,7.5-0.2
			C510.6,68.2,522.3,66.7,534.3,65.5z"/>
		<path class="st7" d="M518.9,61.4l-5.6-28.6c-1.9-2.2-3.8-4.3-5.6-6.3l6.5,33.8C515.8,60.7,517.2,61.1,518.9,61.4z"/>
	</g>
	<g>
		<polygon class="st6" points="352.7,49.6 354.4,57.4 359.2,56.8 357.9,48.9 		"/>
		<path class="st7" d="M352,76.7c0,0-1.7-17.4-1.9-19.7c-0.2-2.3,13.8-3.1,14.8-1.2c0.9,1.9,10.4,19.9,10.4,19.9L352,76.7z"/>
		<path class="st7" d="M349,50.8L348.4,36c0-1.4,1.1-2.2,2.4-2l8,1.4c1.4,0.2,2.5,1.5,2.5,2.8l0.4,11.1c0.1,1.4-0.9,2.6-2.3,2.7
			l-7.9,0.8C350.2,53.1,349,52,349,50.8z"/>
	</g>
	<g>
		<polygon class="st6" points="442.3,45.9 444,53.7 448.7,53.1 447.5,45.2 		"/>
		<path class="st7" d="M441.6,73c0,0-1.7-17.4-1.9-19.7s13.8-3.1,14.8-1.2c0.9,1.9,10.4,19.9,10.4,19.9L441.6,73z"/>
		<path class="st7" d="M438.5,47L438,32.3c0-1.4,1.1-2.2,2.4-2l8,1.4c1.4,0.2,2.5,1.5,2.5,2.8l0.4,11.1c0.1,1.4-0.9,2.6-2.3,2.7
			l-7.9,0.8C439.8,49.4,438.6,48.3,438.5,47z"/>
	</g>
	<path class="st8" d="M532.2,57.3c1.6,0.1,3.1,0.3,4.5,0.5c-8.5-12.2-38.5-53-56.3-54.5c-34.8-2.8-108.9,3.5-123.3,7.4
		c-13,3.5-41.4,52.2-47.1,62.2c0.4,0,0.7,0,1.2,0c0.8,0.1,1.7,0.1,2.5,0.1c19.8-33,38.8-57.8,44.3-59.2c11.3-3.1,63.2-8,101.5-8
		c8.1,0,15.1,0.5,20.8,0.7C488.9,6.8,505.8,20.5,532.2,57.3z"/>
	<polygon class="st6" points="590.8,113.3 578.2,93.2 522,92.9 506.8,128.8 519.5,128.8 581.3,134.3 595,134.3 	"/>
	<path class="st6" d="M383.2,97c0,0-40.8-0.3-42.2-0.3s-13,0-14,0.7c-1.1,0.7-15.1,33.4-15.1,33.4h62.5h26.3L383.2,97z"/>
	<circle class="st7" cx="549.7" cy="142.5" r="36.1"/>
	<circle class="st6" cx="549.7" cy="142.5" r="29.2"/>
	<circle class="st3" cx="549.7" cy="142.5" r="19.8"/>
	<circle class="st9" cx="549.7" cy="142.5" r="15.5"/>
	<circle class="st3" cx="549.7" cy="142.5" r="12.5"/>
	<circle class="st7" cx="353.7" cy="142.5" r="36.1"/>
	<circle class="st6" cx="353.7" cy="142.5" r="29.2"/>
	<circle class="st3" cx="353.7" cy="142.5" r="19.8"/>
	<circle class="st9" cx="353.7" cy="142.5" r="15.5"/>
	<circle class="st3" cx="353.7" cy="142.5" r="12.5"/>
	<path class="st9" d="M597.5,143.3h30.1c2.7,0,5-1.9,5-4.3v-9c0-2.3-2.2-4.3-5-4.3h-39.4c-1.6,0-2.3,1.2-1.6,2.5l6.6,12.6
		c0.7,1.4,2.6,2.5,4.2,2.5V143.3z"/>
	<path class="st3" d="M282.2,81c-1.1,2.3-1.3,6.2-0.3,10.3c1.3,5.2,4,9.2,6.6,9.9C285.5,93.9,283.4,86.2,282.2,81z"/>
	<path class="st10" d="M281,74.2c0,0,2.7,16.5,9.3,30.6c6.5,14,10.7,20.9,10.7,20.9l8.4,10.6c0,0,14.4-23.8,17.6-28.8
		c2-3.2,3.5-7.4,8.4-7.4c4.8,0,30.9,0,35.1,0c4.2,0,6,0.7,7.4,2.8c1.2,1.7,14.1,24.5,19.3,33.4h109.3c0,0,14.4-23.8,17.6-28.8
		c2-3.2,3.5-7.4,8.4-7.4c4.8,0,30.9,0,35.1,0s6,0.7,7.4,2.8c1.1,1.6,9.1,15.4,13.3,22.7l0,0h37.6c0.8-3.8,1.5-9.2,1.5-16.7
		c0-28.8-9.5-42.1-38.7-41.7c-29.2,0.3-234.3,7.4-234.3,7.4s-25.2-1.3-43.1-1.8C293.4,72.4,281,74.2,281,74.2z"/>
	<path class="st3" d="M632.3,118.5h-5.5c-0.2,2.8-0.6,5.3-1.1,7.2h1.8c2.7,0,5,1.9,5,4.3v9c0,0.9-0.4,1.9-1.1,2.6h0.8
		c1.9,0,3.4-1.5,3.4-3.4V122c0-1.9-1.5-3.4-3.4-3.4V118.5z"/>
	<g>
		<path class="st3" d="M626.5,75.1h-9.8c7.7,6.7,10.6,18,10.6,34c0,3.6-0.2,6.7-0.4,9.5h2.6V78.1c0-1.7-1.4-3.1-3.1-3.1V75.1z"/>
	</g>
	<path class="st3" d="M606.4,73.2c4.5,0,10.9,5.9,14.3,13.2c3.5,7.3,2.5,13.2-2,13.2c-4.5,0-11-5.9-14.3-13.2
		C601,79,601.9,73.2,606.4,73.2z"/>
	<path class="st0" d="M608.7,74.9c3.7,0,9,4.8,11.8,10.9s2,10.9-1.7,10.9c-3.7,0-9.1-4.8-11.8-10.9C604.2,79.7,605,74.9,608.7,74.9z
		"/>
	<path class="st9" d="M595.9,86.3c6.5,7.3,18.4,13.2,23,13.2c-4.5,0-10.9-5.9-14.3-13.2c-3.5-7.3-2.5-13.2,2-13.2
		C589.9,73.1,589.3,79,595.9,86.3z"/>
	<ellipse class="st3" cx="620.1" cy="110.6" rx="3.2" ry="5.8"/>
	<path class="st9" d="M612.7,110.5c0,3.2,5.6,5.8,7.4,5.8c-1.8,0-3.2-2.6-3.2-5.8c0-3.2,1.4-5.8,3.2-5.8
		C618.3,104.7,612.7,107.4,612.7,110.5z"/>
	<ellipse class="st3" cx="298.3" cy="118.7" rx="3.2" ry="5.8"/>
	<path class="st9" d="M305.7,118.7c0,3.2-5.6,5.8-7.4,5.8c1.8,0,3.2-2.6,3.2-5.8c0-3.2-1.4-5.8-3.2-5.8
		C300.1,112.9,305.7,115.6,305.7,118.7z"/>
	<path class="st11" d="M600.1,67.9c-2.5-3.7-8-6.3-14.4-6.3c-6.9,0-60.5,3.7-82.9,8.1c39.9-1.3,75.1-2.3,86-2.4
		C592.9,67.2,596.7,67.5,600.1,67.9z"/>
	<path class="st3" d="M446.8,83.9c1.2,0.1,2.4,0.1,3.8,0.1c7.8,0,14.1-1.5,14.1-3.4c0-1.9-6.3-3.5-14.1-3.5c-1.9,0-3.6,0-5.3,0.2
		L446.8,83.9z"/>
	<path class="st3" d="M366.7,88.6c1.2,0.1,2.4,0.1,3.8,0.1c7.8,0,14.1-1.5,14.1-3.4c0-1.9-6.3-3.5-14.1-3.5c-1.9,0-3.6,0-5.3,0.2
		L366.7,88.6z"/>
	<path class="st9" d="M464.3,81.5c-2.8-0.9-8-1.6-13.8-1.6c-1.6,0-3.1,0-4.4,0.1l0.8,3.8c1.2,0.1,2.4,0.1,3.8,0.1
		C457.2,84,462.6,82.9,464.3,81.5z"/>
	<path class="st9" d="M372.1,84.7c-2.2,0-4.2,0.1-6.2,0.2l0.8,3.7c1.2,0.1,2.4,0.1,3.8,0.1c7.5,0,13.7-1.4,14.1-3.2
		C381.3,85,376.9,84.7,372.1,84.7z"/>
	<g>
		<path class="st11" d="M356.5,74.6c-1.4,0.1-2.1,0.1-2.1,0.1l5,25.6c0.7,0,1.4,0,2.1,0L356.5,74.6z"/>
		<path class="st11" d="M432.9,71.9c-0.7,0.1-1.4,0.1-2.1,0.1l12.5,64.4h2.1L432.9,71.9z"/>
		<path class="st11" d="M520.4,69.2c-0.6,0.1-1.4,0.1-2.1,0.1l7.1,36.3c0.5-0.9,1.1-1.8,1.7-2.5L520.4,69.2z"/>
	</g>
	<path class="st11" d="M434.5,71.9L421.9,7c-1.5,0-2.8,0.1-4.3,0.2l12.5,64.8C431.6,72.1,432.9,72.1,434.5,71.9z"/>
	<path class="st8" d="M438.8,71.8l-12.6-65c-1.5,0-2.8,0.1-4.3,0.2l12.6,64.9C436,71.9,437.5,71.8,438.8,71.8z"/>
	<path class="st8" d="M344.2,27.8l9.1,46.9c0.7,0,1.1,0,1.1,0s1.2,0,3.4-0.1l-9.9-51.2C346.6,24.6,345.5,26.1,344.2,27.8z"/>
	<ellipse class="st9" cx="528.5" cy="64.6" rx="3.7" ry="7.4"/>
	<path class="st3" d="M528.5,71.9c11.9-0.1,21.7-3.5,21.7-7.4s-9.9-7.2-21.7-7.4c2,0,3.7,3.3,3.7,7.4S530.6,72.1,528.5,71.9z"/>
	<path class="st9" d="M305.6,143.3h-6c-2.6,0-5.5-1.9-6.2-4.3l-2.7-9c-0.7-2.3,0.8-4.3,3.6-4.3h20.7c1.6,0,2.3,1.2,1.6,2.5
		l-6.6,12.6c-0.7,1.4-2.6,2.5-4.2,2.5V143.3z"/>
	<path class="st3" d="M314.7,131.4l1.7-3.2c0.6-1.4,0-2.5-1.6-2.5h-20.7c-2.7,0-4.3,1.9-3.6,4.3l0.4,1.3c0.5-0.2,1.1-0.3,1.7-0.3
		h20.7C313.9,131,314.4,131.2,314.7,131.4z"/>
	<path class="st3" d="M632.1,135.8v5.1c0.3-0.5,0.5-1.2,0.5-1.9v-9c0-2.3-2.2-4.3-5-4.3h-39.4c-1.6,0-2.3,1.2-1.6,2.5l1.7,3.3h38.7
		c2.7,0,5,1.9,5,4.3H632.1z"/>
</g>
</svg>
