<?xml version="1.0" encoding="utf-8"?>
<!-- Generator: Adobe Illustrator 19.2.0, SVG Export Plug-In . SVG Version: 6.00 Build 0)  -->
<svg version="1.1" xmlns="http://www.w3.org/2000/svg" xmlns:xlink="http://www.w3.org/1999/xlink"
	 x="0px" y="0px" viewBox="0 0 624.3 183.4" style="enable-background:new 0 0 624.3 183.4;" xml:space="preserve">
<style type="text/css">
	.st0{fill:#FFFFFF;}
	.st1{fill:#78CCD0;}
	.st2{fill:#49516C;}
	.st3{fill:#DCAA84;}
	.st4{fill:#C7D4E2;}
	.st5{fill:#773C35;}
	.st6{fill:#752C1B;}
	.st7{fill:#4D575E;}
	.st8{fill:#5C6670;}
	.st9{fill:#BEC61A;}
	.st10{fill:#A3B6C6;}
	.st11{fill:#D1E42D;}
	.st12{fill:#E8ED8A;}
</style>
<g>
	<path class="st0" d="M290.3,71.1c0.4,0,0.8,0,1.2,0c18.3,0.5,44.1,1.8,44.1,1.8s103.3-3.6,175.2-5.8c-0.4-1.3-0.8-2.8-0.8-4.5
		c0-4.2,1.7-7.5,3.8-7.5c3,0,5.8,0.2,8.4,0.6C513.4,43.2,482.8,1.5,464.6,0C429-3,353.2,3.5,338.5,7.5
		C325.3,11.1,296.2,60.9,290.3,71.1z"/>
	<g>
		<path class="st1" d="M382.1,59.1L389,42c0.3-0.8,1.1-1,1.7-0.6l6.9,4c0.6,0.3,1,1.2,0.6,1.9l-6.9,17.1c-0.3,0.8-1.1,1-1.7,0.6
			l-6.9-4C382.1,60.7,381.9,59.9,382.1,59.1z"/>
		<path class="st0" d="M383.7,57.9l5.8-14.7c0.2-0.6,0.9-1,1.3-0.6l5.1,3.1c0.5,0.2,0.6,1,0.4,1.6L390.4,62c-0.2,0.6-0.9,1-1.3,0.6
			l-5.1-3.1C383.6,59.3,383.4,58.6,383.7,57.9z"/>
		<path class="st2" d="M365.1,68.7l1.8,2.6l3.3,1.1c0,0,4.9-9.5,5.7-11.4c0.9-1.9-3.2-4.5-4.5-2.7c-1.3,1.8-6.5,8.4-6.5,8.4
			L365.1,68.7z"/>
		<path class="st2" d="M347.8,58.9l7,14.4l16.1-0.6c0,0-0.3-0.8-2.2-3.3c-1.8-2.6-10.6-9.9-10.6-9.9l-0.8-1.4L347.8,58.9z"/>
		<path class="st3" d="M348,40.3c0,0,2.2,4.9,3.9,7.7s7.9,5.4,8.9,5.6s2.8,0.1,3.3-0.9c0.5-1,1.5-5.2,1.5-5.2s0.4-0.1,0.9-0.2
			c0.4-0.1,1.1-1,1.1-1s-0.4-0.5-1-1.8c-0.5-1.3-0.2-3.3-0.1-3.9c0.1-0.5,0.8-1.5,0.8-3.7c0-2.2-1.7-4.9-1.7-4.9
			c-1.5-2-4.9-3.7-11.1-2.3C348.3,31.2,348,40.3,348,40.3z"/>
		<path class="st4" d="M350.3,57.3c1.3,1.6,6.4,5.3,6.4,5.3s0-1.5,0.4-2.3c0.4-0.8,1.1-0.9,1.1-0.9l-0.1-4l-8.5-3.9
			C348.7,52.7,349,55.7,350.3,57.3z"/>
		<path class="st3" d="M356.7,54.8l0.4-2.9c-2-1-4.2-2.5-5.2-4c-0.4-0.8-0.9-1.5-1.3-2.4l-0.5,6.3L356.7,54.8z"/>
		<path class="st5" d="M344.7,58.7c0,0,2,2.4,4.7,3c2.7,0.6,6-0.3,6-0.3s-3.8-14.1-3.7-14.8v-0.1c-0.5-0.5-0.9-1.5-0.9-2.7
			c0-1.8,1-3.3,2-3.3c0.5,0,1.1,0.3,1.4,0.9c1-1,3-3,5.4-3.2c3.1-0.2,3.1-0.9,5.1-2.3c1.9-1.4,2.5-3.8,1.3-5.3
			c-2-2.5-8-4.3-14.3-2.6c-4.1,1.2-5.9,4.1-6.6,6.9c-0.4,1.1-0.6,2.5-0.8,4.4C344,47.8,344.7,58.7,344.7,58.7z"/>
		<circle class="st0" cx="352.8" cy="46.9" r="1"/>
		<path class="st3" d="M387,66l1.6,0.3c0,0,5.2-1.9,5.4-2.2c0.3-0.2,0.6-1.3,0.6-1.3s0.5-0.2,0.8-0.5c0.2-0.3,0.2-1.4,0.2-1.4
			s0.8-0.6,0.8-1c0.1-0.3-0.1-1.6-0.1-1.6s0.6-1.3,0.5-1.8s-1.6-1.4-1.6-1.4l-0.9,1.8c0,0-2.4,0.4-2.7,0.4s-0.6-0.4-0.6-0.9
			c0-0.4,0-0.6,0.2-1c0.2-0.3,0.9-1.4,0.3-2.7c-0.5-1.3-1.9-1.5-1.9-0.3c0,1.2-0.3,2-0.5,2.5s-0.6,1.6-0.6,1.6s-1.2,2.2-1.5,3
			c-0.3,0.9-1.3,4.2-1.3,4.2L387,66z"/>
		<path class="st3" d="M376.7,59.3c0.6-0.3,0.9-0.9,0.9-0.9s2-0.3,2.6-0.5s0.8-1.1,0.8-1.3c0-0.3-0.2-1.1-0.2-1.1s0.2-0.4,0.3-0.9
			c0-0.4-0.2-0.9-0.2-0.9s-0.3-0.8-0.5-1.1c-0.2-0.4-1-0.4-1-0.4s-0.8-0.8-1.1-0.9s-1.2-0.2-1.2-0.2l1.6-1.1c0,0,0,0,1.4,0.1
			s2-0.6,2.3-1.2c0.1-0.5,0.1-1.4-0.8-1c-0.8,0.4-2.2-0.2-2.7,0.1c-0.5,0.3-2.9,1-3,1s-0.3,0.2-0.9,1.1c-0.4,0.8-2.4,4.1-2.6,4.9
			c-0.2,0.8-0.8,2.7-0.2,3.8c0.4,1.1,2.8,2.2,3.2,1.4C375.9,59.6,376.1,59.7,376.7,59.3z"/>
		<path class="st2" d="M385.1,73.2c0,0,3.3-4.3,4.5-6s-3.9-5.6-4.6-5c-0.8,0.6-10.7,10.3-10.7,10.3L385.1,73.2z"/>
		<path class="st6" d="M363.5,49.9c-0.3,0-0.6,0.2-1.5-0.3c-0.9-0.5-0.6-1.3-0.6-1.3s0.1,0,0.6,0.5c0.5,0.5,1.9,0.8,1.9,0.8
			S363.8,49.9,363.5,49.9z"/>
		<path class="st7" d="M352.8,40.4c0,0.2,0.1,0.4,0.3,0.4l8.9,1.7l-0.4,1.8c0,0.3,0,0.6,0.2,0.9s0.5,0.4,0.9,0.4l0,0l2.3,0.2h0.1
			c0.6,0,1.2-0.4,1.3-1.1l0.8-3.8c0-0.2,0-0.5-0.2-0.9c-0.2-0.3-0.4-0.4-0.8-0.5l-2.2-0.4c-0.2,0-0.5,0-0.9,0.2s-0.4,0.4-0.5,0.8
			l-0.3,1.6l-8.9-1.7C353.1,40,352.9,40.2,352.8,40.4z"/>
		<path class="st0" d="M362.5,44.5l0.9-4.2c0.1-0.1,0.1-0.1,0.2-0.2c0.1-0.1,0.1-0.1,0.2-0.1h0.1l2.2,0.4c0.1,0.1,0.1,0.1,0.2,0.2
			s0.1,0.2,0.1,0.3l-0.8,3.8c0,0.2-0.3,0.4-0.5,0.4l-2.3-0.2c-0.1,0-0.2,0-0.2-0.1C362.5,44.7,362.5,44.7,362.5,44.5z"/>
	</g>
	<g>
		
			<ellipse transform="matrix(0.4493 -0.8934 0.8934 0.4493 209.3719 454.7012)" class="st8" cx="473.5" cy="57.5" rx="4.3" ry="1.9"/>
		<path class="st8" d="M473.7,57.9L473.7,57.9c0.4-0.9,1.4-1.2,2.3-0.8l9.2,4.6c0.9,0.4,1.2,1.4,0.8,2.3l0,0
			c-0.4,0.9-1.4,1.2-2.3,0.8l-9.2-4.6C473.6,59.8,473.3,58.8,473.7,57.9z"/>
		<path class="st8" d="M478.8,64.8l4-7.9c0.5-1.2,1.9-1.6,3.1-1.1l1.6,0.9c1.2,0.5,1.6,1.9,1.1,3.1l-4,7.9c-0.5,1.2-1.9,1.6-3.1,1.1
			l-1.6-0.9C478.7,67.4,478.3,66,478.8,64.8z"/>
		<path class="st8" d="M468.3,67.7l10.1-20c0.5-1.1,1.8-1.5,2.9-1l0,0c1.1,0.5,1.5,1.8,1,2.9l-10.1,20c-0.5,1.1-1.8,1.5-2.9,1l0,0
			C468.2,70.1,467.8,68.8,468.3,67.7z"/>
		<path class="st8" d="M519.6,63.5l0.5-0.3c0,0-26.9-6.4-31-7.2c-3.1-0.6-7.4,7.8-9.5,12.1c2.6,0,5.2-0.1,7.7-0.2
			C495.4,66.2,507.4,64.7,519.6,63.5z"/>
		<path class="st8" d="M503.9,59.3l-5.7-29.2c-1.9-2.3-3.9-4.4-5.7-6.5l6.7,34.6C500.7,58.6,502.2,59,503.9,59.3z"/>
	</g>
	<g>
		<polygon class="st7" points="333.9,47.3 335.7,55.2 340.5,54.6 339.2,46.5 		"/>
		<path class="st8" d="M333.2,75c0,0-1.7-17.8-1.9-20.2s14.1-3.1,15.1-1.2C347.3,55.6,357,74,357,74L333.2,75z"/>
		<path class="st8" d="M330.2,48.5l-0.6-15.1c0-1.4,1.1-2.3,2.5-2l8.2,1.4c1.4,0.2,2.6,1.5,2.6,2.9l0.4,11.3c0.1,1.4-1,2.7-2.4,2.8
			l-8.1,0.9C331.3,50.8,330.2,49.7,330.2,48.5z"/>
	</g>
	<g>
		<polygon class="st7" points="425.5,43.5 427.3,51.5 432.1,50.8 430.8,42.7 		"/>
		<path class="st8" d="M424.8,71.2c0,0-1.7-17.8-1.9-20.2c-0.2-2.4,14.1-3.1,15.1-1.2c1,1.9,10.7,20.4,10.7,20.4L424.8,71.2z"/>
		<path class="st8" d="M421.7,44.6l-0.5-15c0-1.4,1.1-2.3,2.5-2l8.2,1.4c1.4,0.2,2.6,1.5,2.6,2.9l0.4,11.3c0.1,1.4-1,2.7-2.4,2.8
			l-8.1,0.9C423,47.1,421.8,46,421.7,44.6z"/>
	</g>
	<path class="st9" d="M517.5,55.1c1.6,0.1,3.1,0.3,4.6,0.5C513.4,43.2,482.8,1.5,464.6,0C429-3,353.2,3.5,338.5,7.5
		c-13.3,3.6-42.4,53.4-48.2,63.6c0.4,0,0.8,0,1.2,0c0.9,0.1,1.7,0.1,2.6,0.1c20.3-33.7,39.7-59.1,45.3-60.6
		c11.5-3.1,64.7-8.2,103.8-8.2c8.3,0,15.4,0.5,21.2,0.8C473.2,3.5,490.4,17.5,517.5,55.1z"/>
	<polygon class="st7" points="577.4,112.4 564.5,91.9 507,91.6 491.5,128.2 504.4,128.2 567.7,133.9 581.7,133.9 	"/>
	<path class="st7" d="M365.1,95.8c0,0-41.7-0.3-43.1-0.3c-1.4,0-13.3,0-14.3,0.8s-15.4,34.2-15.4,34.2h63.9h26.9L365.1,95.8z"/>
	<circle class="st8" cx="535.4" cy="142.2" r="37"/>
	<circle class="st7" cx="535.4" cy="142.2" r="29.9"/>
	<circle class="st4" cx="535.4" cy="142.2" r="20.3"/>
	<circle class="st10" cx="535.4" cy="142.2" r="15.8"/>
	<circle class="st4" cx="535.4" cy="142.2" r="12.8"/>
	<circle class="st8" cx="334.9" cy="142.2" r="37"/>
	<circle class="st7" cx="334.9" cy="142.2" r="29.9"/>
	<circle class="st4" cx="334.9" cy="142.2" r="20.3"/>
	<circle class="st10" cx="334.9" cy="142.2" r="15.8"/>
	<circle class="st4" cx="334.9" cy="142.2" r="12.8"/>
	<path class="st10" d="M584.3,143.1h30.8c2.8,0,5.1-1.9,5.1-4.4v-9.2c0-2.4-2.3-4.4-5.1-4.4h-40.3c-1.6,0-2.4,1.2-1.6,2.6l6.8,12.9
		c0.8,1.4,2.7,2.6,4.3,2.6V143.1z"/>
	<path class="st4" d="M261.8,79.4c-1.1,2.4-1.3,6.4-0.3,10.6c1.3,5.3,4.1,9.4,6.8,10.1C265.2,92.5,263,84.7,261.8,79.4z"/>
	<path class="st11" d="M260.5,72.4c0,0,2.8,16.9,9.5,31.3c6.7,14.3,11,21.3,11,21.3l8.6,10.9c0,0,14.8-24.4,18-29.4
		c2-3.2,3.6-7.5,8.6-7.5c5,0,31.6,0,35.9,0c4.3,0,6.1,0.8,7.5,2.9c1.2,1.7,14.4,25,19.7,34.2h111.8c0,0,14.8-24.4,18-29.4
		c2-3.2,3.6-7.5,8.6-7.5c5,0,31.6,0,35.9,0c4.3,0,6.1,0.8,7.5,2.9c1.1,1.6,9.3,15.7,13.6,23.2l0,0h38.5c0.9-3.9,1.5-9.4,1.5-17
		c0-29.4-9.7-43-39.6-42.7c-29.9,0.3-239.6,7.5-239.6,7.5s-25.8-1.3-44.1-1.8C273.2,70.6,260.5,72.4,260.5,72.4z"/>
	<path class="st4" d="M619.9,117.8h-5.6c-0.2,2.9-0.6,5.4-1.1,7.3h1.8c2.8,0,5.1,1.9,5.1,4.4v9.2c0,1-0.4,1.9-1.1,2.7h0.9
		c1.9,0,3.4-1.5,3.4-3.4v-16.6c0-1.9-1.5-3.4-3.4-3.4V117.8z"/>
	<g>
		<path class="st4" d="M614,73.4h-10c7.9,6.9,10.9,18.4,10.9,34.8c0,3.7-0.2,6.9-0.4,9.7h2.7V76.4c0-1.7-1.4-3.1-3.1-3.1V73.4z"/>
	</g>
	<path class="st4" d="M593.4,71.4c4.6,0,11.1,6,14.7,13.5c3.6,7.4,2.6,13.5-2,13.5s-11.2-6-14.7-13.5
		C587.9,77.3,588.7,71.4,593.4,71.4z"/>
	<path class="st0" d="M595.7,73.1c3.8,0,9.2,5,12.1,11.1s2,11.1-1.7,11.1c-3.8,0-9.3-5-12.1-11.1C591.1,78.1,592,73.1,595.7,73.1z"
		/>
	<path class="st10" d="M582.6,84.8c6.7,7.4,18.9,13.5,23.5,13.5c-4.6,0-11.1-6-14.7-13.5c-3.6-7.4-2.6-13.5,2-13.5
		C576.4,71.3,575.9,77.3,582.6,84.8z"/>
	<ellipse class="st4" cx="607.4" cy="109.7" rx="3.2" ry="5.9"/>
	<path class="st10" d="M599.8,109.6c0,3.2,5.7,5.9,7.5,5.9c-1.8,0-3.2-2.7-3.2-5.9s1.4-5.9,3.2-5.9
		C605.5,103.6,599.8,106.3,599.8,109.6z"/>
	<ellipse class="st4" cx="278.3" cy="118" rx="3.2" ry="5.9"/>
	<path class="st10" d="M285.9,118c0,3.2-5.7,5.9-7.5,5.9c1.8,0,3.2-2.7,3.2-5.9s-1.4-5.9-3.2-5.9C280.1,112,285.9,114.7,285.9,118z"
		/>
	<path class="st12" d="M586.9,66c-2.6-3.8-8.2-6.5-14.8-6.5c-7,0-61.9,3.8-84.8,8.3c40.9-1.3,76.9-2.4,88-2.5
		C579.6,65.3,583.5,65.6,586.9,66z"/>
	<path class="st4" d="M430.2,82.3c1.2,0.1,2.5,0.1,3.9,0.1c8,0,14.4-1.5,14.4-3.4c0-1.9-6.5-3.6-14.4-3.6c-1.9,0-3.7,0-5.4,0.2
		L430.2,82.3z"/>
	<path class="st4" d="M348.3,87.2c1.2,0.1,2.5,0.1,3.9,0.1c8,0,14.4-1.5,14.4-3.4s-6.5-3.6-14.4-3.6c-1.9,0-3.7,0-5.4,0.2
		L348.3,87.2z"/>
	<path class="st10" d="M448.1,79.9c-2.9-1-8.2-1.6-14.1-1.6c-1.6,0-3.1,0-4.5,0.1l0.9,3.9c1.2,0.1,2.5,0.1,3.9,0.1
		C440.7,82.4,446.3,81.3,448.1,79.9z"/>
	<path class="st10" d="M353.8,83.2c-2.3,0-4.3,0.1-6.4,0.2l0.9,3.8c1.2,0.1,2.5,0.1,3.9,0.1c7.7,0,14-1.4,14.4-3.2
		C363.1,83.5,358.6,83.2,353.8,83.2z"/>
	<g>
		<path class="st12" d="M337.8,72.8c-1.4,0.1-2.2,0.1-2.2,0.1l5.1,26.2c0.8,0,1.4,0,2.2,0L337.8,72.8z"/>
		<path class="st12" d="M416,70.1c-0.8,0.1-1.4,0.1-2.2,0.1l12.8,65.9h2.2L416,70.1z"/>
		<path class="st12" d="M505.4,67.3c-0.6,0.1-1.4,0.1-2.2,0.1l7.2,37.1c0.5-1,1.1-1.8,1.7-2.6L505.4,67.3z"/>
	</g>
	<path class="st12" d="M417.6,70.1L404.6,3.7c-1.5,0-2.9,0.1-4.4,0.2L413,70.2C414.6,70.2,416,70.2,417.6,70.1z"/>
	<path class="st9" d="M422,70L409.1,3.5c-1.5,0-2.9,0.1-4.4,0.2l12.9,66.4C419.1,70.1,420.6,70,422,70z"/>
	<path class="st9" d="M325.2,25l9.3,48c0.8,0,1.1,0,1.1,0s1.2,0,3.4-0.1l-10.1-52.4C327.7,21.7,326.5,23.2,325.2,25z"/>
	<ellipse class="st10" cx="513.7" cy="62.6" rx="3.8" ry="7.5"/>
	<path class="st4" d="M513.7,70.1c12.2-0.1,22.2-3.6,22.2-7.5s-10.1-7.3-22.2-7.5c2,0,3.8,3.3,3.8,7.5S515.9,70.2,513.7,70.1z"/>
	<path class="st10" d="M285.7,143.1h-6.1c-2.7,0-5.6-1.9-6.4-4.4l-2.8-9.2c-0.8-2.4,0.9-4.4,3.7-4.4h21.1c1.6,0,2.4,1.2,1.6,2.6
		l-6.8,12.9c-0.8,1.4-2.7,2.6-4.3,2.6V143.1z"/>
	<path class="st4" d="M295,130.9l1.7-3.2c0.6-1.4,0-2.6-1.6-2.6H274c-2.8,0-4.4,1.9-3.7,4.4l0.4,1.3c0.5-0.2,1.1-0.3,1.7-0.3h21.1
		C294.3,130.5,294.7,130.7,295,130.9z"/>
	<path class="st4" d="M619.7,135.4v5.2c0.3-0.5,0.5-1.2,0.5-1.9v-9.2c0-2.4-2.3-4.4-5.1-4.4h-40.3c-1.6,0-2.4,1.2-1.6,2.6l1.7,3.3
		h39.6c2.8,0,5.1,1.9,5.1,4.4H619.7z"/>
</g>
<title>green-car</title>
</svg>
