<svg xmlns="http://www.w3.org/2000/svg" viewBox="0 0 58.33 58.33"><title>Transportation-icon</title><path fill="#78cdd1" fill-rule="evenodd" d="M861.83,511.43a29.17,29.17,0,1,1-29.16,29.16A29.17,29.17,0,0,1,861.83,511.43Z" transform="translate(-832.67 -511.43)"/><path fill="#fff" d="M861.83,517.83a22.76,22.76,0,1,0,22.76,22.76A22.79,22.79,0,0,0,861.83,517.83Zm0,3a19.7,19.7,0,0,1,14.1,5.94l-8.57,7a8.75,8.75,0,0,0-11,0l-8.58-7A19.67,19.67,0,0,1,861.83,520.83Zm0,25.56a5.8,5.8,0,1,1,5.8-5.8A5.8,5.8,0,0,1,861.83,546.39Zm-19.76-5.8a19.56,19.56,0,0,1,2.64-9.81l8.75,7.14a8.78,8.78,0,0,0,6.37,11.23v11.1A19.78,19.78,0,0,1,842.07,540.59Zm21.76,19.66v-11.1a8.81,8.81,0,0,0,6.8-8.56,8.62,8.62,0,0,0-.4-2.6l8.77-7.15a19.74,19.74,0,0,1-15.17,29.41Z" transform="translate(-832.67 -511.43)"/></svg>
