<svg data-name="Layer 1" xmlns="http://www.w3.org/2000/svg" xmlns:xlink="http://www.w3.org/1999/xlink" viewBox="0 0 392 392"><defs><style>.cls-1,.cls-8,.cls-9{fill:none;}.cls-2{clip-path:url(#clip-path);}.cls-3{fill:#5c666f;}.cls-4{fill:#f0f0f0;stroke:#5c6670;stroke-linejoin:round;}.cls-4,.cls-5,.cls-8,.cls-9{stroke-width:2px;}.cls-5{fill:#fff;}.cls-5,.cls-8,.cls-9{stroke:#5c666f;stroke-miterlimit:10;}.cls-6{fill:#78cdd1;}.cls-7{fill:#fa7a47;}.cls-8{stroke-linecap:round;}</style><clipPath><circle class="cls-1" cx="196" cy="196" r="195"/></clipPath></defs><title>Artboard 1</title><g class="cls-2"><rect class="cls-3" x="135.01" y="113.6" width="7" height="65.5" rx="3.5" ry="3.5" transform="translate(-50.14 75.53) rotate(-26)"/><rect class="cls-3" x="113.39" y="75.55" width="4" height="46.79" rx="2" ry="2" transform="translate(-31.69 60.6) rotate(-26)"/><path class="cls-4" d="M286.15,404.4c.2-.21,32.75-29.64,32.75-29.64,3.06-3.38,3.85-8.55,3.14-10.85-.63-2-3.41-7.1-8.17-12.57s-27.94-29.9-28.66-30.53-41.55-84-42.7-86.12-8.18-37.59-8.33-39.61-16.39-44.61-17.93-48.34c-1.42-3.45-5-3.88-7.75-2.55l-44.18,19.58s-39.22,27.34-41.7,29c-3.57,2.37-7,6.81-4.14,12,1.79,3.3,91.58,174.07,92.57,176.12a16.41,16.41,0,0,0,10.93,8.3l62.91,15.42A1.4,1.4,0,0,0,286.15,404.4Z"/><path class="cls-5" d="M186.41,215.47c.53,2.8,9.92,42.86,10.91,44.61s45,89.61,45.62,90.68,27.87,30.63,29.26,32,4.23,1.55,6.32-.16,33.37-27.6,34-28.32,2.32-2.66-.73-5.49-26.06-27-26.56-28-42.16-85.09-42.87-86.55S235,196.65,234,194.35s-14.52-39.17-15.51-41.89-3.54-4.71-6.26-3.38L172,167.81a5.48,5.48,0,0,0-2.52,7.33Z"/><path class="cls-6" d="M175.61,176.31a2.88,2.88,0,0,1,1.32-3.84l33.73-15.74a2.88,2.88,0,0,1,3.84,1.32l13.08,35.85a2.87,2.87,0,0,1-1.32,3.84l-31.39,16.06a2.87,2.87,0,0,1-3.84-1.32Z"/><path class="cls-6" d="M194.06,223.26l35.78-18.5a1.06,1.06,0,0,1,1.53.77l2.75,16.33a1.06,1.06,0,0,1-.54,1.11l-34.47,18.92a1.06,1.06,0,0,1-1.54-.68l-4.06-16.75A1.06,1.06,0,0,1,194.06,223.26Z"/><path class="cls-7" d="M219.66,270.23l-6.88,4a1,1,0,0,1-1.34-.46l-3.19-6.45a1,1,0,0,1,.46-1.34l6.75-4a1,1,0,0,1,1.34.46l3.33,6.45A1,1,0,0,1,219.66,270.23Z"/><path class="cls-7" d="M232.63,262.61l-6.9,4.1a1,1,0,0,1-1.34-.46l-3.16-6.48a1,1,0,0,1,.46-1.34l7-4.21a1,1,0,0,1,1.34.46l3.08,6.59A1,1,0,0,1,232.63,262.61Z"/><path class="cls-7" d="M244.73,255.48l-6.91,4.08a1,1,0,0,1-1.34-.46l-3.15-6.46a1,1,0,0,1,.46-1.34l6.83-4.08a1,1,0,0,1,1.34.46l3.23,6.46A1,1,0,0,1,244.73,255.48Z"/><path class="cls-7" d="M226,283.31l-6.79,4.32a1,1,0,0,1-1.34-.46l-3.32-6.81A1,1,0,0,1,215,279l6.9-4.1a1,1,0,0,1,1.34.46L226.5,282A1,1,0,0,1,226,283.31Z"/><path class="cls-7" d="M238.82,275.31,232,279.59a1,1,0,0,1-1.34-.46l-3.12-6.4a1,1,0,0,1,.46-1.34l6.89-4.12a1,1,0,0,1,1.34.46l3,6.24A1,1,0,0,1,238.82,275.31Z"/><path class="cls-7" d="M250.74,267.82l-6.81,4.29a1,1,0,0,1-1.34-.46l-3-6.06a1,1,0,0,1,.46-1.34l6.9-4.1a1,1,0,0,1,1.34.46l2.86,5.87A1,1,0,0,1,250.74,267.82Z"/><path class="cls-7" d="M232.62,296.63l-6.85,4.21a1,1,0,0,1-1.34-.46l-3.3-6.77a1,1,0,0,1,.46-1.34l6.85-4.2a1,1,0,0,1,1.34.46l3.29,6.75A1,1,0,0,1,232.62,296.63Z"/><path class="cls-7" d="M245.35,288.7,238.54,293a1,1,0,0,1-1.34-.46l-3.25-6.67a1,1,0,0,1,.46-1.34l6.74-4.2a1,1,0,0,1,1.34.46l3.33,6.59A1,1,0,0,1,245.35,288.7Z"/><path class="cls-7" d="M257.29,281.23l-6.83,4.25a1,1,0,0,1-1.34-.46l-3.17-6.5a1,1,0,0,1,.46-1.34l6.85-4.21a1,1,0,0,1,1.34.46l3.15,6.46A1,1,0,0,1,257.29,281.23Z"/><path class="cls-7" d="M239.19,310.27l-6.7,4.52a1,1,0,0,1-1.34-.46l-3.29-6.74a1,1,0,0,1,.46-1.34l6.75-4.41a1,1,0,0,1,1.34.46l3.23,6.62A1,1,0,0,1,239.19,310.27Z"/><path class="cls-7" d="M251.65,301.85l-6.58,4.51a1,1,0,0,1-1.34-.46l-3.19-6.54A1,1,0,0,1,241,298l6.75-4.41a1,1,0,0,1,1.34.46l3,6.44A1,1,0,0,1,251.65,301.85Z"/><path class="cls-7" d="M263.4,294l-6.64,4.44a1,1,0,0,1-1.34-.46l-3.07-6.29a1,1,0,0,1,.46-1.34l6.75-4.41a1,1,0,0,1,1.34.46l3,6.25A1,1,0,0,1,263.4,294Z"/><path class="cls-7" d="M250.92,332.15l-7.7,5.28a1,1,0,0,1-1.34-.46l-3.07-6.29a1,1,0,0,1,.46-1.34l7.75-5.17a1,1,0,0,1,1.34.46l3,6.17A1,1,0,0,1,250.92,332.15Z"/><path class="cls-7" d="M263,323.91,255.8,329a1,1,0,0,1-1.34-.46l-3-6.09a1,1,0,0,1,.46-1.34l7.34-5a1,1,0,0,1,1.34.46l2.8,6A1,1,0,0,1,263,323.91Z"/><path class="cls-7" d="M274.73,315.67l-7.26,4.75a1,1,0,0,1-1.34-.46l-2.75-5.63a1,1,0,0,1,.46-1.34l7.37-4.71a1,1,0,0,1,1.34.46l2.64,5.6A1,1,0,0,1,274.73,315.67Z"/><path class="cls-8" d="M149.2,174.24c-3.57,2.37-7.41,5.91-4.58,11.14,1.79,3.3,108.67,209.13,109.67,211.17"/><path class="cls-6" d="M250.59,352.31l33.59-25.79a.76.76,0,0,1,1,.1L297.12,339a.76.76,0,0,1-.09,1.1l-33.22,26.71a.76.76,0,0,1-1-.07l-12.28-13.33A.76.76,0,0,1,250.59,352.31Z"/><line class="cls-9" x1="197.19" y1="260.45" x2="242.42" y2="234.77"/><line class="cls-9" x1="242.77" y1="351.06" x2="284.52" y2="319.94"/></g><path class="cls-3" d="M196,3a193.05,193.05,0,0,1,75.12,370.83A193.05,193.05,0,0,1,120.88,18.17,191.79,191.79,0,0,1,196,3m0-2C88.3,1,1,88.3,1,196S88.3,391,196,391s195-87.3,195-195S303.7,1,196,1Z"/></svg>
