<svg data-name="Layer 1" xmlns="http://www.w3.org/2000/svg" xmlns:xlink="http://www.w3.org/1999/xlink" viewBox="0 0 392 392"><defs><style>.cls-1{fill:none;}.cls-2{clip-path:url(#clip-path);}.cls-3{fill:#f0f0f0;}.cls-10,.cls-3,.cls-4{stroke:#5c6670;stroke-linejoin:round;stroke-width:2px;}.cls-10,.cls-4,.cls-8,.cls-9{fill:#fff;}.cls-5{fill:#5e666e;}.cls-6{fill:#86cece;}.cls-7{fill:#f48364;}.cls-9{font-size:14.51px;font-family:SourceSansPro-Bold, Source Sans Pro;font-weight:700;}.cls-10{stroke-linecap:round;}.cls-11{fill:#fa7a47;stroke:#fa7a47;stroke-miterlimit:10;}.cls-12{fill:#5c666f;}</style><clipPath><circle class="cls-1" cx="196" cy="196" r="195"/></clipPath></defs><title>Artboard 1 copy 2</title><g class="cls-2"><rect class="cls-3" x="108.98" y="138.61" width="175.67" height="291.23" rx="20" ry="20"/><rect class="cls-4" x="121.16" y="170.22" width="151.32" height="259.99" rx="4" ry="4"/><path class="cls-5" d="M125.64,170.66h142.8a4,4,0,0,1,4,4v18.06a0,0,0,0,1,0,0H121.64a0,0,0,0,1,0,0V174.66A4,4,0,0,1,125.64,170.66Z"/><rect class="cls-6" x="131.14" y="212.96" width="29.54" height="30.57" rx="8" ry="8"/><rect class="cls-6" x="165.34" y="212.96" width="29.54" height="30.57" rx="8" ry="8"/><rect class="cls-6" x="199.54" y="212.96" width="29.54" height="30.57" rx="8" ry="8"/><rect class="cls-7" x="235.29" y="212.96" width="29.54" height="30.57" rx="8" ry="8"/><rect class="cls-7" x="131.14" y="255.08" width="29.54" height="30.57" rx="8" ry="8"/><rect class="cls-7" x="165.34" y="255.08" width="29.54" height="30.57" rx="8" ry="8"/><rect class="cls-6" x="199.54" y="255.08" width="29.54" height="30.57" rx="8" ry="8"/><rect class="cls-6" x="233.74" y="255.08" width="29.54" height="30.57" rx="8" ry="8"/><rect class="cls-7" x="131.14" y="297.68" width="29.54" height="30.57" rx="8" ry="8"/><rect class="cls-6" x="165.34" y="297.68" width="29.54" height="30.57" rx="8" ry="8"/><rect class="cls-7" x="199.54" y="297.68" width="29.54" height="30.57" rx="8" ry="8"/><rect class="cls-7" x="233.74" y="297.68" width="29.54" height="30.57" rx="8" ry="8"/><rect class="cls-6" x="131.14" y="340.29" width="29.54" height="30.57" rx="8" ry="8"/><rect class="cls-7" x="165.34" y="340.29" width="29.54" height="30.57" rx="8" ry="8"/><rect class="cls-6" x="199.54" y="340.29" width="29.54" height="30.57" rx="8" ry="8"/><rect class="cls-6" x="233.74" y="340.29" width="29.54" height="30.57" rx="8" ry="8"/><circle class="cls-8" cx="131.83" cy="182.49" r="3.11"/><circle class="cls-8" cx="140.12" cy="182.49" r="3.11"/><circle class="cls-8" cx="148.41" cy="182.49" r="3.11"/><circle class="cls-8" cx="156.7" cy="182.49" r="3.11"/><text class="cls-9" transform="translate(167.66 186.1)">4G</text><rect class="cls-10" x="188.29" y="154.7" width="24.44" height="4.14" rx="2.07" ry="2.07"/><circle class="cls-11" cx="181.59" cy="156.73" r="2.07"/></g><path class="cls-12" d="M196,3a193.05,193.05,0,0,1,75.12,370.83A193.05,193.05,0,0,1,120.88,18.17,191.79,191.79,0,0,1,196,3m0-2C88.3,1,1,88.3,1,196S88.3,391,196,391s195-87.3,195-195S303.7,1,196,1Z"/></svg>
