<svg data-name="Layer 1" xmlns="http://www.w3.org/2000/svg" xmlns:xlink="http://www.w3.org/1999/xlink" viewBox="0 0 392 392"><defs><style>.cls-1,.cls-11{fill:none;}.cls-2{clip-path:url(#clip-path);}.cls-10,.cls-3{fill:#5c6670;}.cls-11,.cls-3,.cls-4,.cls-5,.cls-6,.cls-7,.cls-8{stroke:#5c6670;stroke-width:2px;}.cls-11,.cls-3,.cls-6,.cls-8{stroke-miterlimit:10;}.cls-4{fill:#f0f0f0;}.cls-4,.cls-5,.cls-7{stroke-linejoin:round;}.cls-5,.cls-9{fill:#5c666f;}.cls-6{fill:#dbe24b;}.cls-7{fill:#78cdd1;}.cls-8{fill:#c7d4e2;}</style><clipPath><circle class="cls-1" cx="196" cy="196" r="195"/></clipPath></defs><title>Artboard 1 copy</title><g class="cls-2"><path class="cls-3" d="M267.52,110.11l-4.8-1.77L266.2,99a2.67,2.67,0,0,1,3.4-1.61,2.64,2.64,0,0,1,1.5,3.43Z"/><path class="cls-4" d="M172.94,410.26,99.55,382.08c-6.2-2.27-9.44-4.55-7.18-10.74l90.86-247.45a11,11,0,0,1,14.09-6.55l61.14,21.84a12,12,0,0,1,7.15,15.39L188.33,403.11A12.15,12.15,0,0,1,172.94,410.26Z"/><path class="cls-5" d="M241.66,193.21,179.29,170a4,4,0,0,1-2.47-5.09l15.11-43.28a4,4,0,0,1,5.09-2.47l63.18,20.62a4,4,0,0,1,2.47,5.09l-15.92,45.86A4,4,0,0,1,241.66,193.21Z"/><path class="cls-6" d="M222.47,200.93,175.24,348.6a4,4,0,0,1-5.15,2.55l-48.82-17.38a4,4,0,0,1-2.41-5.17l54.3-145.49a4,4,0,0,1,5.12-2.36L220,196A4,4,0,0,1,222.47,200.93Z"/><path class="cls-3" d="M147,366l2.83-8.47,24,8.27a4.67,4.67,0,0,1,3,5.85,4.62,4.62,0,0,1-5.91,2.79Z"/><path class="cls-7" d="M241.14,191.4l-62.76-21.79a4,4,0,0,1-2.47-5.09L192.15,118a4,4,0,0,1,5.09-2.47L260,137.23a4,4,0,0,1,2.47,5.09l-16.27,46.61A4,4,0,0,1,241.14,191.4Z"/><circle class="cls-8" cx="218.51" cy="153.8" r="22.48" transform="translate(-39.42 84.01) rotate(-20)"/><circle class="cls-9" cx="211.6" cy="150.35" r="0.88" transform="translate(-38.66 81.44) rotate(-20)"/><circle class="cls-9" cx="216.3" cy="148.64" r="0.88" transform="translate(-37.79 82.94) rotate(-20)"/><circle class="cls-9" cx="221" cy="146.93" r="0.88" transform="translate(-36.92 84.45) rotate(-20)"/><circle class="cls-9" cx="213.31" cy="155.05" r="0.88" transform="translate(-40.17 82.31) rotate(-20)"/><circle class="cls-9" cx="218.01" cy="153.34" r="0.87" transform="translate(-39.3 83.81) rotate(-20)"/><circle class="cls-9" cx="222.71" cy="151.63" r="0.88" transform="translate(-38.43 85.32) rotate(-20)"/><circle class="cls-9" cx="215.02" cy="159.75" r="0.87" transform="translate(-41.67 83.18) rotate(-20)"/><circle class="cls-9" cx="219.72" cy="158.04" r="0.88" transform="translate(-40.8 84.68) rotate(-20)"/><circle class="cls-9" cx="224.42" cy="156.33" r="0.87" transform="translate(-39.93 86.18) rotate(-20)"/><path class="cls-10" d="M188.51,399.19c-2.27,6.2-7.11,5.93-13.31,3.67l-73.26-27.5c-8-3.39-8.72-3.45-6.46-9.64a85.84,85.84,0,0,0-4.22,8.42c-.32,1,1.43,5.51,4.58,6.85S170,409.1,172.94,410.26s13-.67,15-5S188.51,399.19,188.51,399.19Z"/><line class="cls-11" x1="265.13" y1="108.83" x2="255.85" y2="135.97"/><path class="cls-8" d="M149.27,271.26,79.44,181.07a3.66,3.66,0,1,0-5.83,4.43l69.83,90.19s10.26,8.36,10.74,8S149.27,271.26,149.27,271.26Z"/></g><path class="cls-9" d="M196,3a193.05,193.05,0,0,1,75.12,370.83A193.05,193.05,0,0,1,120.88,18.17,191.79,191.79,0,0,1,196,3m0-2C88.3,1,1,88.3,1,196S88.3,391,196,391s195-87.3,195-195S303.7,1,196,1Z"/></svg>
