<?xml version="1.0" encoding="utf-8"?>
<!-- Generator: Adobe Illustrator 21.0.2, SVG Export Plug-In . SVG Version: 6.00 Build 0)  -->
<svg version="1.1" xmlns="http://www.w3.org/2000/svg" xmlns:xlink="http://www.w3.org/1999/xlink" x="0px" y="0px"
	 viewBox="0 0 3722 2354.4" style="enable-background:new 0 0 3722 2354.4;" xml:space="preserve" role="presentation">
<style type="text/css">
	.st0{fill:#E5F1F1;}
	.st1{opacity:0.3;fill:#FFFFFF;enable-background:new    ;}
	.st2{fill:none;stroke:#5C666F;stroke-width:2;stroke-linecap:round;stroke-dasharray:2,10;}
</style>
<g>
	<path class="st0" d="M3721,372.7v1981.7H1V72.6C326.3,429.4,821.4,912,1249,1076.4C2270,1468.9,3168.4,892.5,3721,372.7z"/>
	<path class="st1" d="M3490.1,772.6c-153.5,110.4-333.5,213.9-520.6,299.5c-215.6,98.6-432.1,170.2-643.4,212.6
		c-239.8,48.2-466.5,57.2-674,26.7c-216.4-31.8-450.2-121.1-694.9-265.5c-198.9-117.4-404.9-271-612.4-456.5
		C209.3,468.1,91.6,349.5,1,253.1v258.5C87.5,598,163.8,668.8,222.4,721.3c216.5,193.9,432.4,354.9,641.7,478.6
		c125.4,74.1,250,135.6,370.2,182.7c133.7,52.4,265.4,88.3,391.6,106.8c88.8,13,180.6,19.6,275,19.6c147.8,0,301.8-16,460.6-47.9
		c224.9-45.2,454.6-121,682.9-225.4c197.5-90.3,388-200,550.8-317c44.8-32.2,86.9-64.5,125.8-96.6V579.4
		C3661.5,639.9,3582.5,706.1,3490.1,772.6z"/>
	<path class="st1" d="M3721,1289.3v200.2c-180.1,85.1-402.7,173.9-645.4,247.7c-245,74.5-484.8,126.4-712.6,154
		c-128.6,15.6-253.1,23.4-372.6,23.4c-129.2,0-252.7-9.1-369.3-27.4c-140.3-22-285.8-61.3-432.6-116.9
		c-132.4-50.2-268.7-114.7-405.3-191.8c-228.4-129-461.8-295.2-693.8-494c-30.4-26-59.9-51.9-88.4-77.5V762.2
		c63.2,60,133,123.5,208.2,187.9c222.8,190.7,446.2,349.8,664.2,472.6c269.2,151.8,530.1,248.2,775.6,286.7
		c92.1,14.4,205.9,25,341.3,25c262.8,0,607.2-39.9,1032.9-169.5c195.7-59.5,393.8-134.2,572.9-215.9
		C3639.4,1329.3,3681.3,1309.2,3721,1289.3z"/>
	<path class="st1" d="M3721,1741.3v200.5c-181.5,86.2-407.1,176.6-653.4,251.5c-245,74.5-484.8,126.4-712.6,154
		c-21.3,2.6-42.5,5-63.5,7.1H1694c-27.3-3.2-54.3-6.9-80.9-11.1c-140.3-22-285.8-61.3-432.6-116.9
		c-132.4-50.2-268.7-114.7-405.3-191.8c-228.4-129-461.8-295.2-693.8-494c-27.5-23.6-54.4-47.1-80.4-70.4v-244.4
		c61.1,57.8,128.2,118.7,200.2,180.3c222.8,190.8,446.2,349.8,664.2,472.6c269.2,151.8,530.1,248.2,775.6,286.7
		c92.1,14.4,205.9,25,341.3,25c262.8,0,607.2-39.9,1032.9-169.5c195.7-59.6,393.8-134.2,572.9-216
		C3634.3,1784,3678.9,1762.5,3721,1741.3z"/>
	<path class="st1" d="M811.4,2284.8c43.8,24.7,87.3,47.9,130.6,69.6H576.6c-181.8-114.1-366-250.8-549.2-407.8
		c-8.9-7.6-17.7-15.2-26.4-22.8v-241.5c46,42.3,94.8,85.9,146.2,129.9C370,2002.9,593.4,2161.9,811.4,2284.8z"/>
	<path class="st1" d="M3721,2119.3v202.3c-21.9,10.8-44.6,21.8-68,32.8h-472.6c121.9-43.7,241.5-92.1,353.7-143.3
		C3600.6,2180.7,3663.9,2149.6,3721,2119.3z"/>
</g>
<path class="st2" d="M1,1c328.8,368.9,828.3,866.9,1256,1031.4c1020.9,392.5,1914.9-198.3,2464-729.6"/>
</svg>
