<svg data-name="Layer 1" xmlns="http://www.w3.org/2000/svg" xmlns:xlink="http://www.w3.org/1999/xlink" viewBox="0 0 370 370"><defs><style>.cls-1,.cls-6{fill:none;}.cls-2{clip-path:url(#clip-path);}.cls-3{fill:#c4d438;}.cls-4{fill:#5c666f;}.cls-5{fill:#fff;}.cls-6{stroke:#5c666f;stroke-linecap:round;stroke-miterlimit:10;stroke-width:2px;}.cls-7{fill:#fa7a47;}.cls-8{fill:#78cdd1;}</style><clipPath><circle class="cls-1" cx="185" cy="185" r="185"/></clipPath></defs><title>Artboard 1 copy 11</title><g class="cls-2"><path class="cls-3" d="M177,140.92a11.82,11.82,0,0,1-1.25-.07L130.21,136a11.79,11.79,0,0,1-8.59-4.33L60.95,56.49A11.75,11.75,0,0,1,62.71,40L113.92-1.35A11.77,11.77,0,0,1,130.43.41L191.1,75.58a11.75,11.75,0,0,1,2.42,9.26l-4.87,45.58A11.72,11.72,0,0,1,177,140.92Z"/><path class="cls-4" d="M121.28-2.94a10.7,10.7,0,0,1,8.38,4l60.67,75.17a10.75,10.75,0,0,1,2.21,8.47v.11l-4.86,45.53a10.74,10.74,0,0,1-11.82,9.54L130.31,135h-.11a10.75,10.75,0,0,1-7.81-4L61.73,55.87a10.78,10.78,0,0,1,1.61-15.1L114.55-.57a10.59,10.59,0,0,1,6.72-2.37m0-2a12.67,12.67,0,0,0-8,2.81L62.08,39.21a12.78,12.78,0,0,0-1.91,17.91l60.67,75.17A12.7,12.7,0,0,0,130.1,137l45.53,4.86a12.74,12.74,0,0,0,14-11.31L194.51,85a12.7,12.7,0,0,0-2.63-10L131.21-.21a12.73,12.73,0,0,0-9.93-4.72Z"/><path class="cls-5" d="M159,117.6a10.68,10.68,0,1,1,6.7-2.37A10.64,10.64,0,0,1,159,117.6Z"/><path class="cls-4" d="M159,97.25h0a9.68,9.68,0,1,1-6.07,2.15A9.64,9.64,0,0,1,159,97.25m0-2a11.68,11.68,0,1,0,9.09,4.34A11.63,11.63,0,0,0,159,95.25Z"/><path class="cls-6" d="M120.12,46.77a9.55,9.55,0,1,0,2,16.13,9.55,9.55,0,1,1,.07,14.93"/><line class="cls-6" x1="137.36" y1="82.43" x2="134.09" y2="78.38"/><line class="cls-6" x1="109.68" y1="46.74" x2="106.4" y2="42.69"/><path class="cls-3" d="M254.3,240.09a11.82,11.82,0,0,1-1.25-.07l-45.53-4.86a11.79,11.79,0,0,1-8.59-4.33l-60.67-75.17A11.75,11.75,0,0,1,140,139.16l51.21-41.33a11.77,11.77,0,0,1,16.51,1.76l60.67,75.17a11.75,11.75,0,0,1,2.42,9.26L266,229.6a11.72,11.72,0,0,1-11.67,10.49Z"/><path class="cls-4" d="M198.6,96.24a10.7,10.7,0,0,1,8.38,4l60.67,75.17a10.75,10.75,0,0,1,2.21,8.47V184L265,229.49A10.74,10.74,0,0,1,253.17,239l-45.53-4.86h-.11a10.75,10.75,0,0,1-7.81-4L139,155a10.78,10.78,0,0,1,1.61-15.1L191.88,98.6a10.59,10.59,0,0,1,6.72-2.37m0-2a12.67,12.67,0,0,0-8,2.81L139.4,138.38a12.78,12.78,0,0,0-1.91,17.91l60.67,75.17a12.7,12.7,0,0,0,9.26,4.69L253,241a12.74,12.74,0,0,0,14-11.31l4.86-45.53a12.7,12.7,0,0,0-2.63-10L208.53,99a12.73,12.73,0,0,0-9.93-4.72Z"/><path class="cls-5" d="M236.35,216.78a10.68,10.68,0,1,1,6.7-2.37A10.64,10.64,0,0,1,236.35,216.78Z"/><path class="cls-4" d="M236.34,196.43h0a9.68,9.68,0,1,1-6.07,2.15,9.64,9.64,0,0,1,6.07-2.15m0-2a11.68,11.68,0,1,0,9.09,4.34,11.63,11.63,0,0,0-9.09-4.34Z"/><path class="cls-6" d="M197.45,145.94a9.55,9.55,0,1,0,2,16.13,9.55,9.55,0,1,1,.07,14.93"/><line class="cls-6" x1="214.69" y1="181.61" x2="211.41" y2="177.55"/><line class="cls-6" x1="187" y1="145.92" x2="183.73" y2="141.86"/><path class="cls-7" d="M216.22,216.81a11.82,11.82,0,0,1-1.25-.07l-45.53-4.86a11.79,11.79,0,0,1-8.59-4.33l-60.67-75.17A11.75,11.75,0,0,1,102,115.88l51.21-41.33a11.78,11.78,0,0,1,16.51,1.76l60.67,75.17a11.75,11.75,0,0,1,2.42,9.26l-4.87,45.58a11.72,11.72,0,0,1-11.67,10.49Z"/><path class="cls-4" d="M160.52,73a10.7,10.7,0,0,1,8.38,4l60.67,75.17a10.75,10.75,0,0,1,2.21,8.47v.11l-4.86,45.53a10.74,10.74,0,0,1-11.82,9.54l-45.53-4.86h-.11a10.75,10.75,0,0,1-7.81-4L101,131.76a10.78,10.78,0,0,1,1.61-15.1l51.21-41.33A10.59,10.59,0,0,1,160.52,73m0-2a12.67,12.67,0,0,0-8,2.81L101.32,115.1A12.78,12.78,0,0,0,99.41,133l60.67,75.17a12.7,12.7,0,0,0,9.26,4.69l45.53,4.86a12.74,12.74,0,0,0,14-11.31l4.86-45.53a12.7,12.7,0,0,0-2.63-10L170.45,75.68A12.73,12.73,0,0,0,160.52,71Z"/><path class="cls-5" d="M198.27,193.5a10.68,10.68,0,1,1,6.7-2.37A10.64,10.64,0,0,1,198.27,193.5Z"/><path class="cls-4" d="M198.26,173.14h0a9.68,9.68,0,1,1-6.07,2.15,9.64,9.64,0,0,1,6.07-2.15m0-2a11.68,11.68,0,1,0,9.09,4.34,11.63,11.63,0,0,0-9.09-4.34Z"/><path class="cls-6" d="M159.36,122.66a9.55,9.55,0,1,0,2,16.13,9.55,9.55,0,1,1,.07,14.93"/><line class="cls-6" x1="176.61" y1="158.33" x2="173.33" y2="154.27"/><line class="cls-6" x1="148.92" y1="122.64" x2="145.64" y2="118.58"/><path class="cls-3" d="M166.52,252.94a11.82,11.82,0,0,1-1.25-.07L119.74,248a11.79,11.79,0,0,1-8.59-4.33L50.48,168.52A11.75,11.75,0,0,1,52.24,152l51.21-41.33A11.77,11.77,0,0,1,120,112.44l60.67,75.17a11.75,11.75,0,0,1,2.42,9.26l-4.87,45.58a11.72,11.72,0,0,1-11.67,10.49Z"/><path class="cls-4" d="M110.81,109.09a10.7,10.7,0,0,1,8.38,4l60.67,75.17a10.75,10.75,0,0,1,2.21,8.47v.11l-4.86,45.53a10.74,10.74,0,0,1-11.82,9.54L119.85,247h-.11a10.75,10.75,0,0,1-7.81-4L51.26,167.89a10.78,10.78,0,0,1,1.61-15.1l51.21-41.33a10.59,10.59,0,0,1,6.72-2.37m0-2a12.67,12.67,0,0,0-8,2.81L51.62,151.23a12.78,12.78,0,0,0-1.91,17.91l60.67,75.17a12.7,12.7,0,0,0,9.26,4.69l45.53,4.86a12.74,12.74,0,0,0,14-11.31L184,197a12.7,12.7,0,0,0-2.63-10l-60.67-75.17a12.73,12.73,0,0,0-9.93-4.72Z"/><path class="cls-5" d="M148.57,229.63a10.68,10.68,0,1,1,6.7-2.37A10.64,10.64,0,0,1,148.57,229.63Z"/><path class="cls-4" d="M148.55,209.28h0a9.68,9.68,0,1,1-6.07,2.15,9.64,9.64,0,0,1,6.07-2.15m0-2a11.68,11.68,0,1,0,9.09,4.34,11.63,11.63,0,0,0-9.09-4.34Z"/><path class="cls-6" d="M109.66,158.79a9.55,9.55,0,1,0,2,16.13,9.55,9.55,0,1,1,.07,14.93"/><line class="cls-6" x1="126.9" y1="194.46" x2="123.63" y2="190.4"/><line class="cls-6" x1="99.21" y1="158.77" x2="95.94" y2="154.71"/><path class="cls-8" d="M116.72,172a11.84,11.84,0,0,1-1.25-.07l-45.53-4.86a11.79,11.79,0,0,1-8.59-4.33L.69,87.57A11.77,11.77,0,0,1,2.45,71.07L53.67,29.73A11.77,11.77,0,0,1,70.17,31.5l60.67,75.17a11.76,11.76,0,0,1,2.42,9.26L128.4,161.5A11.72,11.72,0,0,1,116.72,172Z"/><path class="cls-4" d="M61,28.14a10.7,10.7,0,0,1,8.38,4l60.67,75.17a10.75,10.75,0,0,1,2.21,8.47v.11L127.4,161.4a10.74,10.74,0,0,1-11.82,9.54l-45.53-4.86h-.11a10.75,10.75,0,0,1-7.81-4L1.47,86.95a10.78,10.78,0,0,1,1.61-15.1L54.29,30.51A10.59,10.59,0,0,1,61,28.14m0-2A12.67,12.67,0,0,0,53,29L1.82,70.29A12.78,12.78,0,0,0-.09,88.2l60.67,75.17a12.7,12.7,0,0,0,9.26,4.69l45.53,4.86a12.74,12.74,0,0,0,14-11.31l4.86-45.53a12.7,12.7,0,0,0-2.63-10L71,30.87A12.73,12.73,0,0,0,61,26.14Z"/><path class="cls-5" d="M98.77,148.69a10.68,10.68,0,1,1,6.7-2.37A10.64,10.64,0,0,1,98.77,148.69Z"/><path class="cls-4" d="M98.76,128.33h0a9.68,9.68,0,1,1-6.07,2.15,9.64,9.64,0,0,1,6.07-2.15m0-2a11.68,11.68,0,1,0,9.09,4.34,11.63,11.63,0,0,0-9.09-4.34Z"/><path class="cls-6" d="M59.86,77.85A9.55,9.55,0,1,0,61.9,94,9.55,9.55,0,1,1,62,108.91"/><line class="cls-6" x1="77.11" y1="113.51" x2="73.83" y2="109.46"/><line class="cls-6" x1="49.42" y1="77.82" x2="46.14" y2="73.77"/></g><path class="cls-4" d="M185,2a183,183,0,0,1,71.23,351.62A183,183,0,0,1,113.77,16.38,181.85,181.85,0,0,1,185,2m0-2C82.83,0,0,82.83,0,185S82.83,370,185,370s185-82.83,185-185S287.17,0,185,0Z"/></svg>
