<svg data-name="Layer 1" xmlns="http://www.w3.org/2000/svg" xmlns:xlink="http://www.w3.org/1999/xlink" viewBox="0 0 370 370"><defs><style>.cls-1,.cls-5{fill:none;}.cls-2{clip-path:url(#clip-path);}.cls-3{fill:#fff;}.cls-3,.cls-5{stroke:#5c666f;stroke-miterlimit:10;stroke-width:2px;}.cls-4{fill:#c4d438;}.cls-6{fill:#5c666f;}</style><clipPath><circle class="cls-1" cx="185" cy="185" r="185"/></clipPath></defs><title>Artboard 1 copy 10</title><g class="cls-2"><path class="cls-3" d="M58.79,325.48c-28.64,0-51.87,7.93-51.87,17.71v17c0,9.79,23.23,17.72,51.87,17.72s51.87-7.93,51.87-17.72v-17C110.66,333.4,87.43,325.48,58.79,325.48Z"/><path class="cls-4" d="M110.66,347.36v12.37c0,9.79-23.23,17.72-51.87,17.72S6.92,369.52,6.92,359.73V347.36s19,15.16,51.54,13.57C93.27,359.24,110.66,347.36,110.66,347.36Z"/><path class="cls-5" d="M110.66,343.18c0,9.79-23.23,17.72-51.87,17.72S6.92,353,6.92,343.18s23.23-17.71,51.87-17.71S110.66,333.4,110.66,343.18Z"/><path class="cls-5" d="M6.92,345.49v14.67c0,9.79,23.23,17.72,51.87,17.72s51.87-7.93,51.87-17.72V347.79"/><path class="cls-3" d="M58.79,308.19c-28.64,0-51.87,7.93-51.87,17.71v17c0,9.79,23.23,17.72,51.87,17.72s51.87-7.93,51.87-17.72v-17C110.66,316.11,87.43,308.19,58.79,308.19Z"/><path class="cls-4" d="M110.66,330.07v12.37c0,9.79-23.23,17.72-51.87,17.72S6.92,352.23,6.92,342.44V330.07s19,15.16,51.54,13.57C93.27,342,110.66,330.07,110.66,330.07Z"/><path class="cls-5" d="M110.66,325.89c0,9.79-23.23,17.72-51.87,17.72S6.92,335.68,6.92,325.89s23.23-17.71,51.87-17.71S110.66,316.11,110.66,325.89Z"/><path class="cls-5" d="M6.92,328.2v14.67c0,9.79,23.23,17.72,51.87,17.72s51.87-7.93,51.87-17.72V330.5"/><path class="cls-3" d="M58.79,290.9c-28.64,0-51.87,7.93-51.87,17.71v17c0,9.79,23.23,17.72,51.87,17.72s51.87-7.93,51.87-17.72v-17C110.66,298.82,87.43,290.9,58.79,290.9Z"/><path class="cls-4" d="M110.66,312.78v12.37c0,9.79-23.23,17.72-51.87,17.72S6.92,334.94,6.92,325.15V312.78s19,15.16,51.54,13.57C93.27,324.66,110.66,312.78,110.66,312.78Z"/><path class="cls-5" d="M110.66,308.6c0,9.79-23.23,17.72-51.87,17.72S6.92,318.39,6.92,308.6,30.14,290.9,58.79,290.9,110.66,298.82,110.66,308.6Z"/><path class="cls-5" d="M6.92,310.91v14.67c0,9.79,23.23,17.72,51.87,17.72s51.87-7.93,51.87-17.72V313.21"/><path class="cls-3" d="M58.79,269c-28.64,0-51.87,7.93-51.87,17.71v17c0,9.79,23.23,17.72,51.87,17.72s51.87-7.93,51.87-17.72v-17C110.66,276.92,87.43,269,58.79,269Z"/><path class="cls-4" d="M110.66,290.88v12.37C110.66,313,87.43,321,58.79,321S6.92,313,6.92,303.25V290.88s19,15.16,51.54,13.57C93.27,302.76,110.66,290.88,110.66,290.88Z"/><path class="cls-5" d="M110.66,286.7c0,9.79-23.23,17.72-51.87,17.72S6.92,296.49,6.92,286.7,30.14,269,58.79,269,110.66,276.92,110.66,286.7Z"/><path class="cls-5" d="M6.92,289v14.67c0,9.79,23.23,17.72,51.87,17.72s51.87-7.93,51.87-17.72V291.31"/><path class="cls-3" d="M58.79,251.71c-28.64,0-51.87,7.93-51.87,17.71v17c0,9.79,23.23,17.72,51.87,17.72s51.87-7.93,51.87-17.72v-17C110.66,259.63,87.43,251.71,58.79,251.71Z"/><path class="cls-4" d="M110.66,273.59V286c0,9.79-23.23,17.72-51.87,17.72S6.92,295.75,6.92,286V273.59s19,15.16,51.54,13.57C93.27,285.47,110.66,273.59,110.66,273.59Z"/><path class="cls-5" d="M110.66,269.41c0,9.79-23.23,17.72-51.87,17.72S6.92,279.2,6.92,269.41s23.23-17.71,51.87-17.71S110.66,259.63,110.66,269.41Z"/><path class="cls-5" d="M6.92,271.72v14.67c0,9.79,23.23,17.72,51.87,17.72s51.87-7.93,51.87-17.72V274"/><path class="cls-3" d="M58.79,234.42c-28.64,0-51.87,7.93-51.87,17.71v17c0,9.79,23.23,17.72,51.87,17.72s51.87-7.93,51.87-17.72v-17C110.66,242.34,87.43,234.42,58.79,234.42Z"/><path class="cls-4" d="M110.66,256.3v12.37c0,9.79-23.23,17.72-51.87,17.72S6.92,278.46,6.92,268.67V256.3s19,15.16,51.54,13.57C93.27,268.18,110.66,256.3,110.66,256.3Z"/><path class="cls-5" d="M110.66,252.12c0,9.79-23.23,17.72-51.87,17.72S6.92,261.91,6.92,252.12s23.23-17.71,51.87-17.71S110.66,242.34,110.66,252.12Z"/><path class="cls-5" d="M6.92,254.43V269.1c0,9.79,23.23,17.72,51.87,17.72s51.87-7.93,51.87-17.72V256.73"/><path class="cls-3" d="M51.87,211.36C23.23,211.36,0,219.29,0,229.07v17c0,9.79,23.23,17.72,51.87,17.72s51.87-7.93,51.87-17.72v-17C103.74,219.28,80.51,211.36,51.87,211.36Z"/><path class="cls-4" d="M103.74,233.25v12.37c0,9.79-23.23,17.72-51.87,17.72S0,255.4,0,245.62V233.25s19,15.16,51.54,13.57C86.35,245.13,103.74,233.25,103.74,233.25Z"/><path class="cls-5" d="M103.74,229.07c0,9.79-23.23,17.72-51.87,17.72S0,238.85,0,229.07s23.23-17.71,51.87-17.71S103.74,219.28,103.74,229.07Z"/><path class="cls-5" d="M0,231.37V246c0,9.79,23.23,17.72,51.87,17.72s51.87-7.93,51.87-17.72V233.68"/><path class="cls-3" d="M51.87,194.07C23.23,194.07,0,202,0,211.78v17c0,9.79,23.23,17.72,51.87,17.72s51.87-7.93,51.87-17.72v-17C103.74,202,80.51,194.07,51.87,194.07Z"/><path class="cls-4" d="M103.74,216v12.37c0,9.79-23.23,17.72-51.87,17.72S0,238.11,0,228.33V216s19,15.16,51.54,13.57C86.35,227.84,103.74,216,103.74,216Z"/><path class="cls-5" d="M103.74,211.78c0,9.79-23.23,17.72-51.87,17.72S0,221.56,0,211.78s23.23-17.71,51.87-17.71S103.74,202,103.74,211.78Z"/><path class="cls-5" d="M0,214.08v14.67c0,9.79,23.23,17.72,51.87,17.72s51.87-7.93,51.87-17.72V216.39"/><path class="cls-3" d="M59.94,169.87c-28.64,0-51.87,7.93-51.87,17.71v17c0,9.79,23.23,17.72,51.87,17.72s51.87-7.93,51.87-17.72v-17C111.81,177.79,88.58,169.87,59.94,169.87Z"/><path class="cls-4" d="M111.81,191.75v12.37c0,9.79-23.23,17.72-51.87,17.72S8.07,213.91,8.07,204.12V191.75s19,15.16,51.54,13.57C94.42,203.63,111.81,191.75,111.81,191.75Z"/><path class="cls-5" d="M111.81,187.57c0,9.79-23.23,17.72-51.87,17.72S8.07,197.36,8.07,187.57s23.23-17.71,51.87-17.71S111.81,177.79,111.81,187.57Z"/><path class="cls-5" d="M8.07,189.88v14.67c0,9.79,23.23,17.72,51.87,17.72s51.87-7.93,51.87-17.72V192.18"/><path class="cls-3" d="M53,149.12c-28.64,0-51.87,7.93-51.87,17.71v17c0,9.79,23.23,17.72,51.87,17.72s51.87-7.93,51.87-17.72v-17C104.89,157,81.67,149.12,53,149.12Z"/><path class="cls-4" d="M104.89,171v12.37c0,9.79-23.23,17.72-51.87,17.72S1.15,193.16,1.15,183.37V171s19,15.16,51.54,13.57C87.51,182.88,104.89,171,104.89,171Z"/><path class="cls-5" d="M104.89,166.82c0,9.79-23.23,17.72-51.87,17.72S1.15,176.61,1.15,166.82,24.38,149.12,53,149.12,104.89,157,104.89,166.82Z"/><path class="cls-5" d="M1.15,169.13V183.8c0,9.79,23.23,17.72,51.87,17.72s51.87-7.93,51.87-17.72V171.43"/><path class="cls-3" d="M53,131.83c-28.64,0-51.87,7.93-51.87,17.71v17c0,9.79,23.23,17.72,51.87,17.72s51.87-7.93,51.87-17.72v-17C104.89,139.75,81.67,131.83,53,131.83Z"/><path class="cls-4" d="M104.89,153.71v12.37c0,9.79-23.23,17.72-51.87,17.72S1.15,175.87,1.15,166.08V153.71s19,15.16,51.54,13.57C87.51,165.59,104.89,153.71,104.89,153.71Z"/><path class="cls-5" d="M104.89,149.53c0,9.79-23.23,17.72-51.87,17.72S1.15,159.32,1.15,149.53,24.38,131.83,53,131.83,104.89,139.75,104.89,149.53Z"/><path class="cls-5" d="M1.15,151.84v14.67c0,9.79,23.23,17.72,51.87,17.72s51.87-7.93,51.87-17.72V154.14"/><path class="cls-3" d="M180.59,359.68c-28.64,0-51.87,7.93-51.87,17.71v17c0,9.79,23.23,17.72,51.87,17.72s51.87-7.93,51.87-17.72v-17C232.46,367.59,209.23,359.68,180.59,359.68Z"/><path class="cls-5" d="M232.46,377.38c0,9.79-23.23,17.72-51.87,17.72s-51.87-7.93-51.87-17.72,23.23-17.71,51.87-17.71S232.46,367.59,232.46,377.38Z"/><path class="cls-3" d="M180.59,342.38c-28.64,0-51.87,7.93-51.87,17.71v17c0,9.79,23.23,17.72,51.87,17.72s51.87-7.93,51.87-17.72v-17C232.46,350.3,209.23,342.38,180.59,342.38Z"/><path class="cls-4" d="M232.46,364.27v12.37c0,9.79-23.23,17.72-51.87,17.72s-51.87-7.93-51.87-17.72V364.27s19,15.16,51.54,13.57C215.07,376.15,232.46,364.27,232.46,364.27Z"/><path class="cls-5" d="M232.46,360.09c0,9.79-23.23,17.72-51.87,17.72s-51.87-7.93-51.87-17.72,23.23-17.71,51.87-17.71S232.46,350.3,232.46,360.09Z"/><path class="cls-5" d="M128.72,362.4v14.67c0,9.79,23.23,17.72,51.87,17.72s51.87-7.93,51.87-17.72V364.7"/><path class="cls-3" d="M180.59,320.48c-28.64,0-51.87,7.93-51.87,17.71v17c0,9.79,23.23,17.72,51.87,17.72s51.87-7.93,51.87-17.72v-17C232.46,328.4,209.23,320.48,180.59,320.48Z"/><path class="cls-4" d="M232.46,342.37v12.37c0,9.79-23.23,17.72-51.87,17.72s-51.87-7.93-51.87-17.72V342.37s19,15.16,51.54,13.57C215.07,354.25,232.46,342.37,232.46,342.37Z"/><path class="cls-5" d="M232.46,338.19c0,9.79-23.23,17.72-51.87,17.72s-51.87-7.93-51.87-17.72,23.23-17.71,51.87-17.71S232.46,328.4,232.46,338.19Z"/><path class="cls-5" d="M128.72,340.49v14.67c0,9.79,23.23,17.72,51.87,17.72s51.87-7.93,51.87-17.72V342.8"/><path class="cls-3" d="M180.59,303.19c-28.64,0-51.87,7.93-51.87,17.71v17c0,9.79,23.23,17.72,51.87,17.72s51.87-7.93,51.87-17.72v-17C232.46,311.11,209.23,303.19,180.59,303.19Z"/><path class="cls-4" d="M232.46,325.08v12.37c0,9.79-23.23,17.72-51.87,17.72s-51.87-7.93-51.87-17.72V325.08s19,15.16,51.54,13.57C215.07,337,232.46,325.08,232.46,325.08Z"/><path class="cls-5" d="M232.46,320.9c0,9.79-23.23,17.72-51.87,17.72s-51.87-7.93-51.87-17.72,23.23-17.71,51.87-17.71S232.46,311.11,232.46,320.9Z"/><path class="cls-5" d="M128.72,323.2v14.67c0,9.79,23.23,17.72,51.87,17.72s51.87-7.93,51.87-17.72V325.51"/><path class="cls-3" d="M180.59,285.9c-28.64,0-51.87,7.93-51.87,17.71v17c0,9.79,23.23,17.72,51.87,17.72s51.87-7.93,51.87-17.72v-17C232.46,293.82,209.23,285.9,180.59,285.9Z"/><path class="cls-4" d="M232.46,307.79v12.37c0,9.79-23.23,17.72-51.87,17.72s-51.87-7.93-51.87-17.72V307.79s19,15.16,51.54,13.57C215.07,319.67,232.46,307.79,232.46,307.79Z"/><path class="cls-5" d="M232.46,303.61c0,9.79-23.23,17.72-51.87,17.72s-51.87-7.93-51.87-17.72,23.23-17.71,51.87-17.71S232.46,293.82,232.46,303.61Z"/><path class="cls-5" d="M128.72,305.91v14.67c0,9.79,23.23,17.72,51.87,17.72s51.87-7.93,51.87-17.72V308.22"/><path class="cls-3" d="M174.82,262.85c-28.64,0-51.87,7.93-51.87,17.71v17c0,9.79,23.23,17.72,51.87,17.72s51.87-7.93,51.87-17.72v-17C226.69,270.77,203.47,262.85,174.82,262.85Z"/><path class="cls-4" d="M226.69,284.73V297.1c0,9.79-23.23,17.72-51.87,17.72S123,306.89,123,297.1V284.73s19,15.16,51.54,13.57C209.31,296.61,226.69,284.73,226.69,284.73Z"/><path class="cls-5" d="M226.69,280.56c0,9.79-23.23,17.72-51.87,17.72S123,290.34,123,280.56s23.23-17.71,51.87-17.71S226.69,270.77,226.69,280.56Z"/><path class="cls-5" d="M123,282.86v14.67c0,9.79,23.23,17.72,51.87,17.72s51.87-7.93,51.87-17.72V285.17"/><path class="cls-3" d="M174.82,245.56c-28.64,0-51.87,7.93-51.87,17.71v17C123,290,146.18,298,174.82,298s51.87-7.93,51.87-17.72v-17C226.69,253.48,203.47,245.56,174.82,245.56Z"/><path class="cls-4" d="M226.69,267.44v12.37c0,9.79-23.23,17.72-51.87,17.72S123,289.6,123,279.81V267.44s19,15.16,51.54,13.57C209.31,279.32,226.69,267.44,226.69,267.44Z"/><path class="cls-5" d="M226.69,263.26c0,9.79-23.23,17.72-51.87,17.72S123,273.05,123,263.26s23.23-17.71,51.87-17.71S226.69,253.48,226.69,263.26Z"/><path class="cls-5" d="M123,265.57v14.67C123,290,146.18,298,174.82,298s51.87-7.93,51.87-17.72V267.88"/><path class="cls-3" d="M175.72,217.9c-28.64,0-51.87,7.93-51.87,17.71v17c0,9.79,23.23,17.72,51.87,17.72s51.87-7.93,51.87-17.72v-17C227.59,225.81,204.36,217.9,175.72,217.9Z"/><path class="cls-4" d="M227.59,239.78v12.37c0,9.79-23.23,17.72-51.87,17.72s-51.87-7.93-51.87-17.72V239.78s19,15.16,51.54,13.57C210.2,251.66,227.59,239.78,227.59,239.78Z"/><path class="cls-5" d="M227.59,235.6c0,9.79-23.23,17.72-51.87,17.72s-51.87-7.93-51.87-17.72,23.23-17.71,51.87-17.71S227.59,225.81,227.59,235.6Z"/><path class="cls-5" d="M123.85,237.91v14.67c0,9.79,23.23,17.72,51.87,17.72s51.87-7.93,51.87-17.72V240.21"/><path class="cls-3" d="M175.72,200.61c-28.64,0-51.87,7.93-51.87,17.71v17c0,9.79,23.23,17.72,51.87,17.72s51.87-7.93,51.87-17.72v-17C227.59,208.52,204.36,200.61,175.72,200.61Z"/><path class="cls-4" d="M227.59,222.49v12.37c0,9.79-23.23,17.72-51.87,17.72s-51.87-7.93-51.87-17.72V222.49s19,15.16,51.54,13.57C210.2,234.37,227.59,222.49,227.59,222.49Z"/><path class="cls-5" d="M227.59,218.31c0,9.79-23.23,17.72-51.87,17.72s-51.87-7.93-51.87-17.72,23.23-17.71,51.87-17.71S227.59,208.52,227.59,218.31Z"/><path class="cls-5" d="M123.85,220.62v14.67c0,9.79,23.23,17.72,51.87,17.72s51.87-7.93,51.87-17.72V222.92"/><path class="cls-3" d="M175.72,183.31c-28.64,0-51.87,7.93-51.87,17.71v17c0,9.79,23.23,17.72,51.87,17.72s51.87-7.93,51.87-17.72V201C227.59,191.23,204.36,183.31,175.72,183.31Z"/><path class="cls-4" d="M227.59,205.2v12.37c0,9.79-23.23,17.72-51.87,17.72s-51.87-7.93-51.87-17.72V205.2s19,15.16,51.54,13.57C210.2,217.08,227.59,205.2,227.59,205.2Z"/><path class="cls-5" d="M227.59,201c0,9.79-23.23,17.72-51.87,17.72s-51.87-7.93-51.87-17.72,23.23-17.71,51.87-17.71S227.59,191.23,227.59,201Z"/><path class="cls-5" d="M123.85,203.33V218c0,9.79,23.23,17.72,51.87,17.72s51.87-7.93,51.87-17.72V205.63"/><path class="cls-3" d="M293.55,312c-28.64,0-51.87,7.93-51.87,17.71v17c0,9.79,23.23,17.72,51.87,17.72s51.87-7.93,51.87-17.72v-17C345.42,319.95,322.19,312,293.55,312Z"/><path class="cls-4" d="M345.42,333.91v12.37c0,9.79-23.23,17.72-51.87,17.72s-51.87-7.93-51.87-17.72V333.91s19,15.16,51.54,13.57C328,345.79,345.42,333.91,345.42,333.91Z"/><path class="cls-5" d="M345.42,329.74c0,9.79-23.23,17.72-51.87,17.72s-51.87-7.93-51.87-17.72S264.91,312,293.55,312,345.42,319.95,345.42,329.74Z"/><path class="cls-5" d="M241.68,332v14.67c0,9.79,23.23,17.72,51.87,17.72s51.87-7.93,51.87-17.72V334.35"/><path class="cls-3" d="M293.55,294.74c-28.64,0-51.87,7.93-51.87,17.71v17c0,9.79,23.23,17.72,51.87,17.72s51.87-7.93,51.87-17.72v-17C345.42,302.66,322.19,294.74,293.55,294.74Z"/><path class="cls-4" d="M345.42,316.62V329c0,9.79-23.23,17.72-51.87,17.72s-51.87-7.93-51.87-17.72V316.62s19,15.16,51.54,13.57C328,328.5,345.42,316.62,345.42,316.62Z"/><path class="cls-5" d="M345.42,312.45c0,9.79-23.23,17.72-51.87,17.72s-51.87-7.93-51.87-17.72,23.23-17.71,51.87-17.71S345.42,302.66,345.42,312.45Z"/><path class="cls-5" d="M241.68,314.75v14.67c0,9.79,23.23,17.72,51.87,17.72s51.87-7.93,51.87-17.72V317.06"/><path class="cls-3" d="M294.45,264.77c-28.64,0-51.87,7.93-51.87,17.71v17c0,9.79,23.23,17.72,51.87,17.72s51.87-7.93,51.87-17.72v-17C346.32,272.69,323.09,264.77,294.45,264.77Z"/><path class="cls-4" d="M346.32,286.65V299c0,9.79-23.23,17.72-51.87,17.72s-51.87-7.93-51.87-17.72V286.65s19,15.16,51.54,13.57C328.93,298.53,346.32,286.65,346.32,286.65Z"/><path class="cls-5" d="M346.32,282.48c0,9.79-23.23,17.72-51.87,17.72s-51.87-7.93-51.87-17.72,23.23-17.71,51.87-17.71S346.32,272.69,346.32,282.48Z"/><path class="cls-5" d="M242.58,284.78v14.67c0,9.79,23.23,17.72,51.87,17.72s51.87-7.93,51.87-17.72V287.09"/><path class="cls-3" d="M294.45,247.48c-28.64,0-51.87,7.93-51.87,17.71v17c0,9.79,23.23,17.72,51.87,17.72s51.87-7.93,51.87-17.72v-17C346.32,255.4,323.09,247.48,294.45,247.48Z"/><path class="cls-4" d="M346.32,269.36v12.37c0,9.79-23.23,17.72-51.87,17.72s-51.87-7.93-51.87-17.72V269.36s19,15.16,51.54,13.57C328.93,281.24,346.32,269.36,346.32,269.36Z"/><path class="cls-5" d="M346.32,265.19c0,9.79-23.23,17.72-51.87,17.72s-51.87-7.93-51.87-17.72,23.23-17.71,51.87-17.71S346.32,255.4,346.32,265.19Z"/><path class="cls-5" d="M242.58,267.49v14.67c0,9.79,23.23,17.72,51.87,17.72s51.87-7.93,51.87-17.72V269.8"/><path class="cls-3" d="M294.45,230.19c-28.64,0-51.87,7.93-51.87,17.71v17c0,9.79,23.23,17.72,51.87,17.72s51.87-7.93,51.87-17.72v-17C346.32,238.11,323.09,230.19,294.45,230.19Z"/><path class="cls-4" d="M346.32,252.07v12.37c0,9.79-23.23,17.72-51.87,17.72s-51.87-7.93-51.87-17.72V252.07s19,15.16,51.54,13.57C328.93,264,346.32,252.07,346.32,252.07Z"/><path class="cls-5" d="M346.32,247.9c0,9.79-23.23,17.72-51.87,17.72s-51.87-7.93-51.87-17.72,23.23-17.71,51.87-17.71S346.32,238.11,346.32,247.9Z"/><path class="cls-5" d="M242.58,250.2v14.67c0,9.79,23.23,17.72,51.87,17.72s51.87-7.93,51.87-17.72V252.51"/></g><path class="cls-6" d="M185,2a183,183,0,0,1,71.23,351.62A183,183,0,0,1,113.77,16.38,181.85,181.85,0,0,1,185,2m0-2C82.83,0,0,82.83,0,185S82.83,370,185,370s185-82.83,185-185S287.17,0,185,0Z"/></svg>
