<svg data-name="Layer 1" xmlns="http://www.w3.org/2000/svg" xmlns:xlink="http://www.w3.org/1999/xlink" viewBox="0 0 392 392"><defs><style>.cls-1{fill:none;}.cls-2{clip-path:url(#clip-path);}.cls-3{fill:#eaeaea;stroke:#5c6670;}.cls-3,.cls-5{stroke-miterlimit:10;stroke-width:2px;}.cls-4{fill:#fff;}.cls-5{fill:#c4d438;stroke:#5c666f;}.cls-6{fill:#5c666f;}</style><clipPath><circle class="cls-1" cx="196.03" cy="196" r="185"/></clipPath></defs><title>download</title><g class="cls-2"><rect class="cls-3" x="51.1" y="241.18" width="289.86" height="185.84" rx="6.97" ry="6.97"/><circle class="cls-4" cx="196.03" cy="336.73" r="30"/><path class="cls-5" d="M196,265.58a8.15,8.15,0,0,0,5-2l41-38.63c2.35-2.62,3.32-7.63.6-10.56a7.53,7.53,0,0,0-10.56.08l-28.82,27.15v-99.4a7.24,7.24,0,0,0-14.48,0v99.4L160,214.51c-2.48-2.48-7.85-2.93-10.56-.08s-1.85,8,.6,10.56l41,38.63A7,7,0,0,0,196,265.58Z"/><path class="cls-6" d="M196,13a183,183,0,0,1,71.23,351.62A183,183,0,0,1,124.8,27.38,181.87,181.87,0,0,1,196,13m0-2C93.86,11,11,93.83,11,196S93.86,381,196,381s185-82.83,185-185S298.2,11,196,11Z"/></g></svg>
