<svg data-name="Layer 1" xmlns="http://www.w3.org/2000/svg" viewBox="0 0 529 90.99" role="presentation">
  <path data-name="Shape 567 copy 21" d="M262.18 16H69.82A7.9 7.9 0 0 1 62 8a7.9 7.9 0 0 1 7.82-8h192.36A7.9 7.9 0 0 1 270 8a7.9 7.9 0 0 1-7.82 8z" fill="#7bcdd0"/>
  <path data-name="Shape 567 copy 3" d="M283.18 56H7.82A7.9 7.9 0 0 1 0 48a7.9 7.9 0 0 1 7.82-8h275.36a7.9 7.9 0 0 1 7.82 8 7.9 7.9 0 0 1-7.82 8z" fill="#ddeeef"/>
  <circle cx="283" cy="48" r="8" fill="#f87a4e"/>
  <circle data-name="Ellipse 537 copy 6" cx="42" cy="8" r="8" fill="#c4d247"/>
  <circle data-name="Ellipse 537 copy 8" cx="411" cy="8.03" r="8" fill="#5470c0"/>
  <path data-name="Shape 567 copy 8" d="M524 56H346.05c-2.79 0-5.05-3.58-5.05-8s2.26-8 5.05-8H524c2.79 0 5 3.58 5 8 0 4.41-2.26 8-5 8z" fill="#f6f6f6"/>
  <path data-name="Shape 567 copy 8-2" d="M431 91H253.05c-2.79 0-5.05-3.58-5.05-8s2.26-8 5.05-8H431c2.79 0 5.05 3.58 5.05 8-.05 4.41-2.31 8-5.05 8z" fill="#c4d438"/>
</svg>
