<svg data-name="Layer 1" xmlns="http://www.w3.org/2000/svg" viewBox="0 0 535 89" role="presentation">
  <defs>
    <style>
      .cls-2{fill:#5470c0}.cls-4{fill:#ddeeef}
    </style>
  </defs>
  <path d="M499.18 54H223.82a7.9 7.9 0 0 1-7.82-8 7.89 7.89 0 0 1 7.82-8h275.36a7.9 7.9 0 0 1 7.82 8 7.9 7.9 0 0 1-7.82 8z" transform="translate(0 .01)" fill="#7bcdd0"/>
  <circle data-name="Ellipse 537 copy 3" class="cls-2" cx="527" cy="46.01" r="8"/>
  <circle data-name="Ellipse 537 copy 3-2" cx="151" cy="46.01" r="8" fill="#f87a4e"/>
  <path data-name="Shape 567 copy 14" class="cls-4" d="M503 16H329.05c-2.79 0-8.05-3.6-8.05-8 0-4.41 5.26-8 8.05-8H503c2.74 0 6 3.57 6 8 0 4.4-3.26 8-6 8z" transform="translate(0 .01)"/>
  <path data-name="Shape 567 copy 8" class="cls-4" d="M354 89H176.05c-2.79 0-5.05-3.58-5.05-8s2.26-8 5.05-8H354c2.79 0 5.05 3.58 5.05 8-.05 4.41-2.31 8-5.05 8z" transform="translate(0 .01)"/>
  <path data-name="Shape 567 copy 4" d="M261.18 16H75.82A7.9 7.9 0 0 1 68 8a7.9 7.9 0 0 1 7.82-8h185.36A7.9 7.9 0 0 1 269 8a7.9 7.9 0 0 1-7.82 8z" transform="translate(0 .01)" fill="#c4d438"/>
  <path data-name="Shape 567 copy 4-2" class="cls-2" d="M113.18 54H7.82A7.9 7.9 0 0 1 0 46a7.9 7.9 0 0 1 7.82-8h105.36a7.9 7.9 0 0 1 7.82 8 7.9 7.9 0 0 1-7.82 8z" transform="translate(0 .01)"/>
</svg>
