<?xml version="1.0" encoding="utf-8"?>
<!-- Generator: Adobe Illustrator 23.0.2, SVG Export Plug-In . SVG Version: 6.00 Build 0)  -->
<svg version="1.1" xmlns="http://www.w3.org/2000/svg" xmlns:xlink="http://www.w3.org/1999/xlink" x="0px" y="0px"
	 viewBox="0 0 215.45 619.23" style="enable-background:new 0 0 215.45 619.23;" xml:space="preserve">
<style type="text/css">
	.st0{fill:#78CDD1;}
	.st1{fill:#FA7A47;}
	.st2{fill:#FFFFFF;}
	.st3{fill:#F6F6F6;}
	.st4{fill:#F7F7F7;stroke:#5C6670;stroke-width:2;stroke-linejoin:round;}
	.st5{fill:#BABABA;}
	.st6{fill:#DBDBDB;}
	.st7{fill:#D1E42D;}
	.st8{fill:#F0F0F0;}
</style>
<g>
	<circle class="st0" cx="54.45" cy="52.62" r="3.62"/>
	<circle class="st1" cx="185.86" cy="125.86" r="5.51"/>
	<circle class="st2" cx="211.55" cy="106.1" r="3.9"/>
	<circle class="st0" cx="3.62" cy="224.68" r="3.62"/>
	<circle class="st2" cx="27.34" cy="185.16" r="3.9"/>
</g>
<g>
	<path class="st3" d="M126.4,619.23V40.97c0-3.65-2.9-6.54-6.54-6.54l0,0c-3.65,0-6.54,2.9-6.54,6.54l0,0v578.26H126.4z"/>
	<path class="st5" d="M95.83,114.99h1.39c0.75,0,1.29,0.54,1.29,1.29v12.23c0,0.75-0.54,1.29-1.29,1.29h-1.39
		c-0.75,0-1.29-0.54-1.29-1.29v-12.23C94.54,115.52,95.18,114.99,95.83,114.99z"/>
	<path class="st5" d="M141.74,114.99h1.39c0.75,0,1.29,0.54,1.29,1.29v12.23c0,0.75-0.54,1.29-1.29,1.29h-1.39
		c-0.75,0-1.29-0.54-1.29-1.29v-12.23C140.45,115.52,140.98,114.99,141.74,114.99z"/>
	<rect x="109.13" y="56.42" class="st6" width="20.17" height="50.41"/>
	<path class="st7" d="M135.62,99.65h-34.65c-11.91,0-21.67-9.65-21.67-21.56c0,0,0,0,0-0.11l0,0l0,0h77.77l0,0l0,0
		C157.18,89.99,147.53,99.65,135.62,99.65L135.62,99.65z"/>
	<rect x="78.88" y="68" class="st5" width="80.23" height="11.48"/>
	<rect x="78.88" y="65.86" class="st8" width="80.23" height="11.48"/>
	<path class="st5" d="M126.07,212.6h-12.34l0,0v-86.67c0-0.75,0.64-1.39,1.39-1.39l0,0h9.55c0.75,0,1.39,0.64,1.39,1.39l0,0V212.6
		L126.07,212.6L126.07,212.6z"/>
	<path class="st0" d="M85.31,123.57h67.79c3.65,0,6.54,2.9,6.54,6.54v67.15c0,3.65-2.9,6.54-6.54,6.54H85.31
		c-3.65,0-6.54-2.9-6.54-6.54v-67.15C78.77,126.46,81.67,123.57,85.31,123.57z"/>
	<path class="st0" d="M113.2,0h13.41c0.97,0,1.82,0.86,1.82,1.82v37.76c0,0.97-0.86,1.82-1.82,1.82H113.2
		c-0.97,0-1.82-0.86-1.82-1.82V1.82C111.38,0.86,112.24,0,113.2,0z"/>
</g>
</svg>
