<?xml version="1.0" encoding="utf-8"?>
<!-- Generator: Adobe Illustrator 19.2.0, SVG Export Plug-In . SVG Version: 6.00 Build 0)  -->
<svg version="1.1" xmlns="http://www.w3.org/2000/svg" xmlns:xlink="http://www.w3.org/1999/xlink" x="0px"
	 y="0px" viewBox="0 0 233.2 245.1" style="enable-background:new 0 0 233.2 245.1;" xml:space="preserve">
<style type="text/css">
	.st0{fill:#C6D3E0;}
	.st1{fill:#B6C5D1;}
	.st2{fill:#D8D8D8;}
	.st3{fill:#F7F7F7;}
	.st4{fill:#78CDD1;}
	.st5{fill:#D1E42D;}
	.st6{fill:#A8B6C1;}
	.st7{fill:#FFFFFF;}
</style>
<title>regulations</title>
<path class="st0" d="M82.7,1c15.2,0,25.5,11.4,25.5,25.5c0,12.7-10.3,23.1-23.1,23.1h124.5c12.7,0,23.1-10.3,23.1-23.1
	c0-14.1-10.2-25.5-25.5-25.5H82.7z"/>
<path class="st1" d="M208.2,13.2c7.8,0,14.1,6.3,14.1,14.1H97.8c0-7.8-6.3-14.1-14.1-14.1H208.2z"/>
<path class="st2" d="M83.7,13.2c-9.6,0-17.4,7.8-17.4,17.4c0,10.4,8.4,18.9,18.9,18.9h124.5c-10.4,0-18.9-8.4-18.9-18.9
	c0-9.6,7.8-17.4,17.4-17.4H83.7z"/>
<path class="st3" d="M152.1,244.1c15.2,0,27.6-12.3,27.6-27.6v-188C179.7,13.3,192,1,207.2,1H82.7C67.5,1,55.1,13.3,55.1,28.6v188
	c0,15.2-11.8,27.6-27.1,27.6H152.1z"/>
<g>
	<g>
		<path class="st4" d="M153.6,85.1H79.1c-1.1,0-2-0.9-2-2s0.9-2,2-2h74.4c1.1,0,2,0.9,2,2S154.7,85.1,153.6,85.1z"/>
	</g>
	<g>
		<path class="st4" d="M153.6,101.1H79.1c-1.1,0-2-0.9-2-2s0.9-2,2-2h74.4c1.1,0,2,0.9,2,2S154.7,101.1,153.6,101.1z"/>
	</g>
	<g>
		<path class="st4" d="M153.6,149H79.1c-1.1,0-2-0.9-2-2s0.9-2,2-2h74.4c1.1,0,2,0.9,2,2S154.7,149,153.6,149z"/>
	</g>
	<g>
		<path class="st4" d="M153.6,165H79.1c-1.1,0-2-0.9-2-2s0.9-2,2-2h74.4c1.1,0,2,0.9,2,2S154.7,165,153.6,165z"/>
	</g>
	<g>
		<path class="st4" d="M153.6,117.1H79.1c-1.1,0-2-0.9-2-2s0.9-2,2-2h74.4c1.1,0,2,0.9,2,2S154.7,117.1,153.6,117.1z"/>
	</g>
	<g>
		<path class="st4" d="M153.6,133H79.1c-1.1,0-2-0.9-2-2s0.9-2,2-2h74.4c1.1,0,2,0.9,2,2S154.7,133,153.6,133z"/>
	</g>
</g>
<path class="st5" d="M132.3,58.5l-5.8-8.5c1.8-2.3,3-5.2,3-8.4c0-7.4-6.1-13.5-13.5-13.5c-7.4,0-13.5,6.1-13.5,13.5
	c0,3.4,1.3,6.5,3.4,8.9l-5.4,8c0,0,0,0.1,0,0.1c0,0.1,0.1,0.2,0.2,0.2c0,0,0,0,0,0l5.2-0.8c0.1,0,0.2,0,0.2,0.1c0,0,0,0,0,0l1.4,4.8
	c0,0,0,0.1,0.1,0.1c0.1,0,0.2,0,0.2-0.1c0,0,0,0,0,0l5.6-8.1c0.9,0.2,1.8,0.3,2.7,0.3c1.2,0,2.3-0.2,3.4-0.4l5.7,8.2
	c0,0.1,0.1,0.1,0.2,0.1c0,0,0,0,0,0c0,0,0.1-0.1,0.1-0.1l1.4-4.8c0-0.1,0.1-0.1,0.2-0.1c0,0,0,0,0,0l5.2,0.8c0.1,0,0.2-0.1,0.2-0.1
	C132.3,58.6,132.3,58.6,132.3,58.5C132.3,58.5,132.3,58.5,132.3,58.5z"/>
<path class="st3" d="M116,49.6c4.4,0,8-3.6,8-8s-3.6-8-8-8s-8,3.6-8,8S111.6,49.6,116,49.6z"/>
<g>
	<g>
		<path class="st4" d="M138.3,185C138.3,185,138.3,185,138.3,185c1.2-0.1,2.1-1.5,5.5-7.4c0.3-0.6,0.7-1.3,1.1-1.9
			c-0.3,0.8-0.6,1.6-0.8,2.3c-1.8,4.9-2,5.7-1.1,5.6c0.8-0.1,1.2-0.8,2-2.1c0.3-0.5,0.9-1.4,1.2-1.9c0.1,0.4,0.1,1.2,0.1,1.8
			c0,1.7,0,3.3,1.3,3.1c1.2-0.2,2.3-1.6,3.4-3.1c0.8-1.1,2-2.7,2.6-2.8c0.5-0.1,1,0.5,1.7,1.4c0.4,0.4,0.7,1,0.9,1.5
			c0.1,0.3,0.6,0.3,1,0c0.4-0.3,0.7-0.7,0.6-1c-0.2-0.6-0.6-1.2-1-1.7c-0.9-1.1-1.5-1.8-2.7-1.6c-1.6,0.3-3,2.2-4.3,3.9
			c-0.5,0.6-1.3,1.7-1.7,2c-0.3-0.2-0.3-1.6-0.3-2.3c0-1.6,0-2.9-1.2-2.7c-0.6,0.1-1.1,0.6-1.7,1.2c0.2-0.5,0.4-1,0.5-1.4
			c2-5.4,2.2-6.3,1.3-6.2c-1,0.1-1.6,1-4.4,6c-0.8,1.4-2,3.4-2.8,4.7c0.2-0.9,0.6-1.9,0.8-2.7c1.2-3.8,1.5-4.9,0.5-4.8
			c-0.8,0.1-1.5,0.5-5.5,8c-0.2,0.4-0.1,0.7,0.3,0.7c0,0,0,0,0,0c0.4,0,0.9-0.3,1.1-0.7c1.2-2.3,2.1-3.8,2.6-4.8
			c-0.2,0.7-0.4,1.4-0.6,1.9C137.7,183.6,137.3,185,138.3,185z"/>
	</g>
	<g>
		<path class="st4" d="M123.7,180c0.1-0.7,0.3-1.5,0.4-2.2c-0.5,0.9-1.1,2-1.5,2.8c-1.3,2.5-1.6,3.1-2.4,3.2
			c-0.8,0.1-0.5-0.7-0.2-1.4c0.2-0.5,0.5-1.2,0.9-2c0.6-1.5,1.8-4.2,2.3-5.7c-0.7,0.9-1.9,2.5-3.8,5.4c-0.3,0.4-0.8,0.7-1.1,0.6
			c-0.4-0.1-0.4-0.4-0.2-0.8c4.7-7,5.6-7.6,6.4-7.5c0.7,0,0.8,0.7-0.3,3.4c0.3-0.3,0.6-0.4,0.9-0.5c1.1-0.2,0.9,1.1,0.2,4.3
			c-0.2,0.9-0.4,2.1-0.5,2.9c0.5-0.7,1.2-1.8,1.8-3c-0.2-0.5-0.3-1.2-0.2-2c0.3-1.7,1.9-3.8,2.9-4.6c0.5-0.4,0.9-0.5,1.1-0.4
			c0.6,0.1,0.9,0.4-1,4.2c-0.3,0.7-0.7,1.4-1.1,2.1c0.2,0.3,0.4,0.4,0.7,0.6c0.3,0.1,0.6,0.1,0.6,0.1c0.1,0,0.3-0.3,0.8-1.3
			c0.3-0.6,0.7-1.4,1.5-1.5c1-0.2,0.8,0.8,0.3,3.7c0,0,0,0.1,0,0.1c0.6-1.4,1.6-3.4,2.9-6.4c0.2-0.4,0.6-0.8,1.1-0.8
			c0.4,0,0.6,0.2,0.4,0.7c-1.4,3.3-2.5,5.8-3.3,7.4c-0.9,1.9-1.5,2.8-2.3,3c-0.9,0.2-0.8-0.8-0.2-3.4c0.1-0.3,0.1-0.6,0.2-0.9
			c-0.3,0.3-0.7,0.6-1.1,0.9c-0.6,0.3-1.3,0.3-1.9,0.1c-0.1-0.1-0.3-0.1-0.4-0.2c-1.2,2.1-2.5,3.8-3.5,4c-0.1,0-0.2,0-0.2,0
			C122.8,184.5,123.1,183.1,123.7,180z M130.8,183.1L130.8,183.1L130.8,183.1z M128.2,176.3c0.1-0.2,0.2-0.4,0.3-0.6
			C128.4,175.9,128.3,176.1,128.2,176.3z"/>
	</g>
	<g>
		<path class="st4" d="M151.9,176.8c0.4,0,0.8-0.3,1-0.6c0.3-0.4,0.2-0.8-0.2-0.8c-2.6-0.4-5.3-0.6-8-0.6c-0.6,0-1.2,0-1.8,0
			c-0.4,0-0.9,0.3-1.1,0.7c-0.2,0.4-0.1,0.7,0.3,0.7c0,0,0,0,0,0c0.6,0,1.2,0,1.8,0C146.6,176.3,149.3,176.5,151.9,176.8
			C151.8,176.8,151.8,176.8,151.9,176.8z"/>
	</g>
</g>
<path class="st0" d="M124.5,216.6c0-5.4,1.5-10.3,4.2-14.6H4.7c-2.6,4.2-4.2,9.2-4.2,14.6c0,15.2,12.3,27.6,27.6,27.6h124
	C136.9,244.1,124.5,231.8,124.5,216.6z"/>
<g>
	<path class="st6" d="M152.1,244.6c-10.5,0-17.2-5.5-21-10.1c-4.4-5.3-7.1-12.2-7.1-17.9c0-10.3,4.1-14.7,4.3-14.9l0.7,0.7
		c0,0-4,4.3-4,14.2c0,9.7,9,27.1,27.1,27.1c17.7,0,27.1-15.7,27.1-27.1v-188c0-6.9,2.8-13.9,7.6-19.2c5.3-5.7,12.5-8.9,20.4-8.9
		c16.2,0,26,13.2,26,26c0,6-2.4,11.9-6.5,16.3c-4.4,4.7-10.5,7.3-17.1,7.3C195,50,190.2,37,190.2,30.7c0-7.2,4.8-17.9,17.9-17.9
		c13.3,0,14.6,14.4,14.6,14.6l0,0.5h-31.4c-0.2,1-0.2,1.9-0.2,2.8c0,6,4.5,18.4,18.4,18.4c11.1,0,22.6-8.4,22.6-22.6
		c0-12.3-9.3-25-25-25c-13,0-27.1,10.3-27.1,27.1v188C180.2,228.3,170.4,244.6,152.1,244.6z M191.7,26.8h30.1
		c-0.3-2.6-2.4-13.1-13.6-13.1C197.9,13.7,193.1,20.6,191.7,26.8z"/>
</g>
<path class="st7" d="M128.1,203c0.2-0.3,0.4-0.7,0.6-1H4.7c-0.2,0.3-0.4,0.7-0.6,1H128.1z"/>
</svg>
