<svg data-name="Layer 1" xmlns="http://www.w3.org/2000/svg" viewBox="0 0 272 295" role="presentation"><defs><style>.cls-1{fill:#78cdd1;}.cls-2{fill:#c6d3e0;}.cls-3{fill:#fa7a47;}</style></defs><title>Spectrum</title><rect data-name="Rounded Rectangle 1060" class="cls-1" x="125.06" width="15.47" height="295" rx="7.73" ry="7.73"/><path data-name="Rounded Rectangle 1060 copy 2" class="cls-2" d="M158.53,75.6h0a5.16,5.16,0,0,1,5.16,5.16V260.1a5.16,5.16,0,0,1-5.12,5.2h0a5.16,5.16,0,0,1-5.16-5.17V80.8a5.16,5.16,0,0,1,5.12-5.2Z"/><path data-name="Rounded Rectangle 1060 copy 9" class="cls-2" d="M108.32,41.9h0a5.16,5.16,0,0,1,5.15,5.16V226.44a5.16,5.16,0,0,1-5.15,5.16h0a5.16,5.16,0,0,1-5.16-5.16V47.06A5.16,5.16,0,0,1,108.32,41.9Z"/><path data-name="Rounded Rectangle 1060 copy 3" class="cls-1" d="M184.36,101.2h0a7.68,7.68,0,0,1,7.73,7.64V175.2a7.68,7.68,0,0,1-7.67,7.7h-.06a7.7,7.7,0,0,1-7.73-7.64V108.9a7.68,7.68,0,0,1,7.67-7.7Z"/><path data-name="Rounded Rectangle 1060 copy 5" class="cls-2" d="M215.28,137h0a5.14,5.14,0,0,1,5.16,5.1V195a5.16,5.16,0,0,1-5.12,5.2h0a5.15,5.15,0,0,1-5.15-5.16V142.1A5.13,5.13,0,0,1,215.28,137Z"/><path data-name="Rounded Rectangle 1060 copy 11" class="cls-2" d="M266.85,116.9h0a5.16,5.16,0,0,1,5.15,5.16v31.88a5.16,5.16,0,0,1-5.15,5.16h0a5.16,5.16,0,0,1-5.16-5.16V122.06A5.16,5.16,0,0,1,266.85,116.9Z"/><rect data-name="Rounded Rectangle 1060 copy 7" class="cls-3" x="233.34" y="106.4" width="15.47" height="94.8" rx="7.73" ry="7.73"/><path data-name="Rounded Rectangle 1060 copy 8" class="cls-1" d="M30.92,132.7h0a7.78,7.78,0,0,1,7.74,7.8v37.2A7.7,7.7,0,0,1,31,185.4h0a7.7,7.7,0,0,1-7.73-7.64V140.5A7.76,7.76,0,0,1,30.92,132.7Z"/><rect data-name="Rounded Rectangle 1060 copy 6" class="cls-2" x="51.56" y="139.1" width="10.32" height="84.3" rx="5.16" ry="5.16"/><path data-name="Rounded Rectangle 1060 copy 10" class="cls-2" d="M5.16,151.7h0a5.16,5.16,0,0,1,5.15,5.16v31.78a5.16,5.16,0,0,1-5.15,5.16h0A5.16,5.16,0,0,1,0,188.64V156.86A5.16,5.16,0,0,1,5.16,151.7Z"/><rect data-name="Rounded Rectangle 1060 copy 4" class="cls-3" x="74.75" y="112.1" width="15.47" height="94.8" rx="7.73" ry="7.73"/></svg>
