<svg data-name="Layer 1" xmlns="http://www.w3.org/2000/svg" viewBox="0 0 19.58 41.09">
  <defs>
    <style>.cls-1{fill:#d1e141;}</style>
  </defs>
  <title>$</title>
  <path class="cls-1 color-primary" d="M966.27,531.24a12,12,0,0,0-2.6-1.9,6.38,6.38,0,0,0-3-.65,4.43,4.43,0,0,0-3.07,1,3.61,3.61,0,0,0-1.11,2.85,3.18,3.18,0,0,0,1,2.38,11,11,0,0,0,2.43,1.73c1,.53,2,1.05,3.14,1.58a17.5,17.5,0,0,1,3.14,1.9,9.29,9.29,0,0,1,2.43,2.71,7.71,7.71,0,0,1,1,4,8.78,8.78,0,0,1-1.92,5.78,9,9,0,0,1-5.52,3v5H958.3v-4.8a16.08,16.08,0,0,1-4.44-1.18,12.82,12.82,0,0,1-3.87-2.47l2.5-3.75a17,17,0,0,0,3.41,2.16,8.44,8.44,0,0,0,3.69.82,5,5,0,0,0,3.51-1.08,4,4,0,0,0,1.15-3,3.8,3.8,0,0,0-1-2.64,10.67,10.67,0,0,0-2.42-1.92c-1-.57-2-1.13-3.15-1.65a18.64,18.64,0,0,1-3.14-1.88,9.5,9.5,0,0,1-2.43-2.59,6.9,6.9,0,0,1-1-3.77,8.29,8.29,0,0,1,1.92-5.59,8.57,8.57,0,0,1,5.19-2.81v-4.89h3.84v4.8a9.66,9.66,0,0,1,4,1.32,15.91,15.91,0,0,1,3,2.42Z" transform="translate(-949.99 -519.48)"/>
</svg>
