
<svg version="1.1" id="Layer_1" xmlns="http://www.w3.org/2000/svg" xmlns:xlink="http://www.w3.org/1999/xlink"  viewBox="0 0 863 218" width="800" height="400">

<g>
	<path class="st0" fill="#592B8A" d="M365.3,193.7c0.3-12.8-9.9-23.5-22.7-23.7c-12.8-0.3-23.5,9.9-23.7,22.7c0,2,0,4-0.1,6
		c-3.3,75.3-67.1,133.7-142.4,130.4c-21.8-1-42.1-7-60-16.9c-4.1-3.7-9.6-6-15.6-5.9c-12.4,0.3-22.3,10.6-22,23
		c0.1,6,2.6,11.4,6.6,15.4l1.1-1.1l-1.1,1.1c27.1,17,58.9,27.1,93.2,27.9C279.4,374.7,363,294.7,365.3,193.7"/>
	<path class="st1" fill="#5CBABA" d="M287.2,67.3c-6.5,11.1-20.8,14.7-31.8,8.2c-64.1-39.7-148.3-19.9-188,44.2c-39.7,64.1-19.9,148.3,44.2,188
		c1.7,1.1,3.4,2.1,5.2,3.1c11.1,6.5,14.7,20.8,8.2,31.8c-6.5,11.1-20.8,14.7-31.8,8.2C5.1,301.2-26,189.5,23.6,101.5
		C73.3,13.4,184.9-17.7,272.9,31.9c2,1.1,4,2.3,6,3.5C290,42,293.7,56.2,287.2,67.3"/>
	<path class="st0" fill="#592B8A" d="M364.8,193.3c0-12.6-10.2-22.9-22.9-22.9l-47.3,0.2l-47.3-0.2c-12.6,0-22.9,10.2-22.9,22.9
		c0,12.6,10.2,22.9,22.9,22.9l23.9,0.1v0.2l23.4-0.1l23.4,0.1v-0.2l23.9-0.1C354.6,216.2,364.8,205.9,364.8,193.3"/>
	<path class="st1" fill="#5CBABA" d="M413.4,365L413.4,365c-12.6,0-22.9-10.2-22.9-22.9l1.3-319.3C391.8,10.2,402,0,414.7,0
		c12.6,0,22.9,10.2,22.9,22.9l-1.4,319.3C436.1,354.8,425.9,365,413.4,365"/>
	<path class="st1" fill="#5CBABA" d="M596.3,365L596.3,365c-12.6,0-22.9-10.2-22.9-22.9l1.3-319.3C574.7,10.2,585,0,597.6,0
		c12.6,0,22.9,10.2,22.9,22.9l-1.4,319.3C619.1,354.8,608.9,365,596.3,365"/>
	<path class="st0" fill="#592B8A" d="M619.3,182.3c0-12.6-10.2-22.9-22.9-22.9l-91.3,0.4l-91.3-0.4c-12.6,0-22.9,10.2-22.9,22.9
		c0,12.6,10.2,22.9,22.9,22.9l91.3,0.4l91.3-0.4C609,205.2,619.3,195,619.3,182.3"/>
	<path class="st0" fill="#592B8A" d="M863,160.2c0-12.6-10.2-22.9-22.9-22.9l-91.3,0.4l-91.3-0.4c-12.6,0-22.9,10.2-22.9,22.9
		c0,12.6,10.2,22.9,22.9,22.9l91.3,0.4l91.3-0.4C852.8,183.1,863,172.8,863,160.2"/>
	<path class="st0" fill="#592B8A" d="M863,341.8c0-12.6-10.2-22.9-22.9-22.9l-91.3,0.4l-91.3-0.4c-12.6,0-22.9,10.2-22.9,22.9
		c0,12.6,10.2,22.9,22.9,22.9l91.3,0.4l91.3-0.4C852.8,364.7,863,354.4,863,341.8"/>
	<path class="st1" fill="#5CBABA" d="M855.6,144c-8.9-8.9-23.4-8.9-32.3,0l-50.1,50.5c-1,0.7-1.9,1.4-2.7,2.3l-38,38.3l-38.3,38
		c-0.9,0.9-1.6,1.8-2.3,2.7L641.3,326c-8.9,8.9-8.9,23.4,0,32.3c8.9,8.9,23.4,8.9,32.3,0l64.8-64.3l26.3-26.5l26.5-26.3l64.3-64.8
		C864.6,167.4,864.6,153,855.6,144"/>
</g>
</svg>
