<svg xmlns="http://www.w3.org/2000/svg" viewBox="0 0 7.34 58.21"><defs><style>.cls-1{isolation:isolate;}.cls-2{fill:#c5d436;}.cls-3{fill:#78cdd1;mix-blend-mode:multiply;}</style></defs><title>Artboard 2</title><g class="cls-1"><g data-name="Layer 1"><path class="cls-2 color-primary" d="M3.68,32.23h0A3.67,3.67,0,0,1,0,28.54V3.65A3.67,3.67,0,0,1,3.67,0h0A3.67,3.67,0,0,1,7.33,3.68V28.58a3.67,3.67,0,0,1-3.67,3.65"/><path class="cls-3 color-secondary" style="mix-blend-mode:multiply" d="M3.68,58.21h0A3.67,3.67,0,0,1,0,54.52V28.63A3.67,3.67,0,0,1,3.67,25h0a3.67,3.67,0,0,1,3.65,3.68V54.55a3.67,3.67,0,0,1-3.67,3.65"/></g></g></svg>
