<?xml version="1.0" encoding="utf-8"?>
<!-- Generator: Adobe Illustrator 21.0.2, SVG Export Plug-In . SVG Version: 6.00 Build 0)  -->
<svg version="1.1" xmlns="http://www.w3.org/2000/svg" xmlns:xlink="http://www.w3.org/1999/xlink" x="0px" y="0px"
	 viewBox="0 0 45.7 64.1" style="enable-background:new 0 0 45.7 64.1;" xml:space="preserve">
<g>
	<g style="isolation: isolate;">
		<path class="color-primary" d="M4,63.8L4,63.8c-2.2,0-4-1.8-4-4L0.2,4c0-2.2,1.8-4,4-4l0,0c2.2,0,4,1.8,4,4L8,59.9C7.9,62.1,6.2,63.8,4,63.8
			z"/>
		<path class="color-primary" d="M41.7,64.1c-1.2,0-2.4-0.5-3.2-1.6L14,30.3c-1.3-1.8-1-4.3,0.8-5.6c1.8-1.3,4.3-1,5.6,0.8l24.5,32.2
			c1.3,1.8,1,4.3-0.8,5.6C43.4,63.8,42.5,64.1,41.7,64.1z"/>
		<path style="mix-blend-mode: multiply;" class="color-secondary" d="M4.1,45.4c-1,0-2-0.4-2.8-1.1c-1.6-1.5-1.6-4.1-0.1-5.7l36-37.4c1.5-1.6,4.1-1.6,5.7-0.1
			c1.6,1.5,1.6,4.1,0.1,5.7L7,44.2C6.2,45,5.1,45.4,4.1,45.4z"/>
	</g>
</g>
</svg>
