<?xml version="1.0" encoding="utf-8"?>
<!-- Generator: Adobe Illustrator 24.1.0, SVG Export Plug-In . SVG Version: 6.00 Build 0)  -->
<svg version="1.1" id="Layer_1" xmlns="http://www.w3.org/2000/svg" x="0px" y="45px"
	 viewBox="0 0 815.2 366.2">
<g>
	<path class="st0" fill="#5CBABA" d="M34.3,363.6c-11.6,5.9-25.9,1.3-31.8-10.4C0.9,350,0,346.4,0,342.7L41.9,24c0-13.1,10.6-23.6,23.6-23.6
		c13.1,0,23.6,10.6,23.6,23.6L47.1,342.3C47.2,351.2,42.3,359.5,34.3,363.6"/>
	<path class="st0" fill="#5CBABA" d="M328.6,342.7L286.7,24c0-13.1-10.6-23.6-23.6-23.6c-13.1,0-23.6,10.6-23.6,23.6l42.1,318.3
		c-0.1,9,4.8,17.2,12.8,21.4c11.6,5.9,25.9,1.3,31.8-10.4C327.7,350,328.5,346.4,328.6,342.7"/>
	<path class="st1" fill="#592B8A" d="M186,269.1c-4.5,11.8-17.8,17.7-29.6,13.2c-6.1-2.3-10.9-7.1-13.2-13.2l-99.7-237C38.7,20.3,44.2,6.8,56,1.8
		c11.8-4.9,25.4,0.6,30.3,12.4L186,251.4C188.4,257.1,188.4,263.4,186,269.1"/>
	<path class="st1" fill="#592B8A" d="M142.4,269.1c4.5,11.8,17.7,17.8,29.5,13.3c6.1-2.3,11-7.2,13.3-13.3l99.6-237c4.9-11.8-0.6-25.3-12.4-30.3
		c-11.8-4.9-25.3,0.6-30.3,12.4l-99.7,237C140.1,256.9,140,263.4,142.4,269.1"/>
	<path class="st0" fill="#5CBABA" d="M365.6,366.2L365.6,366.2c-12.6,0-22.9-10.2-22.9-22.9L344,24c0-12.6,10.2-22.9,22.9-22.9
		c12.6,0,22.9,10.2,22.9,22.9l-1.4,319.3C388.4,355.9,378.2,366.1,365.6,366.2"/>
	<path class="st0" fill="#5CBABA" d="M548.5,366.2L548.5,366.2c-12.6,0-22.9-10.2-22.9-22.9L526.9,24c0-12.6,10.2-22.9,22.9-22.9
		c12.6,0,22.9,10.2,22.9,22.9l-1.4,319.3C571.3,355.9,561.1,366.1,548.5,366.2"/>
	<path class="st1" fill="#592B8A" d="M571.5,183.5c0-12.6-10.2-22.9-22.9-22.9l-91.3,0.4l-91.3-0.4c-12.6,0-22.9,10.2-22.9,22.9
		c0,12.6,10.2,22.9,22.9,22.9l91.3,0.4l91.3-0.4C561.3,206.3,571.5,196.1,571.5,183.5"/>
	<path class="st1" fill="#592B8A" d="M815.2,161.3c0-12.6-10.2-22.9-22.9-22.9l-91.3,0.4l-91.3-0.4c-12.6,0-22.9,10.2-22.9,22.9
		c0,12.6,10.2,22.9,22.9,22.9l91.3,0.4l91.3-0.4C805,184.2,815.2,174,815.2,161.3"/>
	<path class="st1" fill="#592B8A" d="M815.2,342.9c0-12.6-10.2-22.9-22.9-22.9l-91.3,0.4l-91.3-0.4c-12.6,0-22.9,10.2-22.9,22.9
		c0,12.6,10.2,22.9,22.9,22.9l91.3,0.4l91.3-0.4C805,365.8,815.2,355.6,815.2,342.9"/>
	<path class="st0" fill="#5CBABA" d="M807.8,145.2c-8.9-8.9-23.4-8.9-32.3,0l-50.1,50.5c-1,0.7-1.9,1.4-2.7,2.3l-38,38.3l-38.3,38
		c-0.9,0.9-1.6,1.8-2.3,2.7l-50.5,50.1c-8.9,8.9-8.9,23.4,0,32.3c8.9,8.9,23.4,8.9,32.3,0l64.8-64.3l26.3-26.5l26.5-26.3l64.3-64.8
		C816.8,168.6,816.8,154.1,807.8,145.2"/>
</g>
</svg>
