<?xml version="1.0" encoding="utf-8"?>
<!-- Generator: Adobe Illustrator 21.0.2, SVG Export Plug-In . SVG Version: 6.00 Build 0)  -->
<svg version="1.1" xmlns="http://www.w3.org/2000/svg" xmlns:xlink="http://www.w3.org/1999/xlink" x="0px" y="0px"
	 viewBox="0 0 44.6 59.5" style="enable-background:new 0 0 44.6 59.5;" xml:space="preserve">
<style type="text/css">
	.st0{fill:#78CDD2;}
	.st1{fill:#C5D436;}
</style>
<title>Artboard 5</title>
<g>
	<g>
		<path class="st0 color-secondary" d="M41,59.4L41,59.4c-2,0-3.7-1.7-3.7-3.7L37.2,3.6c0-2,1.7-3.6,3.7-3.6l0,0c2,0,3.7,1.7,3.7,3.7l0.1,52.1
			C44.6,57.8,43,59.5,41,59.4"/>
		<path class="st0 color-secondary" d="M3.7,59.5L3.7,59.5c-2,0-3.7-1.6-3.7-3.7c0,0,0,0,0,0L0.1,3.6c0-2,1.7-3.6,3.7-3.6l0,0c2,0,3.7,1.6,3.7,3.7
			L7.3,55.8C7.3,57.8,5.7,59.5,3.7,59.5"/>
		<path class="st1 color-primary" style="mix-blend-mode:multiply" d="M1.6,0.7L1.6,0.7c1.7-1.2,3.9-0.8,5.1,0.9c0,0,0,0,0,0.1L44,53.7c1.2,1.7,0.7,3.9-0.9,5.1l0,0
			c-1.7,1.2-3.9,0.7-5.1-0.9L0.7,5.8C-0.5,4.1-0.1,1.8,1.6,0.7"/>
	</g>
</g>
</svg>
