<svg xmlns="http://www.w3.org/2000/svg" viewBox="0 0 55.11 55.11"><defs><style>.cls-1{isolation:isolate;}.cls-2{fill:#78cdd1;}.cls-3{fill:#c5d436;mix-blend-mode:multiply;}</style></defs><title>Artboard 4</title><g class="cls-1"><g data-name="Layer 1"><path class="cls-2 color-secondary" d="M27.56,55.12A27.59,27.59,0,0,1,0,27.56a3.5,3.5,0,1,1,7,0,20.56,20.56,0,1,0,41.11,0,3.5,3.5,0,1,1,7,0A27.59,27.59,0,0,1,27.56,55.12Z"/><path class="cls-3 color-primary" style="mix-blend-mode: multiply" d="M51.61,31.06a3.5,3.5,0,0,1-3.5-3.5A20.56,20.56,0,1,0,7,27.56a3.5,3.5,0,1,1-7,0,27.56,27.56,0,1,1,55.11,0A3.5,3.5,0,0,1,51.61,31.06Z"/></g></g></svg>
