<?xml version="1.0" encoding="utf-8"?>
<!-- Generator: Adobe Illustrator 24.1.0, SVG Export Plug-In . SVG Version: 6.00 Build 0)  -->
<svg version="1.1" id="Layer_1" xmlns="http://www.w3.org/2000/svg" xmlns:xlink="http://www.w3.org/1999/xlink" x="0px" y="115px"
	 viewBox="0 0 250 250">

<g>
	<path class="st0" d="M7.1,145.2l138-138c9.5-9.5,25-9.5,34.5,0c9.5,9.5,9.5,25,0,34.5l-138,138c-9.5,9.5-25,9.5-34.5,0
		C-2.4,170.2-2.4,154.7,7.1,145.2" fill="#5cbaba"/>
	<path class="st1" d="M7.1,7.1L7.1,7.1c9.5-9.5,25-9.5,34.5,0l138,138c9.5,9.5,9.5,25,0,34.5c-9.5,9.5-25,9.5-34.5,0l-138-138
		C-2.4,32.1-2.4,16.7,7.1,7.1" fill="#592B8A"/>
</g>
</svg>
