<svg width="1440" height="222" viewBox="0 0 1440 222" fill="none" xmlns="http://www.w3.org/2000/svg">
<g opacity="0.08">
<path d="M828.246 31.4899H722.515C713.84 31.4899 706.966 24.4375 706.966 15.909C706.966 7.38052 714.004 0.328125 722.515 0.328125H828.246C836.92 0.328125 843.795 7.38052 843.795 15.909C843.795 24.4375 836.92 31.4899 828.246 31.4899Z" fill="#5CB9BB"/>
<path d="M824.481 78.7244C815.97 78.7244 809.096 72.0001 808.933 63.4716C808.769 54.7791 815.479 47.5627 824.154 47.3987H824.972C833.647 47.2347 840.848 53.9591 841.012 62.6515C841.176 71.344 834.465 78.5604 825.791 78.7244H824.972C824.645 78.7244 824.481 78.7244 824.481 78.7244Z" fill="#C2C2C2"/>
<path d="M867.691 23.7813C863.435 23.7813 859.998 20.3371 859.834 16.0728C859.671 11.8086 863.108 8.20039 867.527 8.03638H868.345H868.509C872.764 8.03638 876.202 11.4806 876.365 15.7448C876.529 20.009 873.092 23.6172 868.673 23.7813H867.854H867.691Z" fill="#C2C2C2"/>
<path d="M878.329 125.467H785.692C777.017 125.467 770.143 118.415 770.143 109.886C770.143 101.358 777.181 94.3054 785.692 94.3054H878.329C887.004 94.3054 893.878 101.358 893.878 109.886C893.878 118.415 887.004 125.467 878.329 125.467Z" fill="#C5D800"/>
<path d="M910.081 31.3258C901.407 31.3258 894.532 24.2734 894.532 15.7449C894.532 7.05244 901.57 0.164062 910.081 0.164062C918.592 0.164062 925.63 7.21645 925.63 15.7449C925.63 24.2734 918.592 31.3258 910.081 31.3258Z" fill="#5CB9BB"/>
<path d="M1142.82 78.5604H879.802C871.128 78.5604 864.253 71.508 864.253 62.8155C864.253 54.123 871.291 47.2346 879.802 47.2346H1142.82C1151.5 47.2346 1158.37 54.287 1158.37 62.9795C1158.53 71.508 1151.5 78.5604 1142.82 78.5604Z" fill="#C5D800"/>
<path d="M799.603 164.665C797.639 164.665 795.675 163.845 794.039 162.369C790.929 159.253 790.929 154.333 794.039 151.216L794.53 150.724C797.639 147.608 802.55 147.608 805.659 150.724C808.769 153.841 808.769 158.761 805.659 161.877L805.168 162.369C803.532 163.845 801.567 164.665 799.603 164.665ZM781.272 70.5239C780.781 70.5239 780.29 70.5239 779.799 70.3599C775.544 69.5398 772.761 65.4396 773.58 61.3394V60.8473C774.398 56.5831 778.49 53.795 782.582 54.615C786.837 55.435 789.62 59.5353 788.801 63.6355V64.1275C788.31 67.8997 785.037 70.5239 781.272 70.5239Z" fill="#C5D800"/>
<path d="M883.403 171.226H832.665C823.99 171.226 817.116 164.173 817.116 155.645C817.116 147.116 824.154 140.064 832.665 140.064H883.403C892.077 140.064 898.952 147.116 898.952 155.645C898.952 164.173 891.914 171.226 883.403 171.226Z" fill="#5CB9BB"/>
<path d="M1114.67 171.226H952.636C943.961 171.226 937.087 164.173 937.087 155.645C937.087 147.116 944.125 140.064 952.636 140.064H1114.67C1123.34 140.064 1130.22 147.116 1130.22 155.645C1130.22 164.173 1123.34 171.226 1114.67 171.226Z" fill="#5CB9BB"/>
<path d="M988.48 31.4899H964.093C955.418 31.4899 948.544 24.4375 948.544 15.909C948.544 7.38052 955.582 0.328125 964.093 0.328125H988.48C997.154 0.328125 1004.03 7.38052 1004.03 15.909C1004.03 24.4375 996.99 31.4899 988.48 31.4899Z" fill="#C5D800"/>
<path d="M920.392 125.303C911.718 125.303 904.844 118.251 904.844 109.722C904.844 101.03 911.882 94.1414 920.392 94.1414C928.903 94.1414 935.941 101.194 935.941 109.722C935.941 118.251 929.067 125.303 920.392 125.303Z" fill="#5CB9BB"/>
<path d="M729.061 125.303C729.061 125.303 728.898 125.303 729.061 125.303H711.712C703.038 125.303 696.164 118.251 696.164 109.558C696.164 100.866 703.201 93.9773 711.712 93.9773H729.061C737.736 93.9773 744.61 101.03 744.61 109.722C744.61 118.415 737.572 125.303 729.061 125.303Z" fill="#5CB9BB"/>
<path d="M1189.3 31.4899H1049.2C1040.53 31.4899 1033.65 24.4375 1033.65 15.909C1033.65 7.38052 1040.69 0.328125 1049.2 0.328125H1189.3C1197.98 0.328125 1204.85 7.38052 1204.85 15.909C1204.85 24.4375 1197.98 31.4899 1189.3 31.4899Z" fill="#5CB9BB"/>
<path d="M1185.38 78.7244C1176.86 78.7244 1169.99 72.0001 1169.83 63.4716C1169.66 54.7791 1176.37 47.5627 1185.05 47.3987H1185.87C1194.54 47.2347 1201.74 53.9591 1201.91 62.6515C1202.07 71.344 1195.36 78.5604 1186.68 78.7244H1185.87C1185.7 78.7244 1185.54 78.7244 1185.38 78.7244Z" fill="#C2C2C2"/>
<path d="M1228.75 23.7813C1224.49 23.7813 1221.06 20.3371 1220.89 16.0728C1220.73 11.8086 1224.17 8.20039 1228.58 8.03638H1229.4H1229.57C1233.82 8.03638 1237.26 11.4806 1237.42 15.7448C1237.59 20.009 1234.15 23.6172 1229.73 23.7813H1228.91C1228.75 23.7813 1228.75 23.7813 1228.75 23.7813Z" fill="#C2C2C2"/>
<path d="M1239.39 125.467H1146.75C1138.07 125.467 1131.2 118.415 1131.2 109.886C1131.2 101.358 1138.24 94.3054 1146.75 94.3054H1239.39C1248.06 94.3054 1254.94 101.358 1254.94 109.886C1254.94 118.415 1247.9 125.467 1239.39 125.467Z" fill="#C5D800"/>
<path d="M1270.98 31.3258C1262.3 31.3258 1255.43 24.2734 1255.43 15.7449C1255.43 7.05244 1262.46 0.164062 1270.98 0.164062C1279.49 0.164062 1286.52 7.21645 1286.52 15.7449C1286.52 24.2734 1279.65 31.3258 1270.98 31.3258Z" fill="#5CB9BB"/>
<path d="M1503.88 78.5604H1240.86C1232.19 78.5604 1225.31 71.508 1225.31 62.8155C1225.31 54.123 1232.35 47.2346 1240.86 47.2346H1503.88C1512.55 47.2346 1519.43 54.287 1519.43 62.9795C1519.59 71.508 1512.55 78.5604 1503.88 78.5604Z" fill="#C5D800"/>
<path d="M1160.5 164.665C1158.53 164.665 1156.57 163.845 1154.93 162.369C1151.82 159.253 1151.82 154.333 1154.93 151.216L1155.42 150.724C1158.53 147.608 1163.44 147.608 1166.55 150.724C1169.66 153.841 1169.66 158.761 1166.55 161.877L1166.06 162.369C1164.59 163.845 1162.63 164.665 1160.5 164.665Z" fill="#C5D800"/>
<path d="M1244.3 171.226H1193.56C1184.88 171.226 1178.01 164.173 1178.01 155.645C1178.01 147.116 1185.05 140.064 1193.56 140.064H1244.3C1252.97 140.064 1259.85 147.116 1259.85 155.645C1259.85 164.173 1252.97 171.226 1244.3 171.226Z" fill="#C5D800"/>
<path d="M1475.73 171.226H1313.69C1305.02 171.226 1298.14 164.173 1298.14 155.645C1298.14 147.116 1305.18 140.064 1313.69 140.064H1475.73C1484.4 140.064 1491.28 147.116 1491.28 155.645C1491.28 164.173 1484.4 171.226 1475.73 171.226Z" fill="#5CB9BB"/>
<path d="M1349.37 31.4899H1324.99C1316.31 31.4899 1309.44 24.4375 1309.44 15.909C1309.44 7.38052 1316.48 0.328125 1324.99 0.328125H1349.37C1358.05 0.328125 1364.92 7.38052 1364.92 15.909C1364.92 24.4375 1358.05 31.4899 1349.37 31.4899Z" fill="#5CB9BB"/>
<path d="M1281.45 125.303C1272.78 125.303 1265.9 118.251 1265.9 109.722C1265.9 101.03 1272.94 94.1414 1281.45 94.1414C1289.96 94.1414 1297 101.194 1297 109.722C1297 118.251 1290.12 125.303 1281.45 125.303Z" fill="#5CB9BB"/>
<path d="M1089.96 125.303H974.404C965.729 125.303 958.855 118.251 958.855 109.558C958.855 100.866 965.893 93.9773 974.404 93.9773H1089.96C1098.63 93.9773 1105.5 101.03 1105.5 109.722C1105.67 118.415 1098.63 125.303 1089.96 125.303Z" fill="#C5D800"/>
<path d="M828.246 220.1H722.515C713.84 220.1 706.966 213.048 706.966 204.519C706.966 195.827 714.004 188.938 722.515 188.938H828.246C836.92 188.938 843.795 195.991 843.795 204.519C843.958 213.212 836.92 220.1 828.246 220.1Z" fill="#5CB9BB"/>
<path d="M867.691 212.392C863.435 212.392 859.998 208.948 859.834 204.683C859.671 200.419 863.108 196.811 867.527 196.647H868.345H868.509C872.764 196.647 876.202 200.091 876.365 204.355C876.529 208.62 873.092 212.228 868.673 212.392H867.854H867.691Z" fill="#C2C2C2"/>
<path d="M910.081 219.936C901.407 219.936 894.532 212.884 894.532 204.355C894.532 195.663 901.57 188.774 910.081 188.774C918.592 188.774 925.63 195.827 925.63 204.355C925.63 213.048 918.592 219.936 910.081 219.936Z" fill="#5CB9BB"/>
<path d="M988.48 220.1H964.093C955.418 220.1 948.544 213.048 948.544 204.519C948.544 195.827 955.582 188.938 964.093 188.938H988.48C997.154 188.938 1004.03 195.991 1004.03 204.519C1004.03 213.212 996.99 220.1 988.48 220.1Z" fill="#C2C2C2"/>
<path d="M1189.3 220.1H1049.2C1040.53 220.1 1033.65 213.048 1033.65 204.519C1033.65 195.827 1040.69 188.938 1049.2 188.938H1189.3C1197.98 188.938 1204.85 195.991 1204.85 204.519C1204.85 213.212 1197.98 220.1 1189.3 220.1Z" fill="#5CB9BB"/>
<path d="M1228.75 212.392C1224.49 212.392 1221.06 208.948 1220.89 204.683C1220.73 200.419 1224.17 196.811 1228.58 196.647H1229.4H1229.57C1233.82 196.647 1237.26 200.091 1237.42 204.355C1237.59 208.62 1234.15 212.228 1229.73 212.392H1228.91C1228.75 212.392 1228.75 212.392 1228.75 212.392Z" fill="#C2C2C2"/>
<path d="M1270.98 219.936C1262.3 219.936 1255.43 212.884 1255.43 204.355C1255.43 195.663 1262.46 188.774 1270.98 188.774C1279.49 188.774 1286.52 195.827 1286.52 204.355C1286.69 213.048 1279.65 219.936 1270.98 219.936Z" fill="#5CB9BB"/>
<path d="M1349.37 220.1H1324.99C1316.31 220.1 1309.44 213.048 1309.44 204.519C1309.44 195.827 1316.48 188.938 1324.99 188.938H1349.37C1358.05 188.938 1364.92 195.991 1364.92 204.519C1365.09 213.212 1358.05 220.1 1349.37 220.1Z" fill="#C2C2C2"/>
<path d="M1503.22 125.467H1410.59C1401.91 125.467 1395.04 118.415 1395.04 109.886C1395.04 101.358 1402.08 94.3052 1410.59 94.3052H1503.22C1511.9 94.3052 1518.77 101.358 1518.77 109.886C1518.77 118.415 1511.9 125.467 1503.22 125.467Z" fill="#C5D800"/>
<path d="M1353.96 125.303C1353.96 125.303 1353.79 125.303 1353.96 125.303H1336.61C1327.93 125.303 1321.06 118.251 1321.06 109.558C1321.06 100.866 1328.1 93.9773 1336.61 93.9773H1353.96C1362.63 93.9773 1369.51 101.03 1369.51 109.722C1369.51 118.415 1362.47 125.303 1353.96 125.303Z" fill="#5CB9BB"/>
<path d="M1486.86 220.1H1394.22C1385.54 220.1 1378.67 213.048 1378.67 204.519C1378.67 195.827 1385.71 188.938 1394.22 188.938H1486.86C1495.53 188.938 1502.41 195.991 1502.41 204.519C1502.57 213.048 1495.53 220.1 1486.86 220.1Z" fill="#C5D800"/>
</g>
<g opacity="0.08" clip-path="url(#clip0)">
<path d="M641.397 195.335C643.361 195.335 645.325 196.155 646.961 197.631C650.071 200.747 650.071 205.667 646.961 208.783L646.47 209.275C643.361 212.392 638.45 212.392 635.341 209.275C632.231 206.159 632.231 201.239 635.341 198.123L635.832 197.631C637.468 196.155 639.433 195.335 641.397 195.335ZM659.728 289.476C660.219 289.476 660.71 289.476 661.201 289.64C665.456 290.46 668.239 294.56 667.42 298.66L667.42 299.152C666.602 303.417 662.51 306.205 658.418 305.385C654.163 304.565 651.38 300.464 652.199 296.364L652.199 295.872C652.69 292.1 655.963 289.476 659.728 289.476Z" fill="#C5D800"/>
<path d="M557.597 188.774L608.335 188.774C617.01 188.774 623.884 195.827 623.884 204.355C623.884 212.884 616.846 219.936 608.335 219.936L557.597 219.936C548.923 219.936 542.048 212.884 542.048 204.355C542.048 195.827 549.086 188.774 557.597 188.774Z" fill="#5CB9BB"/>
<path d="M326.33 188.774L488.364 188.774C497.039 188.774 503.913 195.827 503.913 204.355C503.913 212.884 496.875 219.936 488.364 219.936L326.33 219.936C317.656 219.936 310.782 212.884 310.782 204.355C310.782 195.827 317.656 188.774 326.33 188.774Z" fill="#5CB9BB"/>
<path d="M280.502 195.335C282.466 195.335 284.43 196.155 286.067 197.631C289.177 200.747 289.177 205.667 286.067 208.784L285.576 209.276C282.466 212.392 277.556 212.392 274.447 209.276C271.337 206.159 271.337 201.239 274.447 198.123L274.937 197.631C276.411 196.155 278.375 195.335 280.502 195.335Z" fill="#C5D800"/>
<path d="M196.703 188.774L247.441 188.774C256.116 188.774 262.99 195.827 262.99 204.355C262.99 212.884 255.952 219.936 247.441 219.936L196.703 219.936C188.028 219.936 181.154 212.884 181.154 204.355C181.154 195.827 188.028 188.774 196.703 188.774Z" fill="#C5D800"/>
<path d="M-34.7275 188.774L127.307 188.774C135.981 188.774 142.855 195.827 142.855 204.355C142.855 212.884 135.817 219.936 127.307 219.936L-34.7275 219.936C-43.4021 219.936 -50.2762 212.884 -50.2762 204.355C-50.2762 195.827 -43.4021 188.774 -34.7275 188.774Z" fill="#5CB9BB"/>
<path d="M612.754 139.9L718.485 139.9C727.16 139.9 734.034 146.952 734.034 155.481C734.034 164.173 726.996 171.062 718.485 171.062L612.754 171.062C604.08 171.062 597.205 164.009 597.205 155.481C597.042 146.788 604.08 139.9 612.754 139.9Z" fill="#5CB9BB"/>
<path d="M616.519 92.6652C625.03 92.6652 631.904 99.3896 632.067 107.918C632.231 116.611 625.521 123.827 616.846 123.991L616.028 123.991C607.353 124.155 600.152 117.431 599.988 108.738C599.824 100.046 606.535 92.8292 615.209 92.6652L616.028 92.6652C616.355 92.6652 616.519 92.6652 616.519 92.6652Z" fill="#C2C2C2"/>
<path d="M573.309 147.608C577.565 147.608 581.002 151.052 581.166 155.317C581.329 159.581 577.892 163.189 573.473 163.353L572.655 163.353L572.491 163.353C568.236 163.353 564.798 159.909 564.635 155.645C564.471 151.38 567.908 147.772 572.327 147.608L573.146 147.608L573.309 147.608Z" fill="#C2C2C2"/>
<path d="M562.671 45.7587L655.308 45.7587C663.983 45.7587 670.857 52.8111 670.857 61.3396C670.857 69.868 663.819 76.9204 655.308 76.9204L562.671 76.9204C553.996 76.9204 547.122 69.868 547.122 61.3395C547.122 52.8111 553.996 45.7587 562.671 45.7587Z" fill="#C5D800"/>
<path d="M530.919 140.064C539.593 140.064 546.468 147.116 546.468 155.645C546.468 164.337 539.43 171.226 530.919 171.226C522.408 171.226 515.37 164.173 515.37 155.645C515.37 146.952 522.408 140.064 530.919 140.064Z" fill="#5CB9BB"/>
<path d="M298.179 92.8293L561.198 92.8293C569.872 92.8293 576.747 99.8817 576.747 108.574C576.747 117.267 569.709 124.155 561.198 124.155L298.179 124.155C289.504 124.155 282.63 117.103 282.63 108.41C282.467 99.8817 289.504 92.8293 298.179 92.8293Z" fill="#C5D800"/>
<path d="M641.397 6.72435C643.361 6.72435 645.325 7.54439 646.961 9.02047C650.071 12.1366 650.071 17.0569 646.961 20.1731L646.47 20.6651C643.361 23.7813 638.451 23.7813 635.341 20.6651C632.231 17.5489 632.231 12.6287 635.341 9.5125L635.832 9.02047C637.468 7.54439 639.433 6.72435 641.397 6.72435ZM659.728 100.866C660.219 100.866 660.71 100.866 661.201 101.03C665.456 101.85 668.239 105.95 667.42 110.05L667.42 110.542C666.602 114.806 662.51 117.594 658.418 116.774C654.163 115.954 651.38 111.854 652.199 107.754L652.199 107.262C652.69 103.49 655.963 100.866 659.728 100.866Z" fill="#5CB9BB"/>
<path d="M557.597 0.000116275L608.335 0.000120711C617.01 0.000121469 623.884 7.05252 623.884 15.581C623.884 24.1095 616.846 31.1619 608.335 31.1619L557.597 31.1619C548.923 31.1619 542.048 24.1095 542.048 15.581C542.048 7.05251 549.086 0.000115531 557.597 0.000116275Z" fill="#5CB9BB"/>
<path d="M326.33 0.000137063L488.364 0.000151229C497.039 0.000151987 503.913 7.05254 503.913 15.581C503.913 24.1095 496.875 31.1619 488.364 31.1619L326.33 31.1618C317.656 31.1618 310.782 24.1095 310.782 15.581C310.782 7.05252 317.656 0.000136305 326.33 0.000137063Z" fill="#C5D800"/>
<path d="M452.52 139.9L476.907 139.9C485.582 139.9 492.456 146.952 492.456 155.481C492.456 164.173 485.418 171.062 476.907 171.062L452.52 171.062C443.846 171.062 436.972 164.009 436.972 155.481C436.972 146.788 444.01 139.9 452.52 139.9Z" fill="#C2C2C2"/>
<path d="M520.608 46.0865C529.282 46.0865 536.156 53.1389 536.156 61.6674C536.156 70.3599 529.118 77.2483 520.608 77.2483C512.097 77.2483 505.059 70.1959 505.059 61.6674C505.059 53.1389 511.933 46.0865 520.608 46.0865Z" fill="#5CB9BB"/>
<path d="M711.939 45.9225C711.939 45.9225 712.102 45.9225 711.939 45.9225L729.288 45.9225C737.962 45.9225 744.836 52.9749 744.836 61.6674C744.836 70.3599 737.799 77.2483 729.288 77.2483L711.939 77.2483C703.264 77.2483 696.39 70.1959 696.39 61.5034C696.39 52.9749 703.428 45.9225 711.939 45.9225Z" fill="#C5D800"/>
<path d="M251.696 139.9L391.798 139.9C400.473 139.9 407.347 146.952 407.347 155.481C407.347 164.173 400.309 171.062 391.798 171.062L251.696 171.062C243.022 171.062 236.148 164.009 236.148 155.481C236.148 146.788 243.022 139.9 251.696 139.9Z" fill="#5CB9BB"/>
<path d="M255.625 92.6652C264.135 92.6652 271.01 99.3896 271.173 107.918C271.337 116.611 264.627 123.827 255.952 123.991L255.134 123.991C246.459 124.155 239.257 117.431 239.094 108.738C238.93 100.046 245.641 92.8292 254.315 92.6652L255.134 92.6652C255.297 92.6652 255.461 92.6652 255.625 92.6652Z" fill="#C2C2C2"/>
<path d="M212.252 147.608C216.507 147.608 219.944 151.052 220.108 155.317C220.272 159.581 216.835 163.189 212.415 163.353L211.597 163.353L211.433 163.353C207.178 163.353 203.741 159.909 203.577 155.645C203.414 151.38 206.851 147.772 211.27 147.608L212.088 147.608C212.252 147.608 212.252 147.608 212.252 147.608Z" fill="#C2C2C2"/>
<path d="M201.613 45.7587L294.251 45.7587C302.925 45.7587 309.8 52.8111 309.8 61.3396C309.8 69.868 302.762 76.9204 294.251 76.9204L201.613 76.9204C192.939 76.9204 186.064 69.868 186.064 61.3395C186.064 52.8111 193.102 45.7587 201.613 45.7587Z" fill="#5CB9BB"/>
<path d="M170.025 140.064C178.699 140.064 185.573 147.116 185.573 155.645C185.573 164.337 178.535 171.226 170.024 171.226C161.514 171.226 154.476 164.173 154.476 155.645C154.312 146.952 161.35 140.064 170.025 140.064Z" fill="#5CB9BB"/>
<path d="M-62.879 92.8293L200.14 92.8293C208.815 92.8293 215.689 99.8817 215.689 108.574C215.689 117.267 208.651 124.155 200.14 124.155L-62.879 124.155C-71.5535 124.155 -78.4277 117.103 -78.4277 108.41C-78.5914 99.8817 -71.5535 92.8293 -62.879 92.8293Z" fill="#C5D800"/>
<path d="M280.502 6.72455C282.466 6.72455 284.43 7.54458 286.067 9.02066C289.177 12.1368 289.177 17.0571 286.067 20.1733L285.576 20.6653C282.466 23.7815 277.556 23.7815 274.447 20.6653C271.337 17.5491 271.337 12.6289 274.447 9.5127L274.938 9.02066C276.411 7.54458 278.375 6.72455 280.502 6.72455Z" fill="#C2C2C2"/>
<path d="M196.703 0.000146793L247.441 0.000151229C256.116 0.000151987 262.99 7.05254 262.99 15.581C262.99 24.1095 255.952 31.1619 247.441 31.1619L196.703 31.1619C188.028 31.1619 181.154 24.1095 181.154 15.581C181.154 7.05253 188.028 0.000146035 196.703 0.000146793Z" fill="#5CB9BB"/>
<path d="M-34.7275 0.000137063L127.307 0.000151229C135.981 0.000151987 142.855 7.05254 142.855 15.581C142.855 24.1095 135.817 31.1619 127.307 31.1619L-34.7275 31.1618C-43.4021 31.1618 -50.2762 24.1095 -50.2762 15.581C-50.2762 7.05252 -43.4021 0.000136305 -34.7275 0.000137063Z" fill="#5CB9BB"/>
<path d="M91.6264 139.9L116.013 139.9C124.688 139.9 131.562 146.952 131.562 155.481C131.562 164.173 124.524 171.062 116.013 171.062L91.6264 171.062C82.9518 171.062 76.0777 164.009 76.0777 155.481C75.914 146.788 82.9518 139.9 91.6264 139.9Z" fill="#C2C2C2"/>
<path d="M159.55 46.0866C168.224 46.0866 175.098 53.139 175.098 61.6674C175.098 70.3599 168.061 77.2483 159.55 77.2483C151.039 77.2483 144.001 70.1959 144.001 61.6674C144.001 53.139 150.875 46.0866 159.55 46.0866Z" fill="#C2C2C2"/>
<path d="M351.044 45.9225L466.596 45.9225C475.271 45.9225 482.145 52.9749 482.145 61.6674C482.145 70.3599 475.107 77.2483 466.596 77.2483L351.044 77.2483C342.37 77.2483 335.496 70.1959 335.496 61.5034C335.332 52.9749 342.37 45.9225 351.044 45.9225Z" fill="#5CB9BB"/>
<path d="M-45.857 139.9L46.7806 139.9C55.4552 139.9 62.3293 146.952 62.3293 155.481C62.3293 164.173 55.2915 171.062 46.7806 171.062L-45.857 171.062C-54.5316 171.062 -61.4058 164.009 -61.4058 155.481C-61.5694 146.952 -54.5316 139.9 -45.857 139.9Z" fill="#C5D800"/>
<path d="M8.31782 45.7584L100.955 45.7584C109.63 45.7584 116.504 52.8108 116.504 61.3393C116.504 69.8678 109.466 76.9202 100.955 76.9202L8.31782 76.9202C-0.356728 76.9202 -7.2309 69.8678 -7.23089 61.3393C-7.23089 52.8108 -0.356725 45.7584 8.31782 45.7584Z" fill="#C5D800"/>
</g>
<defs>
<clipPath id="clip0">
<rect width="865" height="360" fill="white" transform="translate(745 360) rotate(-180)"/>
</clipPath>
</defs>
</svg>
