<svg width="124" height="66" viewBox="0 0 124 66" fill="none" xmlns="http://www.w3.org/2000/svg">
<path d="M102.076 21.6799C104.707 24.3675 105.935 27.7718 105.935 31.7135C105.935 34.4011 105.408 36.7304 104.181 38.8804C102.953 41.0305 101.374 42.643 99.2698 43.8972C97.1651 45.1514 94.8851 45.689 92.4296 45.689C89.9742 45.689 87.8695 45.1514 85.7648 43.8972C83.6602 42.643 82.0817 40.8513 80.8539 38.7013C79.6262 36.5512 79.1001 34.0428 79.1001 31.7135C79.1001 29.2051 79.6262 26.8759 80.8539 24.7258C82.0817 22.5758 83.6602 20.7841 85.7648 19.5299C87.8695 18.2757 90.1496 17.7381 92.4296 17.7381C96.2882 17.7381 99.4452 18.9923 102.076 21.6799ZM105.759 14.3339V20.7841C104.005 18.2757 102.076 16.4839 99.796 15.4089C97.5159 14.1547 95.0604 13.6172 92.2542 13.6172C87.3433 13.6172 83.3094 15.4089 79.8016 18.9923C76.2938 22.5758 74.7153 26.8759 74.7153 31.8927C74.7153 36.9095 76.4692 41.3888 79.8016 44.9723C83.134 48.5557 87.3433 50.3474 92.0788 50.3474C94.7097 50.3474 97.3405 49.8099 99.6206 48.5557C101.901 47.4807 104.005 45.689 105.759 43.3597V49.2724H110.144V14.3339H105.759Z" fill="#231F20"/>
<path d="M67.1742 14.3335H62.7896V49.0929H67.1742V14.3335Z" fill="#231F20"/>
<path d="M62.4388 1.07503C61.7372 1.79172 61.3865 2.68758 61.3865 3.76261C61.3865 4.83764 61.7372 5.55433 62.4388 6.27102C63.1404 6.9877 63.8419 7.34605 64.8943 7.34605C65.9466 7.34605 66.8235 6.9877 67.5251 6.27102C68.2266 5.55433 68.5774 4.65847 68.5774 3.76261C68.5774 2.68758 68.2266 1.79172 67.5251 1.07503C66.6481 0.358344 65.9466 0 64.8943 0C63.8419 0 63.1404 0.358344 62.4388 1.07503Z" fill="#231F20"/>
<path d="M45.4259 1.43335V14.3337H39.4626V18.0963H45.4259V49.0931H49.8106V18.0963H56.8262V14.3337H49.8106V1.43335H45.4259Z" fill="#231F20"/>
<path d="M30.8685 17.2006C29.4653 16.1256 27.7115 15.2297 25.6068 14.513C23.5021 13.7963 21.3975 13.438 19.1174 13.438C15.6096 13.438 12.2772 14.1547 9.471 15.9464C6.48939 17.3798 4.20933 19.709 2.45545 22.5758C0.876945 25.4425 0 28.4884 0 31.8927C0 36.9095 1.75389 41.2096 5.26167 44.6139C8.76945 48.0182 13.3296 49.8099 18.5912 49.8099C22.099 49.8099 25.256 49.0932 27.8868 47.6598C30.6931 46.2265 32.7977 44.2556 34.3762 41.9263L30.8685 39.5971C27.7115 43.718 23.6775 45.6889 18.5912 45.6889C15.785 45.6889 13.3296 45.1514 11.2249 43.8972C8.94484 42.643 7.36634 40.8513 5.96322 38.7012C4.7355 36.5512 4.03395 34.0428 4.03395 31.5344C4.03395 27.5926 5.43706 24.3675 8.06789 21.6799C10.8741 18.9923 14.2065 17.5589 18.4158 17.5589C23.6775 17.5589 27.7115 19.5298 30.6931 23.6508L34.2008 21.5007C33.4993 19.709 32.2716 18.2756 30.8685 17.2006Z" fill="#231F20"/>
<path d="M7.3666 65.5767C10.3482 65.5767 12.979 63.0683 12.979 60.0224C12.979 56.9764 10.5236 54.468 7.3666 54.468C4.38498 54.468 1.75415 56.9764 1.75415 60.0224C1.75415 63.0683 4.2096 65.5767 7.3666 65.5767Z" fill="#78CBD0"/>
<path d="M23.6776 65.5767C26.6592 65.5767 29.2901 63.0683 29.2901 60.0224C29.2901 56.9764 26.8346 54.468 23.6776 54.468C20.696 54.468 18.0652 56.9764 18.0652 60.0224C18.0652 63.0683 20.696 65.5767 23.6776 65.5767Z" fill="#78CBD0"/>
<path d="M39.9884 65.5767C42.97 65.5767 45.6009 63.0683 45.6009 60.0224C45.6009 56.9764 43.1454 54.468 39.9884 54.468C37.0068 54.468 34.376 56.9764 34.376 60.0224C34.5514 63.0683 37.0068 65.5767 39.9884 65.5767Z" fill="#78CBD0"/>
<path d="M105.409 65.5767C108.39 65.5767 111.021 63.0683 111.021 60.0224C111.021 56.9764 108.566 54.468 105.409 54.468C102.427 54.468 99.7964 56.9764 99.7964 60.0224C99.9718 63.0683 102.427 65.5767 105.409 65.5767Z" fill="#78CBD0"/>
<path d="M56.4752 65.5767C59.4569 65.5767 62.0877 63.0683 62.0877 60.0224C62.0877 56.9764 59.6322 54.468 56.4752 54.468C53.4936 54.468 50.8628 56.9764 50.8628 60.0224C50.8628 63.0683 53.3182 65.5767 56.4752 65.5767Z" fill="#78CBD0"/>
<path d="M72.7863 65.5767C75.7679 65.5767 78.3987 63.0683 78.3987 60.0224C78.3987 56.9764 75.9433 54.468 72.7863 54.468C69.8047 54.468 67.1738 56.9764 67.1738 60.0224C67.1738 63.0683 69.6293 65.5767 72.7863 65.5767Z" fill="#78CBD0"/>
<path d="M89.0973 65.5767C92.0789 65.5767 94.7098 63.0683 94.7098 60.0224C94.7098 56.9764 92.2543 54.468 89.0973 54.468C86.1157 54.468 83.4849 56.9764 83.4849 60.0224C83.4849 63.0683 86.1157 65.5767 89.0973 65.5767Z" fill="#78CBD0"/>
<path d="M116.634 14.6918H114.88V14.3335H118.738V14.6918H116.984V19.8878H116.634V14.6918Z" fill="#231F20"/>
<path d="M119.791 14.3335H120.317L121.369 17.5586C121.369 17.7378 121.545 17.9169 121.545 18.0961C121.545 18.2753 121.72 18.4545 121.72 18.6336C121.72 18.4545 121.895 18.2753 121.895 18.0961C121.895 17.9169 122.071 17.7378 122.071 17.5586L123.474 14.3335H124V19.8878H123.649V16.3044C123.649 16.1252 123.649 15.7669 123.649 15.5877C123.649 15.4085 123.649 15.0502 123.649 14.871L123.299 16.1252L122.071 19.3503H121.72L120.492 16.1252L120.142 14.871C120.142 15.0502 120.142 15.4085 120.142 15.5877C120.142 15.946 120.142 16.1252 120.142 16.3044V19.8878H119.791V14.3335Z" fill="#231F20"/>
</svg>
