<svg width="58" height="198" viewBox="0 0 58 198" fill="none" xmlns="http://www.w3.org/2000/svg">
<path d="M50.219 164.81C46.2346 164.81 43.0745 161.565 43.0745 157.631L43.1432 103.79C43.1432 99.7868 46.372 96.6116 50.2877 96.6116C54.2722 96.6116 57.4323 99.8558 57.4323 103.79L57.3636 157.631C57.3636 161.634 54.2035 164.81 50.219 164.81Z" fill="#C5D800"/>
<path d="M7.21439 94.4205C3.29862 94.4205 0.138519 91.3143 0.001123 87.3798V87.0346C-0.0675748 83.0311 3.02382 79.7869 7.0083 79.6488C10.9928 79.5798 14.2903 82.755 14.359 86.6895V87.0346C14.4277 91.0382 11.3363 94.3514 7.35178 94.4205C7.28309 94.4205 7.28309 94.4205 7.21439 94.4205Z" fill="#E8E8E8"/>
<path d="M7.14554 197.497C3.16107 197.497 0.000976562 194.253 0.000976562 190.318L0.0696743 110.179C0.0696743 106.175 3.29847 103 7.21424 103C11.1987 103 14.3588 106.244 14.3588 110.179L14.2901 190.318C14.3588 194.322 11.13 197.497 7.14554 197.497Z" fill="#C5D800"/>
<path d="M29.7474 125.767C25.7629 125.767 22.6028 122.523 22.6028 118.588V94.1531C22.6028 90.1496 25.8316 86.9744 29.7474 86.9744C33.6631 86.9744 36.8919 90.1496 36.8919 94.1531V118.588C36.8919 122.592 33.6631 125.767 29.7474 125.767ZM29.7474 61.2966C25.7629 61.2966 22.6028 58.0523 22.6028 54.1178V7.24777C22.6028 3.24424 25.7629 0 29.7474 0C33.7318 0 36.8919 3.24424 36.8919 7.17874V54.0488C36.8919 58.0523 33.6631 61.2966 29.7474 61.2966Z" fill="#5CB9BB"/>
<path d="M29.7473 145.164C25.8315 145.164 22.6714 142.058 22.6027 138.123V137.778C22.534 133.774 25.6254 130.53 29.6099 130.392C29.6786 130.392 29.7473 130.392 29.7473 130.392C33.663 130.392 36.8231 133.498 36.8918 137.433V137.778C36.9605 141.781 33.8691 145.026 29.8846 145.164C29.8846 145.164 29.8159 145.164 29.7473 145.164Z" fill="#E8E8E8"/>
<path d="M29.7472 72.824C28.8541 72.824 27.961 72.4789 27.274 71.8576C25.8314 70.4771 25.7627 68.1992 27.1366 66.7497C28.5106 65.3001 30.7776 65.2311 32.2203 66.5426C33.6629 67.9231 33.7316 70.201 32.4264 71.6506C31.6707 72.4789 30.7089 72.824 29.7472 72.824Z" fill="#E8E8E8"/>
</svg>
