<svg width="58" height="220" viewBox="0 0 58 220" fill="none" xmlns="http://www.w3.org/2000/svg">
<path d="M30.0222 131.421C34.0067 131.421 37.1668 134.666 37.1668 138.6L37.0981 212.441C37.0981 216.444 33.8693 219.619 29.9535 219.619C25.969 219.619 22.8089 216.375 22.8089 212.441L22.8776 138.6C22.8776 134.597 26.0377 131.421 30.0222 131.421Z" fill="#C5D800"/>
<path d="M50.4939 19.4637C54.4783 19.4637 57.6384 22.708 57.6384 26.6425L57.6384 51.0778C57.6384 55.0814 54.4096 58.2566 50.4939 58.2566C46.5781 58.2566 43.3493 55.0814 43.3493 51.0778L43.3493 26.6425C43.3493 22.639 46.5781 19.4637 50.4939 19.4637ZM50.4939 83.9344C54.4783 83.9344 57.6384 87.1786 57.6384 91.1131L57.6384 137.983C57.6384 141.987 54.4783 145.231 50.4939 145.231C46.5094 145.231 43.3493 141.987 43.3493 138.052L43.3493 91.1822C43.3493 87.1786 46.5781 83.9344 50.4939 83.9344Z" fill="#5CB9BB"/>
<path d="M7.14572 48.1736C11.1302 48.1736 14.2903 51.4178 14.2903 55.3523L14.2903 83.239C14.2903 87.2425 11.0615 90.4177 7.14571 90.4177C3.22994 90.4177 0.00114088 87.1735 0.00114122 83.239L0.00114365 55.4213C-0.0675539 51.4178 3.16124 48.1736 7.14572 48.1736Z" fill="#E8E8E8"/>
<path d="M29.9533 34.231C33.9378 34.231 37.0979 37.4752 37.0979 41.4097L37.0979 116.926C37.0979 120.929 33.8691 124.104 29.9533 124.104C26.0376 124.104 22.8088 120.86 22.8088 116.926L22.8088 41.4097C22.7401 37.4062 25.9689 34.231 29.9533 34.231Z" fill="#5CB9BB"/>
<path d="M50.494 0.0672172C54.4097 0.0672175 57.5698 3.1734 57.6385 7.10791L57.6385 7.45304C57.7072 11.4566 54.6158 14.7008 50.6314 14.8389C50.5627 14.8389 50.494 14.8389 50.494 14.8389C46.5782 14.8389 43.4181 11.7327 43.3494 7.79817L43.3494 7.45304C43.2807 3.44951 46.3721 0.20527 50.3566 0.0672172C50.3566 0.0672172 50.4253 0.0672172 50.494 0.0672172Z" fill="#E8E8E8"/>
<path d="M50.494 72.407C51.3871 72.407 52.2802 72.7521 52.9672 73.3733C54.4098 74.7539 54.4785 77.0317 53.1046 78.4813C51.7306 79.9308 49.4636 79.9999 48.0209 78.6884C46.5783 77.3078 46.5096 75.03 47.8148 73.5804C48.5705 72.7521 49.5323 72.407 50.494 72.407Z" fill="#C5D800"/>
</svg>
