<svg data-name="Layer 1" xmlns="http://www.w3.org/2000/svg" xmlns:xlink="http://www.w3.org/1999/xlink" viewBox="0 0 370 370"><defs><style>.cls-1,.cls-8,.cls-9{fill:none;}.cls-2{clip-path:url(#clip-path);}.cls-3{fill:#7a4826;}.cls-4{clip-path:url(#clip-path-2);}.cls-5{opacity:0.2;}.cls-6{fill:#af8d61;}.cls-7{opacity:0.8;}.cls-8{stroke:#40474c;stroke-width:2px;}.cls-8,.cls-9{stroke-miterlimit:10;}.cls-9{stroke:#5c6670;stroke-width:4px;}.cls-10{fill:#5c666f;}</style><clipPath><circle class="cls-1" cx="185" cy="185" r="185"/></clipPath><clipPath><path class="cls-1" d="M255.13,257.93a17.06,17.06,0,0,1-7.26-13.39,23.67,23.67,0,0,1-26.62-30.78c-1-.56-1.91-1.16-2.84-1.81-18.44-12.91-31-26.87-18-45.31a41.08,41.08,0,0,1,4-4.88l-50.8-35.57a4,4,0,0,0-5.57,1L-19.87,366.92a4,4,0,0,0,1,5.57l135.71,95a4,4,0,0,0,5.57-1L266.33,261A17,17,0,0,1,255.13,257.93Z"/></clipPath></defs><title>Artboard 1 copy 4</title><g class="cls-2"><path class="cls-3" d="M258.74,259.62a18,18,0,0,1-7.65-14.1,24.92,24.92,0,0,1-28-32.42c-1-.59-2-1.22-3-1.9-19.43-13.6-31.46-29.94-17.86-49.36a43.26,43.26,0,0,1,4.22-5.13l-53.5-37.46a4.23,4.23,0,0,0-5.87,1L-27.45,369.49a4.23,4.23,0,0,0,1,5.87L116.51,475.43a4.23,4.23,0,0,0,5.87-1L270.53,262.81A17.94,17.94,0,0,1,258.74,259.62Z"/><g class="cls-4"><g class="cls-5"><path class="cls-6" d="M-1.84,331H34.43a.12.12,0,0,1,.12.12v53.09a.12.12,0,0,1-.12.12H-1.84a.13.13,0,0,1-.13-.13V331.08a.12.12,0,0,1,.12-.12Z" transform="translate(208.08 55.33) rotate(35)"/><path class="cls-6" d="M32.55,355H68.82a.12.12,0,0,1,.12.12v53.09a.12.12,0,0,1-.12.12H32.55a.12.12,0,0,1-.12-.12V355.17a.13.13,0,0,1,.13-.13Z" transform="translate(228.11 39.96) rotate(35)"/><path class="cls-6" d="M32,282.63H68.27a.12.12,0,0,1,.12.12v53.09a.12.12,0,0,1-.12.12H32a.13.13,0,0,1-.13-.13V282.75a.12.12,0,0,1,.12-.12Z" transform="translate(186.47 27.18) rotate(35)"/><path class="cls-6" d="M66.39,306.71h36.26a.12.12,0,0,1,.12.12v53.09a.13.13,0,0,1-.13.13H66.39a.12.12,0,0,1-.12-.12V306.84A.12.12,0,0,1,66.39,306.71Z" transform="translate(206.51 11.81) rotate(35)"/><path class="cls-6" d="M100.78,330.79H137a.12.12,0,0,1,.12.12V384a.12.12,0,0,1-.12.12H100.78a.12.12,0,0,1-.12-.12V330.92a.13.13,0,0,1,.13-.13Z" transform="translate(226.54 -3.56) rotate(35)"/><path class="cls-6" d="M135.17,354.87h36.26a.13.13,0,0,1,.13.13v53.09a.12.12,0,0,1-.12.12H135.17a.12.12,0,0,1-.12-.12V355a.12.12,0,0,1,.12-.12Z" transform="translate(246.57 -18.93) rotate(35)"/><rect class="cls-6" x="65.72" y="234.3" width="36.51" height="53.34" rx="0.12" ry="0.12" transform="translate(164.87 -0.97) rotate(35)"/><rect class="cls-6" x="100.11" y="258.38" width="36.51" height="53.34" rx="0.12" ry="0.12" transform="translate(184.9 -16.34) rotate(35)"/><rect class="cls-6" x="134.5" y="282.46" width="36.51" height="53.34" rx="0.12" ry="0.12" transform="translate(204.94 -31.71) rotate(35)"/><rect class="cls-6" x="168.89" y="306.54" width="36.51" height="53.34" rx="0.12" ry="0.12" transform="translate(224.97 -47.08) rotate(35)"/><path class="cls-6" d="M99.69,186h36.26a.13.13,0,0,1,.13.13v53.09a.12.12,0,0,1-.12.12H99.69a.12.12,0,0,1-.12-.12V186.1a.12.12,0,0,1,.12-.12Z" transform="translate(143.27 -29.12) rotate(35)"/><rect class="cls-6" x="133.95" y="210.05" width="36.51" height="53.34" rx="0.12" ry="0.12" transform="translate(163.3 -44.49) rotate(35)"/><path class="cls-6" d="M168.47,234.13h36.26a.13.13,0,0,1,.13.13v53.09a.12.12,0,0,1-.12.12H168.47a.12.12,0,0,1-.12-.12V234.26a.13.13,0,0,1,.13-.13Z" transform="translate(183.34 -59.86) rotate(35)"/><rect class="cls-6" x="202.73" y="258.21" width="36.51" height="53.34" rx="0.12" ry="0.12" transform="translate(203.37 -75.23) rotate(35)"/><path class="cls-6" d="M133.53,137.64h36.26a.12.12,0,0,1,.12.12v53.09a.12.12,0,0,1-.12.12H133.53a.13.13,0,0,1-.13-.13V137.77a.12.12,0,0,1,.12-.12Z" transform="translate(121.67 -57.27) rotate(35)"/><path class="cls-6" d="M167.92,161.72h36.26a.12.12,0,0,1,.12.12v53.09a.12.12,0,0,1-.12.12H167.92a.13.13,0,0,1-.13-.13V161.85A.12.12,0,0,1,167.92,161.72Z" transform="translate(141.7 -72.64) rotate(35)"/><rect class="cls-6" x="202.18" y="185.8" width="36.51" height="53.34" rx="0.12" ry="0.12" transform="translate(161.73 -88.01) rotate(35)"/><path class="cls-6" d="M236.7,209.88H273a.13.13,0,0,1,.13.13V263.1a.13.13,0,0,1-.13.13H236.7a.12.12,0,0,1-.12-.12V210a.12.12,0,0,1,.12-.12Z" transform="translate(181.77 -103.38) rotate(35)"/></g><g class="cls-7"><path class="cls-8" d="M-1.84,331H34.43a.12.12,0,0,1,.12.12v53.09a.12.12,0,0,1-.12.12H-1.84a.13.13,0,0,1-.13-.13V331.08a.12.12,0,0,1,.12-.12Z" transform="translate(208.08 55.33) rotate(35)"/><path class="cls-8" d="M32.55,355H68.82a.12.12,0,0,1,.12.12v53.09a.12.12,0,0,1-.12.12H32.55a.12.12,0,0,1-.12-.12V355.17a.13.13,0,0,1,.13-.13Z" transform="translate(228.11 39.96) rotate(35)"/><path class="cls-8" d="M32,282.63H68.27a.12.12,0,0,1,.12.12v53.09a.12.12,0,0,1-.12.12H32a.13.13,0,0,1-.13-.13V282.75a.12.12,0,0,1,.12-.12Z" transform="translate(186.47 27.18) rotate(35)"/><path class="cls-8" d="M66.39,306.71h36.26a.12.12,0,0,1,.12.12v53.09a.13.13,0,0,1-.13.13H66.39a.12.12,0,0,1-.12-.12V306.84A.12.12,0,0,1,66.39,306.71Z" transform="translate(206.51 11.81) rotate(35)"/><path class="cls-8" d="M100.78,330.79H137a.12.12,0,0,1,.12.12V384a.12.12,0,0,1-.12.12H100.78a.12.12,0,0,1-.12-.12V330.92a.13.13,0,0,1,.13-.13Z" transform="translate(226.54 -3.56) rotate(35)"/><path class="cls-8" d="M135.17,354.87h36.26a.13.13,0,0,1,.13.13v53.09a.12.12,0,0,1-.12.12H135.17a.12.12,0,0,1-.12-.12V355a.12.12,0,0,1,.12-.12Z" transform="translate(246.57 -18.93) rotate(35)"/><rect class="cls-8" x="65.72" y="234.3" width="36.51" height="53.34" rx="0.12" ry="0.12" transform="translate(164.87 -0.97) rotate(35)"/><rect class="cls-8" x="100.11" y="258.38" width="36.51" height="53.34" rx="0.12" ry="0.12" transform="translate(184.9 -16.34) rotate(35)"/><rect class="cls-8" x="134.5" y="282.46" width="36.51" height="53.34" rx="0.12" ry="0.12" transform="translate(204.94 -31.71) rotate(35)"/><rect class="cls-8" x="168.89" y="306.54" width="36.51" height="53.34" rx="0.12" ry="0.12" transform="translate(224.97 -47.08) rotate(35)"/><path class="cls-8" d="M99.69,186h36.26a.13.13,0,0,1,.13.13v53.09a.12.12,0,0,1-.12.12H99.69a.12.12,0,0,1-.12-.12V186.1a.12.12,0,0,1,.12-.12Z" transform="translate(143.27 -29.12) rotate(35)"/><rect class="cls-8" x="133.95" y="210.05" width="36.51" height="53.34" rx="0.12" ry="0.12" transform="translate(163.3 -44.49) rotate(35)"/><path class="cls-8" d="M168.47,234.13h36.26a.13.13,0,0,1,.13.13v53.09a.12.12,0,0,1-.12.12H168.47a.12.12,0,0,1-.12-.12V234.26a.13.13,0,0,1,.13-.13Z" transform="translate(183.34 -59.86) rotate(35)"/><rect class="cls-8" x="202.73" y="258.21" width="36.51" height="53.34" rx="0.12" ry="0.12" transform="translate(203.37 -75.23) rotate(35)"/><path class="cls-8" d="M133.53,137.64h36.26a.12.12,0,0,1,.12.12v53.09a.12.12,0,0,1-.12.12H133.53a.13.13,0,0,1-.13-.13V137.77a.12.12,0,0,1,.12-.12Z" transform="translate(121.67 -57.27) rotate(35)"/><path class="cls-8" d="M167.92,161.72h36.26a.12.12,0,0,1,.12.12v53.09a.12.12,0,0,1-.12.12H167.92a.13.13,0,0,1-.13-.13V161.85A.12.12,0,0,1,167.92,161.72Z" transform="translate(141.7 -72.64) rotate(35)"/><rect class="cls-8" x="202.18" y="185.8" width="36.51" height="53.34" rx="0.12" ry="0.12" transform="translate(161.73 -88.01) rotate(35)"/><path class="cls-8" d="M236.7,209.88H273a.13.13,0,0,1,.13.13V263.1a.13.13,0,0,1-.13.13H236.7a.12.12,0,0,1-.12-.12V210a.12.12,0,0,1,.12-.12Z" transform="translate(181.77 -103.38) rotate(35)"/></g></g><path class="cls-9" d="M258.74,259.62a18,18,0,0,1-7.65-14.1,24.92,24.92,0,0,1-28-32.42c-1-.59-2-1.22-3-1.9-19.43-13.6-31.46-29.94-17.86-49.36a43.26,43.26,0,0,1,4.22-5.13l-53.5-37.46a4.23,4.23,0,0,0-5.87,1L-27.45,369.49a4.23,4.23,0,0,0,1,5.87L116.51,475.43a4.23,4.23,0,0,0,5.87-1L270.53,262.81A17.94,17.94,0,0,1,258.74,259.62Z"/></g><path class="cls-10" d="M185,2a183,183,0,0,1,71.23,351.62A183,183,0,0,1,113.77,16.38,181.85,181.85,0,0,1,185,2m0-2C82.83,0,0,82.83,0,185S82.83,370,185,370s185-82.83,185-185S287.17,0,185,0Z"/></svg>
