<svg data-name="Layer 1" xmlns="http://www.w3.org/2000/svg" xmlns:xlink="http://www.w3.org/1999/xlink" viewBox="0 0 370 370"><defs><style>.cls-1,.cls-12{fill:none;}.cls-2{clip-path:url(#clip-path);}.cls-3{fill:#4fb2c8;}.cls-10,.cls-11,.cls-3,.cls-4,.cls-6,.cls-8{stroke:#5c6670;}.cls-10,.cls-11,.cls-12,.cls-3,.cls-4,.cls-6,.cls-9{stroke-miterlimit:10;}.cls-10,.cls-11,.cls-12,.cls-3,.cls-6,.cls-8,.cls-9{stroke-width:2px;}.cls-13,.cls-4,.cls-8{fill:#935615;}.cls-10,.cls-5{fill:#d1e42d;}.cls-6{fill:#e1e9ef;}.cls-7{fill:#5c6670;}.cls-8{stroke-linejoin:round;}.cls-9{stroke:#23282b;stroke-linecap:round;}.cls-11{fill:#efb266;}.cls-12{stroke:#000;}.cls-14{fill:#5c666f;}</style><clipPath><circle class="cls-1" cx="185" cy="185" r="185"/></clipPath></defs><title>Artboard 1 copy 5</title><g class="cls-2"><path class="cls-3" d="M132,505.43l20.81,8.92a5.85,5.85,0,0,0,7.48-2.64l41.51-78.2a31.86,31.86,0,0,0,3.64-17.23L199,327l-55.87-.89,19.51,88.68-33.75,83.07A5.85,5.85,0,0,0,132,505.43Z"/><path class="cls-3" d="M153.9,297.57l.53,228.58a8.74,8.74,0,0,0,9.13,8.72l18.9-.84a8.74,8.74,0,0,0,8.33-8l20.44-259.6Z"/><path class="cls-3" d="M156.43,346.49c-20.4.89-23.1-35.08-23.1-35.08l31.08-.4"/><polygon class="cls-4" points="180.07 181.79 147.37 178.31 171.25 133.67 191.69 135.85 180.07 181.79"/><circle class="cls-5" cx="263.74" cy="170.01" r="35.47"/><path class="cls-6" d="M129.85,309.16a1.83,1.83,0,0,0,1.83,1.86h71.75c8,0,16-.89,14.19-25.72s-16.85-97.55-23.06-108.19-30.15-17.74-43.45-6.21-22.17,34.59-21.28,57.64C130.62,249.18,130,298.94,129.85,309.16Z"/><path class="cls-6" d="M184.36,168.24S140.4,149,119.1,152s-5,21.49,4.39,32.29,15.1,9.48,24.58,1.63S164.51,173,164.51,173"/><rect class="cls-7" x="259.74" y="149.19" width="4.74" height="59.64" rx="1.34" ry="1.34" transform="translate(92.34 -89.18) rotate(23.33)"/><path class="cls-8" d="M237.16,214.77l13.19-28.37a3.42,3.42,0,0,1,4.7-1.58h0a3.42,3.42,0,0,1,1.68,4l-2.49,8.43,5.32-13.2a2.5,2.5,0,0,1,4.79,1.31l-2.82,18.85-10.71,21.15Z"/><ellipse class="cls-8" cx="190.72" cy="130.38" rx="28.04" ry="25.39" transform="translate(-9.49 245.66) rotate(-64.29)"/><path class="cls-9" d="M225,118.17s7.15,2.62,2.31,7.11-11.68-1.56-11.68-1.56a16.58,16.58,0,0,0-11.86-5c-7.86-.22-19.91,9.86-19.91,9.86s-.53-7.29-7.1-5.42-12.79,10.66-12.79,10.66-6.17-8-5.86-11.37,5.46-5.91,5.46-5.91Z"/><path class="cls-6" d="M197.45,184.28l18.8,57.91,16.2-31.59a7.23,7.23,0,0,1,11-2.33l10.48,8.46a7.23,7.23,0,0,1,2.12,8.44l-23.2,55a23.59,23.59,0,0,1-21.54,14.41h0a23.59,23.59,0,0,1-22.24-15.21l-21.82-57.42"/><polyline class="cls-6" points="219.35 257.67 216.03 242.11 225 251.15"/><path class="cls-10" d="M245.13,118l-82.4-3s1.9-16.69,23.67-17.38,27.68-.64,30.7,4.07,1.68,13.95,1.68,13.95"/><rect class="cls-11" x="183.97" y="95.53" width="7.57" height="33.38" rx="1.43" ry="1.43" transform="translate(21.51 -29.93) rotate(9.67)"/><ellipse class="cls-11" cx="183.82" cy="128.56" rx="10.89" ry="8.54" transform="translate(8.5 268.49) rotate(-73.56)"/><path class="cls-4" d="M216.08,128.65l1.38,15.62a1.63,1.63,0,0,1-2.41,1.57l-5-2.75"/><circle cx="207.45" cy="130.25" r="1.96" transform="matrix(0.09, -1, 1, 0.09, 58.89, 325.02)"/><path class="cls-12" d="M198.25,139.6s.79,4.71,5.24,5.76"/><polygon class="cls-13" points="170.06 137.09 162.96 151.87 177.79 160.33 182.55 146.09 170.06 137.09"/><polygon class="cls-7" points="131.69 311.02 136.92 331.42 203.43 311.02 131.69 311.02"/></g><path class="cls-14" d="M185,2a183,183,0,0,1,71.23,351.62A183,183,0,0,1,113.77,16.38,181.85,181.85,0,0,1,185,2m0-2C82.83,0,0,82.83,0,185S82.83,370,185,370s185-82.83,185-185S287.17,0,185,0Z"/></svg>
