<svg data-name="Layer 1" xmlns="http://www.w3.org/2000/svg" xmlns:xlink="http://www.w3.org/1999/xlink" viewBox="0 0 370 370"><defs><style>.cls-1,.cls-10,.cls-6,.cls-7{fill:none;}.cls-2{clip-path:url(#clip-path);}.cls-3{fill:#c6d3e1;}.cls-13,.cls-3,.cls-4,.cls-8,.cls-9{fill-rule:evenodd;}.cls-4{fill:#78cdd1;}.cls-5{fill:#5c666f;}.cls-6{stroke:#5c666f;}.cls-10,.cls-6,.cls-7{stroke-width:2px;}.cls-10,.cls-7{stroke:#5c6670;}.cls-8{fill:#75cdd2;}.cls-9{fill:#c4d621;}.cls-10{stroke-linecap:round;stroke-miterlimit:10;}.cls-11{fill:#fa7a47;}.cls-12{opacity:0.2;}.cls-13{fill:#fff;}</style><clipPath><circle class="cls-1" cx="185" cy="185" r="185"/></clipPath></defs><title>Artboard 1 copy 3</title><g class="cls-2"><g data-name="Ellipse 881"><path class="cls-3" d="M183.61,288.09A36.57,36.57,0,0,0,147,324.6v88.51h73.29V324.6A36.57,36.57,0,0,0,183.61,288.09Z"/></g><polygon class="cls-4" points="100.95 192.2 184.32 158.51 184.61 158.6 184.89 158.53 268.25 192.2 266.32 196.98 184.6 163.96 102.89 196.98 100.95 192.2"/><path class="cls-5" d="M184.86,159.58,267,192.75l-1.18,2.93-80.42-32.49-.75-.3-.75.3-80.42,32.49-1.18-2.93,82.09-33.17.26.08.26-.08m.06-2.06a1.06,1.06,0,0,1-.64,0,.89.89,0,0,0-.34.06l-83.37,33.68a1,1,0,0,0-.55,1.3l1.93,4.78a1,1,0,0,0,.93.63,1,1,0,0,0,.37-.07L184.6,165l81.34,32.86a1,1,0,0,0,.37.07,1,1,0,0,0,.93-.62l1.93-4.78a1,1,0,0,0-.55-1.3l-83.37-33.68a.89.89,0,0,0-.34-.06Z"/><polygon class="cls-4" points="183.63 241.94 -22.07 304.83 -23.58 299.9 183.34 236.64 183.65 236.73 183.94 236.65 390.85 299.9 389.34 304.83 183.63 241.94"/><path class="cls-5" d="M183.3,237.69l.33.1.33-.1L389.6,300.56l-.92,3L184.22,241.07l-.58-.18-.58.18L-21.41,303.58l-.92-3L183.3,237.69m.67-2a1,1,0,0,1-.68,0,.84.84,0,0,0-.25,0L-23.87,298.94a1,1,0,0,0-.66,1.25l1.51,4.93a1,1,0,0,0,1,.71,1,1,0,0,0,.29,0L183.63,243,389,305.79a1,1,0,0,0,.29,0,1,1,0,0,0,1-.71l1.51-4.93a1,1,0,0,0-.66-1.25L184.22,235.68a.84.84,0,0,0-.25,0Z"/><line class="cls-6" x1="113" y1="192.5" x2="113" y2="257.5"/><line class="cls-6" x1="256" y1="192.5" x2="256" y2="257.5"/><line class="cls-7" x1="48" y1="283" x2="48" y2="331"/><line class="cls-7" x1="322" y1="284" x2="322" y2="332"/><line class="cls-6" x1="184" y1="104" x2="184" y2="158"/><g data-name="Shape 878"><path class="cls-8" d="M204.23,102.21c-4.25,4.23-21.23,0-21.23,0V130.4s17,4.23,21.23,0,21.23,0,21.23,0V102.21S208.47,98,204.23,102.21Z"/></g><g data-name="Ellipse 880"><path class="cls-9" d="M184.47,213.88a12.9,12.9,0,1,1,12.9-12.9A12.91,12.91,0,0,1,184.47,213.88Z"/><path class="cls-5" d="M184.47,189.09a11.9,11.9,0,1,1-11.9,11.9,11.91,11.91,0,0,1,11.9-11.9m0-2a13.9,13.9,0,1,0,13.9,13.9,13.9,13.9,0,0,0-13.9-13.9Z"/></g><polyline class="cls-10" points="184 196 184 202 188 202"/><rect class="cls-11" x="113" y="211" width="12" height="6"/><path class="cls-5" d="M124,212v4H114v-4h10m1-2H112v8h13a1,1,0,0,0,1-1v-6a1,1,0,0,0-1-1Z"/><rect class="cls-11" x="113" y="217" width="18" height="6"/><path class="cls-5" d="M130,218v4H114v-4h16m1-2H112v8h19a1,1,0,0,0,1-1v-6a1,1,0,0,0-1-1Z"/><rect class="cls-11" x="113" y="223" width="12" height="6"/><path class="cls-5" d="M124,224v4H114v-4h10m1-2H112v8h13a1,1,0,0,0,1-1v-6a1,1,0,0,0-1-1Z"/><rect class="cls-11" x="244" y="211" width="12" height="6"/><path class="cls-5" d="M255,212v4H245v-4h10m2-2H244a1,1,0,0,0-1,1v6a1,1,0,0,0,1,1h13v-8Z"/><rect class="cls-11" x="238" y="217" width="18" height="6"/><path class="cls-5" d="M255,218v4H239v-4h16m2-2H238a1,1,0,0,0-1,1v6a1,1,0,0,0,1,1h19v-8Z"/><rect class="cls-11" x="244" y="223" width="12" height="6"/><path class="cls-5" d="M255,224v4H245v-4h10m2-2H244a1,1,0,0,0-1,1v6a1,1,0,0,0,1,1h13v-8Z"/><g data-name="Rectangle 879" class="cls-12"><path class="cls-13" d="M213.8,100.8c-5.39,0-10.9,3.52-10.9,3.52V129.7a41.08,41.08,0,0,1,11.65-2.11,32.2,32.2,0,0,1,10.2,2.11V104.33S219,100.8,213.8,100.8Z"/></g><g data-name="Shape 878"><path class="cls-5" d="M211.62,102.33a62.28,62.28,0,0,1,11.84,1.48v24.1a63.66,63.66,0,0,0-11.84-1.39c-4.26,0-7.14.81-8.8,2.46-.39.39-1.76,1.3-6,1.3A62.3,62.3,0,0,1,185,128.8v-24.1a63.67,63.67,0,0,0,11.84,1.39c4.26,0,7.14-.81,8.8-2.46.39-.39,1.76-1.3,6-1.3m0-2c-3.15,0-6,.47-7.39,1.88s-4.25,1.88-7.39,1.88A68.38,68.38,0,0,1,183,102.21V130.4a68.39,68.39,0,0,0,13.84,1.88c3.15,0,6-.47,7.39-1.88s4.25-1.88,7.39-1.88a68.37,68.37,0,0,1,13.84,1.88V102.21a68.37,68.37,0,0,0-13.84-1.88Z"/></g></g><path class="cls-5" d="M185,2a183,183,0,0,1,71.23,351.62A183,183,0,0,1,113.77,16.38,181.85,181.85,0,0,1,185,2m0-2C82.83,0,0,82.83,0,185S82.83,370,185,370s185-82.83,185-185S287.17,0,185,0Z"/></svg>
