<?xml version="1.0" encoding="utf-8"?>
<!-- Generator: Adobe Illustrator 24.2.1, SVG Export Plug-In . SVG Version: 6.00 Build 0)  -->
<svg version="1.1" id="Layer_1" xmlns="http://www.w3.org/2000/svg" xmlns:xlink="http://www.w3.org/1999/xlink" x="0px" y="0px"
	 viewBox="0 0 612 792" style="enable-background:new 0 0 612 792;" xml:space="preserve">
<style type="text/css">
	.st0{fill:#C7D4E3;}
	.st1{fill:#CFDD29;}
	.st2{fill:#76CDD1;}
	.st3{fill:#F78D20;}
	.st4{fill:#566CB3;}
	.st5{fill:#FFFFFF;stroke:#5C6670;stroke-width:2;stroke-miterlimit:10;}
	.st6{fill:#5C6670;}
	.st7{fill:#ECEDF1;}
	.st8{fill:none;stroke:#FFFFFF;stroke-width:3;stroke-linecap:round;stroke-miterlimit:10;}
	.st9{fill:none;stroke:#5C6670;stroke-width:3.5;stroke-linecap:round;stroke-miterlimit:10;}
	.st10{fill:none;stroke:#75CCD1;stroke-width:7;stroke-linecap:round;stroke-linejoin:round;stroke-miterlimit:10;}
	.st11{fill:none;stroke:#FFFFFF;stroke-width:4;stroke-linecap:round;stroke-miterlimit:10;}
	.st12{fill:#CFDD28;}
	.st13{fill:#FFFFFF;}
	.st14{fill:#76CCD1;}
	.st15{fill:#F47842;}
	.st16{enable-background:new    ;}
	.st17{fill:#78CCD0;}
	.st18{fill:#D0E32F;}
</style>
<g>
	<path class="st0" d="M90.2,561.4c2.5-3.6,4.7-4.6,7.5-3.5c2.6,1,3.8,3,3.7,5.6c-0.2,2.7-1.9,4.5-4.5,5.1c-2.5,0.5-4.6-0.4-5.9-2.7
		c-0.2-0.4-0.5-0.7-0.8-1.1C90.2,563.7,90.2,562.6,90.2,561.4z"/>
	<path class="st0" d="M160.4,749.6c-3.6-2.5-4.6-4.7-3.5-7.5c1-2.6,3-3.8,5.6-3.7c2.7,0.2,4.5,1.9,5.1,4.5c0.5,2.5-0.4,4.6-2.7,5.9
		c-0.4,0.2-0.7,0.5-1.1,0.8C162.7,749.6,161.6,749.6,160.4,749.6z"/>
	<path class="st1" d="M229.5,651.9c0,5-4.1,9.1-9.1,9c-4.9-0.1-8.8-4.1-8.8-9c0-5,4.1-9.1,9.1-9
		C225.6,642.9,229.5,646.9,229.5,651.9z"/>
	<path class="st1" d="M480.1,519.3c-5,0-9.1-4-9-9.1c0-4.9,4-8.9,8.9-8.9c5,0,9.1,4,9,9.1C489,515.3,485,519.3,480.1,519.3z"/>
	<path class="st2" d="M116.5,114.9c-4.7,0-8.4-3.9-8.3-8.7c0.1-4.6,3.8-8.2,8.5-8.2s8.4,3.9,8.3,8.7
		C124.9,111.3,121.2,114.9,116.5,114.9z"/>
	<path class="st0" d="M366.6,732.7c0,3.1-2.7,5.7-5.7,5.6c-3-0.1-5.5-2.6-5.5-5.6c0-3.1,2.7-5.7,5.7-5.6
		C364,727.2,366.6,729.7,366.6,732.7z"/>
	<path class="st0" d="M301.4,667.6c0,3.1-2.7,5.7-5.8,5.6c-3-0.1-5.5-2.7-5.5-5.6c0-3.1,2.7-5.7,5.8-5.6
		C298.9,662.1,301.4,664.6,301.4,667.6z"/>
	<path class="st3" d="M380.6,31.8c-2.8,0-5.1-2.3-5.1-5.2c0.1-2.7,2.3-4.9,5-4.9c2.8,0,5.1,2.3,5.1,5.2
		C385.6,29.6,383.4,31.8,380.6,31.8z"/>
	<path class="st3" d="M172.2,142.5c0,2.8-2.4,5.1-5.2,5c-2.7-0.1-4.9-2.4-4.9-5.1c0-2.8,2.4-5.1,5.2-5S172.3,139.7,172.2,142.5z"/>
	<path class="st4" d="M493.5,407.6c-0.1,2.1-1.9,3.9-4,3.8s-3.9-1.9-3.8-4s1.9-3.9,4-3.8C491.8,403.7,493.6,405.5,493.5,407.6z"/>
	<path class="st4" d="M105.3,163.2c2.1-0.1,4,1.7,4.1,3.8s-1.7,4-3.8,4.1c-2.1,0.1-4-1.7-4.1-3.8
		C101.4,165.1,103.1,163.3,105.3,163.2z"/>
	<g>
		<path class="st5" d="M400.7,603.6h-178c-18.8,0-34-15.2-34-34V144.2c0-18.8,15.2-34,34-34h177.9c18.8,0,34,15.2,34,34v425.3
			C434.7,588.3,419.5,603.6,400.7,603.6z"/>
		<path class="st6" d="M188.3,202.6h-1.1c-1.3,0-2.4-1.1-2.4-2.4v-16c0-1.3,1.1-2.4,2.4-2.4h1.2c0.7,0,1.3,0.6,1.3,1.3v18
			C189.7,202,189.1,202.6,188.3,202.6z"/>
		<path class="st6" d="M435.1,241.1h1.6c1.3,0,2.4,1.1,2.4,2.4v23.2c0,1.3-1.1,2.4-2.4,2.4H435c-0.7,0-1.3-0.6-1.3-1.3v-25.2
			C433.7,241.7,434.3,241.1,435.1,241.1z"/>
		<path class="st6" d="M188.3,227.6h-1.1c-1.3,0-2.4-1.1-2.4-2.4v-16c0-1.3,1.1-2.4,2.4-2.4h1.2c0.7,0,1.3,0.6,1.3,1.3v18
			C189.7,227,189.1,227.6,188.3,227.6z"/>
	</g>
	<g>
		<path class="st7" d="M222.7,594.6c-13.8,0-25-11.2-25-25V144.2c0-13.8,11.2-25,25-25h177.9c13.8,0,25,11.2,25,25v425.3
			c0,13.8-11.2,25-25,25L222.7,594.6L222.7,594.6z"/>
	</g>
	<path class="st6" d="M238,110.2c-2.3,9.7,3.1,20.7,13.4,20.7h25.8h63.4h31.8c11,0,15.8-10.6,13.3-20.7H238z"/>
	<line class="st8" x1="278" y1="121.2" x2="340.4" y2="121.2"/>
	<line class="st9" x1="216" y1="129.2" x2="231.4" y2="129.2"/>
	<line class="st9" x1="391" y1="129.2" x2="406.4" y2="129.2"/>
	<line class="st10" x1="265" y1="584.2" x2="350.4" y2="584.2"/>
	<line class="st11" x1="350" y1="121.2" x2="350" y2="121.2"/>
	<g>
		<g>
			<path class="st12" d="M184.6,346.3c19.6,0,35.6,15.9,35.6,35.6c0,19.6-15.9,35.6-35.6,35.6s-35.6-16-35.6-35.6
				C149,362.2,165,346.3,184.6,346.3z"/>
			<g>
				<path class="st13" d="M171.2,396.2c-1.1,0-2.1-0.3-3-0.9c-0.3-0.2-0.4-0.5-0.5-0.8c0-0.1,0-0.3,0.1-0.4c-0.1,0-0.2,0-0.3,0h-0.1
					c-0.3,0-0.5-0.2-0.7-0.4c-0.6-0.9-0.9-1.9-0.9-3v-15.1c0-0.9,0.3-1.9,0.7-2.7c0.2-0.3,0.4-0.4,0.7-0.5h0.1c0.1,0,0.2,0,0.2,0
					c-0.1-0.1-0.1-0.3-0.1-0.4c0-0.3,0.2-0.6,0.4-0.7c0.9-0.7,2.1-1.1,3.3-1.1H198c1.2,0,2.4,0.4,3.3,1.1c0.2,0.2,0.4,0.5,0.4,0.7
					c0,0.1,0,0.3-0.1,0.4c0.1,0,0.1,0,0.2,0c0.4,0,0.8,0.2,0.9,0.6c0,0,0,0,0,0.1c0.4,0.8,0.6,1.6,0.6,2.5v15.1c0,1.1-0.3,2.1-0.9,3
					c-0.2,0.2-0.4,0.4-0.7,0.4h-0.1c-0.1,0-0.2,0-0.3,0c0,0.1,0.1,0.3,0.1,0.4c0,0.3-0.2,0.6-0.5,0.8c-0.9,0.6-1.9,0.9-3,0.9l0,0
					H171.2z M179.7,383.9c0,0.1,0,0.2,0,0.3c0,0.1,0,0.2,0,0.2c0.1-0.1,0.3-0.1,0.4-0.1c0,0,0,0,0.1,0L179.7,383.9z M189.1,384.3
					c0.1,0,0.2,0,0.4,0.1c0-0.1,0-0.2,0-0.2c0-0.1,0-0.1,0-0.2L189.1,384.3L189.1,384.3z"/>
				<path class="st6" d="M198,371.1c1,0,1.9,0.3,2.7,0.9l-15.3,14.4c-0.2,0.2-0.5,0.2-0.7,0.2s-0.5-0.1-0.7-0.2L168.7,372
					c0.8-0.6,1.7-0.9,2.7-0.9H198 M201.8,373.4L201.8,373.4L201.8,373.4L201.8,373.4 M167.4,373.4l11.3,10.7l-11.2,9
					c-0.5-0.7-0.8-1.6-0.7-2.5v-15.1C166.8,374.8,167,374.1,167.4,373.4 M201.8,373.4c0.4,0.7,0.6,1.4,0.6,2.2v15.1
					c0,0.9-0.3,1.7-0.7,2.5l-11.2-9L201.8,373.4 M189.1,385.3l11.3,9.1c-0.7,0.5-1.6,0.7-2.5,0.7h-26.7c-0.9,0-1.7-0.3-2.5-0.7
					l11.3-9.1h0.1l2.6,2.4c0.6,0.5,1.2,0.8,1.9,0.8s1.4-0.3,1.9-0.8L189.1,385.3 M198,369.1L198,369.1h-26.7c-1.4,0-2.8,0.5-3.9,1.3
					c-0.4,0.3-0.6,0.7-0.7,1.1c-0.4,0.2-0.8,0.5-1,0.9c-0.6,1-0.8,2.1-0.8,3.2v15.1c0,1.3,0.4,2.5,1.1,3.6c0.2,0.4,0.6,0.6,1,0.8
					c0.1,0.4,0.4,0.8,0.8,1.1c1.1,0.7,2.3,1,3.5,1H198c1.3,0,2.5-0.4,3.5-1c0.4-0.3,0.7-0.7,0.8-1.1c0.4-0.1,0.7-0.4,1-0.8
					c0.7-1.1,1.1-2.3,1.1-3.6v-15.1c0-1-0.2-2-0.7-2.9l0,0c-0.2-0.5-0.6-0.9-1.1-1.1c-0.1-0.4-0.4-0.8-0.7-1.1
					C200.7,369.6,199.4,369.1,198,369.1L198,369.1z"/>
			</g>
		</g>
	</g>
	<circle class="st14" cx="466.3" cy="700.2" r="32.6"/>
	<circle class="st15" cx="485.2" cy="75.9" r="31.5"/>
	<g>
		<rect x="458.1" y="691.8" class="st6" width="2.1" height="18.4"/>
		<g>
			<path class="st13" d="M454.6,714.8c-2.9,0-5.2-2.3-5.2-5.2s2.3-5.2,5.2-5.2c2.9,0,5.2,2.3,5.2,5.2
				C459.8,712.4,457.4,714.8,454.6,714.8z"/>
			<path class="st6" d="M454.6,704.8c2.6,0,4.7,2.1,4.7,4.7s-2.1,4.7-4.7,4.7s-4.7-2.1-4.7-4.7S451.9,704.8,454.6,704.8
				 M454.6,703.8c-3.2,0-5.7,2.6-5.7,5.7c0,3.2,2.6,5.7,5.7,5.7s5.7-2.6,5.7-5.7C460.3,706.4,457.7,703.8,454.6,703.8L454.6,703.8z"
				/>
		</g>
		<rect x="475.5" y="691.8" class="st6" width="2.1" height="18.4"/>
		<g>
			<path class="st13" d="M472,714.8c-2.9,0-5.2-2.3-5.2-5.2s2.3-5.2,5.2-5.2c2.9,0,5.2,2.3,5.2,5.2
				C477.2,712.4,474.9,714.8,472,714.8z"/>
			<path class="st6" d="M472,704.8c2.6,0,4.7,2.1,4.7,4.7s-2.1,4.7-4.7,4.7s-4.7-2.1-4.7-4.7S469.4,704.8,472,704.8 M472,703.8
				c-3.2,0-5.7,2.6-5.7,5.7c0,3.2,2.6,5.7,5.7,5.7c3.2,0,5.7-2.6,5.7-5.7C477.7,706.4,475.1,703.8,472,703.8L472,703.8z"/>
		</g>
		<g>
			<rect x="458.6" y="685.6" class="st13" width="18.5" height="5.9"/>
			<g>
				<path class="st6" d="M476.7,686v5h-17.6v-5H476.7 M477.6,685.1h-1H459h-1v1v5v1h1h17.6h1v-1v-5V685.1L477.6,685.1z"/>
			</g>
		</g>
	</g>
	<g>
		<g>
			<path class="st13" d="M476,59.4c1.5-0.1,2.9,1.2,2.9,2.7c0.1,1.5-1.2,2.9-2.7,2.9c-1.5,0.1-2.9-1.2-2.9-2.7
				C473.2,60.8,474.4,59.5,476,59.4z"/>
			<path class="st6" d="M476.1,59.4c1.5,0,2.8,1.2,2.9,2.8c0.1,1.5-1.2,2.9-2.7,2.9h-0.1c-1.5,0-2.8-1.2-2.9-2.8
				C473.2,60.8,474.4,59.5,476.1,59.4C476,59.4,476,59.4,476.1,59.4 M476.1,58H476c-2.3,0.1-4.2,2.1-4.1,4.4s2,4.2,4.3,4.2h0.1
				c2.3-0.1,4.2-2.1,4.1-4.4C480.3,59.9,478.4,58,476.1,58L476.1,58z"/>
		</g>
		<g>
			<path class="st13" d="M489,59.4c1.5-0.1,2.9,1.2,2.9,2.7c0.1,1.5-1.2,2.9-2.7,2.9c-1.5,0.1-2.9-1.2-2.9-2.7
				C486.2,60.8,487.5,59.5,489,59.4z"/>
			<path class="st6" d="M489.1,59.4c1.5,0,2.8,1.2,2.9,2.8c0.1,1.5-1.2,2.9-2.7,2.9h-0.1c-1.5,0-2.8-1.2-2.9-2.8
				C486.2,60.8,487.5,59.5,489.1,59.4L489.1,59.4 M489.1,58H489c-2.3,0.1-4.2,2.1-4.1,4.4s2,4.2,4.3,4.2h0.1
				c2.3-0.1,4.2-2.1,4.1-4.4C493.4,59.9,491.4,58,489.1,58L489.1,58z"/>
		</g>
		<g>
			<rect x="471.1" y="70.4" class="st13" width="24.6" height="16.4"/>
			<path class="st6" d="M495.7,70.4v16.4h-24.6V70.4H495.7 M495.7,68.9h-24.6c-0.8,0-1.5,0.6-1.5,1.5v16.4c0,0.8,0.6,1.5,1.5,1.5
				h24.6c0.8,0,1.5-0.6,1.5-1.5V70.4C497.1,69.6,496.5,68.9,495.7,68.9L495.7,68.9z"/>
		</g>
		<g>
			<path class="st13" d="M504.5,82.7c-0.2,0-0.3,0-0.4-0.1l-7.1-4.5c-0.2-0.1-0.3-0.3-0.3-0.5s0.1-0.4,0.2-0.5l6.9-5.5
				c0.1-0.1,0.3-0.2,0.4-0.2s0.2,0,0.3,0c0.3,0.1,0.4,0.3,0.4,0.6l0.1,2.6l0.1,7.4c0,0.2-0.1,0.3-0.2,0.4
				C504.9,82.7,504.7,82.7,504.5,82.7z"/>
			<path class="st6" d="M504.3,72.1l0.1,2.6l0.1,7.4l0,0l-7.1-4.5L504.3,72.1 M504.2,70.8c-0.3,0-0.6,0.1-0.9,0.3l-6.9,5.5
				c-0.3,0.3-0.5,0.6-0.5,1s0.2,0.8,0.6,1l7.1,4.5c0.3,0.2,0.6,0.2,0.9,0.2c0.4,0,0.7-0.2,1-0.4c0.2-0.2,0.4-0.6,0.4-0.9l-0.1-7.4
				l0,0l-0.1-2.6c0-0.5-0.4-0.9-0.9-1.1C504.7,70.8,504.4,70.8,504.2,70.8L504.2,70.8z"/>
		</g>
	</g>
	<g>
		<g class="st16">
			<path class="st14" d="M385.3,341.7l8.6-16.3l-8.1-15.4h9.4l2.1,5.2c0.4,0.7,0.7,1.6,1,2.4s0.7,1.8,1.2,2.8h0.2c0.4-1,0.7-2,1-2.8
				c0.3-0.9,0.6-1.7,0.9-2.4l1.9-5.2h9l-8.1,15.8l8.6,15.9h-9.4l-2.5-5.7c-0.4-0.8-0.8-1.7-1.1-2.5c-0.4-0.8-0.7-1.8-1.1-2.7h-0.2
				c-0.4,1-0.7,1.9-1,2.7c-0.3,0.8-0.7,1.7-1,2.5l-2.3,5.7H385.3z"/>
		</g>
	</g>
	<g class="st16">
		<path d="M250.1,387.9v-14.5h2l0.2,2.1h0.1c0.6-0.7,1.3-1.3,2.1-1.7c0.7-0.5,1.6-0.7,2.4-0.7c1.1,0,2,0.2,2.6,0.7s1.1,1.2,1.4,2
			c0.8-0.8,1.5-1.5,2.3-2s1.6-0.8,2.5-0.8c1.5,0,2.6,0.5,3.3,1.4c0.7,1,1.1,2.4,1.1,4.2v9.2h-2.4V379c0-1.4-0.2-2.4-0.7-3
			c-0.4-0.6-1.1-0.9-2-0.9c-1.1,0-2.3,0.7-3.6,2.2v10.5H259V379c0-1.4-0.2-2.4-0.7-3s-1.1-0.9-2.1-0.9c-1.1,0-2.3,0.7-3.6,2.2v10.5
			L250.1,387.9L250.1,387.9z"/>
		<path d="M280.4,388.3c-0.9,0-1.7-0.2-2.5-0.5s-1.5-0.8-2.1-1.5c-0.6-0.6-1.1-1.4-1.5-2.4c-0.4-0.9-0.6-2-0.6-3.2s0.2-2.3,0.6-3.2
			c0.4-0.9,0.9-1.7,1.5-2.4c0.6-0.7,1.3-1.1,2.1-1.5c0.8-0.3,1.7-0.5,2.5-0.5c0.9,0,1.7,0.2,2.5,0.5s1.5,0.8,2.1,1.5
			s1.1,1.5,1.5,2.4s0.6,2,0.6,3.2s-0.2,2.3-0.6,3.2c-0.4,0.9-0.9,1.7-1.5,2.4c-0.6,0.6-1.3,1.1-2.1,1.5
			C282.1,388.1,281.3,388.3,280.4,388.3z M280.4,386.3c0.6,0,1.2-0.1,1.7-0.4s1-0.6,1.3-1.1c0.4-0.5,0.6-1.1,0.8-1.7
			c0.2-0.7,0.3-1.4,0.3-2.3c0-0.8-0.1-1.6-0.3-2.3c-0.2-0.7-0.5-1.3-0.8-1.8c-0.4-0.5-0.8-0.9-1.3-1.1c-0.5-0.3-1.1-0.4-1.7-0.4
			s-1.2,0.1-1.7,0.4s-1,0.6-1.3,1.1c-0.4,0.5-0.6,1.1-0.8,1.8c-0.2,0.7-0.3,1.4-0.3,2.3c0,0.8,0.1,1.6,0.3,2.3
			c0.2,0.7,0.5,1.3,0.8,1.7c0.4,0.5,0.8,0.9,1.3,1.1C279.2,386.1,279.8,386.3,280.4,386.3z"/>
		<path d="M290.9,387.9v-14.5h2l0.2,2.6h0.1c0.5-0.9,1.1-1.6,1.8-2.2c0.7-0.5,1.5-0.8,2.3-0.8c0.6,0,1.1,0.1,1.5,0.3l-0.5,2.1
			c-0.2-0.1-0.5-0.1-0.7-0.2c-0.2,0-0.4-0.1-0.7-0.1c-0.6,0-1.3,0.2-1.9,0.7c-0.7,0.5-1.2,1.4-1.7,2.6v9.3h-2.4L290.9,387.9
			L290.9,387.9z"/>
		<path d="M306.7,388.3c-1,0-1.9-0.2-2.7-0.5c-0.8-0.3-1.6-0.8-2.2-1.5s-1.1-1.4-1.5-2.4c-0.4-0.9-0.5-2-0.5-3.2s0.2-2.3,0.6-3.2
			c0.4-0.9,0.9-1.7,1.5-2.4c0.6-0.7,1.3-1.2,2.1-1.5c0.8-0.3,1.6-0.5,2.4-0.5c0.9,0,1.7,0.2,2.5,0.5c0.7,0.3,1.3,0.8,1.8,1.4
			s0.9,1.3,1.1,2.1c0.3,0.8,0.4,1.8,0.4,2.8c0,0.3,0,0.5,0,0.8c0,0.2,0,0.5-0.1,0.6h-9.8c0.1,1.5,0.6,2.8,1.4,3.7
			c0.9,0.9,2,1.4,3.4,1.4c0.7,0,1.3-0.1,1.9-0.3c0.6-0.2,1.1-0.5,1.7-0.8l0.9,1.6c-0.6,0.4-1.3,0.7-2.1,1
			C308.6,388.2,307.7,388.3,306.7,388.3z M302.2,379.6h7.7c0-1.5-0.3-2.6-0.9-3.3s-1.5-1.1-2.6-1.1c-0.5,0-1,0.1-1.5,0.3
			c-0.5,0.2-0.9,0.5-1.3,0.9s-0.7,0.9-0.9,1.4C302.4,378.2,302.3,378.8,302.2,379.6z"/>
		<path d="M326.5,388.3c-1.8,0-3.3-0.7-4.4-2s-1.6-3.2-1.6-5.6c0-1.2,0.2-2.2,0.5-3.2c0.3-0.9,0.8-1.7,1.4-2.4s1.2-1.2,2-1.5
			c0.8-0.4,1.5-0.5,2.4-0.5c0.8,0,1.6,0.1,2.2,0.4s1.2,0.7,1.9,1.2l-0.1-2.5v-5.6h2.5v21.2h-2l-0.2-1.7H331c-0.6,0.6-1.2,1-2,1.4
			C328.2,388.1,327.4,388.3,326.5,388.3z M327.1,386.3c0.7,0,1.3-0.2,1.9-0.5s1.2-0.8,1.8-1.5v-7.6c-0.6-0.6-1.2-0.9-1.8-1.2
			c-0.6-0.2-1.1-0.3-1.7-0.3s-1.1,0.1-1.6,0.4s-0.9,0.6-1.3,1.1s-0.7,1.1-0.9,1.7c-0.2,0.7-0.3,1.4-0.3,2.3c0,1.7,0.3,3.1,1,4.1
			C324.8,385.8,325.8,386.3,327.1,386.3z"/>
		<path d="M341.4,388.3c-1.2,0-2.2-0.4-3-1.1s-1.2-1.7-1.2-3c0-1.6,0.7-2.8,2.1-3.6c1.4-0.8,3.7-1.4,6.8-1.8c0-0.5,0-0.9-0.1-1.3
			s-0.2-0.8-0.5-1.2c-0.2-0.3-0.5-0.6-0.9-0.8c-0.4-0.2-0.9-0.3-1.5-0.3c-0.8,0-1.6,0.2-2.3,0.5c-0.7,0.3-1.4,0.7-2,1.1l-1-1.7
			c0.7-0.4,1.5-0.9,2.5-1.3s2-0.6,3.2-0.6c1.8,0,3,0.5,3.8,1.6s1.2,2.5,1.2,4.3v8.9h-2l-0.2-1.7h-0.1c-0.7,0.6-1.4,1.1-2.2,1.5
			S342.3,388.3,341.4,388.3z M342.1,386.3c0.7,0,1.3-0.2,2-0.5s1.3-0.8,2-1.4v-4c-1.2,0.2-2.2,0.3-3,0.6c-0.8,0.2-1.5,0.5-2,0.8
			s-0.9,0.6-1.1,1s-0.3,0.8-0.3,1.3c0,0.8,0.2,1.4,0.7,1.8C340.8,386.2,341.4,386.3,342.1,386.3z"/>
		<path d="M357.2,388.3c-0.8,0-1.4-0.1-1.9-0.4c-0.5-0.2-1-0.6-1.3-1s-0.6-0.9-0.7-1.5s-0.2-1.2-0.2-2v-8H351v-1.8l2.3-0.1l0.3-4
			h2.1v4h3.9v2h-3.9v8c0,0.9,0.2,1.6,0.5,2.1s0.9,0.7,1.7,0.7c0.3,0,0.5,0,0.8-0.1s0.6-0.2,0.8-0.3l0.5,1.8
			c-0.4,0.1-0.8,0.3-1.3,0.4C358.1,388.2,357.7,388.3,357.2,388.3z"/>
		<path d="M365.4,388.3c-1.2,0-2.2-0.4-3-1.1s-1.2-1.7-1.2-3c0-1.6,0.7-2.8,2.1-3.6c1.4-0.8,3.7-1.4,6.8-1.8c0-0.5,0-0.9-0.1-1.3
			s-0.2-0.8-0.5-1.2s-0.5-0.6-0.9-0.8c-0.4-0.2-0.9-0.3-1.5-0.3c-0.8,0-1.6,0.2-2.3,0.5c-0.7,0.3-1.4,0.7-2,1.1l-1-1.7
			c0.7-0.4,1.5-0.9,2.5-1.3s2-0.6,3.2-0.6c1.8,0,3,0.5,3.8,1.6s1.2,2.5,1.2,4.3v8.9h-2l-0.2-1.7h-0.1c-0.7,0.6-1.4,1.1-2.2,1.5
			C367.2,388.1,366.3,388.3,365.4,388.3z M366.1,386.3c0.7,0,1.3-0.2,2-0.5c0.6-0.3,1.3-0.8,2-1.4v-4c-1.2,0.2-2.2,0.3-3,0.6
			c-0.8,0.2-1.5,0.5-2,0.8s-0.9,0.6-1.1,1s-0.3,0.8-0.3,1.3c0,0.8,0.2,1.4,0.7,1.8C364.8,386.2,365.4,386.3,366.1,386.3z"/>
	</g>
	<g class="st16">
		<path d="M253.4,424c-1,0-2-0.2-2.9-0.6s-1.7-0.9-2.4-1.4l1.2-1.6c0.6,0.5,1.3,0.9,1.9,1.2c0.7,0.3,1.4,0.5,2.3,0.5
			c1,0,1.7-0.2,2.1-0.7c0.5-0.4,0.7-1,0.7-1.6c0-0.4-0.1-0.7-0.3-1c-0.2-0.3-0.5-0.5-0.8-0.7s-0.7-0.4-1.1-0.5
			c-0.4-0.2-0.8-0.3-1.2-0.5c-0.5-0.2-1-0.4-1.5-0.6s-1-0.5-1.4-0.8s-0.7-0.7-1-1.1s-0.4-1-0.4-1.6s0.1-1.1,0.3-1.6s0.6-0.9,1-1.3
			s0.9-0.7,1.6-0.9c0.6-0.2,1.3-0.3,2.1-0.3c0.9,0,1.8,0.2,2.5,0.5s1.4,0.7,2,1.2L257,412c-0.5-0.4-1-0.7-1.5-0.9
			c-0.5-0.2-1.1-0.4-1.8-0.4c-0.9,0-1.6,0.2-2,0.6s-0.6,0.9-0.6,1.5c0,0.3,0.1,0.6,0.3,0.9c0.2,0.2,0.4,0.5,0.7,0.7s0.6,0.4,1,0.5
			s0.8,0.3,1.2,0.5c0.5,0.2,1,0.4,1.6,0.6c0.5,0.2,1,0.5,1.4,0.8s0.8,0.7,1,1.2c0.3,0.5,0.4,1.1,0.4,1.7s-0.1,1.2-0.3,1.7
			s-0.6,1-1,1.4s-1,0.7-1.7,0.9C255,423.9,254.2,424,253.4,424z"/>
		<path d="M263.3,406.2c-0.5,0-0.9-0.1-1.2-0.4c-0.3-0.3-0.5-0.7-0.5-1.1c0-0.5,0.2-0.9,0.5-1.1c0.3-0.3,0.7-0.4,1.2-0.4
			s0.9,0.1,1.2,0.4c0.3,0.3,0.5,0.7,0.5,1.1c0,0.5-0.2,0.8-0.5,1.1C264.2,406.1,263.8,406.2,263.3,406.2z M262,423.6v-14.5h2.4v14.5
			H262z"/>
		<path d="M269.4,423.6v-14.5h2l0.2,2.1h0.1c0.7-0.7,1.4-1.3,2.2-1.7c0.8-0.5,1.7-0.7,2.7-0.7c1.5,0,2.6,0.5,3.3,1.4
			c0.7,1,1.1,2.4,1.1,4.2v9.2h-2.4v-8.8c0-1.4-0.2-2.4-0.7-3s-1.1-0.9-2.1-0.9c-0.8,0-1.4,0.2-2,0.6s-1.2,0.9-2,1.7v10.5h-2.4
			L269.4,423.6L269.4,423.6z"/>
		<path d="M291.3,424c-1,0-1.8-0.2-2.7-0.5c-0.8-0.3-1.6-0.8-2.2-1.5c-0.6-0.6-1.1-1.4-1.4-2.4c-0.3-0.9-0.5-2-0.5-3.2
			s0.2-2.3,0.6-3.2s0.9-1.7,1.5-2.4c0.6-0.7,1.4-1.1,2.2-1.5c0.8-0.3,1.7-0.5,2.7-0.5s1.8,0.2,2.4,0.5c0.7,0.3,1.3,0.7,1.8,1.2
			l-1.2,1.6c-0.4-0.4-0.9-0.7-1.3-0.9c-0.5-0.2-1-0.4-1.6-0.4c-0.7,0-1.3,0.1-1.8,0.4c-0.6,0.3-1,0.6-1.4,1.1s-0.7,1.1-0.9,1.8
			c-0.2,0.7-0.3,1.4-0.3,2.3c0,0.8,0.1,1.6,0.3,2.3c0.2,0.7,0.5,1.3,0.9,1.7c0.4,0.5,0.9,0.9,1.4,1.1c0.6,0.3,1.2,0.4,1.8,0.4
			c0.7,0,1.3-0.1,1.9-0.4s1.1-0.6,1.5-1l1.1,1.6c-0.7,0.6-1.4,1-2.2,1.4C293.1,423.8,292.2,424,291.3,424z"/>
		<path d="M304.4,424c-1,0-1.9-0.2-2.7-0.5c-0.8-0.3-1.6-0.8-2.2-1.5s-1.1-1.4-1.5-2.4c-0.4-0.9-0.5-2-0.5-3.2s0.2-2.3,0.6-3.2
			c0.4-0.9,0.9-1.7,1.5-2.4c0.6-0.7,1.3-1.2,2.1-1.5c0.8-0.3,1.6-0.5,2.4-0.5c0.9,0,1.7,0.2,2.5,0.5c0.7,0.3,1.3,0.8,1.8,1.4
			s0.9,1.3,1.1,2.1c0.3,0.8,0.4,1.8,0.4,2.8c0,0.3,0,0.5,0,0.8c0,0.2,0,0.5-0.1,0.6H300c0.1,1.5,0.6,2.8,1.4,3.7
			c0.9,0.9,2,1.4,3.4,1.4c0.7,0,1.3-0.1,1.9-0.3c0.6-0.2,1.1-0.5,1.7-0.8l0.9,1.6c-0.6,0.4-1.3,0.7-2.1,1
			C306.3,423.9,305.4,424,304.4,424z M299.9,415.3h7.7c0-1.5-0.3-2.6-0.9-3.3s-1.5-1.1-2.6-1.1c-0.5,0-1,0.1-1.5,0.3
			c-0.5,0.2-0.9,0.5-1.3,0.9s-0.7,0.9-0.9,1.4C300.1,413.9,300,414.5,299.9,415.3z"/>
		<path d="M318,423.6v-1.5c1.4-1.4,2.7-2.7,3.8-3.9c1.1-1.1,2-2.2,2.8-3.2s1.3-1.9,1.7-2.7c0.4-0.8,0.6-1.6,0.6-2.4
			c0-1.1-0.3-2-0.9-2.7s-1.5-1-2.7-1c-0.8,0-1.5,0.2-2.2,0.7c-0.7,0.4-1.3,1-1.8,1.6l-1.4-1.4c0.8-0.9,1.6-1.6,2.5-2.1
			s2-0.8,3.2-0.8c1.8,0,3.2,0.5,4.2,1.5s1.5,2.4,1.5,4.1c0,0.9-0.2,1.8-0.6,2.7c-0.4,0.9-0.9,1.8-1.6,2.8s-1.5,2-2.4,3
			s-2,2.1-3.1,3.3c0.5,0,1.1-0.1,1.6-0.1c0.6,0,1.1-0.1,1.6-0.1h5.5v2.1H318V423.6z"/>
		<path d="M339,424c-1.9,0-3.4-0.9-4.5-2.6s-1.6-4.2-1.6-7.3c0-3.2,0.5-5.6,1.6-7.3c1.1-1.7,2.6-2.5,4.5-2.5s3.4,0.8,4.5,2.5
			s1.6,4.1,1.6,7.3c0,3.2-0.5,5.6-1.6,7.3C342.4,423.2,340.9,424,339,424z M339,422c0.6,0,1.1-0.2,1.5-0.5s0.8-0.8,1.2-1.4
			c0.3-0.6,0.6-1.5,0.8-2.5c0.2-1,0.3-2.2,0.3-3.6s-0.1-2.6-0.3-3.6c-0.2-1-0.4-1.8-0.8-2.4c-0.3-0.6-0.7-1.1-1.2-1.4
			c-0.4-0.3-0.9-0.4-1.5-0.4s-1.1,0.1-1.5,0.4c-0.5,0.3-0.8,0.8-1.2,1.4c-0.3,0.6-0.6,1.4-0.8,2.4c-0.2,1-0.3,2.2-0.3,3.6
			c0,2.8,0.3,4.8,1,6.1C337,421.4,337.9,422,339,422z"/>
		<path d="M348.7,423.6v-2h4.3v-14h-3.5V406c0.9-0.2,1.6-0.4,2.3-0.6c0.6-0.2,1.2-0.5,1.7-0.8h1.9v17h3.9v2H348.7z"/>
		<path d="M368.6,424c-1.9,0-3.4-0.9-4.5-2.6s-1.6-4.2-1.6-7.3c0-3.2,0.5-5.6,1.6-7.3c1.1-1.7,2.6-2.5,4.5-2.5s3.4,0.8,4.5,2.5
			s1.6,4.1,1.6,7.3c0,3.2-0.5,5.6-1.6,7.3C372,423.2,370.5,424,368.6,424z M368.6,422c0.6,0,1.1-0.2,1.5-0.5s0.8-0.8,1.2-1.4
			c0.3-0.6,0.6-1.5,0.8-2.5c0.2-1,0.3-2.2,0.3-3.6s-0.1-2.6-0.3-3.6c-0.2-1-0.4-1.8-0.8-2.4c-0.3-0.6-0.7-1.1-1.2-1.4
			c-0.4-0.3-0.9-0.4-1.5-0.4s-1.1,0.1-1.5,0.4c-0.5,0.3-0.8,0.8-1.2,1.4c-0.3,0.6-0.6,1.4-0.8,2.4c-0.2,1-0.3,2.2-0.3,3.6
			c0,2.8,0.3,4.8,1,6.1C366.6,421.4,367.5,422,368.6,422z"/>
	</g>
</g>
<g transform="translate(0, 0)">
	<path class="st17" d="M259.5,342.3c-9.1,0-18-3.4-24.7-9.6c-2.6-2.9-2.4-7.4,0.5-10.1c2.5-2.3,6.3-2.4,9-0.4
		c4.1,3.8,9.5,5.9,15,5.9c12.7,0,23-10.9,23-24.3v-35.7c0-3.9,3.2-7.1,7.1-7.1s7.1,3.2,7.1,7.1v35.7
		C296.6,325,280,342.3,259.5,342.3z"/>
	<path class="st17" d="M289.4,275.2c-3.9,0-7.1-3.2-7.1-7.1c-0.7-11.6-10.7-20.5-22.3-19.8c-10.7,0.6-19.2,9.2-19.8,19.9
		c0,3.9-3.2,7.1-7.1,7.1c-3.9,0-7.1-3.2-7.1-7.1c0-19.5,15.8-35.3,35.3-35.3c19.5,0,35.3,15.8,35.3,35.3
		C296.5,272,293.3,275.2,289.4,275.2z"/>
	<path class="st18" d="M261.2,303.4c-19.5,0-35.3-15.8-35.3-35.3c0-3.9,3.2-7.1,7.1-7.1c3.9,0,7.1,3.2,7.1,7.1
		c0,11.7,9.4,21.1,21.1,21.1c11.7,0,21.1-9.4,21.1-21.1c0-3.9,3.2-7.1,7.1-7.1s7.1,3.2,7.1,7.1C296.6,287.6,280.8,303.4,261.2,303.4
		C261.2,303.4,261.2,303.4,261.2,303.4z"/>
</g>
<g transform="translate(264, 0)">
	<path class="st17" d="M49.4,274.8c-3.9,0-7.1-3.2-7.1-7.1c0-9.5,4.1-18.6,11.1-25c7.2-6.5,16.5-10,26.2-9.9l0,0
		c11.8-0.1,23,5.3,30.3,14.5c2.1,3.3,1.1,7.7-2.2,9.8c-2.9,1.8-6.7,1.3-9.1-1.2c-4.6-5.7-11.6-9-19-8.9l0,0
		c-6.1-0.1-12,2.2-16.5,6.3c-4.1,3.7-6.4,8.9-6.5,14.4C56.5,271.6,53.3,274.8,49.4,274.8z"/>
	<path class="st18" d="M49.4,314.5L49.4,314.5c-3.9,0-7.1-3.2-7.1-7.1v-39c0-3.9,3.2-7.1,7.1-7.1l0,0c3.9,0,7.1,3.2,7.1,7.1v39
		C56.5,311.3,53.3,314.5,49.4,314.5z"/>
	<path class="st17" d="M79.2,342.3c-11.8,0-22.9-5.6-29.9-15.2c-4.6-6.2-7-13.8-7-21.5c0.1-20.3,16.6-36.7,36.9-36.7
		c3.9,0,7.1,3.2,7.1,7.1s-3.2,7.1-7.1,7.1c-12.4,0-22.5,10-22.6,22.5c0,4.7,1.5,9.4,4.3,13.2c4.3,5.9,11.1,9.3,18.4,9.3
		c3.9,0,7.1,3.2,7.1,7.1C86.3,339.2,83.2,342.4,79.2,342.3L79.2,342.3z"/>
	<path class="st18" d="M79.2,342.3c-3.9,0-7.1-3.2-7.1-7.1s3.2-7.1,7.1-7.1c12.6,0.1,23-9.9,23.2-22.5
		c-0.2-12.6-10.6-22.7-23.2-22.5c-3.9,0-7.1-3.2-7.1-7.1c0-3.9,3.2-7.1,7.1-7.1c20.5-0.2,37.2,16.3,37.4,36.7
		C116.4,326,99.7,342.5,79.2,342.3C79.2,342.3,79.2,342.3,79.2,342.3z"/>
</g>
</svg>
