<svg width="931" height="232" viewBox="0 0 931 232" fill="none" xmlns="http://www.w3.org/2000/svg">
<g opacity="0.08">
<path d="M144.171 34.2888H28.9056C19.4489 34.2888 11.9548 26.6096 11.9548 17.323C11.9548 8.03645 19.6273 0.357178 28.9056 0.357178H144.171C153.628 0.357178 161.122 8.03645 161.122 17.323C161.122 26.6096 153.628 34.2888 144.171 34.2888Z" fill="#5CB9BB"/>
<path d="M140.067 85.7221C130.789 85.7221 123.295 78.4 123.116 69.1134C122.938 59.6483 130.254 51.7904 139.71 51.6118H140.602C150.059 51.4333 157.91 58.7554 158.089 68.2205C158.267 77.6856 150.951 85.5435 141.495 85.7221H140.602C140.246 85.7221 140.067 85.7221 140.067 85.7221Z" fill="#C2C2C2"/>
<path d="M187.173 25.8952C182.534 25.8952 178.786 22.1448 178.608 17.5015C178.43 12.8582 182.177 8.92932 186.994 8.75073H187.886H188.065C192.704 8.75073 196.451 12.5011 196.629 17.1444C196.808 21.7876 193.061 25.7166 188.243 25.8952H187.351H187.173Z" fill="#C2C2C2"/>
<path d="M198.771 136.62H97.7794C88.3227 136.62 80.8286 128.94 80.8286 119.654C80.8286 110.367 88.5011 102.688 97.7794 102.688H198.771C208.227 102.688 215.721 110.367 215.721 119.654C215.721 128.94 208.227 136.62 198.771 136.62Z" fill="#C5D800"/>
<path d="M233.386 34.1102C223.929 34.1102 216.435 26.431 216.435 17.1444C216.435 7.67927 224.108 0.178589 233.386 0.178589C242.664 0.178589 250.337 7.85786 250.337 17.1444C250.337 26.431 242.664 34.1102 233.386 34.1102Z" fill="#5CB9BB"/>
<path d="M487.113 85.5435H200.376C190.92 85.5435 183.426 77.8642 183.426 68.3991C183.426 58.9339 191.098 51.4332 200.376 51.4332H487.113C496.569 51.4332 504.063 59.1125 504.063 68.5776C504.242 77.8642 496.569 85.5435 487.113 85.5435Z" fill="#C5D800"/>
<path d="M112.946 179.302C110.805 179.302 108.664 178.409 106.879 176.802C103.489 173.409 103.489 168.051 106.879 164.658L107.415 164.122C110.805 160.729 116.158 160.729 119.548 164.122C122.938 167.515 122.938 172.873 119.548 176.266L119.012 176.802C117.228 178.409 115.087 179.302 112.946 179.302ZM92.9618 76.7928C92.4265 76.7928 91.8912 76.7928 91.3559 76.6142C86.7167 75.7212 83.6834 71.2566 84.5756 66.7919V66.2561C85.4677 61.6128 89.9285 58.5768 94.3892 59.4698C99.0284 60.3627 102.062 64.8274 101.17 69.2921V69.8278C100.634 73.9354 97.0656 76.7928 92.9618 76.7928Z" fill="#C5D800"/>
<path d="M204.302 186.446H148.989C139.532 186.446 132.038 178.766 132.038 169.48C132.038 160.193 139.71 152.514 148.989 152.514H204.302C213.759 152.514 221.253 160.193 221.253 169.48C221.253 178.766 213.58 186.446 204.302 186.446Z" fill="#5CB9BB"/>
<path d="M456.423 186.446H279.777C270.321 186.446 262.827 178.766 262.827 169.48C262.827 160.193 270.499 152.514 279.777 152.514H456.423C465.879 152.514 473.373 160.193 473.373 169.48C473.373 178.766 465.879 186.446 456.423 186.446Z" fill="#5CB9BB"/>
<path d="M318.854 34.2888H292.268C282.811 34.2888 275.317 26.6096 275.317 17.323C275.317 8.03645 282.989 0.357178 292.268 0.357178H318.854C328.31 0.357178 335.804 8.03645 335.804 17.323C335.804 26.6096 328.132 34.2888 318.854 34.2888Z" fill="#C5D800"/>
<path d="M244.627 136.441C235.17 136.441 227.676 128.762 227.676 119.475C227.676 110.01 235.349 102.509 244.627 102.509C253.905 102.509 261.578 110.189 261.578 119.475C261.578 128.762 254.084 136.441 244.627 136.441Z" fill="#5CB9BB"/>
<path d="M36.0428 136.441C36.0428 136.441 35.8644 136.441 36.0428 136.441H17.1293C7.67251 136.441 0.178467 128.762 0.178467 119.297C0.178467 109.832 7.85094 102.331 17.1293 102.331H36.0428C45.4996 102.331 52.9936 110.01 52.9936 119.475C52.9936 128.94 45.3211 136.441 36.0428 136.441Z" fill="#5CB9BB"/>
<path d="M537.786 34.2888H385.051C375.594 34.2888 368.1 26.6096 368.1 17.323C368.1 8.03645 375.772 0.357178 385.051 0.357178H537.786C547.243 0.357178 554.737 8.03645 554.737 17.323C554.737 26.6096 547.243 34.2888 537.786 34.2888Z" fill="#5CB9BB"/>
<path d="M533.504 85.7221C524.226 85.7221 516.732 78.4 516.553 69.1134C516.375 59.6483 523.691 51.7904 533.147 51.6118H534.039C543.496 51.4333 551.347 58.7554 551.526 68.2205C551.704 77.6856 544.388 85.5435 534.932 85.7221H534.039C533.861 85.7221 533.683 85.7221 533.504 85.7221Z" fill="#C2C2C2"/>
<path d="M580.788 25.8952C576.149 25.8952 572.402 22.1448 572.223 17.5015C572.045 12.8582 575.792 8.92932 580.61 8.75073H581.502H581.68C586.319 8.75073 590.066 12.5011 590.245 17.1444C590.423 21.7876 586.676 25.7166 581.859 25.8952H580.966C580.788 25.8952 580.788 25.8952 580.788 25.8952Z" fill="#C2C2C2"/>
<path d="M592.386 136.62H491.395C481.938 136.62 474.444 128.94 474.444 119.654C474.444 110.367 482.116 102.688 491.395 102.688H592.386C601.843 102.688 609.337 110.367 609.337 119.654C609.337 128.94 601.664 136.62 592.386 136.62Z" fill="#C5D800"/>
<path d="M626.823 34.1102C617.366 34.1102 609.872 26.431 609.872 17.1444C609.872 7.67927 617.544 0.178589 626.823 0.178589C636.101 0.178589 643.774 7.85786 643.774 17.1444C643.774 26.431 636.28 34.1102 626.823 34.1102Z" fill="#5CB9BB"/>
<path d="M880.728 85.5435H593.992C584.535 85.5435 577.041 77.8642 577.041 68.3991C577.041 58.9339 584.713 51.4332 593.992 51.4332H880.728C890.185 51.4332 897.679 59.1125 897.679 68.5776C897.857 77.8642 890.185 85.5435 880.728 85.5435Z" fill="#C5D800"/>
<path d="M506.383 179.302C504.242 179.302 502.101 178.409 500.316 176.802C496.926 173.409 496.926 168.051 500.316 164.658L500.852 164.122C504.242 160.729 509.595 160.729 512.985 164.122C516.375 167.515 516.375 172.873 512.985 176.266L512.45 176.802C510.844 178.409 508.702 179.302 506.383 179.302Z" fill="#C5D800"/>
<path d="M597.739 186.446H542.426C532.969 186.446 525.475 178.766 525.475 169.48C525.475 160.193 533.147 152.514 542.426 152.514H597.739C607.196 152.514 614.69 160.193 614.69 169.48C614.69 178.766 607.196 186.446 597.739 186.446Z" fill="#C5D800"/>
<path d="M850.038 186.446H673.393C663.936 186.446 656.442 178.766 656.442 169.48C656.442 160.193 664.115 152.514 673.393 152.514H850.038C859.495 152.514 866.989 160.193 866.989 169.48C866.989 178.766 859.495 186.446 850.038 186.446Z" fill="#5CB9BB"/>
<path d="M712.291 34.2888H685.705C676.248 34.2888 668.754 26.6096 668.754 17.323C668.754 8.03645 676.426 0.357178 685.705 0.357178H712.291C721.747 0.357178 729.241 8.03645 729.241 17.323C729.241 26.6096 721.747 34.2888 712.291 34.2888Z" fill="#5CB9BB"/>
<path d="M638.242 136.441C628.786 136.441 621.292 128.762 621.292 119.475C621.292 110.01 628.964 102.509 638.242 102.509C647.521 102.509 655.193 110.189 655.193 119.475C655.193 128.762 647.699 136.441 638.242 136.441Z" fill="#5CB9BB"/>
<path d="M429.48 136.441H303.509C294.052 136.441 286.558 128.762 286.558 119.297C286.558 109.832 294.23 102.331 303.509 102.331H429.48C438.937 102.331 446.431 110.01 446.431 119.475C446.609 128.94 438.937 136.441 429.48 136.441Z" fill="#C5D800"/>
<path d="M144.171 239.665H28.9056C19.4489 239.665 11.9548 231.985 11.9548 222.699C11.9548 213.234 19.6273 205.733 28.9056 205.733H144.171C153.628 205.733 161.122 213.412 161.122 222.699C161.3 232.164 153.628 239.665 144.171 239.665Z" fill="#5CB9BB"/>
<path d="M187.173 231.271C182.534 231.271 178.786 227.521 178.608 222.878C178.43 218.234 182.177 214.305 186.994 214.127H187.886H188.065C192.704 214.127 196.451 217.877 196.629 222.52C196.808 227.164 193.061 231.093 188.243 231.271H187.351H187.173Z" fill="#C2C2C2"/>
<path d="M233.386 239.486C223.929 239.486 216.435 231.807 216.435 222.52C216.435 213.055 224.108 205.554 233.386 205.554C242.664 205.554 250.337 213.234 250.337 222.52C250.337 231.985 242.664 239.486 233.386 239.486Z" fill="#5CB9BB"/>
<path d="M318.854 239.665H292.268C282.811 239.665 275.317 231.985 275.317 222.699C275.317 213.234 282.989 205.733 292.268 205.733H318.854C328.31 205.733 335.804 213.412 335.804 222.699C335.804 232.164 328.132 239.665 318.854 239.665Z" fill="#C2C2C2"/>
<path d="M537.786 239.665H385.051C375.594 239.665 368.1 231.985 368.1 222.699C368.1 213.234 375.772 205.733 385.051 205.733H537.786C547.243 205.733 554.737 213.412 554.737 222.699C554.737 232.164 547.243 239.665 537.786 239.665Z" fill="#5CB9BB"/>
<path d="M580.788 231.271C576.149 231.271 572.402 227.521 572.223 222.878C572.045 218.234 575.792 214.305 580.61 214.127H581.502H581.68C586.319 214.127 590.066 217.877 590.245 222.52C590.423 227.164 586.676 231.093 581.859 231.271H580.966C580.788 231.271 580.788 231.271 580.788 231.271Z" fill="#C2C2C2"/>
<path d="M626.823 239.486C617.366 239.486 609.872 231.807 609.872 222.52C609.872 213.055 617.544 205.554 626.823 205.554C636.101 205.554 643.774 213.234 643.774 222.52C643.952 231.985 636.28 239.486 626.823 239.486Z" fill="#5CB9BB"/>
<path d="M712.291 239.665H685.705C676.248 239.665 668.754 231.985 668.754 222.699C668.754 213.234 676.426 205.733 685.705 205.733H712.291C721.747 205.733 729.241 213.412 729.241 222.699C729.42 232.164 721.747 239.665 712.291 239.665Z" fill="#C2C2C2"/>
<path d="M880.014 136.62H779.023C769.566 136.62 762.072 128.94 762.072 119.654C762.072 110.367 769.745 102.688 779.023 102.688H880.014C889.471 102.688 896.965 110.367 896.965 119.654C896.965 128.94 889.471 136.62 880.014 136.62Z" fill="#C5D800"/>
<path d="M925.871 136.441C916.414 136.441 908.92 128.762 908.92 119.475C908.92 110.01 916.592 102.509 925.871 102.509C935.149 102.509 942.822 110.189 942.822 119.475C942.822 128.762 935.328 136.441 925.871 136.441Z" fill="#5CB9BB"/>
<path d="M717.287 136.441C717.287 136.441 717.108 136.441 717.287 136.441H698.373C688.916 136.441 681.422 128.762 681.422 119.297C681.422 109.831 689.095 102.331 698.373 102.331H717.287C726.744 102.331 734.238 110.01 734.238 119.475C734.238 128.94 726.565 136.441 717.287 136.441Z" fill="#5CB9BB"/>
<path d="M862.171 239.665H761.18C751.724 239.665 744.229 231.985 744.229 222.699C744.229 213.234 751.902 205.733 761.18 205.733H862.171C871.628 205.733 879.122 213.412 879.122 222.699C879.301 231.985 871.628 239.665 862.171 239.665Z" fill="#C5D800"/>
<path d="M908.206 239.486C898.749 239.486 891.255 231.807 891.255 222.52C891.255 213.055 898.928 205.554 908.206 205.554C917.663 205.554 925.157 213.234 925.157 222.52C925.157 231.807 917.485 239.486 908.206 239.486Z" fill="#5CB9BB"/>
</g>
</svg>
