<svg viewBox="0 0 959 593" class="_2-Y2E7Epn3">
   <defs></defs>
   <g class="svg__path__seleccion" cursor="pointer" pointer-events="all">
      <g class="svg__path__seleccion__background">
            <path class="base"
               d="M93.6,6.4,98,7.9l9.7,2.7,8.6,1.9,20,5.7,23,5.7,15.2,3.4-1,3.9L169.4,45l-4.5,20.8-3.2,16.1-.4,9.4-13.2-3.9L132.5,84l-13.7.6-1.6-1.5L111.9,85l-4-.3-2.7-1.8-1.6.5-4.2-.2-1.9-1.4-4.8-1.7-1.4-.2-5-1.3-1.8,1.5-5.7-.3L74,76l.2-.8.1-7.9-2.1-3.9-4.1-.7-.4-2.4-2.5-.6-2.9-.5-1.8,1-2.3-2.9.3-2.9,2.7-.3,1.6-4L60.2,49l.2-3.7,4.4-.6L62.1,42l-1.5-7.1.6-2.9V24.1l-1.8-3.2,2.3-9.4,2.1.5,2.4,2.9,2.7,2.6,3.2,1.9,4.5,2.1,3.1.6,2.9,1.5,3.4,1,2.3-.2V22l1.3-1.1,2.1-1.3.3,1.1.3,1.8L90,23l-.3,2.1,1.8,1.5L92.6,29l.6,1.9,1.5-.2.2-1.3-1-1.3-.5-3.2.8-1.8-.6-1.5V19l1.8-3.6-1.1-2.6L91.9,8l.3-.8Zm-9.5,5.9,2-.2.5,1.4,1.5-1.6h2.3l.8,1.5-1.5,1.7.6.8-.7,2-1.4.4s-.9.1-.9-.2a21.64,21.64,0,0,1,1.5-2.6l-1.7-.6-.3,1.5-.7.6-1.5-2.3Z"
               data-name="Washington" data-abbreviation="WA"
               style="stroke-opacity: 0.3; fill: rgb(195, 229, 230);"
               data-svg-origin="58.19999694824219 6.400000095367432"
               transform="matrix(1,0,0,1,0,0)"></path>

            <path class="show"
               d="M93.6,6.4,98,7.9l9.7,2.7,8.6,1.9,20,5.7,23,5.7,15.2,3.4-1,3.9L169.4,45l-4.5,20.8-3.2,16.1-.4,9.4-13.2-3.9L132.5,84l-13.7.6-1.6-1.5L111.9,85l-4-.3-2.7-1.8-1.6.5-4.2-.2-1.9-1.4-4.8-1.7-1.4-.2-5-1.3-1.8,1.5-5.7-.3L74,76l.2-.8.1-7.9-2.1-3.9-4.1-.7-.4-2.4-2.5-.6-2.9-.5-1.8,1-2.3-2.9.3-2.9,2.7-.3,1.6-4L60.2,49l.2-3.7,4.4-.6L62.1,42l-1.5-7.1.6-2.9V24.1l-1.8-3.2,2.3-9.4,2.1.5,2.4,2.9,2.7,2.6,3.2,1.9,4.5,2.1,3.1.6,2.9,1.5,3.4,1,2.3-.2V22l1.3-1.1,2.1-1.3.3,1.1.3,1.8L90,23l-.3,2.1,1.8,1.5L92.6,29l.6,1.9,1.5-.2.2-1.3-1-1.3-.5-3.2.8-1.8-.6-1.5V19l1.8-3.6-1.1-2.6L91.9,8l.3-.8Zm-9.5,5.9,2-.2.5,1.4,1.5-1.6h2.3l.8,1.5-1.5,1.7.6.8-.7,2-1.4.4s-.9.1-.9-.2a21.64,21.64,0,0,1,1.5-2.6l-1.7-.6-.3,1.5-.7.6-1.5-2.3Z"
               data-name="Washington" data-abbreviation="WA"
               style="stroke-opacity: 0.3; fill: rgb(235, 243, 243);"
               data-svg-origin="58.19999694824219 6.400000095367432"
               transform="matrix(1,0,0,1,0,0)"></path>
      </g>
   </g>
   <g class="svg__path__seleccion" cursor="pointer" pointer-events="all">
      <g class="svg__path__seleccion__background">
            <path class="base"
               d="M140.3,176.7l4.3-17.9,4.7-17.9,1.1-4.2,2.4-5.6-.6-1.2h-2.5l-1.3-1.7.5-1.5.5-3.2,4.5-5.5,1.8-1.1,1.1-1.1,1.5-3.6,4-5.7,3.6-3.9.2-3.5-3.3-2.5-1.2-4.5-13.2-3.7-15.1-3.5-15.4.1-.5-1.4-5.5,2.1-4.5-.6L105,83.5l-1.3.7L99,84l-1.7-1.4L92,80.5l-.8.1-4.3-1.5L85,80.9l-6.2-.3-5.9-4.1.7-.8.2-7.8L71.5,64l-4.1-.6-.7-2.5-2.4-.5-5.8,2.1L56.2,69,53,79l-3.2,6.5-5,14.1-6.5,13.6-8.1,12.6-1.9,2.9-.8,8.6-1.3,6,2.7,3.5,6.7,2.3,11.6,3.3,7.9,2.5,12.4,3.6,13.3,3.6L94,165.7"
               data-name="Oregon" data-abbreviation="OR"
               style="stroke-opacity: 0.3; fill: rgb(195, 229, 230);"
               data-svg-origin="26.200000762939453 60.400001525878906"
               transform="matrix(1,0,0,1,0,0)"></path>

            <path class="show"
               d="M140.3,176.7l4.3-17.9,4.7-17.9,1.1-4.2,2.4-5.6-.6-1.2h-2.5l-1.3-1.7.5-1.5.5-3.2,4.5-5.5,1.8-1.1,1.1-1.1,1.5-3.6,4-5.7,3.6-3.9.2-3.5-3.3-2.5-1.2-4.5-13.2-3.7-15.1-3.5-15.4.1-.5-1.4-5.5,2.1-4.5-.6L105,83.5l-1.3.7L99,84l-1.7-1.4L92,80.5l-.8.1-4.3-1.5L85,80.9l-6.2-.3-5.9-4.1.7-.8.2-7.8L71.5,64l-4.1-.6-.7-2.5-2.4-.5-5.8,2.1L56.2,69,53,79l-3.2,6.5-5,14.1-6.5,13.6-8.1,12.6-1.9,2.9-.8,8.6-1.3,6,2.7,3.5,6.7,2.3,11.6,3.3,7.9,2.5,12.4,3.6,13.3,3.6L94,165.7"
               data-name="Oregon" data-abbreviation="OR"
               style="stroke-opacity: 0.3; fill: rgb(235, 243, 243);"
               data-svg-origin="26.200000762939453 60.400001525878906"
               transform="matrix(1,0,0,1,0,0)"></path>
      </g>
   </g>
   <g class="svg__path__seleccion" cursor="pointer" pointer-events="all">
      <g class="svg__path__seleccion__background">
            <path class="base"
               d="M356.7,122.3l.6-11.2,2.3-24.8c.5-5,1.1-8.5,1.4-15.4l.9-14.6-30.7-2.8L302,50l-29.3-4-32.3-5.3L222,37.3l-32.7-6.9-4.5,21.3,3.4,7.5-1.4,4.6,1.8,4.6,3.2,1.4,4.6,10.8,2.7,3.2.5,1.1L203,86l.5,2.1-7.1,17.6v2.5l2.5,3.2h.9l4.8-3,.7-1.1,1.6.7-.2,5.3,2.7,12.6,3,2.5.9.7,1.8,2.3-.5,3.4.7,3.4,1.1.9,2.3-2.3h2.7l3.2,1.6,2.5-.9h4.1l3.7,1.6,2.7-.5.5-3,3-.7,1.4,1.4.5,3.2,1.8,1.4,1.5-11.6,20.7,3,28.2,4,16.6,1.9,31.4,3.5,11,1.5,1.1-15.4,1.4-5.5Z"
               data-name="Montana" data-abbreviation="MT"
               style="stroke-opacity: 0.3; fill: rgb(195, 229, 230);"
               data-svg-origin="184.8000030517578 30.399999618530273"
               transform="matrix(1,0,0,1,0,0)"></path>

            <path class="show"
               d="M356.7,122.3l.6-11.2,2.3-24.8c.5-5,1.1-8.5,1.4-15.4l.9-14.6-30.7-2.8L302,50l-29.3-4-32.3-5.3L222,37.3l-32.7-6.9-4.5,21.3,3.4,7.5-1.4,4.6,1.8,4.6,3.2,1.4,4.6,10.8,2.7,3.2.5,1.1L203,86l.5,2.1-7.1,17.6v2.5l2.5,3.2h.9l4.8-3,.7-1.1,1.6.7-.2,5.3,2.7,12.6,3,2.5.9.7,1.8,2.3-.5,3.4.7,3.4,1.1.9,2.3-2.3h2.7l3.2,1.6,2.5-.9h4.1l3.7,1.6,2.7-.5.5-3,3-.7,1.4,1.4.5,3.2,1.8,1.4,1.5-11.6,20.7,3,28.2,4,16.6,1.9,31.4,3.5,11,1.5,1.1-15.4,1.4-5.5Z"
               data-name="Montana" data-abbreviation="MT"
               style="stroke-opacity: 0.3; fill: rgb(235, 243, 243);"
               data-svg-origin="184.8000030517578 30.399999618530273"
               transform="matrix(1,0,0,1,0,0)"></path>
      </g>
   </g>
   <g class="svg__path__seleccion" cursor="pointer" pointer-events="all">
      <g class="svg__path__seleccion__background">
            <path class="base"
               d="M162.1,181c-22.6-4.3-14.1-2.8-21.1-4.4l4.4-17.5,4.3-17.7,1.4-4.2,2.5-5.9-1.3-2.3-2.5.1-.8-1,.5-1.1.3-3.1,4.5-5.5,1.8-.5,1.1-1.1.6-3.2.9-.7,3.9-5.8,3.9-4.3.2-3.8-3.4-2.6L162,92l.4-9.7,3.7-16.5L170.6,45l3.8-13.5.8-3.8,13,2.5L184,51.7l2.9,7.7L185.8,64l2,4.6,3.2,1.7,4.5,9.8,2.7,3.8.6,1.1,3.4,1.1.5,2.5-6.9,16.8.3,3.3,2.7,2.9,1.9.5,4.8-3.6.4-.5.2.8.3,4.1,2.6,12.9,3.5,2.7.4.8,2.1,2.4-.8,2.8.7,3.8,1.9.9,2.1-1.6,2.6-.5,3.4,1.6,2.5-.6,3.8-.2,4,1.6,2.7-.3.9-2.3,2.5-1.6.7,1.7.6,2.2,2.3,2.5-3.8,24-5.1,29-4.2-.3-8.2-1.5-9.8-1.8-12.2-2.4-12.5-2.5-8.5-1.8-9.3-1.7-9.2-1.7Z"
               data-name="Idaho" data-abbreviation="ID"
               style="stroke-opacity: 0.3; fill: rgb(195, 229, 230);"
               data-svg-origin="141 27.700000762939453" transform="matrix(1,0,0,1,0,0)">
            </path>

            <path class="show"
               d="M162.1,181c-22.6-4.3-14.1-2.8-21.1-4.4l4.4-17.5,4.3-17.7,1.4-4.2,2.5-5.9-1.3-2.3-2.5.1-.8-1,.5-1.1.3-3.1,4.5-5.5,1.8-.5,1.1-1.1.6-3.2.9-.7,3.9-5.8,3.9-4.3.2-3.8-3.4-2.6L162,92l.4-9.7,3.7-16.5L170.6,45l3.8-13.5.8-3.8,13,2.5L184,51.7l2.9,7.7L185.8,64l2,4.6,3.2,1.7,4.5,9.8,2.7,3.8.6,1.1,3.4,1.1.5,2.5-6.9,16.8.3,3.3,2.7,2.9,1.9.5,4.8-3.6.4-.5.2.8.3,4.1,2.6,12.9,3.5,2.7.4.8,2.1,2.4-.8,2.8.7,3.8,1.9.9,2.1-1.6,2.6-.5,3.4,1.6,2.5-.6,3.8-.2,4,1.6,2.7-.3.9-2.3,2.5-1.6.7,1.7.6,2.2,2.3,2.5-3.8,24-5.1,29-4.2-.3-8.2-1.5-9.8-1.8-12.2-2.4-12.5-2.5-8.5-1.8-9.3-1.7-9.2-1.7Z"
               data-name="Idaho" data-abbreviation="ID"
               style="stroke-opacity: 0.3; fill: rgb(235, 243, 243);"
               data-svg-origin="141 27.700000762939453" transform="matrix(1,0,0,1,0,0)">
            </path>
      </g>
   </g>
   <g class="svg__path__seleccion" cursor="pointer" pointer-events="all">
      <g class="svg__path__seleccion__background">
            <path class="base"
               d="M354.3,143.8l-10.5-.8-32.1-3.3-16.2-2.1-28.3-4.1-19.9-3-1.4,11.2L242.1,166l-5.3,30.4-1.5,10.5-1.7,11.9,6.5.9,25.9,2.5,20.6,2.3,36.8,4.1,23.8,2.9,4.5-44.2,1.4-25.4,1.2-18.1Z"
               data-name="Wyoming" data-abbreviation="WY"
               style="stroke-opacity: 0; fill: rgb(195, 229, 230);">
            </path>

            <path class="show"
               d="M354.3,143.8l-10.5-.8-32.1-3.3-16.2-2.1-28.3-4.1-19.9-3-1.4,11.2L242.1,166l-5.3,30.4-1.5,10.5-1.7,11.9,6.5.9,25.9,2.5,20.6,2.3,36.8,4.1,23.8,2.9,4.5-44.2,1.4-25.4,1.2-18.1Z"
               data-name="Wyoming" data-abbreviation="WY"
               style="stroke-opacity: 0; fill: rgb(235, 243, 243);">
            </path>
      </g>
   </g>
   <g class="svg__path__seleccion" cursor="pointer" pointer-events="all">
      <g class="svg__path__seleccion__background">
            <path class="base"
               d="M471.3,127.7l-.4-7.5-2-7.3-1.8-13.6-.5-9.8-2-3.1L463,81V70.7l.7-3.9-2.1-5.5-28.4-.6-18.6-.6-26.5-1.3-24.9-1.9-1.3,14.2-1.4,15.1-2.3,24.9-.5,11,56.8,3.8,56.8,1.8Z"
               data-name="North Dakota" data-abbreviation="ND"
               style="stroke-opacity: 0; fill: rgb(195, 229, 230);"
               data-svg-origin="357.7000427246094 56.89999771118164"
               transform="matrix(1,0,0,1,0,0)"></path>

            <path class="show"
               d="M471.3,127.7l-.4-7.5-2-7.3-1.8-13.6-.5-9.8-2-3.1L463,81V70.7l.7-3.9-2.1-5.5-28.4-.6-18.6-.6-26.5-1.3-24.9-1.9-1.3,14.2-1.4,15.1-2.3,24.9-.5,11,56.8,3.8,56.8,1.8Z"
               data-name="North Dakota" data-abbreviation="ND"
               style="stroke-opacity: 0; fill: rgb(235, 243, 243);"
               data-svg-origin="357.7000427246094 56.89999771118164"
               transform="matrix(1,0,0,1,0,0)"></path>
      </g>
   </g>
   <g class="svg__path__seleccion" cursor="pointer" pointer-events="all">
      <g class="svg__path__seleccion__background">

            <path class="base"
               d="M472.8,203.2l-1-1.1-1.5-3.6,1.8-3.7,1.1-5.6-2.6-2.1-.3-2.7.6-3,2.2-.8.3-5.7-.1-30.1-.6-3-4.1-3.6-1-2v-1.9l1.9-1.3,1.5-1.9.2-2.7-57.4-1.6-56.2-3.9-.8,5.3-1.6,15.9L353.9,162l-1.6,24.6,16,1,19.6,1.1,18,1.3,23.8,1.3,10.7-.8,2.9,2.3,4.3,3,1,.8,3.5-.9,4-.3,2.7-.1,3.1,1.2,4.5,1.4,3.1,1.8.6,1.9.9,1.9.7-.5,1.1.2Z"
               data-name="South Dakota" data-abbreviation="SD"
               style="stroke-opacity: 0; fill: rgb(195, 229, 230);"></path>

            <path class="show"
               d="M472.8,203.2l-1-1.1-1.5-3.6,1.8-3.7,1.1-5.6-2.6-2.1-.3-2.7.6-3,2.2-.8.3-5.7-.1-30.1-.6-3-4.1-3.6-1-2v-1.9l1.9-1.3,1.5-1.9.2-2.7-57.4-1.6-56.2-3.9-.8,5.3-1.6,15.9L353.9,162l-1.6,24.6,16,1,19.6,1.1,18,1.3,23.8,1.3,10.7-.8,2.9,2.3,4.3,3,1,.8,3.5-.9,4-.3,2.7-.1,3.1,1.2,4.5,1.4,3.1,1.8.6,1.9.9,1.9.7-.5,1.1.2Z"
               data-name="South Dakota" data-abbreviation="SD"
               style="stroke-opacity: 0; fill: rgb(235, 243, 243);"></path>
      </g>
   </g>
   <g class="svg__path__seleccion" cursor="pointer" pointer-events="all">
      <g class="svg__path__seleccion__background">
            <path class="base"
               d="M484.2,247l1.4,2.7.1,2.1,2.4,3.7,2.7,3.2h-5l-43.5-.9-40.8-.9-21.2-1,1.1-21.3L348,231.9l4.3-44,15.5,1L388,190l17.8,1.1,23.8,1.1,10.7-.5,2.1,2.3,4.8,3,1.1.9,4.3-1.4,3.9-.5,2.7-.2,1.8,1.4,5,1.6,3,1.6.5,1.6.9,2.1H473l1,5.2,2.7,8,1.2,4.6,2.1,3.8.5,4.9,1.4,4.3.5,6.5"
               data-name="Nebraska" data-abbreviation="NE"
               style="stroke-opacity: 0.3; fill: rgb(195, 229, 230);"
               data-svg-origin="348 187.89999389648438" transform="matrix(1,0,0,1,0,0)">
            </path>

            <path class="show"
               d="M484.2,247l1.4,2.7.1,2.1,2.4,3.7,2.7,3.2h-5l-43.5-.9-40.8-.9-21.2-1,1.1-21.3L348,231.9l4.3-44,15.5,1L388,190l17.8,1.1,23.8,1.1,10.7-.5,2.1,2.3,4.8,3,1.1.9,4.3-1.4,3.9-.5,2.7-.2,1.8,1.4,5,1.6,3,1.6.5,1.6.9,2.1H473l1,5.2,2.7,8,1.2,4.6,2.1,3.8.5,4.9,1.4,4.3.5,6.5"
               data-name="Nebraska" data-abbreviation="NE"
               style="stroke-opacity: 0.3; fill: rgb(235, 243, 243);"
               data-svg-origin="348 187.89999389648438" transform="matrix(1,0,0,1,0,0)">
            </path>
      </g>
   </g>
   <g class="svg__path__seleccion" cursor="pointer" pointer-events="all">
      <g class="svg__path__seleccion__background">
            <path class="base"
               d="M471.9,128.5l-.5-8.5-1.8-7.3-1.8-13.5-.5-9.8L465.5,86l-1.6-5V70.7l.7-3.9-1.8-5.5h30.1l.3-8.2.6-.2,2.3.5,1.9.8.8,5.5,1.5,6.1,1.6,1.6h4.8l.3,1.5,6.3.3v2.1h4.8l.3-1.3,1.1-1.1,2.3-.6,1.3,1H526l3.9,2.6,5.3,2.4,2.4.5.5-1,1.5-.5.5,2.9,2.6,1.3.5-.5,1.3.2v2.1l2.6,1h3.1l1.6-.8,3.2-3.2,2.6-.5.8,1.8.5,1.3h1l1-.8,8.9-.3,1.8,3.1h.6l.7-1.1,4.4-.4-.6,2.3-3.9,1.8-9.2,4.1-4.8,2-3.1,2.6-2.4,3.6L551,99.7l-1.8.8-4.5,5-1.3.2-3.8,2.9-2.8,3.2-.2,3,.2,7.8-1.6,1.6L530,128l-1.8,5.7,2.5,3.6.5,2.5-1.1,3-.2,3.7.5,7.1,3.4,4.1h3l2.5,2.3,3.2,1.4,3.7,5,7.1,5,1.8,2.1.2,5.5-20.6.7-60.2.5-.3-35.7-.5-3-4.1-3.4-1.1-1.8v-1.6l2.1-1.6,1.4-1.4-.1-3.2Z"
               data-name="Minnesota" data-abbreviation="MN"
               style="stroke-opacity: 0; fill: rgb(195, 229, 230);"
               data-svg-origin="462.8000183105469 52.899993896484375"
               transform="matrix(1,0,0,1,0,0)"></path>

            <path class="show"
               d="M471.9,128.5l-.5-8.5-1.8-7.3-1.8-13.5-.5-9.8L465.5,86l-1.6-5V70.7l.7-3.9-1.8-5.5h30.1l.3-8.2.6-.2,2.3.5,1.9.8.8,5.5,1.5,6.1,1.6,1.6h4.8l.3,1.5,6.3.3v2.1h4.8l.3-1.3,1.1-1.1,2.3-.6,1.3,1H526l3.9,2.6,5.3,2.4,2.4.5.5-1,1.5-.5.5,2.9,2.6,1.3.5-.5,1.3.2v2.1l2.6,1h3.1l1.6-.8,3.2-3.2,2.6-.5.8,1.8.5,1.3h1l1-.8,8.9-.3,1.8,3.1h.6l.7-1.1,4.4-.4-.6,2.3-3.9,1.8-9.2,4.1-4.8,2-3.1,2.6-2.4,3.6L551,99.7l-1.8.8-4.5,5-1.3.2-3.8,2.9-2.8,3.2-.2,3,.2,7.8-1.6,1.6L530,128l-1.8,5.7,2.5,3.6.5,2.5-1.1,3-.2,3.7.5,7.1,3.4,4.1h3l2.5,2.3,3.2,1.4,3.7,5,7.1,5,1.8,2.1.2,5.5-20.6.7-60.2.5-.3-35.7-.5-3-4.1-3.4-1.1-1.8v-1.6l2.1-1.6,1.4-1.4-.1-3.2Z"
               data-name="Minnesota" data-abbreviation="MN"
               style="stroke-opacity: 0; fill: rgb(235, 243, 243);"
               data-svg-origin="462.8000183105469 52.899993896484375"
               transform="matrix(1,0,0,1,0,0)"></path>
      </g>
   </g>
   <g class="svg__path__seleccion" cursor="pointer" pointer-events="all">
      <g class="svg__path__seleccion__background">
            <path class="base"
               d="M581.6,82.1l1.8-2.1,2.2-.8,5.4-3.9,2.3-.6.5.5-5.1,5.1-3.3,1.9-2.1.9-1.7-1Zm86.2,32.1.6,2.5,3.2.2,1.3-1.2s-.1-1.5-.4-1.6a19.37,19.37,0,0,1-1.6-1.9l-2.2.2-1.6.2-.3,1.1Zm30.1,63-3.2-8.2-2.3-9.1-2.4-3.2-2.6-1.8-1.6,1.1-3.9,1.8-1.9,5-2.7,3.7-1.1.6-1.5-.6s-2.6-1.5-2.4-2.1.5-5,.5-5l3.4-1.3.8-3.4.6-2.6,2.4-1.6-.3-10-1.6-2.3-1.3-.8-.8-2.1.8-.8,1.6.3.2-1.6L676,131l-1.3-2.6h-2.6l-4.5-1.5-5.5-3.4h-2.7l-.6.6-1-.5-3.1-2.3-2.9,1.8-2.9,2.3.3,3.6,1,.3,2.1.5.5.8-2.6.8-2.6.3-1.5,1.8-.3,2.1.3,1.6.3,5.5-3.6,2.1-.6-.2v-4.2l1.3-2.4.6-2.4-.8-.8-1.9.8-1,4.2-2.7,1.1-1.8,1.9-.2,1,.6.8-.6,2.6-2.3.5v1.1l.8,2.4-1.1,6.1-1.6,4,.6,4.7.5,1.1-.8,2.4-.3.8-.3,2.7,3.6,6,2.9,6.5,1.5,4.8-.8,4.7-1,6-2.4,5.2-.3,2.7-3.3,3.1,4.4-.2,21.4-2.3,7.3-1,.1,1.7,6.9-1.2,10.3-1.5,3.9-.5.1-.6.2-1.5,2.1-3.7,2-1.7-.2-5.1,1.6-1.6,1.1-.3.2-3.6,1.5-3,1.1.6.2.6.8.2,1.9-1-.4-9.1Zm-130.4-66,.7-.6,2.7-.8,3.6-2.3v-1l.6-.6,6-1,2.4-1.9,4.4-2.1.2-1.3,1.9-2.9,1.8-.8,1.3-1.8,2.3-2.3,4.4-2.4,4.7-.5,1.1,1.1-.3,1-3.7,1-1.5,3.1-2.3.8-.5,2.4-2.4,3.2-.3,2.6.8.5,1-1.1,3.6-2.9,1.3,1.3h2.3l3.2,1,1.5,1.1,1.5,3.1,2.7,2.7,3.9-.2,1.5-1,1.6,1.3,1.6.5,1.3-.8h1.1l1.6-1,4-3.6,3.4-1.1,6.6-.3,4.5-1.9,2.6-1.3,1.5.2v5.7l.5.3,2.9.8,1.9-.5,6.1-1.6,1.1-1.1,1.5.5v7l3.2,3.1,1.3.6,1.3,1-1.3.3-.8-.3-3.7-.5-2.1.6-2.3-.2-3.2,1.5h-1.8l-5.8-1.3-5.2.2-1.9,2.6-7,.6-2.4.8-1.1,3.1-1.3,1.1-.5-.2-1.5-1.6-4.5,2.4h-.6l-1.1-1.6-.8.2-1.9,4.4-1,4-3.2,7-1.2-1-1.4-1L608,127.2l-3.5-1.4-2.1-2.3-12.1-2.7-2.9-1-8.2-2.2-7.9-1.1Z"
               data-name="Michigan" data-abbreviation="MI"
               style="stroke-opacity: 0.3; fill: rgb(195, 229, 230);"
               data-svg-origin="567.5 74.69999694824219" transform="matrix(1,0,0,1,0,0)">
            </path>

            <path class="show"
               d="M581.6,82.1l1.8-2.1,2.2-.8,5.4-3.9,2.3-.6.5.5-5.1,5.1-3.3,1.9-2.1.9-1.7-1Zm86.2,32.1.6,2.5,3.2.2,1.3-1.2s-.1-1.5-.4-1.6a19.37,19.37,0,0,1-1.6-1.9l-2.2.2-1.6.2-.3,1.1Zm30.1,63-3.2-8.2-2.3-9.1-2.4-3.2-2.6-1.8-1.6,1.1-3.9,1.8-1.9,5-2.7,3.7-1.1.6-1.5-.6s-2.6-1.5-2.4-2.1.5-5,.5-5l3.4-1.3.8-3.4.6-2.6,2.4-1.6-.3-10-1.6-2.3-1.3-.8-.8-2.1.8-.8,1.6.3.2-1.6L676,131l-1.3-2.6h-2.6l-4.5-1.5-5.5-3.4h-2.7l-.6.6-1-.5-3.1-2.3-2.9,1.8-2.9,2.3.3,3.6,1,.3,2.1.5.5.8-2.6.8-2.6.3-1.5,1.8-.3,2.1.3,1.6.3,5.5-3.6,2.1-.6-.2v-4.2l1.3-2.4.6-2.4-.8-.8-1.9.8-1,4.2-2.7,1.1-1.8,1.9-.2,1,.6.8-.6,2.6-2.3.5v1.1l.8,2.4-1.1,6.1-1.6,4,.6,4.7.5,1.1-.8,2.4-.3.8-.3,2.7,3.6,6,2.9,6.5,1.5,4.8-.8,4.7-1,6-2.4,5.2-.3,2.7-3.3,3.1,4.4-.2,21.4-2.3,7.3-1,.1,1.7,6.9-1.2,10.3-1.5,3.9-.5.1-.6.2-1.5,2.1-3.7,2-1.7-.2-5.1,1.6-1.6,1.1-.3.2-3.6,1.5-3,1.1.6.2.6.8.2,1.9-1-.4-9.1Zm-130.4-66,.7-.6,2.7-.8,3.6-2.3v-1l.6-.6,6-1,2.4-1.9,4.4-2.1.2-1.3,1.9-2.9,1.8-.8,1.3-1.8,2.3-2.3,4.4-2.4,4.7-.5,1.1,1.1-.3,1-3.7,1-1.5,3.1-2.3.8-.5,2.4-2.4,3.2-.3,2.6.8.5,1-1.1,3.6-2.9,1.3,1.3h2.3l3.2,1,1.5,1.1,1.5,3.1,2.7,2.7,3.9-.2,1.5-1,1.6,1.3,1.6.5,1.3-.8h1.1l1.6-1,4-3.6,3.4-1.1,6.6-.3,4.5-1.9,2.6-1.3,1.5.2v5.7l.5.3,2.9.8,1.9-.5,6.1-1.6,1.1-1.1,1.5.5v7l3.2,3.1,1.3.6,1.3,1-1.3.3-.8-.3-3.7-.5-2.1.6-2.3-.2-3.2,1.5h-1.8l-5.8-1.3-5.2.2-1.9,2.6-7,.6-2.4.8-1.1,3.1-1.3,1.1-.5-.2-1.5-1.6-4.5,2.4h-.6l-1.1-1.6-.8.2-1.9,4.4-1,4-3.2,7-1.2-1-1.4-1L608,127.2l-3.5-1.4-2.1-2.3-12.1-2.7-2.9-1-8.2-2.2-7.9-1.1Z"
               data-name="Michigan" data-abbreviation="MI"
               style="stroke-opacity: 0.3; fill: rgb(235, 243, 243);"
               data-svg-origin="567.5 74.69999694824219" transform="matrix(1,0,0,1,0,0)">
            </path>
      </g>
   </g>
   <g class="svg__path__seleccion" cursor="pointer" pointer-events="all">
      <g class="svg__path__seleccion__background">
            <path class="base"
               d="M612.9,197.2l.4-3-1.6-4.5-.6-6.1-1.1-2.4,1-3.1.8-2.9,1.5-2.6-.6-3.4-.6-3.6.5-1.8,1.9-2.4.2-2.7-.8-1.3.6-2.6.5-3.2,2.7-5.7,2.9-6.8.2-2.3-.3-1-.8.5-4.2,6.3-2.7,4-1.9,1.8-.8,2.3-1.5.8-1.1,1.9-1.5-.3-.2-1.8,1.3-2.4,2.1-4.7,1.8-1.6,1.1-2.3-1.6-.9-1.4-1.4-1.6-10.3-3.7-1.1-1.4-2.3-12.6-2.7-2.5-1.1-8.2-2.3-8.2-1.1-4.2-5.4-.5,1.3-1.1-.2-.6-1.1-2.7-.8-1.1.2-1.8,1-1-.6.6-1.9,1.9-3.1,1.1-1.1-1.9-1.5-2.1.8-2.9,1.9-7.4,3.2-2.9.6-2.9-.5-1-.9-2.1,2.8-.2,2.7V123l-1.1,1.6-5.3,3.9-2.3,5.9.5.2,2.5,2.1.7,3.2-1.8,3.2V147l.5,6.6,3,3h3.4l1.8,3.2,3.4.5,3.9,5.7,7.1,4.1,2.1,2.7.9,7.4.7,3.3,2.3,1.6.2,1.4-2.1,3.4.2,3.2,2.5,3.9,2.5,1.1,3,.5L568,200h9.2l26.1-1.5,9.6-1.3Z"
               data-name="Wisconsin" data-abbreviation="WI"
               style="stroke-opacity: 0.3; fill: rgb(195, 229, 230);"
               data-svg-origin="529.400146484375 103.9000015258789"
               transform="matrix(1,0,0,1,0,0)"></path>

            <path class="show"
               d="M612.9,197.2l.4-3-1.6-4.5-.6-6.1-1.1-2.4,1-3.1.8-2.9,1.5-2.6-.6-3.4-.6-3.6.5-1.8,1.9-2.4.2-2.7-.8-1.3.6-2.6.5-3.2,2.7-5.7,2.9-6.8.2-2.3-.3-1-.8.5-4.2,6.3-2.7,4-1.9,1.8-.8,2.3-1.5.8-1.1,1.9-1.5-.3-.2-1.8,1.3-2.4,2.1-4.7,1.8-1.6,1.1-2.3-1.6-.9-1.4-1.4-1.6-10.3-3.7-1.1-1.4-2.3-12.6-2.7-2.5-1.1-8.2-2.3-8.2-1.1-4.2-5.4-.5,1.3-1.1-.2-.6-1.1-2.7-.8-1.1.2-1.8,1-1-.6.6-1.9,1.9-3.1,1.1-1.1-1.9-1.5-2.1.8-2.9,1.9-7.4,3.2-2.9.6-2.9-.5-1-.9-2.1,2.8-.2,2.7V123l-1.1,1.6-5.3,3.9-2.3,5.9.5.2,2.5,2.1.7,3.2-1.8,3.2V147l.5,6.6,3,3h3.4l1.8,3.2,3.4.5,3.9,5.7,7.1,4.1,2.1,2.7.9,7.4.7,3.3,2.3,1.6.2,1.4-2.1,3.4.2,3.2,2.5,3.9,2.5,1.1,3,.5L568,200h9.2l26.1-1.5,9.6-1.3Z"
               data-name="Wisconsin" data-abbreviation="WI"
               style="stroke-opacity: 0.3; fill: rgb(235, 243, 243);"
               data-svg-origin="529.400146484375 103.9000015258789"
               transform="matrix(1,0,0,1,0,0)"></path>
      </g>
   </g>
   <g class="svg__path__seleccion" cursor="pointer" pointer-events="all">
      <g class="svg__path__seleccion__background">
            <path class="base"
               d="M566.6,201.6l.2,1.9,2.3,1.1,1.1,1.3.3,1.3,3.9,3.2.7,2.2-.8,2.9-1.5,3.5-.8,2.7-2.2,1.6-1.7.6-5.5,1.5-.7,2.3-.8,2.3.6,1.4,1.7,1.7v3.7l-2.2,1.6-.5,1.5v2.5l-1.5.5-1.7,1.4-.5,1.5.5,1.7-1.4,1.2-2.3-2.7-1.5-2.6-8.3.8-10.2.6-25,.7-13,.2-9.4.2-1.3.1-1.7-4.5-.2-6.6-1.6-4.1-.7-5.3-2.3-3.7-.9-4.8-2.7-7.5-1.1-5.4-1.4-2.2-1.6-2.7,1.8-4.3,1.4-5.7-2.7-2.1-.5-2.7.9-2.5H485l49.6-.7,19.9-.7,1.9,2.7,1.8,2.6.5.8-1.8,2.7.5,4.2,2.5,3.9,3,1.8,2.4.2,1.3,2.2Z"
               data-name="Iowa" data-abbreviation="IA"
               style="stroke-opacity: 0.3; fill: rgb(195, 229, 230);"
               data-svg-origin="470.8998718261719 180.5" transform="matrix(1,0,0,1,0,0)">
            </path>

            <path class="show"
               d="M566.6,201.6l.2,1.9,2.3,1.1,1.1,1.3.3,1.3,3.9,3.2.7,2.2-.8,2.9-1.5,3.5-.8,2.7-2.2,1.6-1.7.6-5.5,1.5-.7,2.3-.8,2.3.6,1.4,1.7,1.7v3.7l-2.2,1.6-.5,1.5v2.5l-1.5.5-1.7,1.4-.5,1.5.5,1.7-1.4,1.2-2.3-2.7-1.5-2.6-8.3.8-10.2.6-25,.7-13,.2-9.4.2-1.3.1-1.7-4.5-.2-6.6-1.6-4.1-.7-5.3-2.3-3.7-.9-4.8-2.7-7.5-1.1-5.4-1.4-2.2-1.6-2.7,1.8-4.3,1.4-5.7-2.7-2.1-.5-2.7.9-2.5H485l49.6-.7,19.9-.7,1.9,2.7,1.8,2.6.5.8-1.8,2.7.5,4.2,2.5,3.9,3,1.8,2.4.2,1.3,2.2Z"
               data-name="Iowa" data-abbreviation="IA"
               style="stroke-opacity: 0.3; fill: rgb(235, 243, 243);"
               data-svg-origin="470.8998718261719 180.5" transform="matrix(1,0,0,1,0,0)">
            </path>
      </g>
   </g>
   <g class="svg__path__seleccion" cursor="pointer" pointer-events="all">
      <g class="svg__path__seleccion__background">
            <path class="base"
               d="M617.8,301.6V298l.3-4.9,2.4-3.1,1.8-3.8,2.6-3.9-.4-5.3-2-3.5-.1-3.3.7-5.3-.8-7.2-1.1-15.8-1.3-15-.9-11.6-.3-.9-.8-2.6-1.3-3.7-1.6-1.8-1.5-2.6-.2-5.5-9.9,1.3-27.2,1.7-8.7-.4.2,2.4,2.3.7.9,1.1.5,1.8,3.9,3.4.7,2.3-.7,3.4-1.8,3.7-.7,2.5-2.3,1.8-1.8.7-5.3,1.4-.7,1.8L562,230l.7,1.4,1.8,1.6-.2,4.1-1.8,1.6-.7,1.6V243l-1.8.5-1.6,1.1-.2,1.4.2,2.1-1.7,1.3-1,2.8.5,3.7,2.3,7.3,7.3,7.5,5.5,3.7-.2,4.3.9,1.4,6.4.5,2.7,1.4-.7,3.7-2.3,5.9-.7,3.2,2.3,3.9,6.4,5.3,4.6.7,2.1,5,2.1,3.2-.9,3,1.6,4.1,1.8,2.1,1.9-.8.7-2.2,2-1.4,3.2-1.1,3.1,1.2,2.9,1.1.8-.2-.1-1.2-1.1-2.8.4-2.4,2.3-1.6,2.4-1,1.2-.4-.6-1.3-.8-2.2,1.2-1.3.9-2.9Z"
               data-name="Illinois" data-abbreviation="IL"
               style="stroke-opacity: 0; fill: rgb(195, 229, 230);">
            </path>

            <path class="show"
               d="M617.8,301.6V298l.3-4.9,2.4-3.1,1.8-3.8,2.6-3.9-.4-5.3-2-3.5-.1-3.3.7-5.3-.8-7.2-1.1-15.8-1.3-15-.9-11.6-.3-.9-.8-2.6-1.3-3.7-1.6-1.8-1.5-2.6-.2-5.5-9.9,1.3-27.2,1.7-8.7-.4.2,2.4,2.3.7.9,1.1.5,1.8,3.9,3.4.7,2.3-.7,3.4-1.8,3.7-.7,2.5-2.3,1.8-1.8.7-5.3,1.4-.7,1.8L562,230l.7,1.4,1.8,1.6-.2,4.1-1.8,1.6-.7,1.6V243l-1.8.5-1.6,1.1-.2,1.4.2,2.1-1.7,1.3-1,2.8.5,3.7,2.3,7.3,7.3,7.5,5.5,3.7-.2,4.3.9,1.4,6.4.5,2.7,1.4-.7,3.7-2.3,5.9-.7,3.2,2.3,3.9,6.4,5.3,4.6.7,2.1,5,2.1,3.2-.9,3,1.6,4.1,1.8,2.1,1.9-.8.7-2.2,2-1.4,3.2-1.1,3.1,1.2,2.9,1.1.8-.2-.1-1.2-1.1-2.8.4-2.4,2.3-1.6,2.4-1,1.2-.4-.6-1.3-.8-2.2,1.2-1.3.9-2.9Z"
               data-name="Illinois" data-abbreviation="IL"
               style="stroke-opacity: 0; fill: rgb(235, 243, 243);">
            </path>
      </g>
   </g>
   <g class="svg__path__seleccion" cursor="pointer" pointer-events="all">
      <g class="svg__path__seleccion__background">
            <path class="base"
               d="M555.8,249.5l-2.5-3.1-1.1-2.3-7.8.7-9.8.5-25.4.9-13.5.2-7.9.1-2.3.1,1.3,2.5-.2,2.3,2.5,3.9,3.1,4.1,3.1,2.7,2.3.2,1.4.9v3l-1.8,1.6-.5,2.3,2.1,3.4,2.5,3,2.5,1.8,1.4,11.7-.7,35.3.2,4.7.5,5.4,23.4-.1,23.2-.7,20.8-.8,11.7-.2,2.2,3.4-.7,3.3-3.1,2.4-.6,1.8,5.4.5,3.9-.7,1.7-5.5.7-5.9,2.3-2,1.7-1.5,2.1-1,.1-2.9.6-1.7-1-1.7-2.7.1-2.2-2.6-1.4-4.2.8-2.5-1.9-3.4-1.8-4.6-4.8-.8-7-5.6-1.7-4.1.8-3.2,2.1-6.1.5-2.9-1.9-1-6.9-.8-1-1.7-.1-4.2-5.5-3.4-7-7.8-2.3-7.3-.2-4.2.4-2.3Z"
               data-name="Missouri" data-abbreviation="MO"
               style="stroke-opacity: 0; fill: rgb(195, 229, 230);">
            </path>

            <path class="show"
               d="M555.8,249.5l-2.5-3.1-1.1-2.3-7.8.7-9.8.5-25.4.9-13.5.2-7.9.1-2.3.1,1.3,2.5-.2,2.3,2.5,3.9,3.1,4.1,3.1,2.7,2.3.2,1.4.9v3l-1.8,1.6-.5,2.3,2.1,3.4,2.5,3,2.5,1.8,1.4,11.7-.7,35.3.2,4.7.5,5.4,23.4-.1,23.2-.7,20.8-.8,11.7-.2,2.2,3.4-.7,3.3-3.1,2.4-.6,1.8,5.4.5,3.9-.7,1.7-5.5.7-5.9,2.3-2,1.7-1.5,2.1-1,.1-2.9.6-1.7-1-1.7-2.7.1-2.2-2.6-1.4-4.2.8-2.5-1.9-3.4-1.8-4.6-4.8-.8-7-5.6-1.7-4.1.8-3.2,2.1-6.1.5-2.9-1.9-1-6.9-.8-1-1.7-.1-4.2-5.5-3.4-7-7.8-2.3-7.3-.2-4.2.4-2.3Z"
               data-name="Missouri" data-abbreviation="MO"
               style="stroke-opacity: 0; fill: rgb(235, 243, 243);">
            </path>
      </g>
   </g>
   <g class="svg__path__seleccion" cursor="pointer" pointer-events="all">
      <g class="svg__path__seleccion__background">
            <path class="base"
               d="M618.4,300.9l.1-2.9.5-4.5,2.3-2.9,1.8-3.9,2.6-4.2-.5-5.8-1.8-2.7-.3-3.2.8-5.5-.5-7-1.3-16-1.3-15.4-1-11.7,3.1.9,1.5,1,1.1-.3,2.1-1.9,2.8-1.6,5.1-.2,22-2.3,5.6-.5,1.5,16,4.3,36.8.6,5.8L669,271l1.2,1.8.1,1.4-2.5,1.6-3.5,1.6-3.2.6-.6,4.9-4.6,3.3-2.8,4,.3,2.4-.6,1.5h-3.3l-1.6-1.6-2.5,1.3-2.7,1.5.2,3.1-1.2.3-.5-1-2.2-1.5-3.3,1.3-1.6,3-1.4-.8-1.5-1.6-4.5.5-5.6,1-2.7,1.3Z"
               data-name="Indiana" data-abbreviation="IN"
               style="stroke-opacity: 0; fill: rgb(195, 229, 230);">
            </path>

            <path class="show"
               d="M618.4,300.9l.1-2.9.5-4.5,2.3-2.9,1.8-3.9,2.6-4.2-.5-5.8-1.8-2.7-.3-3.2.8-5.5-.5-7-1.3-16-1.3-15.4-1-11.7,3.1.9,1.5,1,1.1-.3,2.1-1.9,2.8-1.6,5.1-.2,22-2.3,5.6-.5,1.5,16,4.3,36.8.6,5.8L669,271l1.2,1.8.1,1.4-2.5,1.6-3.5,1.6-3.2.6-.6,4.9-4.6,3.3-2.8,4,.3,2.4-.6,1.5h-3.3l-1.6-1.6-2.5,1.3-2.7,1.5.2,3.1-1.2.3-.5-1-2.2-1.5-3.3,1.3-1.6,3-1.4-.8-1.5-1.6-4.5.5-5.6,1-2.7,1.3Z"
               data-name="Indiana" data-abbreviation="IN"
               style="stroke-opacity: 0; fill: rgb(235, 243, 243);">
            </path>
      </g>
   </g>
   <g class="svg__path__seleccion" cursor="pointer" pointer-events="all">
      <g class="svg__path__seleccion__background">
            <path class="base"
               d="M731.4,195l-6.1,4.1-3.9,2.3-3.4,3.7-4,3.9-3.2.8-2.9.5-5.5,2.6-2.1.2-3.4-3.1-5.2.6-2.6-1.5-2.4-1.4-4.9.7L671.6,210l-7.8,1.2,1.3,14.6,1.8,13.7,2.6,23.4.6,4.8,4.1-.1,2.4-.8,3.4,1.5,2.1,4.4h5.1l1.9,2.1,1.8-.1,2.5-1.3,2.5.4,2,1.5,1.7-2.1,2.3-1.3,2.1-.7.6,2.7,1.8,1,3.5,2.3,2.2-.1,1.1-1.1-.1-1.4,1.6-1.5.2-5,1-3.9,1.5-1.4,1.5.9.8,1.2,1.2-.2-.4-2.4-.6-.6v-2.4l1-1.3,2.3-3.4,1.3-1.5,2.1.5,2.3-1.6,3.1-3.4,2.3-3.9.2-5.4.5-5v-4.7l-1.1-3.1,1-1.5.9-1-1.4-9.8-3-19.2Z"
               data-name="Ohio" data-abbreviation="OH"
               style="stroke-opacity: 0; fill: rgb(195, 229, 230);">
            </path>

            <path class="show"
               d="M731.4,195l-6.1,4.1-3.9,2.3-3.4,3.7-4,3.9-3.2.8-2.9.5-5.5,2.6-2.1.2-3.4-3.1-5.2.6-2.6-1.5-2.4-1.4-4.9.7L671.6,210l-7.8,1.2,1.3,14.6,1.8,13.7,2.6,23.4.6,4.8,4.1-.1,2.4-.8,3.4,1.5,2.1,4.4h5.1l1.9,2.1,1.8-.1,2.5-1.3,2.5.4,2,1.5,1.7-2.1,2.3-1.3,2.1-.7.6,2.7,1.8,1,3.5,2.3,2.2-.1,1.1-1.1-.1-1.4,1.6-1.5.2-5,1-3.9,1.5-1.4,1.5.9.8,1.2,1.2-.2-.4-2.4-.6-.6v-2.4l1-1.3,2.3-3.4,1.3-1.5,2.1.5,2.3-1.6,3.1-3.4,2.3-3.9.2-5.4.5-5v-4.7l-1.1-3.1,1-1.5.9-1-1.4-9.8-3-19.2Z"
               data-name="Ohio" data-abbreviation="OH"
               style="stroke-opacity: 0; fill: rgb(235, 243, 243);">
            </path>
      </g>
   </g>
   <g class="svg__path__seleccion" cursor="pointer" pointer-events="all">
      <g class="svg__path__seleccion__background">
            <path class="base"
               d="M923.2,77.3l1.9,2.1,2.3,3.7V85l-2.1,4.7-1.9.6L920,93.4l-4.8,5.5h-1.3c-.6,0-1-2.1-1-2.1l-1.8.2-1,1.5-2.4,1.5-1,1.5,1.6,1.5-.5.6-.5,2.7-1.9-.2v-1.6l-.3-1.3-1.5.3-1.8-3.2-2.1,1.3,1.3,1.5.3,1.1-.8,1.3.3,3.1.2,1.6-1.6,2.6-2.9.5-.3,2.9-5.3,3.1-1.3.5-1.6-1.5-3.1,3.6,1,3.2-1.5,1.3-.2,4.4-1.1,6.3-2.5-1.2-.5-3.1-3.9-1.1-.3-2.7-7.3-23.4L864.4,92l1.4-.1,1.5.4V89.7l.8-5.5,2.6-4.7,1.5-4-1.9-2.4v-6l.8-1,.8-2.7-.2-1.5-.2-4.8,1.8-4.8,2.9-8.9,2.1-4.2h1.3l1.3.2v1.1l1.3,2.3,2.7.6.8-.8v-1l4-2.9,1.8-1.8,1.5.2,6,2.4,1.9,1L910,70.4h6l.8,1.9.2,4.8,2.9,2.3h.8l.2-.5-.5-1.1Zm-20.9,30.2,1.5-1.5,1.4,1.1.6,2.4-1.7.9Zm6.7-5.9,1.8,1.9s1.3.1,1.3-.2.2-2,.2-2l.9-.8-.8-1.8-2,.7Z"
               data-name="Maine" data-abbreviation="ME"
               style="stroke-opacity: 0; fill: rgb(195, 229, 230);"
               data-svg-origin="864.4000244140625 36.89999771118164"
               transform="matrix(1,0,0,1,0,0)"></path>

            <path class="show"
               d="M923.2,77.3l1.9,2.1,2.3,3.7V85l-2.1,4.7-1.9.6L920,93.4l-4.8,5.5h-1.3c-.6,0-1-2.1-1-2.1l-1.8.2-1,1.5-2.4,1.5-1,1.5,1.6,1.5-.5.6-.5,2.7-1.9-.2v-1.6l-.3-1.3-1.5.3-1.8-3.2-2.1,1.3,1.3,1.5.3,1.1-.8,1.3.3,3.1.2,1.6-1.6,2.6-2.9.5-.3,2.9-5.3,3.1-1.3.5-1.6-1.5-3.1,3.6,1,3.2-1.5,1.3-.2,4.4-1.1,6.3-2.5-1.2-.5-3.1-3.9-1.1-.3-2.7-7.3-23.4L864.4,92l1.4-.1,1.5.4V89.7l.8-5.5,2.6-4.7,1.5-4-1.9-2.4v-6l.8-1,.8-2.7-.2-1.5-.2-4.8,1.8-4.8,2.9-8.9,2.1-4.2h1.3l1.3.2v1.1l1.3,2.3,2.7.6.8-.8v-1l4-2.9,1.8-1.8,1.5.2,6,2.4,1.9,1L910,70.4h6l.8,1.9.2,4.8,2.9,2.3h.8l.2-.5-.5-1.1Zm-20.9,30.2,1.5-1.5,1.4,1.1.6,2.4-1.7.9Zm6.7-5.9,1.8,1.9s1.3.1,1.3-.2.2-2,.2-2l.9-.8-.8-1.8-2,.7Z"
               data-name="Maine" data-abbreviation="ME"
               style="stroke-opacity: 0; fill: rgb(235, 243, 243);"
               data-svg-origin="864.4000244140625 36.89999771118164"
               transform="matrix(1,0,0,1,0,0)"></path>
      </g>
   </g>
   <g class="svg__path__seleccion" cursor="pointer" pointer-events="all">
      <g class="svg__path__seleccion__background">
            <path class="base"
               d="M880.8,142.4l.9-1.1,1.1-3.3-2.5-.9-.5-3.1-3.9-1.1-.3-2.7-7.3-23.4-4.6-14.5h-.9l-.6,1.6-.6-.5-1-1-1.5,1.9v5l.3,5.7,1.9,2.7v4l-3.7,5.1-2.6,1.1V119l1.1,1.8v8.6l-.8,9.2-.2,4.8,1,1.3-.2,4.5-.5,1.8,1.5.9,16.4-4.7,2.3-.6,1.5-2.6,3.7-1.6Z"
               data-name="New Hampshire" data-abbreviation="NH"
               style="stroke-opacity: 0; fill: rgb(195, 229, 230);"
               data-svg-origin="855.0000610351562 92.29998016357422"
               transform="matrix(1,0,0,1,0,0)"></path>

            <path class="show"
               d="M880.8,142.4l.9-1.1,1.1-3.3-2.5-.9-.5-3.1-3.9-1.1-.3-2.7-7.3-23.4-4.6-14.5h-.9l-.6,1.6-.6-.5-1-1-1.5,1.9v5l.3,5.7,1.9,2.7v4l-3.7,5.1-2.6,1.1V119l1.1,1.8v8.6l-.8,9.2-.2,4.8,1,1.3-.2,4.5-.5,1.8,1.5.9,16.4-4.7,2.3-.6,1.5-2.6,3.7-1.6Z"
               data-name="New Hampshire" data-abbreviation="NH"
               style="stroke-opacity: 0; fill: rgb(235, 243, 243);"
               data-svg-origin="855.0000610351562 92.29998016357422"
               transform="matrix(1,0,0,1,0,0)"></path>
      </g>
   </g>
   <g class="svg__path__seleccion" cursor="pointer" pointer-events="all">
      <g class="svg__path__seleccion__background">
            <path class="base"
               d="M844.3,153.7l-.8-5.7-2.4-10-.6-.3-2.9-1.3.8-2.9-.8-2.1-2.7-4.6,1-3.9-.8-5.2-2.4-6.5-.8-4.9,26.2-6.7.3,5.8,1.9,2.7v4l-3.7,4-2.6,1.1v1.1l1.1,1.8v8.6l-.8,9.2-.2,4.8,1,1.3-.2,4.5-.5,1.8.7,1.6-7,1.4Z"
               data-name="Vermont" data-abbreviation="VT"
               style="stroke-opacity: 0; fill: rgb(195, 229, 230);"
               data-svg-origin="831.8999633789062 99.5999984741211"
               transform="matrix(1,0,0,1,0,0)"></path>

            <path class="show"
               d="M844.3,153.7l-.8-5.7-2.4-10-.6-.3-2.9-1.3.8-2.9-.8-2.1-2.7-4.6,1-3.9-.8-5.2-2.4-6.5-.8-4.9,26.2-6.7.3,5.8,1.9,2.7v4l-3.7,4-2.6,1.1v1.1l1.1,1.8v8.6l-.8,9.2-.2,4.8,1,1.3-.2,4.5-.5,1.8.7,1.6-7,1.4Z"
               data-name="Vermont" data-abbreviation="VT"
               style="stroke-opacity: 0; fill: rgb(235, 243, 243);"
               data-svg-origin="831.8999633789062 99.5999984741211"
               transform="matrix(1,0,0,1,0,0)"></path>
      </g>
   </g>
   <g class="svg__path__seleccion" cursor="pointer" pointer-events="all">
      <g class="svg__path__seleccion__background">
            <path class="base"
               d="M900,173.9l2.2-.7.5-1.7,1,.1,1,2.3-1.3.5-3.9.1.5-.6Zm-9.4.8,2.3-2.6h1.6l1.8,1.5-2.4,1-2.2,1-1.1-.9Zm-34.8-22,17.5-4.2,2.3-.6,2.1-3.2,3.7-1.7,2.9,4.4-2.4,5.2-.3,1.5,1.9,2.6,1.1-.8h1.8l2.3,2.6,3.9,6,3.6.5,2.3-1,1.8-1.8-.8-2.7-2.1-1.6-1.5.8-1-1.3.5-.5,2.1-.2,1.8.8,1.9,2.4,1,2.9.3,2.4-4.2,1.5-3.9,1.9-3.9,4.5-1.9,1.5v-1l2.4-1.5.5-1.8-.8-3.1-2.9,1.5-.8,1.5.5,2.3-2.1,1-2.7-4.5-3.4-4.4-2.1-1.8-6.5,1.9-5.1,1.1-21.8,4.8-.4-4.9.6-10.6,5.2-.9,6.6-1.5Z"
               data-name="Massachusetts" data-abbreviation="MA"
               style="stroke-opacity: 0; fill: rgb(195, 229, 230);"></path>

            <path class="show"
               d="M900,173.9l2.2-.7.5-1.7,1,.1,1,2.3-1.3.5-3.9.1.5-.6Zm-9.4.8,2.3-2.6h1.6l1.8,1.5-2.4,1-2.2,1-1.1-.9Zm-34.8-22,17.5-4.2,2.3-.6,2.1-3.2,3.7-1.7,2.9,4.4-2.4,5.2-.3,1.5,1.9,2.6,1.1-.8h1.8l2.3,2.6,3.9,6,3.6.5,2.3-1,1.8-1.8-.8-2.7-2.1-1.6-1.5.8-1-1.3.5-.5,2.1-.2,1.8.8,1.9,2.4,1,2.9.3,2.4-4.2,1.5-3.9,1.9-3.9,4.5-1.9,1.5v-1l2.4-1.5.5-1.8-.8-3.1-2.9,1.5-.8,1.5.5,2.3-2.1,1-2.7-4.5-3.4-4.4-2.1-1.8-6.5,1.9-5.1,1.1-21.8,4.8-.4-4.9.6-10.6,5.2-.9,6.6-1.5Z"
               data-name="Massachusetts" data-abbreviation="MA"
               style="stroke-opacity: 0; fill: rgb(235, 243, 243);"></path>
      </g>
   </g>
   <g class="svg__path__seleccion" cursor="pointer" pointer-events="all">
      <g class="svg__path__seleccion__background">
            <path class="base"
               d="M874.1,179.8l-.5-4.2-.8-4.4-1.7-5.9,5.7-1.5,1.6,1.1,3.4,4.4,2.9,4.4-2.9,1.5-1.3-.2-1.1,1.8-2.4,1.9-2.9,1.1Z"
               data-name="Rhode Island" data-abbreviation="RI"
               style="stroke-opacity: 0; fill: rgb(195, 229, 230);"></path>

            <path class="show"
               d="M874.1,179.8l-.5-4.2-.8-4.4-1.7-5.9,5.7-1.5,1.6,1.1,3.4,4.4,2.9,4.4-2.9,1.5-1.3-.2-1.1,1.8-2.4,1.9-2.9,1.1Z"
               data-name="Rhode Island" data-abbreviation="RI"
               style="stroke-opacity: 0; fill: rgb(235, 243, 243);"></path>
      </g>
   </g>
   <g class="svg__path__seleccion" cursor="pointer" pointer-events="all">
      <g class="svg__path__seleccion__background">
            <path class="base"
               d="M873.2,180.1l-.6-4.2-.8-4.4-1.6-6-4.2.9-21.8,4.8.6,3.3,1.5,7.3v8.1l-1.1,2.3,1.8,2.1,5-3.4,3.6-3.2,1.9-2.1.8.6,2.7-1.5,5.2-1.1,7-3.5Z"
               data-name="Connecticut" data-abbreviation="CT"
               style="stroke-opacity: 0; fill: rgb(195, 229, 230);"
               data-svg-origin="844.2000732421875 165.50001525878906"
               transform="matrix(1,0,0,1,0,0)"></path>

            <path class="show"
               d="M873.2,180.1l-.6-4.2-.8-4.4-1.6-6-4.2.9-21.8,4.8.6,3.3,1.5,7.3v8.1l-1.1,2.3,1.8,2.1,5-3.4,3.6-3.2,1.9-2.1.8.6,2.7-1.5,5.2-1.1,7-3.5Z"
               data-name="Connecticut" data-abbreviation="CT"
               style="stroke-opacity: 0; fill: rgb(235, 243, 243);"
               data-svg-origin="844.2000732421875 165.50001525878906"
               transform="matrix(1,0,0,1,0,0)"></path>
      </g>
   </g>
   <g class="svg__path__seleccion" cursor="pointer" pointer-events="all">
      <g class="svg__path__seleccion__background">
            <path class="base"
               d="M828.6,189.4l-1.1-1-2.6-.2-2.3-1.9-1.6-6.1-3.5.1-2.4-2.7L795.7,182l-43,8.7-7.5,1.2-.7-6.5,1.4-1.1,1.3-1.1,1-1.6,1.8-1.1,1.9-1.8.5-1.6,2.1-2.7,1.1-1-.2-1-1.3-3.1-1.8-.2-1.9-6.1,2.9-1.8,4.4-1.5,4-1.3,3.2-.5,6.3-.2,1.9,1.3,1.6.2,2.1-1.3,2.6-1.1,5.2-.5,2.1-1.8,1.8-3.2,1.6-1.9h2.1l1.9-1.1.2-2.3-1.5-2.1-.3-1.5,1.1-2.1v-1.5h-1.8L790,138l-.8-1.1-.2-2.6,5.8-5.5.6-.8,1.5-2.9,2.9-4.5,2.7-3.7,2.1-2.4,2.4-1.8,3.1-1.2,5.5-1.3,3.2.2,4.5-1.5,7.6-2.1.5,5,2.4,6.5.8,5.2-1,3.9,2.6,4.5.8,2.1-.8,2.9,2.9,1.3.6.3,3.1,11-.5,5.1-.5,10.8.8,5.5.8,3.6,1.5,7.3v8.1l-1.1,2.3,1.8,2,.8,1.7-1.9,1.8.3,1.3,1.3-.3,1.5-1.3,2.3-2.6,1.1-.6,1.6.6,2.3.2,7.9-3.9,2.9-2.7,1.3-1.5,4.2,1.6-3.4,3.6-3.9,2.9-7.1,5.3-2.6,1-5.8,1.9-4,1.1-1.2-.5-.2-3.7.5-2.7-.2-2.1-2.8-1.7-4.5-1-3.9-1.1-3.5-2.1Z"
               data-name="New York" data-abbreviation="NY"
               style="stroke-opacity: 0; fill: rgb(195, 229, 230);"
               data-svg-origin="744.5 106.79998016357422" transform="matrix(1,0,0,1,0,0)">
            </path>

            <path class="show"
               d="M828.6,189.4l-1.1-1-2.6-.2-2.3-1.9-1.6-6.1-3.5.1-2.4-2.7L795.7,182l-43,8.7-7.5,1.2-.7-6.5,1.4-1.1,1.3-1.1,1-1.6,1.8-1.1,1.9-1.8.5-1.6,2.1-2.7,1.1-1-.2-1-1.3-3.1-1.8-.2-1.9-6.1,2.9-1.8,4.4-1.5,4-1.3,3.2-.5,6.3-.2,1.9,1.3,1.6.2,2.1-1.3,2.6-1.1,5.2-.5,2.1-1.8,1.8-3.2,1.6-1.9h2.1l1.9-1.1.2-2.3-1.5-2.1-.3-1.5,1.1-2.1v-1.5h-1.8L790,138l-.8-1.1-.2-2.6,5.8-5.5.6-.8,1.5-2.9,2.9-4.5,2.7-3.7,2.1-2.4,2.4-1.8,3.1-1.2,5.5-1.3,3.2.2,4.5-1.5,7.6-2.1.5,5,2.4,6.5.8,5.2-1,3.9,2.6,4.5.8,2.1-.8,2.9,2.9,1.3.6.3,3.1,11-.5,5.1-.5,10.8.8,5.5.8,3.6,1.5,7.3v8.1l-1.1,2.3,1.8,2,.8,1.7-1.9,1.8.3,1.3,1.3-.3,1.5-1.3,2.3-2.6,1.1-.6,1.6.6,2.3.2,7.9-3.9,2.9-2.7,1.3-1.5,4.2,1.6-3.4,3.6-3.9,2.9-7.1,5.3-2.6,1-5.8,1.9-4,1.1-1.2-.5-.2-3.7.5-2.7-.2-2.1-2.8-1.7-4.5-1-3.9-1.1-3.5-2.1Z"
               data-name="New York" data-abbreviation="NY"
               style="stroke-opacity: 0; fill: rgb(235, 243, 243);"
               data-svg-origin="744.5 106.79998016357422" transform="matrix(1,0,0,1,0,0)">
            </path>
      </g>
   </g>
   <g class="svg__path__seleccion" cursor="pointer" pointer-events="all">
      <g class="svg__path__seleccion__background">
            <path class="base"
               d="M822.2,226.5l1.1-.6,2.3-.6,1.5-2.7,1.6-2.3,3.2-3.1v-.8l-2.4-1.6-3.6-2.4-1-2.6-2.7-.3-.2-1.1-.8-2.7,2.3-1.1.2-2.4-1.3-1.3.2-1.6,1.9-3.1v-3.1l2.3-2.4.2-1.1-2.6-.2-2.3-1.9-2.4-5.3-3-.9-2.3-2.1-18.6,4-43,8.7-8.9,1.5-.5-7.1-5.5,5.6-1.3.5-4.2,3,2.9,19.1,2.5,9.7,3.6,19.3,3.3-.6,11.9-1.5,37.9-7.7,14.9-2.8,8.3-1.6.3-.2,2.1-1.6,2.1-1Z"
               data-name="Pennsylvania" data-abbreviation="PA"
               style="stroke-opacity: 0; fill: rgb(195, 229, 230);"></path>

            <path class="show"
               d="M822.2,226.5l1.1-.6,2.3-.6,1.5-2.7,1.6-2.3,3.2-3.1v-.8l-2.4-1.6-3.6-2.4-1-2.6-2.7-.3-.2-1.1-.8-2.7,2.3-1.1.2-2.4-1.3-1.3.2-1.6,1.9-3.1v-3.1l2.3-2.4.2-1.1-2.6-.2-2.3-1.9-2.4-5.3-3-.9-2.3-2.1-18.6,4-43,8.7-8.9,1.5-.5-7.1-5.5,5.6-1.3.5-4.2,3,2.9,19.1,2.5,9.7,3.6,19.3,3.3-.6,11.9-1.5,37.9-7.7,14.9-2.8,8.3-1.6.3-.2,2.1-1.6,2.1-1Z"
               data-name="Pennsylvania" data-abbreviation="PA"
               style="stroke-opacity: 0; fill: rgb(235, 243, 243);"></path>
      </g>
   </g>
   <g class="svg__path__seleccion" cursor="pointer" pointer-events="all">
      <g class="svg__path__seleccion__background">
            <path class="base"
               d="M828.2,190.3l-2.1,2.4v3.1l-1.9,3.1-.2,1.6,1.3,1.3-.2,2.4-2.3,1.1.8,2.7.2,1.1,2.7.3,1,2.6,3.6,2.4,2.4,1.6v.8l-3.2,3.1-1.6,2.3-1.5,2.7-2.3,1.3-1.2.7-.2,1.2-.6,2.6,1.1,2.2,3.2,2.9,4.8,2.3,4,.6.2,1.5-.8,1,.3,2.7h.8l2.1-2.4.8-4.8,2.7-4,3.1-6.5,1.1-5.5-.6-1.1-.2-9.4-1.6-3.4-1.1.8-2.7.3-.5-.5,1.1-1,2.1-1.9.1-1.1-.4-3.4.5-2.7-.2-2.1-2.6-1.1-4.5-1-3.9-1.1-3.6-1.7Z"
               data-name="New Jersey" data-abbreviation="NJ"
               style="stroke-opacity: 0; fill: rgb(195, 229, 230);">
            </path>

            <path class="show"
               d="M828.2,190.3l-2.1,2.4v3.1l-1.9,3.1-.2,1.6,1.3,1.3-.2,2.4-2.3,1.1.8,2.7.2,1.1,2.7.3,1,2.6,3.6,2.4,2.4,1.6v.8l-3.2,3.1-1.6,2.3-1.5,2.7-2.3,1.3-1.2.7-.2,1.2-.6,2.6,1.1,2.2,3.2,2.9,4.8,2.3,4,.6.2,1.5-.8,1,.3,2.7h.8l2.1-2.4.8-4.8,2.7-4,3.1-6.5,1.1-5.5-.6-1.1-.2-9.4-1.6-3.4-1.1.8-2.7.3-.5-.5,1.1-1,2.1-1.9.1-1.1-.4-3.4.5-2.7-.2-2.1-2.6-1.1-4.5-1-3.9-1.1-3.6-1.7Z"
               data-name="New Jersey" data-abbreviation="NJ"
               style="stroke-opacity: 0; fill: rgb(235, 243, 243);"></path>
      </g>
   </g>
   <g class="svg__path__seleccion" cursor="pointer" pointer-events="all">
      <g class="svg__path__seleccion__background">
            <path class="base"
               d="M822.4,230.4l.6-2.1v-1.2l-1.3-.1-2.1,1.6-1.5,1.5,1.5,4.2,2.3,5.7,2.1,9.7,1.6,6.3,5-.2,6.1-1.2-2.3-7.4-1,.5-3.6-2.4-1.8-4.7-1.9-3.6-2.3-1-2.1-3.6Z"
               data-name="Delaware" data-abbreviation="DE"
               style="stroke-opacity: 0; fill: rgb(195, 229, 230);">
            </path>

            <path class="show"
               d="M822.4,230.4l.6-2.1v-1.2l-1.3-.1-2.1,1.6-1.5,1.5,1.5,4.2,2.3,5.7,2.1,9.7,1.6,6.3,5-.2,6.1-1.2-2.3-7.4-1,.5-3.6-2.4-1.8-4.7-1.9-3.6-2.3-1-2.1-3.6Z"
               data-name="Delaware" data-abbreviation="DE"
               style="stroke-opacity: 0; fill: rgb(235, 243, 243);">
            </path>
      </g>
   </g>
   <g class="svg__path__seleccion" cursor="pointer" pointer-events="all">
      <g class="svg__path__seleccion__background">
            <path class="base"
               d="M837,255.3l-6.1,1.3-5.8.2-1.8-7.1-2.1-9.7-2.3-5.7-1.3-4.4-7.5,1.6-14.9,2.8-37.5,7.6,1.1,5,1,5.7.3-.3,2.1-2.4,2.3-2.6,2.4-.6,1.5-1.5,1.8-2.6,1.3.6,2.9-.3,2.6-2.1,2-1.5,1.8-.5,1.6,1.1,2.9,1.5,1.9,1.8,1.2,1.5,4.1,1.7v2.9l5.5,1.3,1.1.5,1.4-2,2.9,2-1.3,2.5-.8,4-1.8,2.6v2.1l.6,1.8,5.1,1.4,4.3-.1,3.1,1,2.1.3,1-2.1-1.5-2.1v-1.8l-2.4-2.1-2.1-5.5,1.3-5.3-.2-2.1-1.3-1.3s1.5-1.6,1.5-2.3a10.71,10.71,0,0,1,.5-2.1l1.9-1.3,1.9-1.6.5,1-1.5,1.6-1.3,3.7.3,1.1,1.8.3.5,5.5-2.1,1,.3,3.6.5-.2,1.1-1.9,1.6,1.8-1.6,1.3-.3,3.4,2.6,3.4,3.9.5,1.6-.8,3.2,4.2,1.4.5,6.7-2.8,2-4Zm-16.7,9,1.1,2.5.2,1.8,1.1,1.9s.9-.9.9-1.2-.7-3.1-.7-3.1l-.7-2.3-1.9.4Z"
               data-name="Maryland" data-abbreviation="MD"
               style="stroke-opacity: 0; fill: rgb(195, 229, 230);">
            </path>

            <path class="show"
               d="M837,255.3l-6.1,1.3-5.8.2-1.8-7.1-2.1-9.7-2.3-5.7-1.3-4.4-7.5,1.6-14.9,2.8-37.5,7.6,1.1,5,1,5.7.3-.3,2.1-2.4,2.3-2.6,2.4-.6,1.5-1.5,1.8-2.6,1.3.6,2.9-.3,2.6-2.1,2-1.5,1.8-.5,1.6,1.1,2.9,1.5,1.9,1.8,1.2,1.5,4.1,1.7v2.9l5.5,1.3,1.1.5,1.4-2,2.9,2-1.3,2.5-.8,4-1.8,2.6v2.1l.6,1.8,5.1,1.4,4.3-.1,3.1,1,2.1.3,1-2.1-1.5-2.1v-1.8l-2.4-2.1-2.1-5.5,1.3-5.3-.2-2.1-1.3-1.3s1.5-1.6,1.5-2.3a10.71,10.71,0,0,1,.5-2.1l1.9-1.3,1.9-1.6.5,1-1.5,1.6-1.3,3.7.3,1.1,1.8.3.5,5.5-2.1,1,.3,3.6.5-.2,1.1-1.9,1.6,1.8-1.6,1.3-.3,3.4,2.6,3.4,3.9.5,1.6-.8,3.2,4.2,1.4.5,6.7-2.8,2-4Zm-16.7,9,1.1,2.5.2,1.8,1.1,1.9s.9-.9.9-1.2-.7-3.1-.7-3.1l-.7-2.3-1.9.4Z"
               data-name="Maryland" data-abbreviation="MD"
               style="stroke-opacity: 0; fill: rgb(235, 243, 243);">
            </path>
      </g>
   </g>
   <g class="svg__path__seleccion" cursor="pointer" pointer-events="all">
      <g class="svg__path__seleccion__background">
            <path class="base"
               d="M756.6,242l1.1,4.9,1.1,6.9,3.6-2.7,2.3-3.1,2.5-.6,1.5-1.5,1.8-2.6,1.2.6,2.9-.3,2.6-2.1,2-1.5,1.8-.5,1.3,1,2.2,1.1,1.9,1.8,1.4,1.3-.1,4.7-5.7-3.1-4.5-1.8-.2,5.3-.5,2.1-1.6,2.7-.6,1.6-3.1,2.4-.5,2.3-3.4.3-.3,3.1-1.1,5.5h-2.6l-1.3-.8-1.6-2.7-1.8.2-.3,4.4-2.1,6.6-5,10.8.8,1.3-.2,2.7-2.1,1.9-1.5-.3-3.2,2.4-2.6-1-1.8,4.7s-3.7.8-4.4,1-2.4-1.3-2.4-1.3l-2.4,2.3-2.6.6-2.9-.8-1.3-1.3-2.2-3-3.1-2-2.6-2.7-2.9-3.7-.6-2.3-2.6-1.5-.8-1.6-.2-5.3,2.2-.1,1.9-.8.2-2.7,1.6-1.5.2-5,1-3.9,1.3-.6,1.3,1.1.5,1.8,1.8-1,.5-1.6-1.1-1.8v-2.4l1-1.3,2.3-3.4,1.3-1.5,2.1.5,2.3-1.6,3.1-3.4,2.3-3.9.3-5.7.5-5v-4.7l-1.1-3.1,1-1.5,1.3-1.3,3.5,19.8,4.6-.8,10.8-1Z"
               data-name="West Virginia" data-abbreviation="WV"
               style="stroke-opacity: 0; fill: rgb(195, 229, 230);"></path>

            <path class="show"
               d="M756.6,242l1.1,4.9,1.1,6.9,3.6-2.7,2.3-3.1,2.5-.6,1.5-1.5,1.8-2.6,1.2.6,2.9-.3,2.6-2.1,2-1.5,1.8-.5,1.3,1,2.2,1.1,1.9,1.8,1.4,1.3-.1,4.7-5.7-3.1-4.5-1.8-.2,5.3-.5,2.1-1.6,2.7-.6,1.6-3.1,2.4-.5,2.3-3.4.3-.3,3.1-1.1,5.5h-2.6l-1.3-.8-1.6-2.7-1.8.2-.3,4.4-2.1,6.6-5,10.8.8,1.3-.2,2.7-2.1,1.9-1.5-.3-3.2,2.4-2.6-1-1.8,4.7s-3.7.8-4.4,1-2.4-1.3-2.4-1.3l-2.4,2.3-2.6.6-2.9-.8-1.3-1.3-2.2-3-3.1-2-2.6-2.7-2.9-3.7-.6-2.3-2.6-1.5-.8-1.6-.2-5.3,2.2-.1,1.9-.8.2-2.7,1.6-1.5.2-5,1-3.9,1.3-.6,1.3,1.1.5,1.8,1.8-1,.5-1.6-1.1-1.8v-2.4l1-1.3,2.3-3.4,1.3-1.5,2.1.5,2.3-1.6,3.1-3.4,2.3-3.9.3-5.7.5-5v-4.7l-1.1-3.1,1-1.5,1.3-1.3,3.5,19.8,4.6-.8,10.8-1Z"
               data-name="West Virginia" data-abbreviation="WV"
               style="stroke-opacity: 0; fill: rgb(235, 243, 243);"></path>
      </g>
   </g>
   <g class="svg__path__seleccion" cursor="pointer" pointer-events="all">
      <g class="svg__path__seleccion__background">
            <path class="base"
               d="M828.9,269.2l-.1-1.9,6.5-2.5-.8,3.2-2.9,3.8-.4,4.6.5,3.4-1.8,5-2.2,1.9-1.5-4.6.4-5.4,1.6-4.2Zm2.3,28.3L773,310.1l-37.4,5.3-6.7-.4-2.6,1.9-7.3.2-8.4,1-8.9,1,8.5-4.9v-2.1l1.5-2.1,10.6-11.5,3.9,4.5,3.8,1,2.5-1.1,2.2-1.3,2.5,1.3,3.9-1.4,1.9-4.6,2.6.5,2.9-2.1,1.8.5,2.8-3.7.3-2.1-1-1.3,1-1.9,5.3-12.3.6-5.7,1.2-.5,2.2,2.4,3.9-.3,1.9-7.6,2.8-.6,1-2.7,2.6-2.3,1.3-2.3,1.5-3.4.1-5.1,9.8,3.8c.7.3.7-4.8.7-4.8l4.1,1.4-.5,2.6,8.2,2.9,1.3,1.8-.9,3.7-1.3,1.3-.5,1.7.5,2.4,2,1.3,3.9,1.4,2.9,1,4.9.9,2.2,2.1,3.2.4.9,1.2-.4,4.7,1.4,1.1-.5,1.9,1.2.8-.2,1.4-2.7-.1.1,1.6,2.3,1.5.1,1.4,1.8,1.8.5,2.5-2.6,1.4,1.6,1.5,5.8-1.7,3.6,6.2Z"
               data-name="Virginia" data-abbreviation="VA"
               style="stroke-opacity: 0; fill: rgb(195, 229, 230);">
            </path>

            <path class="show"
               d="M828.9,269.2l-.1-1.9,6.5-2.5-.8,3.2-2.9,3.8-.4,4.6.5,3.4-1.8,5-2.2,1.9-1.5-4.6.4-5.4,1.6-4.2Zm2.3,28.3L773,310.1l-37.4,5.3-6.7-.4-2.6,1.9-7.3.2-8.4,1-8.9,1,8.5-4.9v-2.1l1.5-2.1,10.6-11.5,3.9,4.5,3.8,1,2.5-1.1,2.2-1.3,2.5,1.3,3.9-1.4,1.9-4.6,2.6.5,2.9-2.1,1.8.5,2.8-3.7.3-2.1-1-1.3,1-1.9,5.3-12.3.6-5.7,1.2-.5,2.2,2.4,3.9-.3,1.9-7.6,2.8-.6,1-2.7,2.6-2.3,1.3-2.3,1.5-3.4.1-5.1,9.8,3.8c.7.3.7-4.8.7-4.8l4.1,1.4-.5,2.6,8.2,2.9,1.3,1.8-.9,3.7-1.3,1.3-.5,1.7.5,2.4,2,1.3,3.9,1.4,2.9,1,4.9.9,2.2,2.1,3.2.4.9,1.2-.4,4.7,1.4,1.1-.5,1.9,1.2.8-.2,1.4-2.7-.1.1,1.6,2.3,1.5.1,1.4,1.8,1.8.5,2.5-2.6,1.4,1.6,1.5,5.8-1.7,3.6,6.2Z"
               data-name="Virginia" data-abbreviation="VA"
               style="stroke-opacity: 0; fill: rgb(235, 243, 243);">
            </path>
      </g>
   </g>
   <g class="svg__path__seleccion" cursor="pointer" pointer-events="all">
      <g class="svg__path__seleccion__background">
            <path class="base"
               d="M721.8,297.8l-2.3,2.7-4.2,3.6L711,310l-1.8,1.8v2.1l-3.9,2.1-5.7,3.4-3.5.4-51.9,4.9-15.8,1.8-4.6.5h-3.9l-.2,4.2-8.2.1-7,.6-10.4.2,1.9-.2,2.2-1.8,2.1-1.1.2-3.2.9-1.8-1.6-2.5.8-1.9,2.3-1.8,2.1-.6,2.7,1.3,3.6,1.3,1.1-.3.2-2.3-1.3-2.4.3-2.3,1.9-1.5,2.6-.6,1.6-.6-.8-1.8-.6-1.9,1.1-.8,1.1-3.3,3-1.7,5.8-1,3.6-.5,1.5,1.9,1.8.8,1.8-3.2,2.9-1.5,1.9,1.6.8,1.1,2.1-.5-.2-3.4,2.9-1.6,1.1-.8,1.1,1.6h4.7l.8-2.1-.3-2.3,2.9-3.6,4.7-3.9.5-4.5,2.7-.3,3.9-1.8,2.7-1.9-.3-1.9-1.5-1.5.6-2.2,4.1-.2,2.4-.8,2.9,1.6,1.6,4.4,5.8.3,1.8,1.8,2.1.2,2.4-1.5,3.1.5,1.3,1.5,2.7-2.6,1.8-1.3h1.6l.6,2.7,1.8,1,2.4,2.2.2,5.5.8,1.6,2.6,1.5.6,2.3,2.9,3.7,2.6,2.7,3.7,1.9Z"
               data-name="Kentucky" data-abbreviation="KY"
               style="stroke-opacity: 0; fill: rgb(195, 229, 230);">
            </path>

            <path class="show"
               d="M721.8,297.8l-2.3,2.7-4.2,3.6L711,310l-1.8,1.8v2.1l-3.9,2.1-5.7,3.4-3.5.4-51.9,4.9-15.8,1.8-4.6.5h-3.9l-.2,4.2-8.2.1-7,.6-10.4.2,1.9-.2,2.2-1.8,2.1-1.1.2-3.2.9-1.8-1.6-2.5.8-1.9,2.3-1.8,2.1-.6,2.7,1.3,3.6,1.3,1.1-.3.2-2.3-1.3-2.4.3-2.3,1.9-1.5,2.6-.6,1.6-.6-.8-1.8-.6-1.9,1.1-.8,1.1-3.3,3-1.7,5.8-1,3.6-.5,1.5,1.9,1.8.8,1.8-3.2,2.9-1.5,1.9,1.6.8,1.1,2.1-.5-.2-3.4,2.9-1.6,1.1-.8,1.1,1.6h4.7l.8-2.1-.3-2.3,2.9-3.6,4.7-3.9.5-4.5,2.7-.3,3.9-1.8,2.7-1.9-.3-1.9-1.5-1.5.6-2.2,4.1-.2,2.4-.8,2.9,1.6,1.6,4.4,5.8.3,1.8,1.8,2.1.2,2.4-1.5,3.1.5,1.3,1.5,2.7-2.6,1.8-1.3h1.6l.6,2.7,1.8,1,2.4,2.2.2,5.5.8,1.6,2.6,1.5.6,2.3,2.9,3.7,2.6,2.7,3.7,1.9Z"
               data-name="Kentucky" data-abbreviation="KY"
               style="stroke-opacity: 0; fill: rgb(235, 243, 243);">
            </path>
      </g>
   </g>

   <g class="svg__path__seleccion" cursor="pointer" pointer-events="all">
      <g class="svg__path__seleccion__background">
            <path class="base"
               d="M140.7,177.6l21,4.5,9.7,1.9,9.3,1.8,6.6,1.6-.6,5.9-3.5,17.3-4.1,20-1.9,9.7L175,253.6,171.8,270l-3.5,15.7-2,10.2-2.5,16.8-.5,1.1-1.1,2.5-1.9-.1-1.1-2.7-2.7-.5-1.4-1-2,.3-.9.7-1.3,1.3-.4,7L150,323l-.4,12.1-1.3,1.7-1.9-2.3-14.5-22.7-19.4-29L89.6,249,77.2,230.4l1.6-6.6,7-25.9,7.9-31.3,33.6,8.1,13.7,3"
               data-name="Nevada" data-abbreviation="NV"
               style="stroke-opacity: 0; fill: rgb(195, 229, 230);">
            </path>

            <path class="show"
               d="M140.7,177.6l21,4.5,9.7,1.9,9.3,1.8,6.6,1.6-.6,5.9-3.5,17.3-4.1,20-1.9,9.7L175,253.6,171.8,270l-3.5,15.7-2,10.2-2.5,16.8-.5,1.1-1.1,2.5-1.9-.1-1.1-2.7-2.7-.5-1.4-1-2,.3-.9.7-1.3,1.3-.4,7L150,323l-.4,12.1-1.3,1.7-1.9-2.3-14.5-22.7-19.4-29L89.6,249,77.2,230.4l1.6-6.6,7-25.9,7.9-31.3,33.6,8.1,13.7,3"
               data-name="Nevada" data-abbreviation="NV"
               style="stroke-opacity: 0; fill: rgb(235, 243, 243);">
            </path>
      </g>
   </g>
   <g class="svg__path__seleccion" cursor="pointer" pointer-events="all">
      <g class="svg__path__seleccion__background">
            <path class="base"
               d="M136.7,386.8l3.8-.5,1.5-2,.7-1.9-3.2-.1-1.1-1.8.8-1.7v-6.2l2.2-1.3,2.7-2.6.4-4.9,1.6-3.5,1.9-2.1,3.3-1.7,1.3-.7.8-1.5-.9-.9-1-1.5-.9-5.3-2.9-5.2.1-2.8-2.2-3.2-15-23.2-19.4-28.7-22.4-33L76.1,231l1.8-7.2,6.8-25.9,8.1-31.4-12.4-3.3-13.5-3.4-12.6-4.1-7.5-2.1-11.4-3-7.1-2.4-1.6,4.7-.2,7.4-5.2,11.8-3.1,2.6-.3,1.1-1.8.8-1.5,4.2-.8,3.2,2.7,4.2,1.6,4.2,1.1,3.6-.3,6.5-1.8,3.1-.6,5.8-1,3.7,1.8,3.9,2.7,4.5,2.3,4.8,1.3,4-.3,3.2-.3.5v2.1l5.7,6.3-.5,2.4-.6,2.3L27,251l.2,8.2,2.1,3.7,1.9,2.6,2.7.5,1,2.7-1.1,3.6-2.1,1.6H30.6l-.8,3.9.5,2.9,3.2,4.4,1.6,5.3,1.5,4.7,1.3,3.1,3.4,5.8,1.5,2.6.5,2.9,1.6,1v2.4l-.8,1.9-1.8,7.1-.5,1.9,2.4,2.7,4.2.5,4.5,1.8,3.9,2.1h2.9l2.9,3.1,2.6,4.8,1.1,2.3,3.9,2.1,4.8.8,1.5,2.1.6,3.2-1.5.6.3,1,3.2.8,2.7.2,2.9,4.7,3.9,4.2.8,2.3,2.6,4.2.3,3.2v9.4l.5,1.8,10,1.5,19.7,2.7,14.2.9ZM48.8,337l1.3,1.5-.2,1.3-3.2-.1-.6-1.2-.6-1.5Zm1.9,0,1.2-.6,3.6,2.1,3.1,1.2-.9.6-4.5-.2-1.6-1.6Zm20.7,19.8,1.8,2.3.8,1,1.5.6.6-1.5-1-1.8-2.7-2-1.1.2v1.2ZM70,365.5l1.8,3.2,1.2,1.9-1.5.2-1.3-1.2a9.84,9.84,0,0,1-.7-1.9v-2.2Z"
               data-name="California" data-abbreviation="CA"
               style="stroke-opacity: 0; fill: rgb(195, 229, 230);"
               data-svg-origin="13.800000190734863 148.20001220703125"
               transform="matrix(1,0,0,1,0,0)"></path>

            <path class="show"
               d="M136.7,386.8l3.8-.5,1.5-2,.7-1.9-3.2-.1-1.1-1.8.8-1.7v-6.2l2.2-1.3,2.7-2.6.4-4.9,1.6-3.5,1.9-2.1,3.3-1.7,1.3-.7.8-1.5-.9-.9-1-1.5-.9-5.3-2.9-5.2.1-2.8-2.2-3.2-15-23.2-19.4-28.7-22.4-33L76.1,231l1.8-7.2,6.8-25.9,8.1-31.4-12.4-3.3-13.5-3.4-12.6-4.1-7.5-2.1-11.4-3-7.1-2.4-1.6,4.7-.2,7.4-5.2,11.8-3.1,2.6-.3,1.1-1.8.8-1.5,4.2-.8,3.2,2.7,4.2,1.6,4.2,1.1,3.6-.3,6.5-1.8,3.1-.6,5.8-1,3.7,1.8,3.9,2.7,4.5,2.3,4.8,1.3,4-.3,3.2-.3.5v2.1l5.7,6.3-.5,2.4-.6,2.3L27,251l.2,8.2,2.1,3.7,1.9,2.6,2.7.5,1,2.7-1.1,3.6-2.1,1.6H30.6l-.8,3.9.5,2.9,3.2,4.4,1.6,5.3,1.5,4.7,1.3,3.1,3.4,5.8,1.5,2.6.5,2.9,1.6,1v2.4l-.8,1.9-1.8,7.1-.5,1.9,2.4,2.7,4.2.5,4.5,1.8,3.9,2.1h2.9l2.9,3.1,2.6,4.8,1.1,2.3,3.9,2.1,4.8.8,1.5,2.1.6,3.2-1.5.6.3,1,3.2.8,2.7.2,2.9,4.7,3.9,4.2.8,2.3,2.6,4.2.3,3.2v9.4l.5,1.8,10,1.5,19.7,2.7,14.2.9ZM48.8,337l1.3,1.5-.2,1.3-3.2-.1-.6-1.2-.6-1.5Zm1.9,0,1.2-.6,3.6,2.1,3.1,1.2-.9.6-4.5-.2-1.6-1.6Zm20.7,19.8,1.8,2.3.8,1,1.5.6.6-1.5-1-1.8-2.7-2-1.1.2v1.2ZM70,365.5l1.8,3.2,1.2,1.9-1.5.2-1.3-1.2a9.84,9.84,0,0,1-.7-1.9v-2.2Z"
               data-name="California" data-abbreviation="CA"
               style="stroke-opacity: 0; fill: rgb(235, 243, 243);"
               data-svg-origin="13.800000190734863 148.20001220703125"
               transform="matrix(1,0,0,1,0,0)"></path>
      </g>
   </g>
   <g class="svg__path__seleccion" cursor="pointer" pointer-events="all">
      <g class="svg__path__seleccion__background">
            <path class="base"
               d="M253,309.3l-24.6-3.5-26.6-4.9-33.8-6,1.6-9.2,3.2-15.2L176,254l2.2-13.6,1.9-8.9,3.8-20.5,3.5-17.5,1.1-5.6,12.7,2.3,12,2.1,10.3,1.8,8.3,1.4,3.7.5L234,206.6l-2.3,13.2,7.8.9,16.4,1.8,8.2.9-2.1,22L258.8,268,255,295.8l-1.7,11.1Z"
               data-name="Utah" data-abbreviation="UT"
               style="stroke-opacity: 0; fill: rgb(195, 229, 230);">
            </path>

            <path class="show"
               d="M253,309.3l-24.6-3.5-26.6-4.9-33.8-6,1.6-9.2,3.2-15.2L176,254l2.2-13.6,1.9-8.9,3.8-20.5,3.5-17.5,1.1-5.6,12.7,2.3,12,2.1,10.3,1.8,8.3,1.4,3.7.5L234,206.6l-2.3,13.2,7.8.9,16.4,1.8,8.2.9-2.1,22L258.8,268,255,295.8l-1.7,11.1Z"
               data-name="Utah" data-abbreviation="UT"
               style="stroke-opacity: 0; fill: rgb(235, 243, 243);">
            </path>
      </g>
   </g>
   <g class="svg__path__seleccion" cursor="pointer" pointer-events="all">
      <g class="svg__path__seleccion__background">
            <path class="base"
               d="M378.6,256.8l1.4-21.3-32.1-3.1-24.5-2.7-37.3-4.1-20.7-2.5-2.6,22.2-3.2,22.4-3.8,28-1.5,11.1-.3,2.8,33.9,3.8,37.7,4.3,32,3.2,16.6.8"
               data-name="Colorado" data-abbreviation="CO"
               style="stroke-opacity: 0; fill: rgb(195, 229, 230);">
            </path>

            <path class="show"
               d="M378.6,256.8l1.4-21.3-32.1-3.1-24.5-2.7-37.3-4.1-20.7-2.5-2.6,22.2-3.2,22.4-3.8,28-1.5,11.1-.3,2.8,33.9,3.8,37.7,4.3,32,3.2,16.6.8"
               data-name="Colorado" data-abbreviation="CO"
               style="stroke-opacity: 0; fill: rgb(235, 243, 243);">
            </path>
      </g>
   </g>
   <g class="svg__path__seleccion" cursor="pointer" pointer-events="all">
      <g class="svg__path__seleccion__background">
            <path class="base"
               d="M503.4,325.1l-12.6.2-46.1-.5-44.6-2.1-24.6-1.3,4.1-64.7,21.8.8,40.5,1.4,44.1.5h5.1l3.2,3.2,2.8.2.9,1.1v2l-1.8,1.6-.5,2.6,2.2,3.6,2.5,3.1,2.5,2L504,290Z"
               data-name="Kansas" data-abbreviation="KS"
               style="stroke-opacity: 0; fill: rgb(195, 229, 230);">
            </path>

            <path class="show"
               d="M503.4,325.1l-12.6.2-46.1-.5-44.6-2.1-24.6-1.3,4.1-64.7,21.8.8,40.5,1.4,44.1.5h5.1l3.2,3.2,2.8.2.9,1.1v2l-1.8,1.6-.5,2.6,2.2,3.6,2.5,3.1,2.5,2L504,290Z"
               data-name="Kansas" data-abbreviation="KS"
               style="stroke-opacity: 0; fill: rgb(235, 243, 243);">
            </path>
      </g>
   </g>
   <g class="svg__path__seleccion" cursor="pointer" pointer-events="all">
      <g class="svg__path__seleccion__background">
            <path class="base"
               d="M137.7,387.5l-2.6,2.2-.3,1.5.5,1,18.9,10.7,12.1,7.6,14.7,8.6,16.8,10,12.3,2.4,25.1,2.7,2.5-12.5,3.8-27.2,7-52.9,4.3-31-24.6-3.7L201,302.3,167.6,296l-2.9,18.1-.5.5-1.7,2.6-2.5-.1-1.3-2.7-2.7-.3-.9-1.1h-.9l-.9.6-1.9,1-.1,7-.2,1.7-.6,12.6-1.5,2.2-.6,3.3,2.7,4.9,1.3,5.8.8,1,1,.6-.1,2.3-1.6,1.4-3.4,1.7-1.9,1.9-1.5,3.7-.6,4.9-2.9,2.7-2.1.7-.1,5.8-.5,1.7.5.8,3.7.6-.6,2.7-1.5,2.2-3.9.7Z"
               data-name="Arizona" data-abbreviation="AZ"
               style="stroke-opacity: 0; fill: rgb(195, 229, 230);">
            </path>

            <path class="show"
               d="M137.7,387.5l-2.6,2.2-.3,1.5.5,1,18.9,10.7,12.1,7.6,14.7,8.6,16.8,10,12.3,2.4,25.1,2.7,2.5-12.5,3.8-27.2,7-52.9,4.3-31-24.6-3.7L201,302.3,167.6,296l-2.9,18.1-.5.5-1.7,2.6-2.5-.1-1.3-2.7-2.7-.3-.9-1.1h-.9l-.9.6-1.9,1-.1,7-.2,1.7-.6,12.6-1.5,2.2-.6,3.3,2.7,4.9,1.3,5.8.8,1,1,.6-.1,2.3-1.6,1.4-3.4,1.7-1.9,1.9-1.5,3.7-.6,4.9-2.9,2.7-2.1.7-.1,5.8-.5,1.7.5.8,3.7.6-.6,2.7-1.5,2.2-3.9.7Z"
               data-name="Arizona" data-abbreviation="AZ"
               style="stroke-opacity: 0; fill: rgb(235, 243, 243);">
            </path>
      </g>
   </g>
   <g class="svg__path__seleccion" cursor="pointer" pointer-events="all">
      <g class="svg__path__seleccion__background">
            <path class="base"
               d="M282.7,431l-.7-6.1,8.6.5,29.5,3.1,28.4,1.4,2-22.3,3.7-55.9,1.1-19.4,2,.3V321.5l-32.2-2.4-36.9-4.4-34.5-4.1-4.2,30.8-7,53.2-3.8,26.9-2,13.3,15.5,2,1.3-10,16.7,2.6Z"
               data-name="New Mexico" data-abbreviation="NM"
               style="stroke-opacity: 0; fill: rgb(195, 229, 230);">
            </path>

            <path class="show"
               d="M282.7,431l-.7-6.1,8.6.5,29.5,3.1,28.4,1.4,2-22.3,3.7-55.9,1.1-19.4,2,.3V321.5l-32.2-2.4-36.9-4.4-34.5-4.1-4.2,30.8-7,53.2-3.8,26.9-2,13.3,15.5,2,1.3-10,16.7,2.6Z"
               data-name="New Mexico" data-abbreviation="NM"
               style="stroke-opacity: 0; fill: rgb(235, 243, 243);"></path>
      </g>
   </g>
   <g class="svg__path__seleccion" cursor="pointer" pointer-events="all">
      <g class="svg__path__seleccion__background">
            <path class="base"
               d="M375.3,322.6l-10.7-.5-6.4-.5.3.2-.7,10.4,22,1.4,32.1,1.3-2.3,24.4-.5,17.8.2,1.6,4.3,3.7,2.1,1.1.7-.2.7-2.1,1.4,1.8h2.1v-1.4l2.7,1.4-.5,3.9,4.1.2,2.5,1.1,4.1.7,2.5,1.8,2.3-2.1,3.4.7,2.5,3.4h.9V395l2.3.7,2.3-2.3,1.8.7H454l.9,2.5,4.8,1.8,1.4-.7,1.8-4.1H464l1.1,2.1,4.1.7,3.7,1.4,3,.9,1.8-.9.7-2.5h4.3l2.1.9,2.7-2.1h1.1l.7,1.6h4.1l1.6-2.1,1.8.5,2.1,2.5,3.2,1.8,3.2.9,1.9,1.1-.4-37.2-1.4-11-.2-8.9-1.4-6.5-.8-7.2-.1-3.8-12.1.3-46.4-.5-45-2.1-24.1-.9Z"
               data-name="Oklahoma" data-abbreviation="OK"
               style="stroke-opacity: 0; fill: rgb(195, 229, 230);">
            </path>

            <path class="show"
               d="M375.3,322.6l-10.7-.5-6.4-.5.3.2-.7,10.4,22,1.4,32.1,1.3-2.3,24.4-.5,17.8.2,1.6,4.3,3.7,2.1,1.1.7-.2.7-2.1,1.4,1.8h2.1v-1.4l2.7,1.4-.5,3.9,4.1.2,2.5,1.1,4.1.7,2.5,1.8,2.3-2.1,3.4.7,2.5,3.4h.9V395l2.3.7,2.3-2.3,1.8.7H454l.9,2.5,4.8,1.8,1.4-.7,1.8-4.1H464l1.1,2.1,4.1.7,3.7,1.4,3,.9,1.8-.9.7-2.5h4.3l2.1.9,2.7-2.1h1.1l.7,1.6h4.1l1.6-2.1,1.8.5,2.1,2.5,3.2,1.8,3.2.9,1.9,1.1-.4-37.2-1.4-11-.2-8.9-1.4-6.5-.8-7.2-.1-3.8-12.1.3-46.4-.5-45-2.1-24.1-.9Z"
               data-name="Oklahoma" data-abbreviation="OK"
               style="stroke-opacity: 0; fill: rgb(235, 243, 243);">
            </path>
      </g>
   </g>
   <g class="svg__path__seleccion" cursor="pointer" pointer-events="all">
      <g class="svg__path__seleccion__background">
            <path class="base"
               d="M357.1,333.4l22.7,1.1,31.1,1.1-2.3,23.5-.3,18.2.1,2.1,4.3,3.8,1.7.8,1.8.3.7-1.3.9.9,1.7.5,1.6-.7,1.1.4-.3,3.4,4.3,1,2.7.8,4,.5,2.2,1.8,3.2-1.6,2.8.4,2,2.8,1.1.3-.2,2,3.1,1.2,2.8-1.8,1.5.4,2.4.2.4,1.9,4.6,2,2.7-.2,2-4.1h.3l1.1,1.9,4.4,1,3.3,1.2,3.3.8,2.1-.8.8-2.5h3.7l1.9.8,3.1-1.6h.7l.4,1.1h4.3l2.4-1.3,1.7.3,1.4,1.9,2.9,1.7,3.5,1.1,2.7,1.4,2.4,1.6,3.3-.9,1.9,1,.5,10.1.3,9.7.7,9.5.5,4,2.7,4.6,1.1,4.1,3.9,6.3.5,2.9.5,1-.7,7.5-2.7,4.4,1,2.9-.4,2.5-.8,7.3-1.4,2.7.6,4.4-5.7,1.6-9.9,4.5-1,1.9-2.6,1.9-2.1,1.5-1.3.8-5.7,5.3-2.7,2.1-5.3,3.2-5.7,2.4-6.3,3.4-1.8,1.5-5.8,3.6-3.4.6-3.9,5.5-4,.3-1,1.9,2.3,1.9-1.5,5.5-1.3,4.5-1.1,3.9-.8,4.5.8,2.4,1.8,7,1,6.1,1.8,2.7-1,1.5-3.1,1.9-5.7-3.9-5.5-1.1-1.3.5-3.2-.6-4.2-3.1-5.2-1.1-7.6-3.4-2.1-3.9-1.3-6.5-3.2-1.9-.6-2.3.6-.6.3-3.4-1.3-.6-.6-1,1.3-4.4-1.6-2.3-3.2-1.3-3.4-4.4-3.6-6.6-4.2-2.6.2-1.9-5.3-12.3-.8-4.2-1.8-1.9-.2-1.5-6-5.3-2.6-3.1v-1.1l-2.6-2.1-6.8-1.1-7.4-.6-3.1-2.3-4.5,1.8L352,483l-2.3,3.2-1,3.7-4.4,6.1-2.4,2.4-2.6-1-1.8-1.1-1.9-.6-3.9-2.3v-.6l-1.8-1.9-5.2-2.1-7.4-7.8-2.3-4.7v-8.1l-3.2-6.5-.5-2.7-1.6-1-1.1-2.1-5-2.1-1.3-1.6-7.1-7.9-1.3-3.2-4.7-2.3-1.5-4.4-2.6-2.9-1.9-.5-.6-4.7,8,.7,29,2.7,29,1.6,2.3-23.8,3.9-55.6,1.6-18.7h1.4m99.4,234.1-.6-7.1-2.7-7.2-.6-7,1.5-8.2,3.3-6.9,3.5-5.4,3.2-3.6.6.2-4.8,6.6-4.4,6.5-2,6.6-.3,5.2.9,6.1,2.6,7.2.5,5.2.2,1.5-.9.3Z"
               data-name="Texas" data-abbreviation="TX"
               style="stroke-opacity: 0; fill: rgb(195, 229, 230);"
               data-svg-origin="282.60003662109375 333.20001220703125"
               transform="matrix(1,0,0,1,0,0)"></path>

            <path class="show"
               d="M357.1,333.4l22.7,1.1,31.1,1.1-2.3,23.5-.3,18.2.1,2.1,4.3,3.8,1.7.8,1.8.3.7-1.3.9.9,1.7.5,1.6-.7,1.1.4-.3,3.4,4.3,1,2.7.8,4,.5,2.2,1.8,3.2-1.6,2.8.4,2,2.8,1.1.3-.2,2,3.1,1.2,2.8-1.8,1.5.4,2.4.2.4,1.9,4.6,2,2.7-.2,2-4.1h.3l1.1,1.9,4.4,1,3.3,1.2,3.3.8,2.1-.8.8-2.5h3.7l1.9.8,3.1-1.6h.7l.4,1.1h4.3l2.4-1.3,1.7.3,1.4,1.9,2.9,1.7,3.5,1.1,2.7,1.4,2.4,1.6,3.3-.9,1.9,1,.5,10.1.3,9.7.7,9.5.5,4,2.7,4.6,1.1,4.1,3.9,6.3.5,2.9.5,1-.7,7.5-2.7,4.4,1,2.9-.4,2.5-.8,7.3-1.4,2.7.6,4.4-5.7,1.6-9.9,4.5-1,1.9-2.6,1.9-2.1,1.5-1.3.8-5.7,5.3-2.7,2.1-5.3,3.2-5.7,2.4-6.3,3.4-1.8,1.5-5.8,3.6-3.4.6-3.9,5.5-4,.3-1,1.9,2.3,1.9-1.5,5.5-1.3,4.5-1.1,3.9-.8,4.5.8,2.4,1.8,7,1,6.1,1.8,2.7-1,1.5-3.1,1.9-5.7-3.9-5.5-1.1-1.3.5-3.2-.6-4.2-3.1-5.2-1.1-7.6-3.4-2.1-3.9-1.3-6.5-3.2-1.9-.6-2.3.6-.6.3-3.4-1.3-.6-.6-1,1.3-4.4-1.6-2.3-3.2-1.3-3.4-4.4-3.6-6.6-4.2-2.6.2-1.9-5.3-12.3-.8-4.2-1.8-1.9-.2-1.5-6-5.3-2.6-3.1v-1.1l-2.6-2.1-6.8-1.1-7.4-.6-3.1-2.3-4.5,1.8L352,483l-2.3,3.2-1,3.7-4.4,6.1-2.4,2.4-2.6-1-1.8-1.1-1.9-.6-3.9-2.3v-.6l-1.8-1.9-5.2-2.1-7.4-7.8-2.3-4.7v-8.1l-3.2-6.5-.5-2.7-1.6-1-1.1-2.1-5-2.1-1.3-1.6-7.1-7.9-1.3-3.2-4.7-2.3-1.5-4.4-2.6-2.9-1.9-.5-.6-4.7,8,.7,29,2.7,29,1.6,2.3-23.8,3.9-55.6,1.6-18.7h1.4m99.4,234.1-.6-7.1-2.7-7.2-.6-7,1.5-8.2,3.3-6.9,3.5-5.4,3.2-3.6.6.2-4.8,6.6-4.4,6.5-2,6.6-.3,5.2.9,6.1,2.6,7.2.5,5.2.2,1.5-.9.3Z"
               data-name="Texas" data-abbreviation="TX"
               style="stroke-opacity: 0; fill: rgb(235, 243, 243);"
               data-svg-origin="282.60003662109375 333.20001220703125"
               transform="matrix(1,0,0,1,0,0)"></path>
      </g>
   </g>
   <g class="svg__path__seleccion" cursor="pointer" pointer-events="all">
      <g class="svg__path__seleccion__background">
            <path class="base"
               d="M591,345l-3.8.9-6.2-.5.7-3,3.2-2.7.5-2.3-1.8-3-11,.5-20.8.9-23.3.7L505,337l1.6,6.9v8.2l1.4,11,.2,37.8,2.3,1.9,3-1.4,2.7,1.1.4,10.3,22.9-.1,18.9-.8,10.1-.2,1.1-2.1-.3-3.5-1.8-3,1.6-1.5-1.6-2.5.7-2.5,1.4-5.6,2.5-2.1-.7-2.3,3.7-5.4,2.7-1.4-.1-1.5-.3-1.8,2.9-5.6,2.4-1.3.4-3.4,1.8-1.2.9-4.2-1.3-4,4-2.4.6-2,1.2-4.3.7-3.1Z"
               data-name="Arkansas" data-abbreviation="AR"
               style="stroke-opacity: 0; fill: rgb(195, 229, 230);">
            </path>

            <path class="show"
               d="M591,345l-3.8.9-6.2-.5.7-3,3.2-2.7.5-2.3-1.8-3-11,.5-20.8.9-23.3.7L505,337l1.6,6.9v8.2l1.4,11,.2,37.8,2.3,1.9,3-1.4,2.7,1.1.4,10.3,22.9-.1,18.9-.8,10.1-.2,1.1-2.1-.3-3.5-1.8-3,1.6-1.5-1.6-2.5.7-2.5,1.4-5.6,2.5-2.1-.7-2.3,3.7-5.4,2.7-1.4-.1-1.5-.3-1.8,2.9-5.6,2.4-1.3.4-3.4,1.8-1.2.9-4.2-1.3-4,4-2.4.6-2,1.2-4.3.7-3.1Z"
               data-name="Arkansas" data-abbreviation="AR"
               style="stroke-opacity: 0; fill: rgb(235, 243, 243);">
            </path>
      </g>
   </g>
   <g class="svg__path__seleccion" cursor="pointer" pointer-events="all">
      <g class="svg__path__seleccion__background">
            <path class="base"
               d="M697.1,320.6l-51.9,5-15.8,1.8-4.6.5h-3.9v3.9l-8.4.5-7,.6-11.1.1-.3,5.8-2.1,6.3-1,3-1.3,4.4-.3,2.6-4,2.3,1.5,3.6-1,4.4-1,.8,7.3-.2,24.1-1.9,5.3-.2,8.1-.5,27.8-2.6,10.2-.8,8.4-1,8.4-1.1,4.8-.8-.1-4.5,1.8-1.5,2.7-.6.6-3.7,4.2-2.7,3.9-1.5,4.2-3.6,4.4-2.1.9-3.5,4.3-3.9.6-.2s0,1.1.8,1.1a8.75,8.75,0,0,1,1.9.3l2.3-3.6,2.1-.6,2.3.3,1.6-3.6,2.1-2.2.6-1,.2-3.9-1.5-.3-2.4,1.9-7.9.2-12,1.9-9.8.8Z"
               data-name="Tennessee" data-abbreviation="TN"
               style="stroke-opacity: 0; fill: rgb(195, 229, 230);">
            </path>

            <path class="show"
               d="M697.1,320.6l-51.9,5-15.8,1.8-4.6.5h-3.9v3.9l-8.4.5-7,.6-11.1.1-.3,5.8-2.1,6.3-1,3-1.3,4.4-.3,2.6-4,2.3,1.5,3.6-1,4.4-1,.8,7.3-.2,24.1-1.9,5.3-.2,8.1-.5,27.8-2.6,10.2-.8,8.4-1,8.4-1.1,4.8-.8-.1-4.5,1.8-1.5,2.7-.6.6-3.7,4.2-2.7,3.9-1.5,4.2-3.6,4.4-2.1.9-3.5,4.3-3.9.6-.2s0,1.1.8,1.1a8.75,8.75,0,0,1,1.9.3l2.3-3.6,2.1-.6,2.3.3,1.6-3.6,2.1-2.2.6-1,.2-3.9-1.5-.3-2.4,1.9-7.9.2-12,1.9-9.8.8Z"
               data-name="Tennessee" data-abbreviation="TN"
               style="stroke-opacity: 0; fill: rgb(235, 243, 243);">
            </path>
      </g>
   </g>
   <g class="svg__path__seleccion" cursor="pointer" pointer-events="all">
      <g class="svg__path__seleccion__background">
            <path class="base"
               d="M832.1,298.5l1.7,4.7,3.6,6.5,2.4,2.4.6,2.3-2.4.2.8.6-.3,4.2-2.6,1.3-.6,2.1-1.3,2.9-3.7,1.6-2.4-.3-1.5-.2-1.6-1.3.3,1.3v1H827l.8,1.3-1.9,6.3h4.2l.6,1.6,2.3-2.3,1.3-.5-1.9,3.6-3.1,4.8H828l-1.1-.5-2.7.6-5.2,2.4-6.5,5.3-3.4,4.7-1.9,6.5-.5,2.4-4.7.5-5.5,1.3-9.9-8.2L774,350l-2.9-.8-12.6,1.5-4.3.8-1.6-3.2-3-2.1-16.5.5-7.3.8-9.1,4.5-6.1,2.6-1.6.3-5.8,1-7,.8-6.8.5.5-4.1,1.8-1.5,2.7-.6.6-3.7,4.2-2.7,3.9-1.5,4.2-3.6,4.4-2.1.6-3.1,3.9-3.9.6-.2s0,1.1.8,1.1a8.75,8.75,0,0,1,1.9.3l2.3-3.6,2.1-.6,2.3.3,1.6-3.6,2.9-2.6.5-2.1v-4l4.5.7,7.1-1.3,15.8-1.9,17.1-2.6,19.9-4,19.7-4.2,11.4-2.8,5.4-.8Zm3.9,33,2.6-2.5,3.2-2.6,1.5-.6.2-2-.6-6.1-1.5-2.3-.6-1.9.7-.2,2.7,5.5.4,4.4-.2,3.4-3.4,1.5-2.8,2.4-1.1,1.2-1.1-.2Z"
               data-name="North Carolina" data-abbreviation="NC"
               style="stroke-opacity: 0; fill: rgb(195, 229, 230);"></path>

            <path class="show"
               d="M832.1,298.5l1.7,4.7,3.6,6.5,2.4,2.4.6,2.3-2.4.2.8.6-.3,4.2-2.6,1.3-.6,2.1-1.3,2.9-3.7,1.6-2.4-.3-1.5-.2-1.6-1.3.3,1.3v1H827l.8,1.3-1.9,6.3h4.2l.6,1.6,2.3-2.3,1.3-.5-1.9,3.6-3.1,4.8H828l-1.1-.5-2.7.6-5.2,2.4-6.5,5.3-3.4,4.7-1.9,6.5-.5,2.4-4.7.5-5.5,1.3-9.9-8.2L774,350l-2.9-.8-12.6,1.5-4.3.8-1.6-3.2-3-2.1-16.5.5-7.3.8-9.1,4.5-6.1,2.6-1.6.3-5.8,1-7,.8-6.8.5.5-4.1,1.8-1.5,2.7-.6.6-3.7,4.2-2.7,3.9-1.5,4.2-3.6,4.4-2.1.6-3.1,3.9-3.9.6-.2s0,1.1.8,1.1a8.75,8.75,0,0,1,1.9.3l2.3-3.6,2.1-.6,2.3.3,1.6-3.6,2.9-2.6.5-2.1v-4l4.5.7,7.1-1.3,15.8-1.9,17.1-2.6,19.9-4,19.7-4.2,11.4-2.8,5.4-.8Zm3.9,33,2.6-2.5,3.2-2.6,1.5-.6.2-2-.6-6.1-1.5-2.3-.6-1.9.7-.2,2.7,5.5.4,4.4-.2,3.4-3.4,1.5-2.8,2.4-1.1,1.2-1.1-.2Z"
               data-name="North Carolina" data-abbreviation="NC"
               style="stroke-opacity: 0; fill: rgb(235, 243, 243);"></path>
      </g>
   </g>
   <g class="svg__path__seleccion" cursor="pointer" pointer-events="all">
      <g class="svg__path__seleccion__background">
            <path class="base"
               d="M624.6,467l-.3,1.3h-5.2l-1.5-.8-2.1-.3-6.8,1.9-1.8-.8-2.6,4.2-1.1.8-1.1-2.5-1.1-3.9-3.4-3.2,1.1-7.5-.7-.9-1.8.2-8.2.7-24.2.7-.5-1.6.7-8,3.4-6.2,5.3-9.1-.9-2.1h1.1l.7-3.2-2.3-1.8.2-1.8-2.1-4.6-.3-5.3,1.4-2.7-.4-4.3-1.4-3,1.4-1.4-1.4-2.1.5-1.8.9-6.2,3-2.7-.7-2.1,3.7-5.3,2.7-.9v-2.5l-.7-1.4,2.7-5.3,2.7-1.1.1-3.4,8.7-.1,24.1-1.9,4.6-.2v6.4l.2,16.7-.8,31-.2,14.1,2.7,18.8,1.7,15.2Z"
               data-name="Mississippi" data-abbreviation="MS"
               style="stroke-opacity: 0; fill: rgb(195, 229, 230);"></path>

            <path class="show"
               d="M624.6,467l-.3,1.3h-5.2l-1.5-.8-2.1-.3-6.8,1.9-1.8-.8-2.6,4.2-1.1.8-1.1-2.5-1.1-3.9-3.4-3.2,1.1-7.5-.7-.9-1.8.2-8.2.7-24.2.7-.5-1.6.7-8,3.4-6.2,5.3-9.1-.9-2.1h1.1l.7-3.2-2.3-1.8.2-1.8-2.1-4.6-.3-5.3,1.4-2.7-.4-4.3-1.4-3,1.4-1.4-1.4-2.1.5-1.8.9-6.2,3-2.7-.7-2.1,3.7-5.3,2.7-.9v-2.5l-.7-1.4,2.7-5.3,2.7-1.1.1-3.4,8.7-.1,24.1-1.9,4.6-.2v6.4l.2,16.7-.8,31-.2,14.1,2.7,18.8,1.7,15.2Z"
               data-name="Mississippi" data-abbreviation="MS"
               style="stroke-opacity: 0; fill: rgb(235, 243, 243);"></path>
      </g>
   </g>
   <g class="svg__path__seleccion" cursor="pointer" pointer-events="all">
      <g class="svg__path__seleccion__background">
            <path class="base"
               d="M602.2,473l-1-2.6-1.1-3.1-3.3-3.5.9-6.8-.1-1.1-1.3.3-8.2.9-25,.5-.7-2.4.9-8.5,3.3-5.9,5-8.7-.6-2.4,1.3-.7.5-2-2.3-2.1-.1-1.9-1.8-4.3-.5-5.9-9.7.1-19.2.9H517v9.6l.7,9.4.7,3.9,2.5,4.1.9,5,4.3,5.5.2,3.2.7.7-.7,8.5-3,5,1.6,2.1-.7,2.5-.7,7.3-1.4,3.2.1,3.6,4.7-1.5,8.1-.3,10.3,3.6,6.5,1.1,3.7-1.5,3.2,1.1,3.2,1,.8-2.1-3.2-1.1-2.6.5-2.7-1.6s.2-1.3.8-1.5l3.1-1,1.8,1.5,1.8-1,3.2.6,1.5,2.4.3,2.3,4.5.3L573,492l-.8,1.6-1.3.8,1.6,1.6,8.4,3.6,3.6-1.3,1-2.4,2.6-.6,1.8-1.5,1.3,1,.8,2.9-2.3.8.6.6,3.4-1.3,2.3-3.4.8-.5-2.1-.3.8-1.6-.2-1.5,2.1-.5,1.1-1.3.6.8s-.2,3.1.6,3.1,4.2.6,4.2.6l4,1.9,1,1.5h2.9l1.1,1,2.3-3.1V493h-1.3l-3.4-2.7-5.8-.8-3.2-2.3,1.1-2.7,2.3.3.2-.6-1.8-1v-.5h3.2l1.8-3.1-1.3-1.9-.3-2.7-1.5.2-1.9,2.1-.6,2.6-3.1-.6-1-1.8,1.8-1.9,2-1.8-.2-.8Z"
               data-name="Louisiana" data-abbreviation="LA"
               style="stroke-opacity: 0; fill: rgb(195, 229, 230);">
            </path>

            <path class="show"
               d="M602.2,473l-1-2.6-1.1-3.1-3.3-3.5.9-6.8-.1-1.1-1.3.3-8.2.9-25,.5-.7-2.4.9-8.5,3.3-5.9,5-8.7-.6-2.4,1.3-.7.5-2-2.3-2.1-.1-1.9-1.8-4.3-.5-5.9-9.7.1-19.2.9H517v9.6l.7,9.4.7,3.9,2.5,4.1.9,5,4.3,5.5.2,3.2.7.7-.7,8.5-3,5,1.6,2.1-.7,2.5-.7,7.3-1.4,3.2.1,3.6,4.7-1.5,8.1-.3,10.3,3.6,6.5,1.1,3.7-1.5,3.2,1.1,3.2,1,.8-2.1-3.2-1.1-2.6.5-2.7-1.6s.2-1.3.8-1.5l3.1-1,1.8,1.5,1.8-1,3.2.6,1.5,2.4.3,2.3,4.5.3L573,492l-.8,1.6-1.3.8,1.6,1.6,8.4,3.6,3.6-1.3,1-2.4,2.6-.6,1.8-1.5,1.3,1,.8,2.9-2.3.8.6.6,3.4-1.3,2.3-3.4.8-.5-2.1-.3.8-1.6-.2-1.5,2.1-.5,1.1-1.3.6.8s-.2,3.1.6,3.1,4.2.6,4.2.6l4,1.9,1,1.5h2.9l1.1,1,2.3-3.1V493h-1.3l-3.4-2.7-5.8-.8-3.2-2.3,1.1-2.7,2.3.3.2-.6-1.8-1v-.5h3.2l1.8-3.1-1.3-1.9-.3-2.7-1.5.2-1.9,2.1-.6,2.6-3.1-.6-1-1.8,1.8-1.9,2-1.8-.2-.8Z"
               data-name="Louisiana" data-abbreviation="LA"
               style="stroke-opacity: 0; fill: rgb(235, 243, 243);">
            </path>
      </g>
   </g>
   <g class="svg__path__seleccion" cursor="pointer" pointer-events="all">
      <g class="svg__path__seleccion__background">
            <path class="base"
               d="M625.6,466.8,624,451.6l-2.7-18.8.2-14.1.8-31-.2-16.7.2-6.4,7.8-.4,27.8-2.6,8.9-.7-.1,2.2.2,2.1.6,3.4,3.4,7.9,2.4,9.9,1.5,6.1,1.6,4.8,1.5,7,2.1,6.3,2.6,3.4.5,3.4,1.9.8.2,2.1-1.8,4.8-.5,3.2-.2,1.9,1.6,4.4.3,5.3-.8,2.4.6.8,1.5.8,1,2.5h-6.3l-6.8.6-25.5,2.9-10.4,1.4-.1,3.8,1.8,1.8,2.6,1.9.6,7.9-5.5,2.6-2.7-.3,2.7-1.9v-1l-3.1-6-2.3-.6-1.5,4.4-1.3,2.7-.6-.2h-2.9Z"
               data-name="Alabama" data-abbreviation="AL"
               style="stroke-opacity: 0; fill: rgb(195, 229, 230);">
            </path>

            <path class="show"
               d="M625.6,466.8,624,451.6l-2.7-18.8.2-14.1.8-31-.2-16.7.2-6.4,7.8-.4,27.8-2.6,8.9-.7-.1,2.2.2,2.1.6,3.4,3.4,7.9,2.4,9.9,1.5,6.1,1.6,4.8,1.5,7,2.1,6.3,2.6,3.4.5,3.4,1.9.8.2,2.1-1.8,4.8-.5,3.2-.2,1.9,1.6,4.4.3,5.3-.8,2.4.6.8,1.5.8,1,2.5h-6.3l-6.8.6-25.5,2.9-10.4,1.4-.1,3.8,1.8,1.8,2.6,1.9.6,7.9-5.5,2.6-2.7-.3,2.7-1.9v-1l-3.1-6-2.3-.6-1.5,4.4-1.3,2.7-.6-.2h-2.9Z"
               data-name="Alabama" data-abbreviation="AL"
               style="stroke-opacity: 0; fill: rgb(235, 243, 243);">
            </path>
      </g>
   </g>
   <g class="svg__path__seleccion" cursor="pointer" pointer-events="all">
      <g class="svg__path__seleccion__background">
            <path class="base"
               d="M761.2,412.9l-1.8,1-2.6-1.3-.6-2.1-1.3-3.6-2.3-2.1-2.6-.6-1.6-4.8-2.7-6-4.2-1.9-2.1-1.9-1.3-2.6-2.1-2-2.3-1.3-2.3-2.9-3.1-2.3-4.5-1.8-.5-1.5-2.4-2.9-.5-1.5-3.4-5.2-3.4.2-4-2.4-1.3-1.3-.3-1.8.8-1.9,2.3-1-.3-2.1,6.1-2.6,9.1-4.5,7.3-.8,16.5-.5,2.3,1.9,1.6,3.2,4.4-.5,12.6-1.5,2.9.8,12.6,7.6,10.1,8.1-5.4,5.5-2.6,6.1-.5,6.3-1.6.8-1.1,2.7-2.4.6-2.1,3.6-2.7,2.7-2.3,3.4-1.6.8-3.6,3.4-2.9.2,1,3.2-5,5.5-2.3,1.6Z"
               data-name="South Carolina" data-abbreviation="SC"
               style="stroke-opacity: 0; fill: rgb(195, 229, 230);"></path>

            <path class="show"
               d="M761.2,412.9l-1.8,1-2.6-1.3-.6-2.1-1.3-3.6-2.3-2.1-2.6-.6-1.6-4.8-2.7-6-4.2-1.9-2.1-1.9-1.3-2.6-2.1-2-2.3-1.3-2.3-2.9-3.1-2.3-4.5-1.8-.5-1.5-2.4-2.9-.5-1.5-3.4-5.2-3.4.2-4-2.4-1.3-1.3-.3-1.8.8-1.9,2.3-1-.3-2.1,6.1-2.6,9.1-4.5,7.3-.8,16.5-.5,2.3,1.9,1.6,3.2,4.4-.5,12.6-1.5,2.9.8,12.6,7.6,10.1,8.1-5.4,5.5-2.6,6.1-.5,6.3-1.6.8-1.1,2.7-2.4.6-2.1,3.6-2.7,2.7-2.3,3.4-1.6.8-3.6,3.4-2.9.2,1,3.2-5,5.5-2.3,1.6Z"
               data-name="South Carolina" data-abbreviation="SC"
               style="stroke-opacity: 0; fill: rgb(235, 243, 243);"></path>
      </g>
   </g>
   <g class="svg__path__seleccion" cursor="pointer" pointer-events="all">
      <g class="svg__path__seleccion__background">
            <path class="base"
               d="M689.6,358l-4.8.8-8.4,1.1-8.6.9V363l.2,2.1.6,3.4,3.4,7.9,2.4,9.9,1.5,6.1,1.6,4.8,1.5,7,2.1,6.3,2.6,3.4.5,3.4,1.9.8.2,2.1-1.8,4.8-.5,3.2-.2,1.9,1.6,4.4.3,5.3-.8,2.4.6.8,1.5.8.6,3.4,2.6,3.9,1.5,1.5,7.9.2,10.8-.6,21.5-1.3,5.4-.7h4.6l.2,2.9,2.6.8.3-4.4-1.6-4.5,1.1-1.6,5.8.8,5,.3-.8-6.3,2.3-10,1.5-4.2-.5-2.6,3.3-6.2-.5-1.4-1.9.7-2.6-1.3-.6-2.1-1.3-3.6-2.3-2.1-2.6-.6-1.6-4.8-2.9-6.3-4.2-1.9-2.1-1.9-1.3-2.6-2.1-1.9-2.3-1.3-2.3-2.9-3.1-2.3-4.5-1.8-.5-1.5-2.4-2.9-.5-1.5-3.4-4.9-3.4.2-4.1-3-1.3-1.3-.3-1.8.8-1.9,2.4-1.2-1.1-1.2.1-.3-5.8,1-7,.8-6.8.4Z"
               data-name="Georgia" data-abbreviation="GA"
               style="stroke-opacity: 0; fill: rgb(195, 229, 230);">
            </path>

            <path class="show"
               d="M689.6,358l-4.8.8-8.4,1.1-8.6.9V363l.2,2.1.6,3.4,3.4,7.9,2.4,9.9,1.5,6.1,1.6,4.8,1.5,7,2.1,6.3,2.6,3.4.5,3.4,1.9.8.2,2.1-1.8,4.8-.5,3.2-.2,1.9,1.6,4.4.3,5.3-.8,2.4.6.8,1.5.8.6,3.4,2.6,3.9,1.5,1.5,7.9.2,10.8-.6,21.5-1.3,5.4-.7h4.6l.2,2.9,2.6.8.3-4.4-1.6-4.5,1.1-1.6,5.8.8,5,.3-.8-6.3,2.3-10,1.5-4.2-.5-2.6,3.3-6.2-.5-1.4-1.9.7-2.6-1.3-.6-2.1-1.3-3.6-2.3-2.1-2.6-.6-1.6-4.8-2.9-6.3-4.2-1.9-2.1-1.9-1.3-2.6-2.1-1.9-2.3-1.3-2.3-2.9-3.1-2.3-4.5-1.8-.5-1.5-2.4-2.9-.5-1.5-3.4-4.9-3.4.2-4.1-3-1.3-1.3-.3-1.8.8-1.9,2.4-1.2-1.1-1.2.1-.3-5.8,1-7,.8-6.8.4Z"
               data-name="Georgia" data-abbreviation="GA"
               style="stroke-opacity: 0; fill: rgb(235, 243, 243);">
            </path>
      </g>
   </g>
   <g class="svg__path__seleccion" cursor="pointer" pointer-events="all">
      <g class="svg__path__seleccion__background">
            <path class="base"
               d="M755.4,445.5l2.3,7.3,3.7,9.7,5.3,9.4,3.7,6.3,4.8,5.5,4,3.7,1.6,2.9-1.1,1.3L779,493l2.9,7.4,2.9,2.9,2.6,5.3,3.6,5.8,4.5,8.2,1.3,7.6.5,12,.6,1.8-.3,3.4-2.4,1.3.3,1.9-.6,1.9.3,2.4.5,1.9L793,560l-3.1,1.5-3.9.2-1.5,1.6-2.4,1-1.3-.5-1.1-1-.3-2.9-.8-3.4-3.4-5.2-3.6-2.3-3.9-.3-.8,1.3-3.1-4.4-.6-3.6-2.6-4-1.8-1.1-1.6,2.1-1.8-.3-2.1-5-2.9-3.9-2.9-5.3-2.6-3.1-3.6-3.7,2.1-2.4,3.2-5.5-.2-1.6-4.5-1-1.6.6.3.6,2.6,1-1.5,4.5-.8.5-1.8-4-1.3-4.8-.3-2.7,1.5-4.7v-9.5l-3-3.7-1.3-3.1-5.2-1.3-1.9-.6-1.6-2.6-3.4-1.6-1.1-3.4-2.7-1-2.4-3.7-4.2-1.5-2.9-1.5h-2.6l-4,.8-.2,1.9.8,1-.5,1.1-3.1-.2-3.7,3.6-3.6,1.9h-3.9l-3.2,1.3-.3-2.7-1.6-1.9-2.9-1.1-1.6-1.5-8.1-3.9-7.6-1.8-4.4.6-6,.5-6,2.1-3.5.6-.2-8-2.6-1.9-1.8-1.8.3-3.1,10.2-1.3,25.5-2.9,6.8-.6,5.4.3,2.6,3.9,1.5,1.5,8.1.5,10.8-.6,21.5-1.3,5.4-.7h4.6l.2,2.9,3.8.8.3-4.8-1.6-4.5,1-.7,5.1.5,5.2.3Zm12.5,132.4,2.4-.6,1.3-.2,1.5-2.3,2.3-1.6,1.3.5,1.7.3.4,1.1-3.5,1.2-4.2,1.5-2.3,1.2-.9-1.1Zm13.5-5,1.2,1.1,2.7-2.1,5.3-4.2,3.7-3.9,2.5-6.6,1-1.7.2-3.4-.7.5-1,2.8-1.5,4.6-3.2,5.3-4.4,4.2-3.4,1.9-2.4,1.5Z"
               data-name="Florida" data-abbreviation="FL"
               style="stroke-opacity: 0; fill: rgb(195, 229, 230);"
               data-svg-origin="638.7001953125 444.6998291015625"
               transform="matrix(1,0,0,1,0,0)"></path>

            <path class="show"
               d="M755.4,445.5l2.3,7.3,3.7,9.7,5.3,9.4,3.7,6.3,4.8,5.5,4,3.7,1.6,2.9-1.1,1.3L779,493l2.9,7.4,2.9,2.9,2.6,5.3,3.6,5.8,4.5,8.2,1.3,7.6.5,12,.6,1.8-.3,3.4-2.4,1.3.3,1.9-.6,1.9.3,2.4.5,1.9L793,560l-3.1,1.5-3.9.2-1.5,1.6-2.4,1-1.3-.5-1.1-1-.3-2.9-.8-3.4-3.4-5.2-3.6-2.3-3.9-.3-.8,1.3-3.1-4.4-.6-3.6-2.6-4-1.8-1.1-1.6,2.1-1.8-.3-2.1-5-2.9-3.9-2.9-5.3-2.6-3.1-3.6-3.7,2.1-2.4,3.2-5.5-.2-1.6-4.5-1-1.6.6.3.6,2.6,1-1.5,4.5-.8.5-1.8-4-1.3-4.8-.3-2.7,1.5-4.7v-9.5l-3-3.7-1.3-3.1-5.2-1.3-1.9-.6-1.6-2.6-3.4-1.6-1.1-3.4-2.7-1-2.4-3.7-4.2-1.5-2.9-1.5h-2.6l-4,.8-.2,1.9.8,1-.5,1.1-3.1-.2-3.7,3.6-3.6,1.9h-3.9l-3.2,1.3-.3-2.7-1.6-1.9-2.9-1.1-1.6-1.5-8.1-3.9-7.6-1.8-4.4.6-6,.5-6,2.1-3.5.6-.2-8-2.6-1.9-1.8-1.8.3-3.1,10.2-1.3,25.5-2.9,6.8-.6,5.4.3,2.6,3.9,1.5,1.5,8.1.5,10.8-.6,21.5-1.3,5.4-.7h4.6l.2,2.9,3.8.8.3-4.8-1.6-4.5,1-.7,5.1.5,5.2.3Zm12.5,132.4,2.4-.6,1.3-.2,1.5-2.3,2.3-1.6,1.3.5,1.7.3.4,1.1-3.5,1.2-4.2,1.5-2.3,1.2-.9-1.1Zm13.5-5,1.2,1.1,2.7-2.1,5.3-4.2,3.7-3.9,2.5-6.6,1-1.7.2-3.4-.7.5-1,2.8-1.5,4.6-3.2,5.3-4.4,4.2-3.4,1.9-2.4,1.5Z"
               data-name="Florida" data-abbreviation="FL"
               style="stroke-opacity: 0; fill: rgb(235, 243, 243);"
               data-svg-origin="638.7001953125 444.6998291015625"
               transform="matrix(1,0,0,1,0,0)"></path>
      </g>
   </g>
   <g class="svg__path__seleccion" cursor="pointer" pointer-events="all">
      <g class="svg__path__seleccion__background">
            <path class="base"
               d="M158.1,453.7l-.3,85.4,1.6,1,3.1.2,1.5-1.1h2.6l.2,2.9,7,6.8.5,2.6,3.4-1.9.6-.2.3-3.1,1.5-1.6,1.1-.2,1.9-1.5,3.1,2.1.6,2.9,1.9,1.1,1.1,2.4,3.9,1.8,3.4,6,2.7,3.9,2.3,2.7,1.5,3.7,5,1.8,5.2,2.1,1,4.4.5,3.1-1,3.4-1.8,2.3-1.6-.8-1.5-3.1-2.7-1.5-1.8-1.1-.8.8,1.5,2.7.2,3.7-1.1.5-1.9-1.9-2.1-1.3.5,1.6,1.3,1.8-.8.8a3.19,3.19,0,0,1-1.3-1c-.5-.6-2.1-3.4-2.1-3.4l-1-2.3s-.3,1.3-1,1a5.05,5.05,0,0,1-1.3-1.5l1.8-1.9-1.5-1.5v-5h-.8l-.8,3.4-1.1.5-1-3.7-.6-3.7-.8-.5.3,5.7v1.1l-1.5-1.3-3.6-6-2.1-.5-.6-3.7-1.6-2.9-1.6-1.1v-2.3l2.1-1.3-.5-.3-2.6.6-3.4-2.4-2.6-2.9-4.8-2.6-4-2.6,1.3-3.2V542l-1.8,1.6-2.9,1.1-3.7-1.1-5.7-2.4h-5.5l-.6.5-6.5-3.9-2.1-.3-2.7-5.8-3.6.3-3.6,1.5.5,4.5,1.1-2.9,1,.3-1.5,4.4,3.2-2.7.6,1.6-3.9,4.4-1.3-.3-.5-1.9-1.3-.8-1.3,1.1-2.7-1.8-3.1,2.1-1.8,2.1-3.4,2.1-4.7-.2-.5-2.1,3.7-.6v-1.3l-2.3-.6,1-2.4,2.3-3.9v-1.8l.2-.8,4.4-2.3,1,1.3h2.7l-1.3-2.6-3.7-.3-5,2.7-2.4,3.4-1.8,2.6-1.1,2.3-4.2,1.5-3.1,2.6-.3,1.6,2.3,1,.8,2.1-2.7,3.2-6.5,4.2-7.8,4.2-2.1,1.1-5.3,1.1L70.2,564l1.8,1.3-1.5,1.5-.5,1.1-2.7-1-3.2.2-.8,2.3h-1l.3-2.4L59,568.3l-2.9,1L52.7,568l-2.9,1.9H46.6l-2.1,1.3-1.6.8-2.1-.3-2.6-1.1-2.3.6-1,1-1.6-1.1v-1.9l3.1-1.3,6.3.6,4.4-1.6,2.1-2.1,2.9-.6,1.8-.8,2.7.2,1.6,1.3,1-.3,2.3-2.7,3.1-1,3.4-.6,1.3-.3.6.5h.8l1.3-3.7,4-1.5,1.9-3.7,2.3-4.5,1.6-1.5.3-2.6-1.6,1.3-3.4.6-.6-2.4-1.3-.3-1,1-.2,2.9-1.5-.2L71,540.1l-1.3,1.3-1.1-.5-.3-1.9-4,.2-2.1,1.1-2.6-.3,1.5-1.5.5-2.6L61,534l1.5-1,1.3-.2-.6-1.8v-4.4l-1-1-.8,1.5H55.3l-1.5-1.3-.6-3.9-2.1-3.6v-1l2.1-.8.2-2.1,1.1-1.1-.8-.5-1.3.5-1.1-2.7,1-5,4.5-3.2,2.6-1.6,1.9-3.7,2.7-1.3,2.6,1.1.3,2.4,2.4-.3,3.2-2.4,1.6.6,1,.6h1.6l2.3-1.3.8-4.4s.3-2.9,1-3.4a7.87,7.87,0,0,0,1-1l-1.1-1.9-2.6.8-3.2.8-1.9-.5-3.6-1.8-5-.2-3.6-3.7.5-3.9.6-2.4-2.1-1.8-1.9-3.7.5-.8,6.8-.5h2.1l1,1h.6l-.2-1.6,3.9-.6,2.6.3,1.5,1.1-1.5,2.1-.5,1.5,2.7,1.6,5,1.8,1.8-1-2.3-4.4-1-3.2,1-.8L78.5,464l-.5-1.1.5-1.6-.8-3.9-2.9-4.7-2.4-4.2,2.9-1.9h3.2l1.8.6,4.2-.2,3.7-3.6,1.1-3.1,3.7-2.4,1.6,1,2.7-.6,3.7-2.1,1.1-.2,1,.8,4.5-.2,2.7-3.1h1.1l3.6,2.4,1.9,2.1-.5,1.1.6,1.1,1.6-1.6,3.9.3.3,3.7,1.9,1.5,7.1.6,6.3,4.2,1.5-1,5.2,2.6,2.1-.6,1.9-.8,4.8,1.9,4.5,2.7ZM43,482.6l2.1,5.3-.2,1-2.9-.3-1.8-4-1.8-1.5H36l-.2-2.6,1.8-2.4,1.1,2.4,1.5,1.5Zm-2.6,33.5,3.7.8,3.7,1,.8,1L47,522.6l-3.1-.2-3.4-3.6ZM19.7,502l1.1,2.6,1.1,1.6-1.1.8-2.1-3.1V502ZM6,575.1l3.4-2.3,3.4-1,2.6.3.5,1.6,1.9.5,1.9-1.9-.3-1.6,2.7-.6,2.9,2.6-1.1,1.8-4.4,1.1-2.7-.5L13.1,574l-4.4,1.5-1.6.3Zm48.9-4.5,1.6,1.9,2.1-1.6-1.5-1.3-2.2,1Zm2.9,3,1.1-2.3,2.1.3-.8,1.9H57.8Zm23.6-1.9,1.5,1.8,1-1.1-.8-1.9Zm8.8-12.5,1.1,5.8,2.9.8,5-2.9,4.4-2.6-1.6-2.4.5-2.4-2.1,1.3-2.9-.8,1.6-1.1,1.9.8,3.9-1.8.5-1.5-2.4-.8.8-1.9-2.7,1.9-4.7,3.6-4.8,2.9-1.4,1.1Zm42.3-19.8,2.4-1.5-1-1.8-1.8,1Z"
               data-name="Alaska" data-abbreviation="AK"
               style="stroke-opacity: 0; fill: rgb(195, 229, 230);">
            </path>

            <path class="show"
               d="M158.1,453.7l-.3,85.4,1.6,1,3.1.2,1.5-1.1h2.6l.2,2.9,7,6.8.5,2.6,3.4-1.9.6-.2.3-3.1,1.5-1.6,1.1-.2,1.9-1.5,3.1,2.1.6,2.9,1.9,1.1,1.1,2.4,3.9,1.8,3.4,6,2.7,3.9,2.3,2.7,1.5,3.7,5,1.8,5.2,2.1,1,4.4.5,3.1-1,3.4-1.8,2.3-1.6-.8-1.5-3.1-2.7-1.5-1.8-1.1-.8.8,1.5,2.7.2,3.7-1.1.5-1.9-1.9-2.1-1.3.5,1.6,1.3,1.8-.8.8a3.19,3.19,0,0,1-1.3-1c-.5-.6-2.1-3.4-2.1-3.4l-1-2.3s-.3,1.3-1,1a5.05,5.05,0,0,1-1.3-1.5l1.8-1.9-1.5-1.5v-5h-.8l-.8,3.4-1.1.5-1-3.7-.6-3.7-.8-.5.3,5.7v1.1l-1.5-1.3-3.6-6-2.1-.5-.6-3.7-1.6-2.9-1.6-1.1v-2.3l2.1-1.3-.5-.3-2.6.6-3.4-2.4-2.6-2.9-4.8-2.6-4-2.6,1.3-3.2V542l-1.8,1.6-2.9,1.1-3.7-1.1-5.7-2.4h-5.5l-.6.5-6.5-3.9-2.1-.3-2.7-5.8-3.6.3-3.6,1.5.5,4.5,1.1-2.9,1,.3-1.5,4.4,3.2-2.7.6,1.6-3.9,4.4-1.3-.3-.5-1.9-1.3-.8-1.3,1.1-2.7-1.8-3.1,2.1-1.8,2.1-3.4,2.1-4.7-.2-.5-2.1,3.7-.6v-1.3l-2.3-.6,1-2.4,2.3-3.9v-1.8l.2-.8,4.4-2.3,1,1.3h2.7l-1.3-2.6-3.7-.3-5,2.7-2.4,3.4-1.8,2.6-1.1,2.3-4.2,1.5-3.1,2.6-.3,1.6,2.3,1,.8,2.1-2.7,3.2-6.5,4.2-7.8,4.2-2.1,1.1-5.3,1.1L70.2,564l1.8,1.3-1.5,1.5-.5,1.1-2.7-1-3.2.2-.8,2.3h-1l.3-2.4L59,568.3l-2.9,1L52.7,568l-2.9,1.9H46.6l-2.1,1.3-1.6.8-2.1-.3-2.6-1.1-2.3.6-1,1-1.6-1.1v-1.9l3.1-1.3,6.3.6,4.4-1.6,2.1-2.1,2.9-.6,1.8-.8,2.7.2,1.6,1.3,1-.3,2.3-2.7,3.1-1,3.4-.6,1.3-.3.6.5h.8l1.3-3.7,4-1.5,1.9-3.7,2.3-4.5,1.6-1.5.3-2.6-1.6,1.3-3.4.6-.6-2.4-1.3-.3-1,1-.2,2.9-1.5-.2L71,540.1l-1.3,1.3-1.1-.5-.3-1.9-4,.2-2.1,1.1-2.6-.3,1.5-1.5.5-2.6L61,534l1.5-1,1.3-.2-.6-1.8v-4.4l-1-1-.8,1.5H55.3l-1.5-1.3-.6-3.9-2.1-3.6v-1l2.1-.8.2-2.1,1.1-1.1-.8-.5-1.3.5-1.1-2.7,1-5,4.5-3.2,2.6-1.6,1.9-3.7,2.7-1.3,2.6,1.1.3,2.4,2.4-.3,3.2-2.4,1.6.6,1,.6h1.6l2.3-1.3.8-4.4s.3-2.9,1-3.4a7.87,7.87,0,0,0,1-1l-1.1-1.9-2.6.8-3.2.8-1.9-.5-3.6-1.8-5-.2-3.6-3.7.5-3.9.6-2.4-2.1-1.8-1.9-3.7.5-.8,6.8-.5h2.1l1,1h.6l-.2-1.6,3.9-.6,2.6.3,1.5,1.1-1.5,2.1-.5,1.5,2.7,1.6,5,1.8,1.8-1-2.3-4.4-1-3.2,1-.8L78.5,464l-.5-1.1.5-1.6-.8-3.9-2.9-4.7-2.4-4.2,2.9-1.9h3.2l1.8.6,4.2-.2,3.7-3.6,1.1-3.1,3.7-2.4,1.6,1,2.7-.6,3.7-2.1,1.1-.2,1,.8,4.5-.2,2.7-3.1h1.1l3.6,2.4,1.9,2.1-.5,1.1.6,1.1,1.6-1.6,3.9.3.3,3.7,1.9,1.5,7.1.6,6.3,4.2,1.5-1,5.2,2.6,2.1-.6,1.9-.8,4.8,1.9,4.5,2.7ZM43,482.6l2.1,5.3-.2,1-2.9-.3-1.8-4-1.8-1.5H36l-.2-2.6,1.8-2.4,1.1,2.4,1.5,1.5Zm-2.6,33.5,3.7.8,3.7,1,.8,1L47,522.6l-3.1-.2-3.4-3.6ZM19.7,502l1.1,2.6,1.1,1.6-1.1.8-2.1-3.1V502ZM6,575.1l3.4-2.3,3.4-1,2.6.3.5,1.6,1.9.5,1.9-1.9-.3-1.6,2.7-.6,2.9,2.6-1.1,1.8-4.4,1.1-2.7-.5L13.1,574l-4.4,1.5-1.6.3Zm48.9-4.5,1.6,1.9,2.1-1.6-1.5-1.3-2.2,1Zm2.9,3,1.1-2.3,2.1.3-.8,1.9H57.8Zm23.6-1.9,1.5,1.8,1-1.1-.8-1.9Zm8.8-12.5,1.1,5.8,2.9.8,5-2.9,4.4-2.6-1.6-2.4.5-2.4-2.1,1.3-2.9-.8,1.6-1.1,1.9.8,3.9-1.8.5-1.5-2.4-.8.8-1.9-2.7,1.9-4.7,3.6-4.8,2.9-1.4,1.1Zm42.3-19.8,2.4-1.5-1-1.8-1.8,1Z"
               data-name="Alaska" data-abbreviation="AK"
               style="stroke-opacity: 0; fill: rgb(235, 243, 243);">
            </path>
      </g>
   </g>
   <g class="svg__path__seleccion" cursor="pointer" pointer-events="all">
      <g class="svg__path__seleccion__background">
            <path class="base"
               d="M233.1,519.3l1.9-3.6,2.3-.3.3.8-2.1,3.1Zm10.2-3.7,6.1,2.6,2.1-.3,1.6-3.9-.6-3.4-4.2-.5-4,1.8-1,3.7Zm30.7,10,3.7,5.5,2.4-.3,1.1-.5,1.5,1.3,3.7-.2,1-1.5-2.9-1.8-1.9-3.7-2.1-3.6-5.8,2.9-.7,1.9Zm20.2,8.9,1.3-1.9,4.7,1,.6-.5,6.1.6-.3,1.3-2.6,1.5-4.4-.3-5.4-1.7Zm5.3,5.2,1.9,3.9,3.1-1.1.3-1.6-1.6-2.1-3.7-.3v1.2Zm7-1.2,2.3-2.9,4.7,2.4,4.4,1.1,4.4,2.7v1.9l-3.6,1.8-4.8,1-2.4-1.5Zm16.6,15.6,1.6-1.3,3.4,1.6,7.6,3.6,3.4,2.1,1.6,2.4,1.9,4.4,4,2.6-.3,1.3-3.9,3.2-4.2,1.5-1.5-.6-3.1,1.8-2.4,3.2-2.3,2.9-1.8-.2-3.6-2.6-.3-4.5.6-2.4-1.6-5.7-2.1-1.8-.2-2.6,2.3-1,2.1-3.1.5-1-1.6-1.8-.1-2Z"
               data-name="Hawaii" data-abbreviation="HI"
               style="stroke-opacity: 0; fill: rgb(195, 229, 230);">
            </path>

            <path class="show"
               d="M233.1,519.3l1.9-3.6,2.3-.3.3.8-2.1,3.1Zm10.2-3.7,6.1,2.6,2.1-.3,1.6-3.9-.6-3.4-4.2-.5-4,1.8-1,3.7Zm30.7,10,3.7,5.5,2.4-.3,1.1-.5,1.5,1.3,3.7-.2,1-1.5-2.9-1.8-1.9-3.7-2.1-3.6-5.8,2.9-.7,1.9Zm20.2,8.9,1.3-1.9,4.7,1,.6-.5,6.1.6-.3,1.3-2.6,1.5-4.4-.3-5.4-1.7Zm5.3,5.2,1.9,3.9,3.1-1.1.3-1.6-1.6-2.1-3.7-.3v1.2Zm7-1.2,2.3-2.9,4.7,2.4,4.4,1.1,4.4,2.7v1.9l-3.6,1.8-4.8,1-2.4-1.5Zm16.6,15.6,1.6-1.3,3.4,1.6,7.6,3.6,3.4,2.1,1.6,2.4,1.9,4.4,4,2.6-.3,1.3-3.9,3.2-4.2,1.5-1.5-.6-3.1,1.8-2.4,3.2-2.3,2.9-1.8-.2-3.6-2.6-.3-4.5.6-2.4-1.6-5.7-2.1-1.8-.2-2.6,2.3-1,2.1-3.1.5-1-1.6-1.8-.1-2Z"
               data-name="Hawaii" data-abbreviation="HI"
               style="stroke-opacity: 0; fill: rgb(235, 243, 243);">
            </path>
      </g>
   </g>
</svg>