<svg data-name="Layer 1" xmlns="http://www.w3.org/2000/svg" viewBox="0 0 741.28 460" role="presentation">
<defs><style>.cls-1{fill:#fff;}</style></defs><title>Big_cloud</title><path class="cls-1" d="M1325.49,687.35c-18.36,52.09-68.57,82.15-126.87,82.15-1.17,0-2.28-.15-3.44-.18-.91.09-1.81.18-2.73.18H759.39a33.26,33.26,0,0,1-10.06-1.62,134.83,134.83,0,0,1-19.81,1.62c-74.57,0-135-60.6-135-135.37a135.22,135.22,0,0,1,101.73-131c-.17-2.44-.39-4.88-.39-7.36a107.89,107.89,0,0,1,106.33-108,134.71,134.71,0,0,1,240-9,141.54,141.54,0,0,1,49.14-8.9c75.62,0,137.32,59.06,142.12,133.65a135.51,135.51,0,0,1,91.46,82.73S1349,620.7,1325.49,687.35Z" transform="translate(-594.5 -309.5)"/></svg>
