<?xml version="1.0" encoding="utf-8"?>
<!-- Generator: Adobe Illustrator 19.2.0, SVG Export Plug-In . SVG Version: 6.00 Build 0)  -->
<svg version="1.1" xmlns="http://www.w3.org/2000/svg" xmlns:xlink="http://www.w3.org/1999/xlink" x="0px"
	 y="0px" viewBox="0 0 256.6 245.3" style="enable-background:new 0 0 256.6 245.3;" xml:space="preserve">
<style type="text/css">
	.st0{fill:#8E9DA5;}
	.st1{fill:#DDAE9F;}
	.st2{fill:#E2C6BF;}
	.st3{fill:#EAD9D6;}
	.st4{fill:#6E777F;}
	.st5{fill:#7B858D;}
	.st6{fill:#A0B6BE;}
	.st7{fill:#5D6671;}
	.st8{opacity:0.6;fill:#B5E2EE;enable-background:new    ;}
	.st9{fill:#A8CDDA;}
	.st10{fill:#CFDC38;}
</style>
<title>Done</title>
<g>
	<path class="st0" d="M55.9,190.7l-10-56.2c-0.1-0.7-1.5-1.3-3-1c-1.5,0.2-2.6,1.2-2.4,2l9.9,56.2L55.9,190.7z"/>
	<path class="st0" d="M108.3,218l51.7-24.1c0.7-0.3,1.9,0.5,2.6,1.8s0.6,2.8-0.2,3.1l-51.7,24.1L108.3,218z"/>
	
		<rect x="53.2" y="150" transform="matrix(0.4615 -0.8871 0.8871 0.4615 -125.8532 182.0269)" class="st1" width="67.7" height="89.3"/>
	<polygon class="st2" points="142.3,185.3 63,144 84.3,125.4 145.5,157.2 	"/>
	
		<rect x="53.2" y="185.8" transform="matrix(0.4615 -0.8871 0.8871 0.4615 -125.8532 182.0269)" class="st2" width="67.7" height="17.9"/>
	<polygon class="st3" points="110.6,168.8 94.7,160.5 108.7,138.1 120.9,144.5 	"/>
	<ellipse transform="matrix(0.9558 -0.2939 0.2939 0.9558 -36.8507 18.3361)" class="st4" cx="42.6" cy="131.8" rx="5.2" ry="5.2"/>
	<path class="st0" d="M99.5,111.5l-54.5,16.8c-0.8,0.3-1,1.6-0.6,3.1c0.4,1.4,1.4,2.4,2.2,2.2l54.5-16.8L99.5,111.5z"/>
	<ellipse transform="matrix(0.9514 -0.308 0.308 0.9514 -52.0716 60.0109)" class="st4" cx="164.1" cy="195" rx="5.2" ry="5.2"/>
	<path class="st0" d="M148.2,136.8l17.6,54.3c0.3,0.8-0.8,1.8-2.2,2.2c-1.4,0.4-2.8,0.2-3.1-0.6L143,138.5L148.2,136.8z"/>
	<path class="st5" d="M148.6,111.5l42.9,0.7c2.5,0,5.4-1.4,6.3-3.1l2.5-4.8c0.9-1.7-0.3-3.5-2.7-3.9l-36.7-6.5
		c-2.3-0.4-5.2,0.6-6.3,2.4l-8.4,11.9C145,110.1,146.1,111.6,148.6,111.5z"/>
	<path class="st6" d="M200,89.1l13.1,6.8c1.3,0.7,1.7,2.2,1,3.5l-2.1,8.8l-2.6-0.8l-7.1,7.5c-1.1,1.1-3,1.5-4.3,0.8l-6.9-3.6
		c-1.3-0.7-2-2.4-1.4-3.8l3.5-9.4l-0.7-0.9l4.1-7.8C197.2,89,198.7,88.4,200,89.1z"/>
	<path class="st0" d="M187.2,120l6.9,3.6c1.3,0.7,3.2,0.3,4.3-0.8l13.8-14.5c1.1-1.1,0.8-2.6-0.5-3.3L196,96.9
		c-1.3-0.7-2.8-0.1-3.4,1.3l-6.9,18.1C185.3,117.7,186,119.4,187.2,120z"/>
	<path class="st7" d="M220.8,79.9l-10.2,19.5c-0.5,1.1-3.5,0.5-6.6-1.1c-3.2-1.6-5.3-3.7-4.7-4.8L209.4,74L220.8,79.9z"/>
	<ellipse transform="matrix(0.4615 -0.8871 0.8871 0.4615 45.6357 231.599)" class="st8" cx="213.6" cy="78.2" rx="7.6" ry="43"/>
	<path class="st7" d="M209.5,74.1c-0.5,1.1,1.5,3.2,4.7,4.8c3.2,1.6,6.1,2.2,6.6,1.1c0.5-1.1-0.9-4.5-4-6.1
		C213.7,72.2,210.1,73,209.5,74.1z"/>
	<path class="st5" d="M151.4,139.3l35.8,25c2.1,1.4,4.6,1.1,5.7-0.9l2.7-5.3c1-2,0.3-5.1-1.6-7l-29.6-29.8c-1.9-1.8-4.4-1.9-5.7-0.1
		l-8.9,12.2C148.8,135.1,149.4,137.8,151.4,139.3z"/>
	<path class="st6" d="M196.5,138.8l15.2,7.9c1.5,0.8,1.9,2.5,1.1,3.9l-2.6,9.9l-3-0.9l-8.1,8.4c-1.2,1.2-3.4,1.6-4.8,0.9l-7.7-4
		c-1.5-0.8-2.2-2.6-1.5-4.2l4-10.7l-0.9-0.9l4.6-8.8C193.4,138.7,195.1,138,196.5,138.8z"/>
	<path class="st0" d="M182.1,173.6l7.7,4c1.5,0.8,3.7,0.4,4.8-0.9l15.6-16.4c1.2-1.2,1-2.8-0.5-3.6l-17.6-9.1
		c-1.5-0.8-3.1-0.1-3.8,1.4l-7.8,20.5C179.9,171,180.6,172.8,182.1,173.6z"/>
	<path class="st7" d="M219.6,129.3l-11,21.1c-0.6,1.2-4,0.6-7.4-1.2c-3.4-1.8-5.9-4.2-5.2-5.4l11-21.1L219.6,129.3z"/>
	<path class="st5" d="M115.4,94.3L90,59.6c-1.4-2.1-2-5.2-1.1-6.9l2.5-4.8c0.9-1.7,3.1-1.7,4.7-0.1l26.4,26.3
		c1.6,1.7,2.5,4.6,1.6,6.6l-4.9,13.7C118.7,96.5,116.9,96.4,115.4,94.3z"/>
	<path class="st6" d="M104.3,39.3l-13.1-6.8c-1.3-0.7-2.8-0.1-3.5,1.2l-6,6.8l2.2,1.6l-2.1,10.2c-0.3,1.5,0.5,3.3,1.8,4l6.9,3.6
		c1.3,0.7,3.1,0.2,3.9-1l5.7-8.3l1.1,0.1l4.1-7.8C105.8,41.4,105.5,39.9,104.3,39.3z"/>
	<path class="st0" d="M86.4,67.6L79.5,64c-1.3-0.7-2.1-2.4-1.8-4l4-19.6c0.3-1.5,1.6-2.2,3-1.5l15.6,8.1c1.3,0.7,1.7,2.2,0.9,3.5
		l-10.8,16C89.3,67.8,87.6,68.2,86.4,67.6z"/>
	<path class="st7" d="M99.9,17L89.7,36.6c-0.5,1.1,1.5,3.2,4.7,4.8c3.2,1.6,6.1,2.2,6.6,1.1L111.3,23L99.9,17z"/>
	<ellipse transform="matrix(0.4615 -0.8871 0.8871 0.4615 37.3115 105.3269)" class="st8" cx="105.4" cy="21.9" rx="7.6" ry="43"/>
	<path class="st7" d="M111.1,22.9c-0.5,1.1-3.5,0.5-6.6-1.1c-3.2-1.6-5.3-3.7-4.7-4.8s4.2-1.9,7.3-0.2S111.7,21.8,111.1,22.9z"/>
	<path class="st5" d="M91,107.9L50,93c-2.4-0.9-3.5-3.2-2.5-5.2l2.7-5.3c1-2,4-3.1,6.6-2.8l41.4,7.1c2.6,0.5,4.1,2.5,3.3,4.6
		l-4.9,14.2C96,107.7,93.5,108.7,91,107.9z"/>
	<path class="st6" d="M65.6,70.7l-15.2-7.9c-1.5-0.8-3.1-0.1-3.9,1.3L40,72l2.5,2l-2.2,11.4c-0.4,1.7,0.6,3.7,2.1,4.4l7.7,4
		c1.5,0.8,3.4,0.3,4.3-1.1l6.4-9.4l1.3,0.2l4.6-8.8C67.5,73.2,67.1,71.5,65.6,70.7z"/>
	<path class="st0" d="M45.4,102.5l-7.7-4c-1.5-0.8-2.4-2.8-2.1-4.4l4.5-22.2c0.4-1.7,1.8-2.4,3.2-1.7l17.6,9.1
		c1.5,0.8,1.9,2.5,1,3.9l-12.3,18.1C48.8,102.7,46.8,103.2,45.4,102.5z"/>
	<path class="st7" d="M60.1,46.4l-11,21.1c-0.6,1.2,1.8,3.6,5.2,5.4c3.4,1.8,6.8,2.4,7.4,1.2l11-21.1L60.1,46.4z"/>
	<path class="st6" d="M172.1,107.3c1.8-6.4-1.4-14-7.3-17l-8.3-4.3l-22.3-11.6l-8.3-4.3c-5.9-3.1-14.1-1.3-18.1,3.8L95.5,83.9
		c4.3-2.5,9.8-2.8,14.2-0.5l15.5,8l22.3,11.6l15.5,8c4.4,2.3,7.3,7,7.7,11.9L172.1,107.3z"/>
	<path class="st7" d="M165.7,112.5l-58.5-30.4c-5.8-3-12-0.2-13.7,6.1l-3.6,19.5c-1.7,6.5,1.7,14.1,7.5,17.2l38.8,20.2
		c5.8,3,14.1,1.3,18.4-3.7l13.9-13.9C172.7,122.2,171.5,115.6,165.7,112.5z"/>
	<ellipse transform="matrix(0.4615 -0.8871 0.8871 0.4615 -10.3649 86.7911)" class="st8" cx="66.3" cy="51.9" rx="8.5" ry="48.5"/>
	<path class="st7" d="M72.8,53c-0.6,1.2-4,0.6-7.4-1.2c-3.4-1.8-5.9-4.2-5.2-5.4c0.6-1.2,4.8-2.1,8.2-0.3
		C71.8,47.9,73.4,51.8,72.8,53z"/>
	<path class="st9" d="M162.9,99.2c-1.1,2.1-11.9-1.3-24.2-7.7s-21.3-13.3-20.2-15.4c1.1-2.1,14.6-4,26.9,2.4
		C157.7,84.9,164,97.1,162.9,99.2z"/>
	
		<ellipse transform="matrix(0.4615 -0.8871 0.8871 0.4615 0.8051 256.2332)" class="st8" cx="211.5" cy="127.5" rx="8.5" ry="48.5"/>
	<path class="st7" d="M206.9,122.7c-0.6,1.2,1.8,3.6,5.2,5.4c3.6,1.9,6.8,2.4,7.4,1.2c0.6-1.2-1.1-5.1-4.5-6.9
		C211.5,120.6,207.5,121.5,206.9,122.7z"/>
	
		<ellipse transform="matrix(0.4615 -0.8871 0.8871 0.4615 -28.7552 146.0716)" class="st10" cx="105.9" cy="96.7" rx="3.6" ry="3.6"/>
	<title>Drone</title>
</g>
</svg>
