<?xml version="1.0" encoding="utf-8"?>
<!-- Generator: Adobe Illustrator 19.2.0, SVG Export Plug-In . SVG Version: 6.00 Build 0)  -->
<svg version="1.1" xmlns="http://www.w3.org/2000/svg" xmlns:xlink="http://www.w3.org/1999/xlink" x="0px"
	 y="0px" viewBox="0 0 388.4 685.8" style="enable-background:new 0 0 388.4 685.8;" xml:space="preserve">
<style type="text/css">
	.st0{fill:#D1E42D;}
	.st1{fill:#78CDD1;}
	.st2{fill:#C7D4E2;}
	.st3{fill:#F0F0F0;}
	.st4{fill:#546FC3;}
	.st5{fill:#FA7A47;}
	.st6{fill:#F7F7F7;}
	.st7{fill:#D8D8D8;}
	.st8{fill:#BABABA;}
	.st9{fill:#D35B31;}
	.st10{fill:#5C6670;}
	.st11{fill:#AA7F3F;}
	.st12{fill:#C4974E;}
	.st13{fill:#FFFFFF;}
</style>
<circle class="st0" cx="45.1" cy="62" r="9.4"/>
<circle class="st1" cx="156.1" cy="79.6" r="8.6"/>
<circle class="st2" cx="143.1" cy="14.2" r="7.7"/>
<circle class="st0" cx="245.1" cy="142.8" r="6.9"/>
<circle class="st3" cx="69.6" cy="79.7" r="5.1"/>
<circle class="st4" cx="17.6" cy="32.2" r="6"/>
<circle class="st5" cx="235.3" cy="222.5" r="6"/>
<title>Working_guy</title>
<rect x="228.6" y="206.9" transform="matrix(0.9401 -0.3409 0.3409 0.9401 -99.4786 103.0521)" class="st6" width="29.8" height="255.4"/>
<rect x="228.9" y="211.2" transform="matrix(0.9401 -0.3409 0.3409 0.9401 -101.2199 99.1413)" class="st7" width="5.2" height="252.8"/>
<path class="st7" d="M215.3,220.7h-34.5c-5.3,0-9.7-4.4-9.7-9.7v-58.5c0-5.3,4.4-9.7,9.7-9.7h34.5c5.3,0,9.7,4.4,9.7,9.7v58.5
	C225,216.3,220.6,220.7,215.3,220.7z"/>
<path class="st8" d="M196.3,142.7h-15.6c-5.3,0-9.7,4.4-9.7,9.7v58.5c0,5.3,4.4,9.7,9.7,9.7h15.6V142.7z"/>
<rect x="27" y="88" transform="matrix(0.7071 -0.7071 0.7071 0.7071 -77.3087 59.3604)" class="st7" width="12" height="70"/>
<path class="st7" d="M22.9,362c2.1,4.7,6.2,8,10.9,8H158c4.7,0,8.9-3.3,10.9-8H22.9z"/>
<polygon class="st6" points="261.7,439.3 351,685.8 388.4,685.8 388.4,679.4 301.3,439.3 "/>
<polygon class="st7" points="367.9,685.8 373.8,685.8 284.4,439.3 278.6,439.3 "/>
<polygon class="st7" points="351,685.8 360.6,685.8 271.2,439.3 261.7,439.3 "/>
<rect x="271.2" y="425.9" transform="matrix(0.9401 -0.3409 0.3409 0.9401 -140.2568 126.4959)" class="st8" width="37.3" height="73"/>
<path class="st6" d="M215.3,142.7h-34.5c-5.3,0-9.7,4.4-9.7,9.7v5c0-5.3,4.4-9.7,9.7-9.7h34.5c5.3,0,9.7,4.4,9.7,9.7v-5
	C225,147,220.6,142.7,215.3,142.7z"/>
<path class="st7" d="M180.7,147.7h15.6v-5h-15.6c-5.3,0-9.7,4.4-9.7,9.7v5C171,152,175.4,147.7,180.7,147.7z"/>
<path class="st9" d="M101.5,18.4c0,0-9.7-6-19.1-8.4S69.7,8.2,69.7,8.2s-1.2,0.7,2,3.2s10.9,6,10.9,6s9.1,3.1,10.1,2.3
	S101.5,18.4,101.5,18.4z"/>
<path class="st10" d="M119,42.7c0,0,9.9,1.7,13,8.8s0,12.7-0.3,16s5.5,5.8,5.5,5.8s-8.3,2.5-14.9,0.6s-12.1-12.1-12.1-12.1l0.1-17.5
	L119,42.7z"/>
<g>
	<path class="st11" d="M111.9,41L111.9,41L111.9,41z"/>
	<path class="st12" d="M112.4,64c0.2-2.9,0.3-19.5,0.8-23.3c-0.9-0.6-17.2,4.1-19.8,4.8l0.8,20.6L112.4,64
		C112.3,64.1,112.1,68.8,112.4,64z"/>
</g>
<path class="st12" d="M110.1,38c0.5-3.3-1.2-6.2-3.7-6.5c-1.2-0.2-2.5,0.4-3.5,1.5c-1.8-2.2-4.3-5.2-4.3-5.2s-0.2-3.4-0.9-4.7
	c-0.5-1.4-4.9-2-7.1-5.3c-2.1-3.4-2.4-5.3-2.4-5.3s-3.8,2.5-6,7c-2.2,4.5-2.1,6.6-2.1,6.6s-1,2.9-2.5,5s-3.3,4.4-4.2,4.8
	c-0.7,0.5,1.2,2.6,2,3.1c0.8,0.4,2,1,2,1s-0.4,8.8-0.2,11.4c0.2,2.6,3.5,3.8,5.2,4c1.6,0.2,9.1,0.7,12.7-0.6
	c3.6-1.3,8.5-6.4,10.6-10.6c0.2-0.4,0.4-0.7,0.4-1.1C108.3,42.5,109.7,40.5,110.1,38z"/>
<ellipse transform="matrix(0.135 -0.9908 0.9908 0.135 43.2277 109.2876)" cx="84.2" cy="29.9" rx="1.6" ry="1.1"/>
<g>
	<path d="M80.3,46.7c-0.2-0.1-0.4-0.4-0.4-0.6c0-0.3,0-0.1,0.4-0.2c0,0,3.5,0.4,5.4-0.5c1.8-0.9,2.3-1.7,2.3-1.7
		c0.2-0.4,0.6-0.3,0.9-0.1c0.4,0.2,0.4,0.6,0.1,0.9c-0.2,0.5-1.6,1.1-2.6,1.7c-2.2,1.1-5.9,0.6-6.1,0.7
		C80.5,46.7,80.3,46.7,80.3,46.7z"/>
</g>
<g>
	<path d="M89.2,45.4L88.6,44c-0.4-0.5-0.9-1.6-1.8-1.8c0,0,1.6-0.4,2.5,1.2C89.9,44.5,89.2,45.4,89.2,45.4z"/>
</g>
<path class="st10" d="M124.9,35.7c4.6-11.6,4.1-20.9-9.2-27.7s-24.9-3.8-27.5,0c-1.7,2.5,0.1,4.5,0.1,4.5s0.2,1.9,2.4,5.3
	c2.1,3.4,6.5,4,7.1,5.3c0.5,1.4,0.9,4.7,0.9,4.7s2.4,2.8,4.3,5.2c0.9-1,2.3-1.7,3.5-1.5c2.5,0.3,3.7,3.3,3.2,6.6
	c-0.4,2.6-1.5,4.4-3.3,5c-0.2,0.4-0.2,0.8-0.4,1.1c-0.3,0.6-0.6,1.3-1.1,1.9c0.7,1.8,8.9,0,9.5,0.2
	C115.1,46.6,120.3,47.3,124.9,35.7z"/>
<g>
	<path class="st10" d="M92,27.6c-0.2-0.1-0.4-0.2-0.4-0.4c0,0-1.1-2.2-3.2-3.5c-2.1-1.2-4.8-1.3-4.8-1.2c-0.6,0-0.9-0.5-1-0.9
		c0-0.6,0.5-0.9,0.9-1c0.1,0.1,3.2,0,5.8,1.6c2.6,1.6,4,4.2,3.9,4.3c0.2,0.4,0.1,1.1-0.3,1.3C92.5,27.8,92.3,27.8,92,27.6z"/>
</g>
<ellipse transform="matrix(0.4449 -0.8956 0.8956 0.4449 18.8193 118.6584)" class="st13" cx="105.1" cy="44.1" rx="2" ry="2"/>
<path class="st6" d="M115.5,59.8c0,0-2-0.5-13,0.2s-12.8,3.2-12.8,3.2l-0.2,8.5c0,0,16-4.2,21.5-4.2s7.2,0,7.2,0L115.5,59.8z"/>
<path class="st1" d="M123,129c0,0,2.8-30.5,2.2-44.8s-2-19.2-14.5-20S90.5,67,87,71.5s-9,19.8-11.8,25.8s0.5,35.2,0.5,35.2l2.8-0.5
	L123,129z"/>
<path class="st6" d="M104.8,71c-4.8-2.2-12,1.8-16.2,12.8S77,117,77,117l-15,13.5l22.8,2.5c0,0,13.2-2.8,18.2-16.2s8.8-20.5,9-32
	S108.4,72.7,104.8,71z"/>
<path class="st6" d="M6.2,130.7v216.5c0,8.2,6.7,14.9,14.9,14.9h149.6c8.2,0,14.9-6.7,14.9-14.9V130.7H6.2z"/>
<path class="st7" d="M142.2,130.7v216.5c0,8.2-6.7,14.9-14.9,14.9h43.3c8.2,0,14.9-6.7,14.9-14.9V130.7H142.2z"/>
<rect x="6.2" y="132.5" class="st7" width="179.3" height="6.7"/>
<rect x="0.1" y="128" class="st6" width="191.7" height="6.7"/>
<rect x="0.1" y="126" class="st13" width="191.7" height="3.3"/>
<rect x="0.1" y="324.7" class="st13" width="191.7" height="3.3"/>
<g>
	<rect x="6.2" y="201.3" class="st5" width="179.3" height="6.7"/>
	<rect x="6.2" y="255.3" class="st5" width="179.3" height="6.7"/>
</g>
<rect x="6.2" y="331.8" class="st7" width="179.3" height="6.7"/>
<rect x="0.1" y="327.3" class="st6" width="191.7" height="6.7"/>
<circle class="st8" cx="202.3" cy="197.3" r="10.7"/>
<circle class="st13" cx="202.3" cy="192.3" r="10.7"/>
<rect x="261.6" y="409.2" transform="matrix(0.9401 -0.3409 0.3409 0.9401 -134.942 123.4403)" class="st6" width="44.4" height="73"/>
<rect x="262.7" y="415.8" transform="matrix(0.9401 -0.3409 0.3409 0.9401 -137.6518 119.348)" class="st7" width="16.1" height="71.2"/>
<rect x="250.1" y="411.2" transform="matrix(0.9401 -0.3409 0.3409 0.9401 -124.8153 117.6177)" class="st13" width="44.4" height="5.5"/>
<path class="st9" d="M129.3,14.4c-1.5-6.2-12.2-13.4-25-14.4C93.7-0.8,87.8,7.9,86,11.1c8.1,2.8,15.5,7.3,15.5,7.3
	c15.6,6.7,25,15.1,25,15.1s0,0,0.7-2.5C128,28.6,130.8,20.6,129.3,14.4z"/>
<path class="st9" d="M82.7,11.8c0,0,3-0.2,5.2,0.6c2.2,0.8,9.9,4.4,18.7,9.1S124,32,124.8,32.8c0.8,0.8,0.8,0.8,0.8,0.8
	s0.8,0.2,0.9,0c0.4-0.7-1.7-2.9-1.7-2.9l-16.5-11.8l-17.2-8L86,11.1L82.7,11.8z"/>
<path class="st5" d="M110.9,1.1c-2.1-0.5-4.4-0.9-6.7-1.1C93.7-0.8,87.8,7.9,86,11.1c8.1,2.8,15.5,7.3,15.5,7.3
	c1.8,0.8,3.4,2,5.1,2.8c0.7-1.4,1.9-4.2,3.6-8C112.1,8.8,112.9,4.7,110.9,1.1z"/>
</svg>
