<svg data-name="Layer 1" xmlns="http://www.w3.org/2000/svg" viewBox="0 0 57.97 58" role="presentation"><title>Icon_School</title><path fill="#78cdd1" fill-rule="evenodd" d="M794.21,511.42a29,29,0,1,1-29,29A29,29,0,0,1,794.21,511.42Z" transform="translate(-765.23 -511.42)"/><path fill="#fff" d="M804.59,553.16v-4.07c1.62-.93,2.64-2.06,2.64-3.3v-7.11l7.51-2.81a.64.64,0,0,0,0-1.19l-21.11-7.91a.66.66,0,0,0-.44,0l-21.11,7.91a.64.64,0,0,0,0,1.19l7.5,2.81v7.11c0,3.33,7.43,5.91,13.83,5.91a25.91,25.91,0,0,0,9.92-2v3.42Zm-11.18-2.73c-6.47,0-12.56-2.61-12.56-4.64v-6.64l12.34,4.63a.78.78,0,0,0,.22,0,.85.85,0,0,0,.22,0l9.7-3.64v8.2A23.79,23.79,0,0,1,793.41,550.43ZM806,545.79c0,.59-.51,1.21-1.38,1.82v-7.94l1.38-.52Zm-2.44-7.07-8.13-3.05a.84.84,0,0,0,.12-.39c0-.7-.95-1.27-2.11-1.27s-2.11.57-2.11,1.27.94,1.26,2.11,1.26a3.45,3.45,0,0,0,.57,0l7.75,2.9-8.32,3.12-19.31-7.23L793.41,528l19.3,7.24Z" transform="translate(-765.23 -511.42)"/></svg>
