<svg data-name="Layer 2" xmlns="http://www.w3.org/2000/svg" viewBox="0 0 58 58.03" role="presentation"><title>Icon_Drone</title><path fill="#78cdd1" fill-rule="evenodd" d="M865.33,510.91a29,29,0,1,1-29,29A29,29,0,0,1,865.33,510.91Z" transform="translate(-836.33 -510.91)"/><path fill="#fff" d="M887.89,533.54h-5.64a.81.81,0,1,0,0,1.61h5.64a.81.81,0,0,0,0-1.61Z" transform="translate(-836.33 -510.91)"/><path fill="#fff" d="M868.55,535.15h5.64a.81.81,0,1,0,0-1.61h-5.64a.81.81,0,0,0,0,1.61Z" transform="translate(-836.33 -510.91)"/><path fill="#fff" d="M880.35,538.42a.43.43,0,0,0,0,0v-4.44a2.15,2.15,0,0,0-4.28,0v4.44h-22.3v-4.44a2.15,2.15,0,0,0-4.29,0v4.44a.14.14,0,0,0,0,.06,2.42,2.42,0,0,0-1.9,2.36c0,1.34,1.74,2.19,2.09,2.35l.1,0a41,41,0,0,0,6.41,1.11,16.07,16.07,0,0,0-5.32,6.77.8.8,0,0,0,.45,1.05.77.77,0,0,0,.3.06.8.8,0,0,0,.74-.51,14.84,14.84,0,0,1,6.07-7,.86.86,0,0,0,.2-.18c2.27.18,5,.31,8.15.31,2.18,0,4-.06,5.61-.16a13.65,13.65,0,0,1,5.86,7,.81.81,0,0,0,.76.54.86.86,0,0,0,.27,0,.8.8,0,0,0,.48-1,14.87,14.87,0,0,0-4.86-6.62c4.24-.44,5.74-1.14,6.09-1.34s2-1,2-2.33S881.58,538.63,880.35,538.42Zm-2.13-4.83c.3,0,.53.18.53.34v2h-1.06v-2C877.69,533.77,877.92,533.59,878.22,533.59Zm-.53,4.78v-.8h1.06v.8h-1.06Zm-26.58-.8h1.06v.8h-1.06Zm.53-4c.3,0,.53.18.53.34v2h-1.06v-2C851.11,533.77,851.33,533.59,851.64,533.59Zm28.67,8.08-.09,0s-2.69,1.5-13.42,1.5c-10.38,0-15.9-1.41-16.5-1.57a2.4,2.4,0,0,1-1.08-.85.8.8,0,0,1,.81-.8h29.8c.66,0,1.58.54,1.61.79A2.44,2.44,0,0,1,880.31,541.67Z" transform="translate(-836.33 -510.91)"/><path fill="#fff" d="M855.66,535.15h5.64a.81.81,0,1,0,0-1.61h-5.64a.81.81,0,0,0,0,1.61Z" transform="translate(-836.33 -510.91)"/><path fill="#fff" d="M848.41,534.35a.8.8,0,0,0-.8-.81H842a.81.81,0,1,0,0,1.61h5.64A.8.8,0,0,0,848.41,534.35Z" transform="translate(-836.33 -510.91)"/></svg>
