<svg data-name="Layer 3" xmlns="http://www.w3.org/2000/svg" viewBox="0 0 58 58.03" role="presentation"><title>Icon_Light</title><path fill="#78cdd1" fill-rule="evenodd" d="M934.29,510.91a29,29,0,1,1-29,29A29,29,0,0,1,934.29,510.91Z" transform="translate(-905.29 -510.91)"/><path fill="#fff" d="M935.9,554.48h-4a.81.81,0,0,1,0-1.61h4a.81.81,0,0,1,0,1.61Z" transform="translate(-905.29 -510.91)"/><path fill="#fff" d="M933.88,558.91a5.2,5.2,0,0,1-3.91-1.34,3.35,3.35,0,0,1-.92-2.32v-5.6a.81.81,0,0,1,1.61,0v5.64a1.72,1.72,0,0,0,.5,1.19,4.92,4.92,0,0,0,5.47,0,1.74,1.74,0,0,0,.48-1.13v-5.68a.81.81,0,0,1,1.61,0v5.64a3.31,3.31,0,0,1-.93,2.28A5.17,5.17,0,0,1,933.88,558.91Z" transform="translate(-905.29 -510.91)"/><path fill="#fff" d="M944.18,528.1a.81.81,0,0,1-.57-1.38l3.19-3.19a.81.81,0,0,1,1.14,0,.8.8,0,0,1,0,1.14l-3.19,3.19A.78.78,0,0,1,944.18,528.1Z" transform="translate(-905.29 -510.91)"/><path fill="#fff" d="M923.06,529.49a.83.83,0,0,1-.57-.23l-2.85-2.85a.81.81,0,0,1,0-1.14.8.8,0,0,1,1.14,0l2.85,2.85a.81.81,0,0,1,0,1.14A.85.85,0,0,1,923.06,529.49Z" transform="translate(-905.29 -510.91)"/><path fill="#fff" d="M933.48,524.68a.8.8,0,0,1-.8-.81v-4a.81.81,0,1,1,1.61,0v4A.81.81,0,0,1,933.48,524.68Z" transform="translate(-905.29 -510.91)"/><path fill="#fff" d="M936.43,550.46h-5.12a3.1,3.1,0,0,1-3-2.38c-.6-2.51-1-2.91-1-2.92a10.38,10.38,0,0,1-4.24-8.34,10.88,10.88,0,0,1,21.75,0,10.36,10.36,0,0,1-4.25,8.35l-.08.05h0s-.41.41-1,2.82A3.09,3.09,0,0,1,936.43,550.46Zm-8.29-6.64c.46.29,1,1,1.72,3.88a1.5,1.5,0,0,0,1.45,1.15h5.12a1.5,1.5,0,0,0,1.46-1.17c.65-2.81,1.22-3.54,1.69-3.83a8.73,8.73,0,0,0,3.57-7,9.27,9.27,0,0,0-18.53,0A8.77,8.77,0,0,0,928.14,543.82Zm11.89.7h0Z" transform="translate(-905.29 -510.91)"/></svg>
