<?xml version="1.0" encoding="utf-8"?>
<!-- Generator: Adobe Illustrator 19.2.0, SVG Export Plug-In . SVG Version: 6.00 Build 0)  -->
<svg version="1.1" xmlns="http://www.w3.org/2000/svg" xmlns:xlink="http://www.w3.org/1999/xlink" x="0px" y="0px"
	 viewBox="0 0 607 438.7" style="enable-background:new 0 0 607 438.7;" xml:space="preserve">
<style type="text/css">
	.st0{fill:#D8D8D8;}
	.st1{fill:#F7F7F7;}
	.st2{fill:#C4D438;}
	.st3{fill:#FFFFFF;}
	.st4{fill:#FA7A47;}
	.st5{fill:#5C666F;}
	.st6{fill:#78CDD1;}
	.st7{fill:#93D7DA;}
	.st8{fill:#519B9B;}
</style>
<path class="st0" d="M364,117c15.3,0,27.7,12.4,27.7,27.7s-12.4,27.7-27.7,27.7c-15.3,0-27.7-12.4-27.7-27.7v0
	C336.3,129.4,348.7,117,364,117z"/>
<path class="st1" d="M364,120.3c13.5,0,24.4,10.9,24.4,24.4c0,13.5-10.9,24.4-24.4,24.4c-13.5,0-24.4-10.9-24.4-24.4v0
	C339.6,131.2,350.5,120.3,364,120.3z"/>
<path class="st2" d="M364,125c10.9,0,19.7,8.8,19.7,19.7s-8.8,19.7-19.7,19.7c-10.9,0-19.7-8.8-19.7-19.7v0
	C344.3,133.8,353.1,125,364,125z"/>
<g>
	<path class="st3" d="M372.3,146.8H364c-0.6,0-1.1-0.5-1.1-1.1v-12c0-0.6,0.5-1.1,1.1-1.1s1.1,0.5,1.1,1.1v10.9h7.2
		c0.6,0,1.1,0.5,1.1,1.1S373,146.8,372.3,146.8z"/>
</g>
<g>
	<rect x="265" y="176.7" class="st4" width="16" height="8"/>
	<rect x="265" y="156.7" class="st4" width="16" height="8"/>
	<polygon class="st4" points="289,174.7 289,166.7 281,166.7 265,166.7 265,174.7 281,174.7 	"/>
</g>
<g>
	<rect x="450.3" y="176.7" class="st4" width="16" height="8"/>
	<rect x="450.3" y="156.7" class="st4" width="16" height="8"/>
	<polygon class="st4" points="442.3,174.7 442.3,166.7 450.3,166.7 466.3,166.7 466.3,174.7 450.3,174.7 	"/>
</g>
<title>School</title>
<g>
	<rect x="555" y="266.7" class="st5" width="2" height="51"/>
</g>
<g>
	<polygon class="st5" points="168,438.7 0,438.7 0,436.7 166,436.7 166,266.7 168,266.7 	"/>
</g>
<path class="st6" d="M396.5,3.7c-6,6-30,0-30,0v40c0,0,24,6,30,0s30,0,30,0v-40C426.5,3.7,402.5-2.3,396.5,3.7z"/>
<path class="st5" d="M366,2.2c-0.8,0-1.5,0.7-1.5,1.5v73c0,0.8,0.7,1.5,1.5,1.5s1.5-0.7,1.5-1.5v-73C367.5,2.8,366.8,2.2,366,2.2z"
	/>
<g>
	<path class="st5" d="M466,130.7h2v95.1h-2V130.7z"/>
</g>
<g>
	<path class="st5" d="M263,130.6h2v95.1h-2V130.6z"/>
</g>
<path class="st7" d="M425.5,42.4c-6.1-1.4-12.3-2.2-18.6-2.4c-4.1,0-7.3,0.6-9.4,1.7V4.1c1.7-1.4,4.9-2.1,9.4-2.1
	c7.3,0,16,1.9,18.6,2.5V42.4z"/>
<path class="st6" d="M486.2,126.3L366.3,76.8c-0.8-0.5-1.9-0.3-2.5,0.5L244,126.2c-0.9,0.6-1.3,1.8-0.7,2.7l4.5,7.8
	c0.6,0.9,1.8,1.3,2.7,0.7l115-47l114.2,47.1c1,0.6,2.2,0.2,2.7-0.7l4.5-7.8C487.4,128.1,487.1,126.9,486.2,126.3z"/>
<path class="st6" d="M605,270.2L366.5,193c-0.2-0.1-0.5-0.2-0.7-0.2h-0.1h-0.4h-0.1c-0.3,0-0.5,0.1-0.7,0.2L116,270.2
	c-0.9,0.6-1.3,1.8-0.7,2.7l4.5,7.8c0.6,0.9,1.8,1.3,2.7,0.7l242.9-75.5l233.1,75.5c1,0.5,2.2,0.2,2.7-0.7l4.5-7.8
	C606.3,271.9,605.9,270.7,605,270.2z"/>
<path class="st8" d="M363.8,87.2l-117,47.8l0.9,1.6c0.6,0.9,1.8,1.3,2.7,0.7l115-47l114.2,47.1c1,0.6,2.2,0.2,2.7-0.7l1-1.7
	l-117-48.3C365.5,86.3,364.4,86.5,363.8,87.2z"/>
<path class="st8" d="M365.8,202.7L365.8,202.7h-0.5h-0.1c-0.3,0-0.5,0.1-0.7,0.2l-245.5,76.3l0.8,1.4c0.6,0.9,1.8,1.3,2.7,0.7
	l242.9-75.5l233.1,75.5c1,0.5,2.2,0.2,2.7-0.7l0.8-1.4L366.5,203C366.3,202.8,366,202.7,365.8,202.7z"/>
</svg>
